<?xml version="1.0" encoding="utf-8"?>
<!-- Generator: Adobe Illustrator 21.0.2, SVG Export Plug-In . SVG Version: 6.00 Build 0)  -->
<svg version="1.1" id="Layer_1" xmlns="http://www.w3.org/2000/svg" xmlns:xlink="http://www.w3.org/1999/xlink" x="0px" y="0px"
	 viewBox="0 0 184 147" style="enable-background:new 0 0 184 147;" xml:space="preserve">
<style type="text/css">
	.st0{fill:#004B23;}
</style>
<g>
	<g>
		<path class="st0" d="M130.1,104.2c-6.4-0.7-13.9-1.8-18.7-2.4l-5.7-17.3c0.7,0.3,1.4,0.6,2,1c0.4-3.6-3.3-3.2-4.5-5.2
			c-0.2,1.7,0.4,2.7,1.2,3.4h0l0.3,1l-4.4,0l-0.1-0.4c0.4-0.1,0.8-0.1,1.1,0c-0.3-0.8-1.5-2.6-3.1-2.8c0,0-0.3,1.4,0.4,2.4
			c0.2,0.2,0.3,0.4,0.6,0.4l5.6,17.3c-0.2,0-0.4,0-0.6,0c-2.3-0.2-5.1-0.6-6.8-1.6c-1.2-0.7-2.4-1.5-2.9-2.5
			c-0.2,4.8,4.3,8.2,8.3,8.9c9.9,1.8,16.8,1.6,26.9,1.3c9.7-0.3,27.1-1.9,32.6-2.6C155.1,105.5,146.2,106,130.1,104.2 M100.7,85.7
			l4.4,0l0.8,2.5l-4.4,0L100.7,85.7z M101.8,89.2l4.3,0l0.9,2.6l-4.3,0L101.8,89.2z M103,92.8l4.3,0l0.9,2.7l-4.3,0L103,92.8z
			 M108.5,96.4l1,2.9l-4.3,0l-1-2.9L108.5,96.4z M105.9,101.7l-0.5-1.4l4.3,0l0.5,1.5C108.8,101.8,107.4,101.8,105.9,101.7"/>
		<path class="st0" d="M89.8,102.8c1,0.2,4.8,3.5,8.9,3.6c-3.7-0.2-9-6-8.9-6.6c0.2-1.1,2.7-1.2,2.7-1.6c0-0.4-1.3-1.2-1.3-1.2
			s2.8-0.4,3.1-2.5c-1.1,1.2-4.3,0-4.3-1c0-0.8,0.7-1,2-1.4c1.5-0.5,2.4-1.7,2.4-1.7s-0.7,0.5-1.9,0.6c-1.2,0.1-2.3-0.6-2.3-0.6
			s0.7,0.2,1.8,0c2.2-0.3,2.5-1.3,2.5-1.3s-0.5,0.2-1.8,0c-1.9-0.4-1.9-1.9-1.9-1.9s0.7,0.2,1.7,0.2c1.3,0,2.8-1,3-2.5
			c-2.9,0.3-3.6-0.9-4.8-2.3c1-0.3,1.9-0.3,3,0.4c2.3,1.4,3.2,0.7,3.2,0.7S96,83,95.7,82.3c-0.4-1.1-0.1-1.8-0.1-1.8s1,1.1,2.1,1.3
			c-0.6-0.9,1.1-2,1.1-2s0.6,1.6,2.7,2c0.8-1.8-1-2.7-0.2-4.3c0.5,0.9,2.7,2.4,4.5,1.8c-0.6-1.7-1.3-3.3-2.7-4.1
			c2.7,0,5.4,3.4,8.9,1.4c-1-2.4-5.6-5.1-7.8-3.6c1.3-1.7,3.3-2.1,3.3-2.1s0.9,0.9,2,1.2c1.8,0.6,4.2,0.8,5,1.4
			c-0.1-3.6-3.6-5.3-5.8-3.9c2-1.6,3.1-5.2-0.2-6.3c0.9,1.3-3.8,4.4-1.1,6.8c-2.4,0.9-3.3,2-4.7,3.5c-2.7,0.5-3.5-1-7.4-0.5
			c-0.4,0.1,0.5-0.8,0.8-1c3.2,1.4,7,1,8.3-2c-1-0.6-3.9-0.3-5,0.2c3-1.3,1.8-3.7,4.1-5.4c-5.4-1.3-6.8,4.1-6.8,5.2
			c0-1.5-0.2-2.8-0.9-3.8c-1.2,1.3-1.4,3.6-0.3,5.4c-1,1.9-3.9,4.1-6.5,3c4.2,0.1,4.5-4.5,4.1-7.7c-0.8,2.6-4.7,2.1-5.7,4.6
			c-0.2-1.4-1.1-3.1-0.5-4.6c-4.1,0.8-1.6,4.1-3.6,4.9c0.8-1.2-0.3-3.2-0.3-3.2s-2.4,2.6-4,1.4c2.3-0.5,2.4-4.1,4.3-5.3
			c-6.9,0.4-7.4,3.7-6.5,5.2c-3.1,0.8-5.2,2.5-5.5,5.5c-0.6-0.8-2.2-0.5-3-1.1c1.6-0.1,2.7-0.9,3-1.6c-0.4,1-2.6-1.5-3.9-0.9
			c-0.4-1.1-0.3-1.6-0.3-1.6s1.3,0.7,3,0.6c2-0.2,3-2.4,3-2.4c-2.7,1-2.5-1.5-5.7-1.2c0.3-3.3,5.6-4.1,5.5-4.2
			c-0.9-0.7-2.5-0.2-3.1-0.1c1.8-0.4,3.5-1.2,4.6-3.4c0.6,0,1.3,0,2.2-0.3c-0.4,3.5,2.2,4.5,4.3,5.3c1.2-2-0.8-5.1-2.5-6
			c0.3-0.4,2-1.6,2-0.9c0.1,1.5,1.3,8,9.6,6c-3.3-1.9-3.7-7.3-8-7.3c4.9-3.4,8.1,3.4,12.8,2.5c1.7-0.3,3.2-2,4.6-3.2
			c-3.6,0.5-6.8-2.2-10.9-0.7c4.1-1.5,4.9-4.9,6.6-8c-4,1.3-9.5,2.7-8.4,8.4c-0.9-0.5-2.4-0.4-3,0c1.2-0.6,1.4-2.6,1.2-3.9
			c-3.3,1.1-1.6,4-1.6,4s-2,1.1-3.5,1.3c2.8-0.7,4.1-6.4,2.4-10.2c-2.7,2.5-6.1,5-5.4,10.4c-0.4-1.5-1.5-2.2-2.8-2.7
			c-0.8,1.7,0.1,3.6,0.7,3.9c-3.3-1.3-4.6,1.2-5.5,1.8c0.9-1.7,2.6-2.6,3.2-4.6c-1.2,0.3-2.2-0.1-3.6,0.7c1.4-0.7,1.4-1.9,1.8-3.2
			c-1.6,1.8-4.8,0-6.4,0c1-0.6,0.4-2.6,0.9-3.6c-0.9,1.1-3.4,1.9-5,1.6c0.6-0.9,1.9-1.1,2.5-2.1c-1.7,0.2-2.8-1.4-3-2
			c2.5,0.3,3.3-0.9,4.3-2c-0.1,1.5,1.8,2.1,3,1.6c-0.4,0.5-1,1-0.9,1.8c0.2,1.7,0.8,2.2,0.9,3.4c0.7-1.3,2.4-1.7,2.7-3.4
			c0,3.6,3.7,7.3,6.8,4.3c-1.4-0.5-2.6-2.5-3-3.4c1.3,1.8,4.1,0.3,4.5-1.4c-2.8,0.6-3.9-2.9-6.4-2c-0.7,0.2-1.1,0.9-1.1,0.9
			s-2-3.1-3-3.9c1.8,0,2.9-0.8,3.9-1.6c0,3.7,4,3.4,7,4.1c-1.4-2.3-1.5-5.7-5.5-5.5c0.2-0.5,1.3-1.5,2-1.6c2.7,2.3,6.6,7.3,10.3,3.9
			c-2.6-2.2-4.4-5.3-9.1-4.8c1-0.7,5.4-1.9,5.4-1.9s0.4,2.3,2.8,2.9c3.6,0.9,5.7-0.6,8-3.1c-3.2-2.2-6.8,0.7-10-0.3
			c4.4,0.7,7-3.6,6.8-6.1c-0.9,2.1-4.3-0.2-6.2,2.9c-1.2,1.9-1.7,2.7-3.3,3c1.7-0.8,0.7-6.4,2-6.8c-2.8,0.8-4.2,2.2-4.7,4.1
			c-0.6,2.3,0.6,3.4,0.6,3.4s-2,0.8-3.2,1.6c1.4-1,1.6-3.7,1.1-5.9c-1.2,1.9-4,2.1-4.9,5.5c-0.5,1.9,0.3,3.1,0.3,3.1
			s-0.5,0.9-1.8,1.4c-1,0.4-2.8,0.6-2.8,0.6s-3-2.4-5-2.9c0,0,2-1.3,1.5-4.4c0-0.1,0.5,0.1,1.5,0c0.9-0.1,1.6-0.5,1.6-0.5
			s-0.2-0.7-0.7-1.1c-0.3-0.2-0.7-0.4-0.7-0.4s0.6,0,1.1-0.2c0.4-0.1,0.8-0.4,0.8-0.4c2.6,0.7,5.6-0.8,5.5-0.9c-1.2-0.3-1.4-1.7-3-3
			c3.2-0.3,2.4,2.2,5.9,1.8c0.3-0.7,0.3-1.3,0-1.8c1.5,0.5,3.7-0.7,3.7-0.7S77.3,26,75.4,25c1.2,0.6,3.5,0.3,3.5,0.3l-0.1-0.6
			c0,0,0.5,0.1,0.7,0.3c-0.5,0.8-0.3,2-0.3,2c2.2,0,2.3-1.2,2.5-1.8c0.1,2.3,1.6,3.1,3.2,3.9c0.5-1.3,0.5-3.4-0.2-4.5
			c1.9,3,6.3,2.7,7.7,0.1c-2.9,1-2.5-2.1-6.7-1.4c-1-0.8-0.8-2.3-0.1-3.6c-0.1,1,1,1.8,1,1.8l0.2-0.6c0,0,1.4,1.9,3.6,1.1
			c-1.1-0.3-0.8-1.5-1.7-1.7c2-0.8,1.4-2.3,3.1-2.6c-0.7-0.4-2.5-0.5-3.6,0.2c-0.4-0.8-1.4-0.1-2.1-1.6c0.6,0.2,1.5,0,2.2-1.3
			c0.9,1.7,1.6,0.7,2.4,2c0.2-0.3,0.7-0.6,0.6-1.2c2.9,2.5,4.9-1.5,6.8-2.7c-2.1,1.3-5.1-1-6.6,0.9c-0.5-0.5-0.8-1.3-0.5-2.5
			c-1.8,0.9-3,0-4.3,1.8c-0.6-1.5,0-2.3,0.8-3.4c-2,0.7-3.7,1-4.8-0.9C84.6,9,85,8.1,86.2,8.7c-0.8-2-2.5-1.6-2.5-1.6
			s0.5-0.3,0.6-0.4c0.6-0.4,1.1-0.1,1.1-0.1s0-1.1,1-1.7c0.7,0.4,0.6,2,0.6,2s0.1-0.5,1.8-0.8c-0.1,1.1,1.1,2.2-0.2,3.4
			c0.2,0,1.1-0.7,1.6-0.6c0.5,0,1.1,0.2,1.4,0.3c-0.7-0.2-3-1.2-0.9-3.3c2.3,1,0.4,3.4,2.3,3.8c0-1,0.5-1.5,1.4-1.6
			c-0.3,1.9,1.5,2.3,1.1,3.6c1-0.2,1.9-0.4,2.5-1.4c0.5,2.1,3.1,3.8,5.4,2.7c-1.3-0.1-2.4-1.5-2.2-2.3c3,2.2,4.5-0.6,7.3-1.1
			c-1.4-0.4-2.7-1.2-4.4-0.8c2.6-1.1,1.5-2.3,1.4-3.5c-0.4,0.5-1.1,0.7-1.7,1.3c-1,1-1,1.5-1.3,2c0,0,0.2-0.9,0.2-1.4
			c-0.1-0.6-0.4-1-0.5-1.5c-0.3,0.6-1.5,0.8-1.8,2.7c0.2-1.1-0.7-1.7-1.6-2c-0.2,0.6-0.6,1.1-1.4,1.1c0.3-0.7-0.1-1.5,0.1-2.1
			C97.7,5,98,4.6,98.9,4.3c-2.2-0.6-3.8,0.5-5.2,1.4c0.1-1.6-1.3-2.4,0-3.8c-1.6-0.2-2.2,0.2-2.7,1c-0.1-1.4-1.1-3-2.7-3
			c0.7,0.9,1.1,2.7-0.5,3.6c0-1-0.6-1.4-1.4-1.6c0.1,0.6-0.1,1.2-0.7,1.4c-0.8-1.1-0.7-2.3,0-3.4c-1.7-0.1-3.8,1.3-4.5,2.7
			c-0.6-0.3-0.8-0.6-0.8-1.1c-1,0.6-1.2,1.8-1.2,2.5c-0.2-1.9-1.5-2.5-2.6-3.3c1.3,1.1-1.3,1.4-1,3.8C75,4,74,3.7,72.7,4.1
			c1.1,0.6,1.7,1.9,1.1,3c-1.4,0-1-1.7-2.5-2c0.4,1.1-0.4,0.9-0.5,1.6c-0.2-1-2.5-1.4-3.7-1.2c0.3,3.3,3.9,4.1,3.1,6.8
			c-0.3-1.1-0.7-1.9-1.5-2.8c-0.1,0.4-1.1,0.7-1.3,1.4c0-2.7-2.5-2.8-3.6-4.3c-0.4,1.2-0.4,2,0,3.2c-0.6,0.4-1.2,0.3-1.6,0
			c0,2.7,2.7,2.7,3,5c-0.7-0.9-1.6-1.5-3.2-1.4c1.2,1,1.5,2.3,0.5,3.6c-0.5-1.4-1.5-2.3-3-2.7c0.6,0.6,0.3,1.3-0.2,1.4
			c-0.7-1.2-3.6-0.2-4.5-1.1c0.3,2,1.6,2.9,3.4,3.4c0.2,0.7-0.1,1.1-0.9,1.4c1.2,0.9,2.1,0.9,3.2,0.4c-0.3,0.9,1.1,1.3,0.5,2.3
			c-0.4-0.7-1.9-1.1-2.7-0.5c1.3,0.8,1.3,2,0.7,2.5c-0.8-1.3-2.3-0.5-2.3-0.5s0.6-4-2.7-4.1c0.5,0.7,0.8,1.3,0.5,2.3
			c-1.1-1.3-4.6-1.6-6.1,0.2c1.8-0.2,2.1,1.8,5,1.9c0,0-3.1,0.1-4.2,1.2c1.4,0.8,2.9,1.4,4.2,0.5c0,0.6-0.6,2.5-1.1,2.6
			c-0.4-2.7-5-2.7-5.9-3.3c-0.9,3.3,3,3.7,1.4,5.6c-0.2-0.6-0.8-0.3-0.8-1c-0.7,0.1-0.8,0.8-1.2,1c-0.2-2.8-3.3-2-4.8-3.2
			c-0.7,3.1,2.4,2.4,2.3,4.6c-1.3-1.5-4.2-1.4-4.5-1.4c-0.3,0-0.4,1.4,0.9,2.2c-1.7-0.7-3.2,1-5-0.4c-0.4,3.6,4.1,2.1,5.9,3.9
			c-1.2,0-1.9,0.2-2.5,1.1c-0.2-0.5-0.6-0.7-1.1-0.7c0.1,0.5-0.1,0.9-0.5,1.1c-1.1-1.4-3.7-1.5-4.5,0.2c2.1,1.6,1.8,0.9,2.7,1.4
			c-1.7-0.4-1.8,1.6-3.9,0.9c0.7,1.5,2.8,2.6,5,1.8c0.4,0.6,0.3,1,0,1.6c1.9-0.1,3.1-0.7,4.1-2c-0.6,1.1-1.1,2.1,0,3.5
			c3-1.2,1.1-3.9,5.9-3.5c0.2,1.3-1.4,1.6-1.5,2c1.9-0.2,1.2,1.1,2.9,1.2c-1.3,0.9-3.1,1.3-4.1,0c0.1,1.7,1,2.5,2,3.2
			c-0.8,0-1.2,0.5-1.4,0.9c-2-0.2-3.2-0.8-4.1-2.5c-0.7,0.2-1.1,0.8-1.1,1.6c-0.8-1.7-2.4-2.9-5-3c0.9,0.7,0,1.3,0.9,2
			c-2.1-0.7-4.3,0-6.3,1.5c1.9-1.5,2.7,1.7,4.9,1.5c-1.3,1.3-0.9,2.8-0.9,2.8c0.4-0.1,2.7-0.3,4.1-2.4c-0.3,1,0.9,1,0.7,1.8
			c-3.1-0.3-3.3,3.6-6.4,2.5c0.3,1.9,1.6,2.6,3.6,2.7c-1.8,0.9-1.9,3.4-3.9,4.1c1.9,2.2,5,1,6.9-0.4c-0.8,0.8-1.4,2.4-1.2,3.4
			c1.5-1.5,4.5-1.9,5.7,0c-1.4-0.5-2.6,0-3.2,0.7c0.7,0.1,0.9,0.4,0.9,0.9c-2.8-0.1-4,0.8-5,3c1.4,0.6,2.9-0.1,3.9-0.7
			c-0.3,0.7-0.2,1.2,0.5,1.8c0.7-1.5,2.4-1.1,3.2-0.7c-2.2,0-1.6,2.2-4.1,3c2.2,2,5.2,0.5,6.4-0.5c-1,1.5,0.1,1.7-0.7,3.4
			c3.4,0.2,2.9-3.4,6.1-3.4c-0.9,0.8-1.1,1.4-0.9,2.5c1.6-1,3.1-1.2,4.8-0.5c-0.3,0.6,0.1,0.9-0.2,1.4c-0.7-0.5-1.7-0.7-2.7-0.2
			c0.6,0.4,1.2,1.2,0.7,1.6c-0.8-0.9-3.7-0.9-4.3,0.5c2.1,0,1.3,1.8,3.6,2.7c-0.4,0.3-0.6,0.8-0.7,1.4c1.7,0.9,3.6,1,5.7,0.2
			c-0.6,0.8-0.7,1.4-0.7,2.5c2.4,0.4,5.6-0.3,6.4-2.3c0.2,1.3,1,1.9,2.3,2.3c-0.3-2.3,0.5-3.6,2.3-3.9c-0.5,0.6-1,1.1-0.5,2.3
			c1.4,0.1,1.6,0,2.3-0.2c-0.7,1.1-1,3,0.7,4.1c0.3-2.8,2.4-1.3,3.4-3.4c0.3,1,1.1,1.4,2.3,1.6c-0.2-1.7,0.7-2.6,2.3-2.7
			c-1.8,1.6,0.9,2.9-2,4.3c3.3,2,7.4,0,8.9-1.6c-0.8,1.5-0.2,1.6,0.1,3.5c1.3-1.2,2.6,0,3.9-1.2c0.6,4,0.5,6.8-0.3,10.2
			c-0.2,1.7-10.8,5.8-20.4,6.4c-14.3,1-28.3,2.6-44.9,1.6c15.1,0.9,25.8,2.5,43.9,2.4c5,0,10.1-0.5,12.6-0.7
			c5.2-0.4,6.9-1.4,8.6-1.4c-1,0-2.4-2.4,0.2-2.1c1.3,0.1,2.1,2,3.4,1.4C89.4,104.5,89,103.3,89.8,102.8 M91.6,76.1
			c0.5-0.2,1-0.2,1.3-0.5c0,0,0.6,2-1.7,2.7l-0.1,0c0,0,1.1-1.3-0.2-1.5C90.9,76.9,90.9,76.4,91.6,76.1 M81.7,22.4
			c-1.8-0.2-3.2-2-3.9-3.4l-0.1-0.3l0.3,0c2.1,0.1,3,1.8,3.7,3l0.4,0.8L81.7,22.4z M77.7,6.5l0.1-0.4c0,0,0,0.3,0.2,0.7
			c0.5,0.8,2.2,1.5,1.9,2.7c0,0.2-1.3,0.4-2.1-0.2C77.2,8.7,77.5,7.7,77.7,6.5 M77.2,12.2L77.1,12l0.2,0c1.5,0.2,2.8-0.6,2.8-0.6
			c-1.6,1-1.3,2.2-1.3,2.3c0.5-0.1,1.4,0,2-0.4c1.2-0.7,1.5-1.1,3.1-0.8l0.1,0c0,0-0.1,0.8-0.8,1.3c-1.3,0.9-2.9,0.6-2.9,0.6
			s-0.2,0.4-0.1,0.9c0.1,0.4,0.4,0.8,0.4,0.8s-1,0.3-1.5-0.5c-0.5-0.8-1.1-0.9-1.1-0.9s-0.5,0.2-0.7,0.9l-0.1,0.3l-0.1-0.2
			c-0.3-0.8-0.1-1.5,0.1-2C77.4,13,77.6,12.5,77.2,12.2 M74.2,12.2L74.2,12.2l0.1,0c0.6,0.9,1.5,3.2,0.1,5.2l-0.1,0.1l-0.1-0.1
			C73.2,16.2,72.8,13.9,74.2,12.2 M74.7,21.4c0,0-3.2,0.4-4.5-1c-1.1-1.1-0.3-2.4-0.3-2.4S74.4,19.3,74.7,21.4 M68.4,13.4
			c1.7,0.3,2.2,1.3,2.9,2.9l0.2,0.5l-0.1,0C69.6,16.6,68.7,15.6,68.4,13.4l-0.1,0L68.4,13.4z M66.8,21.8c0.6,0.5,1.3,1.2,2.7,0.8
			l0.6-0.2c0,0-1,1-2.1,1c-0.6,0-1-0.2-1-0.2s0.2,0.6,0.2,1.1c-0.1,0.6-0.4,1.2-0.5,1.2c0,0-1.1-0.6-0.7-2.1c0.3-1-0.1-1.4-0.5-1.8
			l-0.3-0.3C65.2,21.3,66,21.1,66.8,21.8 M59.9,53.1C59.9,53,59.9,53,59.9,53.1L59.9,53.1c0-0.1,0-0.1,0-0.2
			c1.9,0.3,2.6,1.9,2.3,4.9l0,0.2l-0.6-0.5C60.6,56.5,59.5,55.5,59.9,53.1 M60.7,43.1c-1.7-0.1-2.6-1.2-2.4-3.2l0-0.3l0.3,0.2
			c1,0.8,2,1.5,2.3,3.1l0.1,0.2L60.7,43.1z M59.3,27.4c2.5-1.5,5.4,0.3,5.4,0.3s-1.3,1.3-3.1,1.3c-1.1,0-2.4-0.1-2.9,0.6l-0.1,0.3
			l-0.1-0.4C58.2,28.6,58.6,27.9,59.3,27.4 M57.9,31.4c2.3-1.5,4.3,0.4,4.3,0.4c-0.6,0.7-1.4,1.2-2.7,1.2c-1.6,0-2.2,0.8-2.2,0.8
			S56.7,32.3,57.9,31.4 M57.2,48.6c0.1-0.1,0.2-0.2,0.3-0.3c0,0,0,0,0,0c0,0,0,0,0.1,0c0.7,1.2,1,1.6,1,2.8c0,0.9-0.8,1.5-0.3,3.1
			c0.1,0.2,0.4,0.7,0.4,0.7s-1.6,0.2-2.5-0.3c-0.9-0.4-1.1-1.4-1.4-1.7l-0.1-0.2L56,53c0.6,0,1.1,0.1,1.5,0.4c0-0.1-0.1-0.2-0.1-0.2
			L57.3,53c-0.3-0.7-0.9-1.6-0.9-2.5c0-0.5,0.3-1.2,0.6-1.6C57.1,48.8,57.1,48.7,57.2,48.6 M54,52.5L54,52.5L54,52.5
			c-0.8,0.6-1.7,0.7-2.5,0.4c-1.3-0.5-2.3-1.8-2.6-2.9l0-0.1l0.1,0C51.2,50.2,53.6,50.3,54,52.5 M49,43.9l0.1,0
			c2.1,0.5,2.9,2.3,3.5,4.2l0,0.1l-0.1,0C50.3,47.8,49.2,47,49,44L49,43.9z M53.6,48.7c-0.2-1.2,0.2-2.4,1-3.1l0.1-0.1l0,0.1
			c0.7,1.8,0.6,3,0.5,4.8l0,0.6l-0.1-0.1C54.3,50.5,53.7,49.6,53.6,48.7 M52.5,29.5c0,0,1.9,1.1,0.7,3.3c-0.4,0.8-0.2,1.6-0.2,1.6
			S50.1,32.4,52.5,29.5 M49.2,32.1c2,0.4,2.3,2.5,2.6,4.2l0.2,1.1l-0.5-0.4c-1.3-0.9-2.5-1.7-2.5-3.9C49,33.2,49.1,32.1,49.2,32.1
			 M48.5,38.4c1.5-0.3,3.5-0.1,4.6,0.7c-0.2-0.4-0.2-0.8-0.2-1.1c0-0.9,0.4-1.7,0.8-2.4c0,0,0.4-0.9,0.6-0.9c0.7,0.6,1,2.3,1,2.3
			l-0.9-0.1c0,0,0,0.8,0.5,1.6c0.5,0.8,1,1,1,1s-1.2,0-1.5,0.6c0.5,1.1,1.3,2,2.5,2.3c-1.8,0.2-2.9-0.9-3.3-1.4c0,0-0.1-0.1-0.1-0.1
			c0,0,0,0,0,0c-2.8,1.5-4.8-1.7-5.2-2.3l-0.1-0.1L48.5,38.4z M43.1,39.2c-0.3-0.1-0.5-0.5-0.5-0.9c0,0,1.8-1.3,3.6,0l0.4,0.3
			C46.5,38.6,44.7,39.9,43.1,39.2 M45.6,35.7c-0.9-0.6-0.4-2-0.4-2c2.7,0.4,2.9,2.7,2.9,2.7C46.9,36.4,46.1,36.2,45.6,35.7
			 M44.9,55.4c-1.2-0.1-2.5-0.3-3.3,0.5L41.5,56l0-0.2c0.1-1,0.9-1.8,2.1-2.3c1.4-0.5,3.3-0.3,4.5,1.1
			C47.6,55.7,46.3,55.5,44.9,55.4 M47.7,59.5l-1.2,0.1l0.4-0.7c0.9-1.1,1-2.7,3.4-2.6c0.6,0,1.1,0.3,1.6,1
			C51.5,59.2,49.6,59.3,47.7,59.5 M52.2,64.9l-0.5,0.7l-0.1-0.4c-0.6-1.7-0.1-3.5,1.4-5l0.2-0.3l0.1,0.3
			C54.1,62.2,53,63.7,52.2,64.9 M53.3,56.3L53.3,56.3L53.3,56.3c1.2-0.6,3.8-0.8,4.6-0.1c0.3,0.2,0.4,0.5,0.2,0.8l-0.5,0.1
			C56.5,57.4,53.8,58,53.3,56.3 M59.7,70.3l0,1.2c0,0-2.7-0.5-3-2.8c-0.1-0.7,0.3-1.6,0.3-1.6s0.1,0.3,0.7,0.6
			C58.1,68.1,59.8,68.7,59.7,70.3 M56.3,65L56,65l0.1-0.3c0.4-0.9,1.7-3.5,4.4-2.2C60.2,64.5,58.4,64.8,56.3,65 M60.8,61.6
			c-2.2-1-1-3.5-1-3.5s0,0.8,2.1,1.8c0.9,0.4,1,1.3,1,1.3S62.4,62.3,60.8,61.6 M61.4,70.5c0,0,0.8-0.3-0.1-1.6c0,0,0.8,0.1,1.8-0.2
			c0.7-0.2,1.4-1.1,1.4-1.1c-0.8-0.2-2.9-0.8-2.9-0.8s1.3,0,2.2,0.1c0,0,0-0.5-0.1-0.9c-0.1-0.4-0.3-0.7-0.3-0.7l0.5,0.1l0.5,0.1
			c0,0,0.5-0.8,0.6-0.7l0,0.1C65.7,66.6,66,69.2,61.4,70.5 M65.9,58.1c-0.9,0.7-1.9,0.9-2,1.4L63.7,60l-0.3-0.4
			c-0.4-0.6-0.5-1.9-0.1-2.5c1.1-1.7,4.3-1.8,4.4-1.7C67.7,55.4,67,57.3,65.9,58.1 M77.7,79.2c-0.2,0.1-0.2,0.3-0.2,0.3
			s-0.5-0.4-0.6-1c-0.1-0.8,0.8-1.3,0.8-1.3s0.6,0.4,0.5,1.1C78.2,78.7,78,79,77.7,79.2 M76.6,76.3c0,0,0-0.4,0.4-0.7
			c0.4-0.3,0.7-0.4,0.8-0.5c0,0-0.9-0.1-1.3-0.5c-0.6-0.5-0.7-1.4-0.7-1.4s1.2-0.1,2.2,0.4c0.9,0.5,1.7,1.6,1.7,1.6
			C79,75.9,77.9,76.6,76.6,76.3 M82.7,78c-1.2,1-2.6,0.5-2.6,0.5s0.3-0.8,1.2-1.4c0.9-0.6,2.1-0.5,2.1-0.5S83.3,77.5,82.7,78
			 M86.1,80.1c-0.4,0.4-1,0.7-2,0.5c0,0-0.3-1.4,1.3-2.1c1.2-0.5,1.3-1.2,1.3-1.2l0.1,0.5C87,78.5,86.8,79.5,86.1,80.1"/>
		<path class="st0" d="M119.3,51.4c0.4-3.4-1.4-4.5-2.7-6.1C115.6,48.6,117.4,50.3,119.3,51.4"/>
		<path class="st0" d="M120,38.4c-1.1,0.2-3.6,2.8-2,5C119.5,42.6,119.9,40.6,120,38.4"/>
		<path class="st0" d="M123.1,50.4c1.1,2.7,5.1,1.9,5.5-0.6c-1.9,0-3.2-1-4.5-0.9c0.2-0.5,0.9-1.5,0.9-1.5s0.7,1.7,3.1,1.3
			c1.4-0.2,2.3-1.2,3-2.3c-1.3,0.1-2.3-0.6-4.5,0c4.1-1.6,2.9-5,2-6.4c0.2,2.5-1.4,2.1-2.6,3.1c-0.8,0.7-1,1.9-1,1.9
			s0.1-3.4-2.8-4.7c-3.2,4.1,2.5,6.4,2.5,6.4l-1.2,2c0.2-2.4-4.4-3.5-3.6-5c-3.2,5.8,3,6,3,6s-3.6,0-3.1,4
			C119.7,52.4,122.5,53.7,123.1,50.4"/>
		<path class="st0" d="M113,56c-2.4-0.5-4.9-2.9-7.1-1.6C107.5,55.8,110.6,58,113,56"/>
		<path class="st0" d="M114.6,38.4c-1.3,2.8,0.5,5.3,3.2,5.5C117,41.7,116.1,39.8,114.6,38.4"/>
		<path class="st0" d="M137.8,46c0,0-2.7-0.8-3.8,0.9c-0.7,1.2,0.5,1.5,0.3,2.3c-2.1,0.3-3.6,3.1-1.3,5.3c-0.6-1.2,2.4-2.3,1.8-4.5
			c0.4,1.6,3.7,0.8,4.8,2c0-2.8-2.3-4.2-4.8-3.2C137.6,47.7,135.5,45.9,137.8,46"/>
		<path class="st0" d="M128.4,32.3c-0.8-1.1-1.5-2.4-3.4-2.5C125.1,31.7,126.4,33.2,128.4,32.3"/>
		<path class="st0" d="M133.4,44.1c0.5-2.7-0.9-4.7-2.3-4.8C131,41.1,131.7,43.6,133.4,44.1"/>
		<path class="st0" d="M133.9,64.4c-1.3,0.9-4.5,0-5.5,1.4C130.5,67.3,133.9,66.8,133.9,64.4"/>
		<path class="st0" d="M132.8,68.9c-4.6-4.5-6.6,2.5-9.3,1.6C129,72.5,129.6,70,132.8,68.9"/>
		<path class="st0" d="M109.6,58.9c-2.5-1.2-3.1-5.5-7.1-4.6C103,56.9,105.1,59.7,109.6,58.9"/>
		<path class="st0" d="M128,59.8c2.1-0.3,2.8-4.1,0.9-5.2C128.1,56.1,127,57.8,128,59.8"/>
		<path class="st0" d="M137.5,36.8c-3.2,0.4-3.7,2.2-5.2,1.8C136.1,40.7,137.7,37.7,137.5,36.8"/>
		<path class="st0" d="M125,63.7c0-1.2,4.3-2.2,0.7-4.5C126.3,60.8,123.4,61.3,125,63.7"/>
		<path class="st0" d="M126,66.7c-1.8,0-2.6,1-3,2.5C125.1,69.4,125.3,67.8,126,66.7"/>
		<path class="st0" d="M126.8,58.5c0.7-1.8-0.5-3.4-1.1-4.6C124.5,55.2,124.3,58.6,126.8,58.5"/>
		<path class="st0" d="M128.4,62.6c-0.5,1.2,0,2.7,0,2.7s4.7-1.8,3.2-6.2C131.1,59.9,129,61.3,128.4,62.6"/>
		<path class="st0" d="M102.7,29.6c-1.9-0.5-3.1,0.5-4.1,3c3.9-0.1,4.8-2.3,4.8-2.3s2.8,1.8,4.1,1.4c-0.9-1-1.2-3-3.6-2.5
			c1.9-0.4,2.1-3.3,1.8-6.4C103,23.4,101.5,26.3,102.7,29.6"/>
		<path class="st0" d="M104.3,39.6c-3.5-0.7-4.4,3.1-7.7,3.2C101.1,45.4,104.4,41.4,104.3,39.6"/>
		<path class="st0" d="M97,30.7c5-1.1,3.3-5.1-0.2-6.6C94.8,28.2,98.2,29.8,97,30.7"/>
		<path class="st0" d="M105.2,49.4c-3.6-1.7-7.2-2.2-9.1,1.6C99.9,51.1,102.5,51.3,105.2,49.4"/>
		<path class="st0" d="M119.8,79.8c-2.2,0.6-3.2-2.5-6.1-0.7C114,81.6,118.7,82,119.8,79.8"/>
		<path class="st0" d="M103.6,61.2c-1.6-0.8-2-2.8-4.1-3.2C99.9,59.9,101.4,62,103.6,61.2"/>
		<path class="st0" d="M103.9,17.1c4.7,2,6.7-2,7.7-1.1C109,13.7,106,13.3,103.9,17.1"/>
		<path class="st0" d="M108,21.4c2.6,0.9,2.9-1.5,4.3-2C109.9,19.1,108.4,19.7,108,21.4"/>
		<path class="st0" d="M102.7,42.8c0.4,2.2,2.4,2.9,4.8,3.2C107.2,43.7,105.3,41.9,102.7,42.8"/>
		<path class="st0" d="M89.6,31.3c-0.5,0.6-0.4,1.7-0.4,1.7c1.4-0.1,2.3,1.2,4.3,0.3c1.7-0.8,1.7-2.9,2.3-4.4
			C94.3,30.7,91.1,29.3,89.6,31.3"/>
		<path class="st0" d="M87.5,40.3c4.3,4.9,5.9,0.8,8.9-0.7C92.1,35.7,89.6,42.6,87.5,40.3"/>
		<polyline class="st0" points="100.9,25.7 100.9,25.7 100.9,25.7 		"/>
		<path class="st0" d="M92.2,23.3c0.8,0.8,2.5,0.9,3.2,0.1c-1.9-0.1-3-2.8-3-2.8S90.8,22.1,92.2,23.3"/>
		<path class="st0" d="M98,54.5c0.9-0.1,1.5-0.7,2-1.3c-1.9,0.4-3.1-1.9-5.2-1.1C95.7,52.5,95.8,54.8,98,54.5"/>
		<path class="st0" d="M92,18.7c2,3.3,7.1,1.4,7.3,2.3C98.6,17.6,94.5,17.9,92,18.7"/>
		<path class="st0" d="M99.8,21.6c-1.6,1.9,1,4,1.1,4.1c-0.1-0.1-0.6-0.6,0.4-1.7c1.5-1.7,0.9-3.4,0.9-3.4S100.7,20.6,99.8,21.6"/>
		<path class="st0" d="M97,16.8c3.1,2.2,4.6-1.1,5.2-0.2C101.1,15,97.7,14.7,97,16.8"/>
		<path class="st0" d="M116.8,30.3c-3.6,1.2-4.8-2-7.7-2.3c3-0.3,5.3-2.6,4.6-5.9c-0.8,1.2-4.1,1.1-5.5,2.2
			c-1.5,1.3-0.7,3.7-0.7,3.7l-1.5,0.6c0,0,2.7,3.7,5.5,4.1C113.6,33.1,115.7,32.1,116.8,30.3"/>
		<path class="st0" d="M122.2,18.5c-1.8-0.7-3.3-0.1-3.3-0.1s2.6,6.7,6.6,2.5C124.3,20.9,123.3,19,122.2,18.5"/>
		<path class="st0" d="M98.6,106.4c0.1,0,0.1,0,0.2,0C98.8,106.4,98.7,106.4,98.6,106.4"/>
		<path class="st0" d="M126.2,35.3c2.5,2.9,6.4,0.9,5-2.5C130,34.1,128,33.1,126.2,35.3"/>
		<path class="st0" d="M91.8,9c0.1,0,0.2,0.1,0.2,0.1S91.9,9.1,91.8,9"/>
		<path class="st0" d="M112.5,12.3c2-0.5,2-2,3.4-2.3c-2.9-1.7-5.4,0.3-7.5,1.4C109.3,11.9,110.5,12.8,112.5,12.3"/>
		<path class="st0" d="M130.8,29.3c0.8-0.2,0.8,0.7,2.8,0.4c2-0.3,2.7-3.2,2.7-3.2s-0.3,0.6-1.4,0.6C132.8,27.2,131.6,28,130.8,29.3
			"/>
		<path class="st0" d="M135.5,25.7c-1.2-2.1-4.9-0.5-6.1-1.8C129.9,26.9,132.9,26.9,135.5,25.7"/>
		<path class="st0" d="M132.8,19.8c-4.9-2-4.2,3.1-6,2.1C129.4,23.5,131.4,21.1,132.8,19.8"/>
		<path class="st0" d="M126.7,21.9C126.7,21.9,126.7,21.9,126.7,21.9C126.7,21.9,126.7,21.9,126.7,21.9"/>
		<path class="st0" d="M83.9,48.9c2.3,0,3.6-3.5,3.2-4.8C85.2,45.1,82.9,46.5,83.9,48.9"/>
		<path class="st0" d="M137.3,72.6c-1.7,1.4-5.1-1.4-6.9,0.4c-1.2-0.4-2.7-0.3-4.3,0.8c1.6,0,1.5,1.6,4.4,3.4
			c-0.6,0.1-1.4,0.4-2.1,1.3c0,0,1,0.4,2.1,0c0.4-0.1,0.9-0.4,1.2-0.5c0.6,0.6,0.5,1.7,0.3,2.2c1.8-1.9,1.6-4.4,0.2-5.9
			C134.2,75,136.4,74.9,137.3,72.6"/>
		<path class="st0" d="M89.5,60.1c0.6,3.3,5.9,4.5,7.7,1.1C94.1,62.4,92,59.6,89.5,60.1"/>
		<path class="st0" d="M111.5,78.6c-0.8,1-3.6-0.2-3.9,1.4C109.3,80.6,112.1,80.6,111.5,78.6"/>
		<path class="st0" d="M53.6,40.9C53.6,40.9,53.6,40.9,53.6,40.9C53.6,40.8,53.6,40.9,53.6,40.9"/>
		<path class="st0" d="M145.5,53c1,0.7,2,2.7,5.9,1.1C149.4,54.2,148.2,50.5,145.5,53"/>
		<path class="st0" d="M123.7,16.4c-2-2.1-6.4-1.9-8,0.4C117.9,18.1,121.7,17.4,123.7,16.4"/>
		<path class="st0" d="M120,70.1c-2.2,1.1-3.8-2.4-6.4-1.6C114.1,71.1,118.3,72.5,120,70.1"/>
		<path class="st0" d="M122.1,65.5c-3,1.9-6.5-1.3-8.6,1.1C115.9,68.7,121.2,69.1,122.1,65.5"/>
		<path class="st0" d="M120.3,83.7c-1.8-0.2-2.9-2.3-4.5-1.8C115.7,84,119.1,86.1,120.3,83.7"/>
		<path class="st0" d="M114.6,27.5c2,2.3,6.9,2.3,8.2-1.1C121,28.4,117.4,23.4,114.6,27.5"/>
		<path class="st0" d="M124.6,28.7c0,0,1.4,1,2.9,0.6c1.6-0.5,1.6-2.4,1.6-2.4S125.4,26.4,124.6,28.7"/>
		<path class="st0" d="M115,83.7c-1.2-3.5-5.2-3.2-7.9-2.1c2.4,0,1.8,1.3,2.7,2.3c1.1,1.1,2.5,1,2.5,1s0-0.6,0-1.1
			c0-0.4-0.2-0.8-0.2-0.8S113.6,83.9,115,83.7"/>
		<path class="st0" d="M125.7,78.5c-1.2,0.1-2.3-1.4-4-2.2c1.4,0,2.6-0.5,4.2,0.2c-1.5-2.6-5.8-4.4-7.3-1.4c0.3,0.3,0.6,0.5,0.9,0.6
			c-0.8,0-1.8,0.2-2.9,0.7C118.4,76,121.2,82.8,125.7,78.5"/>
		<path class="st0" d="M138.7,43.2c1.6,2.4,6.1,2.1,7.3-0.5C143.4,41.5,140.9,43.5,138.7,43.2"/>
		<path class="st0" d="M140.2,35.3c1-1,0.5-2.6,0-4.1c-0.6,2.1-3,1.1-4.2,5.1C136.9,35.7,138.9,36.7,140.2,35.3"/>
		<path class="st0" d="M145.2,58c-0.9-0.4-2.1-0.3-2.1-0.3s0.4-0.4,0.6-1.4c0.2-1,0-2.1,0-2.1s-2.4,1-3.2,4c0.7-2.6-0.3-3.4,0-3.9
			c-2.1,0.9-2.5,3.7-2.5,3.7s-0.1-0.3-0.5-0.6c-0.3-0.3-1.8-1.3-1.8-1.3s0.6,1.2,0.2,2.1c-1,2.2,0.4,2.9,0.4,2.9s-2.3,0.6-2.5,0.6
			c2.4-0.9,1-4.2,0.5-5.4c-0.2,2.3-3.2,3.7-1.6,6.4c0.3-0.9,3.1-1.4,3.1-1.3c2.2,2,5.2,2.7,7.8,0.6c-1.3-1.3-3.4-1.2-4.6-1.1
			c1.9-0.4,2.8-0.8,2.8-0.8s-0.1-0.2-0.4-0.3c-0.3-0.2-0.6-0.2-0.6-0.2l1.2-0.2c0,0,1.2,0.8,2.5,1c1.3,0.2,2.9-0.6,2.9-0.6
			S146.6,58.6,145.2,58"/>
		<path class="st0" d="M143.5,47.3c0,0-1.6-0.1-2.4,0.4c-2.2,1.7-0.3,3.8,0.8,4.8c-0.4-1.3,0.4-3.4,1-3.8c0.4,1.7,3,2.9,4.5,1.5
			c-1.8-0.5-2.2-4-3.9-2.7c1.4-1,1.4,0.5,3.3,0.5c1.4,0,2-1.1,3.5-0.9c-1.7-1.3-3.7-2.7-6.3-1.3C143.1,46.3,143.5,47.3,143.5,47.3"
			/>
		<path class="st0" d="M141.2,38.7c-1.6,1.3-4.1,0.3-5.5,1.6C138.2,42,141.1,41.8,141.2,38.7"/>
		<path class="st0" d="M142.8,70.1c-2.5,1.2-6-2-7.3,0.7C137.4,73.2,141,71.9,142.8,70.1"/>
		<path class="st0" d="M142.3,67.6c-0.5-3.2-3.7-1.7-5.7-1.6C137.2,69,140.4,67.9,142.3,67.6"/>
		<path class="st0" d="M145.3,68c1-1.2,1.5-2.5,0.8-3.5c-1.1-1.6-3.1-0.7-4.6-0.1c0.6-0.1,0.8,0.9,1.4,1.4
			C144.5,67.2,145.2,66.7,145.3,68"/>
		<path class="st0" d="M127.1,83.8c0,0,0.2-0.1,0.4-0.1h0.1c0.2,0,0.4,0.1,0.4,0.1c0.5,0.4,1.1,0,1.1,0c1.9-2.1,1.3-3.7,0.8-4.3
			c-0.5-0.6-1.4-0.6-1.7-0.5c-0.3,0.1-0.5,0.2-0.5,0.2c0,0,0,0,0,0c0.2-0.7,0.6-1,0.6-1c-0.1-0.1-0.3-0.1-0.3-0.1
			c-0.3,0.3-0.4,0.7-0.5,1.1c0,0-0.1,0-0.1,0s-0.2-0.1-0.5-0.2c-0.3-0.1-1.2-0.2-1.7,0.5c-0.5,0.6-1.1,2.3,0.8,4.3
			C126,83.8,126.6,84.1,127.1,83.8"/>
		<path class="st0" d="M115.7,62.9c0,0,0.2-0.1,0.4-0.1h0.1c0.2,0,0.4,0.1,0.4,0.1c0.6,0.4,1.2,0,1.2,0c2.2-2.4,1.5-4.3,0.9-5
			c-0.5-0.7-1.6-0.7-1.9-0.5c-0.3,0.2-0.6,0.2-0.6,0.2c0,0,0,0,0,0c-0.1-0.1-0.3-0.5-0.3-0.8c0.3,0.1,1.4,0.4,2.7-0.3
			c0,0,0.7-0.5,1.4-0.3c0,0-2-1.9-4.1,0.5c0-0.1,0-0.2,0-0.2c-0.1-0.1-0.3-0.1-0.3-0.1c-0.4,0.3,0.4,0.9,0.4,1.3c0,0-0.1,0-0.1,0
			s-0.3-0.1-0.6-0.2c-0.3-0.2-1.4-0.2-1.9,0.5c-0.5,0.7-1.3,2.6,0.9,5C114.5,63,115.1,63.4,115.7,62.9"/>
		<path class="st0" d="M72.8,64c-0.2-0.1-1-0.1-1.4,0.4c-0.4,0.5-1,2,0.7,3.8c0,0,0.5,0.3,0.9,0c0,0,0.2-0.1,0.3-0.1h0.1
			c0.1,0,0.3,0.1,0.3,0.1c0.5,0.3,0.9,0,0.9,0c1.7-1.8,1.1-3.2,0.7-3.8c-0.4-0.5-1.2-0.5-1.4-0.4c-0.2,0.1-0.4,0.2-0.4,0.2
			c0,0,0,0,0,0c-0.1-0.1-0.3-0.5-0.2-0.9c-0.1-0.1-0.2-0.1-0.2-0.1c-0.3,0.3,0.3,0.7,0.3,0.9c0,0-0.1,0-0.1,0S73,64.1,72.8,64"/>
		<path class="st0" d="M69.7,33.4c0,0,0.5-0.7,1.2-0.8c0,0-2.6-0.9-3.6,2c-0.1-0.2-0.2-0.4-0.1-0.7c-0.1-0.1-0.2-0.1-0.2-0.1
			c-0.3,0.3,0.3,0.7,0.3,1c0,0-0.1,0-0.1,0s-0.2-0.1-0.5-0.2c-0.3-0.1-1.1-0.1-1.5,0.4c-0.4,0.6-1,2.1,0.7,4c0,0,0.5,0.3,1,0
			c0,0,0.2-0.1,0.3-0.1h0.1c0.1,0,0.3,0.1,0.3,0.1c0.5,0.3,1,0,1,0c1.7-1.9,1.2-3.4,0.7-4c-0.4-0.6-1.3-0.5-1.5-0.4
			c-0.3,0.1-0.5,0.2-0.5,0.2c0,0,0,0,0,0c0,0,0-0.1-0.1-0.1C67.7,34.7,68.8,34.5,69.7,33.4"/>
		<path class="st0" d="M121.1,30.2c0-0.1,0-0.2,0-0.2c-0.1-0.1-0.3-0.1-0.3-0.1c-0.4,0.3,0.4,0.9,0.4,1.3c0,0-0.1,0-0.1,0
			s-0.3-0.1-0.6-0.2c-0.3-0.2-1.4-0.2-1.9,0.5c-0.5,0.7-1.2,3,0.6,4.7c0.2,0.2,1,0.7,1.6,0.3c0,0,0.2-0.1,0.4-0.1h0.1
			c0.2,0,0.4,0.1,0.4,0.1c0.4,0.3,0.8,0.2,1.2,0c2.4-1.9,1.5-4.3,1-5c-0.5-0.7-1.6-0.7-1.9-0.5c-0.3,0.2-0.6,0.2-0.6,0.2
			c0,0,0,0,0,0C121.4,31,121.2,30.7,121.1,30.2c0.3,0.2,1.4,0.5,2.7-0.2c0,0,0.7-0.5,1.4-0.3C125.2,29.7,123.2,27.8,121.1,30.2"/>
	</g>
	<path class="st0" d="M85.5,141.4l8.6,0v0.9c0,1.9-0.9,4-3.9,4H78.4v-32.4H94v1.1c0,1.8-1.2,3.8-3.6,3.8h-5v7.6h7v1.1
		c0,1.8-1.3,3.8-3.6,3.8h-3.4V141.4z M112.4,132.2l5.8,14h-5.3c-1.6,0-2.7-1.2-3.3-2.6l-5.4-14.4v17h-4.7c-1.5,0-2.5-0.7-2.5-2.9
		v-29.5c0,0,9,0,12.8,0c3.8,0,6.1,1.9,6.6,5.3c0.3,2.5,0.3,4.9,0.1,6.8C116,129.7,114.6,131.4,112.4,132.2 M109.4,121.8
		c-0.2-2.5-1.4-3-2.9-3h-2.3V129h2.4c1.6,0,2.6-1.5,2.7-3.5C109.4,124.3,109.4,122.9,109.4,121.8 M178.6,113.8
		c-2.2,0-3.1,1.3-3.4,2.8l-2.6,10.9l-2.6-10.9c-0.5-2.2-1.6-2.9-3.5-2.9h-4.7l6.6,20V144c0,1.5,1.1,2.2,2.4,2.2h4.8v-12.3l6.9-20.1
		L178.6,113.8z M135,129.6c-0.8-0.7-5.2-3.6-6.5-4.5c-1.3-0.8-2-1.7-1.9-4.2c0.1-2.3,1-3,2.3-3c1.6,0,2.4,0.7,2.4,3.4
		c0,1.5,1.1,2.2,2.3,2.6c1.5,0.5,3,0.4,4.2,0.2c0-0.5,0-2.9,0-4c-0.1-4.8-3.6-6.8-8.7-6.8c-5.4,0-8.3,2.4-9,6.3
		c-0.3,1.4-0.3,2.9-0.2,4.5c0.3,2.5,1.3,3.9,2.4,4.8c1.7,1.4,5.7,4.1,7,5c1.5,1,2.2,1.9,2.1,4.4c-0.1,2.9-0.8,3.7-2.5,3.7
		c-1.9,0-2.4-1.5-2.4-3.8c0-1.3-0.2-2.7-2.4-3.2c-1.2-0.3-3.3-0.2-4.4,0v4c0,4.7,2.3,7.9,8.8,7.9c6.2,0,8.7-1.9,9.6-6.3
		c0.2-1.3,0.3-3.4,0.2-4.6C138.1,132.5,136.7,131.1,135,129.6 M161.2,133.7c0.1,1.9,0.1,4.4-0.2,6.4c-0.7,3.8-3.4,6.1-8.2,6.1h-11
		v-32.4h12.1c4.8,0,6.3,2.3,6.7,5.4c0.2,1.5,0.2,2.9,0,4.4c-0.3,2.2-1,3.7-3.1,4.7C160.4,129,161.2,131.7,161.2,133.7 M148.8,126.4
		h1.9c1.8,0,2.8-0.7,3-2.8c0.1-0.7,0.1-1.6,0-2.6c-0.1-1.1-0.6-2.2-2.6-2.2h-2.2V126.4z M153.9,133.7c-0.1-1.3-0.8-2.5-2.8-2.5h-2.2
		v10.1h1.9c1.8,0,2.7-0.6,3.1-2.7C154,137.5,154.1,135.6,153.9,133.7 M69.4,113.8c-2.9,0-4,1.4-4.6,3.7l-3.7,14.6l-3.7-14.4
		c-0.8-3-2.1-3.9-4.8-3.9l-5.4,0v29.8c0,1.6,1,2.6,2.3,2.6h3.4v-19.1l4,15.4c0.6,2.5,1.8,3.7,3.9,3.7h2l4.7-19.1v16.6
		c0,1.7,0.9,2.5,2.1,2.5h4.8l0-32.4H69.4z M43.1,120.7c0.4,4.2,0.5,14.5-0.1,18.9c-0.7,4.8-3.4,7.2-9.1,7.2
		c-5.7,0.1-9.2-1.3-9.9-7.2c-0.3-3.3-0.5-14.8,0-18.6c0.8-6.3,4.9-7.8,9.8-7.8C40.6,113.2,42.7,116.2,43.1,120.7 M36.1,121.2
		c-0.1-1.1-0.3-3.1-2.4-3.1c-1.6,0-2.3,1.3-2.5,3.1c-0.4,3-0.5,15.3-0.1,18.1c0.3,2.2,1.3,2.9,2.4,2.9c1.4,0,2.3-0.8,2.5-3.1
		C36.3,136.5,36.5,124.1,36.1,121.2 M16.1,126.8c-1.2-0.8-5.7-3.6-6.6-4.3c-0.9-0.6-1.8-1.5-1.9-3.2c-0.1-1.3,0-1.7,0.1-2.6
		c0.3-1.6,1.3-2.5,2.6-2.4c1.7,0,2.6,0.7,2.7,3.6c0,2.1,1.2,3,3,3.3c1.8,0.3,3,0.1,4.1-0.2c0-0.6,0-3,0-4.1
		c-0.2-5.3-4.2-7.6-9.6-7.6c-6.6,0-10,3-10.3,8c-0.1,1.5-0.1,2.9,0,3.7c0.3,3.2,1.1,4.7,4.1,7.1c1.1,0.9,5,3.4,6.1,4.2
		c1.3,0.9,2.4,2.1,2.4,4.6c0,3.9-1.5,4.6-3,4.5c-1.4-0.1-2.5-0.7-2.5-5.1c0-2.7-1.7-3.2-2.8-3.5c-1.5-0.3-3.5-0.1-4.6,0.1
		c0,1.1,0,3.8,0,5.6c0.1,5.6,4.4,8,9.7,8c6.2,0,9.9-1.7,10.7-7.6c0.2-1.2,0.2-3.3,0.1-4.4C20.2,130.5,19,128.8,16.1,126.8"/>
	<path class="st0" d="M183.5,142.1c-0.4-0.6-1.3-0.6-1.6-0.4c-0.3,0.1-0.5,0.2-0.5,0.2c0,0,0,0,0,0c0.2-0.7,0.5-0.9,0.5-0.9
		c-0.1-0.1-0.3-0.1-0.3-0.1c-0.3,0.3-0.4,0.7-0.4,1c0,0-0.1,0-0.1,0s-0.2-0.1-0.5-0.2c-0.3-0.1-1.1-0.2-1.6,0.4
		c-0.4,0.6-1,2.1,0.8,4.1c0,0,0.5,0.3,1,0c0,0,0.2-0.1,0.4-0.1h0.1c0.2,0,0.4,0.1,0.4,0.1c0.5,0.4,1,0,1,0
		C184.6,144.3,184,142.7,183.5,142.1"/>
</g>
</svg>
