
<svg width="67px" height="60px" viewBox="0 0 67 60" version="1.1" xmlns="http://www.w3.org/2000/svg" xmlns:xlink="http://www.w3.org/1999/xlink">
    <!-- Generator: Sketch 47.1 (45422) - http://www.bohemiancoding.com/sketch -->
    <desc>Created with Sketch.</desc>
    <defs>
        <polygon id="path-1" points="0.00524674766 0.00173597436 0.00524674766 55.5111977 37.1780167 55.5111977 37.1780167 0.00173597436 0.00524674766 0.00173597436"></polygon>
    </defs>
    <g id="Page-1" stroke="none" stroke-width="1" fill="none" fill-rule="evenodd">
        <g id="5.0-Advertisement-Insights_CopyNotReady" transform="translate(-245.000000, -1064.000000)">
            <g id="shutterstock_622347353" transform="translate(245.000000, 1064.000000)">
                <path d="M21.3704784,1.5249552 L43.973033,1.5249552 L43.973033,15.4025381 L28.9154279,15.4025381 L25.0019191,18.4276518 L24.9964055,15.4025381 L21.3704784,15.4025381 L21.3704784,1.5249552 Z M19.8473282,16.927581 L23.4763185,16.927581 L23.4847201,21.5267176 L29.4350178,16.927581 L45.4961832,16.927581 L45.4961832,0 L19.8473282,0 L19.8473282,16.927581 L19.8473282,16.927581 Z" id="Fill-1" fill="#0A0B09"></path>
                <g id="Group-5" transform="translate(0.000000, 4.427481)">
                    <mask id="mask-2" fill="white">
                        <use xlink:href="#path-1"></use>
                    </mask>
                    <g id="Clip-3"></g>
                    <path d="M30.5974583,1.99703941 L34.7415145,4.10130417 L30.5974583,6.20600445 L30.5974583,1.99703941 Z M29.836505,8.20112757 C29.9549066,8.20112757 30.0733082,8.17351552 30.1822657,8.11829142 L36.7628241,4.7763622 C37.0175537,4.64709948 37.1780167,4.38657063 37.1780167,4.10130417 C37.1780167,3.81656034 37.0175537,3.55550887 36.7628241,3.42624614 L30.1822657,0.0844040298 C29.9459872,-0.0355385388 29.6644992,-0.0242149848 29.4391513,0.113496853 C29.2131914,0.251208691 29.0755517,0.495971667 29.0755517,0.759462059 L29.0755517,7.44314628 C29.0755517,7.7071593 29.2131914,7.95139965 29.4391513,8.08963411 C29.5605261,8.16367274 29.6981658,8.20112757 29.836505,8.20112757 L29.836505,8.20112757 Z" id="Fill-2" fill="#0A0B09" mask="url(#mask-2)"></path>
                    <path d="M22.0708813,53.9952351 L22.0708813,54.7532164 L22.0395757,53.9952351 C21.3945755,53.9868731 20.7911121,53.7292187 20.3408537,53.2688727 C19.8909451,52.8089622 19.6472336,52.2019326 19.6557159,51.5594515 C19.6725055,50.2502745 20.754997,49.1848151 22.1006128,49.1848151 C22.7455256,49.1932643 23.348989,49.4507445 23.7993348,49.9111776 C24.249156,50.3711752 24.4929549,50.9781177 24.4844726,51.6205987 C24.467683,52.9302984 23.3851916,53.9952351 22.0708813,53.9952351 Z M3.93812135,47.6851411 L3.93812135,48.4431224 L3.90681575,47.6851411 C3.26181558,47.6767791 2.65843959,47.4191247 2.20809375,46.9586915 C1.75818514,46.498781 1.51447371,45.8918385 1.52286851,45.2492704 C1.53974555,43.9400933 2.62223704,42.874634 3.96785292,42.874634 C4.61276565,42.882996 5.21631653,43.1406504 5.66657492,43.6005609 C6.11648353,44.060994 6.36019496,44.6679365 6.35171272,45.3105047 C6.33492313,46.6202044 5.25243164,47.6851411 3.93812135,47.6851411 Z M15.3664122,32.5830912 C16.6980368,32.5999024 17.7671491,33.6924511 17.7503595,35.0189619 C17.7334824,36.3286616 16.6509909,37.3935983 15.3366806,37.3935983 L15.3366806,38.1515796 L15.305375,37.3935983 C14.6603749,37.3851492 14.0569114,37.1275819 13.606653,36.6671488 C13.1567444,36.2071512 12.913033,35.6002958 12.9214278,34.9577276 C12.9383048,33.6485506 14.0207963,32.5830912 15.3664122,32.5830912 Z M22.0693072,47.6688526 C20.6343218,47.6688526 19.3825352,48.4564493 18.6946866,49.6121487 L7.816867,45.8271201 C7.84038992,45.6623188 7.87152063,45.5000436 7.87361932,45.3296676 C7.88315092,44.5895427 7.67791564,43.8828658 7.30312296,43.2640771 L12.9937455,38.1258838 C13.6544859,38.6174132 14.4449959,38.8986729 15.2856123,38.9095609 L15.3366806,38.9095609 C17.4793649,38.9095609 19.244983,37.1729632 19.2722661,35.0381249 C19.2998989,32.8761971 17.5564921,31.0947407 15.3351066,31.0671287 C13.1925098,31.0671287 11.4267168,32.8037263 11.3995212,34.9384776 C11.3900771,35.6786896 11.5953123,36.3853665 11.9700176,37.0041552 L6.27913271,42.1423485 C5.61655593,41.6508191 4.81800093,41.3695595 3.93654732,41.3586714 C1.79386303,41.3586714 0.0282449916,43.0952691 0.000961903738,45.2301074 C-0.0124173028,46.2771878 0.384411712,47.2671277 1.11869405,48.0172696 C1.85236426,48.7673244 2.83577967,49.1872541 3.88705301,49.200581 L3.93812135,49.2011036 L3.93855858,49.2011036 C5.37354406,49.2011036 6.62515572,48.4129843 7.31291689,47.2571978 L18.1905616,51.042749 C18.1670387,51.2075503 18.135908,51.3699998 18.1337218,51.5402015 C18.1203426,52.5873689 18.5171716,53.5773089 19.251454,54.3273637 C19.9851242,55.0769829 20.9684521,55.4974352 22.0198129,55.5111977 L22.0708813,55.5111977 C24.2134781,55.5111977 25.9790962,53.7746871 26.0064667,51.6399359 C26.0198459,50.5926813 25.6229294,49.6027414 24.8887345,48.8526866 C24.1550643,48.1026318 23.1715615,47.682615 22.0693072,47.6688526 L22.0693072,47.6688526 Z" id="Fill-4" fill="#0A0B09" mask="url(#mask-2)"></path>
                </g>
                <path d="M56.6568919,56.4766748 C55.3197681,56.4766748 53.9715256,56.1745369 52.9567543,55.6473158 L52.7088178,55.518399 L48.1466806,56.5465192 L49.5740666,52.4920684 L49.4133281,52.1982701 C48.7646834,51.0130868 48.4224575,49.6680607 48.4224575,48.3087007 C48.4224575,43.8034754 52.1165542,40.1378599 56.6568919,40.1378599 C61.1962665,40.1378599 64.8884372,43.8034754 64.8884372,48.3087007 C64.8884372,52.8124492 61.1962665,56.4766748 56.6568919,56.4766748 Z M56.6568919,38.6259542 C51.276354,38.6259542 46.8987684,42.9697729 46.8987684,48.3087007 C46.8987684,49.8048827 47.2499243,51.2872522 47.9164288,52.6175103 L45.8015267,58.6259542 L52.5073694,57.1139616 C53.6958363,57.6721088 55.189759,57.9885805 56.6568919,57.9885805 C62.0355037,57.9885805 66.4122137,53.6462386 66.4122137,48.3087007 C66.4122137,42.9697729 62.0355037,38.6259542 56.6568919,38.6259542 L56.6568919,38.6259542 Z" id="Fill-6" fill="#0A0B09"></path>
                <polygon id="Fill-7" fill="#0A0B09" points="51.1450382 47.480916 62.4427481 47.480916 62.4427481 45.9541985 51.1450382 45.9541985"></polygon>
                <polygon id="Fill-8" fill="#0A0B09" points="52.6717557 51.6030534 60.7633588 51.6030534 60.7633588 50.0763359 52.6717557 50.0763359"></polygon>
                <path d="M7.80971839,41.077836 C6.69620192,37.4745356 6.326315,33.727936 6.71004748,29.9423185 C7.09430575,26.1567009 8.20931193,22.5603992 10.0239573,19.2534954 C11.7774369,16.057609 14.1068218,13.2642376 16.9465649,10.9506297 L15.9824578,9.77099237 C12.9892744,12.2090029 10.5348412,15.1531096 8.68645816,18.5219523 C6.77305357,22.0087237 5.59802072,25.7993278 5.19281885,29.7892211 C4.7882304,33.7785019 5.17844751,37.7278024 6.3521659,41.5267176 L7.80971839,41.077836" id="Fill-9" fill="#0A0B09"></path>
                <path d="M55.656501,15.5486278 C57.7738167,18.4827903 59.2619103,21.7755707 60.0772096,25.3347355 C60.893382,28.895474 60.9894332,32.5076185 60.3611716,36.0713294 L61.8571239,36.3358779 C62.5210117,32.570652 62.4211186,28.7547195 61.5593655,24.9939523 C60.6975251,21.235633 59.1253431,17.7575987 56.8873523,14.6570662 C54.7264643,11.66293 52.0383431,9.14587287 48.8989563,7.17557252 L48.0916031,8.46535559 C51.0647341,10.3306584 53.6105251,12.7135179 55.656501,15.5486278" id="Fill-10" fill="#0A0B09"></path>
                <path d="M39.9130663,56.6137096 C38.1663508,57.2902009 36.3244824,57.6001672 34.4378826,57.5349344 C32.5524208,57.4691706 30.7352379,57.0324562 29.0376307,56.2361206 L28.3969466,57.633713 C30.2800449,58.5167895 32.2949741,59.001654 34.3864108,59.0744103 C34.5688381,59.080429 34.7503901,59.0839695 34.931942,59.0839695 C36.8323727,59.0839695 38.6891224,58.737448 40.4585975,58.0519285 C42.330141,57.3268445 44.0252971,56.254708 45.4961832,54.8662323 L44.4567676,53.740458 C43.1297049,54.9930689 41.6012195,55.9598771 39.9130663,56.6137096" id="Fill-11" fill="#0A0B09"></path>
            </g>
        </g>
    </g>
</svg>