<svg xmlns="http://www.w3.org/2000/svg" xmlns:xlink="http://www.w3.org/1999/xlink" width="316" height="219" viewBox="0 0 316 219">
  <defs>
    <polygon id="ai-behaviour-adv-b" points="0 0 0 23.879 23.835 23.879 29.5 31 35.163 23.879 59 23.879 59 0"/>
    <filter id="ai-behaviour-adv-a" width="133.9%" height="164.5%" x="-16.9%" y="-25.8%" filterUnits="objectBoundingBox">
      <feOffset dy="2" in="SourceAlpha" result="shadowOffsetOuter1"/>
      <feGaussianBlur in="shadowOffsetOuter1" result="shadowBlurOuter1" stdDeviation="3"/>
      <feColorMatrix in="shadowBlurOuter1" values="0 0 0 0 0.607843137   0 0 0 0 0.607843137   0 0 0 0 0.607843137  0 0 0 0.5 0"/>
    </filter>
    <linearGradient id="ai-behaviour-adv-c" x1="0%" y1="50%" y2="50%">
      <stop offset="0%" stop-color="#FC4A1A"/>
      <stop offset="100%" stop-color="#F7B733"/>
    </linearGradient>
    <polygon id="ai-behaviour-adv-e" points="0 0 0 23.88 23.837 23.88 29.5 31 35.163 23.88 59 23.88 59 0"/>
    <filter id="ai-behaviour-adv-d" width="133.9%" height="164.5%" x="-16.9%" y="-25.8%" filterUnits="objectBoundingBox">
      <feOffset dy="2" in="SourceAlpha" result="shadowOffsetOuter1"/>
      <feGaussianBlur in="shadowOffsetOuter1" result="shadowBlurOuter1" stdDeviation="3"/>
      <feColorMatrix in="shadowBlurOuter1" values="0 0 0 0 0.607843137   0 0 0 0 0.607843137   0 0 0 0 0.607843137  0 0 0 0.5 0"/>
    </filter>
    <polygon id="ai-behaviour-adv-g" points="0 0 0 20.027 21.009 20.027 26 26 30.991 20.027 52 20.027 52 0"/>
    <filter id="ai-behaviour-adv-f" width="138.5%" height="176.9%" x="-19.2%" y="-30.8%" filterUnits="objectBoundingBox">
      <feOffset dy="2" in="SourceAlpha" result="shadowOffsetOuter1"/>
      <feGaussianBlur in="shadowOffsetOuter1" result="shadowBlurOuter1" stdDeviation="3"/>
      <feColorMatrix in="shadowBlurOuter1" values="0 0 0 0 0.607843137   0 0 0 0 0.607843137   0 0 0 0 0.607843137  0 0 0 0.5 0"/>
    </filter>
    <path id="ai-behaviour-adv-i" d="M49,133.500702 C49,143.164787 41.3886503,151 32.0006823,151 C22.6113497,151 15,143.164787 15,133.500702 C15,123.835213 22.6113497,116 32.0006823,116 C41.3886503,116 49,123.835213 49,133.500702"/>
    <filter id="ai-behaviour-adv-h" width="158.8%" height="157.1%" x="-29.4%" y="-22.9%" filterUnits="objectBoundingBox">
      <feOffset dy="2" in="SourceAlpha" result="shadowOffsetOuter1"/>
      <feGaussianBlur in="shadowOffsetOuter1" result="shadowBlurOuter1" stdDeviation="3"/>
      <feColorMatrix in="shadowBlurOuter1" values="0 0 0 0 0.607843137   0 0 0 0 0.607843137   0 0 0 0 0.607843137  0 0 0 0.5 0"/>
    </filter>
    <path id="ai-behaviour-adv-k" d="M30,15 C30,23.284171 23.284171,30 15,30 C6.71582903,30 0,23.284171 0,15 C0,6.71582903 6.71582903,0 15,0 C23.284171,0 30,6.71582903 30,15"/>
    <filter id="ai-behaviour-adv-j" width="166.7%" height="166.7%" x="-33.3%" y="-26.7%" filterUnits="objectBoundingBox">
      <feOffset dy="2" in="SourceAlpha" result="shadowOffsetOuter1"/>
      <feGaussianBlur in="shadowOffsetOuter1" result="shadowBlurOuter1" stdDeviation="3"/>
      <feColorMatrix in="shadowBlurOuter1" values="0 0 0 0 0.607843137   0 0 0 0 0.607843137   0 0 0 0 0.607843137  0 0 0 0.5 0"/>
    </filter>
    <path id="ai-behaviour-adv-m" d="M156,53 C156,62.3897094 148.38865,70 139.000682,70 C129.61135,70 122,62.3897094 122,53 C122,43.6102906 129.61135,36 139.000682,36 C148.38865,36 156,43.6102906 156,53"/>
    <filter id="ai-behaviour-adv-l" width="158.8%" height="158.8%" x="-29.4%" y="-23.5%" filterUnits="objectBoundingBox">
      <feOffset dy="2" in="SourceAlpha" result="shadowOffsetOuter1"/>
      <feGaussianBlur in="shadowOffsetOuter1" result="shadowBlurOuter1" stdDeviation="3"/>
      <feColorMatrix in="shadowBlurOuter1" values="0 0 0 0 0.607843137   0 0 0 0 0.607843137   0 0 0 0 0.607843137  0 0 0 0.5 0"/>
    </filter>
  </defs>
  <g fill="none" fill-rule="evenodd" transform="translate(6 4)">
    <path fill="#FAFAFA" d="M275.5,155 C272.462589,155 270,157.462589 270,160.5 C270,163.537411 272.462589,166 275.5,166 C278.537411,166 281,163.537411 281,160.5 C281,157.462589 278.537411,155 275.5,155"/>
    <path fill="#424242" d="M277.178927,62 L50.8210731,62 C47.0532158,62 44,65.0683893 44,68.8549718 L44,201.143631 C44,204.930213 47.0532158,208 50.8210731,208 L277.178927,208 C280.946784,208 284,204.930213 284,201.143631 L284,68.8549718 C284,65.0683893 280.946784,62 277.178927,62"/>
    <polygon fill="#FFF" points="56 196 272 196 272 74 56 74"/>
    <path fill="#212121" d="M166,68.5 C166,69.8802414 164.880241,71 163.5,71 C162.11817,71 161,69.8802414 161,68.5 C161,67.1197586 162.11817,66 163.5,66 C164.880241,66 166,67.1197586 166,68.5"/>
    <path fill="#EEE" stroke="#979797" d="M304.787955,214 L23.2120451,214 C20.8863846,214 19,212.150349 19,209.866929 L19,205 L309,205 L309,209.866929 C309,212.150349 307.115006,214 304.787955,214"/>
    <polygon fill="#EEE" points="131 201 196 201 196 199 131 199"/>
    <polygon fill="#EEE" points="56 82 272 82 272 74 56 74"/>
    <polygon fill="#FC541C" points="56 90 272 90 272 82 56 82"/>
    <polygon fill="#BDBDBD" points="241 82 272 82 272 74 241 74"/>
    <path fill="#EF5350" d="M62,77 C62,77.5521739 61.5521739,78 61,78 C60.4478261,78 60,77.5521739 60,77 C60,76.4467391 60.4478261,76 61,76 C61.5521739,76 62,76.4467391 62,77"/>
    <path fill="#BDBDBD" d="M69 77C69 77.5521739 68.5521739 78 68 78 67.4478261 78 67 77.5521739 67 77 67 76.4467391 67.4478261 76 68 76 68.5521739 76 69 76.4467391 69 77M75 77C75 77.5521739 74.5521739 78 74 78 73.4478261 78 73 77.5521739 73 77 73 76.4467391 73.4478261 76 74 76 74.5521739 76 75 76.4467391 75 77"/>
    <polygon fill="#FC541C" points="69 153 114 153 114 96 69 96"/>
    <polygon fill="#F5F5F5" points="120 196 231 196 231 96 120 96"/>
    <polygon fill="#FFF" points="125 128 227 128 227 100 125 100"/>
    <polygon fill="#FFF" points="125 164 227 164 227 136 125 136"/>
    <polygon fill="#FC541C" points="237 128 262 128 262 96 237 96"/>
    <polygon fill="#FC541C" points="237 166 262 166 262 133 237 133"/>
    <path fill="#FFF" d="M105,116.5 C105,123.955286 98.9566787,130 91.5,130 C84.0447138,130 78,123.955286 78,116.5 C78,109.044714 84.0447138,103 91.5,103 C98.9566787,103 105,109.044714 105,116.5"/>
    <g transform="translate(88)">
      <use fill="#000" filter="url(#ai-behaviour-adv-a)" xlink:href="#ai-behaviour-adv-b"/>
      <use fill="#FFF" xlink:href="#ai-behaviour-adv-b"/>
      <text fill="#000" font-family="TitilliumWeb-Bold, Titillium Web" font-size="10.699" font-weight="bold">
        <tspan x="32" y="15">75</tspan>
      </text>
      <path fill="url(#ai-behaviour-adv-c)" d="M4.5 5C2.0141129 5 0 7.23029366 0 9.98299845L0 12 9 12 9 9.98299845C9 7.23029366 6.9858871 5 4.5 5M4.5 5C5.88038402 5 7 3.88168137 7 2.5 7 1.11961598 5.88038402 0 4.5 0 3.11961598 0 2 1.11961598 2 2.5 2 3.88168137 3.11961598 5 4.5 5" transform="translate(13 5)"/>
    </g>
    <g transform="translate(220 50)">
      <use fill="#000" filter="url(#ai-behaviour-adv-d)" xlink:href="#ai-behaviour-adv-e"/>
      <use fill="#FFF" xlink:href="#ai-behaviour-adv-e"/>
      <text fill="#000" font-family="TitilliumWeb-Bold, Titillium Web" font-size="10.699" font-weight="bold">
        <tspan x="25" y="15">250</tspan>
      </text>
      <path fill="url(#ai-behaviour-adv-c)" d="M21.1179088,14.0086763 C21.6760845,13.123693 22,12.0972191 22,11 C22,7.68698554 19.089099,5 15.5,5 C11.9094549,5 9,7.68698554 9,11 C9,14.3143493 11.9094549,17 15.5,17 C16.6886541,17 17.7992214,16.7023359 18.7593993,16.1870968 L22,17 L21.1179088,14.0086763 Z"/>
    </g>
    <g transform="translate(0 84)">
      <use fill="#000" filter="url(#ai-behaviour-adv-f)" xlink:href="#ai-behaviour-adv-g"/>
      <use fill="#FFF" xlink:href="#ai-behaviour-adv-g"/>
      <text fill="#000" font-family="TitilliumWeb-Bold, Titillium Web" font-size="9.454" font-weight="bold">
        <tspan x="25" y="14">450</tspan>
      </text>
      <path fill="url(#ai-behaviour-adv-c)" d="M19.9704224,6.0323535 C18.5976522,4.65588217 16.3727702,4.65588217 15,6.0323535 C13.6272298,4.65588217 11.4023478,4.65588217 10.0295776,6.0323535 C8.65680746,7.40882483 8.65680746,9.63970542 10.0295776,11.0161767 L15,16 L19.9704224,11.0161767 C21.3431925,9.63970542 21.3431925,7.40882483 19.9704224,6.0323535"/>
    </g>
    <use fill="#000" filter="url(#ai-behaviour-adv-h)" xlink:href="#ai-behaviour-adv-i"/>
    <use fill="#FFF" xlink:href="#ai-behaviour-adv-i"/>
    <path fill="#424242" d="M34.5911168 145L29.4103455 145C26.4229574 145 24 147.420033 24 150.407421L24 153 40 153 40 150.407421C40 147.420033 37.5785048 145 34.5911168 145M31.5 123C26.8053221 123 23 126.880523 23 131.664788L23 133.333784C23 138.119477 26.8053221 142 31.5 142 36.1946779 142 40 138.119477 40 133.333784L40 131.664788C40 126.880523 36.1946779 123 31.5 123"/>
    <polygon fill="#9B7268" points="30 146 35 146 35 141 30 141"/>
    <path fill="#7F5B54" d="M30,143.760744 C30.7988689,143.916261 31.6366207,144 32.5008837,144 C33.3633793,144 34.2011311,143.916261 35,143.760744 L35,141 L30,141 L30,143.760744 Z"/>
    <path fill="#9B7268" d="M37,133.500579 C37,134.327926 37.6711747,135 38.5,135 C39.3288253,135 40,134.327926 40,133.500579 C40,132.672074 39.3288253,132 38.5,132 C37.6711747,132 37,132.672074 37,133.500579"/>
    <path fill="#7F5B54" d="M39,133.000692 C39,133.551557 39.4473684,134 40,134 C40.5526316,134 41,133.551557 41,133.000692 C41,132.448443 40.5526316,132 40,132 C39.4473684,132 39,132.448443 39,133.000692"/>
    <path fill="#9B7268" d="M25,133.500579 C25,134.327926 24.3276662,135 23.5,135 C22.6711747,135 22,134.327926 22,133.500579 C22,132.672074 22.6711747,132 23.5,132 C24.3276662,132 25,132.672074 25,133.500579"/>
    <path fill="#7F5B54" d="M25,133.000692 C25,133.551557 24.5515571,134 23.999308,134 C23.4484429,134 23,133.551557 23,133.000692 C23,132.448443 23.4484429,132 23.999308,132 C24.5515571,132 25,132.448443 25,133.000692"/>
    <path fill="#9B7268" d="M32.0007108,124 C27.5824078,124 24,127.567278 24,131.965504 L24,135.03308 C24,139.432722 27.5824078,143 32.0007108,143 C36.4190138,143 40,139.432722 40,135.03308 L40,131.965504 C40,127.567278 36.4190138,124 32.0007108,124"/>
    <path fill="#424242" d="M24 131L24 133.445928C24 133.753004 24.1931538 134 24.4309615 134 24.6687692 134 24.8608846 133.753004 24.8608846 133.445928L24.8608846 131 24 131zM39.8608846 131L39.8608846 133.445928C39.8608846 133.753004 39.6677308 134 39.4299231 134 39.1921154 134 39 133.753004 39 133.445928L39 131 39.8608846 131zM33.4868515 124L30.5131485 124C26.9154229 124 24 127.070359 24 130.857784L24 131 24.8258706 131 24.8258706 130.128743C24.8258706 129.836826 25.0490405 129.601796 25.3248045 129.601796L38.6751955 129.601796C38.9509595 129.601796 39.1741294 129.836826 39.1741294 130.128743L39.1741294 131 40 131 40 130.857784C40 127.070359 37.0831557 124 33.4868515 124"/>
    <path fill="#9B7268" d="M35,145.048431 C34.7309436,145.019813 34.4588642,145 34.1777154,145 L28.8222846,145 C28.5411358,145 28.2675448,145.019813 28,145.048431 C28.2630101,146.15355 29.7277046,147 31.5007558,147 C33.2722954,147 34.7369899,146.15355 35,145.048431"/>
    <g transform="translate(269 86)">
      <use fill="#000" filter="url(#ai-behaviour-adv-j)" xlink:href="#ai-behaviour-adv-k"/>
      <use fill="#FFF" xlink:href="#ai-behaviour-adv-k"/>
      <path fill="#424242" d="M14.5,6 C10.3578032,6 7,9.3416009 7,13.4638106 L7,30 L22,30 L22,13.4638106 C22,9.3416009 18.6421968,6 14.5,6"/>
      <polygon fill="#F9AA92" points="13 23 16 23 16 20 13 20"/>
      <path fill="#F58967" d="M13,21.8412863 C13.4791063,21.9450207 13.9817956,22 14.4993794,22 C15.0182044,22 15.5208937,21.9450207 16,21.8412863 L16,20 L13,20 L13,21.8412863 Z"/>
      <path fill="#F9AA92" d="M19,14.5006784 C19,15.3283582 19.6716418,16 20.4993216,16 C21.3283582,16 22,15.3283582 22,14.5006784 C22,13.6716418 21.3283582,13 20.4993216,13 C19.6716418,13 19,13.6716418 19,14.5006784"/>
      <path fill="#F58967" d="M19,14.5 C19,14.7763371 19.2236629,15 19.5,15 C19.7763371,15 20,14.7763371 20,14.5 C20,14.2236629 19.7763371,14 19.5,14 C19.2236629,14 19,14.2236629 19,14.5"/>
      <path fill="#F9AA92" d="M9,14.5006784 C9,15.3283582 8.32835821,16 7.50067843,16 C6.67164179,16 6,15.3283582 6,14.5006784 C6,13.6716418 6.67164179,13 7.50067843,13 C8.32835821,13 9,13.6716418 9,14.5006784"/>
      <path fill="#F58967" d="M8,14.5 C8,14.7763371 7.77633712,15 7.5,15 C7.22366288,15 7,14.7763371 7,14.5 C7,14.2236629 7.22366288,14 7.5,14 C7.77633712,14 8,14.2236629 8,14.5"/>
      <path fill="#F9AA92" d="M15,7 C11.1339156,7 8,10.0038368 8,13.7094524 L8,16.2919428 C8,19.9961632 11.1339156,23 15,23 C18.8660844,23 22,19.9961632 22,16.2919428 L22,13.7094524 C22,10.0038368 18.8660844,7 15,7"/>
      <path fill="#424242" d="M17.4493085,7 L12.5521472,7 C10.0380576,7 8,9.11603284 8,11.7281763 L8,14 C12.9510242,14 15.0007279,9.98271392 15.0007279,9.98271392 C15.0007279,9.98271392 17.0504315,14 22,14 L22,11.7281763 C22,9.11603284 19.9633981,7 17.4493085,7"/>
      <path fill="#424242" d="M21 11L21 16.5193114C21 16.7854778 21.162 17 21.362 17 21.562 17 21.724 16.7854778 21.724 16.5193114L21.724 11 21 11zM7 11L7 16.5193114C7 16.7854778 7.162 17 7.362 17 7.562 17 7.724 16.7854778 7.724 16.5193114L7.724 11 7 11z"/>
      <path fill="#E84A45" d="M14.612,11.306 C14.612,11.475 14.475,11.612 14.306,11.612 C14.137,11.612 14,11.475 14,11.306 C14,11.137 14.137,11 14.306,11 C14.475,11 14.612,11.137 14.612,11.306"/>
      <path fill="#F4511E" d="M14,23 C10.6862032,23 8,26.1339037 8,30 L20,30 C20,26.1339037 17.3137968,23 14,23"/>
      <path fill="#FFF176" d="M16.8166895,30 L21,30 C21,26.1339037 18.1354309,23 14.6046512,23 C14.4008208,23 14.1997264,23.0119786 14,23.0329412 L16.8166895,30 Z"/>
      <path fill="#F9AA92" d="M17,23.6839237 C16.5557665,24.4536785 15.3796868,25 14,25 C12.6203132,25 11.4442335,24.4536785 11,23.6839237 C11.8998576,23.246594 12.9207404,23 14,23 C15.0792596,23 16.0987186,23.246594 17,23.6839237"/>
    </g>
    <use fill="#000" filter="url(#ai-behaviour-adv-l)" xlink:href="#ai-behaviour-adv-m"/>
    <use fill="#FFF" xlink:href="#ai-behaviour-adv-m"/>
    <path fill="#F58967" d="M137.5,63 C133.357247,63 130,66.5810638 130,71 L145,71 C145,66.5810638 141.641382,63 137.5,63"/>
    <path fill="#FAFAFA" d="M141,63.9766677 C139.958165,63.3529764 138.766532,63 137.499325,63 C136.233468,63 135.040486,63.3529764 134,63.9766677 C134.605938,66.3562668 135.946019,68 137.499325,68 C139.053981,68 140.392713,66.3562668 141,63.9766677"/>
    <path fill="#424242" d="M139,56.5007023 C139,60.0895732 136.313162,63 133,63 C129.685541,63 127,60.0895732 127,56.5007023 C127,52.9104268 129.685541,50 133,50 C136.313162,50 139,52.9104268 139,56.5007023"/>
    <path fill="#424242" d="M148,56.5007023 C148,60.0895732 145.313162,63 142,63 C138.685541,63 136,60.0895732 136,56.5007023 C136,52.9104268 138.685541,50 142,50 C145.313162,50 148,52.9104268 148,56.5007023"/>
    <path fill="#424242" d="M138.5,42 C133.805715,42 130,45.7558442 130,50.3857143 L130,53.6142857 C130,58.2467532 133.805715,62 138.5,62 C143.194285,62 147,58.2467532 147,53.6142857 L147,50.3857143 C147,45.7558442 143.194285,42 138.5,42"/>
    <polygon fill="#9B7268" points="136 64 139 64 139 59 136 59"/>
    <path fill="#7F5B54" d="M136,61.7620735 C136.479321,61.9162605 136.981972,62 137.50053,62 C138.018028,62 138.520679,61.9162605 139,61.7620735 L139,59 L136,59 L136,61.7620735 Z"/>
    <path fill="#9B7268" d="M144,52.5 C144,53.3288253 144.671175,54 145.5,54 C146.328825,54 147,53.3288253 147,52.5 C147,51.6711747 146.328825,51 145.5,51 C144.671175,51 144,51.6711747 144,52.5"/>
    <path fill="#7F5B54" d="M144,52 C144,52.5504841 144.447368,53 145,53 C145.552632,53 146,52.5504841 146,52 C146,51.4495159 145.552632,51 145,51 C144.447368,51 144,51.4495159 144,52"/>
    <path fill="#9B7268" d="M131,52.5 C131,53.3288253 130.327666,54 129.5,54 C128.671175,54 128,53.3288253 128,52.5 C128,51.6711747 128.671175,51 129.5,51 C130.327666,51 131,51.6711747 131,52.5"/>
    <path fill="#7F5B54" d="M132,52 C132,52.5504841 131.551247,53 131,53 C130.447368,53 130,52.5504841 130,52 C130,51.4495159 130.447368,51 131,51 C131.551247,51 132,51.4495159 132,52"/>
    <path fill="#9B7268" d="M138.5,43 C134.357473,43 131,46.3795262 131,50.5476084 L131,53.4537327 C131,57.6204738 134.357473,61 138.5,61 C142.642527,61 146,57.6204738 146,53.4537327 L146,50.5476084 C146,46.3795262 142.642527,43 138.5,43"/>
    <path fill="#424242" d="M141.916204,43 L136.085206,43 C133.276853,43 131,45.2058597 131,47.9283335 L131,54.7850858 C131,54.7850858 133.589832,50.8107115 133.735043,47.6003246 C133.735043,47.6003246 139.828267,51.7209362 145.346286,52.1719484 C145.346286,52.1719484 143.444444,57.2055181 145.346286,59 L147,56.4975656 L147,47.9283335 C147,45.2058597 144.724557,43 141.916204,43"/>
    <path fill="#9B7268" d="M141,63.6841187 C140.48206,64.4531704 139.109872,65 137.50071,65 C135.891547,65 134.519359,64.4531704 134,63.6841187 C135.052909,63.246655 136.242043,63 137.50071,63 C138.759376,63 139.94851,63.246655 141,63.6841187"/>
    <polygon fill="#EEE" points="135.827 63 138 65.163 137.168 66 135 63.387"/>
    <polygon fill="#EEE" points="139.173 63 137 65.163 137.832 66 140 63.387"/>
  </g>
</svg>
