<svg xmlns="http://www.w3.org/2000/svg" xmlns:xlink="http://www.w3.org/1999/xlink" width="191" height="215" viewBox="0 0 191 215">
  <defs>
    <polygon id="ai-behaviour-ans-b" points="80 46 80 69.109 93.921 69.109 99.5 76 105.078 69.109 119 69.109 119 46"/>
    <filter id="ai-behaviour-ans-a" width="151.3%" height="166.7%" x="-25.6%" y="-26.7%" filterUnits="objectBoundingBox">
      <feOffset dy="2" in="SourceAlpha" result="shadowOffsetOuter1"/>
      <feGaussianBlur in="shadowOffsetOuter1" result="shadowBlurOuter1" stdDeviation="3"/>
      <feColorMatrix in="shadowBlurOuter1" values="0 0 0 0 0.607843137   0 0 0 0 0.607843137   0 0 0 0 0.607843137  0 0 0 0.5 0"/>
    </filter>
    <linearGradient id="ai-behaviour-ans-c" x1="0%" y1="50%" y2="50%">
      <stop offset="0%" stop-color="#FC4A1A"/>
      <stop offset="100%" stop-color="#F7B733"/>
    </linearGradient>
    <polygon id="ai-behaviour-ans-e" points="0 88 0 106.486 11.422 106.486 16 112 20.578 106.486 32 106.486 32 88"/>
    <filter id="ai-behaviour-ans-d" width="162.5%" height="183.3%" x="-31.2%" y="-33.3%" filterUnits="objectBoundingBox">
      <feOffset dy="2" in="SourceAlpha" result="shadowOffsetOuter1"/>
      <feGaussianBlur in="shadowOffsetOuter1" result="shadowBlurOuter1" stdDeviation="3"/>
      <feColorMatrix in="shadowBlurOuter1" values="0 0 0 0 0.607843137   0 0 0 0 0.607843137   0 0 0 0 0.607843137  0 0 0 0.5 0"/>
    </filter>
    <polygon id="ai-behaviour-ans-g" points="147 61 147 79.488 158.423 79.488 162.999 85 167.577 79.488 179 79.488 179 61"/>
    <filter id="ai-behaviour-ans-f" width="162.5%" height="183.3%" x="-31.2%" y="-33.3%" filterUnits="objectBoundingBox">
      <feOffset dy="2" in="SourceAlpha" result="shadowOffsetOuter1"/>
      <feGaussianBlur in="shadowOffsetOuter1" result="shadowBlurOuter1" stdDeviation="3"/>
      <feColorMatrix in="shadowBlurOuter1" values="0 0 0 0 0.607843137   0 0 0 0 0.607843137   0 0 0 0 0.607843137  0 0 0 0.5 0"/>
    </filter>
    <path id="ai-behaviour-ans-i" d="M54,37 C54,45.2840237 47.2840237,52 39,52 C30.71469,52 24,45.2840237 24,37 C24,28.7159763 30.71469,22 39,22 C47.2840237,22 54,28.7159763 54,37"/>
    <filter id="ai-behaviour-ans-h" width="166.7%" height="166.7%" x="-33.3%" y="-26.7%" filterUnits="objectBoundingBox">
      <feOffset dy="2" in="SourceAlpha" result="shadowOffsetOuter1"/>
      <feGaussianBlur in="shadowOffsetOuter1" result="shadowBlurOuter1" stdDeviation="3"/>
      <feColorMatrix in="shadowBlurOuter1" values="0 0 0 0 0.607843137   0 0 0 0 0.607843137   0 0 0 0 0.607843137  0 0 0 0.5 0"/>
    </filter>
    <path id="ai-behaviour-ans-j" d="M45,50.4435119 C43.0377464,51.4403872 40.8315898,52 38.4994923,52 C36.1676548,52 33.9618976,51.4406857 32,50.4443096 L32,46 L45,46 L45,50.4435119 Z"/>
    <path id="ai-behaviour-ans-m" d="M148,16.001277 C148,24.8370979 140.836393,32 132.001277,32 C123.164884,32 116,24.8370979 116,16.001277 C116,7.1641791 123.164884,0 132.001277,0 C140.836393,0 148,7.1641791 148,16.001277"/>
    <filter id="ai-behaviour-ans-l" width="162.5%" height="162.5%" x="-31.2%" y="-25%" filterUnits="objectBoundingBox">
      <feOffset dy="2" in="SourceAlpha" result="shadowOffsetOuter1"/>
      <feGaussianBlur in="shadowOffsetOuter1" result="shadowBlurOuter1" stdDeviation="3"/>
      <feColorMatrix in="shadowBlurOuter1" values="0 0 0 0 0.607843137   0 0 0 0 0.607843137   0 0 0 0 0.607843137  0 0 0 0.5 0"/>
    </filter>
    <path id="ai-behaviour-ans-n" d="M138,30.4309438 C135.880257,31.4356671 133.495152,32 130.973285,32 C128.472486,32 126.106275,31.4450566 124,30.4560319 L124,26 L138,26 L138,30.4309438 Z"/>
  </defs>
  <g fill="none" fill-rule="evenodd" transform="translate(6 4)">
    <path fill="#424242" d="M48.6338454,123 L10.3661546,123 C7.9547693,123 6,124.962966 6,127.384463 L6,206.615537 C6,209.037034 7.9547693,211 10.3661546,211 L48.6338454,211 C51.0452307,211 53,209.037034 53,206.615537 L53,127.384463 C53,124.962966 51.0452307,123 48.6338454,123"/>
    <polygon fill="#F5F5F5" points="10 201 51 201 51 133 10 133"/>
    <path fill="#616161" d="M36.5237192 126L23.4762808 126C22.6603416 126 22 126.670664 22 127.500642 22 128.328051 22.6603416 129 23.4762808 129L36.5237192 129C37.3396584 129 38 128.328051 38 127.500642 38 126.670664 37.3396584 126 36.5237192 126M44 127.500642C44 128.329336 43.3293362 129 42.4993576 129 41.6719486 129 41 128.329336 41 127.500642 41 126.670664 41.6719486 126 42.4993576 126 43.3293362 126 44 126.670664 44 127.500642M16 127.500642C16 126.670664 16.6706638 126 17.5006424 126 18.3280514 126 19 126.670664 19 127.500642 19 128.329336 18.3280514 129 17.5006424 129 16.6706638 129 16 128.329336 16 127.500642M33 205.5C33 207.434243 31.4323175 209 29.5 209 27.5664422 209 26 207.434243 26 205.5 26 203.565757 27.5664422 202 29.5 202 31.4323175 202 33 203.565757 33 205.5"/>
    <polygon fill="#EEE" points="10 137 51 137 51 133 10 133"/>
    <polygon fill="#FC541C" points="10 162 51 162 51 136 10 136"/>
    <path fill="#FFF" d="M37,150.500625 C37,154.642089 33.6411196,158 29.5,158 C25.3588804,158 22,154.642089 22,150.500625 C22,146.35916 25.3588804,143 29.5,143 C33.6411196,143 37,146.35916 37,150.500625"/>
    <polygon fill="#FFF" points="12 180 47 180 47 166 12 166"/>
    <polygon fill="#FFF" points="12 196 47 196 47 182 12 182"/>
    <path fill="#424242" d="M156.878167,89 L66.1231054,89 C63.2943266,89 61,91.2772222 61,94.0849121 L61,205.915088 C61,208.724041 63.2943266,211 66.1231054,211 L156.878167,211 C159.708218,211 162,208.724041 162,205.915088 L162,94.0849121 C162,91.2772222 159.708218,89 156.878167,89"/>
    <polygon fill="#F5F5F5" points="65 198 158 198 158 100 65 100"/>
    <path fill="#616161" d="M109 94.5C109 93.6713442 109.671096 93 110.499446 93 111.328904 93 112 93.6713442 112 94.5 112 95.3286558 111.328904 96 110.499446 96 109.671096 96 109 95.3286558 109 94.5M115 205C115 207.209594 113.208645 209 111.000611 209 108.791355 209 107 207.209594 107 205 107 202.790406 108.791355 201 111.000611 201 113.208645 201 115 202.790406 115 205"/>
    <polygon fill="#EEE" points="65 104 158 104 158 100 65 100"/>
    <polygon fill="#FC541C" points="65 199 98 199 98 105 65 105"/>
    <polygon fill="#FFF" points="102 133 154 133 154 109 102 109"/>
    <polygon fill="#FFF" points="102 162 154 162 154 138 102 138"/>
    <polygon fill="#FFF" points="102 191 154 191 154 167 102 167"/>
    <path fill="#FFF" d="M92,119.5 C92,124.747373 87.52355,129 82,129 C76.4777475,129 72,124.747373 72,119.5 C72,114.25386 76.4777475,110 82,110 C87.52355,110 92,114.25386 92,119.5"/>
    <use fill="#000" filter="url(#ai-behaviour-ans-a)" xlink:href="#ai-behaviour-ans-b"/>
    <use fill="#FFF" xlink:href="#ai-behaviour-ans-b"/>
    <path fill="url(#ai-behaviour-ans-c)" d="M105.798789,52.1262415 C104.197175,50.6245862 101.602271,50.6245862 100.000657,52.1262415 C98.3990427,50.6245862 95.8028248,50.6245862 94.2012106,52.1262415 C92.5995965,53.6278968 92.5995965,56.0620814 94.2012106,57.5625048 L100.000657,63 L105.798789,57.5625048 C107.400404,56.0620814 107.400404,53.6278968 105.798789,52.1262415"/>
    <use fill="#000" filter="url(#ai-behaviour-ans-d)" xlink:href="#ai-behaviour-ans-e"/>
    <use fill="#FFF" xlink:href="#ai-behaviour-ans-e"/>
    <path fill="url(#ai-behaviour-ans-c)" d="M15.5 97C13.5667826 97 12 98.5932161 12 100.557811L12 102 19 102 19 100.557811C19 98.5932161 17.4332174 97 15.5 97M17 96C18.104773 96 19 95.1038697 19 93.9994181 19 92.8961303 18.104773 92 17 92 15.895227 92 15 92.8961303 15 93.9994181 15 95.1038697 15.895227 96 17 96"/>
    <use fill="#000" filter="url(#ai-behaviour-ans-f)" xlink:href="#ai-behaviour-ans-g"/>
    <use fill="#FFF" xlink:href="#ai-behaviour-ans-g"/>
    <path fill="url(#ai-behaviour-ans-c)" d="M167.320972,71.5068905 C167.750689,70.7689802 168,69.9145578 168,69 C168,66.2387873 165.761213,64 163,64 C160.238787,64 158,66.2387873 158,69 C158,71.7612127 160.238787,74 163,74 C163.913305,74 164.76898,73.7506891 165.506891,73.3209722 L168,74 L167.320972,71.5068905 Z"/>
    <use fill="#000" filter="url(#ai-behaviour-ans-h)" xlink:href="#ai-behaviour-ans-i"/>
    <use fill="#FFF" xlink:href="#ai-behaviour-ans-i"/>
    <mask id="ai-behaviour-ans-k" fill="#fff">
      <use xlink:href="#ai-behaviour-ans-j"/>
    </mask>
    <path fill="#26C6DA" d="M40.6057411,46 L36.3955282,46 C33.9686585,46 32,47.8160516 32,50.056239 L32,52 L45,52 L45,50.056239 C45,47.8160516 43.0326108,46 40.6057411,46" mask="url(#ai-behaviour-ans-k)"/>
    <polygon fill="#EEE" points="32 50.634 45 50.634 45 50 32 50"/>
    <path fill="#EEE" d="M45 48.634L32 48.634C32.0267306 48.416 32.0801919 48.205 32.1565652 48L44.8434348 48C44.921081 48.205 44.9732694 48.416 45 48.634M44 47.632L32 47.632C32.1732945 47.403 32.3827999 47.192 32.6207565 47L43.3805367 47C43.6172001 47.192 43.8267055 47.403 44 47.632"/>
    <path fill="#00ACC1" d="M42,46.2207048 C41.7095649,47.8343612 40.2419681,49 38.4980723,49 C36.7580319,49 35.28915,47.8343612 35,46.2207048 C35.4317973,46.0792952 35.8892969,46 36.3673582,46 L40.6326418,46 C41.1107031,46 41.5682027,46.0792952 42,46.2207048"/>
    <path fill="#FBCBBD" d="M41,46.0482069 C40.8073818,46.0199882 40.6124567,46 40.4129181,46 L36.5870819,46 C36.3863899,46 36.1914648,46.0199882 36,46.0482069 C36.1868512,47.1534392 37.2329873,48 38.4994233,48 C39.7658593,48 40.8119954,47.1534392 41,46.0482069"/>
    <path fill="#424242" d="M38,29 C34.1343643,29 31,32.2362929 31,36.2304125 L31,36.7695875 C31,40.7637071 34.1343643,44 38,44 C41.8668385,44 45,40.7637071 45,36.7695875 L45,36.2304125 C45,32.2362929 41.8668385,29 38,29"/>
    <polygon fill="#FBCBBD" points="36 46 39 46 39 42 36 42"/>
    <path fill="#F9AA92" d="M36,44.7613636 C36.4794107,44.9161932 36.9814885,45 37.4994333,45 C38.0173782,45 38.5217227,44.9161932 39,44.7613636 L39,42 L36,42 L36,44.7613636 Z"/>
    <path fill="#FBCBBD" d="M44,36.5 C44,37.328654 44.671346,38 45.5,38 C46.328654,38 47,37.328654 47,36.5 C47,35.671346 46.328654,35 45.5,35 C44.671346,35 44,35.671346 44,36.5"/>
    <path fill="#F9AA92" d="M44,37 C44,37.5517751 44.4482249,38 45,38 C45.5532544,38 46,37.5517751 46,37 C46,36.4482249 45.5532544,36 45,36 C44.4482249,36 44,36.4482249 44,37"/>
    <path fill="#FBCBBD" d="M33,36.5 C33,37.328654 32.328654,38 31.5,38 C30.671346,38 30,37.328654 30,36.5 C30,35.671346 30.671346,35 31.5,35 C32.328654,35 33,35.671346 33,36.5"/>
    <path fill="#F9AA92" d="M33,37 C33,37.5517751 32.5532544,38 32,38 C31.4482249,38 31,37.5517751 31,37 C31,36.4482249 31.4482249,36 32,36 C32.5532544,36 33,36.4482249 33,37"/>
    <path fill="#FBCBBD" d="M37.5,29 C33.9106872,29 31,32.0031044 31,35.7092255 L31,38.2920481 C31,41.9968956 33.9106872,45 37.5,45 C41.0893128,45 44,41.9968956 44,38.2920481 L44,35.7092255 C44,32.0031044 41.0893128,29 37.5,29"/>
    <path fill="#424242" d="M31 35L31 38.4576507C31 38.7574068 31.174 39 31.388 39 31.602 39 31.775 38.7574068 31.775 38.4576507L31.775 35 31 35zM44.775 34.1325545L44.775 37.4756235C44.775 37.765446 44.601 38 44.387 38 44.172 38 44 37.765446 44 37.4756235L44 32 44.775 34.1325545zM36.6701203 27C33.951621 27 31.6266711 29.7165858 31.1516544 32.2027158L31 33 40.514121 33C43.5447025 33 46 29.814355 46 27L36.6701203 27z"/>
    <use fill="#000" filter="url(#ai-behaviour-ans-l)" xlink:href="#ai-behaviour-ans-m"/>
    <use fill="#FFF" xlink:href="#ai-behaviour-ans-m"/>
    <mask id="ai-behaviour-ans-o" fill="#fff">
      <use xlink:href="#ai-behaviour-ans-n"/>
    </mask>
    <path fill="#5D4037" d="M133.266333,26 L128.733667,26 C126.1194,26 124,28.1183206 124,30.7328244 L124,33 L138,33 L138,30.7328244 C138,28.1183206 135.8806,26 133.266333,26" mask="url(#ai-behaviour-ans-o)"/>
    <polygon fill="#00897B" points="129 33 134 33 134 26 129 26"/>
    <path fill="#424242" d="M130.999373,6 C126.582033,6 123,9.51544203 123,13.8530439 L123,16.1469561 C123,20.4833253 126.582033,24 130.999373,24 C135.417967,24 139,20.4833253 139,16.1469561 L139,13.8530439 C139,9.51544203 135.417967,6 130.999373,6"/>
    <polygon fill="#F9AA92" points="129 26 133 26 133 22 129 22"/>
    <path fill="#F58967" d="M129,24.7621145 C129.638313,24.9167401 130.308963,25 131.000703,25 C131.691037,25 132.361687,24.9167401 133,24.7621145 L133,22 L129,22 L129,24.7621145 Z"/>
    <path fill="#F9AA92" d="M137,16.5005763 C137,17.328083 137.671659,18 138.5,18 C139.328341,18 140,17.328083 140,16.5005763 C140,15.671917 139.328341,15 138.5,15 C137.671659,15 137,15.671917 137,16.5005763"/>
    <path fill="#F58967" d="M138,16.0006882 C138,16.5512732 138.44735,17 139.000688,17 C139.55265,17 140,16.5512732 140,16.0006882 C140,15.4487268 139.55265,15 139.000688,15 C138.44735,15 138,15.4487268 138,16.0006882"/>
    <path fill="#F9AA92" d="M126,16.5005763 C126,17.328083 125.328341,18 124.5,18 C123.671659,18 123,17.328083 123,16.5005763 C123,15.671917 123.671659,15 124.5,15 C125.328341,15 126,15.671917 126,16.5005763"/>
    <path fill="#F58967" d="M125,16.0006882 C125,16.5512732 124.55265,17 123.999312,17 C123.44735,17 123,16.5512732 123,16.0006882 C123,15.4487268 123.44735,15 123.999312,15 C124.55265,15 125,15.4487268 125,16.0006882"/>
    <path fill="#F9AA92" d="M131.000618,7 C127.134199,7 124,10.1911993 124,14.1279354 L124,16.8720646 C124,20.8088007 127.134199,24 131.000618,24 C134.865801,24 138,20.8088007 138,16.8720646 L138,14.1279354 C138,10.1911993 134.865801,7 131.000618,7"/>
    <path fill="#424242" d="M124 14L124 16.4462151C124 16.752988 124.187 17 124.417 17 124.647 17 124.834 16.752988 124.834 16.4462151L124.834 14 124 14zM138.834 14L138.834 16.4462151C138.834 16.752988 138.647 17 138.417 17 138.187 17 138 16.752988 138 16.4462151L138 14 138.834 14zM133.031221 7L129.968779 7C126.671546 7 124 9.68622449 124 13L133.734326 13 134.85371 11.1645408 135.970556 13 139 13C139 9.68622449 136.328454 7 133.031221 7"/>
    <path fill="#F9AA92" d="M129,26.9628009 C129.540853,27.5864333 130.469681,28 131.526978,28 C132.550874,28 133.452724,27.6126915 134,27.0218818 L134,26.0065646 C133.938335,26.0043764 133.877955,26 133.815005,26 L129.237667,26 C129.156732,26 129.079651,26.0043764 129,26.0087527 L129,26.9628009 Z"/>
  </g>
</svg>
