<svg xmlns="http://www.w3.org/2000/svg" xmlns:xlink="http://www.w3.org/1999/xlink" width="410" height="347" viewBox="0 0 410 347">
  <defs>
    <linearGradient id="ai-precampaign-landing-a" x1="0%" y1="50%" y2="50%">
      <stop offset="0%" stop-color="#FC4A1A"/>
      <stop offset="100%" stop-color="#F7B733"/>
    </linearGradient>
    <polygon id="ai-precampaign-landing-b" points="0 19.329 0 .08 73.086 .08 73.086 19.329"/>
    <polygon id="ai-precampaign-landing-d" points=".04 .089 44.86 .089 44.86 50.35 .04 50.35 .04 .089"/>
  </defs>
  <g fill="none" fill-rule="evenodd">
    <polygon fill="#212121" points="65 253 332 253 332 54 65 54"/>
    <polygon fill="#314656" points="76 229 317 229 317 83 76 83"/>
    <g transform="translate(133 89)">
      <path fill="#809EAD" d="M50.8627131,41.249311 L70.9898648,46.6292801 L63.4637756,7.72542434 L50.8627131,41.249311 Z M9.38648845,30.6361659 L36.061465,79.3311251 L50.2590258,41.5612464 L9.38648845,30.6361659 Z M71.5753687,47.2604907 L81.2361833,97.195852 L116.568253,59.2865198 L71.5753687,47.2586557 L71.5753687,47.2604907 Z M80.9597963,98.1610169 L80.8761529,97.7224724 L71.0862365,47.1302117 L50.7008812,41.6805159 L36.1378351,80.4192293 L8.47368421,29.9187144 L50.4208576,41.1318765 L63.6037874,6.05932203 L71.4789969,46.759559 L117.421053,59.0406413 L117.159212,59.3213832 L80.9597963,98.1610169 Z"/>
      <path fill="#809EAD" d="M8.75845745,29.4560423 L8.38448855,29.6153657 L77.3625977,79.1411095 L60.0797614,88.3580548 L36.0034606,78.8810646 L2.42105263,126.544374 L60.1089492,88.861663 L80.9946567,97.0823798 L74.0406592,141.788136 L74.5021916,141.788136 L81.4744314,96.9725016 L81.5036193,96.7912027 L60.6379784,88.5796424 L78.2254625,79.1960486 L9.3093775,29.7179186 L63.578651,6.59955626 L117.103635,58.6616541 L117.421053,58.3320196 L63.7866142,6.16370627 L63.6771599,6.05932203 L8.75845745,29.4560423 Z M36.2095996,79.4542623 L59.548908,88.6419067 L3.55572903,125.421785 L36.2095996,79.4542623 Z"/>
      <path fill="#809EAD" d="M4.41889835,85.2905874 L3.63157895,85.776141 L4.60072732,85.6607075 L39.9373678,100.839294 L74.6430618,143 L74.9921734,142.706836 L40.2501136,100.503988 L40.2155661,100.463678 L5.50987213,85.5526031 L105.315789,73.7545682 L58.5275609,52.5514528 L90.4130877,32.9442512 L90.1785284,32.5539761 L58.0238947,52.3242504 L9.41737652,30.2966102 L4.41889835,85.2905874 Z M9.81012708,30.9763851 L57.5565943,52.6155826 L4.90256339,84.9937585 L9.81012708,30.9763851 Z M58.0566239,52.8409527 L103.630235,73.4925525 L5.63897069,85.076211 L58.0566239,52.8409527 Z"/>
      <g fill="#FFF">
        <path d="M137.873258 72.0850881C137.878705 71.9651136 137.880521 71.845139 137.873258 71.7251644L137.873258 50.4478551 119.0181 50.4478551 119.0181 69.0548212C117.977653 68.385872 116.561337 68.091389 115.076021 68.3422449 112.3596 68.8039653 110.451205 70.9162449 110.816179 73.0594271 111.179337 75.2026093 113.676047 76.5659568 116.392468 76.1042364 118.6731 75.7188636 120.378126 74.1664653 120.652311 72.4086559L120.686811 72.4086559 120.686811 72.0850881C120.694074 71.9651136 120.694074 71.845139 120.686811 71.7251644L120.686811 55.8994271 136.204547 55.8994271 136.204547 69.0548212C135.162284 68.385872 133.747784 68.091389 132.260653 68.3422449 129.546047 68.8039653 127.637653 70.9162449 128.000811 73.0594271 128.365784 75.2026093 130.862495 76.5659568 133.5771 76.1042364 135.859547 75.7188636 137.562758 74.1664653 137.836942 72.4086559L137.873258 72.4086559 137.873258 72.0850881zM80.8603737 93.8097572C77.6173737 93.8097572 74.9881105 91.1775877 74.9881105 87.9291852 74.9881105 84.6826004 77.6173737 82.0486131 80.8603737 82.0486131 84.1051895 82.0486131 86.7344526 84.6826004 86.7344526 87.9291852 86.7344526 91.1775877 84.1051895 93.8097572 80.8603737 93.8097572M80.8603737 80.4035072C76.7094789 80.4035072 73.3430053 83.7737021 73.3430053 87.9291852 73.3430053 92.086486 80.8603737 104.087579 80.8603737 104.087579 80.8603737 104.087579 88.3795579 92.086486 88.3795579 87.9291852 88.3795579 83.7737021 85.0130842 80.4035072 80.8603737 80.4035072M67.9032632 49.3900792L67.8978158 49.3900792C67.5818684 49.3900792 67.2967895 48.9374479 67.1842105 48.641147 65.5972105 44.4620326 61.5588947 41.357236 56.8251316 41.357236 50.7077368 41.357236 45.7506316 46.2543801 45.7506316 52.3803547 45.7506316 52.7221004 45.7651579 53.0274903 45.7960263 53.3619648 45.8141842 53.5710114 45.7433684 53.7582445 45.6053684 53.9163928 44.5031842 55.1524945 43.8331579 56.7739691 43.8331579 58.5626809 43.8331579 58.7153758 43.8386053 59.1534648 43.8495 59.3043419 43.8767368 59.6988038 44.2053947 60.2914055 44.6030526 60.2914055L75.2880789 60.2914055C75.6367105 60.2914055 75.9417632 59.7660623 76.0216579 59.4261343 76.1687368 58.8080835 76.2468158 58.2845581 76.2468158 57.6192445 76.2468158 53.0074945 72.5099211 49.3900792 67.9032632 49.3900792M5.73026842 43.5514983C5.73026842 45.1366169 4.44832105 46.4163458 2.86313684 46.4163458 1.2834 46.4163458-.000363157895 45.1366169-.000363157895 43.5514983-.000363157895 41.9718331 1.2834 40.6775619 2.86313684 40.6775619 4.44832105 40.6775619 5.73026842 41.9718331 5.73026842 43.5514983M14.0467658 46.2551072L10.2771868 46.2551072C10.2263447 43.5629504 9.16410789 41.0434843 7.26660789 39.1420691 5.36729211 37.2370182 2.85968684 36.1681538.185028947 36.1172555L.185028947 32.3562343C7.78410789 32.4598487 13.9432658 38.6367216 14.0467658 46.2551072"/>
        <path d="M21.3843711 46.2551072L17.6220553 46.2551072C17.5185553 36.6571411 9.75787105 28.8678826.192292105 28.7642682L.192292105 25.003247C11.8315026 25.1086792 21.2808711 34.5830352 21.3843711 46.2551072M78.8299579 3.74720593C78.7954579 3.69267203 78.7791158 3.63813814 78.7591421 3.58542203 78.7845632 3.45454068 78.6846947 3.18550678 78.6483789 3.02735847 78.5920895 2.77104915 78.4413789 2.5329178 78.2652474 2.34204915 77.9039053 1.94940508 77.3628 1.58584576 76.8743526 1.39315932 75.9283263 1.01869322 74.8261421.762383898 73.8220105.924167797 73.5714316.964159322 73.0920632 1.24046441 72.9395368 1.24046441L70.9094842 1.24046441C70.8985895 1.24046441 70.8913263 1.41133729 70.8840632 1.41679068 70.8768 1.42224407 70.8713526 1.58584576 70.8713526 1.58584576 70.5790105 1.80761695 70.0379053 2.14936271 69.6711158 2.14936271L68.4599842 2.14936271C68.1549316 2.14936271 67.7300368 1.94395169 67.4268 1.77307881 67.3668789 1.73854068 67.3087737 1.50586271 67.2597474 1.46950678 67.2597474 1.46950678 67.2452211 1.24046441 67.2179842 1.24046441L65.2678263 1.24046441C65.1153 1.24046441 64.6395632.964159322 64.3871684.924167797 63.3830368.762383898 62.2808526.940527966 61.3348263 1.31317627 60.8463789 1.50768051 60.3052737 1.90941356 59.9439316 2.30387542 59.7678 2.49292627 59.6152737 2.75105339 59.5608 3.00736271 59.5408263 3.09825254 59.5553526 3.23276949 59.5916684 3.34729068 56.7953526 8.20444322 57.9501947 13.3869814 57.9501947 13.3869814 58.0573263 14.0486593 58.2879316 14.5994517 58.6565368 14.9702822 59.0051684 15.7501169 59.6406947 16.2154729 60.6194053 16.133672 61.9304053 16.0246042 64.7830105 12.5926042 64.7830105 12.5926042 65.0172474 12.3108458 65.5093263 12.0799856 65.8761158 12.0799856L73.1320105 12.0781678C73.4988 12.0781678 73.9926947 12.309028 74.2287474 12.5926042 74.2287474 12.5926042 77.0777211 16.0227864 78.3941684 16.133672 79.7088 16.2445576 80.4096947 15.3665619 80.6185105 14.0504771 80.6185105 14.0504771 81.8296421 8.68070593 78.8299579 3.74720593M96.9825868 35.1014708C96.9862184 35.1251021 96.9880342 35.1487335 96.9880342 35.1741826L96.9880342 39.9604411C96.9880342 40.2003903 96.7919289 40.3985301 96.5522447 40.3985301 96.3107447 40.3985301 96.1128237 40.2003903 96.1128237 39.9604411L96.1128237 35.1741826C96.1128237 35.1487335 96.1164553 35.1251021 96.1200868 35.1014708L94.8381395 35.1014708C94.8417711 35.1251021 94.8454026 35.1487335 94.8454026 35.1741826L94.8454026 39.9604411C94.8454026 40.2003903 94.6492974 40.3985301 94.4077974 40.3985301 94.1681132 40.3985301 93.9720079 40.2003903 93.9720079 39.9604411L93.9720079 35.1741826C93.9720079 35.1487335 93.9738237 35.1251021 93.9774553 35.1014708L92.6955079 35.1014708C92.7009553 35.1251021 92.7027711 35.1487335 92.7027711 35.1741826L92.7027711 39.9604411C92.7027711 40.2003903 92.50485 40.3985301 92.26335 40.3985301 92.0254816 40.3985301 91.8275605 40.2003903 91.8275605 39.9604411L91.8275605 35.1741826C91.8275605 35.1487335 91.8293763 35.1251021 91.8348237 35.1014708L90.5528763 35.1014708C90.5565079 35.1251021 90.5583237 35.1487335 90.5583237 35.1741826L90.5583237 39.9604411C90.5583237 40.2003903 90.3622184 40.3985301 90.1225342 40.3985301 89.8810342 40.3985301 89.6831132 40.2003903 89.6831132 39.9604411L89.6831132 35.1741826C89.6831132 35.1487335 89.6867447 35.1251021 89.6903763 35.1014708L88.4084289 35.1014708C88.4120605 35.1251021 88.4156921 35.1487335 88.4156921 35.1741826L88.4156921 39.9604411C88.4156921 40.2003903 88.2195868 40.3985301 87.9780868 40.3985301 87.7384026 40.3985301 87.5422974 40.2003903 87.5422974 39.9604411L87.5422974 35.1741826C87.5422974 35.1487335 87.5441132 35.1251021 87.5477447 35.1014708L86.2676132 35.1014708C86.2712447 35.1251021 86.2730605 35.1487335 86.2730605 35.1741826L86.2730605 39.9604411C86.2730605 40.2003903 86.0751395 40.3985301 85.8354553 40.3985301 85.5957711 40.3985301 85.39785 40.2003903 85.39785 39.9604411L85.39785 35.1741826C85.39785 35.1487335 85.4014816 35.1251021 85.4051132 35.1014708L83.1862184 35.1014708 84.5389816 40.4039835C84.6570079 40.8657038 85.0710079 41.1892716 85.5467447 41.1892716L96.8391395 41.1892716C97.3148763 41.1892716 97.7288763 40.8657038 97.8487184 40.4039835L99.2014816 35.1014708 96.9825868 35.1014708z"/>
        <path d="M99.8126763,34.9613186 C99.9942553,34.3014585 99.4604132,33.6615941 98.7304658,33.6615941 L83.6503342,33.6615941 C82.9203868,33.6615941 82.3865447,34.3014585 82.5681237,34.9613186 L82.6044395,35.1031068 L99.7745447,35.1031068 L99.8126763,34.9613186 Z"/>
        <path d="M96.1614868 34.4367025C96.1542237 34.4385203 96.1469605 34.4367025 96.1433289 34.4312492L91.9270658 26.5601898C91.7799868 26.2857025 91.5058026 26.1202831 91.1934868 26.1202831 90.8811711 26.1202831 90.6069868 26.2857025 90.4580921 26.5601898L86.2418289 34.4312492C86.2381974 34.4367025 86.2309342 34.4385203 86.2254868 34.4367025L85.9476711 34.2876432C85.9422237 34.2840076 85.9385921 34.2767364 85.9422237 34.2694653L90.1403289 26.4365797C90.3654868 26.0166686 90.8121711 25.7476347 91.2842763 25.7839907 91.6855658 25.8130754 92.0341974 26.0384822 92.2266711 26.4002237L96.4429342 34.2694653C96.4465658 34.2767364 96.44475 34.2840076 96.4374868 34.2876432L96.1614868 34.4367025zM15.0165789 89.8093322C14.3465526 89.8093322 13.7237368 90.0056542 13.1953421 90.3401288L8.23278947 85.7247432C8.487 85.2466627 8.63226316 84.6995059 8.63226316 84.1196288 8.63226316 83.5379339 8.487 82.9925949 8.23278947 82.5126966L13.1953421 77.897311C13.7237368 78.2317856 14.3465526 78.4299254 15.0165789 78.4299254 16.8977368 78.4299254 18.423 76.9011585 18.423 75.0179212 18.423 73.1346839 16.8977368 71.6077347 15.0165789 71.6077347 13.1354211 71.6077347 11.6101579 73.1346839 11.6101579 75.0179212 11.6101579 75.5996161 11.7554211 76.1449551 12.0114474 76.6248534L7.04707895 81.240239C6.5205 80.9057644 5.89768421 80.7094424 5.22584211 80.7094424 3.34468421 80.7094424 1.81942105 82.2345737 1.81942105 84.1196288 1.81942105 86.0028661 3.34468421 87.5298153 5.22584211 87.5298153 5.89768421 87.5298153 6.5205 87.3334932 7.04707895 86.9990186L12.0114474 91.6144042C11.7554211 92.0924847 11.6101579 92.6396415 11.6101579 93.2195186 11.6101579 95.1045737 13.1354211 96.6315229 15.0165789 96.6315229 16.8977368 96.6315229 18.423 95.1045737 18.423 93.2195186 18.423 91.3362814 16.8977368 89.8093322 15.0165789 89.8093322"/>
      </g>
    </g>
    <g transform="translate(76 60)">
      <polygon fill="#F6F4F4" points="194.89 16.841 213.699 16.841 213.699 .195 194.89 .195"/>
      <polygon fill="#212121" points="196.061 15.017 212.527 15.017 212.527 3.342 196.061 3.342"/>
      <polygon fill="#F6F4F4" points="237.965 13.9 235.947 15.922 224.137 4.092 226.155 2.07"/>
      <polygon fill="#F6F4F4" points="224.137 13.9 226.155 15.922 237.965 4.092 235.947 2.07"/>
      <polygon fill="#F6F4F4" points=".147 189.068 4.821 189.068 4.821 176.104 .147 176.104"/>
      <polygon fill="#F6F4F4" points="7.035 189.068 11.71 189.068 11.71 176.104 7.035 176.104"/>
      <polygon fill="#F6F4F4" points="14.268 184.779 238.835 184.779 238.835 180.294 14.268 180.294"/>
      <polygon fill="#F6F4F4" points="202.995 189.98 208.769 189.98 208.769 176.705 202.995 176.705"/>
    </g>
    <g transform="translate(0 18)">
      <path fill="#5B6375" d="M66.2771207,1.31304212 C66.4419719,1.31270921 66.5771475,1.44054779 66.577498,1.59712787 L66.5811199,3.28133468 C66.5814704,3.43791475 66.4468789,3.5663082 66.2820276,3.56664111 C66.1171764,3.56697402 65.9821176,3.43913544 65.9817671,3.28255536 L65.9780284,1.59823758 C65.9776779,1.44176847 66.1122694,1.31337503 66.2771207,1.31304212"/>
      <path fill="url(#ai-precampaign-landing-a)" d="M116.996565,43.9946068 C116.996565,68.2842714 97.3374631,87.9760747 73.0857784,87.9760747 C48.8337614,87.9760747 29.1742159,68.2842714 29.1742159,43.9946068 C29.1742159,19.7047203 48.8337614,0.0134718789 73.0857784,0.0134718789 C97.3374631,0.0134718789 116.996565,19.7047203 116.996565,43.9946068"/>
      <path fill="#FFF" d="M103.938291,43.9946068 C103.938291,61.0607253 90.1248673,74.8965892 73.0854128,74.8965892 C56.0458474,74.8965892 42.2326457,61.0607253 42.2326457,43.9946068 C42.2326457,26.9282663 56.0458474,13.0926245 73.0854128,13.0926245 C90.1248673,13.0926245 103.938291,26.9282663 103.938291,43.9946068"/>
      <path fill="url(#ai-precampaign-landing-a)" d="M94.8644199,43.9944515 C94.8644199,56.0414628 85.1138659,65.8082421 73.0854682,65.8082421 C61.0574028,65.8082421 51.3066273,56.0414628 51.3066273,43.9944515 C51.3066273,31.9473291 61.0574028,22.1808827 73.0854682,22.1808827 C85.1138659,22.1808827 94.8644199,31.9473291 94.8644199,43.9944515"/>
      <path fill="#FFF" d="M83.4735392,43.9946623 C83.4735392,49.7408515 78.8224568,54.39897 73.0858006,54.39897 C67.348258,54.39897 62.6976188,49.7408515 62.6976188,43.9946623 C62.6976188,38.2484731 67.348258,33.5903546 73.0858006,33.5903546 C78.8224568,33.5903546 83.4735392,38.2484731 83.4735392,43.9946623"/>
      <g transform="translate(0 34.29)">
        <mask id="ai-precampaign-landing-c" fill="#fff">
          <use xlink:href="#ai-precampaign-landing-b"/>
        </mask>
        <path fill="#DEE3E0" d="M0.98668892,1.61501639 L4.2704446,7.62853468 C3.81407813,8.16630013 3.53775426,8.8619773 3.53952699,9.62312736 C3.54085653,10.1957377 3.70128835,10.7296192 3.97462074,11.1880404 L0.23206108,17.1379723 C-0.281586648,17.9526103 0.0869190341,18.6496192 1.04541051,18.6881261 L17.2114645,19.3277629 C18.1719503,19.3653821 19.4396719,18.7739067 20.0301009,18.0133115 L24.6051776,12.1004439 L70.0197912,10.6111021 C71.7135213,10.6074401 73.0889361,11.1698411 73.0855014,9.47198487 C73.081956,7.77412863 71.7084247,8.34285498 70.0141406,8.34640605 L25.1386577,7.07012863 L21.6276605,1.56308197 C21.1115753,0.751551072 19.9029077,0.0871677175 18.9415355,0.0868348045 L1.89521165,0.0796216898 C0.935058239,0.0795107188 0.525115057,0.77030517 0.98668892,1.61501639" mask="url(#ai-precampaign-landing-c)"/>
      </g>
      <path fill="#A0A1A2" d="M3.53948267,43.9131097 C3.54081222,44.485831 3.70124403,45.0197125 3.97457642,45.4781337 L0.232127557,51.4279546 C-0.28152017,52.2425927 0.0868747159,52.9397125 1.04547699,52.9781084 L17.211531,53.6178562 C18.171906,53.6554754 19.4396276,53.063889 20.0300565,52.3034048 L24.605244,46.3904262 L70.0197469,44.9010845 C71.6742554,44.8975334 73.024298,45.4329685 73.082798,43.8751576 L3.5484571,43.7067037 C3.54402528,43.7751728 3.53937188,43.8435309 3.53948267,43.9131097"/>
    </g>
    <g transform="translate(294 98)">
      <path fill="url(#ai-precampaign-landing-a)" d="M81.6732315,30.2722906 L99.6764756,30.2722906 C108.653972,30.2722906 115.954481,37.6432231 115.954481,46.6845364 L115.954481,47.7847733 C115.954481,56.8259757 108.653972,64.1669532 99.6764756,64.1669532 L93.8495962,64.1669532 L97.5042021,73.9027793 L83.5807871,64.1669532 L81.6732315,64.1669532 C72.6957349,64.1669532 65.4067928,56.8259757 65.4067928,47.7847733 L65.4067928,46.6845364 C65.4067928,37.6432231 72.6957349,30.2722906 81.6732315,30.2722906"/>
      <path fill="url(#ai-precampaign-landing-a)" d="M60.395714,45.4728336 C60.395714,42.9154513 60.8971689,40.4306267 61.8860881,38.0873673 C62.8394253,35.8286477 64.2022325,33.7991394 65.9368346,32.0553133 C67.6706655,30.3121529 69.6881622,28.9427646 71.9331423,27.9849805 C74.0851461,27.0669145 76.356675,26.5676642 78.6935297,26.4974363 L78.6935297,25.5061469 C78.6935297,11.4701109 67.3021755,0.0330614693 53.3653208,0.0330614693 L25.4161508,0.0330614693 C11.4791859,0.0330614693 0.0879418803,11.4701109 0.0879418803,25.5061469 L0.0879418803,27.2141379 C0.0879418803,41.2501739 11.4791859,52.741919 25.4161508,52.741919 L34.4620577,52.741919 L28.7885231,67.8562249 L50.4037406,52.741919 L53.3653208,52.741919 C56.0414727,52.741919 58.6234367,52.3177781 61.0491916,51.5337331 C60.6149352,49.924039 60.395714,48.2637541 60.395714,46.5730705 L60.395714,45.4728336 Z"/>
      <path fill="#FFF" d="M24.7093219 25.3506471C24.7093219 28.1477805 22.4578424 30.4152648 19.6805622 30.4152648 16.9031719 30.4152648 14.6515821 28.1477805 14.6515821 25.3506471 14.6515821 22.5536246 16.9031719 20.2860294 19.6805622 20.2860294 22.4578424 20.2860294 24.7093219 22.5536246 24.7093219 25.3506471M42.4143369 25.3506471C42.4143369 28.1477805 40.1628574 30.4152648 37.3855772 30.4152648 34.6081869 30.4152648 32.3565972 28.1477805 32.3565972 25.3506471 32.3565972 22.5536246 34.6081869 20.2860294 37.3855772 20.2860294 40.1628574 20.2860294 42.4143369 22.5536246 42.4143369 25.3506471M60.1193409 25.3506471C60.1193409 28.1477805 57.8678613 30.4152648 55.0905812 30.4152648 52.3131909 30.4152648 50.0616011 28.1477805 50.0616011 25.3506471 50.0616011 22.5536246 52.3131909 20.2860294 55.0905812 20.2860294 57.8678613 20.2860294 60.1193409 22.5536246 60.1193409 25.3506471"/>
    </g>
    <g transform="translate(201)">
      <g transform="translate(.578)">
        <mask id="ai-precampaign-landing-e" fill="#fff">
          <use xlink:href="#ai-precampaign-landing-d"/>
        </mask>
        <path fill="url(#ai-precampaign-landing-a)" d="M44.860457,22.7205854 C44.860457,10.2218269 34.8271097,0.0892728682 22.4504017,0.0892728682 C10.0733628,0.0892728682 0.039574406,10.2218269 0.039574406,22.7205854 C0.039574406,31.575251 5.07648745,39.2407997 12.4136353,42.9585163 L12.4136353,48.1285459 C12.4136353,49.3558668 13.3638401,50.3496192 14.5361823,50.3496192 L31.0859607,50.3496192 C32.2583028,50.3496192 33.2088386,49.3558668 33.2088386,48.1285459 L33.2088386,42.5771435 C40.1525586,38.7323398 44.860457,31.2822043 44.860457,22.7205854" mask="url(#ai-precampaign-landing-e)"/>
      </g>
      <polygon fill="#FFF" points="12.992 65.419 33.741 65.419 33.741 44.917 12.992 44.917"/>
      <path fill="#FC581D" d="M11.9404617 64.7148544C12.758421 68.9470455 17.5366886 72.1962884 23.3110445 72.1962884 29.0855106 72.1962884 33.8642194 68.9470455 34.6819581 64.7148544L11.9404617 64.7148544zM37.4486922 46.7946544C37.4486922 47.8318458 36.2995123 48.6717793 34.8819809 48.6717793L11.9412889 48.6717793C10.5235369 48.6717793 9.37424676 47.8318458 9.37424676 46.7946544 9.37424676 45.7579085 10.5235369 44.9171953 11.9412889 44.9171953L34.8819809 44.9171953C36.2995123 44.9171953 37.4486922 45.7579085 37.4486922 46.7946544M37.3484106 53.0893885C37.3484106 54.1265799 36.199341 54.9665134 34.7816993 54.9665134L11.8410073 54.9665134C10.4232553 54.9665134 9.27396513 54.1265799 9.27396513 53.0893885 9.27396513 52.0526425 10.4232553 51.211818 11.8410073 51.211818L34.7816993 51.211818C36.199341 51.211818 37.3484106 52.0526425 37.3484106 53.0893885M35.0214619 61.6219812L12.08077 61.6219812C10.663018 61.6219812 9.51372779 60.7820477 9.51372779 59.7448562 9.51372779 58.7081103 10.663018 57.8673971 12.08077 57.8673971L35.0214619 57.8673971C36.4391036 57.8673971 37.5881732 58.7081103 37.5881732 59.7448562 37.5881732 60.7820477 36.4391036 61.6219812 35.0214619 61.6219812z"/>
    </g>
    <g transform="translate(69 152)">
      <path fill="#DFB177" d="M2.1540158,31.595203 C2.52579318,31.8228044 2.90914686,32.0212915 3.33546643,32.1360886 C3.80285961,32.2623985 3.9205149,32.9997786 3.53894219,33.3519188 C2.89534434,33.9491513 2.53748079,34.7059041 2.3809781,35.5483395 C2.09346284,37.0909594 2.69197989,38.3242804 3.83246822,39.3339852 C4.2998614,39.7463469 4.82981113,40.0712546 5.40695655,40.3182288 C6.00948079,40.5750554 6.13270162,41.378524 5.63770341,41.8006273 C4.50322585,42.7654982 4.17463698,44.1234686 4.76936948,45.5707749 C5.25234614,46.7457565 6.02506427,47.6893727 7.16154542,48.3060886 C7.31237127,48.387786 7.47644309,48.4518819 7.63895655,48.5044649 C8.04178959,48.6348708 8.20218815,48.8177491 8.23547002,49.2358672 C8.25895655,49.5451661 8.16890628,49.8001107 7.91856876,50.0159779 C7.30034973,50.5492251 6.85644309,51.1968266 6.74891706,52.0237638 C6.66676984,52.6559779 6.7956675,53.2571956 7.0678219,53.8309594 C7.47855799,54.6986347 8.10056158,55.3989299 8.82630664,56.0136531 C9.16391167,56.3005904 10.0536172,56.7451661 10.7381774,57.040738 C11.1164108,57.2041328 12.2691433,57.4452399 12.6093084,57.5139852 C29.4045185,60.9071956 41.2011038,56.5120295 42.7020158,55.9709225 C43.0180266,55.8570111 44.0634557,55.1830627 44.347075,55.1811808 C44.3960517,55.1811808 44.7480158,55.0954982 44.7480158,55.0507749 L44.7480158,30.0408487 C44.1221163,29.6031365 43.4963282,29.1634317 42.8682025,28.7257196 C42.8055346,28.6828782 42.7527734,28.6342804 42.7020158,28.5801476 C42.6825364,28.5603321 42.6649494,28.5389668 42.647251,28.5157196 C39.3120517,24.3448339 37.1688776,19.9123616 34.6825329,15.1937269 C33.021111,12.0406273 32.6029171,5.30889299 32.6181666,2.77250923 C32.6242887,1.75771218 31.8534628,0.0956457565 29.8549925,0.0956457565 C29.3500876,0.105055351 28.2983138,0.134612546 27.6631756,0.366199262 C26.908935,0.641512915 26.2671181,1.61911439 25.6236316,2.87402214 C24.7469494,4.58313653 24.1927339,6.43516605 23.6711325,8.289631 C23.4753372,8.98571956 23.311154,9.69232472 23.2056316,10.4061255 C23.1291612,10.927417 23.1272689,11.4586716 23.1644467,11.9837269 C23.2056316,12.5867159 23.2408057,13.1880443 23.2993551,13.7891513 C23.4168991,14.9717712 23.5849781,16.1468635 23.7865616,17.31631 C24.0041738,18.5852768 24.2470535,19.8485978 24.5067411,21.1083764 C24.5098578,21.1227675 24.5128632,21.1372694 24.5158686,21.1519926 C24.5182061,21.2440959 24.5326765,21.3471587 24.5622851,21.4633948 C24.97547,23.0828413 23.3169422,24.0328782 22.3366298,24.4432472 C22.0758291,24.5523985 21.0039081,24.681476 20.7088237,24.6813653 C15.3392007,24.6784871 6.33361724,24.6510332 5.24644668,24.6542435 C4.52070162,24.6561255 3.79117199,24.6386347 3.06754183,24.6753875 C1.87217738,24.7378229 0.563721364,25.4986716 0.178364093,27.0839114 C-0.234375583,28.7801845 0.575408977,30.6205904 2.1540158,31.595203"/>
      <path fill="#2F2F2F" d="M59.3252621,59.9931808 L47.3127343,59.9931808 C45.9020952,59.9931808 44.7480269,58.8454317 44.7480269,57.4426273 L44.7480269,28.8917048 C44.7480269,27.4889004 45.9020952,26.3411513 47.3127343,26.3411513 L59.3252621,26.3411513 C60.7357899,26.3411513 61.8898582,27.4889004 61.8898582,28.8917048 L61.8898582,57.4426273 C61.8898582,58.8454317 60.7357899,59.9931808 59.3252621,59.9931808"/>
      <path fill="#141313" d="M60.0644869,59.9931808 L46.5734205,59.9931808 C45.5695102,59.9931808 44.7480381,59.1762066 44.7480381,58.1777934 L44.7480381,42.9452103 L61.8898693,42.9452103 L61.8898693,58.1777934 C61.8898693,59.1762066 61.0685084,59.9931808 60.0644869,59.9931808"/>
    </g>
    <g transform="translate(168 163)">
      <path fill="#DFB177" d="M35.670965,137.484988 L35.670965,132.598766 C35.670965,132.598766 28.338035,131.893156 23.539725,122.956061 L1.329625,74.6122431 C1.329625,74.6122431 0.019195,71.9206491 0.107195,70.3266455 C0.107195,70.3266455 -0.074745,65.0480005 4.591345,62.7223068 C4.591345,62.7223068 9.232575,61.1543837 12.292005,64.7344822 C12.292005,64.7344822 14.612565,66.4721494 16.725555,71.4111957 L21.710095,81.014559 L24.064865,85.0127188 L24.086645,45.5798059 L24.218645,8.18525934 C24.218645,8.18525934 25.473195,1.86129538 29.391065,0.502458138 C29.391065,0.502458138 33.905575,-1.17000793 36.458785,1.65220949 C36.458785,1.65220949 39.850965,3.89955123 39.960965,8.6033206 L39.960965,32.3310323 L39.617325,77.3299176 C39.617325,77.3299176 39.874615,60.8669458 40.865165,58.2797843 C40.865165,58.2797843 43.502965,51.616332 48.851385,52.2433686 C48.851385,52.2433686 54.352375,51.9821218 56.597365,57.5743957 C56.597365,57.5743957 58.709475,60.1920581 57.653035,68.7348521 L57.740705,77.486732 C57.740705,77.486732 57.564375,62.9052017 58.312705,61.7031789 C59.061035,60.5010455 60.073475,56.5290768 65.840115,56.3199909 C65.840115,56.3199909 70.902425,56.5290768 72.795305,61.5986359 C72.795305,61.5986359 73.543635,61.8599933 73.543635,66.5113807 L73.763745,76.1278948 C73.763745,76.1278948 73.455525,66.4591092 74.071855,65.6751476 C74.071855,65.6751476 76.052735,60.7101314 79.574385,60.7101314 C79.574385,60.7101314 83.624255,59.4034551 85.913355,63.166559 C85.913355,63.166559 88.158455,64.6298287 87.938345,70.5878924 L86.904785,98.6199885 C86.904785,98.6199885 85.308025,122.29355 75.788625,132.376418 L75.722515,137.484988 L35.670965,137.484988 Z"/>
      <path fill="#FFEDDC" d="M6.18167 66.0247255C6.18167 66.0247255 2.86374 64.4990174 1.74504 67.7410643 1.74504 67.7410643.58762 69.3811508 1.97648 71.9367063L6.3745 81.1668757C6.3745 81.1668757 7.84058 81.9297297 9.69243 80.8617562 9.69243 80.8617562 12.08438 79.2597958 12.00716 76.8188396 12.00716 76.8188396 12.43154 75.2931315 10.57969 72.0892108 10.57969 72.0892108 7.53192 66.7113273 6.18167 66.0247255M38.054016 8.71014006C38.054016 12.2718938 35.338116 15.1593124 31.987956 15.1593124 28.637686 15.1593124 25.921896 12.2718938 25.921896 8.71014006 25.921896 5.14838631 28.637686 2.26096769 31.987956 2.26096769 35.338116 2.26096769 38.054016 5.14838631 38.054016 8.71014006"/>
      <polygon fill="#2F2F2F" points="32.781 184 78.041 184 78.152 156.962 57.111 156.949 32.909 156.935 32.826 156.935"/>
      <polygon fill="#141313" points="32.799 184 56.999 184 57.111 156.963 32.909 156.957"/>
      <path fill="#E9F4F2" d="M76.052779,158.136098 L34.922789,158.092446 C32.267059,158.089684 30.096539,155.904449 30.099289,153.236394 L30.112929,140.313515 C30.115789,137.64546 32.290819,135.464867 34.946549,135.46763 L76.076649,135.511392 C78.732269,135.514154 80.902899,137.699389 80.899929,140.367445 L80.886399,153.290323 C80.883649,155.958378 78.708509,158.138971 76.052779,158.136098"/>
    </g>
  </g>
</svg>
