<svg xmlns="http://www.w3.org/2000/svg" width="191" height="122" viewBox="0 0 191 122">
  <defs>
    <linearGradient id="ai-precampaign-ans-a" x1="0%" y1="50%" y2="50%">
      <stop offset="0%" stop-color="#FC4A1A"/>
      <stop offset="100%" stop-color="#F7B733"/>
    </linearGradient>
  </defs>
  <g fill="none" fill-rule="evenodd">
    <path fill="url(#ai-precampaign-ans-a)" d="M134.709716,50 L164.271291,50 C179.012464,50 191,62.1636763 191,77.0838521 L191,78.8994874 C191,93.81948 179.012464,105.933724 164.271291,105.933724 L154.703475,105.933724 L160.704388,122 L137.841949,105.933724 L134.709716,105.933724 C119.968543,105.933724 108,93.81948 108,78.8994874 L108,77.0838521 C108,62.1636763 119.968543,50 134.709716,50"/>
    <path fill="url(#ai-precampaign-ans-a)" d="M98.9713685,75.0371145 C98.9713685,70.8139729 99.7943084,66.7106498 101.417229,62.8411009 C102.981755,59.1111569 105.218264,55.7597219 108.064928,52.8800491 C110.910326,50.0014755 114.221249,47.7401317 117.905496,46.1584918 C121.43716,44.6424406 125.164977,43.8180019 129,43.7020308 L129,42.065062 C129,18.8866086 110.305595,0 87.4337572,0 L41.5662428,0 C18.6942242,0 0,18.8866086 0,42.065062 L0,44.8855584 C0,68.0640118 18.6942242,87.0409422 41.5662428,87.0409422 L56.4115232,87.0409422 L47.1006588,112 L82.5734939,87.0409422 L87.4337572,87.0409422 C91.8256027,87.0409422 96.0628759,86.3405357 100.043794,85.0458005 C99.3311335,82.3876269 98.9713685,79.6459101 98.9713685,76.8539942 L98.9713685,75.0371145 Z"/>
    <path fill="#FFF" d="M41 41.5C41 46.1944578 37.1944578 50 32.5001862 50 27.8057284 50 24 46.1944578 24 41.5 24 36.8057284 27.8057284 33 32.5001862 33 37.1944578 33 41 36.8057284 41 41.5M70 41.5C70 46.1944578 66.1944578 50 61.5001862 50 56.8057284 50 53 46.1944578 53 41.5 53 36.8057284 56.8057284 33 61.5001862 33 66.1944578 33 70 36.8057284 70 41.5M99 41.5C99 46.1944578 95.1944578 50 90.5001862 50 85.8057284 50 82 46.1944578 82 41.5 82 36.8057284 85.8057284 33 90.5001862 33 95.1944578 33 99 36.8057284 99 41.5"/>
  </g>
</svg>
