
<svg width="69px" height="60px" viewBox="0 0 69 60" version="1.1" xmlns="http://www.w3.org/2000/svg" xmlns:xlink="http://www.w3.org/1999/xlink">
    <!-- Generator: Sketch 47.1 (45422) - http://www.bohemiancoding.com/sketch -->
    <desc>Created with Sketch.</desc>
    <defs>
        <linearGradient x1="0%" y1="50%" x2="100%" y2="50%" id="linearGradient-1">
            <stop stop-color="#FC4A1A" offset="0%"></stop>
            <stop stop-color="#F7B733" offset="100%"></stop>
        </linearGradient>
    </defs>
    <g id="Page-1" stroke="none" stroke-width="1" fill="none" fill-rule="evenodd">
        <g id="5.0-Advertisement-Insights_CopyNotReady" transform="translate(-595.000000, -1064.000000)">
            <g id="Group" transform="translate(595.000000, 1064.000000)">
                <path d="M34.5274576,52.7166102 C34.3952542,52.7166102 34.2640678,52.6830508 34.1461017,52.6138983 L22.4979661,45.8888136 C22.2620339,45.7525424 22.1166102,45.500339 22.1166102,45.2288136 L22.1166102,39.3254237 C22.1166102,38.9044068 22.4583051,38.5627119 22.879322,38.5627119 C23.300339,38.5627119 23.6420339,38.9044068 23.6420339,39.3254237 L23.6420339,44.7884746 L34.5274576,51.0732203 L45.4118644,44.7884746 L45.4118644,39.1108475 C45.4118644,38.6898305 45.7535593,38.3481356 46.1745763,38.3481356 C46.5955932,38.3481356 46.9372881,38.6898305 46.9372881,39.1108475 L46.9372881,45.2288136 C46.9372881,45.500339 46.7928814,45.7525424 46.5559322,45.8888136 L34.9088136,52.6138983 C34.7908475,52.6830508 34.659661,52.7166102 34.5274576,52.7166102" id="Fill-344" fill="url(#linearGradient-1)"></path>
                <path d="M22.880339,32.5413559 C22.5966102,32.5413559 22.3250847,32.3837288 22.1928814,32.1111864 C22.0098305,31.7318644 22.1674576,31.2762712 22.5467797,31.0922034 L34.1949153,25.4461017 C34.4054237,25.3454237 34.6494915,25.3454237 34.86,25.4461017 L46.5071186,31.0922034 C46.8864407,31.2762712 47.0450847,31.7318644 46.8610169,32.1111864 C46.6769492,32.4905085 46.2244068,32.6491525 45.8420339,32.4650847 L34.5274576,26.979661 L23.2118644,32.4650847 C23.1050847,32.5169492 22.9911864,32.5413559 22.880339,32.5413559" id="Fill-345" fill="url(#linearGradient-1)"></path>
                <path d="M34.5091525,52.4959322 C34.0881356,52.4959322 33.7464407,52.1542373 33.7464407,51.7332203 L33.7464407,38.179322 L22.600678,32.379661 C22.2264407,32.1844068 22.0820339,31.7247458 22.2762712,31.3505085 C22.4715254,30.9783051 22.9291525,30.8308475 23.3054237,31.0271186 L34.8610169,37.040339 C35.1132203,37.1715254 35.2718644,37.4328814 35.2718644,37.7166102 L35.2718644,51.7332203 C35.2718644,52.1542373 34.9301695,52.4959322 34.5091525,52.4959322" id="Fill-346" fill="url(#linearGradient-1)"></path>
                <path d="M34.6474576,38.479322 C34.3708475,38.479322 34.1044068,38.3288136 33.9691525,38.0664407 C33.7759322,37.6911864 33.9223729,37.2315254 34.2976271,37.039322 L45.5237288,31.2457627 C45.8979661,31.0484746 46.3586441,31.1989831 46.5498305,31.5732203 C46.7440678,31.9474576 46.5966102,32.4071186 46.2223729,32.600339 L34.9962712,38.3938983 C34.8854237,38.4528814 34.7654237,38.479322 34.6474576,38.479322" id="Fill-347" fill="url(#linearGradient-1)"></path>
                <path d="M35.8149153,37.9708475 L39.4525424,41.6359322 L49.580339,36.3966102 L45.9427119,32.7315254 L35.8149153,37.9708475 Z M39.3050847,43.3332203 C39.1067797,43.3332203 38.9115254,43.2559322 38.7640678,43.1084746 L34.000678,38.3074576 C33.8298305,38.1345763 33.7505085,37.8915254 33.7881356,37.6515254 C33.8257627,37.4115254 33.9752542,37.2040678 34.1908475,37.0932203 L45.739322,31.119661 C46.0362712,30.9650847 46.3952542,31.0230508 46.6311864,31.2589831 L51.3945763,36.0589831 C51.5654237,36.2318644 51.6447458,36.4749153 51.6071186,36.7149153 C51.5694915,36.9549153 51.42,37.1623729 51.2044068,37.2732203 L39.6559322,43.2477966 C39.5450847,43.3057627 39.4250847,43.3332203 39.3050847,43.3332203 L39.3050847,43.3332203 Z" id="Fill-348" fill="url(#linearGradient-1)"></path>
                <path d="M21.2155932,30.6233898 L22.8355932,30.9233898 L32.0694915,26.4213559 L30.4494915,26.1223729 L21.2155932,30.6233898 Z M22.9444068,32.4813559 C22.8976271,32.4813559 22.8518644,32.4783051 22.8050847,32.4691525 L18.6620339,31.7023729 C18.3376271,31.6423729 18.0894915,31.3810169 18.0447458,31.0555932 C18,30.7291525 18.1698305,30.4108475 18.4657627,30.2674576 L30.0071186,24.640678 C30.1545763,24.5684746 30.3183051,24.5461017 30.4810169,24.5766102 L34.6240678,25.3433898 C34.9474576,25.4023729 35.1955932,25.6637288 35.240339,25.9901695 C35.2850847,26.3166102 35.1152542,26.6338983 34.819322,26.7783051 L23.2789831,32.4040678 C23.1732203,32.4559322 23.059322,32.4813559 22.9444068,32.4813559 L22.9444068,32.4813559 Z" id="Fill-349" fill="url(#linearGradient-1)"></path>
                <path d="M19.3525424,36.4372881 L29.5067797,41.7152542 L33.2633898,37.9159322 L23.1142373,32.6349153 L19.3525424,36.4372881 Z M29.6532203,43.4125424 C29.5332203,43.4125424 29.4132203,43.3850847 29.3013559,43.3261017 L17.7315254,37.3128814 C17.5159322,37.2020339 17.3664407,36.9945763 17.3288136,36.7555932 C17.2911864,36.5155932 17.3694915,36.2725424 17.540339,36.100678 L22.419661,31.1664407 C22.6484746,30.9355932 23.0369492,30.8766102 23.3288136,31.0271186 L34.8854237,37.040339 C35.1,37.1511864 35.2484746,37.3586441 35.2861017,37.5986441 C35.3237288,37.8376271 35.2454237,38.080678 35.0745763,38.2525424 L30.1952542,43.1867797 C30.0488136,43.3352542 29.8515254,43.4125424 29.6532203,43.4125424 L29.6532203,43.4125424 Z" id="Fill-350" fill="url(#linearGradient-1)"></path>
                <path d="M36.7566102,26.4416949 L46.2935593,30.9732203 L48.4952542,30.4830508 L38.9684746,25.9505085 L36.7566102,26.4416949 Z M46.2040678,32.5372881 C46.0911864,32.5372881 45.979322,32.5128814 45.8755932,32.4640678 L34.0972881,26.8677966 C33.8033898,26.7274576 33.6305085,26.4172881 33.6671186,26.0928814 C33.7047458,25.7694915 33.9416949,25.5040678 34.2589831,25.4338983 L38.8932203,24.4037288 C39.0579661,24.3671186 39.2328814,24.3864407 39.3864407,24.459661 L51.1505085,30.0579661 C51.4444068,30.1962712 51.6172881,30.5074576 51.580678,30.8308475 C51.5440678,31.1552542 51.3061017,31.419661 50.9888136,31.4908475 L46.3698305,32.52 C46.3149153,32.5311864 46.2589831,32.5372881 46.2040678,32.5372881 L46.2040678,32.5372881 Z" id="Fill-351" fill="url(#linearGradient-1)"></path>
                <path d="M11.0654237,7.76644068 L15.7657627,7.76644068 L15.7657627,2.51898305 L11.0654237,2.51898305 L11.0654237,7.76644068 Z M16.5284746,9.29186441 L10.3027119,9.29186441 C9.88169492,9.29186441 9.54,8.95016949 9.54,8.52915254 L9.54,1.75627119 C9.54,1.33525424 9.88169492,0.993559322 10.3027119,0.993559322 L16.5284746,0.993559322 C16.9494915,0.993559322 17.2911864,1.33525424 17.2911864,1.75627119 L17.2911864,8.52915254 C17.2911864,8.95016949 16.9494915,9.29186441 16.5284746,9.29186441 L16.5284746,9.29186441 Z" id="Fill-352" fill="#131615"></path>
                <path d="M32.1183051,7.76644068 L36.8176271,7.76644068 L36.8176271,2.51898305 L32.1183051,2.51898305 L32.1183051,7.76644068 Z M37.580339,9.29186441 L31.3555932,9.29186441 C30.9345763,9.29186441 30.5928814,8.95016949 30.5928814,8.52915254 L30.5928814,1.75627119 C30.5928814,1.33525424 30.9345763,0.993559322 31.3555932,0.993559322 L37.580339,0.993559322 C38.0013559,0.993559322 38.3430508,1.33525424 38.3430508,1.75627119 L38.3430508,8.52915254 C38.3430508,8.95016949 38.0013559,9.29186441 37.580339,9.29186441 L37.580339,9.29186441 Z" id="Fill-353" fill="#131615"></path>
                <path d="M53.1701695,7.76644068 L57.8705085,7.76644068 L57.8705085,2.51898305 L53.1701695,2.51898305 L53.1701695,7.76644068 Z M58.6332203,9.29186441 L52.4074576,9.29186441 C51.9864407,9.29186441 51.6447458,8.95016949 51.6447458,8.52915254 L51.6447458,1.75627119 C51.6447458,1.33525424 51.9864407,0.993559322 52.4074576,0.993559322 L58.6332203,0.993559322 C59.0542373,0.993559322 59.3959322,1.33525424 59.3959322,1.75627119 L59.3959322,8.52915254 C59.3959322,8.95016949 59.0542373,9.29186441 58.6332203,9.29186441 L58.6332203,9.29186441 Z" id="Fill-354" fill="#131615"></path>
                <path d="M67.4572881,59.1274576 L1.47864407,59.1274576 C1.05762712,59.1274576 0.715932203,58.7857627 0.715932203,58.3647458 L0.715932203,6.27152542 C0.715932203,5.85050847 1.05762712,5.50881356 1.47864407,5.50881356 C1.89966102,5.50881356 2.24135593,5.85050847 2.24135593,6.27152542 L2.24135593,57.6020339 L66.6945763,57.6020339 L66.6945763,6.27152542 C66.6945763,5.85050847 67.0362712,5.50881356 67.4572881,5.50881356 C67.8783051,5.50881356 68.22,5.85050847 68.22,6.27152542 L68.22,58.3647458 C68.22,58.7857627 67.8783051,59.1274576 67.4572881,59.1274576" id="Fill-355" fill="#131615"></path>
                <path d="M31.099322,7.03423729 L16.5955932,7.03423729 C16.1745763,7.03423729 15.8328814,6.69254237 15.8328814,6.27152542 C15.8328814,5.85050847 16.1745763,5.50881356 16.5955932,5.50881356 L31.099322,5.50881356 C31.520339,5.50881356 31.8620339,5.85050847 31.8620339,6.27152542 C31.8620339,6.69254237 31.520339,7.03423729 31.099322,7.03423729" id="Fill-356" fill="#131615"></path>
                <path d="M51.6732203,7.03423729 L38.1274576,7.03423729 C37.7064407,7.03423729 37.3647458,6.69254237 37.3647458,6.27152542 C37.3647458,5.85050847 37.7064407,5.50881356 38.1274576,5.50881356 L51.6732203,5.50881356 C52.0942373,5.50881356 52.4359322,5.85050847 52.4359322,6.27152542 C52.4359322,6.69254237 52.0942373,7.03423729 51.6732203,7.03423729" id="Fill-357" fill="#131615"></path>
                <path d="M67.4572881,19.5355932 L1.47864407,19.5355932 C1.05762712,19.5355932 0.715932203,19.1938983 0.715932203,18.7728814 L0.715932203,6.27152542 C0.715932203,5.85050847 1.05762712,5.50881356 1.47864407,5.50881356 L9.56745763,5.50881356 C9.98847458,5.50881356 10.3301695,5.85050847 10.3301695,6.27152542 C10.3301695,6.69254237 9.98847458,7.03423729 9.56745763,7.03423729 L2.24135593,7.03423729 L2.24135593,18.0101695 L66.6945763,18.0101695 L66.6945763,7.03423729 L58.7013559,7.03423729 C58.280339,7.03423729 57.9386441,6.69254237 57.9386441,6.27152542 C57.9386441,5.85050847 58.280339,5.50881356 58.7013559,5.50881356 L67.4572881,5.50881356 C67.8783051,5.50881356 68.22,5.85050847 68.22,6.27152542 L68.22,18.7728814 C68.22,19.1938983 67.8783051,19.5355932 67.4572881,19.5355932" id="Fill-358" fill="#131615"></path>
                <path d="M11.9542373,13.8915254 L7.3779661,13.8915254 C6.95694915,13.8915254 6.61525424,13.5498305 6.61525424,13.1288136 C6.61525424,12.7077966 6.95694915,12.3661017 7.3779661,12.3661017 L11.9542373,12.3661017 C12.3752542,12.3661017 12.7169492,12.7077966 12.7169492,13.1288136 C12.7169492,13.5498305 12.3752542,13.8915254 11.9542373,13.8915254" id="Fill-359" fill="#131615"></path>
                <path d="M29.9654237,13.8915254 L20.959322,13.8915254 C20.5383051,13.8915254 20.1966102,13.5498305 20.1966102,13.1288136 C20.1966102,12.7077966 20.5383051,12.3661017 20.959322,12.3661017 L29.9654237,12.3661017 C30.3864407,12.3661017 30.7281356,12.7077966 30.7281356,13.1288136 C30.7281356,13.5498305 30.3864407,13.8915254 29.9654237,13.8915254 Z M47.9766102,13.8915254 L38.9705085,13.8915254 C38.5494915,13.8915254 38.2077966,13.5498305 38.2077966,13.1288136 C38.2077966,12.7077966 38.5494915,12.3661017 38.9705085,12.3661017 L47.9766102,12.3661017 C48.3976271,12.3661017 48.739322,12.7077966 48.739322,13.1288136 C48.739322,13.5498305 48.3976271,13.8915254 47.9766102,13.8915254 L47.9766102,13.8915254 Z" id="Fill-360" fill="#131615"></path>
                <path d="M61.5579661,13.8915254 L56.9816949,13.8915254 C56.560678,13.8915254 56.2189831,13.5498305 56.2189831,13.1288136 C56.2189831,12.7077966 56.560678,12.3661017 56.9816949,12.3661017 L61.5579661,12.3661017 C61.9789831,12.3661017 62.320678,12.7077966 62.320678,13.1288136 C62.320678,13.5498305 61.9789831,13.8915254 61.5579661,13.8915254" id="Fill-361" fill="#131615"></path>
            </g>
        </g>
    </g>
</svg>