<svg xmlns="http://www.w3.org/2000/svg" width="294" height="220" viewBox="0 0 294 220">
  <defs>
    <linearGradient id="ai-precampaign-adv-a" x1="0%" y1="50%" y2="50%">
      <stop offset="0%" stop-color="#FC4A1A"/>
      <stop offset="100%" stop-color="#F7B733"/>
    </linearGradient>
  </defs>
  <g fill="none" fill-rule="evenodd" transform="translate(1 1)">
    <polygon stroke="url(#ai-precampaign-adv-a)" points="0 218 292 218 292 0 0 0"/>
    <g fill="url(#ai-precampaign-adv-a)" transform="translate(74 38)">
      <path d="M55.6541281,45.2877051 L77.6773158,51.1943844 L69.4422472,8.48175959 L55.6541281,45.2877051 Z M10.2707229,33.6355108 L39.4585595,87.0978086 L54.9935717,45.6301796 L10.2707229,33.6355108 Z M78.3179759,51.8873918 L88.8888672,106.71153 L127.549321,65.0907945 L78.3179759,51.8853773 L78.3179759,51.8873918 Z M88.5864438,107.771186 L88.494921,107.289707 L77.782766,51.7443583 L55.4770512,45.7611258 L39.5421239,88.2924406 L9.27192982,32.8478193 L55.1706486,45.1587735 L69.5954485,6.65254237 L78.2125256,51.3374179 L128.482456,64.8208439 L128.19595,65.1290711 L88.5864438,107.771186 Z"/>
      <path d="M9.58352953,32.3398507 L9.17433167,32.5147721 L84.6503786,86.8891902 L65.7394491,97.0084938 L39.395091,86.6036863 L2.64912281,138.933334 L65.7713864,97.5614063 L88.6245881,106.586948 L81.0155039,155.669492 L81.520514,155.669492 L89.149559,106.466313 L89.1814964,106.267265 L66.3502517,97.2517753 L85.5945278,86.9495079 L10.1863478,32.6273652 L69.5679442,7.24566666 L128.135137,64.4047531 L128.482456,64.0428467 L69.7954981,6.76714605 L69.6757329,6.65254237 L9.58352953,32.3398507 Z M39.6206488,87.2330012 L65.1585877,97.3201354 L3.89068901,137.700841 L39.6206488,87.2330012 Z"/>
      <path d="M4.83517139 93.6407149L3.97368421 94.1738051 5.03412916 94.0470705 43.6995836 110.711673 81.6746546 157 82.0566536 156.678134 44.041791 110.343539 44.003989 110.299282 6.02891805 93.9283825 115.236842 80.9752952 64.0410268 57.6963503 98.9302627 36.1695625 98.6736071 35.7410786 63.4899138 57.4469043 10.3045207 33.2627119 4.83517139 93.6407149zM10.7342695 34.0090382L62.9785923 57.7667585 5.36439908 93.3148258 10.7342695 34.0090382zM63.5257262 58.0141928L113.392504 80.6876276 6.17017807 93.4053505 63.5257262 58.0141928zM150.861318 79.1423695C150.867279 79.0106492 150.869266 78.8789288 150.861318 78.7472085L150.861318 55.3868059 130.22995 55.3868059 130.22995 75.8154331C129.091489 75.0809924 127.541753 74.7576788 125.916516 75.0330941 122.9442 75.5400178 120.856029 77.8590941 121.255384 80.2120983 121.652753 82.5651025 124.384661 84.0619246 127.356976 83.5550008 129.85245 83.1318992 131.718095 81.4275178 132.018108 79.4976153L132.055858 79.4976153 132.055858 79.1423695C132.063805 79.0106492 132.063805 78.8789288 132.055858 78.7472085L132.055858 61.3720983 149.035411 61.3720983 149.035411 75.8154331C147.894963 75.0809924 146.347213 74.7576788 144.719989 75.0330941 141.749661 75.5400178 139.661489 77.8590941 140.058858 80.2120983 140.458213 82.5651025 143.190121 84.0619246 146.16045 83.5550008 148.657911 83.1318992 150.521568 81.4275178 150.821582 79.4976153L150.861318 79.4976153 150.861318 79.1423695z"/>
      <path d="M88.4776553 102.993929C84.9291553 102.993929 82.0522079 100.104065 82.0522079 96.5376369 82.0522079 92.9732047 84.9291553 90.0813445 88.4776553 90.0813445 92.0281421 90.0813445 94.9050895 92.9732047 94.9050895 96.5376369 94.9050895 100.104065 92.0281421 102.993929 88.4776553 102.993929M88.4776553 88.2751792C83.9357342 88.2751792 80.2521289 91.9753233 80.2521289 96.5376369 80.2521289 101.101946 88.4776553 114.277972 88.4776553 114.277972 88.4776553 114.277972 96.7051684 101.101946 96.7051684 96.5376369 96.7051684 91.9753233 93.0215632 88.2751792 88.4776553 88.2751792M74.2999474 54.2254716L74.2939868 54.2254716C73.9482763 54.2254716 73.6363421 53.7285267 73.5131579 53.4032174 71.7766579 48.8149589 67.3579211 45.4061962 62.1782237 45.4061962 55.4845526 45.4061962 50.0604737 50.7827809 50.0604737 57.5085013 50.0604737 57.8837047 50.0763684 58.2189928 50.1101447 58.5862131 50.1300132 58.8157258 50.0525263 59.0212894 49.9015263 59.1949208 48.6955132 60.5520394 47.9623684 62.3322597 47.9623684 64.2960903 47.9623684 64.4637343 47.9683289 64.9447131 47.98025 65.1103614 48.0100526 65.5434419 48.3696711 66.1940606 48.8047895 66.1940606L82.3804342 66.1940606C82.7619079 66.1940606 83.0956974 65.6172852 83.1831184 65.2440775 83.3440526 64.5655182 83.4294868 63.9907386 83.4294868 63.2602894 83.4294868 58.1970394 79.3405658 54.2254716 74.2999474 54.2254716M6.27007632 47.8152814C6.27007632 49.5555864 4.86736579 50.9606034 3.13285263 50.9606034 1.4043 50.9606034-.000397368421 49.5555864-.000397368421 47.8152814-.000397368421 46.0809636 1.4043 44.6599805 3.13285263 44.6599805 4.86736579 44.6599805 6.27007632 46.0809636 6.27007632 47.8152814M15.3700118 50.7835792L11.2453276 50.7835792C11.1896961 47.8278547 10.0273934 45.0617275 7.95114342 42.9741597 5.87290658 40.8826004 3.12907763 39.7090919.202459211 39.6532106L.202459211 35.5239775C8.51739342 35.637736 15.2567618 42.4193377 15.3700118 50.7835792"/>
      <path d="M23.3988408 50.7835792L19.2821039 50.7835792C19.1688539 40.2459521 10.6770908 31.6941089.210406579 31.5803504L.210406579 27.4511174C12.9460645 27.5668716 23.2855908 37.9687869 23.3988408 50.7835792M86.2559684 4.11406525C86.2182184 4.05419237 86.2003368 3.99431949 86.1784816 3.93644237 86.2062974 3.79274746 86.0970211 3.49737458 86.0572842 3.32374322 85.9956921 3.04234068 85.8307842 2.78089576 85.6380605 2.57134068 85.2426789 2.14025593 84.6506 1.74110339 84.1161395 1.52955254 83.0809947 1.11842542 81.8749816.837022881 80.7762579 1.01464576 80.5020737 1.05855254 79.9775474 1.36190847 79.8106526 1.36190847L77.5893632 1.36190847C77.5774421 1.36190847 77.5694947 1.54951017 77.5615474 1.55549746 77.5536 1.56148475 77.5476395 1.74110339 77.5476395 1.74110339 77.2277579 1.98458644 76.6356789 2.35978983 76.2343368 2.35978983L74.9091132 2.35978983C74.5753237 2.35978983 74.1104026 2.13426864 73.7786 1.94666695 73.7130342 1.90874746 73.6494553 1.65328983 73.5958105 1.61337458 73.5958105 1.61337458 73.5799158 1.36190847 73.5501132 1.36190847L71.4162447 1.36190847C71.24935 1.36190847 70.7287974 1.05855254 70.4526263 1.01464576 69.3539026.837022881 68.1478895 1.03260763 67.1127447 1.44173898 66.5782842 1.65528559 65.9862053 2.09634915 65.5908237 2.52942966 65.3981 2.73698898 65.2312053 3.02038729 65.1716 3.30178983 65.1497447 3.40157797 65.1656395 3.54926441 65.2053763 3.67499746 62.1456395 9.00767542 63.4092711 14.6975949 63.4092711 14.6975949 63.5264947 15.4240525 63.7788237 16.0287686 64.1821526 16.4359042 64.5636263 17.2920864 65.2590211 17.8030017 66.3299289 17.7131924 67.7644289 17.5934466 70.8857579 13.8254466 70.8857579 13.8254466 71.1420605 13.5161034 71.6804947 13.2626415 72.0818368 13.2626415L80.0212579 13.2606458C80.4226 13.2606458 80.9630211 13.5141076 81.2213105 13.8254466 81.2213105 13.8254466 84.3386658 17.5914508 85.7791263 17.7131924 87.2176 17.8349339 87.9845211 16.8709805 88.2130079 15.4260483 88.2130079 15.4260483 89.5382316 9.53056525 86.2559684 4.11406525M106.118628 38.5379784C106.122601 38.5639233 106.124588 38.5898682 106.124588 38.6178089L106.124588 43.8726521C106.124588 44.1360928 105.910009 44.3536309 105.647746 44.3536309 105.383496 44.3536309 105.16693 44.1360928 105.16693 43.8726521L105.16693 38.6178089C105.16693 38.5898682 105.170904 38.5639233 105.174878 38.5379784L103.772167 38.5379784C103.776141 38.5639233 103.780114 38.5898682 103.780114 38.6178089L103.780114 43.8726521C103.780114 44.1360928 103.565536 44.3536309 103.301286 44.3536309 103.039022 44.3536309 102.824443 44.1360928 102.824443 43.8726521L102.824443 38.6178089C102.824443 38.5898682 102.82643 38.5639233 102.830404 38.5379784L101.427693 38.5379784C101.433654 38.5639233 101.435641 38.5898682 101.435641 38.6178089L101.435641 43.8726521C101.435641 44.1360928 101.219075 44.3536309 100.954825 44.3536309 100.694549 44.3536309 100.477983 44.1360928 100.477983 43.8726521L100.477983 38.6178089C100.477983 38.5898682 100.47997 38.5639233 100.48593 38.5379784L99.0832197 38.5379784C99.0871934 38.5639233 99.0891803 38.5898682 99.0891803 38.6178089L99.0891803 43.8726521C99.0891803 44.1360928 98.8746013 44.3536309 98.6123382 44.3536309 98.3480882 44.3536309 98.1315224 44.1360928 98.1315224 43.8726521L98.1315224 38.6178089C98.1315224 38.5898682 98.1354961 38.5639233 98.1394697 38.5379784L96.7367592 38.5379784C96.7407329 38.5639233 96.7447066 38.5898682 96.7447066 38.6178089L96.7447066 43.8726521C96.7447066 44.1360928 96.5301276 44.3536309 96.2658776 44.3536309 96.0036145 44.3536309 95.7890355 44.1360928 95.7890355 43.8726521L95.7890355 38.6178089C95.7890355 38.5898682 95.7910224 38.5639233 95.7949961 38.5379784L94.3942724 38.5379784C94.3982461 38.5639233 94.4002329 38.5898682 94.4002329 38.6178089L94.4002329 43.8726521C94.4002329 44.1360928 94.1836671 44.3536309 93.9214039 44.3536309 93.6591408 44.3536309 93.442575 44.1360928 93.442575 43.8726521L93.442575 38.6178089C93.442575 38.5898682 93.4465487 38.5639233 93.4505224 38.5379784L91.0226013 38.5379784 92.5027987 44.3596182C92.6319434 44.8665419 93.0849434 45.2217877 93.6054961 45.2217877L105.961667 45.2217877C106.48222 45.2217877 106.93522 44.8665419 107.066351 44.3596182L108.546549 38.5379784 106.118628 38.5379784z"/>
      <path d="M109.21532,38.3841051 C109.414004,37.6596432 108.829872,36.9571347 108.031162,36.9571347 L91.5304382,36.9571347 C90.7317276,36.9571347 90.1475961,37.6596432 90.3462803,38.3841051 L90.3860171,38.5397746 L109.173596,38.5397746 L109.21532,38.3841051 Z"/>
      <path d="M105.220178 37.808128C105.21223 37.8101237 105.204283 37.808128 105.200309 37.8021407L100.586862 29.1604881C100.425928 28.859128 100.125914 28.6775136 99.7841776 28.6775136 99.4424408 28.6775136 99.1424276 28.859128 98.9795066 29.1604881L94.3660592 37.8021407C94.3620855 37.808128 94.3541382 37.8101237 94.3481776 37.808128L94.0441908 37.6444754C94.0382303 37.6404839 94.0342566 37.6325008 94.0382303 37.6245178L98.6318092 29.0247763C98.8781776 28.5637551 99.3669408 28.2683822 99.8835197 28.3082975 100.322612 28.3402297 100.704086 28.5877042 100.914691 28.984861L105.528138 37.6245178C105.532112 37.6325008 105.530125 37.6404839 105.522178 37.6444754L105.220178 37.808128zM16.4311842 98.6018542C15.6980395 98.6018542 15.0165526 98.8173966 14.4383816 99.1846169L9.00834211 94.1173754C9.2865 93.5924898 9.44544737 92.9917653 9.44544737 92.3551169 9.44544737 91.7164729 9.2865 91.1177441 9.00834211 90.5908627L14.4383816 85.5236212C15.0165526 85.8908415 15.6980395 86.1083797 16.4311842 86.1083797 18.4895526 86.1083797 20.1585 84.4299432 20.1585 82.3623331 20.1585 80.2947229 18.4895526 78.6182822 16.4311842 78.6182822 14.3728158 78.6182822 12.7038684 80.2947229 12.7038684 82.3623331 12.7038684 83.0009771 12.8628158 83.5997059 13.1429605 84.1265873L7.71093421 89.1938288C7.13475 88.8266085 6.45326316 88.6110661 5.71813158 88.6110661 3.65976316 88.6110661 1.99081579 90.285511 1.99081579 92.3551169 1.99081579 94.4227271 3.65976316 96.0991678 5.71813158 96.0991678 6.45326316 96.0991678 7.13475 95.8836254 7.71093421 95.5164051L13.1429605 100.583647C12.8628158 101.108532 12.7038684 101.709257 12.7038684 102.345905 12.7038684 104.415511 14.3728158 106.091952 16.4311842 106.091952 18.4895526 106.091952 20.1585 104.415511 20.1585 102.345905 20.1585 100.278295 18.4895526 98.6018542 16.4311842 98.6018542"/>
    </g>
    <g transform="translate(12 7)">
      <polygon fill="#000" points="212.829 18.437 233.37 18.437 233.37 .213 212.829 .213"/>
      <polygon fill="#FFF" points="214.108 16.44 232.091 16.44 232.091 3.659 214.108 3.659"/>
      <polygon fill="#000" points="259.869 15.217 257.666 17.43 244.769 4.479 246.973 2.266"/>
      <polygon fill="#000" points="244.769 15.217 246.973 17.43 259.869 4.479 257.666 2.266"/>
      <polygon fill="#000" points=".16 206.979 5.265 206.979 5.265 192.788 .16 192.788"/>
      <polygon fill="#000" points="7.683 206.979 12.788 206.979 12.788 192.788 7.683 192.788"/>
      <polygon fill="#000" points="15.582 202.285 260.82 202.285 260.82 197.375 15.582 197.375"/>
      <polygon fill="#000" points="221.681 207.978 227.986 207.978 227.986 193.445 221.681 193.445"/>
    </g>
  </g>
</svg>
