
<svg width="84px" height="60px" viewBox="0 0 84 60" version="1.1" xmlns="http://www.w3.org/2000/svg" xmlns:xlink="http://www.w3.org/1999/xlink">
    <!-- Generator: Sketch 47.1 (45422) - http://www.bohemiancoding.com/sketch -->
    <desc>Created with Sketch.</desc>
    <defs>
        <linearGradient x1="0%" y1="50%" x2="100%" y2="50%" id="linearGradient-1">
            <stop stop-color="#FC4A1A" offset="0%"></stop>
            <stop stop-color="#F7B733" offset="100%"></stop>
        </linearGradient>
        <linearGradient x1="50%" y1="0%" x2="50%" y2="100%" id="linearGradient-2">
            <stop stop-color="#FAD961" offset="0%"></stop>
            <stop stop-color="#F76B1C" offset="100%"></stop>
        </linearGradient>
    </defs>
    <g id="Page-1" stroke="none" stroke-width="1" fill="none" fill-rule="evenodd">
        <g id="5.0-Advertisement-Insights_CopyNotReady" transform="translate(-945.000000, -1064.000000)">
            <g id="Group-6" transform="translate(945.000000, 1064.000000)">
                <path d="M7.33652174,1.30434783 C5.92782609,1.30434783 4.7826087,2.45043478 4.7826087,3.85826087 L4.7826087,51.3591304 C4.7826087,52.7678261 5.92782609,53.9130435 7.33652174,53.9130435 L75.7069565,53.9130435 C77.1147826,53.9130435 78.2608696,52.7678261 78.2608696,51.3591304 L78.2608696,3.85826087 C78.2608696,2.45043478 77.1147826,1.30434783 75.7069565,1.30434783 L7.33652174,1.30434783 Z M75.7069565,55.2173913 L7.33652174,55.2173913 C5.20869565,55.2173913 3.47826087,53.4869565 3.47826087,51.3591304 L3.47826087,3.85826087 C3.47826087,1.73043478 5.20869565,0 7.33652174,0 L75.7069565,0 C77.8347826,0 79.5652174,1.73043478 79.5652174,3.85826087 L79.5652174,51.3591304 C79.5652174,53.4869565 77.8347826,55.2173913 75.7069565,55.2173913 L75.7069565,55.2173913 Z" id="Fill-355" fill="#131615"></path>
                <path d="M41.5217391,55.2173913 C41.1617391,55.2173913 40.8695652,54.9252174 40.8695652,54.5652174 L40.8695652,0.652173913 C40.8695652,0.292173913 41.1617391,0 41.5217391,0 C41.8817391,0 42.173913,0.292173913 42.173913,0.652173913 L42.173913,54.5652174 C42.173913,54.9252174 41.8817391,55.2173913 41.5217391,55.2173913" id="Fill-356" fill="#131615"></path>
                <path d="M78.9130435,28.2608696 L4.13043478,28.2608696 C3.77043478,28.2608696 3.47826087,27.9686957 3.47826087,27.6086957 C3.47826087,27.2486957 3.77043478,26.9565217 4.13043478,26.9565217 L78.9130435,26.9565217 C79.2730435,26.9565217 79.5652174,27.2486957 79.5652174,27.6086957 C79.5652174,27.9686957 79.2730435,28.2608696 78.9130435,28.2608696" id="Fill-357" fill="#131615"></path>
                <path d="M19.5669565,50.1956522 C19.273913,50.1956522 19.0147826,49.9991304 18.9373913,49.7130435 C18.926087,49.6686957 17.94,45.9878261 17.0669565,42.4904348 C15.693913,44.5530435 12.6104348,45.8234783 8.1,46.1330435 C7.74347826,46.1669565 7.42869565,45.8869565 7.40434783,45.5269565 C7.38,45.1678261 7.65130435,44.8565217 8.01043478,44.8321739 C11.0278261,44.6252174 16.1504348,43.7469565 16.5478261,40.2008696 C16.5834783,39.886087 16.84,39.6417391 17.1556522,39.6226087 C17.4608696,39.6026087 17.7565217,39.8130435 17.8304348,40.1217391 C18.3165217,42.153913 18.9330435,44.5591304 19.4156522,46.4086957 L21.7704348,31.873913 C21.8182609,31.5765217 22.0634783,31.3513043 22.3643478,31.3278261 C22.6626087,31.3095652 22.9417391,31.4913043 23.0347826,31.7773913 L26.4956522,42.4582609 L28.5878261,40.306087 C28.7365217,40.153913 28.9478261,40.0843478 29.1591304,40.1173913 C29.3686957,40.1513043 29.5495652,40.2843478 29.6417391,40.4756522 L32.0356522,45.3991304 L33.5626087,43.473913 C33.7791304,43.2026087 34.1704348,43.1478261 34.4521739,43.3478261 C34.4530435,43.3478261 35.3965217,43.9295652 38.6052174,44.3156522 C38.9634783,44.3582609 39.2182609,44.6834783 39.1756522,45.0408696 C39.1321739,45.3982609 38.8026087,45.6521739 38.4504348,45.6104348 C36.1582609,45.3347826 34.8991304,44.953913 34.26,44.693913 L32.4130435,47.0217391 C32.273913,47.1973913 32.0573913,47.2869565 31.8313043,47.2643478 C31.6078261,47.24 31.4130435,47.1026087 31.3156522,46.9017391 L28.8756522,41.8817391 L26.6765217,44.1434783 C26.5173913,44.3069565 26.2843478,44.3747826 26.0608696,44.3234783 C25.8382609,44.2721739 25.6591304,44.1069565 25.5886957,43.8895652 L22.626087,34.7478261 L20.2113043,49.6478261 C20.1617391,49.9521739 19.9078261,50.1791304 19.6008696,50.1947826 C19.5895652,50.1956522 19.5782609,50.1956522 19.5669565,50.1956522" id="Fill-358" fill="url(#linearGradient-1)"></path>
                <path d="M76.4417391,20.6278261 C76.3869565,20.6278261 76.3313043,20.6208696 76.2765217,20.6069565 C76.2252174,20.5930435 75.7643478,20.4713043 75.4113043,20.2982609 C74.8495652,20.0226087 74.4878261,19.4173913 74.1052174,18.7773913 C73.6678261,18.0452174 73.2165217,17.2886957 72.5634783,17.1791304 C71.98,17.0808696 71.18,17.4582609 70.1826087,18.2991304 C69.8773913,18.5921739 69.2617391,18.7130435 68.6469565,18.5808696 C68.1356522,18.4713043 67.1973913,18.0886957 66.66,16.7643478 C66.346087,15.88 65.533913,14.6765217 65.1504348,14.6652174 C64.8417391,14.666087 64.4086957,15.18 63.8826087,16.193913 C63.7026087,16.5086957 62.8069565,17.9695652 61.56,18.0704348 C61.1417391,18.1086957 60.5182609,17.9956522 59.94,17.2826087 C59.2913043,16.5982609 58.3843478,14.7113043 57.3556522,12.5026087 C57.0469565,11.8391304 56.7773913,11.26 56.5869565,10.8956522 C56.3626087,10.4113043 56.0747826,10.1156522 55.8391304,10.113913 C55.8382609,10.113913 55.8382609,10.113913 55.8373913,10.113913 C55.606087,10.113913 55.3269565,10.3921739 55.1095652,10.8426087 L55.0678261,10.933913 C51.92,17.7504348 50.5034783,17.2313043 49.9695652,17.0321739 C49.826087,16.9713043 49.6991304,16.9034783 49.5617391,16.8269565 C48.9678261,16.4982609 48.5382609,16.2608696 47.7617391,17.1034783 C47.6573913,17.2104348 47.4895652,17.4878261 47.3426087,17.7321739 C46.7365217,18.7373913 45.7226087,20.4191304 43.8147826,20.6243478 C43.4530435,20.6617391 43.1347826,20.4034783 43.0965217,20.0452174 C43.0582609,19.6869565 43.3173913,19.3652174 43.6756522,19.3269565 C44.94,19.1913043 45.6826087,17.9591304 46.2252174,17.0591304 C46.446087,16.6921739 46.6208696,16.4026087 46.8191304,16.2026087 C48.273913,14.6217391 49.5713043,15.3408696 50.1947826,15.6869565 C50.2878261,15.7382609 50.3721739,15.7869565 50.4495652,15.82 C50.6747826,15.7765217 51.866087,14.7556522 53.8834783,10.3869565 L53.9347826,10.2773913 C54.3878261,9.3373913 55.0782609,8.7826087 55.8504348,8.80956522 C56.6217391,8.81565217 57.3165217,9.36608696 57.7565217,10.32 C57.94,10.6678261 58.2191304,11.266087 58.5382609,11.9521739 C59.2513043,13.4834783 60.3295652,15.7982609 60.92,16.4243478 C61.2208696,16.7913043 61.3973913,16.7730435 61.4547826,16.7713043 C61.8852174,16.7356522 62.4643478,16.0469565 62.7373913,15.5695652 C63.2973913,14.4895652 64.0365217,13.3617391 65.1695652,13.3617391 C66.8078261,13.4086957 67.8686957,16.2721739 67.8791304,16.3008696 C68.0721739,16.7756522 68.3808696,17.1165217 68.76,17.2582609 C69.0756522,17.3756522 69.3130435,17.3165217 69.3556522,17.2947826 C70.6643478,16.1869565 71.7895652,15.7295652 72.7791304,15.8921739 C74.0269565,16.1017391 74.6913043,17.213913 75.2252174,18.1086957 C75.4808696,18.5365217 75.7704348,19.0217391 75.9843478,19.126087 C76.1843478,19.2243478 76.5008696,19.3173913 76.606087,19.3443478 C76.953913,19.4356522 77.1626087,19.7921739 77.0721739,20.14 C76.9947826,20.433913 76.7313043,20.6278261 76.4417391,20.6278261" id="Fill-359" fill="url(#linearGradient-1)"></path>
                <path d="M82.3913043,59.5652174 L0.652173913,59.5652174 C0.292173913,59.5652174 0,59.2730435 0,58.9130435 C0,58.5530435 0.292173913,58.2608696 0.652173913,58.2608696 L82.3913043,58.2608696 C82.7513043,58.2608696 83.0434783,58.5530435 83.0434783,58.9130435 C83.0434783,59.2730435 82.7513043,59.5652174 82.3913043,59.5652174" id="Fill-360" fill="#131615"></path>
                <path d="M33.1208696,23.5252174 L35.2947826,23.5252174 L35.2947826,7.43826087 L33.1208696,7.43826087 L33.1208696,23.5252174 Z M35.9469565,24.8295652 L32.4686957,24.8295652 C32.1086957,24.8295652 31.8165217,24.5373913 31.8165217,24.1773913 L31.8165217,6.78608696 C31.8165217,6.42608696 32.1086957,6.13391304 32.4686957,6.13391304 L35.9469565,6.13391304 C36.3069565,6.13391304 36.5991304,6.42608696 36.5991304,6.78608696 L36.5991304,24.1773913 C36.5991304,24.5373913 36.3069565,24.8295652 35.9469565,24.8295652 Z M20.8556522,24.8295652 L17.3773913,24.8295652 C17.0173913,24.8295652 16.7252174,24.5373913 16.7252174,24.1773913 L16.7252174,6.78608696 C16.7252174,6.42608696 17.0173913,6.13391304 17.3773913,6.13391304 L20.8556522,6.13391304 C21.2156522,6.13391304 21.5078261,6.42608696 21.5078261,6.78608696 L21.5078261,24.1773913 C21.5078261,24.5373913 21.2156522,24.8295652 20.8556522,24.8295652 Z M28.4017391,24.8295652 L24.9234783,24.8295652 C24.5634783,24.8295652 24.2713043,24.5373913 24.2713043,24.1773913 L24.2713043,15.4817391 C24.2713043,15.1217391 24.5634783,14.8295652 24.9234783,14.8295652 L28.4017391,14.8295652 C28.7617391,14.8295652 29.053913,15.1217391 29.053913,15.4817391 L29.053913,24.1773913 C29.053913,24.5373913 28.7617391,24.8295652 28.4017391,24.8295652 Z M13.3104348,24.8295652 L9.83217391,24.8295652 C9.47217391,24.8295652 9.18,24.5373913 9.18,24.1773913 L9.18,19.4469565 C9.18,19.0869565 9.47217391,18.7947826 9.83217391,18.7947826 L13.3104348,18.7947826 C13.6704348,18.7947826 13.9626087,19.0869565 13.9626087,19.4469565 L13.9626087,24.1773913 C13.9626087,24.5373913 13.6704348,24.8295652 13.3104348,24.8295652 Z" id="Combined-Shape" fill="url(#linearGradient-2)"></path>
                <polygon id="Fill-362" fill="#FFFFFF" points="18.0295652 23.5252174 20.2034783 23.5252174 20.2034783 7.43826087 18.0295652 7.43826087"></polygon>
                <polygon id="Fill-363" fill="#FFFFFF" points="25.5756522 23.5252174 27.7495652 23.5252174 27.7495652 16.133913 25.5756522 16.133913"></polygon>
                <polygon id="Fill-364" fill="#FFFFFF" points="10.4843478 23.5252174 12.6582609 23.5252174 12.6582609 20.0991304 10.4843478 20.0991304"></polygon>
                <path d="M60.986087,37.16 L60.9947826,37.16 L60.986087,37.16 Z M65.2469565,39.3904348 L68.0452174,39.3904348 C67.6608696,36.0356522 64.9008696,33.366087 61.5226087,33.1078261 L61.5295652,35.8895652 C63.4017391,36.1217391 64.9034783,37.5408696 65.2469565,39.3904348 Z M68.7417391,40.6947826 L64.666087,40.6947826 C64.3156522,40.6947826 64.0286957,40.4191304 64.013913,40.0695652 C63.9469565,38.4382609 62.6165217,37.16 60.9852174,37.16 L60.9747826,36.5121739 L60.9565217,37.1617391 C60.7747826,37.1747826 60.5834783,37.1113043 60.4513043,36.9878261 C60.32,36.8652174 60.2278261,36.6947826 60.2269565,36.5147826 L60.2165217,32.44 C60.2156522,32.0817391 60.5034783,31.7895652 60.8617391,31.786087 L60.9852174,31.7834783 C65.533913,31.7834783 69.306087,35.4826087 69.393913,40.0295652 C69.3973913,40.2052174 69.3295652,40.373913 69.2069565,40.5 C69.0843478,40.6243478 68.9165217,40.6947826 68.7417391,40.6947826 Z M58.7695652,50.9165217 L58.7678261,50.906087 C58.7269565,50.913913 58.6817391,50.9147826 58.6426087,50.9165217 C54.0730435,50.8495652 50.3565217,47.0773913 50.3565217,42.5078261 C50.3565217,37.9382609 54.0730435,34.166087 58.6408696,34.0982609 C58.8113043,34.0895652 58.9834783,34.1626087 59.1078261,34.2852174 C59.2321739,34.4069565 59.3026087,34.573913 59.3034783,34.7478261 L59.3043478,38.826087 C59.3043478,39.1782609 59.0243478,39.4669565 58.6730435,39.4773913 C57.0243478,39.5286957 55.7321739,40.86 55.7321739,42.5078261 C55.7321739,44.1382609 56.9973913,45.4591304 58.6217391,45.5356522 C58.6391304,45.5347826 58.6573913,45.533913 58.6756522,45.5347826 L58.7521739,46.1921739 L58.7730435,45.5408696 C60.4434783,45.5408696 61.8052174,44.1791304 61.8052174,42.5052174 C61.8052174,42.4991304 61.7982609,42.3852174 61.7982609,42.38 C61.7904348,42.2026087 61.8565217,42.0295652 61.9791304,41.9008696 C62.1017391,41.7730435 62.2721739,41.7 62.4495652,41.7 L66.5252174,41.7 C66.8791304,41.7 67.1686957,41.9826087 67.1773913,42.3365217 L66.5252174,42.3521739 L67.1791304,42.3834783 L67.1817391,42.5052174 C67.1817391,47.1434783 63.4078261,50.9165217 58.7695652,50.9165217 Z" id="Combined-Shape" fill="url(#linearGradient-2)"></path>
                <path d="M58.6547826,49.6095652 C58.6565217,49.6095652 58.6591304,49.6095652 58.6617391,49.6095652 L58.7695652,50.2643478 L58.7695652,49.6121739 C62.5208696,49.6121739 65.6026087,46.6913043 65.86,43.0043478 L63.0808696,43.0043478 C62.8321739,45.1634783 60.993913,46.8452174 58.7695652,46.8452174 C58.7582609,46.8452174 58.7034783,46.8426087 58.673913,46.8408696 C58.66,46.8426087 58.646087,46.8426087 58.6321739,46.8408696 C56.2747826,46.7678261 54.4278261,44.8643478 54.4278261,42.5078261 C54.4278261,40.366087 55.9530435,38.5982609 58,38.2382609 L58,35.4434783 C54.4486957,35.8295652 51.6608696,38.8695652 51.6608696,42.5078261 C51.6608696,46.3513043 54.7730435,49.526087 58.6086957,49.6113043 C58.6243478,49.6104348 58.6391304,49.6095652 58.6547826,49.6095652 Z" id="Fill-366" fill="#FFFFFF"></path>
            </g>
        </g>
    </g>
</svg>