<svg xmlns="http://www.w3.org/2000/svg" width="230" height="147" viewBox="0 0 230 147">
  <defs>
    <linearGradient id="ai-tracking-ans-a" x1="0%" y1="50%" y2="50%">
      <stop offset="0%" stop-color="#FC4A1A"/>
      <stop offset="100%" stop-color="#F7B733"/>
    </linearGradient>
  </defs>
  <g fill="none" fill-rule="evenodd" transform="translate(1 1)">
    <path stroke="#97A3CC" d="M0.382719732,40.6046938 C0.388820067,40.8122509 0.412458863,41.0205739 0.45363612,41.227365 C0.494050836,41.4326244 0.552766555,41.636352 0.628258194,41.8385478 C0.706037458,42.0461049 0.802117726,42.2521302 0.916498997,42.4558578 C1.04003077,42.6756691 1.18491371,42.8924169 1.35191037,43.1053352 C1.54635853,43.3534846 1.77054582,43.5955069 2.02294716,43.8306361 C2.41260602,44.1913718 2.8701311,44.5337261 3.39704749,44.8523377 C3.44127492,44.878378 3.4847398,44.9044184 3.52972977,44.9304588 L150.319027,130.4141 L150.344191,142.775616 L3.5541311,57.2919755 C3.50990368,57.2651692 3.46567625,57.2391288 3.42221137,57.2130885 C2.89453244,56.8944769 2.43700736,56.5513567 2.04811104,56.1913869 C1.79494716,55.9562577 1.57152241,55.7142354 1.37631171,55.466086 C1.20931505,55.2531677 1.06519465,55.0364199 0.940900334,54.8166086 C0.826519064,54.612881 0.731201338,54.4068557 0.652659532,54.1992986 C0.577167893,53.9963369 0.519214716,53.7926093 0.478037458,53.5881158 C0.436860201,53.3813247 0.413983946,53.1730017 0.407883612,52.9654446 C0.406358528,52.9332771 0.406358528,52.9018755 0.405595987,52.869708 L0.381194649,40.5089572 C0.381194649,40.5411247 0.381957191,40.5725263 0.382719732,40.6046938 Z"/>
    <path fill="#E9EBEE" d="M.382719732 40.6046938C.388820067 40.8122509.412458863 41.0205739.45363612 41.227365.494050836 41.4326244.552766555 41.636352.628258194 41.8385478.706037458 42.0461049.802117726 42.2521302.916498997 42.4558578 1.04003077 42.6756691 1.18491371 42.8924169 1.35191037 43.1053352 1.54635853 43.3534846 1.77054582 43.5955069 2.02294716 43.8306361 2.41260602 44.1913718 2.8701311 44.5337261 3.39704749 44.8523377 3.44127492 44.878378 3.4847398 44.9044184 3.52972977 44.9304588L150.319027 130.4141 150.344191 142.775616 3.5541311 57.2919755C3.50990368 57.2651692 3.46567625 57.2391288 3.42221137 57.2130885 2.89453244 56.8944769 2.43700736 56.5513567 2.04811104 56.1913869 1.79494716 55.9562577 1.57152241 55.7142354 1.37631171 55.466086 1.20931505 55.2531677 1.06519465 55.0364199.940900334 54.8166086.826519064 54.612881.731201338 54.4068557.652659532 54.1992986.577167893 53.9963369.519214716 53.7926093.478037458 53.5881158.436860201 53.3813247.413983946 53.1730017.407883612 52.9654446.406358528 52.9332771.406358528 52.9018755.405595987 52.869708L.381194649 40.5089572C.381194649 40.5411247.381957191 40.5725263.382719732 40.6046938M227.482082 91.9026904C227.486657 93.5256182 226.419098 95.1508436 224.286269 96.3885271L165.617827 130.409504 165.642229 142.770255 224.31067 108.749278C226.445025 107.51236 227.511058 105.886369 227.506483 104.263441L227.482082 91.9026904z"/>
    <path fill="#FFF" d="M3.5796,36.0258012 C-0.665470234,38.487382 -0.687583946,42.4692609 3.53003478,44.9308417 L150.319332,130.414483 C154.528563,132.871468 161.372376,132.871468 165.618209,130.409887 L224.285888,96.38891 C228.52257,93.9319245 228.553072,89.9454503 224.343841,87.4884648 L77.5545431,2.004824 C73.3369244,-0.456756838 66.4839612,-0.451395586 62.2480415,2.004824 L3.5796,36.0258012 Z"/>
    <path stroke="#97A3CC" d="M3.5796,36.0258012 C-0.665470234,38.487382 -0.687583946,42.4692609 3.53003478,44.9308417 L150.319332,130.414483 C154.528563,132.871468 161.372376,132.871468 165.618209,130.409887 L224.285888,96.38891 C228.52257,93.9319245 228.553072,89.9454503 224.343841,87.4884648 L77.5545431,2.004824 C73.3369244,-0.456756838 66.4839612,-0.451395586 62.2480415,2.004824 L3.5796,36.0258012 Z"/>
    <path fill="#E9EBEE" d="M165.617904,130.409811 C165.127589,130.693957 164.603723,130.94517 164.052405,131.16345 C163.628432,131.331946 163.187683,131.479763 162.737021,131.609965 C162.367188,131.715659 161.98973,131.808332 161.606934,131.887985 C161.253877,131.96151 160.896245,132.023548 160.534037,132.075628 C160.186318,132.124646 159.835549,132.164472 159.482492,132.193576 C159.128673,132.22268 158.773328,132.241827 158.417984,132.250252 C158.048914,132.260209 157.679081,132.257911 157.310773,132.244891 C156.909676,132.231871 156.509342,132.205064 156.112058,132.165238 C155.64767,132.118518 155.187094,132.054183 154.734907,131.972233 C154.030318,131.845095 153.344031,131.6743 152.688245,131.460616 C151.839536,131.184129 151.040392,130.835647 150.31979,130.414406 L150.344191,142.775923 C151.065556,143.195632 151.863937,143.544879 152.713409,143.821367 C153.369195,144.035051 154.05472,144.205845 154.759308,144.332984 C155.212258,144.414934 155.672071,144.479269 156.136459,144.525989 C156.533743,144.565049 156.934078,144.592621 157.335937,144.605642 C157.704245,144.618662 158.073315,144.620959 158.442385,144.611003 C158.798492,144.601812 159.153074,144.583431 159.506894,144.554327 C159.859951,144.525223 160.21072,144.485396 160.558439,144.435613 C160.920646,144.384298 161.279041,144.322261 161.631335,144.247969 C162.014894,144.169082 162.392352,144.076409 162.761422,143.970716 C163.213609,143.84128 163.652833,143.692697 164.076807,143.5242 C164.628124,143.305921 165.152753,143.054708 165.642305,142.770561 L165.617904,130.409811 Z"/>
    <path stroke="#97A3CC" d="M227.482082,91.9026904 C227.486657,93.5256182 226.419098,95.1508436 224.286269,96.3885271 L165.617827,130.409504 C165.128276,130.693651 164.603647,130.94563 164.052329,131.163909 C163.628356,131.33164 163.188369,131.480223 162.736944,131.610425 C162.367112,131.715352 161.989654,131.808791 161.606858,131.887678 C161.253801,131.96197 160.896169,132.024007 160.533961,132.075322 C160.186242,132.125105 159.835473,132.164166 159.482416,132.19327 C159.128597,132.223139 158.773252,132.241521 158.417908,132.250712 C158.048837,132.259136 157.679005,132.257605 157.31146,132.24535 C156.9096,132.231564 156.509266,132.204758 156.111981,132.164932 C155.647593,132.118978 155.187018,132.054643 154.734831,131.971926 C154.030242,131.844788 153.343955,131.67476 152.688169,131.46031 C151.83946,131.183822 151.040316,130.835341 150.319714,130.4141 L3.52965351,44.9304588 C3.48542609,44.9044184 3.44119866,44.878378 3.39697124,44.8523377 C2.87005485,44.5337261 2.41252977,44.1913718 2.02363344,43.8306361 C1.77046957,43.5955069 1.54628227,43.3534846 1.35183411,43.1053352 C1.18483746,42.8924169 1.03995452,42.6756691 0.916422742,42.4558578 C0.802041472,42.2521302 0.705961204,42.0461049 0.62818194,41.8385478 C0.552690301,41.636352 0.494737124,41.4326244 0.453559866,41.227365 C0.412382609,41.0205739 0.388743813,40.8122509 0.382643478,40.6046938 C0.381880936,40.5725263 0.381118395,40.5411247 0.381118395,40.5089572 L0.405519732,52.869708 C0.406282274,52.9018755 0.406282274,52.9332771 0.407807358,52.9654446 C0.413907692,53.1730017 0.436783946,53.3813247 0.478723746,53.5881158 C0.519138462,53.7926093 0.577854181,53.9963369 0.653345819,54.1985327 C0.730362542,54.4068557 0.826442809,54.612881 0.94082408,54.8166086 C1.06511839,55.0364199 1.21000134,55.2531677 1.37623545,55.466086 C1.57144615,55.7142354 1.7948709,55.9562577 2.04803478,56.1913869 C2.4369311,56.5513567 2.89521873,56.8944769 3.42213512,57.2130885 C3.4656,57.2391288 3.50982742,57.2651692 3.55405485,57.2912096 L150.344115,142.775616 C151.06548,143.196092 151.863861,143.545339 152.713332,143.821061 C153.369118,144.034745 154.054643,144.205539 154.759232,144.332677 C155.212182,144.414628 155.671995,144.478963 156.136383,144.525682 C156.534429,144.565509 156.934001,144.592315 157.335861,144.606101 C157.704169,144.618355 158.074001,144.620653 158.442309,144.610696 C158.798416,144.602272 159.153761,144.583124 159.506817,144.55402 C159.859874,144.524916 160.210643,144.48509 160.558363,144.436073 C160.92057,144.383992 161.278965,144.321955 161.632021,144.248429 C162.014055,144.168776 162.392276,144.076103 162.761346,143.97041 C163.213533,143.840974 163.652757,143.69239 164.077493,143.523894 C164.628048,143.305614 165.152677,143.054401 165.642229,142.770255 L224.31067,108.749278 C226.445025,107.51236 227.511058,105.886369 227.506483,104.263441 L227.482082,91.9026904 Z"/>
    <polygon fill="#E9EBEE" points="8 45.44 141.901 123 212 82.56 78.099 5"/>
    <polygon fill="#FFF" points="8 45.44 141.901 123 212 82.56 78.099 5"/>
    <polygon fill="#E9EBEE" points="14 50.455 56.713 75 127 34.545 84.287 10"/>
    <polygon fill="url(#ai-tracking-ans-a)" points="42 64.434 91.13 93 161 52.567 111.87 24"/>
    <polygon fill="#3D4B7A" points="8 44.872 17.436 50 88 10.127 78.564 5"/>
    <polygon stroke="#97A3CC" points="8 45.44 141.901 123 212 82.56 78.099 5"/>
    <g transform="translate(11 9)">
      <path fill="#3D4B7A" d="M43.7435602 1.07815522C45.0180366.345125373 47.0805657.345125373 48.3466423 1.07815522 49.6134826 1.81118507 49.6066101 3.00245373 48.3321336 3.73624478 47.0492574 4.47460299 44.9859647 4.47460299 43.7198881 3.74157313 42.454575 3.00778209 42.4606839 1.81651343 43.7435602 1.07815522zM14.2033491 18.8045373C13.1854479 19.3906567 13.1801026 20.345194 14.1911313 20.9305522 15.2113233 21.5212388 16.8645537 21.522 17.8824549 20.9358806L40.6168548 7.85171642C41.634756 7.26635821 41.6401013 6.3110597 40.6206729 5.72113433 39.6088806 5.13501493 37.9548866 5.13501493 36.9369853 5.72113433L14.2033491 18.8045373zM171.556903 94.4801642C168.708612 96.1190149 168.675013 98.7527463 171.504213 100.392358 174.315087 102.020552 178.89526 102.020552 181.744315 100.381701 184.573515 98.7527463 184.588024 96.1083582 181.77715 94.4801642 178.94795 92.8405522 174.386103 92.851209 171.556903 94.4801642"/>
      <path stroke="#97A3CC" d="M40.6227346,68.4456537 C40.6112804,68.3581164 40.596008,68.2698179 40.5769176,68.179997 C40.5616453,68.1076836 40.5433185,68.034609 40.5234644,67.9615343 C40.5051376,67.8968328 40.4852836,67.8321313 40.4639023,67.7674299 C40.4440483,67.7072955 40.422667,67.6479224 40.3997585,67.5885493 C40.3776136,67.5314597 40.3539415,67.4751313 40.3295058,67.4180418 C40.30507,67.3624746 40.2806343,67.3076687 40.2539077,67.2536239 C40.2279447,67.1988179 40.2004545,67.1455343 40.1722007,67.0922507 C40.1439469,67.038206 40.1134022,66.9856836 40.0828575,66.9331612 C40.0507856,66.8783552 40.0187137,66.8250716 39.9851146,66.7725493 C39.9492246,66.7169821 39.912571,66.6621761 39.8751538,66.6088925 C39.8339185,66.5510418 39.7919195,66.4939522 39.7483934,66.4376239 C39.6979947,66.3736836 39.6468323,66.3105045 39.5933792,66.2503701 C39.5261809,66.1734896 39.4566917,66.0988925 39.3849118,66.0281015 C39.1848442,65.8317134 38.9687406,65.6634896 38.7434736,65.5333254 L28.0803284,59.3958179 C27.989458,59.3440567 27.9001149,59.2999075 27.8130625,59.2633701 C27.7367009,59.2321612 27.6611028,59.2062806 27.5877956,59.1864896 C27.5305243,59.1712657 27.4747803,59.1590866 27.4197999,59.1507134 C27.3709284,59.1431015 27.3235842,59.1385343 27.2770035,59.1370119 C27.234241,59.1347284 27.1922421,59.1354896 27.1502431,59.1370119 C27.1112987,59.1400567 27.0723542,59.1446239 27.034937,59.1507134 C26.9982834,59.1575642 26.9623934,59.1659373 26.927267,59.1758328 C26.8929043,59.1857284 26.8593051,59.1979075 26.8264696,59.2108478 C26.7936341,59.2253104 26.7615622,59.2405343 26.7310175,59.2580418 L25.1885115,60.1372209 L24.9380452,60.2795642 C24.9418633,60.2780418 24.9456814,60.2765194 24.9487359,60.2742358 C24.9800442,60.2567284 25.0121161,60.2415045 25.0449516,60.2270418 C25.0777871,60.2141015 25.1113863,60.2019224 25.145749,60.1912657 C25.1808754,60.1821313 25.2167654,60.1737582 25.253419,60.1669075 C25.2908362,60.1600567 25.329017,60.1554896 25.3687251,60.153206 C25.4099604,60.1516836 25.4519594,60.1509224 25.4947219,60.1524448 C25.5413025,60.1539672 25.5894104,60.1592955 25.6375182,60.1669075 C25.6924986,60.1752806 25.7482427,60.1866985 25.8062776,60.2026836 C25.8788212,60.2224746 25.9544192,60.247594 26.0307809,60.2795642 C26.1178332,60.3161015 26.2071764,60.3602507 26.2980468,60.4120119 L36.961192,66.5495194 C37.186459,66.6789224 37.4025625,66.8471463 37.6026301,67.0442955 C37.6744101,67.1150866 37.7438992,67.1889224 37.8118611,67.265803 C37.8645507,67.3266985 37.9164766,67.3891164 37.9661117,67.4538179 C38.0096379,67.5101463 38.0516368,67.5672358 38.0928721,67.6250866 C38.1302893,67.6783701 38.1669429,67.7324149 38.2028329,67.7887433 C38.2364321,67.8412657 38.2692676,67.8945493 38.3005759,67.9493552 C38.3318842,68.0011164 38.3616652,68.0544 38.3899191,68.1084448 C38.4181729,68.1617284 38.4456631,68.2150119 38.4723897,68.2698179 C38.4983526,68.3238627 38.523552,68.3786687 38.5479877,68.4334746 C38.5716599,68.4905642 38.595332,68.5476537 38.6174769,68.6039821 C38.6403854,68.6633552 38.6617666,68.7234896 38.6816207,68.7836239 C38.7037656,68.8475642 38.7236196,68.9122657 38.7411828,68.9769672 C38.7618004,69.050803 38.7793636,69.1238776 38.7953996,69.196191 C38.8137264,69.2852507 38.8289987,69.3735493 38.8412166,69.4618478 C38.8572525,69.588206 38.8656523,69.713803 38.8656523,69.8371164 C38.8633615,70.4392209 38.6518396,70.8624448 38.3097393,71.0611164 L40.0912573,70.0449224 C40.4341213,69.8462507 40.6456431,69.4230269 40.6471704,68.8209224 C40.647934,68.6983701 40.6395342,68.5727731 40.6227346,68.4456537 Z"/>
      <path stroke="#97A3CC" d="M26.2978177 60.4122403C25.2463173 59.807091 24.3849576 60.2889269 24.3811395 61.501509 24.378085 62.7133299 25.2333359 64.1831955 26.2855998 64.7883448L36.948745 70.9258522C38.0071179 71.5348075 38.8623688 71.0491657 38.8654232 69.8373448 38.8684777 68.6247627 38.0200994 67.1579418 36.9609629 66.5497478L26.2978177 60.4122403zM16.5434529 54.4829194C16.531235 54.3953821 16.515199 54.3070836 16.4961086 54.2180239 16.4800727 54.1449493 16.4617459 54.0718746 16.4411282 53.9995612 16.4228014 53.9348597 16.4021837 53.8701582 16.3808025 53.8054567 16.3601848 53.7460836 16.3380399 53.6867104 16.3151314 53.6265761 16.2922229 53.5702478 16.2693144 53.5139194 16.2441151 53.4568299 16.2196793 53.4020239 16.1937164 53.3472179 16.1669898 53.2931731 16.1410268 53.2391284 16.1135366 53.1850836 16.0845192 53.1325612 16.0555017 53.0785164 16.024957 53.025994 15.9944124 52.9734716 15.9623405 52.9194269 15.9295049 52.8661433 15.8951422 52.8136209 15.8592522 52.7588149 15.821835 52.704009 15.7836541 52.6507254 15.7424188 52.5928746 15.7004199 52.5357851 15.6561301 52.4809791 15.6057314 52.4162776 15.5545691 52.3546209 15.5003523 52.2937254 15.4323904 52.2168448 15.3629013 52.143009 15.2903577 52.0729791 15.0887628 51.8781134 14.8726593 51.7106507 14.6458651 51.582009L3.94453902 45.5107254C3.85366862 45.4589642 3.76432545 45.4155761 3.67727314 45.3798 3.60014784 45.348591 3.52531339 45.3234716 3.45124256 45.3036806 3.39473491 45.2884567 3.33822727 45.2770388 3.28324686 45.2694269 3.23437538 45.2618149 3.18703114 45.2572478 3.14045051 45.2557254 3.09768797 45.254203 3.05492543 45.2549642 3.01445374 45.2572478 2.97474567 45.2602925 2.93656483 45.2648597 2.89838398 45.2717104 2.86173038 45.2785612 2.826604 45.2869343 2.79147763 45.2968299 2.75711487 45.3074866 2.72275212 45.3189045 2.69068021 45.3333672 2.65784469 45.3470687 2.62577278 45.3630537 2.59522811 45.3805612L1.05806746 46.2696358.809128378 46.4135015C.812182845 46.4112179.816000929 46.4096955.819055396 46.4074119.850363686 46.3899045.881671975 46.3739194.915271115 46.3602179.947343021 46.3465164.980942161 46.3343373 1.01606853 46.3236806 1.05043129 46.3137851 1.08632128 46.3054119 1.12297489 46.2985612 1.16039211 46.2917104 1.19857295 46.2871433 1.23828103 46.2840985 1.27951634 46.2818149 1.32151526 46.2810537 1.36504142 46.2825761 1.41162204 46.2840985 1.45896629 46.2886657 1.50783776 46.2962776 1.56281817 46.3038896 1.6185622 46.3160687 1.67583346 46.3312925 1.74914068 46.3503224 1.82473874 46.3754418 1.90110042 46.4066507 1.98891636 46.4424269 2.07825952 46.4858149 2.16912993 46.5375761L12.870456 52.6088597C13.0964866 52.7375015 13.3133537 52.9049642 13.5149486 53.0998299 13.5867285 53.1698597 13.6569813 53.2436955 13.7249432 53.3205761 13.7783964 53.3807104 13.8303223 53.4431284 13.880721 53.5070687 13.9242472 53.563397 13.9670097 53.6197254 14.008245 53.6775761 14.0464259 53.7308597 14.0838431 53.7849045 14.1197331 53.8404716 14.1533322 53.892994 14.1869314 53.9462776 14.2190033 54.0003224 14.2495479 54.0528448 14.2800926 54.1053672 14.3091101 54.1594119 14.3373639 54.2126955 14.3648541 54.2659791 14.3915807 54.3200239 14.4183073 54.3740687 14.4435066 54.4288746 14.4679424 54.4836806 14.4931417 54.5407701 14.5168138 54.5970985 14.5389587 54.6534269 14.5626308 54.7128 14.5847757 54.7721731 14.6046298 54.8323075 14.6267747 54.897009 14.6473923 54.9609493 14.6657191 55.0256507 14.6863368 55.0987254 14.7046636 55.1718 14.7206995 55.2441134 14.7397899 55.3339343 14.7558259 55.4222328 14.7680438 55.5097701 14.7848433 55.6361284 14.7940067 55.7617254 14.7947704 55.8842776 14.7962976 56.4871433 14.5870666 56.9111284 14.2464935 57.1120836L16.0219026 56.0852328C16.3632393 55.8842776 16.5724703 55.4602925 16.5701794 54.8581881 16.5701794 54.7356358 16.561016 54.6100388 16.5434529 54.4829194z"/>
      <path stroke="#97A3CC" d="M2.16928265,46.5375761 C1.11396421,45.9385164 0.25565891,46.4256806 0.259476994,47.6382627 C0.263295078,48.8500836 1.12847293,50.3146209 2.18379137,50.9136806 L12.8851174,56.9857254 C13.9465448,57.588591 14.7987412,57.0968597 14.7949231,55.8850388 C14.7903414,54.6732179 13.9320361,53.2117254 12.8706087,52.6088597 L2.16928265,46.5375761 Z"/>
      <path fill="#336EC8" d="M115.714445,33.8507552 C107.92479,39.5231731 98.0000622,39.3602776 98.0000622,39.3602776 L90.2493515,32.0406358 L92.7448512,19.703203 L92.8105223,19.3705612 C94.4874248,19.2510537 102.299988,18.8887254 106.018802,16.7170388 C109.740671,14.544591 112.645469,9.95763582 116.7606,11.8872627 C118.307688,12.6119194 119.644017,15.0949343 120.297673,18.2120239 C121.383536,23.3850985 120.577157,30.3104418 115.714445,33.8507552"/>
      <path fill="#4F4F4F" d="M115.714445,33.8507552 C107.92479,39.5231731 98.0000622,39.3602776 98.0000622,39.3602776 L90.2493515,32.0406358 L92.7448512,19.703203 L92.8105223,19.3705612 C94.4874248,19.2510537 102.299988,18.8887254 106.018802,16.7170388 C109.740671,14.544591 112.645469,9.95763582 116.7606,11.8872627 C118.307688,12.6119194 119.644017,15.0949343 120.297673,18.2120239 C121.383536,23.3850985 120.577157,30.3104418 115.714445,33.8507552"/>
      <path fill="#336EC8" d="M120.297597 18.2117194C119.741684 18.6174358 119.178898 18.4834657 118.728364 17.5205552 116.549765 12.8650925 113.099745 15.7500179 108.560043 18.0130478 104.021104 20.2753164 101.206413 20.4564806 96.48497 20.6376448 96.48497 20.6376448 94.6148724 20.4488687 92.7447749 19.7028985L92.8104459 19.3702567C94.4873484 19.2507493 102.299912 18.8891821 106.018726 16.7167343 109.740594 14.5450478 112.645393 9.95809254 116.760524 11.8877194 118.307611 12.6116149 119.644704 15.0946299 120.297597 18.2117194M67.3716971 43.504294C68.4613783 41.5731448 74.2717387 37.2290104 77.6614337 32.0407119 81.0511288 26.8516522 81.6559133 24.0763388 82.2614614 21.421294 82.8670096 18.7670104 84.5614753 16.5945627 88.4353034 17.9220851 92.3083679 19.2496075 95.2482926 22.2662194 92.8100641 28.4204731 90.3718356 34.5747269 95.2139298 31.4789507 88.4353034 39.3618761 81.6559133 47.2448015 81.5352618 47.8019955 76.9344705 50.7211746 72.3352064 53.6403537 67.3716971 43.504294 67.3716971 43.504294"/>
      <path fill="#FFF" d="M95.3354213,37.9532866 C98.6457002,34.7326746 103.445795,31.3164358 102.840247,26.9723015 C102.235463,22.6281672 96.9092355,18.4050627 94.2457401,16.4739134 C91.5822446,14.5435254 87.5877651,12.3718388 86.1353659,17.197809 C84.6822031,22.0253015 82.7456708,27.8172269 79.1139093,32.7649881 C75.4821477,37.7119881 66.7662254,44.4698687 65.3138262,46.1589582 C63.8606634,47.848809 65.5558927,53.278406 72.0932163,51.4682866 C78.6297762,49.6581672 92.0824136,41.1175701 95.3354213,37.9532866"/>
      <path fill="#E9526A" d="M96.3674494,30.4112239 C98.1382768,28.7244179 98.9431289,27.642 98.6437911,25.4916269 C98.2131112,22.3981343 94.4194629,19.3906567 92.5234024,18.0159403 C90.6265782,16.6412239 87.7828692,15.0944776 86.7474048,18.5312687 C86.4259221,19.5992239 86.2884711,20.1099851 85.8745907,21.2723284 C88.1845316,22.216209 95.3205307,28.5683731 96.3674494,30.4112239"/>
      <path fill="#336EC8" d="M124.606534,37.343494 C124.199526,38.2280015 123.783355,39.0044194 123.420637,39.5235537 C123.420637,39.5235537 117.329266,42.984703 109.442631,48.4241955 C107.220506,49.9564791 104.854821,51.6432851 102.443319,53.4572104 C100.528932,54.8966284 98.5893452,56.4091209 96.6650309,57.9863149 C96.0892638,58.4620612 95.4944063,58.9111657 94.8842765,59.3313448 C81.78443,68.5037328 61.4966584,67.4312104 58.1733981,65.5761806 C54.6913054,63.6381806 52.8456435,62.9317925 52.6028134,59.3123149 C52.5386696,58.3128672 52.6570302,57.3735537 52.9151327,56.5080761 C53.3618485,55.0298373 54.2300808,53.7540761 55.3113622,52.7059119 C55.8871293,52.1471955 56.5262766,51.6524194 57.1959685,51.2276731 C58.9721412,50.0950164 62.9353125,47.009897 65.3605595,45.1008224 C66.5510381,44.161509 67.3696354,43.5045985 67.3696354,43.5045985 C67.3696354,43.5045985 68.7044376,43.9887179 69.6711764,45.7980761 C70.638679,47.6081955 73.0593443,50.1399269 75.9656699,48.4485537 C77.5830103,47.5092403 80.3106495,44.9729418 82.8359303,42.2334045 C84.8495879,40.0525836 86.7395395,37.7385537 87.8307479,36.0228224 C89.7107725,33.0564493 92.3101242,29.6249866 95.2164498,30.7127328 C99.4820133,32.3097179 101.992022,32.404106 107.681731,32.0425388 C109.858802,31.8994343 111.630393,30.4508821 112.984286,28.4877627 C115.171284,25.3181507 118.4556,20.9968522 118.4556,18.4651209 C118.4556,14.4947328 116.863459,12.0467328 116.763425,11.8937328 C120.26079,13.8370612 120.608236,16.2249269 122.354628,19.4196582 C122.65702,19.9829418 123.003702,20.5660164 123.420637,21.1795388 C123.996404,22.0351209 124.46221,22.9203896 124.834855,23.804897 C126.247546,27.167091 126.312454,30.5148224 126.252892,32.0425388 C126.207838,33.3335239 125.435058,35.5531657 124.606534,37.343494 Z"/>
      <path fill="#FFF" d="M124.833786,23.8046687 C121.829718,26.5487731 120.955376,29.5174299 120.297902,33.0577433 C119.54574,37.1088179 113.00918,42.5384149 107.017079,46.2492358 C106.006814,46.8749373 104.896515,47.5531612 103.747271,48.2580269 C101.413658,49.6898328 98.8677599,50.7699672 96.1844105,51.3248776 C94.2432965,51.7267881 91.9669548,52.8533552 89.425638,55.0136239 C83.5457885,60.0123851 75.9058023,62.5159522 66.8439616,62.5616239 C57.0704299,62.6103403 54.1984671,59.9119075 52.9163545,56.508609 C52.6551975,57.3740866 52.5391277,58.3118776 52.6040352,59.3105642 C52.8445745,62.930803 54.6925272,63.637191 58.1715654,65.5767134 C61.4955894,67.4309821 81.7741975,68.4966537 94.8748076,59.3303552 L94.8832074,59.3326388 C94.9778959,59.2664149 95.0695299,59.1971463 95.1634548,59.1301612 C95.3016694,59.0304448 95.4414113,58.9314896 95.5780987,58.8294896 C95.9469256,58.5569821 96.3111708,58.2783851 96.6662527,57.9860866 C98.5913307,56.4081313 100.530917,54.8941164 102.444541,53.4569821 C104.856043,51.6430567 107.220201,49.9562507 109.443089,48.4254896 C117.330487,42.9844746 123.420331,39.5233254 123.420331,39.5233254 C123.779995,39.0057134 124.201511,38.2270119 124.608519,37.3440269 C125.43628,35.5521761 126.206769,33.3332955 126.25335,32.0407881 C126.312148,30.5130716 126.246477,27.1676239 124.833786,23.8046687"/>
      <path fill="#E9526A" d="M58.1717181 65.577094C58.1717181 65.577094 70.6400535 67.2760791 81.0512051 64.5007657 91.4615932 61.724691 97.51402 53.882109 104.171995 49.5379746 110.82997 45.1938403 122.792791 38.7982881 126.253503 32.0404075 126.253503 32.0404075 128.141163 34.8157209 127.172134 39.0395866 126.203867 43.2634522 121.361773 48.0894224 112.282369 51.9509597 103.203729 55.812497 96.0616209 61.9469597 89.5250609 65.577094 82.9877374 69.2072284 66.8876404 71.9627507 58.1717181 65.577094M89.1429471 38.5914716C88.8260461 38.5914716 88.5190721 38.424009 88.3564218 38.1271433 87.0521642 35.7575463 80.5324039 23.8212627 80.2636107 21.5445313 80.2055759 21.0543224 80.5576032 20.6097851 81.0493724 20.5519343 81.5419053 20.4948448 81.9870939 20.8457552 82.0451288 21.3359642 82.2215243 22.8263821 86.9735117 31.8982925 89.9279452 37.266994 90.1669572 37.7001134 90.0081249 38.243606 89.573627 38.4810985 89.4369395 38.5556955 89.2880343 38.5914716 89.1429471 38.5914716"/>
      <path fill="#E9526A" d="M93.3174875,33.9514612 C93.3067968,33.9514612 93.2976334,33.9514612 93.2869428,33.9514612 C89.2336648,33.8167299 78.2765271,29.5038045 77.812248,29.3203567 C77.3517871,29.1384313 77.1265201,28.619297 77.3090246,28.1595358 C77.4907654,27.7005358 78.0130793,27.4759836 78.4735402,27.657909 C78.5842646,27.7020582 89.6032553,32.040103 93.3465049,32.1634164 C93.8420922,32.1801627 94.229246,32.593491 94.21321,33.0867448 C94.1971741,33.570103 93.7993297,33.9514612 93.3174875,33.9514612"/>
      <path fill="#E9526A" d="M85.8752016,42.4483657 C85.5308105,42.4483657 85.2024552,42.2504552 85.0543136,41.9170522 L78.3703756,26.8933657 C78.1687807,26.4419776 78.37343,25.913709 78.8262548,25.7135149 C79.278316,25.5125597 79.8097933,25.7173209 80.0098609,26.1679478 L86.6937989,41.1916343 C86.8953937,41.6430224 86.6907444,42.171291 86.2386832,42.3714851 C86.119559,42.4240075 85.9966167,42.4483657 85.8752016,42.4483657"/>
      <path fill="#E9526A" d="M90.6537629,37.0546209 C90.5552564,37.0546209 90.4552226,37.0386358 90.356716,37.0043821 C85.5795292,35.3343224 77.80591,32.6754716 76.5153976,32.3824119 C76.2023147,32.4052478 75.8815956,32.2674716 75.6937459,31.9873522 C75.4799332,31.6676507 75.4929147,31.233009 75.7296359,30.9285313 C76.2572951,30.2518299 76.299294,30.1955015 90.9508099,35.3168149 C91.4181434,35.4804716 91.664028,35.9904716 91.4998504,36.4563224 C91.3700355,36.8247403 91.0241171,37.0546209 90.6537629,37.0546209"/>
      <path fill="#E9526A" d="M82.2435164,45.6953149 C81.8601808,45.6953149 81.5058626,45.4486881 81.3867384,45.0650463 L76.9226345,30.6754343 C76.77602,30.203494 77.0417587,29.7026284 77.5144375,29.5572403 C77.9871163,29.4095687 78.4895762,29.6752254 78.6361906,30.1471657 L83.1002945,44.5367776 C83.2469089,45.0087179 82.9819339,45.5095836 82.5092551,45.6549716 C82.4199119,45.6823746 82.3313324,45.6953149 82.2435164,45.6953149"/>
      <path fill="#E9526A" d="M87.5120143,40.549491 C87.4341254,40.549491 87.3562364,40.5395955 87.2775839,40.5182821 L72.933042,36.6620731 C72.4542543,36.5334313 72.1717161,36.0424612 72.3007673,35.5659537 C72.4298186,35.0886851 72.9208242,34.8062821 73.4003755,34.9356851 L87.7449174,38.791894 C88.2237051,38.9205358 88.507007,39.411506 88.3779557,39.8880134 C88.2695222,40.2868791 87.9075678,40.549491 87.5120143,40.549491"/>
      <path fill="#E9526A" d="M78.5052303,49.1768642 C78.1119676,49.1768642 77.7523041,48.9180582 77.6415797,48.5229985 L73.7433158,34.6030433 C73.6096829,34.1280582 73.888403,33.6348045 74.3656635,33.5023567 C74.8406332,33.366103 75.3377478,33.6469836 75.4706171,34.1227299 L79.3696445,48.0419239 C79.5025139,48.5176701 79.2237937,49.0109239 78.7465332,49.1441328 C78.6663535,49.1662075 78.5846465,49.1768642 78.5052303,49.1768642"/>
      <path fill="#E9526A" d="M83.907972,44.4948358 C83.7842661,44.4948358 83.6575057,44.4689552 83.5376178,44.4149104 L70.7004556,38.6009104 C70.249158,38.3969104 70.049854,37.8663582 70.2545033,37.4172537 C70.4606799,36.9673881 70.9913936,36.7687164 71.4426911,36.9734776 L84.2790898,42.7867164 C84.7303873,42.9907164 84.9304549,43.5212687 84.725042,43.9703731 C84.5746095,44.3007313 84.2485451,44.4948358 83.907972,44.4948358"/>
      <path fill="#E9526A" d="M75.9660517,50.5289731 C75.5704982,50.5289731 75.2085438,50.2663612 75.1001102,49.8674955 L71.7768498,37.597809 C71.6477986,37.1213015 71.9303368,36.6303313 72.4091245,36.5016896 C72.8871487,36.3730478 73.3789179,36.6554507 73.5087328,37.1319582 L76.8327568,49.402406 C76.961808,49.8789134 76.6792698,50.3698836 76.200482,50.4977642 C76.1218295,50.5190776 76.0439406,50.5289731 75.9660517,50.5289731"/>
      <path fill="#E9526A" d="M81.0645684,47.1434104 C80.9400989,47.1434104 80.8133385,47.1175299 80.6934506,47.0627239 L68.0800281,41.3256045 C67.6294942,41.1208433 67.4309538,40.5910522 67.6363667,40.1411866 C67.8425433,39.6928433 68.3740206,39.4941716 68.8245545,39.699694 L81.4372134,45.4360522 C81.888511,45.6408134 82.0870513,46.1713657 81.8808748,46.6204701 C81.7304423,46.9500672 81.4051415,47.1434104 81.0645684,47.1434104"/>
      <path fill="#E9526A" d="M75.6961131,50.5289731 C75.4723734,50.5289731 75.2486337,50.446003 75.0752927,50.2793015 L67.4253794,42.9398687 C67.0680067,42.5965701 67.0573161,42.031003 67.4017073,41.6755254 C67.7453348,41.3192866 68.3127021,41.3101522 68.6693112,41.650406 L76.3176972,48.9906 C76.6750699,49.3331373 76.6865241,49.8987045 76.3428966,50.2549433 C76.1665011,50.4368687 75.9320707,50.5289731 75.6961131,50.5289731"/>
      <path fill="#FFF" d="M78.7192721,54.0506373 C78.7192721,54.0506373 77.1485123,56.4796075 70.8822727,58.8294134 C66.2646818,60.5603687 60.8949284,60.6395328 56.8317233,57.3816224 C54.8272292,55.7739806 54.6493065,54.673294 55.3136531,52.7040851 C55.8878929,52.146891 56.5270402,51.6505925 57.1952049,51.2273687 C58.970614,50.0939507 62.5725945,47.3719209 64.9947871,45.4636075 C65.4315759,47.1184433 67.5162498,49.039697 69.5276165,50.7204134 C73.1670142,53.7613836 78.7192721,54.0506373 78.7192721,54.0506373"/>
      <path fill="#336EC8" d="M122.353559,19.4208 C121.398274,21.4402478 119.855004,21.2385313 118.275081,24.0762627 C116.459201,27.3341731 112.983217,28.4896657 112.983217,28.4896657 C112.983217,28.4896657 112.983217,28.4858597 112.987035,28.4820537 C115.733001,25.3938896 117.09453,22.4473075 117.668006,19.189397 C118.404133,15.0104418 116.760829,11.8880239 116.760829,11.8880239 C120.261249,13.8389642 120.610222,16.2245463 122.353559,19.4208"/>
      <polygon fill="url(#ai-tracking-ans-a)" points="124.779 88.44 135.59 95.309 170.798 75.046 159.986 68.177"/>
      <polygon fill="#FFF" points="114.114 69.831 115.057 70.374 114.875 70.48 113.932 69.936"/>
      <path fill="#FFF" d="M113.803876,69.6090627 C113.83442,69.6265701 113.852747,69.6524507 113.85122,69.6806149 C113.848929,69.7361821 113.770277,69.7818537 113.670243,69.7848985 C113.623662,69.7848985 113.5809,69.7742418 113.549591,69.7559731 C113.519047,69.7384657 113.499956,69.7148687 113.501484,69.6882269 C113.508356,69.6303761 113.587009,69.5854657 113.683224,69.5831821 C113.729805,69.5808985 113.772567,69.5915552 113.803876,69.6090627"/>
      <polygon fill="#FFF" points="117.895 68.73 117.713 68.835 116.256 67.997 116.439 67.892"/>
      <path fill="#FFF" d="M119.568266,67.6391687 C119.601102,67.6574373 119.619429,67.6856015 119.616374,67.7168104 C119.614083,67.7723776 119.531613,67.8195716 119.434633,67.821094 C119.384998,67.821094 119.339181,67.8104373 119.305582,67.7906463 C119.272747,67.7716164 119.252129,67.7457358 119.252129,67.7168104 C119.255183,67.6604821 119.33689,67.6132881 119.433106,67.6110045 C119.487323,67.6087209 119.534667,67.6201388 119.568266,67.6391687"/>
      <path fill="#3D4B7A" d="M10.4080208 2.94917015C10.7050678 3.11967761 10.7027769 3.39751343 10.4080208 3.5680209L5.56745384 6.3730209C5.26887966 6.54505075 4.79161915 6.54505075 4.49457221 6.37454328 4.19828889 6.20327463 4.19294357 5.9262 4.49151775 5.75340896L9.33284836 2.94917015C9.62760445 2.77790149 10.1109739 2.77790149 10.4080208 2.94917015M6.39865074.641458209C6.69569768.812726866 6.69340683 1.08980149 6.39865074 1.26030896L1.55808375 4.06530896C1.25950958 4.2381.782249066 4.2381.485202125 4.06683134.1889188 3.89632388.183573482 3.61848806.482147657 3.44645821L5.32271465.641458209C5.61823436.470950746 6.1016038.470950746 6.39865074.641458209M8.44231843 1.81780746C8.73860175 1.98831493 8.7408926 2.26767313 8.44537289 2.43894179L3.6048059 5.2431806C3.30623173 5.41597164 2.82591675 5.41368806 2.52886981 5.2431806 2.23258648 5.07191194 2.23105925 4.7971209 2.52886981 4.62432985L7.37020042 1.81932985C7.66495651 1.64882239 8.14527148 1.64653881 8.44231843 1.81780746" transform="translate(12.218 37.299)"/>
      <path fill="#3D4B7A" d="M74.4783734,9.67538507 C76.0208794,9.67690746 77.2701565,8.95301194 77.2648111,8.06089254 C77.2625203,7.61407164 76.9471466,7.20987761 76.4385778,6.9175791 C75.930009,6.6252806 75.2290087,6.44411642 74.4569921,6.44411642 C72.9099044,6.44411642 71.661391,7.16801194 71.6690271,8.05860896 C71.671318,8.50466866 71.9866917,8.90962388 72.4952605,9.20192239 C73.0038293,9.4942209 73.7048296,9.67538507 74.4783734,9.67538507 M81.6449172,8.05860896 C81.6502625,8.30904179 81.3020533,8.51075821 80.8675553,8.50923582 L78.3499106,8.51075821 C77.9902471,9.55663881 76.4011605,10.3444746 74.4783734,10.3444746 C73.3856377,10.3444746 72.3952267,10.0887134 71.6774269,9.67538507 C70.9596271,9.26281791 70.5136749,8.69192239 70.5098568,8.06089254 C70.5022206,6.79959403 72.2677027,5.77654925 74.4562285,5.77426567 C75.5466733,5.77426567 76.5363207,6.03002687 77.2548841,6.44259403 C77.7970521,6.75544478 78.1849694,7.15811642 78.3422745,7.60874328 L80.86221,7.60874328 C81.0783135,7.60874328 81.2730358,7.65898209 81.4143049,7.74042985 C81.5563376,7.82187761 81.6441536,7.93453433 81.6449172,8.05860896"/>
      <g transform="translate(7.39)">
        <path fill="#DCDCDC" d="M6.74612963 32.2722672C7.13175612 32.0499985 7.12946527 31.6922373 6.75071133 31.4722522 6.37119377 31.2530284 5.75113692 31.2507448 5.36551043 31.4722522 4.98370202 31.6922373 4.98522925 32.0499985 5.36474681 32.2699836 5.74350075 32.4899687 6.36432122 32.4922522 6.74612963 32.2722672M4.2416192 33.7135881C4.62342761 33.493603 4.62190037 33.1358418 4.2416192 32.9158567 3.86286526 32.6966328 3.2428084 32.6943493 2.861 32.9135731 2.4753735 33.1358418 2.47690074 33.493603 2.85641829 33.7135881 3.23593585 33.9335731 3.85599271 33.9358567 4.2416192 33.7135881M1.73336704 35.1571925C2.11517545 34.9372075 2.11670269 34.5771627 1.73794875 34.3571776 1.35843119 34.1379537.73455625 34.1379537.352747842 34.3571776-.0290605655 34.5771627-.031351416 34.9372075.348166141 35.1571925.727683699 35.3771776 1.35155864 35.3771776 1.73336704 35.1571925M11.7625576 29.3846776C12.144366 29.1646925 12.1428387 28.8069313 11.7633212 28.5869463 11.3838036 28.3677224 10.7637468 28.3654388 10.3819384 28.5854239 9.99631188 28.8069313 9.99783911 29.1646925 10.3773567 29.3846776 10.7568742 29.6046627 11.3769311 29.6069463 11.7625576 29.3846776M9.25438178 30.8286627C9.63619019 30.6086776 9.63771742 30.2486328 9.25896348 30.0286478 8.87944593 29.8094239 8.25557099 29.8094239 7.87376258 30.0286478 7.49195417 30.2486328 7.48966332 30.6086776 7.86918088 30.8286627 8.24869844 31.0486478 8.87257337 31.0486478 9.25438178 30.8286627M28.2798947 18.729103C28.3524383 18.6872373 28.3868011 18.6415657 28.3875647 18.5974164 28.3799285 18.5532672 28.3493839 18.5136851 28.2890581 18.4786701 28.2279688 18.4436552 28.1561888 18.4238642 28.0798271 18.419297 27.9996474 18.4170134 27.9240493 18.4390881 27.8507421 18.4809537 27.775144 18.5243418 27.7400176 18.5662075 27.7400176 18.6149239 27.7438357 18.6613567 27.7774349 18.7024612 27.8385242 18.7382373 27.8988499 18.7732522 27.9675755 18.7907597 28.0469916 18.7930433 28.1271714 18.7907597 28.2035331 18.7732522 28.2798947 18.729103M29.56552 19.4739313C29.4929764 19.515797 29.4586137 19.5622299 29.4624317 19.6079015 29.4654862 19.6543343 29.4960309 19.6939164 29.5601747 19.7312149 29.617446 19.7639463 29.6899895 19.7837373 29.7655876 19.7837373 29.8457674 19.7860209 29.9213654 19.7639463 29.9946727 19.7220806 30.0710343 19.6786925 30.1053971 19.6368269 30.101579 19.590394 30.101579 19.5462448 30.0679799 19.5051403 30.0107086 19.4716478 29.9465648 19.4343493 29.8778393 19.4168418 29.7984231 19.4145582 29.7182434 19.4122746 29.6418817 19.4297821 29.56552 19.4739313M33.3451942 16.972191C33.6452956 17.1419373 33.9064525 17.2408925 34.1271378 17.2713403 34.3508775 17.3002657 34.553236 17.262206 34.7326859 17.1594448 34.9121359 17.0559224 34.9778069 16.9348925 34.9212993 16.8009224 34.8609735 16.6646687 34.6830508 16.5086239 34.3760769 16.3305045L33.7995462 15.9971015C33.510899 15.834206 33.2527965 15.7329672 33.0321113 15.7025194 32.8083715 15.6697881 32.602195 15.708609 32.4196906 15.8144149 32.2318408 15.9225045 32.1631153 16.0404896 32.2188594 16.1698925 32.2715489 16.3023403 32.4502353 16.4538179 32.7572092 16.6319373L33.3451942 16.972191M32.1234073 15.6431463C32.4326721 15.4650269 32.7602637 15.394997 33.1061821 15.4277284 33.4521005 15.4604597 33.8361998 15.598997 34.2500801 15.8387731L34.7311587 16.1173701C35.1213669 16.3525791 35.3489247 16.567997 35.4008506 16.7704746 35.4535402 16.9683851 35.3305979 17.1571612 35.0289692 17.3307134 34.7197044 17.5088328 34.3921128 17.5788627 34.0416127 17.5438478 33.6918762 17.5088328 33.3047225 17.3680119 32.8839696 17.1236687L32.4173997 16.8534448C32.0149737 16.6167134 31.7881795 16.4012955 31.7362535 16.2033851 31.6873821 16.0077582 31.8141424 15.8212657 32.1234073 15.6431463M31.0334206 18.2001493C31.3327584 18.3691343 31.594679 18.4680896 31.8153642 18.4992985 32.0398676 18.5274627 32.242226 18.4901642 32.4209124 18.3866418 32.6003623 18.2831194 32.6660334 18.1628507 32.6095257 18.0288806 32.5492 17.8926269 32.3712773 17.7365821 32.0643033 17.5584627L31.4877726 17.2242985C31.1998891 17.061403 30.941023 16.9609254 30.7211013 16.9297164 30.496598 16.8969851 30.2904215 16.9365672 30.107917 17.0423731 29.9200673 17.1497015 29.8513418 17.2684478 29.9078494 17.3978507 29.960539 17.5295373 30.1384617 17.6810149 30.4454357 17.8591343L31.0334206 18.2001493M29.8116337 16.8703433C30.1208985 16.6929851 30.4484901 16.622194 30.7951722 16.6549254 31.1410906 16.6884179 31.5244262 16.8269552 31.9375429 17.0659701L32.4193851 17.3453284C32.8103569 17.5805373 33.0371511 17.7959552 33.0890771 17.9976716 33.1417666 18.1955821 33.0188243 18.3843582 32.7171957 18.5579104 32.4079309 18.7360299 32.0803393 18.8060597 31.7306028 18.7710448 31.3808663 18.7360299 30.9929489 18.5959701 30.5721961 18.3516269L30.1056262 18.081403C29.7032001 17.8439104 29.4764059 17.6284925 29.42448 17.4305821 29.3756085 17.2349552 29.5023689 17.0484627 29.8116337 16.8703433M26.3991829 20.6510418C26.6992843 20.8200269 26.9604412 20.9189821 27.1811265 20.950191 27.4056298 20.9783552 27.6079883 20.9410567 27.7866746 20.8375343 27.9661246 20.7347731 28.0317956 20.6137433 27.975288 20.4797731 27.9157259 20.3435194 27.7370395 20.1874746 27.4300656 20.0093552L26.8535349 19.675191C26.5656513 19.5122955 26.3067852 19.4118179 26.0868636 19.3813701 25.8623603 19.3478776 25.6561837 19.3874597 25.4736793 19.4932657 25.2858296 19.600594 25.2171041 19.7193403 25.2736117 19.8487433 25.3263013 19.981191 25.504224 20.1326687 25.8111979 20.3107881L26.3991829 20.6510418M25.177396 19.3212358C25.4866608 19.1438776 25.8142524 19.0730866 26.1609344 19.1065791 26.5068529 19.1393104 26.8901885 19.2778478 27.3040688 19.5168627L27.7851474 19.7962209C28.1761192 20.0314299 28.4029134 20.2468478 28.4548394 20.4485642 28.5075289 20.6464746 28.3845866 20.8352507 28.082958 21.008803 27.7736932 21.1869224 27.4461015 21.2569522 27.096365 21.2219373 26.7466285 21.1869224 26.3587112 21.0468627 25.9379583 20.8025194L25.4713885 20.5322955C25.0689624 20.294803 24.8421682 20.0801463 24.7902423 19.8822358 24.7421344 19.6858478 24.8681312 19.4993552 25.177396 19.3212358M24.0874857 21.8786955C24.3875871 22.0476806 24.6495077 22.1466358 24.8694293 22.1778448 25.0939327 22.206009 25.2962911 22.1687104 25.4757411 22.0651881 25.655191 21.9624269 25.7200984 21.841397 25.6635908 21.7074269 25.6040287 21.5711731 25.426106 21.4151284 25.119132 21.237009L24.5418377 20.9028448C24.2539542 20.7399493 23.9950881 20.6394716 23.7751664 20.6090239 23.5506631 20.5755313 23.3452502 20.6151134 23.1619821 20.7209194 22.9741324 20.8282478 22.9054069 20.946994 22.9619145 21.076397 23.0146041 21.2088448 23.1925268 21.3603224 23.4995008 21.5384418L24.0874857 21.8786955M22.8656988 20.5488896C23.1749636 20.3715313 23.5025552 20.3007403 23.8492373 20.3342328 24.1951557 20.3669642 24.5784913 20.5055015 24.9923716 20.7445164L25.4734502 21.0238746C25.864422 21.2590836 26.0919798 21.4745015 26.1439058 21.6762179 26.1958317 21.8741284 26.0728894 22.0636657 25.7712608 22.2364567 25.461996 22.4145761 25.1344044 22.4853672 24.7846679 22.449591 24.4349313 22.4145761 24.047014 22.2745164 23.6262611 22.0301731L23.1596913 21.7599493C22.7572652 21.5224567 22.530471 21.3078 22.4785451 21.1098896 22.4304372 20.9142627 22.5571976 20.727009 22.8656988 20.5488896"/>
        <polygon fill="#3D4B7A" points="59.028 3.263 55.94 1.474 50.652 4.517 53.74 6.306"/>
        <path fill="#DCDCDC" d="M55.940463 1.47435672L50.6524166 4.51761045 53.7397193 6.30641642 59.0277658 3.26316269 55.940463 1.47435672zM60.3304961 1.62811791L61.1345846 2.09396866C61.4270498 2.26371493 61.4285771 2.53774478 61.1353482 2.70749104L54.3047958 6.63829701C54.0115669 6.80728209 53.5320156 6.80728209 53.2395503 6.63829701L50.0575591 4.79468507C49.7650938 4.6257 49.7666211 4.34862537 50.0606135 4.1796403L56.8904023.248073134C57.1851584.0790880597 57.6601281.0813716418 57.9525933.250356716L58.7528637.713923881 58.9743126.586804478C59.2675415.417058209 59.7470928.417058209 60.0395581.586804478L60.5595811.887476119C60.8512827 1.05722239 60.8459374 1.33201343 60.551945 1.50099851L60.3304961 1.62811791zM16.0959303 25.457906C15.5423081 25.7760851 15.1986805 26.2168164 15.1956261 26.7024582 15.1948624 26.8250104 15.3620945 26.9216821 15.5751436 26.9216821 15.6774683 26.9239657 15.7691023 26.8980851 15.8378278 26.858503 15.9065533 26.8189209 15.9523703 26.7656373 15.9531339 26.7047418 15.9546612 26.3393687 16.2142909 26.0082493 16.6319893 25.7684731 17.0489241 25.5279358 17.6231639 25.379503 18.2554386 25.379503 18.3577633 25.379503 18.4509245 25.3551448 18.5196501 25.3155627 18.5876119 25.2767418 18.6303745 25.2219358 18.6326653 25.1618015 18.6296109 25.0407716 18.4631424 24.9441 18.2539114 24.9418164 17.4124057 24.9418164 16.6495525 25.1397269 16.0959303 25.457906M17.3595634 26.1908597C17.2305121 26.2654567 17.1426962 26.3651731 17.1220786 26.4778299 17.0716798 26.7396806 17.3931625 26.9748896 17.850569 27.0053373 18.1094351 27.0220836 18.3560833 26.9672776 18.5278971 26.8675612 18.6561847 26.7937254 18.7440007 26.6955313 18.7653819 26.5836358 18.8165443 26.3179791 18.4904799 26.0850537 18.0346006 26.0538448 17.7757345 26.0378597 17.5313772 26.0926657 17.3595634 26.1908597"/>
        <path fill="#DCDCDC" d="M14.7029405,24.6510403 C13.7896548,25.1762642 13.2215239,25.9024433 13.2169422,26.7024582 C13.2161785,26.8250104 13.382647,26.9216821 13.5964597,26.9216821 C13.6987844,26.9239657 13.7904184,26.8980851 13.8591439,26.858503 C13.9278694,26.8189209 13.9736864,26.7656373 13.9736864,26.7047418 C13.9797954,26.0242343 14.4631648,25.4084284 15.2389995,24.9616075 C16.0148342,24.5147866 17.0838977,24.2384731 18.2613948,24.2369507 C18.3637195,24.2369507 18.4576444,24.2125925 18.5256063,24.1737716 C18.5943318,24.1341896 18.6370943,24.0801448 18.6393852,24.0192493 C18.6363307,23.8982194 18.4690986,23.8015478 18.2598676,23.7992642 C16.8746667,23.7992642 15.6162262,24.1258164 14.7029405,24.6510403"/>
      </g>
    </g>
  </g>
</svg>
