<svg xmlns="http://www.w3.org/2000/svg" width="440" height="342" viewBox="0 0 440 342">
  <defs>
    <linearGradient id="ai-tracking-landing-a" x1="0%" y1="50%" y2="50%">
      <stop offset="0%" stop-color="#FC4A1A"/>
      <stop offset="100%" stop-color="#F7B733"/>
    </linearGradient>
  </defs>
  <g fill="none" fill-rule="evenodd" transform="translate(0 1)">
    <g transform="translate(0 62)">
      <path stroke="#97A3CC" d="M0.73858194,78.1290316 C0.750354515,78.5284 0.795973244,78.9292421 0.875438127,79.3271368 C0.953431438,79.7220842 1.06674247,80.1140842 1.21242809,80.5031368 C1.36252843,80.9025053 1.54794649,81.2989263 1.76868227,81.6909263 C2.00707692,82.1138737 2.28667559,82.5309263 2.60894983,82.9406105 C2.98420067,83.4180842 3.41684281,83.8837684 3.90393311,84.3361895 C4.65590635,85.0302947 5.5388495,85.6890316 6.55570569,86.3020842 C6.64105686,86.3521895 6.72493645,86.4022947 6.8117592,86.4524 L290.089351,250.934716 L290.137913,274.719979 L6.8588495,110.237663 C6.77349833,110.186084 6.68814716,110.135979 6.60426756,110.085874 C5.5859398,109.472821 4.70299666,108.812611 3.95249498,108.119979 C3.46393311,107.667558 3.03276254,107.201874 2.65604013,106.7244 C2.33376589,106.314716 2.0556388,105.897663 1.81577258,105.474716 C1.59503679,105.082716 1.4110903,104.686295 1.25951839,104.286926 C1.11383278,103.8964 1.00199331,103.5044 0.922528428,103.110926 C0.843063545,102.713032 0.798916388,102.312189 0.787143813,101.912821 C0.784200669,101.850926 0.784200669,101.790505 0.782729097,101.728611 L0.735638796,77.9448211 C0.735638796,78.0067158 0.737110368,78.0671368 0.73858194,78.1290316 Z"/>
      <path fill="#E9EBEE" d="M.73858194 78.1290316C.750354515 78.5284.795973244 78.9292421.875438127 79.3271368.953431438 79.7220842 1.06674247 80.1140842 1.21242809 80.5031368 1.36252843 80.9025053 1.54794649 81.2989263 1.76868227 81.6909263 2.00707692 82.1138737 2.28667559 82.5309263 2.60894983 82.9406105 2.98420067 83.4180842 3.41684281 83.8837684 3.90393311 84.3361895 4.65590635 85.0302947 5.5388495 85.6890316 6.55570569 86.3020842 6.64105686 86.3521895 6.72493645 86.4022947 6.8117592 86.4524L290.089351 250.934716 290.137913 274.719979 6.8588495 110.237663C6.77349833 110.186084 6.68814716 110.135979 6.60426756 110.085874 5.5859398 109.472821 4.70299666 108.812611 3.95249498 108.119979 3.46393311 107.667558 3.03276254 107.201874 2.65604013 106.7244 2.33376589 106.314716 2.0556388 105.897663 1.81577258 105.474716 1.59503679 105.082716 1.4110903 104.686295 1.25951839 104.286926 1.11383278 103.8964 1.00199331 103.5044.922528428 103.110926.843063545 102.713032.798916388 102.312189.787143813 101.912821.784200669 101.850926.784200669 101.790505.782729097 101.728611L.735638796 77.9448211C.735638796 78.0067158.737110368 78.0671368.73858194 78.1290316M439.000508 176.833453C439.009338 179.956189 436.949137 183.083347 432.833151 185.464821L319.613351 250.925874 319.660441 274.709663 432.880241 209.248611C436.999171 206.868611 439.056428 203.739979 439.047599 200.617242L439.000508 176.833453z"/>
      <path fill="#FFF" d="M6.908,69.3186105 C-1.2842408,74.0550316 -1.32691639,81.7167158 6.81234783,86.4531368 L290.08994,250.935453 C298.213017,255.663032 311.420375,255.663032 319.614087,250.926611 L432.832415,185.465558 C441.008468,180.737979 441.067331,173.067453 432.944254,168.339874 L149.666662,3.85755789 C141.527398,-0.878863158 128.302381,-0.868547368 120.127799,3.85755789 L6.908,69.3186105 Z"/>
      <path stroke="#97A3CC" d="M6.908,69.3186105 C-1.2842408,74.0550316 -1.32691639,81.7167158 6.81234783,86.4531368 L290.08994,250.935453 C298.213017,255.663032 311.420375,255.663032 319.614087,250.926611 L432.832415,185.465558 C441.008468,180.737979 441.067331,173.067453 432.944254,168.339874 L149.666662,3.85755789 C141.527398,-0.878863158 128.302381,-0.868547368 120.127799,3.85755789 L6.908,69.3186105 Z"/>
      <path fill="#E9EBEE" d="M319.613498,250.926463 C318.667278,251.4732 317.656308,251.956568 316.592361,252.376568 C315.774167,252.700779 314.923599,252.9852 314.0539,253.235726 C313.340187,253.439095 312.611759,253.617411 311.87303,253.770674 C311.191692,253.912147 310.501525,254.031516 309.802528,254.131726 C309.131492,254.226042 308.454569,254.302674 307.773231,254.358674 C307.090421,254.414674 306.404669,254.451516 305.718916,254.467726 C305.006676,254.486884 304.292963,254.482463 303.582194,254.457411 C302.808147,254.432358 302.035572,254.380779 301.268883,254.304147 C300.372696,254.214253 299.483866,254.090463 298.611224,253.932779 C297.251492,253.688147 295.927077,253.359516 294.661525,252.948358 C293.023666,252.416358 291.481458,251.745832 290.090823,250.935305 L290.137913,274.720568 C291.53002,275.528147 293.070756,276.200147 294.710087,276.732147 C295.975639,277.143305 297.298582,277.471937 298.658314,277.716568 C299.532428,277.874253 300.419786,277.998042 301.315973,278.087937 C302.082662,278.163095 302.855237,278.216147 303.630756,278.2412 C304.341525,278.266253 305.053766,278.270674 305.766007,278.251516 C306.453231,278.233832 307.137512,278.198463 307.820321,278.142463 C308.501659,278.086463 309.178582,278.009832 309.849619,277.914042 C310.548615,277.815305 311.240254,277.695937 311.92012,277.552989 C312.660321,277.4012 313.388749,277.222884 314.10099,277.019516 C314.973632,276.770463 315.821258,276.484568 316.639452,276.160358 C317.703398,275.740358 318.715839,275.256989 319.660589,274.710253 L319.613498,250.926463 Z"/>
      <path stroke="#97A3CC" d="M439.000508,176.833453 C439.009338,179.956189 436.949137,183.083347 432.833151,185.464821 L319.613351,250.925874 C318.668602,251.472611 317.656161,251.957453 316.592214,252.377453 C315.77402,252.700189 314.924923,252.986084 314.053753,253.236611 C313.34004,253.438505 312.611612,253.618295 311.872883,253.770084 C311.191545,253.913032 310.501378,254.0324 309.802381,254.131137 C309.131344,254.226926 308.454421,254.302084 307.773084,254.358084 C307.090274,254.415558 306.404522,254.450926 305.718769,254.468611 C305.006528,254.484821 304.292816,254.481874 303.583518,254.458295 C302.808,254.431768 302.035425,254.380189 301.268736,254.303558 C300.372548,254.215137 299.483719,254.091347 298.611077,253.932189 C297.251344,253.687558 295.92693,253.3604 294.661378,252.947768 C293.023518,252.415768 291.481311,251.745242 290.090676,250.934716 L6.81161204,86.4524 C6.72626087,86.4022947 6.6409097,86.3521895 6.55555853,86.3020842 C5.53870234,85.6890316 4.6557592,85.0302947 3.90525753,84.3361895 C3.41669565,83.8837684 2.98405351,83.4180842 2.60880268,82.9406105 C2.28652843,82.5309263 2.00692977,82.1138737 1.76853512,81.6909263 C1.54779933,81.2989263 1.36238127,80.9025053 1.21228094,80.5031368 C1.06659532,80.1140842 0.954755853,79.7220842 0.87529097,79.3271368 C0.795826087,78.9292421 0.750207358,78.5284 0.738434783,78.1290316 C0.736963211,78.0671368 0.735491639,78.0067158 0.735491639,77.9448211 L0.78258194,101.728611 C0.784053512,101.790505 0.784053512,101.850926 0.786996656,101.912821 C0.798769231,102.312189 0.842916388,102.713032 0.923852843,103.110926 C1.00184615,103.5044 1.11515719,103.8964 1.26084281,104.285453 C1.40947157,104.686295 1.59488963,105.082716 1.81562542,105.474716 C2.05549164,105.897663 2.3350903,106.314716 2.65589298,106.7244 C3.03261538,107.201874 3.46378595,107.667558 3.95234783,108.119979 C4.7028495,108.812611 5.58726421,109.472821 6.6041204,110.085874 C6.688,110.135979 6.77335117,110.186084 6.85870234,110.236189 L290.137766,274.719979 C291.529873,275.529032 293.070609,276.201032 294.70994,276.731558 C295.975492,277.142716 297.298435,277.471347 298.658167,277.715979 C299.532281,277.873663 300.419639,277.997453 301.315826,278.087347 C302.083987,278.163979 302.85509,278.215558 303.630609,278.242084 C304.341378,278.265663 305.05509,278.270084 305.76586,278.250926 C306.453084,278.234716 307.138836,278.197874 307.820174,278.141874 C308.501512,278.085874 309.178435,278.009242 309.849472,277.914926 C310.548468,277.814716 311.240107,277.695347 311.921445,277.553874 C312.658702,277.400611 313.388602,277.222295 314.100843,277.018926 C314.973485,276.769874 315.82111,276.483979 316.640776,276.159768 C317.703251,275.739768 318.715692,275.2564 319.660441,274.709663 L432.880241,209.248611 C436.999171,206.868611 439.056428,203.739979 439.047599,200.617242 L439.000508,176.833453 Z"/>
      <polygon fill="#E9EBEE" points="16 86.796 273.957 236 409 158.204 151.043 9"/>
      <polygon fill="#FFF" points="16 86.796 273.957 236 409 158.204 151.043 9"/>
      <polygon fill="#E9EBEE" points="29 95.799 111.024 143 246 65.201 163.976 18"/>
      <polygon fill="url(#ai-tracking-landing-a)" points="80 123.937 174.956 179 310 101.064 215.044 46"/>
      <polygon fill="#3D4B7A" points="16 86.972 34.046 97 169 19.027 150.954 9"/>
      <polygon stroke="#97A3CC" points="16 86.796 273.957 236 409 158.204 151.043 9"/>
      <g transform="translate(21 17)">
        <path fill="#3D4B7A" d="M84.3965427 2.0823194C86.8554511.666565672 90.834787.666565672 93.2774893 2.0823194 95.7216649 3.49807313 95.7084053 5.79885672 93.2494969 7.2160806 90.7743824 8.64212537 86.7935733 8.64212537 84.350871 7.22637164 81.909642 5.80914776 81.9214282 3.50836418 84.3965427 2.0823194zM27.4032008 36.3185672C25.4393153 37.4505821 25.4290023 39.2941493 27.3796282 40.424694 29.3479336 41.5655299 32.5375901 41.567 34.5014756 40.4349851L78.3640405 15.1645896C80.327926 14.0340448 80.3382389 12.1890075 78.3714069 11.0496418 76.4193076 9.91762687 73.2281779 9.91762687 71.2642924 11.0496418L27.4032008 36.3185672zM330.992937 182.476396C325.497594 185.641627 325.432769 190.728343 330.891281 193.895045 336.314434 197.039694 345.151182 197.039694 350.647998 193.874463 356.10651 190.728343 356.134502 185.621045 350.71135 182.476396 345.252838 179.309694 336.451449 179.330276 330.992937 182.476396"/>
        <path stroke="#97A3CC" d="M78.3753847,132.194057 C78.3532855,132.02499 78.3238198,131.854452 78.2869878,131.680975 C78.2575221,131.54131 78.2221634,131.400176 78.183858,131.259042 C78.1484992,131.134079 78.1101939,131.009116 78.068942,130.884154 C78.0306366,130.768012 77.9893847,130.65334 77.9451863,130.538669 C77.9024611,130.428407 77.8567893,130.319616 77.8096443,130.209355 C77.7624992,130.102034 77.7153542,129.996184 77.6637893,129.891803 C77.6136977,129.785952 77.5606595,129.683042 77.5061481,129.580131 C77.4516366,129.475751 77.3927053,129.37431 77.333774,129.27287 C77.2718962,129.167019 77.2100183,129.064109 77.1451939,128.962669 C77.0759496,128.855348 77.0052321,128.749497 76.9330412,128.646587 C76.853484,128.534855 76.7724534,128.424594 76.6884763,128.315803 C76.5912397,128.19231 76.4925298,128.070288 76.3894,127.954146 C76.2597511,127.805661 76.1256824,127.661587 75.9871939,127.524863 C75.6011939,127.145564 75.184255,126.820661 74.7496366,126.569266 L54.1767206,114.715452 C54.0014,114.615482 53.829026,114.530213 53.6610718,114.459646 C53.5137435,114.39937 53.3678885,114.349385 53.2264534,114.311161 C53.1159573,114.281758 53.0084076,114.258236 52.9023313,114.242064 C52.8080412,114.227363 52.7166977,114.218542 52.6268275,114.215601 C52.5443237,114.211191 52.4632931,114.212661 52.3822626,114.215601 C52.3071252,114.221482 52.2319878,114.230303 52.1597969,114.242064 C52.0890794,114.255296 52.0198351,114.271467 51.9520641,114.290579 C51.8857664,114.309691 51.820942,114.333213 51.7575908,114.358206 C51.6942397,114.386139 51.6323618,114.415542 51.5734305,114.449355 L48.5974,116.147378 L48.1141634,116.422296 C48.1215298,116.419355 48.1288962,116.416415 48.1347893,116.412004 C48.1951939,116.378191 48.2570718,116.348788 48.3204229,116.320855 C48.383774,116.295863 48.4485985,116.27234 48.5148962,116.251758 C48.5826672,116.234116 48.6519115,116.217945 48.722629,116.204713 C48.7948198,116.191482 48.868484,116.182661 48.9450947,116.178251 C49.0246519,116.17531 49.1056824,116.17384 49.1881863,116.176781 C49.2780565,116.179721 49.3708733,116.190012 49.4636901,116.204713 C49.5697664,116.220885 49.677316,116.242937 49.7892855,116.27381 C49.9292473,116.312034 50.0751023,116.360549 50.2224305,116.422296 C50.3903847,116.492863 50.5627588,116.578131 50.7380794,116.678101 L71.3109954,128.531915 C71.7456137,128.78184 72.1625527,129.106743 72.5485527,129.487512 C72.6870412,129.624236 72.8211099,129.76684 72.9522321,129.915325 C73.0538885,130.032937 73.1540718,130.15349 73.2498351,130.278452 C73.3338122,130.387243 73.4148427,130.497504 73.4944,130.609236 C73.5665908,130.712146 73.6373084,130.816527 73.7065527,130.925318 C73.7713771,131.026758 73.8347282,131.129669 73.8951328,131.235519 C73.9555374,131.33549 74.0129954,131.4384 74.0675069,131.542781 C74.1220183,131.645691 74.1750565,131.748601 74.2266214,131.854452 C74.276713,131.958833 74.3253313,132.064684 74.3724763,132.170534 C74.4181481,132.280796 74.4638198,132.391057 74.506545,132.499848 C74.5507435,132.614519 74.5919954,132.730661 74.6303008,132.846803 C74.673026,132.970296 74.7113313,133.095258 74.7452168,133.220221 C74.7849954,133.362825 74.8188809,133.50396 74.8498198,133.643624 C74.8851786,133.815631 74.9146443,133.986169 74.9382168,134.156706 C74.9691557,134.400751 74.9853618,134.643325 74.9853618,134.88149 C74.980942,136.044378 74.5728427,136.861781 73.9128122,137.24549 L77.3499802,135.28284 C78.011484,134.899131 78.4195832,134.081728 78.4225298,132.91884 C78.4240031,132.682146 78.4077969,132.439572 78.3753847,132.194057 Z"/>
        <path stroke="#97A3CC" d="M50.7376374 116.678543C48.7089275 115.509774 47.0470649 116.440378 47.0396985 118.782326 47.0338053 121.122804 48.6838817 123.961662 50.7140649 125.130431L71.2869809 136.984244C73.3289504 138.160363 74.9790267 137.222408 74.9849198 134.881931 74.990813 132.539983 73.3539962 129.707005 71.3105534 128.532356L50.7376374 116.678543zM31.9180748 105.226815C31.8945023 105.057748 31.8635634 104.88721 31.8267313 104.715203 31.7957924 104.574069 31.7604336 104.432934 31.720655 104.29327 31.6852962 104.168307 31.6455176 104.043345 31.6042656 103.918382 31.564487 103.80371 31.5217618 103.689039 31.4775634 103.572897 31.4333649 103.464106 31.3891664 103.355315 31.3405481 103.245054 31.2934031 103.139203 31.2433115 103.033352 31.1917466 102.928972 31.141655 102.824591 31.0886168 102.72021 31.0326321 102.61877 30.9766473 102.51439 30.917716 102.412949 30.8587847 102.311509 30.7969069 102.207128 30.7335557 102.104218 30.667258 102.002778 30.5980137 101.896927 30.5258229 101.791076 30.4521588 101.688166 30.3726015 101.576434 30.291571 101.466173 30.2061206 101.360322 30.108884 101.23536 30.010174 101.116278 29.905571 100.998666 29.7744489 100.850181 29.6403802 100.707576 29.5004183 100.572322 29.1114718 100.195964 28.6945328 99.8725313 28.2569679 99.6240761L7.61038779 87.8981657C7.43506718 87.7981955 7.26269313 87.714397 7.09473893 87.6453 6.9459374 87.5850239 6.80155573 87.536509 6.65864733 87.4982851 6.54962443 87.4688821 6.44060153 87.4468299 6.33452519 87.4321284 6.24023511 87.4174269 6.1488916 87.408606 6.05902137 87.4056657 5.97651756 87.4027254 5.89401374 87.4041955 5.81592977 87.408606 5.73931908 87.4144866 5.66565496 87.4233075 5.59199084 87.4365388 5.52127328 87.4497701 5.45350229 87.4659418 5.3857313 87.4850537 5.31943359 87.5056358 5.25313588 87.5276881 5.19125802 87.5556209 5.12790687 87.5820836 5.06602901 87.6129567 5.00709771 87.6467701L2.04138015 89.3639045 1.56109008 89.6417627C1.56698321 89.6373522 1.57434962 89.6344119 1.58024275 89.6300015 1.64064733 89.5961881 1.70105191 89.5653149 1.76587634 89.5388522 1.8277542 89.5123896 1.89257863 89.4888672 1.96034962 89.4682851 2.02664733 89.4491731 2.0958916 89.4330015 2.16660916 89.4197701 2.2388 89.4065388 2.31246412 89.3977179 2.38907481 89.3918373 2.46863206 89.3874269 2.5496626 89.3859567 2.63363969 89.388897 2.72350992 89.3918373 2.81485344 89.4006582 2.90914351 89.4153597 3.01521985 89.4300612 3.12276947 89.4535836 3.23326565 89.4829866 3.37470076 89.5197403 3.52055573 89.5682552 3.66788397 89.6285313 3.83731145 89.6976284 4.0096855 89.7814269 4.18500611 89.881397L24.8315863 101.607307C25.2676779 101.855763 25.6860901 102.179196 26.0750366 102.555554 26.2135252 102.690807 26.3490672 102.833412 26.4801893 102.981897 26.5833191 103.098039 26.6835023 103.218591 26.7807389 103.342084 26.864716 103.450875 26.9472198 103.559666 27.0267771 103.671397 27.1004412 103.774307 27.1726321 103.878688 27.2418763 103.986009 27.3067008 104.087449 27.3715252 104.19036 27.4334031 104.29474 27.4923344 104.396181 27.5512656 104.497621 27.6072504 104.602001 27.6617618 104.704912 27.7148 104.807822 27.7663649 104.912203 27.8179298 105.016584 27.8665481 105.122434 27.9136931 105.228285 27.9623115 105.338546 28.0079832 105.447337 28.0507084 105.556128 28.0963802 105.6708 28.1391053 105.785472 28.1774107 105.901613 28.2201359 106.026576 28.2599145 106.150069 28.2952733 106.275031 28.3350519 106.416166 28.3704107 106.5573 28.4013496 106.696964 28.4381817 106.870442 28.4691206 107.040979 28.4926931 107.210046 28.5251053 107.454091 28.5427847 107.696666 28.544258 107.93336 28.5472046 109.097718 28.1435252 109.916591 27.4864412 110.30471L30.9118229 108.321479C31.5703802 107.93336 31.9740595 107.114487 31.9696397 105.951599 31.9696397 105.714904 31.9519603 105.47233 31.9180748 105.226815z"/>
        <path stroke="#97A3CC" d="M4.18530076,89.881397 C2.14922443,88.7243896 0.493254962,89.6652851 0.500621374,92.0072328 C0.507987786,94.3477104 2.17721679,97.1762776 4.21329313,98.3332851 L24.8598733,110.060666 C26.9077359,111.225024 28.5519191,110.275307 28.5445527,107.93483 C28.535713,105.594352 26.8797435,102.771666 24.8318809,101.607307 L4.18530076,89.881397 Z"/>
        <path fill="#336EC8" d="M223.253413,65.3784194 C208.224459,76.3339716 189.076207,76.0193597 189.076207,76.0193597 L174.12239,61.8824045 L178.937077,38.0542254 L179.063779,37.4117701 C182.299108,37.1809567 197.37226,36.4811657 204.547146,32.2868299 C211.727924,28.0910239 217.332291,19.2319045 225.27181,22.9587328 C228.25668,24.3583149 230.834924,29.1539418 232.096054,35.174203 C234.191062,45.1653373 232.635276,58.5407552 223.253413,65.3784194"/>
        <path fill="#4F4F4F" d="M223.253413,65.3784194 C208.224459,76.3339716 189.076207,76.0193597 189.076207,76.0193597 L174.12239,61.8824045 L178.937077,38.0542254 L179.063779,37.4117701 C182.299108,37.1809567 197.37226,36.4811657 204.547146,32.2868299 C211.727924,28.0910239 217.332291,19.2319045 225.27181,22.9587328 C228.25668,24.3583149 230.834924,29.1539418 232.096054,35.174203 C234.191062,45.1653373 232.635276,58.5407552 223.253413,65.3784194"/>
        <path fill="#336EC8" d="M232.095907 35.1736149C231.023357 35.9572045 229.937548 35.6984582 229.068311 33.8387194 224.865037 24.8472866 218.208747 30.4191522 209.450082 34.789906 200.692892 39.1591896 195.262373 39.5090851 186.153067 39.8589806 186.153067 39.8589806 182.544998 39.4943836 178.93693 38.0536373L179.063632 37.4111821C182.29896 37.1803687 197.372113 36.4820478 204.546998 32.2862418 211.727777 28.091906 217.332144 19.2327866 225.271663 22.9596149 228.256533 24.3577269 230.83625 29.1533537 232.095907 35.1736149M129.983437 84.0229993C132.085811 80.2932306 143.296018 71.9030888 149.835918 61.8825515 156.375819 51.860544 157.542659 46.5003799 158.710972 41.3724993 159.879285 36.2460888 163.148498 32.0502828 170.62246 34.6142231 178.094949 37.1781634 183.767086 43.0043649 179.062895 54.8905216 174.358705 66.7766784 183.700789 60.7975813 170.62246 76.022447 157.542659 91.2473127 157.30988 92.3234619 148.433353 97.9614843 139.559773 103.599507 129.983437 84.0229993 129.983437 84.0229993"/>
        <path fill="#FFF" d="M183.935188,73.3019358 C190.321867,67.0817343 199.582921,60.4837045 198.414608,52.0935627 C197.247768,43.7034209 186.971623,35.5470328 181.832814,31.8172642 C176.694005,28.0889657 168.987264,23.8946299 166.185081,33.2153761 C163.381424,42.5390627 159.64518,53.7254284 152.638249,63.2813985 C145.631318,72.8358985 128.815272,85.8878836 126.013089,89.1501448 C123.209432,92.4138761 126.480119,102.900451 139.09289,99.4044358 C151.704188,95.9084209 177.659005,79.4133463 183.935188,73.3019358"/>
        <path fill="#E9526A" d="M185.926329,58.735403 C189.342871,55.4775522 190.895711,53.387 190.318184,49.2338284 C189.487253,43.2591418 182.167985,37.4505821 178.509825,34.7954925 C174.850192,32.140403 169.363688,29.1530597 167.365917,35.7907836 C166.745665,37.853403 166.480474,38.8398731 165.681955,41.084791 C170.138634,42.9077761 183.906459,55.1761716 185.926329,58.735403"/>
        <path fill="#336EC8" d="M240.409345,72.1241993 C239.624085,73.8325127 238.821147,75.3320649 238.121337,76.3347067 C238.121337,76.3347067 226.368963,83.0194754 211.152902,93.5251619 C206.86565,96.4845724 202.301421,99.7424231 197.648795,103.245789 C193.955276,106.025841 190.213139,108.947028 186.500467,111.993177 C185.389612,112.91202 184.241925,113.779408 183.064773,114.590931 C157.790612,132.306229 118.648444,130.234789 112.236719,126.652035 C105.518551,122.909035 101.957627,121.544737 101.489124,114.554177 C101.365368,112.623871 101.593727,110.809707 102.091696,109.138147 C102.953566,106.283117 104.628689,103.819147 106.714856,101.794751 C107.825711,100.715662 109.058849,99.7600649 110.350918,98.9397216 C113.777773,96.7521396 121.424108,90.7936246 126.103253,87.1064903 C128.400101,85.2923261 129.97946,84.0235873 129.97946,84.0235873 C129.97946,84.0235873 132.554757,84.9586022 134.419933,88.453147 C136.286582,91.9491619 140.956887,96.8388784 146.5642,93.5722067 C149.684612,91.7580425 154.947177,86.8595052 159.819322,81.5684381 C163.704368,77.3564604 167.350742,72.8872067 169.456063,69.5734903 C173.083284,63.8443187 178.098337,57.2168858 183.70565,59.3177291 C191.935406,62.4021022 196.778085,62.5844007 207.755513,61.8860799 C211.955841,61.6096918 215.373856,58.8119978 217.985986,55.0204828 C222.205467,48.8987813 228.542055,40.552744 228.542055,35.6630276 C228.542055,27.9947291 225.470261,23.2667291 225.277261,22.9712291 C232.024895,26.7245201 232.695238,31.3363784 236.064635,37.5065948 C236.648055,38.5945052 237.316925,39.7206396 238.121337,40.9055799 C239.232192,42.5580276 240.130895,44.2678112 240.849856,45.9761246 C243.575429,52.4697739 243.700658,58.9354903 243.585742,61.8860799 C243.498818,64.379453 242.007856,68.6664082 240.409345,72.1241993 Z"/>
        <path fill="#FFF" d="M240.847794,45.9756836 C235.051901,51.2755716 233.364992,57.0091537 232.096496,63.8468179 C230.645313,71.6709522 218.034015,82.1575269 206.473168,89.3245045 C204.524015,90.5329672 202.381863,91.8428701 200.164573,93.2042284 C195.662221,95.9695791 190.750298,98.0557209 185.573183,99.1274597 C181.828099,99.9036985 177.436244,102.079519 172.53316,106.251803 C161.188885,115.906273 146.448695,120.741594 128.965252,120.829803 C110.10871,120.923893 104.567695,115.712213 102.094053,109.139176 C101.590191,110.810736 101.366252,112.62196 101.491481,114.550796 C101.955565,121.542825 105.520908,122.907124 112.233183,126.653064 C118.646382,130.234348 157.77087,132.292557 183.046504,114.589019 L183.06271,114.59343 C183.245397,114.465527 183.422191,114.331743 183.603405,114.20237 C183.870069,114.009781 184.139679,113.818661 184.403397,113.621661 C185.114992,113.095348 185.817748,112.557273 186.502824,111.992736 C190.216969,108.945116 193.959107,106.02099 197.651153,103.245348 C202.303779,99.7419821 206.865061,96.4841313 211.153786,93.5276612 C226.371321,83.0190343 238.120748,76.3342657 238.120748,76.3342657 C238.814664,75.3345642 239.627916,73.8306015 240.413176,72.1252284 C242.010214,68.664497 243.496756,64.3790119 243.586626,61.8826985 C243.700069,58.932109 243.573366,52.470803 240.847794,45.9756836"/>
        <path fill="#E9526A" d="M112.233478 126.653799C112.233478 126.653799 136.289234 129.935172 156.375966 124.575008 176.461226 119.213374 188.138463 104.066426 200.984012 95.6762843 213.829562 87.2861425 236.910005 74.9339485 243.586921 61.8819634 243.586921 61.8819634 247.228875 67.2421276 245.359279 75.3999858 243.491157 83.557844 234.149073 92.8785903 216.631745 100.336657 199.11589 107.794725 185.336279 119.642657 172.724982 126.653799 160.112211 133.664941 129.049524 138.986881 112.233478 126.653799M171.987751 74.534509C171.376339 74.534509 170.784079 74.2110761 170.47027 73.6377179 167.953904 69.0611433 155.375018 46.0077328 154.856423 41.6105164 154.744453 40.6637403 155.423637 39.8051731 156.372431 39.6934418 157.322698 39.5831806 158.181621 40.2609194 158.293591 41.2076955 158.633919 44.0862478 167.802156 61.6074866 173.502285 71.9764493 173.963423 72.8129642 173.65698 73.8626507 172.818682 74.3213373 172.554965 74.4654119 172.267675 74.534509 171.987751 74.534509"/>
        <path fill="#E9526A" d="M180.041892,65.5729201 C180.021266,65.5729201 180.003586,65.5729201 179.98296,65.5729201 C172.162777,65.3127037 151.022647,56.9828381 150.126892,56.6285321 C149.238502,56.2771664 148.803884,55.2745246 149.155998,54.3865545 C149.50664,53.5000545 150.514365,53.0663604 151.402754,53.4177261 C151.61638,53.5029948 172.875846,61.8813754 180.097876,62.1195396 C181.054037,62.1518828 181.800991,62.9501739 181.770052,63.9028306 C181.739113,64.8363754 180.971533,65.5729201 180.041892,65.5729201"/>
        <path fill="#E9526A" d="M165.683134,81.9836082 C165.018683,81.9836082 164.385172,81.6013694 164.099355,80.957444 L151.203714,51.9411082 C150.814767,51.0693097 151.209607,50.0490261 152.083263,49.6623769 C152.955447,49.2742575 153.980851,49.6697276 154.366851,50.540056 L167.262492,79.5563918 C167.651439,80.4281903 167.256599,81.4484739 166.384416,81.8351231 C166.154584,81.9365634 165.917385,81.9836082 165.683134,81.9836082"/>
        <path fill="#E9526A" d="M174.90264,71.5662776 C174.712587,71.5662776 174.519587,71.5354045 174.329534,71.4692478 C165.112679,68.2437403 150.114663,63.108509 147.624816,62.5425015 C147.02077,62.586606 146.401992,62.320509 146.039564,61.779494 C145.627045,61.1620313 145.652091,60.3225761 146.108808,59.7345164 C147.126847,58.4275537 147.207877,58.3187627 175.475747,68.2099269 C176.377396,68.526009 176.851793,69.511009 176.535037,70.4107403 C176.284579,71.1222925 175.617182,71.5662776 174.90264,71.5662776"/>
        <path fill="#E9526A" d="M158.67635,88.2546769 C157.936762,88.2546769 157.253159,87.7783485 157.023327,87.0373933 L148.410518,59.2456918 C148.127647,58.3341993 148.64035,57.366841 149.552311,57.0860425 C150.464273,56.8008336 151.433693,57.3139157 151.716563,58.2254082 L160.329373,86.0171097 C160.612243,86.9286022 160.101014,87.8959604 159.189052,88.176759 C159.016678,88.2296843 158.845777,88.2546769 158.67635,88.2546769"/>
        <path fill="#E9526A" d="M168.841115,78.3161739 C168.69084,78.3161739 168.540565,78.2970619 168.388817,78.2558978 L140.713206,70.8081216 C139.789458,70.5596664 139.244344,69.6114201 139.493328,68.6911067 C139.742313,67.7693231 140.689634,67.2238978 141.614855,67.4738231 L169.290466,74.9215993 C170.214214,75.1700545 170.760802,76.1183007 170.511817,77.0386142 C170.302611,77.8089724 169.604275,78.3161739 168.841115,78.3161739"/>
        <path fill="#E9526A" d="M151.463895,94.9788455 C150.705155,94.9788455 150.011239,94.4789948 149.797613,93.7159873 L142.276506,66.8313679 C142.018682,65.9139948 142.55643,64.9613381 143.477231,64.7055321 C144.393613,64.4423754 145.35272,64.9848604 145.609071,65.9037037 L153.131651,92.786853 C153.388002,93.7056963 152.850254,94.658353 151.929453,94.9156291 C151.774758,94.9582634 151.617117,94.9788455 151.463895,94.9788455"/>
        <path fill="#E9526A" d="M161.887663,85.9361045 C161.648992,85.9361045 161.404427,85.8861194 161.173121,85.7817388 L136.40577,74.5527388 C135.53506,74.1587388 135.150534,73.1340448 135.545373,72.2666567 C135.94316,71.3977985 136.967091,71.0140896 137.837801,71.4095597 L162.603679,82.6370896 C163.474389,83.0310896 163.860389,84.0557836 163.464076,84.9231716 C163.173839,85.5612164 162.544747,85.9361045 161.887663,85.9361045"/>
        <path fill="#E9526A" d="M146.564937,97.5902716 C145.801776,97.5902716 145.10344,97.0830701 144.894234,96.3127119 L138.482509,72.6153761 C138.233524,71.6950627 138.778639,70.7468164 139.702387,70.4983612 C140.624662,70.249906 141.573456,70.7953313 141.823914,71.7156448 L148.237112,95.4144507 C148.486097,96.3347642 147.940982,97.2830104 147.017234,97.5299955 C146.865486,97.5711597 146.715211,97.5902716 146.564937,97.5902716"/>
        <path fill="#E9526A" d="M156.401749,91.0514888 C156.161604,91.0514888 155.917039,91.0015037 155.685734,90.895653 L131.350054,79.8151381 C130.480818,79.4196679 130.097764,78.396444 130.494077,77.5275858 C130.891863,76.6616679 131.917268,76.277959 132.786505,76.6748993 L157.120711,87.753944 C157.991421,88.1494142 158.374474,89.1741082 157.976688,90.0414963 C157.686451,90.6780709 157.058833,91.0514888 156.401749,91.0514888"/>
        <path fill="#E9526A" d="M146.044131,97.5902716 C145.61246,97.5902716 145.180788,97.4300254 144.846353,97.1080627 L130.087009,82.9328836 C129.397513,82.2698463 129.376887,81.1775254 130.041337,80.4909657 C130.704315,79.8029358 131.798963,79.785294 132.486986,80.4424507 L147.243383,94.6191 C147.932879,95.2806672 147.954979,96.3729881 147.292002,97.0610179 C146.951673,97.4123836 146.499376,97.5902716 146.044131,97.5902716"/>
        <path fill="#FFF" d="M151.876856,104.391917 C151.876856,104.391917 148.846315,109.083163 136.756559,113.621514 C127.84762,116.964634 117.487498,117.117529 109.648162,110.82529 C105.780795,107.720335 105.437521,105.594499 106.719276,101.791223 C107.827185,100.715074 109.060322,99.7565366 110.349444,98.9391336 C113.774826,96.7500813 120.724299,91.4928276 125.397551,87.8071634 C126.240269,91.0032679 130.26233,94.7139246 134.142956,97.9600142 C141.16462,103.83326 151.876856,104.391917 151.876856,104.391917"/>
        <path fill="#336EC8" d="M236.062573,37.5088 C234.219496,41.409106 231.241992,41.0195164 228.193771,46.5002328 C224.690305,52.7924716 217.983924,55.0241582 217.983924,55.0241582 C217.983924,55.0241582 217.983924,55.0168075 217.99129,55.0094567 C223.289214,49.0450612 225.916076,43.3541134 227.022511,37.0618746 C228.442756,28.9907552 225.272252,22.960203 225.272252,22.960203 C232.025779,26.7281955 232.699069,31.3356433 236.062573,37.5088"/>
        <polygon fill="url(#ai-tracking-landing-a)" points="240.741 170.81 261.6 184.077 329.529 144.943 308.669 131.676"/>
        <polygon fill="#FFF" points="220.166 134.869 221.985 135.919 221.635 136.123 219.815 135.073"/>
        <path fill="#FFF" d="M219.56726,134.441033 C219.626192,134.474846 219.66155,134.524831 219.658604,134.579227 C219.654184,134.686548 219.502436,134.774757 219.309436,134.780637 C219.219566,134.780637 219.137062,134.760055 219.076657,134.724772 C219.017726,134.690958 218.980894,134.645384 218.98384,134.593928 C218.9971,134.482197 219.148848,134.395458 219.334482,134.391048 C219.424352,134.386637 219.506856,134.407219 219.56726,134.441033"/>
        <polygon fill="#FFF" points="227.46 132.744 227.11 132.947 224.299 131.328 224.651 131.124"/>
        <path fill="#FFF" d="M230.688775,130.636434 C230.752126,130.671717 230.787485,130.726113 230.781592,130.786389 C230.777172,130.89371 230.618057,130.984859 230.43095,130.987799 C230.335187,130.987799 230.24679,130.967217 230.181966,130.928993 C230.118615,130.89224 230.078836,130.842254 230.078836,130.786389 C230.084729,130.677598 230.24237,130.586449 230.428004,130.582038 C230.532607,130.577628 230.62395,130.59968 230.688775,130.636434"/>
        <path fill="#3D4B7A" d="M20.0806924 5.69594627C20.6537992 6.0252597 20.6493794 6.56186418 20.0806924 6.89117761L10.741555 12.3086776C10.1655015 12.6409313 9.2447 12.6409313 8.67159313 12.3116179 8.09995954 11.9808343 8.08964656 11.4457 8.6657 11.1119761L18.0063107 5.69594627C18.5749977 5.36516269 19.5075855 5.36516269 20.0806924 5.69594627M12.3452229 1.23889478C12.9183298 1.56967836 12.9139099 2.10481269 12.3452229 2.43412612L3.0060855 7.85162612C2.43003206 8.18535 1.50923053 8.18535.936123664 7.85456642.364490076 7.52525299.354177099 6.98864851.930230534 6.65639478L10.2693679 1.23889478C10.8395282.909581343 11.772116.909581343 12.3452229 1.23889478M16.2881687 3.51086343C16.8598023 3.84017687 16.8642221 4.37972164 16.2940618 4.71050522L6.95492443 10.1265351C6.37887099 10.460259 5.45217634 10.4558485 4.87906947 10.1265351 4.30743588 9.79575149 4.30448931 9.26502761 4.87906947 8.93130373L14.2196802 3.51380373C14.7883672 3.1844903 15.7150618 3.18007985 16.2881687 3.51086343" transform="translate(23.573 72.037)"/>
        <path fill="#3D4B7A" d="M143.694688,18.6867731 C146.670718,18.6897134 149.081008,17.2916015 149.070695,15.5685866 C149.066276,14.705609 148.45781,13.9249597 147.476604,13.3604224 C146.495398,12.7958851 145.142924,12.4459896 143.653436,12.4459896 C140.668566,12.4459896 138.259749,13.8441015 138.274482,15.5641761 C138.278902,16.4256836 138.887367,17.207803 139.868573,17.7723403 C140.849779,18.3368776 142.202253,18.6867731 143.694688,18.6867731 M157.521444,15.5641761 C157.531756,16.0478552 156.85994,16.4374448 156.021642,16.4345045 L151.16423,16.4374448 C150.470314,18.4574299 147.404413,19.9790343 143.694688,19.9790343 C141.586421,19.9790343 139.675573,19.4850642 138.290688,18.6867731 C136.905802,17.8899522 136.045405,16.7873403 136.038039,15.5685866 C136.023306,13.1325493 139.429535,11.1566687 143.651963,11.1522582 C145.75581,11.1522582 147.665184,11.6462284 149.051543,12.4430493 C150.097573,13.0472806 150.846001,13.8249896 151.149497,14.6953179 L156.011329,14.6953179 C156.428268,14.6953179 156.803955,14.7923478 157.076512,14.9496537 C157.350543,15.1069597 157.51997,15.3245418 157.521444,15.5641761"/>
        <g transform="translate(14.26)">
          <path fill="#DCDCDC" d="M13.0156305 62.3297709C13.7596382 61.9004873 13.7552183 61.2095172 13.0244702 60.784644 12.2922489 60.361241 11.0959435 60.3568306 10.3519359 60.784644 9.61529466 61.2095172 9.61824122 61.9004873 10.3504626 62.3253604 11.0812107 62.7502336 12.2789893 62.754644 13.0156305 62.3297709M8.18355878 65.1134985C8.9202 64.6886254 8.91725344 63.9976552 8.18355878 63.5727821 7.45281069 63.1493791 6.25650534 63.1449687 5.51986412 63.5683716 4.77585649 63.9976552 4.77880305 64.6886254 5.51102443 65.1134985 6.2432458 65.5383716 7.43955115 65.5427821 8.18355878 65.1134985M3.34426794 67.9016366C4.08090916 67.4767634 4.08385573 66.7813828 3.35310763 66.3565097 2.62088626 65.9331067 1.4172145 65.9331067.680573282 66.3565097-.0560679389 66.7813828-.0604877863 67.4767634.671733588 67.9016366 1.40395496 68.3265097 2.60762672 68.3265097 3.34426794 67.9016366M22.6940649 56.7527597C23.4307061 56.3278866 23.4277595 55.6369164 22.6955382 55.2120433 21.9633168 54.7886403 20.7670115 54.7842299 20.0303702 55.209103 19.2863626 55.6369164 19.2893092 56.3278866 20.0215305 56.7527597 20.7537519 57.1776328 21.9500573 57.1820433 22.6940649 56.7527597M17.8549214 59.5416328C18.5915626 59.1167597 18.5945092 58.4213791 17.8637611 57.996506 17.1315397 57.573103 15.9278679 57.573103 15.1912267 57.996506 14.4545855 58.4213791 14.4501656 59.1167597 15.182387 59.5416328 15.9146084 59.966506 17.1182802 59.966506 17.8549214 59.5416328M54.5617534 36.1728754C54.7017153 36.0920172 54.768013 36.0038082 54.7694863 35.9185396 54.7547534 35.8332709 54.6958221 35.7568231 54.5794328 35.6891963 54.4615702 35.6215694 54.3230817 35.5833455 54.1757534 35.5745246 54.0210588 35.5701142 53.8752038 35.6127485 53.7337687 35.6936067 53.5879137 35.7774052 53.5201427 35.8582634 53.5201427 35.952353 53.5275092 36.0420321 53.5923336 36.1214201 53.7101962 36.1905172 53.8265855 36.258144 53.9591809 36.2919575 54.1124023 36.2963679 54.2670969 36.2919575 54.4144252 36.258144 54.5617534 36.1728754M57.0421718 37.6114164C56.9022099 37.6922746 56.8359122 37.7819537 56.8432786 37.8701627 56.8491718 37.9598418 56.9081031 38.0362896 57.0318588 38.1083269 57.142355 38.1715433 57.2823168 38.2097672 57.4281718 38.2097672 57.5828664 38.2141776 57.7287214 38.1715433 57.8701565 38.0906851 58.0174847 38.0068866 58.0837824 37.9260284 58.076416 37.8363493 58.076416 37.7510806 58.0115916 37.6716925 57.9010954 37.607006 57.7773397 37.5349687 57.6447443 37.5011552 57.4915229 37.4967448 57.3368282 37.4923343 57.1895 37.5261478 57.0421718 37.6114164M64.3344779 32.7796239C64.9134779 33.1074672 65.4173405 33.2985866 65.8431191 33.3573925 66.2747908 33.4132582 66.6652107 33.3397507 67.0114321 33.1412806 67.3576534 32.9413403 67.4843557 32.7075866 67.3753328 32.4488403 67.2589435 32.1856836 66.9156687 31.884303 66.3234092 31.5402881L65.2110809 30.8963627C64.6541802 30.5817507 64.1562107 30.3862209 63.7304321 30.3274149 63.2987603 30.2641985 62.900974 30.3391761 62.5488595 30.5435269 62.1864321 30.7522881 62.0538366 30.9801612 62.1613863 31.2300866 62.2630427 31.4858925 62.6077908 31.7784522 63.2000504 32.1224672L64.3344779 32.7796239M61.977226 30.2127433C62.5739053 29.8687284 63.2059435 29.7334746 63.8733405 29.796691 64.5407374 29.8599075 65.2817985 30.1274746 66.0803176 30.5905716L67.0084855 31.1286463C67.7613328 31.5829224 68.200371 31.9989746 68.3005542 32.3900343 68.4022107 32.7722731 68.1650122 33.1368701 67.5830656 33.4720642 66.9863863 33.8160791 66.3543481 33.9513328 65.6781115 33.883706 65.0033481 33.8160791 64.2563939 33.5441015 63.4446153 33.0721836L62.5444397 32.5502806C61.7680198 32.0930642 61.330455 31.6770119 61.2302718 31.2947731 61.1359817 30.9169448 61.3805466 30.5567582 61.977226 30.2127433M59.8742626 35.1512687C60.4517893 35.4776418 60.9571252 35.6687612 61.3829038 35.7290373 61.8160489 35.7834328 62.2064687 35.7113955 62.5512168 35.5114552 62.8974382 35.3115149 63.0241405 35.0792313 62.9151176 34.8204851 62.7987282 34.5573284 62.4554534 34.2559478 61.8631939 33.9119328L60.7508656 33.2665373C60.1954382 32.9519254 59.6959954 32.7578657 59.2716901 32.6975896 58.838545 32.6343731 58.4407588 32.7108209 58.0886443 32.9151716 57.7262168 33.1224627 57.5936214 33.351806 57.7026443 33.6017313 57.8043008 33.8560672 58.1475756 34.1486269 58.7398351 34.4926418L59.8742626 35.1512687M57.5170107 32.5829179C58.1136901 32.2403731 58.7457282 32.1036493 59.4145985 32.1668657 60.0819954 32.2315522 60.8215832 32.4991194 61.618629 32.9607463L62.5482702 33.500291C63.3025908 33.9545672 63.7401557 34.3706194 63.8403389 34.760209 63.9419954 35.1424478 63.7047969 35.5070448 63.1228504 35.8422388 62.526171 36.1862537 61.8941328 36.3215075 61.2193695 36.2538806 60.5446061 36.1862537 59.7961786 35.9157463 58.9844 35.4438284L58.0842244 34.9219254C57.3078046 34.4632388 56.8702397 34.0471866 56.7700565 33.6649478 56.6757664 33.2871194 56.9203313 32.9269328 57.5170107 32.5829179M50.9332061 39.8848552C51.5122061 40.2112284 52.0160687 40.4023478 52.4418473 40.4626239 52.8749924 40.5170194 53.2654122 40.4449821 53.6101603 40.2450418 53.9563817 40.0465716 54.083084 39.8128179 53.9740611 39.5540716 53.859145 39.2909149 53.5143969 38.9895343 52.9221374 38.6455194L51.8098092 38.0001239C51.2543817 37.6855119 50.7549389 37.4914522 50.3306336 37.4326463 49.8974885 37.3679597 49.4997023 37.4444075 49.1475878 37.6487582 48.7851603 37.8560493 48.6525649 38.0853925 48.7615878 38.3353179 48.8632443 38.5911239 49.2065191 38.8836836 49.7987786 39.2276985L50.9332061 39.8848552M48.5759542 37.3165045C49.1726336 36.9739597 49.8046718 36.8372358 50.473542 36.9019224 51.1409389 36.9651388 51.8805267 37.232706 52.6790458 37.6943328L53.6072137 38.2338776C54.3615344 38.6881537 54.7990992 39.104206 54.8992824 39.4937955 55.0009389 39.8760343 54.7637405 40.2406313 54.1817939 40.5758254 53.5851145 40.9198403 52.9530763 41.055094 52.278313 40.9874672 51.6035496 40.9198403 50.8551221 40.6493328 50.0433435 40.1774149L49.1431679 39.6555119C48.3667481 39.1968254 47.9291832 38.7822433 47.829 38.4000045 47.7361832 38.020706 47.9792748 37.6605194 48.5759542 37.3165045M46.4731382 42.2559119C47.0521382 42.5822851 47.557474 42.7734045 47.9817794 42.8336806 48.4149244 42.8880761 48.8053443 42.8160388 49.1515656 42.6160985 49.497787 42.4176284 49.623016 42.1838746 49.5139931 41.9251284 49.3990771 41.6619716 49.0558023 41.360591 48.4635427 41.0165761L47.3497412 40.3711806C46.7943137 40.0565687 46.294871 39.862509 45.8705656 39.803703 45.4374206 39.7390164 45.0411076 39.8154642 44.6875198 40.0198149 44.3250924 40.227106 44.1924969 40.4564493 44.3015198 40.7063746 44.4031763 40.9621806 44.7464511 41.2547403 45.3387107 41.5987552L46.4731382 42.2559119M44.1158863 39.6875612C44.7125656 39.3450164 45.3446038 39.2082925 46.013474 39.2729791 46.680871 39.3361955 47.4204588 39.6037627 48.2189779 40.0653896L49.1471458 40.6049343C49.9014664 41.0592104 50.3405046 41.4752627 50.4406878 41.8648522 50.540871 42.247091 50.3036725 42.6131582 49.721726 42.9468821 49.1250466 43.290897 48.4930084 43.4276209 47.818245 43.3585239 47.1434817 43.290897 46.3950542 43.0203896 45.5832756 42.5484716L44.6831 42.0265687C43.9066802 41.5678821 43.4691153 41.1533 43.3689321 40.7710612 43.2761153 40.3932328 43.5206802 40.0315761 44.1158863 39.6875612"/>
          <polygon fill="#3D4B7A" points="113.885 6.302 107.929 2.847 97.726 8.725 103.683 12.179"/>
          <path fill="#DCDCDC" d="M107.928611 2.84753209L97.7261298 8.72518881 103.682611 12.1800396 113.885092 6.30238284 107.928611 2.84753209zM116.398511 3.14450224L117.949878 4.04423358C118.514145 4.37207687 118.517092 4.9013306 117.951351 5.22917388L104.77284 12.8210246C104.207099 13.1473978 103.281878 13.1473978 102.717611 12.8210246L96.5784427 9.26032313C96.0141756 8.93395 96.0171221 8.39881567 96.5843359 8.07244254L109.761374.479121642C110.330061.152748507 111.246443.157158955 111.81071.48353209L113.35471 1.37885299 113.781962 1.13333806C114.347702.805494776 115.272924.805494776 115.837191 1.13333806L116.840496 1.71404701C117.40329 2.0418903 117.392977 2.57261418 116.825763 2.89898731L116.398511 3.14450224zM31.0546481 49.1687007C29.9865183 49.7832231 29.3235412 50.6344396 29.3176481 51.5723948 29.3161748 51.8090888 29.6388237 51.9957978 30.0498695 51.9957978 30.2472893 52.0002082 30.4240832 51.9502231 30.5566786 51.8737754 30.689274 51.7973276 30.777671 51.6944172 30.7791443 51.5768052 30.7820908 50.8711336 31.2830069 50.2316187 32.0888924 49.7685216 32.8933046 49.3039545 34.001213 49.0172754 35.2210908 49.0172754 35.4185107 49.0172754 35.5982511 48.9702306 35.7308466 48.8937828 35.8619687 48.8188052 35.9444725 48.7129545 35.9488924 48.5968127 35.9429992 48.363059 35.6218237 48.17635 35.2181443 48.1719396 33.594587 48.1719396 32.1227779 48.5541784 31.0546481 49.1687007M33.4926359 50.5843075C33.2436511 50.7283821 33.0742237 50.9209716 33.034445 51.1385537 32.9372084 51.6442851 33.5574603 52.0985612 34.4399565 52.1573672 34.9393992 52.1897104 35.4152695 52.0838597 35.746758 51.8912701 35.9942695 51.7486657 36.1636969 51.5590164 36.2049489 51.3429045 36.3036588 50.8298224 35.6745672 50.3799567 34.7950176 50.3196806 34.2955748 50.2888075 33.8241244 50.3946582 33.4926359 50.5843075"/>
          <path fill="#DCDCDC" d="M28.3670863,47.6103425 C26.6050405,48.6247455 25.5089183,50.0272679 25.5000786,51.5723948 C25.4986053,51.8090888 25.8197809,51.9957978 26.2323,51.9957978 C26.4297198,52.0002082 26.6065137,51.9502231 26.7391092,51.8737754 C26.8717046,51.7973276 26.9601015,51.6944172 26.9601015,51.5768052 C26.9718878,50.2624918 27.9044756,49.073141 29.4013305,48.2101634 C30.8981855,47.3471858 32.9607809,46.8135216 35.2325824,46.8105813 C35.4300023,46.8105813 35.611216,46.7635366 35.7423382,46.688559 C35.8749336,46.6121112 35.9574374,46.5077306 35.9618573,46.3901187 C35.9559641,46.1563649 35.6333153,45.969656 35.2296359,45.9652455 C32.5571015,45.9652455 30.1291321,46.5959396 28.3670863,47.6103425"/>
        </g>
      </g>
    </g>
    <g transform="translate(288)">
      <path fill="#FFF" stroke="#FC551D" d="M0.00146064377,2.16697178 L1.81918618e-05,69.6283002 C-0.00575161578,71.5731287 1.36169279,73.9278474 3.05801624,74.9009782 L87.9217895,123.581885 C89.6166704,124.553582 90.994212,123.775364 90.9999818,121.830536 L90.9999818,54.3677741 C91.0057516,52.434411 89.6368648,50.0710933 87.9434262,49.0979624 L3.07821057,0.415622894 C2.58633447,0.133285963 2.1204225,0 1.7064388,0 C0.699607368,0 0.00434554759,0.795416228 0.00146064377,2.16697178"/>
      <path d="M7,45 C7.00002644,57.9491516 16.1312819,73.6946128 27.4336748,80.1971385 C38.7577773,86.7144208 47.9638372,81.4776012 47.9998828,68.5163291 C47.999961,68.4895714 48,68.4628017 48,68.4360201 L7,45 Z"/>
      <path fill="url(#ai-tracking-landing-a)" d="M7.00011484,44.9305719 C6.96262736,57.8912763 16.1081305,73.6837674 27.4336748,80.1978827 C38.7577773,86.7134346 47.9638372,81.4780054 47.9998828,68.5201745 C48.0243938,60.131132 44.2021128,50.5668476 38.4405755,43.0944362 L28.0983567,57.4616952 C27.9974288,57.6111147 27.821526,57.6455962 27.4971152,57.5177275 C27.3356306,57.4257771 27.1784716,57.269174 27.0559164,57.0780894 L11.3702898,33 C8.64956393,35.4208831 7.0145331,39.4896909 7.00011484,44.9305719"/>
      <path fill="url(#ai-tracking-landing-a)" d="M12,29.8449229 L27.0663589,53 L37,39.1789086 C34.1206001,35.7365876 30.8257357,32.8224154 27.3159261,30.8033617 C24.0124062,28.900875 20.8892095,28 18.1208886,28 C15.7954414,28 13.721004,28.634642 12,29.8449229"/>
      <polygon fill="url(#ai-tracking-landing-a)" points="55 76.815 84.993 94 85 91.185 55.007 74"/>
      <polygon fill="url(#ai-tracking-landing-a)" points="55 81.887 71.994 92 72 89.113 55.008 79"/>
      <polygon fill="url(#ai-tracking-landing-a)" points="55 71.815 84.993 89 85 86.185 55.009 69"/>
      <path fill="url(#ai-tracking-landing-a)" d="M80.2067761,52.0461478 C79.9488388,52.206966 79.9488388,52.700608 80.2039724,53.1453053 L81.527303,55.4471032 L80.1955614,56.203648 C79.9362223,56.3532788 79.9348205,56.8455224 80.1913559,57.3056023 C80.3273338,57.5391383 80.5011611,57.7167375 80.6777921,57.8174237 C80.8530212,57.9181098 81.0282504,57.9404845 81.1642282,57.8635715 L82.4973716,57.1070267 L83.8193003,59.393442 C83.9580818,59.6283765 84.1319091,59.8073741 84.3043346,59.9066619 C84.4809656,60.007348 84.6561947,60.0325196 84.7935744,59.9528097 C85.0515117,59.7933899 85.0543154,59.299748 84.7935744,58.8522538 L83.460431,56.5602448 L84.8033872,55.796708 C85.0641282,55.6470771 85.06553,55.1548336 84.8075927,54.6947537 C84.6730167,54.4612177 84.4977876,54.2850169 84.3211566,54.1843307 C84.1473293,54.0822461 83.9735019,54.058473 83.8347205,54.1339876 L82.5015771,54.8919308 L81.1796484,52.6041171 C81.0436705,52.3705811 80.8698432,52.1943803 80.6946141,52.0922957 C80.5880747,52.0321636 80.4843391,52 80.3876126,52 C80.3231283,52 80.2614476,52.0139842 80.2067761,52.0461478"/>
    </g>
  </g>
</svg>
