<svg xmlns="http://www.w3.org/2000/svg" width="213" height="290" viewBox="0 0 213 290">
  <defs>
    <linearGradient id="ai-tracking-adv-a" x1="0%" y1="50%" y2="50%">
      <stop offset="0%" stop-color="#FC4A1A"/>
      <stop offset="100%" stop-color="#F7B733"/>
    </linearGradient>
  </defs>
  <g fill="none" fill-rule="evenodd" transform="translate(1 1)">
    <path fill="#FFF" stroke="#FC551D" d="M0.00338676743,5.03296671 L4.218113e-05,161.717342 C-0.0133361641,166.234363 3.15733164,171.703387 7.09056513,173.963562 L203.862611,287.028893 C207.7925,289.285739 210.98658,287.478265 210.999958,282.961244 L210.999958,126.27354 C211.013336,121.783148 207.839324,116.294152 203.91278,114.033977 L7.13738934,0.965317689 C5.99688541,0.309567397 4.91658404,0 3.95668777,0 C1.62216653,0 0.01007594,1.84741834 0.00338676743,5.03296671"/>
    <path d="M17,105 C17.0000613,134.987509 38.1578483,171.450682 64.3463197,186.509163 C90.5850937,201.601817 111.916208,189.474445 111.999728,159.458867 C111.99991,159.396902 112,159.334909 112,159.272889 L17,105 Z"/>
    <path fill="url(#ai-tracking-adv-a)" d="M17.0002661,104.678927 C16.9134048,134.747761 38.1042049,171.38634 64.3463197,186.499088 C90.5850937,201.615168 111.916208,189.468973 111.999728,159.406805 C112.056522,139.944226 103.200017,117.755086 89.850114,100.419092 L65.8864362,133.751133 C65.652579,134.097786 65.2449994,134.177783 64.4933156,133.881128 C64.1191442,133.667803 63.7549952,133.304484 63.4710257,132.861167 L27.1262814,77 C20.8221603,82.6164489 17.0336742,92.0560829 17.0002661,104.678927"/>
    <path fill="url(#ai-tracking-adv-a)" d="M27,69.280221 L61.9539527,123 L85,90.9350679 C78.3197923,82.9488833 70.6757069,76.1880037 62.5329486,71.5037992 C54.8687825,67.0900299 47.622966,65 41.2004616,65 C35.8054241,65 30.9927294,66.4723693 27,69.280221"/>
    <polygon fill="url(#ai-tracking-adv-a)" points="127 178.614 195.984 219 196 212.386 127.016 172"/>
    <polygon fill="url(#ai-tracking-adv-a)" points="127 189.885 166.987 214 167 207.115 127.02 183"/>
    <polygon fill="url(#ai-tracking-adv-a)" points="127 166.615 195.984 207 196 200.385 127.02 160"/>
    <path fill="url(#ai-tracking-adv-a)" d="M186.454907,121.103833 C185.887445,121.465674 185.887445,122.576368 186.448739,123.576937 L189.360067,128.755982 L186.430235,130.458208 C185.859689,130.794877 185.856605,131.902425 186.420983,132.937605 C186.720134,133.463061 187.102554,133.862659 187.491143,134.089203 C187.876647,134.315747 188.262151,134.36609 188.561302,134.193036 L191.494217,132.49081 L194.402461,137.635245 C194.70778,138.163847 195.0902,138.566592 195.469536,138.789989 C195.858124,139.016533 196.243628,139.073169 196.545864,138.893822 C197.113326,138.535127 197.119494,137.424433 196.545864,136.417571 L193.612948,131.260551 L196.567452,129.542593 C197.141082,129.205924 197.144166,128.098376 196.576704,127.063196 C196.280637,126.53774 195.895133,126.141288 195.506544,125.914744 C195.124124,125.685054 194.741704,125.631564 194.436385,125.801472 L191.50347,127.506844 L188.595226,122.359263 C188.296075,121.833807 187.913655,121.437356 187.528151,121.207665 C187.293764,121.072368 187.065546,121 186.852748,121 C186.710882,121 186.575185,121.031464 186.454907,121.103833"/>
  </g>
</svg>
