
<svg width="51px" height="62px" viewBox="0 0 51 62" version="1.1" xmlns="http://www.w3.org/2000/svg" xmlns:xlink="http://www.w3.org/1999/xlink">
    <!-- Generator: Sketch 47.1 (45422) - http://www.bohemiancoding.com/sketch -->
    <desc>Created with Sketch.</desc>
    <defs>
        <linearGradient x1="0%" y1="58.5698485%" x2="100%" y2="58.5698485%" id="linearGradient-1">
            <stop stop-color="#4BAD00" offset="0%"></stop>
            <stop stop-color="#71DF55" offset="100%"></stop>
        </linearGradient>
    </defs>
    <g id="Page-1" stroke="none" stroke-width="1" fill="none" fill-rule="evenodd">
        <g id="1.0-Landing-Page" transform="translate(-244.000000, -4354.000000)">
            <g id="three-presentation-cards" transform="translate(245.000000, 4355.000000)">
                <g id="Group-5"></g>
                <path d="M17.6852828,34.4214861 L22.5734552,37.4864787 C22.7971655,37.6271194 23.0465586,37.6942434 23.2927414,37.6942434 C23.7416828,37.6942434 24.1804862,37.4713379 24.4379897,37.0652294 C24.8352276,36.4357106 24.6458172,35.6051563 24.0142241,35.2088052 L19.1253759,32.1438126 C18.4944586,31.7476297 17.6596,31.936889 17.2615172,32.5657349 C16.8636034,33.1947489 17.0536897,34.0259761 17.6852828,34.4214861 L17.6852828,34.4214861 Z" id="Fill-6" stroke="#FFFFFF" fill="url(#linearGradient-1)"></path>
                <path d="M8.74193793,35.5439204 L22.5734552,44.215701 C22.7971655,44.3563417 23.0465586,44.4234657 23.2927414,44.4234657 C23.7416828,44.4234657 24.1804862,44.2005602 24.4379897,43.7944517 C24.8352276,43.1656058 24.6458172,42.3343786 24.0142241,41.9380275 L10.1822,33.2662469 C9.55043793,32.8700639 8.71557931,33.0586504 8.31817241,33.6874962 C7.92025862,34.317015 8.11034483,35.1477375 8.74193793,35.5439204 L8.74193793,35.5439204 Z" id="Fill-7" stroke="#FFFFFF" fill="url(#linearGradient-1)"></path>
                <path d="M8.74193793,28.8146981 L13.6301103,31.8796907 C13.8538207,32.0196585 14.1027069,32.0867825 14.3488897,32.0867825 C14.7976621,32.0867825 15.2373103,31.863877 15.493969,31.4577684 C15.8920517,30.8289226 15.7026414,29.9976954 15.0702034,29.6020171 L10.1822,26.5370246 C9.55043793,26.1408416 8.71557931,26.3294281 8.31817241,26.9582739 C7.92025862,27.5877927 8.11034483,28.4185152 8.74193793,28.8146981 L8.74193793,28.8146981 Z" id="Fill-8" stroke="#FFFFFF" fill="url(#linearGradient-1)"></path>
                <path d="M48.3452586,19.1448057 L18.2925448,0.302983234 C17.8760448,0.0413847172 17.3500552,0.0269168892 16.9190241,0.263617284 C16.4879931,0.50082237 16.2206897,0.951512033 16.2206897,1.44173588 L16.2206897,7.13869548 C16.2206897,7.88193808 16.8259241,8.48453994 17.5724138,8.48453994 C18.3189034,8.48453994 18.9241379,7.88193808 18.9241379,7.13869548 L18.9241379,3.87990135 L46.2734034,21.026128 L46.2734034,45.3394811 L44.2900862,44.096089 C43.6584931,43.6999061 42.8234655,43.8891655 42.4262276,44.5180113 C42.0281448,45.1468571 42.2175552,45.9775796 42.8499931,46.3737626 L46.9051655,48.9163992 C47.1241448,49.0543483 47.3743828,49.1233228 47.6251276,49.1233228 C47.8495138,49.1233228 48.0745759,49.0674703 48.2785172,48.9557652 C48.7088724,48.7185601 48.9768517,48.2677022 48.9768517,47.7774783 L48.9768517,20.2835583 C48.9768517,19.8209243 48.7386103,19.3912634 48.3452586,19.1448057 L48.3452586,19.1448057 Z" id="Fill-1" stroke="#FFFFFF" fill="url(#linearGradient-1)"></path>
                <path d="M40.2349138,24.5281835 L10.1822,5.68636108 C9.7657,5.42476256 9.23971034,5.41029473 8.80867931,5.64699512 C8.37832414,5.88420021 8.11034483,6.33488987 8.11034483,6.82511372 L8.11034483,12.5220733 C8.11034483,13.2653159 8.71557931,13.8679178 9.46206897,13.8679178 C10.2085586,13.8679178 10.8137931,13.2653159 10.8137931,12.5220733 L10.8137931,9.26327919 L38.1630586,26.4095058 L38.1630586,50.7228589 L36.1797414,49.4794669 C35.5481483,49.0832839 34.7131207,49.2725433 34.3158828,49.9013891 C33.9178,50.530235 34.1072103,51.3609574 34.7396483,51.7571404 L38.7948207,54.2997771 C39.0138,54.4377261 39.2640379,54.5067006 39.5147828,54.5067006 C39.739169,54.5067006 39.964231,54.4508481 40.1681724,54.339143 C40.5985276,54.1019379 40.8665069,53.65108 40.8665069,53.1608562 L40.8665069,25.6669362 C40.8665069,25.2043021 40.6282655,24.7746413 40.2349138,24.5281835 L40.2349138,24.5281835 Z" id="Fill-3" stroke="#FFFFFF" fill="url(#linearGradient-1)"></path>
                <path d="M32.124569,29.9115614 L2.07185517,11.0697389 C1.65535517,10.8081404 1.12936552,10.7936726 0.698334483,11.030373 C0.267303448,11.2675781 0,11.7182677 0,12.2084916 L0,39.7024116 C0,40.1650456 0.238241379,40.5948747 0.631593103,40.8413325 L30.6844759,59.6831549 C30.9034552,59.821104 31.1536931,59.8900785 31.4044379,59.8900785 C31.6288241,59.8900785 31.8538862,59.8342259 32.0578276,59.7225208 C32.4881828,59.4853158 32.7561621,59.0344579 32.7561621,58.544234 L32.7561621,31.050314 C32.7561621,30.58768 32.5179207,30.1580191 32.124569,29.9115614 L32.124569,29.9115614 Z M30.0527138,56.1062368 L2.70344828,38.959169 L2.70344828,14.646657 L30.0527138,31.7928837 L30.0527138,56.1062368 Z" id="Fill-4" stroke="#FFFFFF" fill="url(#linearGradient-1)"></path>
            </g>
        </g>
    </g>
</svg>