
<svg width="50px" height="63px" viewBox="0 0 50 63" version="1.1" xmlns="http://www.w3.org/2000/svg" xmlns:xlink="http://www.w3.org/1999/xlink">
    <!-- Generator: Sketch 47.1 (45422) - http://www.bohemiancoding.com/sketch -->
    <desc>Created with Sketch.</desc>
    <defs>
        <linearGradient x1="0%" y1="58.5698485%" x2="100%" y2="58.5698485%" id="linearGradient-1">
            <stop stop-color="#4BAD00" offset="0%"></stop>
            <stop stop-color="#71DF55" offset="100%"></stop>
        </linearGradient>
    </defs>
    <g id="Page-1" stroke="none" stroke-width="1" fill="none" fill-rule="evenodd">
        <g id="1.0-Landing-Page" transform="translate(-592.000000, -4353.000000)">
            <g id="Group-3" transform="translate(594.000000, 4355.000000)">
                <path d="M32.7039611,31.9729166 L32.7039611,24.6972425 C33.9071121,23.5180048 34.5852517,21.8937717 34.5852517,20.1582898 L34.5852517,10.6131393 C34.5852517,4.76145036 29.9039007,0 24.1506515,0 L22.1381081,0 C16.384859,0 11.7035079,4.76145036 11.7035079,10.6131393 L11.7035079,20.1582898 C11.7035079,21.8937717 12.403523,23.5180048 13.5847985,24.6972425 L13.5847985,31.9729166 C11.3097494,33.1744041 5.84088144,36.2226223 0.722020979,40.4945778 C-0.13112243,41.2065704 -0.240499791,42.4748071 0.459515315,43.3425481 C1.15953042,44.2102891 2.40643233,44.3215379 3.25957574,43.6095453 C8.92532299,38.8703447 15.0504552,35.7331274 16.2317307,35.1546335 C17.0629986,34.7318879 17.5661344,33.9086465 17.5661344,32.9519064 L17.5661344,23.7405025 C17.5661344,23.0730094 17.2380024,22.4277662 16.6911156,22.0717699 C16.0567269,21.6490243 15.6848439,20.9370317 15.6848439,20.1582898 L15.6848439,10.6131393 C15.6848439,6.98642716 18.5942816,4.02720801 22.1599836,4.02720801 L24.172527,4.02720801 C27.7382289,4.02720801 30.6476667,6.98642716 30.6476667,10.6131393 L30.6476667,20.1582898 C30.6476667,20.9147819 30.2757837,21.6267745 29.641395,22.0717699 C29.0945082,22.4500159 28.7663761,23.0730094 28.7663761,23.7405025 L28.7663761,32.9519064 C28.7663761,33.8863967 29.2913875,34.7318879 30.1226554,35.1546335 C31.3039309,35.7331274 37.4290631,38.8925945 43.0948103,43.6095453 C43.4666933,43.9210421 43.9042028,44.0767904 44.3417122,44.0767904 C44.9104745,44.0767904 45.4792368,43.832043 45.8729953,43.3425481 C46.5730104,42.4748071 46.4417575,41.2065704 45.6104896,40.4945778 C40.4478782,36.2226223 34.9790102,33.1521543 32.7039611,31.9729166 Z" id="Shape" stroke="#FFFFFF" stroke-width="2.5" fill="url(#linearGradient-1)" fill-rule="nonzero"></path>
                <polygon id="Star" stroke="url(#linearGradient-1)" stroke-width="1.5" points="5.96825397 57.46316 2.27967016 59.4126782 2.98412698 55.2835324 1.66533454e-14 52.3592552 4.12396207 51.7568209 5.96825397 48 7.81254587 51.7568209 11.9365079 52.3592552 8.95238095 55.2835324 9.65683777 59.4126782"></polygon>
                <polygon id="Star" stroke="url(#linearGradient-1)" stroke-width="1.5" points="40.2857143 57.46316 36.5971305 59.4126782 37.3015873 55.2835324 34.3174603 52.3592552 38.4414224 51.7568209 40.2857143 48 42.1300062 51.7568209 46.2539683 52.3592552 43.2698413 55.2835324 43.9742981 59.4126782"></polygon>
                <polygon id="Star" stroke="url(#linearGradient-1)" stroke-width="1.5" points="23.1269841 57.46316 19.4384003 59.4126782 20.1428571 55.2835324 17.1587302 52.3592552 21.2826922 51.7568209 23.1269841 48 24.971276 51.7568209 29.0952381 52.3592552 26.1111111 55.2835324 26.8155679 59.4126782"></polygon>
            </g>
        </g>
    </g>
</svg>