<?xml version="1.0" encoding="UTF-8"?>
<svg width="33px" height="60px" viewBox="0 0 33 60" version="1.1" xmlns="http://www.w3.org/2000/svg" xmlns:xlink="http://www.w3.org/1999/xlink">
    <!-- Generator: Sketch 47.1 (45422) - http://www.bohemiancoding.com/sketch -->
    <title>noun_1166753_cc</title>
    <desc>Created with Sketch.</desc>
    <defs>
        <linearGradient x1="2.21420599%" y1="58.5698485%" x2="100%" y2="58.5698485%" id="linearGradient-1">
            <stop stop-color="#4BAD00" offset="0%"></stop>
            <stop stop-color="#71DF55" offset="100%"></stop>
        </linearGradient>
    </defs>
    <g id="Online-Survey" stroke="none" stroke-width="1" fill="none" fill-rule="evenodd">
        <g id="01-Online-Survey" transform="translate(-950.000000, -2289.000000)" fill-rule="nonzero" fill="url(#linearGradient-1)">
            <g id="noun_1166753_cc" transform="translate(950.000000, 2289.000000)">
                <g id="Group">
                    <path d="M28.155,0.06 L4.70214286,0.06 C2.33857143,0.06 0.416428571,1.98214286 0.416428571,4.34571429 L0.416428571,41.8457143 C0.416428571,44.2092857 2.33857143,46.1314286 4.70214286,46.1314286 L6.21142857,46.1314286 C5.57,46.8642857 5.17785714,47.8207143 5.17785714,48.8692857 C5.17785714,50.7885714 6.48357143,52.4035714 8.25285714,52.8857143 C7.53,53.635 7.08214286,54.6528571 7.08214286,55.7735714 C7.08214286,58.0714286 8.95142857,59.94 11.2492857,59.94 L17.2035714,59.94 L18.1378571,59.94 L18.6321429,59.94 L18.6321429,43.5157143 L18.6321429,41.6078571 L18.6321429,29.9407143 C18.6321429,28.4307143 19.8607143,27.2028571 21.37,27.2028571 C22.8792857,27.2028571 24.1078571,28.4307143 24.1078571,29.9407143 L24.1078571,33.475 L24.1078571,37.4571429 L24.1078571,42.025 C24.1078571,44.3228571 25.9764286,46.1914286 28.2742857,46.1914286 C30.5721429,46.1914286 32.4407143,44.3228571 32.4407143,42.025 L32.4407143,40.9964286 L32.4407143,35.4014286 L32.4407143,4.34571429 C32.4407143,1.98214286 30.5185714,0.06 28.155,0.06 Z M17.2035714,58.5114286 L11.2492857,58.5114286 C9.73928571,58.5114286 8.51071429,57.2828571 8.51071429,55.7735714 C8.51071429,54.2642857 9.73928571,53.0357143 11.2492857,53.0357143 L17.2035714,53.0357143 L17.2035714,58.5114286 Z M17.2035714,51.6071429 L11.2492857,51.6071429 L9.345,51.6071429 C7.835,51.6071429 6.60642857,50.3785714 6.60642857,48.8692857 C6.60642857,47.36 7.835,46.1314286 9.345,46.1314286 L9.80428571,46.1314286 L17.2035714,46.1314286 L17.2035714,51.6071429 L17.2035714,51.6071429 Z M17.2035714,41.6078571 L17.2035714,43.73 L17.2035714,44.7028571 L9.695,44.7028571 L9.345,44.7028571 L4.70214286,44.7028571 C3.12714286,44.7028571 1.845,43.4214286 1.845,41.8457143 L1.845,38.5121429 L17.2035714,38.5121429 L17.2035714,41.6078571 L17.2035714,41.6078571 Z M31.0121429,40.9321429 L31.0121429,42.025 C31.0121429,43.5342857 29.7835714,44.7628571 28.2742857,44.7628571 C26.765,44.7628571 25.5364286,43.5342857 25.5364286,42.025 L25.5364286,38.5121429 L31.0121429,38.5121429 L31.0121429,40.9321429 Z M31.0121429,35.8907143 L31.0121429,37.0835714 L25.5364286,37.0835714 L25.5364286,36.9678571 L25.5364286,33.4114286 L25.5364286,29.9414286 C25.5364286,27.6435714 23.6678571,25.775 21.37,25.775 C19.0721429,25.775 17.2035714,27.6442857 17.2035714,29.9414286 L17.2035714,37.0842857 L1.845,37.0842857 L1.845,8.98857143 L31.0121429,8.98857143 L31.0121429,35.8907143 Z M31.0121429,7.56 L1.845,7.56 L1.845,4.34571429 C1.845,2.77 3.12714286,1.48857143 4.70214286,1.48857143 L28.155,1.48857143 C29.7307143,1.48857143 31.0121429,2.77 31.0121429,4.34571429 L31.0121429,7.56 Z" id="Shape"></path>
                    <rect id="Rectangle-path" x="12.6585714" y="4.10785714" width="7.54071429" height="1.42857143"></rect>
                </g>
            </g>
        </g>
    </g>
</svg>