<?xml version="1.0" encoding="UTF-8"?>
<svg width="49px" height="60px" viewBox="0 0 49 60" version="1.1" xmlns="http://www.w3.org/2000/svg" xmlns:xlink="http://www.w3.org/1999/xlink">
    <!-- Generator: Sketch 47.1 (45422) - http://www.bohemiancoding.com/sketch -->
    <title>Group 58</title>
    <desc>Created with Sketch.</desc>
    <defs>
        <linearGradient x1="2.21420599%" y1="58.5698485%" x2="100%" y2="58.5698485%" id="linearGradient-1">
            <stop stop-color="#4BAD00" offset="0%"></stop>
            <stop stop-color="#71DF55" offset="100%"></stop>
        </linearGradient>
    </defs>
    <g id="Online-Focus-Group" stroke="none" stroke-width="1" fill="none" fill-rule="evenodd">
        <g id="02-Online-Focus-Group_1920-width" transform="translate(-835.000000, -2420.000000)">
            <g id="Group-85" transform="translate(835.000000, 2420.000000)">
                <g id="Group-58">
                    <g id="Group-15" fill-rule="nonzero" fill="url(#linearGradient-1)">
                        <path d="M26.1980198,54.950495 L30.1782178,58.990099 C30.3564356,59.1683168 30.3564356,59.4059406 30.1782178,59.5841584 C30,59.7623762 29.7623762,59.7623762 29.5841584,59.5841584 L25.5445545,55.5445545 L21.5049505,59.5841584 C21.3267327,59.7623762 21.0891089,59.7623762 20.9108911,59.5841584 C20.7326733,59.4059406 20.7326733,59.1683168 20.9108911,58.990099 L24.950495,54.950495 L20.9108911,50.9108911 C20.7326733,50.7326733 20.7326733,50.4950495 20.9108911,50.3168317 C21.0891089,50.1386139 21.3267327,50.1386139 21.5049505,50.3168317 L25.5445545,54.3564356 L29.6435644,50.3168317 C29.8217822,50.1386139 30.0594059,50.1386139 30.2376238,50.3168317 C30.4158416,50.4950495 30.4158416,50.7326733 30.2376238,50.9108911 L26.1980198,54.950495 Z M36.4158416,33.029703 C36.4158416,35.1089109 35.8811881,37.0693069 34.8712871,38.7326733 C34.6336634,39.0891089 34.3960396,39.4455446 34.1584158,39.7425743 L25.5445545,52.0990099 L16.990099,39.6831683 C16.7524752,39.3861386 16.5148515,39.029703 16.2772277,38.6732673 C15.2673267,37.009901 14.6732673,35.1089109 14.6732673,33.029703 C14.6732673,27.029703 19.5445545,22.1584158 25.5445545,22.1584158 C31.5445545,22.1584158 36.4158416,27.029703 36.4158416,33.029703 Z M42.4158416,26.4356436 L44.7920792,28.8118812 C44.9108911,28.9306931 44.9108911,29.049505 44.7920792,29.1683168 C44.6732673,29.2871287 44.5544554,29.2871287 44.4356436,29.1683168 L42.0594059,26.7920792 L39.6831683,29.1683168 C39.5643564,29.2871287 39.4455446,29.2871287 39.3267327,29.1683168 C39.2079208,29.049505 39.2079208,28.9306931 39.3267327,28.8118812 L41.7029703,26.4356436 L39.3267327,24.0594059 C39.2079208,23.9405941 39.2079208,23.8217822 39.3267327,23.7029703 C39.4455446,23.5841584 39.5643564,23.5841584 39.6831683,23.7029703 L42.0594059,26.0792079 L44.4356436,23.7029703 C44.5544554,23.5841584 44.6732673,23.5841584 44.7920792,23.7029703 C44.9108911,23.8217822 44.9108911,23.9405941 44.7920792,24.0594059 L42.4158416,26.4356436 Z M48.5346535,13.3663366 C48.5346535,14.5544554 48.2376238,15.7425743 47.5841584,16.7524752 C47.4653465,16.9306931 47.3465347,17.1683168 47.1683168,17.3465347 L42,24.7722772 L36.8316832,17.3465347 C36.7128713,17.1683168 36.5346535,16.990099 36.4158416,16.7524752 C35.8217822,15.7425743 35.4653465,14.6138614 35.4653465,13.3663366 C35.4653465,9.74257426 38.3762376,6.83168317 42,6.83168317 C45.6237624,6.83168317 48.5346535,9.74257426 48.5346535,13.3663366 Z M8.43564356,26.970297 C8.43564356,27.7425743 8.1980198,28.5148515 7.72277228,29.1089109 C7.66336634,29.2277228 7.6039604,29.3465347 7.48514851,29.4653465 L4.21782178,34.1584158 L0.95049505,29.4653465 C0.891089109,29.3465347 0.772277228,29.2277228 0.712871287,29.1089109 C0.356435644,28.5148515 0.118811881,27.7425743 0.118811881,26.970297 C0.118811881,24.6534653 1.96039604,22.8118812 4.27722772,22.8118812 C6.59405941,22.8118812 8.43564356,24.7128713 8.43564356,26.970297 Z M4.51485149,35.3465347 L6.11881188,36.8316832 C6.17821782,36.8910891 6.17821782,37.009901 6.11881188,37.0693069 C6.05940594,37.1287129 5.94059406,37.1287129 5.88118812,37.0693069 L4.33663366,35.5247525 L2.79207921,37.0693069 C2.73267327,37.1287129 2.61386139,37.1287129 2.55445545,37.0693069 C2.4950495,37.009901 2.4950495,36.8910891 2.55445545,36.8316832 L4.03960396,35.3465347 L2.4950495,33.8019802 C2.43564356,33.7425743 2.43564356,33.6237624 2.4950495,33.5643564 C2.55445545,33.5049505 2.67326733,33.5049505 2.73267327,33.5643564 L4.27722772,35.1089109 L5.82178218,33.5643564 C5.88118812,33.5049505 6,33.5049505 6.05940594,33.5643564 C6.11881188,33.6237624 6.11881188,33.7425743 6.05940594,33.8019802 L4.51485149,35.3465347 Z M32.65,14.53 C32.9245461,14.9203015 33.0712866,15.3861445 33.07,15.8633333 L33.07,18.4733333 L27.19,18.4733333 L27.19,15.4733333 C27.1936661,14.7529879 26.9837103,14.0477219 26.5866667,13.4466667 C26.3098762,13.0414047 26.002301,12.65805 25.6666667,12.3 C28.2278343,11.3747344 31.0909467,12.2903281 32.64,14.53 L32.65,14.53 Z M25.48,14.1966667 C25.7309823,14.5786034 25.8632107,15.0263241 25.86,15.4833333 L25.86,18.4833333 L12.81,18.4833333 L12.81,15.4833333 C12.8067893,15.0263241 12.9390177,14.5786034 13.19,14.1966667 C14.5433381,12.1186885 16.855178,10.8654269 19.335,10.8654269 C21.814822,10.8654269 24.1266619,12.1186885 25.48,14.1966667 L25.48,14.1966667 Z M10.9266667,11.94 C11.6337132,11.9354338 12.3358779,12.0573531 13,12.3 C12.6659912,12.6636276 12.3606344,13.0525674 12.0866667,13.4633333 C11.6896231,14.0643886 11.4796672,14.7696545 11.4833333,15.49 L11.4833333,18.49 L5.6,18.49 L5.6,15.8766667 C5.59871338,15.3994778 5.74545392,14.9336349 6.02,14.5433333 C7.12490118,12.9180896 8.96141601,11.9436887 10.9266667,11.94 L10.9266667,11.94 Z M23.5966667,4.44 L23.5966667,4.44 C23.5948285,6.79381216 21.6871455,8.70149513 19.3333333,8.70333333 C16.9787593,8.70333333 15.07,6.79457398 15.07,4.44 C15.07,2.08542602 16.9787593,0.176666667 19.3333333,0.176666667 C21.6879073,0.176666667 23.5966667,2.08542602 23.5966667,4.44 Z M14.59,6.84 C14.59,7.81246046 14.2036916,8.74509148 13.5160582,9.43272486 C12.8284248,10.1203583 11.8957938,10.5066667 10.9233333,10.5066667 C8.89828925,10.5066667 7.25666667,8.86504408 7.25666667,6.84 C7.25666667,4.81495592 8.89828925,3.17333333 10.9233333,3.17333333 C12.9483774,3.17333333 14.59,4.81495592 14.59,6.84 Z M31.4033333,6.84 C31.4033333,7.81246046 31.0170249,8.74509148 30.3293915,9.43272486 C29.6417581,10.1203583 28.7091271,10.5066667 27.7366667,10.5066667 C25.7116226,10.5066667 24.07,8.86504408 24.07,6.84 C24.07,4.81495592 25.7116226,3.17333333 27.7366667,3.17333333 C29.7617107,3.17333333 31.4033333,4.81495592 31.4033333,6.84 Z" id="Combined-Shape"></path>
                    </g>
                    <path d="M42.0594059,16.0990099 C40.0990099,16.0990099 38.5544554,14.5544554 38.5544554,12.5940594 C38.5544554,10.6336634 40.0990099,9.08910891 42.0594059,9.08910891 C44.019802,9.08910891 45.5643564,10.6336634 45.5643564,12.5940594 C45.5643564,14.4950495 43.960396,16.0990099 42.0594059,16.0990099 Z" id="Shape" fill="#FFFFFF"></path>
                    <path d="M4.27722772,28.7524752 C3.02970297,28.7524752 2.07920792,27.7425743 2.07920792,26.5544554 C2.07920792,25.3663366 3.08910891,24.3564356 4.27722772,24.3564356 C5.52475248,24.3564356 6.47524752,25.3663366 6.47524752,26.5544554 C6.47524752,27.7425743 5.52475248,28.7524752 4.27722772,28.7524752 Z" id="Shape" fill="#FFFFFF"></path>
                    <path d="M25.5445545,37.6039604 C22.3366337,37.6039604 19.7227723,34.990099 19.7227723,31.7821782 C19.7227723,28.5742574 22.3366337,25.960396 25.5445545,25.960396 C28.7524752,25.960396 31.3663366,28.5742574 31.3663366,31.7821782 C31.4257426,34.990099 28.8118812,37.6039604 25.5445545,37.6039604 Z" id="Shape" fill="#FFFFFF"></path>
                </g>
            </g>
        </g>
    </g>
</svg>