
<svg width="54px" height="60px" viewBox="0 0 54 60" version="1.1" xmlns="http://www.w3.org/2000/svg" xmlns:xlink="http://www.w3.org/1999/xlink">
    <!-- Generator: Sketch 47.1 (45422) - http://www.bohemiancoding.com/sketch -->
    <desc>Created with Sketch.</desc>
    <defs>
        <linearGradient x1="0%" y1="58.5698485%" x2="100%" y2="58.5698485%" id="linearGradient-1">
            <stop stop-color="#4BAD00" offset="0%"></stop>
            <stop stop-color="#71DF55" offset="100%"></stop>
        </linearGradient>
    </defs>
    <g id="Page-1" stroke="none" stroke-width="1" fill="none" fill-rule="evenodd">
        <g id="1.0-Landing-Page" transform="translate(-945.000000, -4355.000000)" fill-rule="nonzero" fill="url(#linearGradient-1)">
            <g id="user" transform="translate(945.000000, 4355.000000)">
                <path d="M54,17.9497652 C54,14.7763937 51.41509,12.2033898 48.2270344,12.2033898 C46.491452,12.2033898 44.940506,12.9630386 43.8819239,14.1760261 L32.4713928,7.59648765 C32.6683383,7.02062487 32.7791201,6.3957525 32.7791201,5.74637533 C32.7791201,2.57300388 30.1942102,0 27.0061545,0 C23.8180989,0 21.233189,2.57300388 21.233189,5.74637533 C21.233189,6.3957525 21.3439708,7.00837247 21.5409163,7.58423525 L10.1303852,14.1637737 C9.07180305,12.9630386 7.52085708,12.1911374 5.78527468,12.1911374 C2.59721906,12.1911374 0.0123090951,14.7641413 0.0123090951,17.9375128 C0.0123090951,20.6820502 1.95714611,22.9855013 4.54205607,23.5491117 L4.55436517,36.4386359 C1.95714611,37.0022463 0,39.3056974 0,42.0502348 C0,45.2236063 2.58490996,47.7966102 5.77296558,47.7966102 C7.4716207,47.7966102 8.99794848,47.0614662 10.0565307,45.8974883 L21.5039891,52.4770268 C21.3193526,53.0406371 21.2208799,53.6287523 21.2208799,54.2536247 C21.2208799,57.4269961 23.8057898,60 26.9938455,60 C30.1819011,60 32.766811,57.4269961 32.766811,54.2536247 C32.766811,53.6287523 32.6683383,53.0406371 32.4837018,52.4770268 L43.9311602,45.8974883 C44.9897424,47.0614662 46.5160702,47.7966102 48.2147253,47.7966102 C51.4027809,47.7966102 53.9876909,45.2236063 53.9876909,42.0502348 C53.9876909,39.2689402 51.9813084,36.9287319 49.334853,36.4141311 L49.334853,23.5736165 C51.9936175,23.0712681 54,20.7433122 54,17.9497652 Z M48.2270344,14.4210741 C50.1841805,14.4210741 51.7720538,16.0016337 51.7720538,17.9497652 C51.7720538,19.8978967 50.1841805,21.4784562 48.2270344,21.4784562 C46.2698883,21.4784562 44.682015,19.8978967 44.682015,17.9497652 C44.682015,16.0016337 46.2821974,14.4210741 48.2270344,14.4210741 Z M27.0061545,2.2299367 C28.9633007,2.2299367 30.5511739,3.81049622 30.5511739,5.75862773 C30.5511739,6.3589953 30.4034648,6.92260568 30.1326647,7.42495405 C30.1080465,7.44945885 30.0957374,7.47396365 30.0711192,7.51072085 C30.0588101,7.53522565 30.046501,7.55973045 30.0341919,7.58423525 C29.4187372,8.6011844 28.2863004,9.28731877 27.0061545,9.28731877 C25.0490084,9.28731877 23.4611352,7.70675924 23.4611352,5.75862773 C23.4611352,3.81049622 25.0490084,2.2299367 27.0061545,2.2299367 Z M2.2402553,17.9497652 C2.2402553,16.0016337 3.82812856,14.4210741 5.78527468,14.4210741 C7.74242079,14.4210741 9.33029405,16.0016337 9.33029405,17.9497652 C9.33029405,19.8978967 7.74242079,21.4784562 5.78527468,21.4784562 C3.82812856,21.4784562 2.2402553,19.8978967 2.2402553,17.9497652 Z M5.78527468,45.5911783 C3.82812856,45.5911783 2.2402553,44.0106187 2.2402553,42.0624872 C2.2402553,40.1143557 3.82812856,38.5337962 5.78527468,38.5337962 C7.74242079,38.5337962 9.33029405,40.1143557 9.33029405,42.0624872 C9.31798496,44.0106187 7.73011169,45.5911783 5.78527468,45.5911783 Z M27.0061545,57.7823157 C25.0490084,57.7823157 23.4611352,56.2017562 23.4611352,54.2536247 C23.4611352,52.3054932 25.0490084,50.7249336 27.0061545,50.7249336 C28.9633007,50.7249336 30.5511739,52.3054932 30.5511739,54.2536247 C30.5511739,56.2017562 28.9633007,57.7823157 27.0061545,57.7823157 Z M31.4005015,50.5411476 C30.3419193,49.3036553 28.7663551,48.5072493 27.0061545,48.5072493 C25.245954,48.5072493 23.6703898,49.2914029 22.6118076,50.5411476 L11.2135856,43.9983663 C11.4351493,43.3979988 11.5582403,42.7363692 11.5582403,42.0624872 C11.5582403,39.232183 9.50262138,36.8797223 6.79462047,36.4018787 L6.78231137,23.5981213 C9.49031229,23.1325301 11.5582403,20.767817 11.5582403,17.9375128 C11.5582403,17.2881356 11.4474584,16.6632632 11.2505129,16.0874004 L22.661044,9.50786196 C23.7196262,10.7208495 25.2828812,11.4804983 27.0184636,11.4804983 C28.754046,11.4804983 30.304992,10.7208495 31.3635742,9.50786196 L42.7741053,16.0874004 C42.5771598,16.6632632 42.4663779,17.2881356 42.4663779,17.9375128 C42.4663779,20.7188074 44.4727604,23.0590157 47.1192159,23.5736165 L47.1192159,36.4141311 C44.4727604,36.9287319 42.4663779,39.2566878 42.4663779,42.0502348 C42.4663779,42.7363692 42.5894689,43.3857464 42.8110326,43.9861139 L31.4005015,50.5411476 Z M51.7720538,42.0624872 C51.7720538,44.0106187 50.1841805,45.5911783 48.2270344,45.5911783 C46.2698883,45.5911783 44.682015,44.0106187 44.682015,42.0624872 C44.682015,40.1143557 46.2698883,38.5337962 48.2270344,38.5337962 C50.1841805,38.5337962 51.7720538,40.1143557 51.7720538,42.0624872 Z" id="Shape"></path>
                <path d="M32.3549934,34.4093368 L32.3549934,30.4477132 C33.0302581,29.8056152 33.4108617,28.921216 33.4108617,27.9762416 L33.4108617,22.7788822 C33.4108617,19.5926222 30.7834685,17 27.5544758,17 L26.4249423,17 C23.1959496,17 20.5685564,19.5926222 20.5685564,22.7788822 L20.5685564,27.9762416 C20.5685564,28.921216 20.9614376,29.8056152 21.6244247,30.4477132 L21.6244247,34.4093368 C20.3475607,35.0635499 17.278176,36.7233127 14.405232,39.0494036 C13.926408,39.4370854 13.8650203,40.1276437 14.2579015,40.6001309 C14.6507827,41.0726181 15.3506024,41.1331934 15.8294264,40.7455116 C19.0093089,38.1650045 22.4470198,36.4567814 23.1100068,36.14179 C23.5765533,35.9116039 23.8589367,35.4633468 23.8589367,34.9423993 L23.8589367,29.9267657 C23.8589367,29.563314 23.6747736,29.2119774 23.3678352,29.0181365 C23.0117865,28.7879504 22.8030684,28.4002686 22.8030684,27.9762416 L22.8030684,22.7788822 C22.8030684,20.8041279 24.435981,19.1928253 26.4372198,19.1928253 L27.5667534,19.1928253 C29.5679922,19.1928253 31.2009048,20.8041279 31.2009048,22.7788822 L31.2009048,27.9762416 C31.2009048,28.3881535 30.9921866,28.7758353 30.636138,29.0181365 C30.3291996,29.2240924 30.1450365,29.563314 30.1450365,29.9267657 L30.1450365,34.9423993 C30.1450365,35.4512317 30.4396974,35.9116039 30.9062439,36.14179 C31.569231,36.4567814 35.0069418,38.1771195 38.1868243,40.7455116 C38.3955424,40.9151224 38.6410932,40.9999278 38.886644,40.9999278 C39.20586,40.9999278 39.525076,40.8666622 39.7460717,40.6001309 C40.1389529,40.1276437 40.0652877,39.4370854 39.5987412,39.0494036 C36.7012421,36.7233127 33.6318574,35.0514348 32.3549934,34.4093368 Z" id="Shape"></path>
            </g>
        </g>
    </g>
</svg>