<svg xmlns="http://www.w3.org/2000/svg" width="254" height="274" viewBox="0 0 254 274">
  <defs>
    <linearGradient id="bi-awareness-adv-a" x1="0%" y1="50%" y2="50%">
      <stop offset="0%" stop-color="#C33764"/>
      <stop offset="100%" stop-color="#1D2671"/>
    </linearGradient>
  </defs>
  <g fill="none" fill-rule="evenodd" transform="translate(-1)">
    <path fill="#363F44" d="M254.088223,189.199946 L254.050277,184.076897 L245.691437,184.138912 C214.162509,166.062277 181.96117,148.378908 150.412509,130.309835 C149.943491,130.039087 149.231616,130.010348 148.826348,130.244795 C103.914473,156.575484 59.0344732,182.921299 14.1225982,209.2535 L5.41616964,209.318541 L5.45715179,214.668474 L5.47233036,214.668474 C5.50724107,214.818218 5.62715179,214.966449 5.8320625,215.085942 C40.0309018,234.806732 74.1644732,254.305176 108.88242,273.724967 C109.348402,273.985127 110.069384,273.99269 110.495902,273.746143 C158.545187,245.896841 206.102687,217.77679 253.784652,189.718755 C254.021437,189.578087 254.120098,189.389016 254.088223,189.199946"/>
    <polygon fill="#363F44" points="6.071 209.794 147.411 127.066 145.937 122.279 4.599 205.007"/>
    <path fill="#64798B" d="M7.14440179,81.2925233 C3.73377679,83.2906184 0.962169643,87.7194015 0.987973214,91.1332552 L1.83341964,203.958321 C1.85922321,207.373688 4.67333036,208.533823 8.08395536,206.535728 L144.26458,126.828219 C147.676723,124.831636 150.44833,120.402853 150.422527,116.989 L149.575562,4.16393346 C149.549759,0.748567208 146.73717,-0.411568271 143.325027,1.5850143 L7.14440179,81.2925233 Z"/>
    <path fill="#363F44" d="M2.57747321,203.522098 C2.60024107,206.535123 5.06827679,207.553077 8.0781875,205.790942 L144.258812,126.083433 C147.267205,124.321298 149.698812,120.435525 149.676045,117.424013 L148.830598,4.59894645 C148.80783,1.58592184 146.339795,0.567967239 143.329884,2.33010262 L7.15077679,82.0376116 C4.13934821,83.8012595 1.70925893,87.6840076 1.73050893,90.6985448 L2.57747321,203.522098 Z"/>
    <polygon fill="#FFF" points="8.728 88.916 141.806 11.433 142.612 119.014 9.534 196.497"/>
    <polygon fill="url(#bi-awareness-adv-a)" points="8.728 88.916 141.806 11.433 141.989 39.989 8.913 117.472"/>
    <path fill="#E2E2E2" d="M110.458107,268.625816 C158.505875,240.778027 206.064893,212.654951 253.745339,184.598428 C254.184,184.33978 254.164268,183.911725 253.698286,183.640976 C219.623911,163.944386 184.609982,144.796857 150.374714,125.189509 C149.904179,124.91876 149.193821,124.890021 148.788554,125.125981 C101.074714,153.093263 53.4048929,181.084745 5.69408929,209.055052 C5.28882143,209.291012 5.335875,209.700916 5.79426786,209.967127 C39.9915893,229.687918 74.1251607,249.184849 108.844625,268.603127 C109.309089,268.863288 110.031589,268.872363 110.458107,268.625816"/>
    <path fill="url(#bi-awareness-adv-a)" d="M160.399098,232.650725 C170.596063,226.629214 180.89017,220.66518 191.06892,214.637618 C191.466598,214.403171 191.419545,213.997804 190.967223,213.733106 C185.067313,210.316227 171.775438,202.726188 165.867938,199.312334 C165.421688,199.053686 164.731063,199.035535 164.334902,199.273008 C154.069634,205.339896 143.799813,211.406784 133.525438,217.469135 C133.127759,217.70207 133.173295,218.101386 133.625616,218.357009 C139.609009,221.736074 152.865973,229.224771 158.852402,232.602323 C159.312313,232.860972 160.004455,232.882148 160.399098,232.650725"/>
    <path fill="#363F44" d="M116.397482 177.908969C114.078196 179.268763 112.917036 179.949416 110.599268 181.306185 110.376143 181.436265 110.400429 181.655586 110.643286 181.796255 113.229714 183.290667 114.518375 184.034847 117.091143 185.518671 117.334 185.657827 117.710429 185.668415 117.932036 185.539847 120.24525 184.183078 121.401857 183.503938 123.716589 182.145657 123.938196 182.017089 123.918464 181.797767 123.675607 181.657099 121.105875 180.17025 119.82025 179.426069 117.241411 177.931657 116.997036 177.789477 116.619089 177.781914 116.397482 177.908969M123.717045 173.622367C121.393205 174.983673 120.232045 175.665839 117.908205 177.02412 117.688116 177.152688 117.710884 177.372009 117.955259 177.512678 120.534098 179.010115 121.819723 179.754295 124.38642 181.239632 124.63383 181.3803 125.008741 181.389375 125.227312 181.260808 127.543562 179.902526 128.706241 179.223386 131.022491 177.863592 131.245616 177.731999 131.224366 177.512678 130.979991 177.372009 128.417848 175.886673 127.132223 175.137954 124.55642 173.646568 124.31508 173.505899 123.938652 173.492286 123.717045 173.622367M131.042527 169.329865C128.715652 170.692684 127.551455 171.377875 125.227616 172.736156 125.006009 172.866237 125.028777 173.085558 125.27467 173.226227 127.848955 174.722151 129.133063 175.470869 131.696723 176.953181 131.941098 177.095362 132.312973 177.10595 132.53458 176.974357 134.856902 175.61305 136.01958 174.932397 138.344938 173.569578 138.563509 173.439498 138.542259 173.218664 138.30092 173.079508 135.740295 171.592659 134.460741 170.846966 131.886455 169.354066 131.643598 169.210373 131.264134 169.199785 131.042527 169.329865M109.086875 182.191034C106.769107 183.547802 105.609464 184.228455 103.293214 185.585224 103.073125 185.713792 103.092857 185.934626 103.341786 186.075294 105.929732 187.568193 107.219911 188.310862 109.800268 189.79166 110.046161 189.932329 110.421071 189.942917 110.641161 189.814349 112.952857 188.459093 114.109464 187.77844 116.422679 186.423184 116.644286 186.296128 116.626071 186.075294 116.383214 185.934626 113.804375 184.450802 112.512679 183.708134 109.929286 182.215235 109.684911 182.073054 109.308482 182.060953 109.086875 182.191034M101.782188 186.470224C99.4674554 187.82548 98.3078125 188.507646 95.9900446 189.862902 95.7684375 189.989957 95.7912054 190.210792 96.0386161 190.349947 98.6311161 191.839821 99.9258482 192.584002 102.513795 194.064801 102.761205 194.203957 103.136116 194.211519 103.354688 194.082952 105.666384 192.729208 106.822991 192.053093 109.134688 190.697837 109.351741 190.567756 109.336563 190.348435 109.09067 190.209279 106.508795 188.726968 105.21558 187.982787 102.629152 186.492913 102.380223 186.350732 102.002277 186.341657 101.782188 186.470224M163.781643 177.843929C170.634768 173.809924 177.501554 169.777433 184.342536 165.746454 184.567179 165.614861 184.555036 165.395539 184.313696 165.256383 179.433786 162.45663 174.547804 159.658389 169.672446 156.860148 169.428071 156.720993 169.048607 156.710405 168.823964 156.84351 165.185661 158.976224 163.370304 160.039555 159.751732 162.16168 159.528607 162.291761 159.545304 162.511082 159.786643 162.650238 162.916464 164.453213 164.478339 165.36075 167.596018 167.159187 163.909143 169.322151 160.225304 171.489654 156.539946 173.652618 156.321375 173.781186 156.338071 173.998995 156.579411 174.141176 159.129411 175.615924 160.404411 176.354055 162.943786 177.827291 163.185125 177.966446 163.560036 177.974009 163.781643 177.843929M138.381214 165.029953C136.052821 166.395797 134.888625 167.079475 132.56175 168.442294 132.338625 168.570862 132.358357 168.790183 132.602732 168.932364 135.173982 170.428288 136.458089 171.173982 139.018714 172.659318 139.261571 172.801499 139.634964 172.810574 139.858089 172.680494 142.183446 171.316163 143.347643 170.629459 145.679071 169.26664 145.900679 169.13656 145.883982 168.915726 145.641125 168.775058 143.083536 167.289721 141.799429 166.541003 139.228179 165.051128 138.982286 164.91046 138.604339 164.899872 138.381214 165.029953M149.041884 186.521954C151.350545 185.16216 152.511705 184.479995 154.829473 183.115663 155.046527 182.987095 155.025277 182.767774 154.785455 182.628618 152.238491 181.153869 150.963491 180.415739 148.413491 178.937965 148.172152 178.79881 147.797241 178.789734 147.575634 178.919815 145.253313 180.284146 144.09367 180.967824 141.780455 182.326105 141.55733 182.456186 141.57858 182.673995 141.822955 182.813151 144.377509 184.284874 145.655545 185.029055 148.205545 186.502291 148.445366 186.641446 148.821795 186.650522 149.041884 186.521954M161.368554 152.08756C161.122661 151.945379 160.741679 151.936304 160.520071 152.066384 153.718554 156.048961 146.918554 160.034564 140.118554 164.012603 139.896946 164.141171 139.918196 164.362005 140.162571 164.504186 142.733821 165.992547 144.013375 166.747316 146.574 168.229627 146.818375 168.370296 147.194804 168.379371 147.417929 168.250803 154.220964 164.257638 161.027036 160.258423 167.836143 156.277358 168.059268 156.145765 168.044089 155.926444 167.799714 155.785775 165.233018 154.312539 163.945875 153.571384 161.368554 152.08756M156.337616 182.225066C158.655384 180.860735 159.825652 180.175544 162.146455 178.806675 162.371098 178.675082 162.34833 178.457273 162.105473 178.318117 159.561545 176.844881 158.288062 176.106751 155.742616 174.63049 155.501277 174.492846 155.126366 174.483771 154.906277 174.613851 152.574848 175.982721 151.410652 176.666399 149.08833 178.032243 148.865205 178.159298 148.886455 178.380132 149.129312 178.520801 151.677795 179.997062 152.954312 180.735192 155.499759 182.206916 155.741098 182.347584 156.116009 182.355147 156.337616 182.225066M57.8948661 212.13947C55.5649554 213.500776 54.3962054 214.181429 52.0632589 215.544248 51.8416518 215.672816 51.8644196 215.890625 52.1118304 216.031293 54.7225446 217.515117 56.0279018 218.256273 58.6325446 219.731021 58.8814732 219.870177 59.2594196 219.879252 59.4810268 219.750684 61.8170089 218.392403 62.9812054 217.704187 65.3126339 216.345906 65.5312054 216.217338 65.5145089 215.998017 65.2655804 215.857348 62.6624554 214.387138 61.3555804 213.641444 58.7448661 212.160646 58.4959375 212.019977 58.1149554 212.010902 57.8948661 212.13947M82.7896964 224.922438C83.038625 225.061594 83.4180893 225.072182 83.6427321 224.940589 85.9620179 223.57777 87.1277321 222.892579 89.4485357 221.540348 89.6701429 221.411781 89.6443393 221.193972 89.3984464 221.054816 86.7983571 219.592168 85.4960357 218.858575 82.8974643 217.391389 82.6500536 217.253746 82.2705893 217.244671 82.0505 217.373239 79.7296964 218.73152 78.5670179 219.412173 76.2401429 220.773479 76.0200536 220.90356 76.0397857 221.119856 76.2856786 221.257499 78.8888036 222.726198 80.1880893 223.461303 82.7896964 224.922438M71.1005268 222.113005C71.3479375 222.25216 71.7304375 222.259723 71.9535625 222.131155 74.2834732 220.766824 75.4476696 220.083146 77.7730268 218.726377 77.9915982 218.597809 77.9688304 218.378488 77.7229375 218.239332 75.1198125 216.773659 73.8190089 216.037041 71.2158839 214.565317 70.9684732 214.424649 70.5905268 214.414061 70.3704375 214.542629 68.0405268 215.903935 66.8748125 216.584589 64.5479375 217.945895 64.3263304 218.074463 64.3475804 218.295297 64.5919554 218.434453 67.1996339 219.907688 68.5019554 220.642794 71.1005268 222.113005M95.2469018 227.275532C95.4958304 227.414688 95.8737768 227.42225 96.0938661 227.293683 98.4146696 225.932376 99.5788661 225.253236 101.881455 223.899492 102.100027 223.770924 102.080295 223.551603 101.832884 223.41396 99.2297589 221.949799 97.9274375 221.220744 95.3258304 219.758096 95.0799375 219.61894 94.7035089 219.611377 94.4834196 219.739945 92.1686875 221.098226 91.0075268 221.774342 88.6882411 223.135648 88.4666339 223.264216 88.4894018 223.480512 88.7368125 223.618156 91.3384196 225.083829 92.6437768 225.814396 95.2469018 227.275532M103.387625 223.015551C105.696286 221.660295 106.849857 220.982667 109.152446 219.630436 109.367982 219.501868 109.345214 219.285571 109.097804 219.146416 106.497714 217.683768 105.201464 216.954713 102.604411 215.489039 102.360036 215.351396 101.980571 215.342321 101.763518 215.469376 99.4578929 216.821607 98.3012857 217.503773 95.9880714 218.857516 95.7695 218.986084 95.79075 219.202381 96.035125 219.341536 98.6367321 220.804184 99.9405714 221.534752 102.543696 222.995887 102.791107 223.136556 103.169054 223.144119 103.387625 223.015551M94.4805357 190.746541C92.1627679 192.101797 91.0016071 192.78245 88.6853571 194.137706 88.46375 194.266274 88.4880357 194.485596 88.7339286 194.626264 91.3325 196.113113 92.6333036 196.855781 95.2258036 198.333555 95.4686607 198.472711 95.8450893 198.481786 96.0682143 198.354731 98.3799107 197.005525 99.5365179 196.321847 101.848214 194.968103 102.066786 194.839535 102.047054 194.620214 101.799643 194.481058 99.2132143 192.998747 97.9154464 192.256079 95.3244643 190.76923 95.0800893 190.627049 94.6991071 190.616461 94.4805357 190.746541M79.8652411 199.297511C77.5474732 200.652767 76.3878304 201.334933 74.0639911 202.690189 73.8439018 202.818757 73.8681875 203.038078 74.1171161 203.177234 76.7247946 204.66257 78.0255982 205.403726 80.6287232 206.878475 80.8761339 207.01763 81.2510446 207.026706 81.4726518 206.898138 83.7904196 205.542882 84.9530982 204.865254 87.2647946 203.508485 87.4864018 203.379917 87.4666696 203.160596 87.2192589 203.02144 84.6222054 201.543666 83.3122946 200.802511 80.7152411 199.3202 80.4663125 199.178019 80.0868482 199.167431 79.8652411 199.297511M87.1758482 195.021345C84.8565625 196.378114 83.6984375 197.055742 81.3776339 198.412511 81.1575446 198.541079 81.1818304 198.7604 81.4292411 198.901068 84.0323661 200.386405 85.3346875 201.126048 87.9302232 202.603822 88.1761161 202.742977 88.5525446 202.753565 88.7726339 202.624997 91.0888839 201.269741 92.2470089 200.592113 94.5587054 199.236857 94.7772768 199.108289 94.7590625 198.89048 94.5131696 198.749812 91.9191518 197.270526 90.6153125 196.52937 88.0212946 195.044034 87.7738839 194.903366 87.3974554 194.892778 87.1758482 195.021345M65.2291518 207.855893C62.9053125 209.214174 61.7395982 209.893314 59.4127232 211.253108 59.1895982 211.383188 59.2108482 211.60251 59.4597768 211.741666 62.0720089 213.223977 63.3773661 213.965133 65.9820089 215.439881 66.2294196 215.577524 66.6104018 215.588112 66.8320089 215.458032 69.1604018 214.098238 70.3215625 213.417585 72.6484375 212.059304 72.8685268 211.930736 72.8457589 211.712927 72.5983482 211.573771 69.9952232 210.09751 68.6898661 209.35938 66.0776339 207.875556 65.8302232 207.734888 65.4507589 207.725812 65.2291518 207.855893M72.5531161 203.573828C70.2307946 204.930597 69.0696339 205.614275 66.7457946 206.968018 66.5241875 207.098099 66.5469554 207.31742 66.7928482 207.458089 69.4065982 208.941912 70.7119554 209.680043 73.3135625 211.156304 73.5594554 211.293947 73.9389196 211.303023 74.1605268 211.174455 76.4813304 209.817686 77.6440089 209.13552 79.9632946 207.781777 80.1833839 207.653209 80.1651696 207.433888 79.9177589 207.294732 77.3115982 205.818471 76.0032054 205.078828 73.4015982 203.596516 73.1541875 203.455848 72.7747232 203.443748 72.5531161 203.573828"/>
    <path fill="#363F44" d="M150.724277 167.455347C148.389812 168.825728 147.221062 169.507894 144.894187 170.875251 144.674098 171.005331 144.690795 171.224653 144.933652 171.365321 147.483652 172.847632 148.766241 173.588788 151.316241 175.065049 151.55758 175.205717 151.934009 175.21328 152.155616 175.084712 154.482491 173.715843 155.646687 173.033677 157.98267 171.661783 158.204277 171.53019 158.190616 171.312381 157.949277 171.171713 155.400795 169.693939 154.124277 168.954296 151.566687 167.47501 151.325348 167.332829 150.945884 167.325266 150.724277 167.455347M128.737509 180.35206C126.422777 181.710341 125.261616 182.389482 122.94992 183.747763 122.72983 183.876331 122.749563 184.095652 122.99242 184.234808 125.560634 185.718632 126.844741 186.458275 129.406884 187.937561 129.652777 188.076717 130.027688 188.085792 130.246259 187.955712 132.556438 186.600456 133.711527 185.919803 136.026259 184.561522 136.24483 184.432954 136.22358 184.215145 135.980723 184.074476 133.424652 182.59519 132.137509 181.855547 129.57992 180.373236 129.335545 180.232568 128.959116 180.22198 128.737509 180.35206M121.440259 184.632763C119.125527 185.989532 117.967402 186.668673 115.655705 188.023929 115.437134 188.152496 115.459902 188.371818 115.702759 188.510974 118.275527 189.993285 119.564188 190.732928 122.13392 192.207677 122.376777 192.346832 122.751688 192.35742 122.971777 192.228852 125.280438 190.875109 126.438563 190.195968 128.74267 188.8392 128.959723 188.710632 128.938473 188.492823 128.697134 188.353667 126.131955 186.875894 124.849366 186.136251 122.281152 184.653939 122.038295 184.513271 121.661866 184.504196 121.440259 184.632763M136.051152 176.063945C133.72883 177.425251 132.561598 178.107417 130.249902 179.465698 130.028295 179.594266 130.048027 179.813588 130.292402 179.954256 132.856062 181.43808 134.137134 182.179236 136.693205 183.657009 136.936062 183.796165 137.309455 183.806753 137.529545 183.676673 139.844277 182.316879 141.00392 181.636226 143.321687 180.273407 143.541777 180.144839 143.523562 179.92703 143.282223 179.787874 140.726152 178.308588 139.446598 177.56592 136.889009 176.083609 136.646152 175.94294 136.271241 175.933865 136.051152 176.063945M114.151812 188.907568C111.840116 190.262824 110.686545 190.941964 108.371812 192.295708 108.154759 192.424276 108.174491 192.643597 108.418866 192.784265 111.002259 194.263552 112.287884 195.001682 114.865205 196.476431 115.111098 196.615586 115.486009 196.623149 115.70458 196.496094 118.010205 195.140838 119.162259 194.461697 121.469402 193.109466 121.689491 192.980899 121.666723 192.764602 121.422348 192.623934 118.854134 191.147673 117.563955 190.409542 114.992705 188.928743 114.74833 188.788075 114.371902 188.777487 114.151812 188.907568M106.866402 193.177834C104.556223 194.53309 103.39658 195.210718 101.08792 196.564462 100.869348 196.69303 100.88908 196.910839 101.134973 197.053019 103.724437 198.529281 105.013098 199.265899 107.596491 200.739134 107.840866 200.879803 108.22033 200.888878 108.44042 200.76031 110.746045 199.406567 111.895062 198.728939 114.202205 197.376708 114.420777 197.24814 114.399527 197.030331 114.15667 196.889663 111.57783 195.416427 110.284616 194.676784 107.708812 193.19901 107.464437 193.059854 107.084973 193.049266 106.866402 193.177834M143.378 171.765696C141.049607 173.130028 139.885411 173.815218 137.564607 175.175012 137.344518 175.305093 137.362732 175.522902 137.602554 175.665082 140.163179 177.148906 141.439696 177.891575 143.992732 179.369348 144.235589 179.508504 144.6105 179.516067 144.832107 179.385986 147.154429 178.02468 148.312554 177.341002 150.642464 175.973645 150.864071 175.845077 150.841304 175.627268 150.601482 175.485088 148.056036 174.007314 146.768893 173.267671 144.217375 171.78536 143.974518 171.644691 143.596571 171.635616 143.378 171.765696M186.897848 165.891206C189.449366 167.352341 190.724366 168.082909 193.272848 169.547069 193.51267 169.684713 193.89517 169.690763 194.122848 169.557657 196.502848 168.153999 197.695884 167.447633 200.094098 166.039437 200.321777 165.906331 200.314188 165.683985 200.07133 165.544829 197.522848 164.091256 196.231152 163.356151 193.676598 161.907116 193.435259 161.769473 193.052759 161.764935 192.82508 161.898041 190.434455 163.303211 189.244455 164.003528 186.869009 165.399623 186.644366 165.532728 186.654991 165.753563 186.897848 165.891206M110.649205 218.749671C112.951795 217.39744 114.103848 216.722837 116.39733 215.372118 116.615902 215.243551 116.58858 215.025742 116.344205 214.886586 113.751705 213.426963 112.453937 212.688832 109.864473 211.224672 109.61858 211.088541 109.240634 211.077953 109.025098 211.206521 106.722509 212.558752 105.570455 213.23638 103.266348 214.588611 103.046259 214.717179 103.065991 214.933475 103.31492 215.071118 105.908937 216.536792 107.211259 217.267359 109.806795 218.730007 110.054205 218.869163 110.429116 218.876726 110.649205 218.749671M141.765277 190.80417C144.070902 189.447401 145.229027 188.768261 147.537688 187.408467 147.754741 187.279899 147.735009 187.059065 147.492152 186.921422 144.94367 185.446673 143.66108 184.70703 141.108045 183.232282 140.865188 183.093126 140.493313 183.084051 140.271705 183.211106 137.956973 184.573925 136.800366 185.254578 134.48867 186.611346 134.270098 186.739914 134.28983 186.956211 134.53117 187.098392 137.093313 188.57314 138.372866 189.309758 140.930455 190.782994 141.171795 190.92215 141.545188 190.932738 141.765277 190.80417M159.50675 170.76559C161.84425 169.392183 163.013 168.70548 165.358089 167.329048 165.579696 167.198967 165.564518 166.978133 165.323179 166.838977 162.774696 165.365742 161.498179 164.621561 158.939071 163.148325 158.697732 163.009169 158.321304 163.001606 158.098179 163.131687 155.754607 164.505093 154.584339 165.193309 152.246839 166.562178 152.023714 166.692259 152.040411 166.91158 152.283268 167.053761 154.840857 168.53456 156.120411 169.274203 158.667375 170.747439 158.907196 170.888107 159.285143 170.897183 159.50675 170.76559M99.5825089 197.44674C97.2723304 198.801996 96.1126875 199.479624 93.7994732 200.833367 93.5809018 200.961935 93.6036696 201.181256 93.8465268 201.323437 96.4405446 202.798186 97.7352768 203.534804 100.326259 205.005015 100.570634 205.142658 100.951616 205.151733 101.170187 205.024678 103.47733 203.669422 104.629384 202.993306 106.938045 201.641075 107.155098 201.512508 107.135366 201.296211 106.889473 201.155543 104.304562 199.68382 103.011348 198.947202 100.42492 197.467915 100.180545 197.32876 99.8041161 197.318172 99.5825089 197.44674M112.773295 207.855893C115.066777 206.503662 116.234009 205.827546 118.522938 204.47834 118.739991 204.349773 118.717223 204.133476 118.474366 203.992808 115.894009 202.525622 114.605348 201.789004 112.021955 200.318793 111.779098 200.178125 111.404188 200.16905 111.184098 200.297617 108.878473 201.649848 107.723384 202.328989 105.417759 203.679707 105.200705 203.808275 105.221955 204.027597 105.469366 204.16524 108.054277 205.633938 109.347491 206.370556 111.932402 207.834717 112.176777 207.973872 112.556241 207.98446 112.773295 207.855893M120.020304 203.597424C122.312268 202.245193 123.465839 201.563027 125.763875 200.218359 125.982446 200.091304 125.959679 199.871982 125.718339 199.732827 123.147089 198.262616 121.856911 197.524485 119.285661 196.055787 119.039768 195.915119 118.666375 195.904531 118.447804 196.034611 116.142179 197.388355 114.990125 198.065983 112.686018 199.415188 112.465929 199.543756 112.487179 199.763078 112.730036 199.903746 115.308875 201.373957 116.602089 202.110575 119.179411 203.576248 119.423786 203.716916 119.801732 203.724479 120.020304 203.597424M134.509616 195.075949C136.812205 193.720693 137.961223 193.04004 140.26533 191.686296 140.483902 191.559241 140.461134 191.339919 140.219795 191.200764 137.662205 189.72904 136.382652 188.989397 133.823545 187.513136 133.57917 187.372468 133.207295 187.364905 132.98417 187.493473 130.675509 188.851754 129.521937 189.529382 127.213277 190.884638 126.994705 191.011693 127.015955 191.231015 127.26033 191.371683 129.825509 192.846432 131.112652 193.58305 133.670241 195.054773 133.913098 195.195441 134.289527 195.204517 134.509616 195.075949M92.2942143 201.717006C89.9794821 203.072262 88.8198393 203.74989 86.506625 205.105146 86.2865357 205.233714 86.3077857 205.451523 86.5551964 205.592191 89.1537679 207.065427 90.4545714 207.800533 93.0455536 209.270744 93.2914464 209.409899 93.6693929 209.418975 93.8894821 209.290407 96.2026964 207.935151 97.3562679 207.259035 99.6649286 205.906804 99.8865357 205.778237 99.86225 205.558915 99.617875 205.419759 97.0268929 203.951061 95.7276071 203.21293 93.1381429 201.736669 92.89225 201.597514 92.5143036 201.588438 92.2942143 201.717006M127.261241 199.337443C129.562312 197.985212 130.708295 197.307584 133.009366 195.956865 133.229455 195.828298 133.206687 195.610489 132.96383 195.46982 130.398652 193.998097 129.116062 193.261479 126.547848 191.788243 126.304991 191.647575 125.93008 191.638499 125.711509 191.767067 123.404366 193.122323 122.252312 193.798439 119.948205 195.152182 119.729634 195.279237 119.750884 195.498559 119.993741 195.639227 122.566509 197.110951 123.852134 197.847569 126.424902 199.317779 126.667759 199.458448 127.04267 199.466011 127.261241 199.337443M105.520518 212.115874C107.824625 210.76213 108.978196 210.087527 111.274714 208.736809 111.493286 208.608241 111.470518 208.390432 111.226143 208.251276 108.636679 206.785603 107.338911 206.050498 104.758554 204.583312 104.514179 204.442644 104.136232 204.433568 103.919179 204.562136 101.616589 205.914367 100.458464 206.593508 98.1482857 207.945739 97.9297143 208.072794 97.9524821 208.290603 98.1968571 208.428246 100.789357 209.89997 102.084089 210.633562 104.675071 212.09621 104.919446 212.235366 105.300429 212.244442 105.520518 212.115874M98.2499821 216.381754C100.558643 215.026498 101.719804 214.34887 104.019357 212.996639 104.236411 212.868071 104.212125 212.651775 103.964714 212.512619 101.373732 211.049971 100.079 210.313353 97.4865 208.846167 97.2406071 208.708524 96.8626607 208.697936 96.6425714 208.826504 94.3339107 210.180247 93.1757857 210.859388 90.8625714 212.214644 90.644 212.341699 90.6667679 212.559508 90.9141786 212.697151 93.5097143 214.16585 94.8044464 214.900955 97.4030179 216.362091 97.6504286 216.501246 98.0298929 216.510322 98.2499821 216.381754M84.9998482 205.987424C82.6851161 207.34268 81.5239554 208.024846 79.2046696 209.378589 78.9830625 209.507157 79.0043125 209.726479 79.2502054 209.865634 81.8548482 211.33887 83.1510982 212.073976 85.7511875 213.542674 85.9970804 213.683342 86.3795804 213.690905 86.5996696 213.562337 88.9144018 212.204056 90.0725268 211.524916 92.3872589 210.172685 92.6058304 210.045629 92.5800268 209.826308 92.3356518 209.687152 89.7401161 208.219966 88.4423482 207.480323 85.8452946 206.0086 85.5994018 205.869444 85.2199375 205.860369 84.9998482 205.987424M77.6936429 210.260716C75.3728393 211.618997 74.207125 212.29965 71.8848036 213.657931 71.6631964 213.788012 71.6859643 214.007333 71.9303393 214.146489 74.5365 215.619725 75.8403393 216.353318 78.4419464 217.822016 78.6878393 217.961172 79.0657857 217.970247 79.285875 217.841679 81.6112321 216.481886 82.7739107 215.802745 85.0901607 214.445976 85.3087321 214.317408 85.2859643 214.099599 85.0385536 213.960444 82.4430179 212.491745 81.1391786 211.755128 78.5375714 210.284917 78.2916786 210.145761 77.9122143 210.13366 77.6936429 210.260716M90.1107768 220.638861C90.3566696 220.778017 90.7391696 220.784067 90.9592589 220.657012 93.2770268 219.297218 94.4321161 218.618078 96.7453304 217.264334 96.9654196 217.137279 96.9411339 216.916445 96.6952411 216.778802 94.0981875 215.314641 92.7989018 214.584073 90.2018482 213.115375 89.9529196 212.977732 89.5780089 212.967144 89.3579196 213.097224 87.0416696 214.453993 85.8820268 215.131621 83.5627411 216.489902 83.3426518 216.61847 83.3623839 216.834766 83.6128304 216.973922 86.2144375 218.441108 87.5152411 219.173188 90.1107768 220.638861M101.453116 184.987308C101.699009 185.129489 102.076955 185.141589 102.295527 185.013022 104.613295 183.65474 105.772937 182.972575 108.092223 181.615806 108.312312 181.488751 108.29258 181.267917 108.048205 181.125736 105.460259 179.629811 104.160973 178.878068 101.566955 177.370043 101.319545 177.22635 100.938562 177.215762 100.719991 177.344329 98.3946339 178.705636 97.2289196 179.386289 94.9081161 180.746083 94.6880268 180.873138 94.7123125 181.095485 94.9597232 181.237665 97.5613304 182.744178 98.8606161 183.494409 101.453116 184.987308M94.4227054 227.758493C91.8165446 226.295845 90.5142232 225.565277 87.9110982 224.104142 87.6652054 223.964986 87.2857411 223.957423 87.0641339 224.085991 81.3448482 227.434805 75.6225268 230.783618 69.8971696 234.124869 69.6725268 234.253437 69.6892232 234.471246 69.9366339 234.611914 72.5367232 236.0791 73.8390446 236.812693 76.4406518 238.279878 76.6865446 238.419034 77.0675268 238.425084 77.2921696 238.295004 83.0235982 234.958291 88.7519911 231.597377 94.4712768 228.244026 94.6913661 228.115458 94.6701161 227.897649 94.4227054 227.758493M57.9155089 220.151362C55.3093482 218.673589 54.0039911 217.933946 51.3947946 216.450122 51.1489018 216.309453 50.7679196 216.300378 50.5447946 216.431971 48.2088125 217.793277 47.0400625 218.475443 44.7010446 219.839774 44.4779196 219.968342 44.5006875 220.187664 44.7480982 220.328332 47.3557768 221.813669 48.6565804 222.554824 51.2597054 224.031085 51.5071161 224.171754 51.8850625 224.180829 52.1097054 224.052261 54.4532768 222.686417 55.6250625 222.002739 57.9595268 220.638407 58.1841696 220.508327 58.1614018 220.290518 57.9155089 220.151362M49.4932232 215.370001C46.8794732 213.884664 45.5725982 213.137458 42.9512589 211.646072 42.7023304 211.503891 42.3183125 211.493303 42.0982232 211.623383 39.7652768 212.986202 38.5965268 213.666855 36.2650982 215.029674 36.0434911 215.158242 36.0647411 215.377564 36.3121518 215.519744 38.9304554 217.014156 40.2373304 217.75985 42.8465268 219.246699 43.0939375 219.387367 43.4749196 219.397955 43.6980446 219.269387 46.0370625 217.905056 47.2058125 217.22289 49.5402768 215.860071 49.7634018 215.729991 49.7406339 215.512182 49.4932232 215.370001M81.9730893 225.402526C79.3699643 223.942903 78.0691607 223.206285 75.4660357 221.739099 75.2201429 221.598431 74.8391607 221.592381 74.6190714 221.720948 70.2491607 224.275667 65.8777321 226.82736 61.5032679 229.380565 61.2816607 229.510646 61.299875 229.726942 61.5472857 229.86761 64.1458571 231.340846 65.4481786 232.072927 68.0421964 233.543137 68.2865714 233.680781 68.673625 233.688343 68.8982679 233.559776 73.27425 231.002032 77.673 228.448827 82.0201429 225.889571 82.24175 225.75949 82.2189821 225.541681 81.9730893 225.402526M70.3370446 222.559059C67.7399911 221.088849 66.4331161 220.353743 63.8284732 218.878995 63.5810625 218.741351 63.2000804 218.732276 62.9799911 218.860844 59.6892768 220.780286 56.3985625 222.70124 53.1108839 224.620682 52.8892768 224.74925 52.9074911 224.970084 53.1533839 225.10924 55.7549911 226.585501 57.0588304 227.323631 59.6528482 228.795355 59.9002589 228.936023 60.2827589 228.943586 60.5028482 228.815018 63.8011518 226.892551 67.0918661 224.967059 70.3840982 223.044592 70.6041875 222.916024 70.5844554 222.699728 70.3370446 222.559059M50.2076786 214.951928C50.4566071 215.092597 50.8375893 215.101672 51.0607143 214.973104 53.3951786 213.610285 54.559375 212.929632 56.8908036 211.569839 57.1108929 211.439758 57.0866071 211.220437 56.8391964 211.079768 54.2269643 209.595944 52.9185714 208.850251 50.2957143 207.357352 50.0483036 207.215171 49.6673214 207.204583 49.4441964 207.334663 47.1142857 208.694457 45.9485714 209.376623 43.615625 210.737929 43.3970536 210.86801 43.4183036 211.085819 43.6657143 211.227999 46.2900893 212.720899 47.5939286 213.466592 50.2076786 214.951928M57.5568393 210.662452C57.8057679 210.803121 58.1837143 210.813709 58.4068393 210.683628 60.7337143 209.323834 61.9009464 208.643181 64.2278214 207.2849 64.4463929 207.156332 64.423625 206.935498 64.1746964 206.79483 61.5624643 205.309493 60.2525536 204.5638 57.6312143 203.069388 57.3838036 202.930233 57.0043393 202.918132 56.7827321 203.048212 54.4528214 204.408006 53.2871071 205.090172 50.9602321 206.449966 50.7401429 206.578533 50.7613929 206.797855 51.0118393 206.938523 53.6346964 208.431423 54.9446071 209.177116 57.5568393 210.662452M79.53025 197.818981C79.7776607 197.959649 80.1556071 197.97175 80.3787321 197.843182 82.6980179 196.484901 83.8561429 195.804248 86.1754286 194.447479 86.394 194.320424 86.3757857 194.101102 86.1268571 193.958922 83.5237321 192.47056 82.218375 191.721842 79.6076607 190.222892 79.3572143 190.080711 78.9792679 190.068611 78.7561429 190.197178 76.4353393 191.55546 75.2711429 192.236113 72.9488214 193.595907 72.7272143 193.725987 72.7530179 193.943796 73.0004286 194.087489 75.6141786 195.584926 76.9256071 196.333645 79.53025 197.818981M72.2166071 202.096659C72.4625 202.23884 72.8404464 202.249428 73.0620536 202.119348 75.384375 200.761067 76.5440179 200.081926 78.8648214 198.725157 79.0833929 198.598102 79.0651786 198.377268 78.81625 198.235087 76.2116071 196.746726 74.9047321 196.001032 72.2879464 194.502083 72.0390179 194.362927 71.6565179 194.352339 71.4349107 194.480907 69.1125893 195.839188 67.946875 196.518329 65.6260714 197.878122 65.4059821 198.008203 65.42875 198.227524 65.6776786 198.369705 68.2959821 199.864117 69.604375 200.611323 72.2166071 202.096659M64.891125 206.377363C65.1385357 206.518031 65.518 206.530131 65.7365714 206.400051 68.0619286 205.04177 69.2276429 204.361117 71.5514821 203.004348 71.7715714 202.87578 71.7488036 202.656459 71.499875 202.514278 68.8891607 201.028941 67.5807679 200.280223 64.9624643 198.785811 64.7150536 198.645143 64.3325536 198.634555 64.1109464 198.764635 61.7855893 200.122916 60.6213929 200.80357 58.2945179 202.163363 58.0744286 202.290419 58.1002321 202.50974 58.3476429 202.651921 60.9705 204.147845 62.2804107 204.893539 64.891125 206.377363M164.831089 188.485109C164.588232 188.345953 164.214839 188.336878 163.993232 188.466958 140.420911 202.376483 116.844036 216.304159 93.1882321 230.147132 92.966625 230.277212 92.9893929 230.491996 93.2352857 230.631152 95.846 232.0938 97.1513571 232.824368 99.7696607 234.287016 100.017071 234.424659 100.396536 234.433734 100.618143 234.303654 124.222339 220.459169 147.733946 206.537543 171.254661 192.668857 171.473232 192.540289 171.4535 192.319455 171.212161 192.180299 168.657607 190.6995 167.381089 189.96137 164.831089 188.485109M201.951955 166.622378C201.712134 166.483223 201.33267 166.477172 201.101955 166.611791 198.703741 168.027549 197.497045 168.730891 195.123116 170.133036 194.898473 170.266142 194.910616 170.490001 195.153473 170.626132 197.704991 172.091805 198.984545 172.823885 201.539098 174.294096 201.77892 174.434764 202.159902 174.439302 202.38758 174.304684 204.773652 172.894975 205.975795 172.190121 208.38008 170.768312 208.612312 170.633694 208.598652 170.41286 208.354277 170.273704 205.793652 168.815594 204.508027 168.080489 201.951955 166.622378M194.422018 171.058119C194.179161 170.918964 193.799696 170.914426 193.575054 171.047531 191.198089 172.448164 190.014161 173.145456 187.652375 174.537013 187.427732 174.670119 187.442911 174.890953 187.68425 175.030109 190.228179 176.501832 191.506214 177.235425 194.056214 178.710173 194.296036 178.850842 194.677018 178.855379 194.901661 178.723786 197.260411 177.327691 198.454964 176.627375 200.836482 175.222204 201.061125 175.087586 201.047464 174.866752 200.804607 174.726084 198.248536 173.25436 196.968982 172.523793 194.422018 171.058119M186.957196 175.458466C186.717375 175.319311 186.340946 175.311748 186.116304 175.444853 183.765143 176.833386 182.585768 177.529165 180.242196 178.908622 180.019071 179.040215 180.032732 179.261049 180.274071 179.398692 182.818 180.871928 184.093 181.608546 186.643 183.086319 186.885857 183.2285 187.260768 183.236063 187.485411 183.102958 189.827464 181.718963 191.000768 181.021671 193.361036 179.631626 193.582643 179.500034 193.572018 179.277687 193.330679 179.140044 190.788268 177.663783 189.504161 176.928677 186.957196 175.458466M85.0250446 235.438076C84.7776339 235.300433 84.3951339 235.29287 84.1720089 235.42295 81.8284375 236.793332 80.6551339 237.486085 78.2948661 238.859492 78.0717411 238.989573 78.0914732 239.208894 78.3358482 239.34805 80.9420089 240.815236 82.2458482 241.547316 84.8565625 243.012989 85.1054911 243.152145 85.4895089 243.158195 85.7126339 243.028115 88.0713839 241.645632 89.2507589 240.955904 91.6004018 239.58401 91.8235268 239.455442 91.8022768 239.23612 91.5548661 239.096965 88.9380804 237.632804 87.6312054 236.903749 85.0250446 235.438076M179.532446 179.81147C179.292625 179.670802 178.914679 179.664752 178.693071 179.794832 176.351018 181.175802 175.182268 181.864018 172.859946 183.238937 172.635304 183.369017 172.653518 183.586826 172.896375 183.727495 175.441821 185.200731 176.716821 185.944911 179.265304 187.41966 179.509679 187.558816 179.883071 187.567891 180.104679 187.436298 182.428518 186.062891 183.600304 185.374675 185.937804 183.992193 186.157893 183.8606 186.142714 183.639766 185.899857 183.499098 183.355929 182.021324 182.079411 181.281681 179.532446 179.81147M92.3860446 231.130751C92.1416696 230.991596 91.7576518 230.98252 91.5375625 231.112601 89.2061339 232.478445 88.0419375 233.166661 85.6998839 234.530992 85.4767589 234.661072 85.4980089 234.878881 85.7439018 235.016525 88.3515804 236.480685 89.6599732 237.214278 92.2767589 238.675413 92.5241696 238.814569 92.9021161 238.822132 93.1237232 238.692052 95.4688125 237.320157 96.6405982 236.637992 98.9644375 235.272148 99.1845268 235.142067 99.1632768 234.924258 98.9158661 234.785102 96.3005982 233.320942 94.9937232 232.593399 92.3860446 231.130751M86.8393393 193.542664C87.08675 193.684845 87.4631786 193.693921 87.6847857 193.565353 90.0040714 192.207072 91.1652321 191.526418 93.483 190.171162 93.7015714 190.042595 93.6788036 189.823273 93.4359464 189.681092 90.837375 188.189705 89.5335357 187.4425 86.927375 185.940525 86.6784464 185.798344 86.3005 185.784731 86.077375 185.914811 83.7565714 187.273093 82.5908571 187.955258 80.2685357 189.312027 80.0484464 189.440595 80.0757679 189.662941 80.3216607 189.80361 82.9338929 191.305584 84.2407679 192.054303 86.8393393 193.542664M172.178884 184.14829C171.939062 184.009134 171.564152 184.001571 171.341027 184.133164 169.024777 185.503546 167.856027 186.188736 165.539777 187.553068 165.319687 187.683148 165.337902 187.900957 165.580759 188.041626 168.132277 189.517887 169.41183 190.256017 171.964866 191.736816 172.206205 191.875972 172.579598 191.885047 172.796652 191.754967 175.10683 190.390635 176.274062 189.705444 178.590312 188.33355 178.808884 188.20347 178.792187 187.981123 178.54933 187.838942 176.000848 186.361169 174.725848 185.616988 172.178884 184.14829M168.868893 184.443693C174.219339 181.302101 179.565232 178.124207 184.914161 174.981102 185.137286 174.849509 185.122107 174.630187 184.883804 174.491031 182.348982 173.020821 181.066393 172.28874 178.520946 170.820042 178.279607 170.680886 177.903179 170.674836 177.678536 170.806429 172.328089 173.954072 166.968536 177.103227 161.63175 180.252382 161.411661 180.382463 161.426839 180.601784 161.668179 180.74094 164.215143 182.215688 165.485589 182.953819 168.032554 184.425542 168.273893 184.564698 168.647286 184.573773 168.868893 184.443693M154.02683 193.198556C156.330938 191.841788 157.492098 191.159622 159.794688 189.798316 160.010223 189.669748 159.995045 189.450426 159.752188 189.311271 157.20067 187.83501 155.924152 187.096879 153.37567 185.625156 153.13433 185.484487 152.760938 185.476924 152.53933 185.605492 150.227634 186.968311 149.072545 187.648964 146.762366 189.007245 146.543795 189.134301 146.566563 189.353622 146.804866 189.494291 149.360938 190.966014 150.638973 191.708682 153.195045 193.17738 153.436384 193.318049 153.808259 193.327124 154.02683 193.198556M117.887259 214.492563C120.185295 213.146383 121.331277 212.467242 123.624759 211.119549 123.841812 210.990981 123.819045 210.773172 123.573152 210.634016 120.989759 209.16683 119.693509 208.43475 117.110116 206.967565 116.867259 206.831434 116.49083 206.822359 116.273777 206.949414 113.974223 208.29862 112.820652 208.974735 110.522616 210.325453 110.304045 210.455534 110.326812 210.67183 110.572705 210.809473 113.16217 212.275147 114.459937 213.008739 117.05092 214.471387 117.295295 214.610543 117.670205 214.619618 117.887259 214.492563M161.297366 188.911954C163.609063 187.547623 164.76567 186.863944 167.084955 185.495075 167.305045 185.366507 167.289866 185.148698 167.048527 185.00803 164.500045 183.533282 163.226563 182.795151 160.682634 181.321915 160.442813 181.182759 160.064866 181.176709 159.846295 181.303764 157.523973 182.665071 156.355223 183.354799 154.04808 184.717618 153.826473 184.846186 153.846205 185.065507 154.087545 185.206176 156.636027 186.679412 157.911027 187.419055 160.461027 188.890778 160.702366 189.031446 161.077277 189.042034 161.297366 188.911954M178.659375 161.171708C181.215446 162.634356 182.491964 163.366436 185.038929 164.827572 185.283304 164.966728 185.66125 164.969753 185.888929 164.836647 188.259821 163.442064 189.454375 162.743261 191.845 161.336577 192.069643 161.203472 192.055982 160.98415 191.814643 160.846507 189.254018 159.391422 187.972946 158.663879 185.413839 157.205769 185.1725 157.066613 184.79 157.063588 184.565357 157.196694 182.182321 158.592789 180.993839 159.293105 178.6275 160.680125 178.401339 160.811718 178.416518 161.03104 178.659375 161.171708M170.394187 156.433152C172.959366 157.898825 174.240437 158.639981 176.794991 160.104141 177.039366 160.24481 177.417312 160.247835 177.643473 160.117754 180.01133 158.727709 181.199812 158.030418 183.576777 156.635835 183.802937 156.504243 183.789277 156.283408 183.54642 156.145765 180.979723 154.687655 179.69258 153.955575 177.127402 152.491414 176.883027 152.352258 176.499009 152.346208 176.274366 152.477801 173.903473 153.866333 172.721062 154.562112 170.362312 155.943082 170.13767 156.074675 170.154366 156.293996 170.394187 156.433152M186.672598 173.972374C189.035902 172.585354 190.221348 171.883525 192.593759 170.481379 192.81992 170.349786 192.807777 170.130465 192.56492 169.989796 190.016438 168.527149 188.741438 167.796581 186.195991 166.333933 185.951616 166.19629 185.570634 166.190239 185.347509 166.321832 182.978134 167.716415 181.79117 168.412194 179.43242 169.799214 179.210813 169.930807 179.225991 170.151641 179.465813 170.289284 182.012777 171.75647 183.284741 172.491575 185.827152 173.960273 186.070009 174.099429 186.450991 174.103967 186.672598 173.972374M125.116357 210.239994C127.409839 208.889275 128.555821 208.216185 130.846268 206.868492 131.061804 206.741436 131.042071 206.522115 130.793143 206.382959 128.215821 204.914261 126.927161 204.179155 124.349839 202.71197 124.103946 202.572814 123.732071 202.562226 123.5135 202.690794 121.216982 204.033949 120.064929 204.717628 117.769929 206.068346 117.552875 206.196914 117.574125 206.41321 117.816982 206.552366 120.403411 208.018039 121.692071 208.754657 124.275464 210.22033 124.522875 210.359486 124.897786 210.368561 125.116357 210.239994M94.1455446 189.264986C94.3929554 189.407167 94.7709018 189.419268 94.9909911 189.2907 97.3087589 187.932419 98.4684018 187.251765 100.787687 185.896509 101.007777 185.766429 100.986527 185.547107 100.740634 185.404927 98.1466161 183.910515 96.8473304 183.160284 94.2442054 181.656797 93.9983125 181.514616 93.6158125 181.502515 93.3957232 181.631083 91.0734018 182.990877 89.9137589 183.670017 87.5914375 185.028298 87.3713482 185.156866 87.3941161 185.379213 87.6415268 185.521394 90.2507232 187.020343 91.5500089 187.775112 94.1455446 189.264986M146.785893 197.470336C149.083929 196.12113 150.232946 195.438964 152.530982 194.082195 152.749554 193.95514 152.729821 193.734306 152.488482 193.59515 149.929375 192.121914 148.646786 191.386809 146.096786 189.91206 145.855446 189.772905 145.480536 189.763829 145.261964 189.892397 142.956339 191.250678 141.804286 191.929819 139.500179 193.28205 139.281607 193.41213 139.304375 193.629939 139.544196 193.77212 142.106339 195.242331 143.388929 195.978949 145.949554 197.450672 146.190893 197.591341 146.567321 197.598903 146.785893 197.470336M139.553759 201.733342C141.839652 200.382623 142.993223 199.700458 145.288223 198.352764 145.508312 198.224197 145.48858 198.006388 145.244205 197.865719 142.68358 196.393996 141.397955 195.657378 138.835812 194.187167 138.592955 194.046499 138.218045 194.037424 138.000991 194.165991 135.701437 195.521247 134.546348 196.197363 132.251348 197.549594 132.035812 197.678162 132.055545 197.895971 132.296884 198.036639 134.86358 199.50685 136.149205 200.249518 138.718937 201.712166 138.961795 201.851322 139.338223 201.860397 139.553759 201.733342M132.334982 205.987424C134.616321 204.638218 135.772929 203.963615 138.061857 202.614409 138.281946 202.484329 138.257661 202.268033 138.014804 202.127364 135.443554 200.658666 134.160964 199.922048 131.588196 198.45335 131.346857 198.312682 130.974982 198.302094 130.756411 198.430661 128.456857 199.782892 127.307839 200.462033 125.011321 201.809726 124.79275 201.938294 124.812482 202.157616 125.056857 202.296771 127.631143 203.763957 128.922839 204.499062 131.503196 205.967761 131.746054 206.106916 132.117929 206.115992 132.334982 205.987424M116.075848 176.424389C116.317187 176.56657 116.696652 176.577158 116.918259 176.44859 119.239062 175.088796 120.403259 174.408143 122.724062 173.048349 122.942634 172.918269 122.925937 172.695922 122.68308 172.555254 120.099687 171.056304 118.809509 170.303048 116.217009 168.793511 115.971116 168.649817 115.594687 168.637717 115.37308 168.767797 113.047723 170.129104 111.880491 170.812782 109.555134 172.171063 109.333527 172.301143 109.35933 172.521977 109.603705 172.667183 112.197723 174.175208 113.490937 174.926952 116.075848 176.424389M123.398295 172.137787C123.641152 172.278455 124.016063 172.290555 124.23767 172.161988 126.561509 170.799169 127.727223 170.11549 130.054098 168.754184 130.275705 168.624104 130.255973 168.40327 130.01008 168.261089 127.434277 166.762139 126.144098 166.008883 123.553116 164.499346 123.305705 164.35414 122.929277 164.343552 122.709188 164.47212 120.379277 165.836451 119.210527 166.518617 116.886688 167.882948 116.66508 168.010003 116.68633 168.230837 116.935259 168.374531 119.526241 169.884068 120.817938 170.64035 123.398295 172.137787M108.762357 180.706605C109.00825 180.850298 109.383161 180.860886 109.604768 180.732318 111.922536 179.372525 113.082179 178.694897 115.406018 177.33359 115.624589 177.206535 115.604857 176.984188 115.362 176.840495 112.778607 175.34457 111.483875 174.592827 108.891375 173.083289 108.642446 172.939596 108.262982 172.927495 108.042893 173.057576 105.719054 174.418882 104.553339 175.099535 102.232536 176.457816 102.013964 176.587897 102.032179 176.810244 102.279589 176.953937 104.879679 178.461962 106.180482 179.21068 108.762357 180.706605M130.726813 167.842411C130.972705 167.984592 131.349134 167.99518 131.572259 167.866612 133.899134 166.500768 135.061813 165.81709 137.396277 164.454271 137.616366 164.324191 137.596634 164.103357 137.353777 163.961176 134.779491 162.462226 133.486277 161.710483 130.89833 160.199433 130.652438 160.055739 130.271455 160.045151 130.049848 160.175232 127.71842 161.541076 126.552705 162.220216 124.22583 163.584548 124.004223 163.714628 124.023955 163.935462 124.26833 164.079156 126.859313 165.591718 128.152527 166.343462 130.726813 167.842411M145.431054 159.230788C145.675429 159.374481 146.051857 159.383557 146.274982 159.254989 148.614 157.883095 149.785786 157.197904 152.127839 155.826009 152.352482 155.695929 152.335786 155.476608 152.089893 155.334427 149.517125 153.841527 148.217839 153.086759 145.623821 151.581759 145.374893 151.441091 144.992393 151.42899 144.770786 151.560583 142.431768 152.926427 141.264536 153.611618 138.927036 154.980487 138.705429 155.109055 138.726679 155.329889 138.969536 155.475095 141.554446 156.986145 142.858286 157.737889 145.431054 159.230788M138.07142 163.541137C138.315795 163.683318 138.690705 163.695419 138.916866 163.563826 141.248295 162.197982 142.414009 161.511278 144.751509 160.145434 144.976152 160.016867 144.95642 159.793007 144.713562 159.652339 142.136241 158.160952 140.836955 157.404671 138.253562 155.895134 138.009187 155.752953 137.626687 155.73934 137.408116 155.86942 135.070616 157.236777 133.897312 157.920455 131.570437 159.286299 131.347312 159.413354 131.37008 159.634188 131.615973 159.779394 134.20392 161.285907 135.497134 162.048238 138.07142 163.541137M152.808295 154.911817C153.054187 155.053998 153.433652 155.063073 153.656777 154.932993 156.001866 153.559586 157.17517 152.87137 159.527848 151.49645 159.749455 151.364857 159.732759 151.145536 159.485348 151.004868 156.901955 149.516506 155.605705 148.767788 153.00258 147.265813 152.756687 147.12212 152.37267 147.111532 152.149545 147.241612 149.805973 148.611994 148.637223 149.298697 146.29517 150.667566 146.073562 150.797647 146.093295 151.019993 146.339187 151.162174 148.936241 152.668686 150.229455 153.418917 152.808295 154.911817M160.209366 150.579384C160.453741 150.721565 160.833205 150.732153 161.059366 150.602072 163.409009 149.224128 164.589902 148.534399 166.947134 147.15343 167.170259 147.023349 167.153563 146.802515 166.90767 146.661847 164.313652 145.187098 163.005259 144.436867 160.399098 142.93943 160.151688 142.795737 159.770705 142.786661 159.546063 142.916742 157.197938 144.290149 156.023116 144.976852 153.676509 146.348746 153.45642 146.478827 153.47767 146.701173 153.72508 146.843354 156.326688 148.345329 157.625973 149.094047 160.209366 150.579384M162.091812 151.662076C164.670652 153.142875 165.96083 153.888568 168.527527 155.360291 168.770384 155.50096 169.149848 155.508523 169.376009 155.37693 171.734759 153.994447 172.918687 153.300181 175.285027 151.913161 175.50967 151.781568 175.497527 151.562247 175.250116 151.423091 172.674312 149.955905 171.382616 149.213237 168.79467 147.740001 168.547259 147.599333 168.167795 147.593283 167.943152 147.723363 165.584402 149.104333 164.401991 149.795574 162.052348 151.170493 161.827705 151.302086 161.84592 151.52292 162.091812 151.662076"/>
    <path fill="#EBF0F4" d="M29.4556875,129.306099 L29.4526518,127.93118 C29.4511339,127.528838 29.1672946,127.366994 28.8136339,127.569677 L27.6130089,128.260918 C27.2639018,128.460576 26.9785446,128.952159 26.9800625,129.352988 L26.9830982,130.727908 C26.9846161,131.131762 27.2730089,131.292094 27.6221161,131.092435 L28.8227411,130.401194 C29.1733661,130.198511 29.4572054,129.709953 29.4556875,129.306099 Z M38.4429196,124.13616 L38.4383661,122.761241 C38.4368482,122.358899 38.1514911,122.197055 37.8008661,122.399738 L36.6002411,123.089467 C36.2480982,123.29215 35.9642589,123.78222 35.9657768,124.18305 L35.9703304,125.557969 C35.9703304,125.961823 36.2556875,126.123667 36.6078304,125.920984 L37.8084554,125.231255 C38.1590804,125.028572 38.4444375,124.540014 38.4429196,124.13616 Z M33.9500625,126.719617 L33.9470268,125.34621 C33.9455089,124.942356 33.6601518,124.782024 33.3080089,124.983195 L32.1073839,125.674436 C31.7567589,125.875607 31.4729196,126.365677 31.4729196,126.768019 L31.4774732,128.142938 C31.4789911,128.54528 31.7643482,128.707124 32.1164911,128.505953 L33.3171161,127.814712 C33.6677411,127.612029 33.9515804,127.123471 33.9500625,126.719617 Z M38.4565804,128.797878 L38.4520268,127.422959 C38.4505089,127.019104 38.1651518,126.858773 37.8145268,127.059944 L36.6139018,127.751185 C36.2602411,127.952355 35.9779196,128.442426 35.9794375,128.844767 L35.9824732,130.219687 C35.9839911,130.622028 36.2693482,130.785385 36.6214911,130.582702 L37.8221161,129.892973 C38.1727411,129.69029 38.4565804,129.20022 38.4565804,128.797878 Z M29.4693482,133.967817 L29.4663125,132.592897 C29.4647946,132.189043 29.1794375,132.028712 28.8272946,132.231395 L27.6266696,132.921123 C27.2775625,133.120782 26.9922054,133.612365 26.9937232,134.014706 L26.9967589,135.389626 C26.9982768,135.79348 27.2851518,135.953811 27.6357768,135.752641 L28.8364018,135.062912 C29.1870268,134.860229 29.4708661,134.370158 29.4693482,133.967817 Z M24.9643482,131.891068 L24.9597946,130.516149 C24.9597946,130.112295 24.6744375,129.951963 24.3222946,130.154647 L23.1216696,130.844375 C22.7710446,131.045546 22.4856875,131.535616 22.4872054,131.937958 L22.4917589,133.312877 C22.4932768,133.715219 22.7786339,133.877063 23.1292589,133.675892 L24.3298839,132.984651 C24.6820268,132.781968 24.9658661,132.29341 24.9643482,131.891068 Z M33.9637232,131.381335 L33.9606875,130.007928 C33.9591696,129.604074 33.6722946,129.44223 33.3216696,129.644913 L32.1210446,130.336154 C31.7689018,130.537325 31.4865804,131.027395 31.4865804,131.429737 L31.4911339,132.804656 C31.4926518,133.206998 31.7764911,133.370355 32.1301518,133.167671 L33.3307768,132.47643 C33.6814018,132.273747 33.9652411,131.785189 33.9637232,131.381335 Z M24.9780089,136.551274 L24.9734554,135.177867 C24.9734554,134.774013 24.6865804,134.612168 24.3359554,134.814852 L23.1353304,135.506093 C22.7831875,135.707264 22.4993482,136.197334 22.5008661,136.599676 L22.5054196,137.973082 C22.5069375,138.376937 22.7907768,138.538781 23.1429196,138.33761 L24.3435446,137.646369 C24.6941696,137.443685 24.9795268,136.955128 24.9780089,136.551274 Z M20.7735446,129.381727 L40.1322946,118.243216 L40.1656875,129.464918 C40.1687232,130.845888 39.1942589,132.526345 37.9890804,133.219098 L22.9941696,141.846755 C21.7889911,142.539509 20.8099732,141.982886 20.8054196,140.603429 L20.7735446,129.381727 Z"/>
    <path fill="#D35443" d="M40.1163571,114.512783 L20.8183214,125.616505 C19.8514464,126.171616 19.0727857,127.519309 19.0773393,128.624992 C19.080375,129.732188 19.8635893,130.176881 20.8289464,129.620258 L40.1285,118.518049 C41.095375,117.961426 41.8755536,116.616758 41.8725179,115.509562 C41.8694821,114.403879 41.0832321,113.957673 40.1163571,114.512783"/>
    <path fill="#D4D7D9" d="M26.469,113.737293 C26.8014107,113.54671 27.1247143,113.55881 27.3023036,113.809896 L31.3656071,119.548558 L29.1829286,120.820623 L25.6417679,115.863956 C25.3761429,115.490353 25.5324821,114.728021 25.990875,114.16081 C26.1411429,113.973252 26.3065893,113.831071 26.469,113.737293"/>
    <path fill="#4B5860" d="M30.6860625,118.935214 C31.5694554,118.42548 32.2889196,118.835385 32.2919554,119.847289 C32.2949911,120.857681 31.5800804,122.091932 30.6966875,122.601665 C29.8102589,123.111399 29.0907946,122.701495 29.0877589,121.68959 C29.0847232,120.677686 29.7996339,119.444947 30.6860625,118.935214"/>
    <path fill="url(#bi-awareness-adv-a)" d="M35.7628393,137.966276 L27.7925714,142.552366 C25.9347143,143.620235 24.4335536,146.211254 24.439625,148.33943 C24.4456964,150.466093 25.9559643,151.323716 27.8153393,150.254334 L35.7856071,145.669757 C37.6404286,144.601888 39.1415893,142.010868 39.1355179,139.885718 C39.1294464,137.75603 37.6191786,136.898407 35.7628393,137.966276"/>
    <path fill="#FFF" d="M26.3044643,149.731592 C25.5440179,149.731592 25.4286607,148.857331 25.4271429,148.33701 C25.4210714,146.556724 26.7309821,144.298468 28.2867857,143.403031 L36.2570536,138.818454 C36.6289286,138.605182 36.9795536,138.490228 37.2709821,138.490228 C38.0329464,138.490228 38.1483036,139.366001 38.1498214,139.887835 C38.154375,141.666609 36.8444643,143.923352 35.2916964,144.817277 L27.3214286,149.401854 C26.9480357,149.61815 26.5958929,149.731592 26.3044643,149.731592"/>
    <path fill="#363F44" d="M52.0471696 159.137765C52.5784196 158.832228 53.0094911 159.077263 53.0110089 159.6838 53.0125268 160.293363 52.5844911 161.025443 52.0532411 161.330981L18.8106518 180.457334C18.2854732 180.759847 17.8544018 180.520862 17.8513661 179.912812 17.8498482 179.304762 18.2778839 178.565119 18.8045804 178.264119L52.0471696 159.137765zM42.1322232 156.211562C42.6649911 155.907537 43.0960625 156.151059 43.0975804 156.759109 43.0990982 157.367159 42.6695446 158.100752 42.1398125 158.40629L18.8103482 171.860534C18.2851696 172.163046 17.8540982 171.924061 17.8510625 171.316011 17.8495446 170.707961 18.2775804 169.968318 18.8042768 169.667318L42.1322232 156.211562zM42.1322232 147.583754C42.6649911 147.278216 43.0960625 147.523251 43.0975804 148.131301 43.0990982 148.739351 42.6695446 149.472944 42.1398125 149.776969L18.8103482 163.232726C18.2851696 163.533726 17.8540982 163.296253 17.8510625 162.686691 17.8495446 162.080153 18.2775804 161.34051 18.8042768 161.03951L42.1322232 147.583754zM96.3956161 126.523135C96.9268661 126.217597 97.3579375 126.462633 97.3609732 127.06917 97.3624911 127.678733 96.9329375 128.410813 96.4032054 128.716351L63.1606161 147.842704C62.6339196 148.145217 62.2028482 147.906232 62.2013304 147.298182 62.1998125 146.690132 62.6278482 145.952001 63.1530268 145.649489L96.3956161 126.523135zM86.4821875 123.598444C87.0134375 123.292907 87.4445089 123.537942 87.4460268 124.144479 87.4490625 124.752529 87.0195089 125.486122 86.4882589 125.79166L63.1603125 139.245904C62.6336161 139.548416 62.2025446 139.309431 62.2010268 138.701381 62.1995089 138.093331 62.6275446 137.355201 63.1527232 137.052688L86.4821875 123.598444zM86.4821875 114.969124C87.0134375 114.665098 87.4445089 114.908621 87.4460268 115.516671 87.4490625 116.124721 87.0195089 116.858314 86.4882589 117.162339L63.1603125 130.618096C62.6336161 130.919096 62.2025446 130.681623 62.2010268 130.072061 62.1995089 129.465523 62.6275446 128.72588 63.1527232 128.42488L86.4821875 114.969124zM135.129205 105.319277C135.661973 105.013739 136.091527 105.258774 136.094562 105.865312 136.09608 106.474875 135.666527 107.206955 135.136795 107.512493L111.80733 120.966737C111.282152 121.269249 110.85108 121.030264 110.848045 120.422214 110.846527 119.815676 111.274562 119.076033 111.801259 118.773521L135.129205 105.319277zM135.129205 96.6914689C135.661973 96.3859312 136.091527 96.6309664 136.094562 97.2375039 136.09608 97.8470666 135.666527 98.5791469 135.136795 98.8846846L111.80733 112.338928C111.282152 112.641441 110.85108 112.402456 110.848045 111.794406 110.846527 111.186356 111.274562 110.448225 111.801259 110.145713L135.129205 96.6914689zM58.5633304 97.6722144C58.0639554 97.6722144 57.8044018 98.0775812 57.8044018 98.5752143L57.8044018 159.918701C57.8044018 160.416334 58.0639554 160.821701 58.5633304 160.821701 59.0627054 160.821701 59.3222589 160.416334 59.3222589 159.918701L59.3222589 98.5752143C59.3222589 98.0775812 59.0627054 97.6722144 58.5633304 97.6722144M101.822259 71.2097813C101.322884 71.2097813 100.304402 71.6136355 100.304402 72.1127811L100.304402 133.456268C100.304402 133.953901 101.322884 134.359268 101.822259 134.359268 102.321634 134.359268 103.340116 133.953901 103.340116 133.456268L103.340116 72.1127811C103.340116 71.6136355 102.321634 71.2097813 101.822259 71.2097813"/>
    <path fill="#EEAE55" d="M83.9904732,83.8501153 C85.1744018,83.1679496 86.1412768,83.7139846 86.1458304,85.0707533 L86.1716339,94.0871386 C86.1731518,95.4469324 85.2138661,97.1001633 84.0284196,97.782329 L67.7691339,107.137528 C66.5821696,107.819694 65.6183304,107.273659 65.6152946,105.912353 L65.5894911,96.8959673 C65.5864554,95.5407113 66.5442232,93.8874804 67.7311875,93.2053147 L83.9904732,83.8501153 Z"/>
    <path fill="#363F44" d="M76.6130804 98.8287197C76.7572768 98.7455288 76.8741518 98.8120816 76.8741518 98.9784634 76.8756696 99.1418202 76.7587946 99.3414785 76.6145982 99.4246694L67.5879018 104.617297C67.4452232 104.700488 67.3283482 104.635447 67.3283482 104.469066 67.3268304 104.304196 67.4437054 104.104538 67.5863839 104.02286L76.6130804 98.8287197zM73.9213125 98.0872616C74.0655089 98.0040706 74.1823839 98.0706234 74.1823839 98.2370053 74.1839018 98.400362 74.0670268 98.6000203 73.9228304 98.6832112L67.5872946 102.33605C67.4446161 102.417728 67.3277411 102.352688 67.3277411 102.187819 67.3262232 102.024462 67.4430982 101.823291 67.5857768 101.7401L73.9213125 98.0872616zM73.9213125 95.7446047C74.0655089 95.6614138 74.1823839 95.7279665 74.1823839 95.8943484 74.1839018 96.0577051 74.0670268 96.2573634 73.9228304 96.3405543L67.5872946 99.9933929C67.4446161 100.075071 67.3277411 100.010031 67.3277411 99.8451618 67.3262232 99.681805 67.4430982 99.4806342 67.5857768 99.3974433L73.9213125 95.7446047z"/>
    <path fill="#52B5E6" d="M81.5861875,87.8715653 C80.8211875,88.3132336 80.1973482,89.387153 80.1988661,90.2659519 C80.2019018,91.1462633 80.8302946,91.4986903 81.5952946,91.0585346 C82.3633304,90.6168664 82.9856518,89.542947 82.9826161,88.6641481 C82.9810982,87.7853493 82.3542232,87.4298971 81.5861875,87.8715653"/>
    <path fill="#D35443" d="M79.3168393,89.1648063 C78.5518393,89.604962 77.9264821,90.680394 77.9295179,91.5591928 C77.9325536,92.4379917 78.5609464,92.7919313 79.3259464,92.3517756 C80.0939821,91.9101074 80.7147857,90.8361879 80.7132679,89.9573891 C80.7102321,89.0785903 80.084875,88.7231381 79.3168393,89.1648063"/>
    <path fill="#D4D7D9" d="M91.7901339,88.2076567 C92.9755804,87.525491 93.9424554,88.0715261 93.9454911,89.4282947 L93.9712946,98.4446801 C93.9743304,99.8044738 93.0150446,101.457705 91.8295982,102.13987 L75.5703125,111.49507 C74.3833482,112.177236 73.4195089,111.6312 73.4164732,110.269894 L73.3906696,101.253509 C73.3861161,99.8982527 74.3438839,98.2450219 75.5308482,97.5613436 L91.7901339,88.2076567 Z"/>
    <path fill="#52B5E6" d="M91.5100893,98.1538143 C90.7435714,98.59397 90.1197321,99.669402 90.1227679,100.548201 C90.1242857,101.427 90.7526786,101.780939 91.5191964,101.340784 C92.2872321,100.899115 92.9080357,99.825196 92.9065179,98.9463971 C92.9034821,98.0660857 92.2766071,97.7121461 91.5100893,98.1538143"/>
    <path fill="#D35443" d="M89.2392232,99.446299 C88.4742232,99.8864547 87.8488661,100.961887 87.8519018,101.840686 C87.8549375,102.719484 88.4833304,103.073424 89.2483304,102.633268 C90.0163661,102.1916 90.6386875,101.117681 90.6356518,100.238882 C90.6326161,99.360083 90.0072589,99.0046308 89.2392232,99.446299"/>
    <polygon fill="#363F44" points="73.403 105.402 93.957 93.547 93.947 89.921 73.392 101.776"/>
    <polygon fill="#FFF" points="75.198 107.172 82.898 102.729 82.893 101.371 75.193 105.813"/>
    <polygon fill="#FFF" points="83.765 102.202 87.734 99.914 87.73 98.556 83.761 100.844"/>
    <polygon fill="#FCBF5C" points="125.65 74.365 130.241 89.327 123.945 88.454 117.671 96.56 122.163 76.37"/>
    <path fill="#D35443" d="M123.903893,59.3574923 C124.498893,59.0156532 125.027107,59.0413668 125.359518,59.3590049 C125.652464,58.9687638 126.001571,58.6450754 126.358268,58.4393669 C126.564696,58.321387 126.772643,58.2427337 126.976036,58.2094574 C127.537643,58.1217287 127.933804,58.4121407 128.094696,58.9279246 C128.235857,58.8099447 128.377018,58.7070904 128.521214,58.6254121 C128.932554,58.3894523 129.343893,58.3107991 129.682375,58.442392 C130.13925,58.6193618 130.360857,59.1351456 130.328982,59.7855475 C130.881482,59.542025 131.397554,59.6025275 131.695054,60.0245324 C131.994071,60.4450248 132.010768,61.1241654 131.793714,61.8320447 C132.287018,61.8320447 132.664964,62.1542205 132.772732,62.7652958 C132.875946,63.3793962 132.684696,64.1447528 132.30675,64.8208683 C132.687732,65.0643909 132.883536,65.6074008 132.783357,66.3379685 C132.678625,67.0700488 132.303714,67.823305 131.811929,68.393541 C132.032018,68.8503349 132.021393,69.5446011 131.722375,70.3084452 C131.429429,71.0707768 130.916393,71.7242038 130.365411,72.1159575 C130.398804,72.7285453 130.183268,73.4954145 129.726393,74.1987561 C129.389429,74.7175651 128.979607,75.1123439 128.568268,75.3483037 C128.425589,75.429982 128.282911,75.4935097 128.14175,75.5358614 C127.983893,76.2346653 127.590768,76.9803587 127.032196,77.5369817 C126.828804,77.7381525 126.619339,77.8984841 126.414429,78.016464 C126.056214,78.2236851 125.708625,78.2993132 125.414161,78.2478861 C125.083268,78.94669 124.558089,79.5804537 123.963089,79.9222928 C123.366571,80.2671571 122.836839,80.239931 122.504429,79.9222928 C122.211482,80.312534 121.862375,80.6362224 121.505679,80.8419309 C121.29925,80.9599107 121.091304,81.038564 120.887911,81.0718404 C120.327821,81.159569 119.930143,80.869157 119.76925,80.3533732 C119.629607,80.471353 119.486929,80.5742073 119.342732,80.6573982 C118.932911,80.8918454 118.520054,80.9704987 118.181571,80.8404183 C117.724696,80.6619359 117.504607,80.1476647 117.534964,79.4972628 C116.982464,79.7407853 116.467911,79.6787703 116.168893,79.2567653 C115.869875,78.8377855 115.853179,78.1586449 116.073268,77.4477405 C115.576929,77.4462279 115.198982,77.1270772 115.091214,76.516002 C114.988,75.9019016 115.17925,75.1380575 115.557196,74.4574043 C115.176214,74.2169069 114.980411,73.6738969 115.082107,72.9433292 C115.185321,72.2127615 115.560232,71.4564802 116.053536,70.8877567 C115.831929,70.4309628 115.842554,69.7366966 116.141571,68.9728525 C116.434518,68.2120335 116.947554,67.5570939 117.498536,67.1668528 C117.465143,66.5527524 117.680679,65.7858832 118.137554,65.0825416 C118.474518,64.5637327 118.884339,64.1689538 119.295679,63.9329941 C119.439875,63.8513157 119.581036,63.7877881 119.722196,63.7454363 C119.880054,63.0466324 120.273179,62.3009391 120.833268,61.7458286 C121.035143,61.5431452 121.244607,61.3828136 121.449518,61.2648337 C121.807732,61.0591252 122.156839,60.9819845 122.449786,61.0334116 C122.780679,60.3346077 123.305857,59.700844 123.903893,59.3574923"/>
    <path fill="#FFF" d="M124.163295,62.9142832 C127.406955,61.0492936 130.044991,62.5467305 130.055616,66.2600716 C130.066241,69.9734126 127.443384,74.4989998 124.199723,76.3639894 C120.951509,78.2335167 118.313473,76.7360798 118.302848,73.0227387 C118.290705,69.3093977 120.912045,64.7838105 124.163295,62.9142832"/>
    <polygon fill="#EEAE55" points="124.578 65.257 125.762 67.307 128.394 66.234 126.498 69.453 126.954 72.192 124.598 72.132 122.248 74.9 122.69 71.643 120.782 70.613 123.41 68.66"/>
  </g>
</svg>
