
<svg width="62px" height="62px" viewBox="0 0 62 62" version="1.1" xmlns="http://www.w3.org/2000/svg" xmlns:xlink="http://www.w3.org/1999/xlink">
    <!-- Generator: Sketch 47.1 (45422) - http://www.bohemiancoding.com/sketch -->
    <desc>Created with Sketch.</desc>
    <defs>
        <linearGradient x1="0%" y1="50%" x2="100%" y2="50%" id="linearGradient-1">
            <stop stop-color="#C33764" offset="0%"></stop>
            <stop stop-color="#1D2671" offset="100%"></stop>
        </linearGradient>
    </defs>
    <g id="Page-1" stroke="none" stroke-width="1" fill="none" fill-rule="evenodd">
        <g id="6.0-Brand-Insights_CopyNotReady" transform="translate(-594.000000, -1063.000000)" stroke-width="0.5">
            <g id="Group" transform="translate(595.000000, 1064.000000)">
                <path d="M39.7084615,44.1284615 L43.2138462,44.1284615 L43.2138462,20.6823077 L39.7084615,20.6823077 L39.7084615,44.1284615 Z M43.7907692,45.2823077 L39.1315385,45.2823077 C38.8130769,45.2823077 38.5546154,45.0238462 38.5546154,44.7053846 L38.5546154,20.1053846 C38.5546154,19.7869231 38.8130769,19.5284615 39.1315385,19.5284615 L43.7907692,19.5284615 C44.1092308,19.5284615 44.3676923,19.7869231 44.3676923,20.1053846 L44.3676923,44.7053846 C44.3676923,45.0238462 44.1092308,45.2823077 43.7907692,45.2823077 L43.7907692,45.2823077 Z" id="Fill-367" stroke="#000000" fill="#000000"></path>
                <path d="M39.1053846,45.2823077 L16.0684615,45.2823077 C15.75,45.2823077 15.4915385,45.0238462 15.4915385,44.7053846 L15.4915385,20.1053846 C15.4915385,19.7869231 15.75,19.5284615 16.0684615,19.5284615 L39.1053846,19.5284615 C39.4238462,19.5284615 39.6823077,19.7869231 39.6823077,20.1053846 C39.6823077,20.4238462 39.4238462,20.6823077 39.1053846,20.6823077 L16.6453846,20.6823077 L16.6453846,44.1284615 L39.1053846,44.1284615 C39.4238462,44.1284615 39.6823077,44.3869231 39.6823077,44.7053846 C39.6823077,45.0238462 39.4238462,45.2823077 39.1053846,45.2823077" id="Fill-368" stroke="#000000" fill="#000000"></path>
                <path d="M35.5915385,20.6823077 C35.2723077,20.6823077 35.0146154,20.4238462 35.0146154,20.1053846 L35.0146154,18.1523077 C35.0146154,14.38 31.9453846,11.3107692 28.1730769,11.3107692 C24.4,11.3107692 21.33,14.38 21.33,18.1523077 L21.33,20.1053846 C21.33,20.4238462 21.0723077,20.6823077 20.7530769,20.6823077 C20.4346154,20.6823077 20.1761538,20.4238462 20.1761538,20.1053846 L20.1761538,18.1523077 C20.1761538,13.7438462 23.7638462,10.1569231 28.1730769,10.1569231 C32.5815385,10.1569231 36.1684615,13.7438462 36.1684615,18.1523077 L36.1684615,20.1053846 C36.1684615,20.4238462 35.91,20.6823077 35.5915385,20.6823077" id="Fill-369" stroke="#000000" fill="#000000"></path>
                <path d="M41.0576923,20.6823077 C40.7392308,20.6823077 40.4807692,20.4238462 40.4807692,20.1053846 L40.4807692,18.1523077 C40.4807692,14.38 37.4115385,11.3107692 33.6376923,11.3107692 C29.8653846,11.3107692 26.7969231,14.38 26.7969231,18.1523077 L26.7969231,20.1053846 C26.7969231,20.4238462 26.5384615,20.6823077 26.22,20.6823077 C25.9015385,20.6823077 25.6430769,20.4238462 25.6430769,20.1053846 L25.6430769,18.1523077 C25.6430769,13.7438462 29.2292308,10.1569231 33.6376923,10.1569231 C38.0476923,10.1569231 41.6346154,13.7438462 41.6346154,18.1523077 L41.6346154,20.1053846 C41.6346154,20.4238462 41.3761538,20.6823077 41.0576923,20.6823077" id="Fill-370" stroke="#000000" fill="#000000"></path>
                <path d="M13.4427382,54.8504019 C12.3385208,55.8909546 10.9019198,56.4623077 9.37769231,56.4623077 C7.79461538,56.4623077 6.30615385,55.8453846 5.18692308,54.7261538 C4.06692308,53.6061538 3.45,52.1169231 3.45,50.5338462 C3.45,49.0141648 4.01795002,47.5822961 5.05328733,46.4794548 C1.78456805,41.5732369 0.0584615385,35.8621172 0.0584615385,29.9361538 C0.0584615385,24.0114246 1.78191203,18.3071872 5.04729896,13.4044267 C4.96810254,13.3332303 4.89051294,13.2596916 4.81461538,13.1838462 C2.50307692,10.8723077 2.50307692,7.11076923 4.81461538,4.8 C5.93461538,3.68 7.42307692,3.06307692 9.00692308,3.06307692 C10.59,3.06307692 12.0784615,3.68 13.1984615,4.8 C13.2758849,4.87742338 13.3507151,4.9564726 13.4229519,5.03703876 C18.3203776,1.78237351 24.0178563,0.0646153846 29.9292308,0.0646153846 C35.8554712,0.0646153846 41.565541,1.79030444 46.4706917,5.05909146 C46.4867648,5.04265029 46.5029446,5.02628619 46.5192308,5.01 C47.6392308,3.89076923 49.1276923,3.27384615 50.7107692,3.27384615 C52.2938462,3.27384615 53.7830769,3.89076923 54.9023077,5.01 C57.2138462,7.32153846 57.2138462,11.0830769 54.9023077,13.3946154 C54.8830938,13.4138161 54.8637715,13.4328687 54.8443422,13.4517727 C58.0885605,18.3448032 59.8015385,24.0349292 59.8015385,29.9361538 C59.8015385,35.8500706 58.084031,41.5489332 54.8280546,46.4471219 C54.9252139,46.5325621 55.0200161,46.6214911 55.1123077,46.7138462 C57.4238462,49.0246154 57.4238462,52.7853846 55.1123077,55.0969231 C53.9930769,56.2169231 52.5046154,56.8338462 50.9215385,56.8338462 C50.9207692,56.8338462 50.9207692,56.8338462 50.9207692,56.8338462 C49.3376923,56.8338462 47.8484615,56.2169231 46.7292308,55.0969231 C46.6386085,55.0063631 46.5512748,54.9133807 46.4672907,54.8181223 C41.56249,58.0844195 35.8545246,59.8084615 29.9292308,59.8084615 C24.0263412,59.8084615 18.3357039,58.0958052 13.4427382,54.8504019 Z M14.2081997,53.9731956 C18.8825531,57.0374015 24.3056247,58.6546154 29.9292308,58.6546154 C35.6120863,58.6546154 41.0845408,57.0055071 45.7906603,53.8813281 C45.2695243,52.9871635 44.9915385,51.9673913 44.9915385,50.9053846 C44.9923077,49.3223077 45.6092308,47.8338462 46.7292308,46.7138462 C47.8484615,45.5938462 49.3376923,44.9776923 50.9207692,44.9776923 C51.9810883,44.9776923 52.9986585,45.2538368 53.8913165,45.7724296 C57.004425,41.0715281 58.6476923,35.6075458 58.6476923,29.9361538 C58.6476923,24.2972121 57.021528,18.8595498 53.9398901,14.1759802 C52.9871772,14.797019 51.8745392,15.13 50.7107692,15.13 C49.1269231,15.13 47.6384615,14.5138462 46.5192308,13.3946154 C45.3992308,12.2746154 44.7823077,10.7853846 44.7823077,9.20153846 C44.7823077,8.0333823 45.1182222,6.91674421 45.7443093,5.96165219 C41.0481489,2.85692159 35.5910936,1.21846154 29.9292308,1.21846154 C24.2644341,1.21846154 18.804874,2.85889802 14.1062622,5.9677481 C15.4545342,8.2418784 15.151934,11.2303737 13.1984615,13.1838462 C12.0784615,14.3030769 10.59,14.92 9.00692308,14.92 C9.00615385,14.92 9.00615385,14.92 9.00615385,14.92 C7.92266056,14.92 6.88348834,14.6310123 5.9764341,14.0897832 C2.85771867,18.7928973 1.21230769,24.258231 1.21230769,29.9361538 C1.21230769,35.5818636 2.84157027,41.0245478 5.92853995,45.7110274 C6.92785504,44.9929563 8.12353666,44.6053846 9.37769231,44.6053846 C10.9615385,44.6053846 12.4507692,45.2223077 13.5707692,46.3415385 C15.6448098,48.4162694 15.8572866,51.6591255 14.2081997,53.9731956 Z" id="Combined-Shape" stroke="url(#linearGradient-1)" fill="url(#linearGradient-1)"></path>
            </g>
        </g>
    </g>
</svg>