<?xml version="1.0" encoding="UTF-8"?>
<svg width="61px" height="61px" viewBox="0 0 61 61" version="1.1" xmlns="http://www.w3.org/2000/svg" xmlns:xlink="http://www.w3.org/1999/xlink">
    <!-- Generator: Sketch 46.2 (44496) - http://www.bohemiancoding.com/sketch -->
    <title>Group 23</title>
    <desc>Created with Sketch.</desc>
    <defs>
        <linearGradient x1="0%" y1="50%" x2="100%" y2="50%" id="linearGradient-1">
            <stop stop-color="#C33764" offset="0%"></stop>
            <stop stop-color="#1D2671" offset="100%"></stop>
        </linearGradient>
    </defs>
    <g id="Page-1" stroke="none" stroke-width="1" fill="none" fill-rule="evenodd">
        <g id="6.0-Brand-Insights_CopyNotReady" transform="translate(-245.000000, -1064.000000)">
            <g id="Group-23" transform="translate(245.000000, 1064.000000)">
                <g id="Group-2" transform="translate(3.200000, 29.600000)" stroke="#000000" stroke-width="0.5" fill="#000000">
                    <path d="M19.5115522,29.3964158 L22.8884478,29.3964158 L22.8884478,9.00358423 L19.5115522,9.00358423 L19.5115522,29.3964158 Z M23.4442239,30.4 L18.9557761,30.4 C18.6489877,30.4 18.4,30.1751971 18.4,29.8982079 L18.4,8.50179211 C18.4,8.22480287 18.6489877,8 18.9557761,8 L23.4442239,8 C23.7510123,8 24,8.22480287 24,8.50179211 L24,29.8982079 C24,30.1751971 23.7510123,30.4 23.4442239,30.4 L23.4442239,30.4 Z" id="Fill-367"></path>
                    <path d="M19.5230221,30.4 L0.476977868,30.4 C0.213686085,30.4 0,30.1751971 0,29.8982079 L0,8.50179211 C0,8.22480287 0.213686085,8 0.476977868,8 L19.5230221,8 C19.7863139,8 20,8.22480287 20,8.50179211 C20,8.77878136 19.7863139,9.00358423 19.5230221,9.00358423 L0.953955736,9.00358423 L0.953955736,29.3964158 L19.5230221,29.3964158 C19.7863139,29.3964158 20,29.6212186 20,29.8982079 C20,30.1751971 19.7863139,30.4 19.5230221,30.4" id="Fill-368"></path>
                    <path d="M17.1093795,8 C16.8379028,8 16.618759,7.80355185 16.618759,7.56149967 L16.618759,6.07702989 C16.618759,3.20982241 14.008658,0.877000658 10.8006542,0.877000658 C7.59199615,0.877000658 4.98124098,3.20982241 4.98124098,6.07702989 L4.98124098,7.56149967 C4.98124098,7.80355185 4.76209716,8 4.49062049,8 C4.21979798,8 4,7.80355185 4,7.56149967 L4,6.07702989 C4,2.72630271 7.05100529,0 10.8006542,0 C14.5496489,0 17.6,2.72630271 17.6,6.07702989 L17.6,7.56149967 C17.6,7.80355185 17.380202,8 17.1093795,8" id="Fill-369"></path>
                    <path d="M21.1093559,8 C20.8385204,8 20.6187118,7.80355185 20.6187118,7.56149967 L20.6187118,6.07702989 C20.6187118,3.20982241 18.0084853,0.877000658 14.7990187,0.877000658 C11.5908606,0.877000658 8.98128818,3.20982241 8.98128818,6.07702989 L8.98128818,7.56149967 C8.98128818,7.80355185 8.76147963,8 8.49064409,8 C8.21980855,8 8,7.80355185 8,7.56149967 L8,6.07702989 C8,2.72630271 11.0498437,0 14.7990187,0 C18.5495021,0 21.6,2.72630271 21.6,6.07702989 L21.6,7.56149967 C21.6,7.80355185 21.3801914,8 21.1093559,8" id="Fill-370"></path>
                </g>
                <g id="noun_1131285_cc" fill-rule="nonzero">
                    <g id="Group">
                        <path d="M36.8,17.168 C36.4750161,16.883353 35.9827428,16.9081437 35.688,17.224 L30.184,23.112 L27.704,20.312 C27.5598174,20.1474897 27.3545582,20.0491966 27.136,20.04 C26.9190011,20.0323184 26.7082011,20.1131732 26.552,20.264 L20,26.504 L21.104,27.664 L27.048,22 L29.6,24.8 C29.7479438,24.9685058 29.9598162,25.0671861 30.184,25.072 C30.4085136,25.0735192 30.6233324,24.9806246 30.776,24.816 L36.376,18.848 L39.392,21.504 C39.69996,21.7935541 40.18004,21.7935541 40.488,21.504 L50.136,11.8 L50.136,19.68 L51.736,19.68 L51.736,9.736 C51.736,9.2941722 51.3778278,8.936 50.936,8.936 L40.992,8.936 L40.992,10.536 L49.136,10.536 L39.832,19.84 L36.8,17.168 Z" id="Shape" fill="url(#linearGradient-1)"></path>
                        <path d="M60,0 L0.8,0 C0.3581722,0 0,0.3581722 0,0.8 L0,26.224 L1.6,26.224 L1.6,1.6 L59.2,1.6 L59.2,51.2 L45.448,51.2 L45.448,52.8 L60,52.8 C60.4418278,52.8 60.8,52.4418278 60.8,52 L60.8,0.8 C60.8,0.3581722 60.4418278,0 60,0 Z" id="Shape" fill="#000000"></path>
                    </g>
                </g>
            </g>
        </g>
    </g>
</svg>