<svg xmlns="http://www.w3.org/2000/svg" xmlns:xlink="http://www.w3.org/1999/xlink" width="277" height="280" viewBox="0 0 277 280">
  <defs>
    <path id="bi-crisis-adv-a" d="M33.7038604,0.147328395 L0.925531915,19.5858745 C0.929361702,20.0059165 0.782553191,20.3012187 0.545106383,20.4437784 L0.545489362,0.147096402 L33.7038604,0.147096402 L33.7038604,0.147328395 Z M0.545489362,20.4435513 L33.3229787,1.00601856 C33.5479836,0.870928801 33.6916001,0.597541178 33.7038604,0.211849329 L0.545489362,20.4435513 Z"/>
    <path id="bi-crisis-adv-c" d="M33.9515319,0.902238906 C33.7384834,0.782738412 33.5381916,0.726799873 33.3608511,0.726799873 C33.2255319,0.726799873 33.1042553,0.758621233 33.0008511,0.8209911 L0.222978723,20.2587509 C0.463964298,20.1163632 0.799190205,20.1314289 1.17268924,20.3419956 L1.17533023,20.3419956 L33.9515319,0.902680924 L33.9515319,0.902238906 Z"/>
    <path id="bi-crisis-adv-e" d="M33.3640332,0.0303756516 L0.587234043,19.4687719 C0.622521357,19.488877 0.659052807,19.5077416 0.694371959,19.5241411 L0.696817817,19.5241411 L33.473617,0.0857448188 C33.4382236,0.0680999658 33.4015785,0.0517030745 33.3661605,0.0303756519 L33.3640332,0.0303756516 Z"/>
    <path id="bi-crisis-adv-g" d="M0.69660319,19.5242684 L33.473617,0.0857448188 C33.4353191,0.0615605849 33.3982979,0.0335577877 33.3612766,0.00555499046 C22.433617,6.48565683 11.5085106,12.9644858 0.58212766,19.4458605 C0.620170298,19.4724123 0.656953299,19.4989641 0.694979147,19.5242684 L0.69660319,19.5242684 Z"/>
    <path id="bi-crisis-adv-i" d="M0.69587234,19.5247018 L33.4727585,0.0862539606 L33.4744397,0.0862539606 C33.5111867,0.108995557 33.5479244,0.131727863 33.5834043,0.153206103 L0.805531915,19.5909659 C0.76982832,19.5718951 0.732851063,19.5477445 0.695872342,19.5248565 L0.69587234,19.5247018 Z"/>
    <path id="bi-crisis-adv-k" d="M0.714510638,19.5556054 L33.4914781,0.119139174 L33.4927712,0.119139174 C33.4982034,0.882698145 33.9946825,1.79743081 34.6378723,2.27840941 C23.7102128,8.75851125 12.7851064,15.2373402 1.8587234,21.7187149 C1.23004761,21.2442196 0.738969355,20.3556915 0.714510638,19.5998935 L0.714510638,19.5556054 Z"/>
    <path id="bi-crisis-adv-m" d="M33.5831896,0.153333388 L0.805531915,19.5909659 C1.01524426,19.7086277 1.21308055,19.7658992 1.38956169,19.7687149 L1.4168155,19.7687149 C1.54644708,19.766624 1.66398698,19.7345626 1.76553191,19.6749743 L34.5434043,0.23594164 C34.2996237,0.381017724 33.9601372,0.363234277 33.5836325,0.153333388 L33.5831896,0.153333388 Z"/>
    <path id="bi-crisis-adv-o" d="M33.6504087,0.371546205 L0.873191489,19.8094333 C0.877020147,20.2318964 0.729023495,20.5309653 0.489148468,20.674847 L0.487914894,0.371546205 L33.6504087,0.371546205 Z M0.48893617,20.6749743 C0.48893617,20.6749743 0.48893617,20.6749743 0.48893617,20.6749743 L33.2668085,1.23594164 C33.4946767,1.10130436 33.6382848,0.825888176 33.6513917,0.439715291 L0.48893617,20.6749743 Z"/>
    <path id="bi-crisis-adv-q" d="M33.4040294,0.0153559695 L0.627659574,19.4522248 C0.630210019,19.8730864 0.483719929,20.1707466 0.246723404,20.3109491 L0.246723404,0.0153559695 L33.4040294,0.0153559695 Z M0.246723404,20.3109491 C0.24646819,20.3111001 0.245957447,20.3114015 0.245957447,20.3114015 L33.0238298,0.872368849 C33.2514486,0.737654181 33.3955048,0.461762199 33.4050944,0.0722769691 L0.246723404,20.3109491 Z"/>
    <path id="bi-crisis-adv-s" d="M33.1496039,0.66338971 C33.0235031,0.666371825 32.910149,0.697996043 32.8106383,0.756075524 L0.0330212766,20.1936839 L0.0330212766,20.1936859 C0.274086287,20.0526737 0.610654437,20.0691435 0.985477997,20.2798803 L0.987241488,20.2798803 L33.7642553,0.841356771 C33.5576718,0.724881055 33.3629328,0.667454651 33.1891657,0.66338971 L33.1496046,0.66338971 L33.1496039,0.66338971 Z"/>
    <path id="bi-crisis-adv-u" d="M33.8374491,0.8874341 C33.8377753,0.88717953 33.8377753,0.88717953 33.8377753,0.88717953 L1.05957447,20.3249394 C1.0633961,20.745357 0.918491468,21.0415656 0.679404256,21.1832114 L33.8377753,21.1843707 L33.8377753,0.8874341 L33.8374491,0.8874341 Z"/>
    <path id="bi-crisis-adv-w" d="M33.9542396,0.593797409 C33.831973,0.598688785 33.721743,0.631187734 33.6255319,0.687341386 L0.847914894,20.1262226 L0.847914894,20.1262233 C1.08912513,19.9838539 1.42595317,19.9991565 1.79977327,20.2089823 L1.80021463,20.2089823 L34.5768511,0.770682595 L34.5768511,0.769504179 C34.3771107,0.657570154 34.1885948,0.600397776 34.0197072,0.593797409 L33.9542396,0.593797409 Z"/>
    <path id="bi-crisis-adv-y" d="M33.2617089,0.755566383 C33.2617067,0.755311857 33.2617044,0.755057286 33.2617021,0.75480267 L0.483829787,20.1938353 C0.487659574,20.6138773 0.34212766,20.9104524 0.103404255,21.0517392 L33.2624136,21.0512301 L33.2624136,0.755566383 L33.2617089,0.755566383 Z"/>
    <path id="bi-crisis-adv-A" d="M34.3898298,0.708762749 C34.1767812,0.587991686 33.9764895,0.532053147 33.7991489,0.532053147 C33.6638298,0.532053147 33.5425532,0.563874507 33.4391489,0.626244374 L0.661276596,20.0640042 C0.903390697,19.9217026 1.23708721,19.936664 1.61030944,20.146867 L1.61427207,20.146867 L34.3898298,0.709207038 L34.3898298,0.708762749 Z"/>
    <path id="bi-crisis-adv-C" d="M33.9718178,0.628079461 L1.19361702,20.0652771 C1.19744681,20.485319 1.0506383,20.7818941 0.811914894,20.9244538 L0.811914894,0.627644514 L33.9718178,0.627644514 L33.9718178,0.628079461 Z M33.9718178,0.696386457 C33.9587219,1.07990949 33.8153149,1.35078397 33.5910638,1.48542111 L0.812170213,20.9243024 L33.9718178,0.696386457 Z"/>
    <path id="bi-crisis-adv-E" d="M33.6059348,0.460784122 C33.4735892,0.461454362 33.3537924,0.493245293 33.2514894,0.553691672 L0.47387234,19.9938458 L0.47387234,19.9938451 C0.715131346,19.8501763 1.05204636,19.8667854 1.42468085,20.0754599 L34.2025532,0.636427209 C33.9910725,0.517739015 33.7921536,0.461676234 33.6145195,0.460784122 L33.6059348,0.460784122 Z"/>
    <path id="bi-crisis-adv-G" d="M33.3959481,0.494503942 L0.619148936,19.9329002 C0.621702128,20.3529421 0.474893617,20.6495172 0.237446809,20.7908041 L33.0153191,1.35304425 C33.241984,1.21768564 33.3857851,0.944625671 33.3964561,0.556744839 L33.3964561,0.494503942 L33.3959481,0.494503942 Z"/>
    <path id="bi-crisis-adv-I" d="M33.3954242,0.398903825 C33.27262,0.403252626 33.1610654,0.435843069 33.0638298,0.49259466 L0.286340426,19.9301274 L0.286340426,19.9301304 C0.52739659,19.7891959 0.863910733,19.8031582 1.23612244,20.0138537 L1.23787982,20.0138537 L34.0161702,0.575330197 C33.8144741,0.462133354 33.6242043,0.404761708 33.4529281,0.398903825 L33.3954242,0.398903825 Z"/>
    <path id="bi-crisis-adv-K" d="M33.2366411,0.0527892176 C33.1137475,0.0575226958 33.0020438,0.0900490627 32.9055319,0.146378258 L0.127659574,19.5854109 C0.370212766,19.4415784 0.709787234,19.4581255 1.08638298,19.6681465 L33.8642553,0.23038665 C33.6624695,0.116615982 33.4719845,0.0591837355 33.3002431,0.0527892176 L33.2366411,0.0527892176 Z"/>
    <path id="bi-crisis-adv-M" d="M32.8631821,0.231023077 L0.0863829787,19.6681465 C0.83300517,20.0893562 1.44692764,21.1250478 1.45361213,21.9751951 L1.45469023,21.9751951 L34.2314894,2.53807171 C34.2263856,1.68696316 33.6116866,0.65020596 32.8653893,0.231023077 L32.8631821,0.231023077 Z"/>
    <path id="bi-crisis-adv-O" d="M34.1055431,0.367854927 C34.1055395,0.367430768 34.1055358,0.367006483 34.1058604,0.366582072 L1.32765957,19.8056147 C1.331488,20.2255077 1.18606066,20.5232934 0.946212766,20.6620981 L34.1058604,20.6635186 L34.1058604,0.367854927 L34.1055431,0.367854927 Z"/>
    <path id="bi-crisis-adv-Q" d="M33.5297918,0.234714355 C33.5297903,0.234544661 33.5297888,0.234374947 33.5297872,0.234205213 L0.751914894,19.6745107 C0.755737855,20.0938041 0.610731057,20.3888019 0.37276491,20.5316509 L33.5310966,20.5316509 L33.5310966,0.234714355 L33.5297918,0.234714355 Z"/>
    <path id="bi-crisis-adv-S" d="M33.2405009,0.107127456 L0.461702128,19.5459524 C0.46425456,19.9658694 0.31880999,20.2611209 0.0814885098,20.403729 L0.080893617,0.106792486 L33.2405009,0.106792486 L33.2405009,0.107127456 Z M33.2405009,0.154282092 C33.2321452,0.550400638 33.0875959,0.828940202 32.8591489,0.966096503 L0.0812765957,20.4038563 C0.0812765957,20.4038563 0.0812765957,20.4038563 0.0812765957,20.4038563 L33.2405009,0.154282092 Z"/>
    <path id="bi-crisis-adv-U" d="M33.6638359,0.247906472 C33.6638339,0.247736778 33.6638319,0.247567064 33.6638298,0.24739733 L0.887234043,19.6851572 C0.889787234,20.106472 0.742978723,20.403047 0.505531915,20.5443339 L33.2821277,1.10530121 C33.5220307,0.96407146 33.6688175,0.667678948 33.6638359,0.247906472 L33.6645412,20.544843 L0.504893617,20.544843 L0.504893617,0.247906472 L33.6638359,0.247906472 Z"/>
    <path id="bi-crisis-adv-W" d="M0.765702128,19.6909158 C10.5990626,13.8601218 23.7101716,6.08473215 33.5434005,0.254016173 L33.5442836,0.254016173 C33.9205666,0.464994381 34.258587,0.480260807 34.5035745,0.335375358 L34.5035745,0.335375707 L1.72468085,19.7755298 C1.62646331,19.8334673 1.51291763,19.8655885 1.3876316,19.8693976 L1.33663724,19.8693976 C1.16381536,19.8642493 0.970585326,19.8071786 0.765702128,19.6920955 L0.765702128,19.6909158 Z"/>
    <path id="bi-crisis-adv-Y" d="M33.6114139,0.472228989 C33.6114392,0.471804838 33.6114643,0.471380553 33.6114894,0.470956135 L0.833617021,19.9099888 C0.808085106,20.3440322 0.654893617,20.6355158 0.42,20.7755298 L33.6121277,20.7755298 L33.6121277,0.472228989 L33.6114139,0.472228989 Z"/>
    <path id="bi-crisis-adv-aa" d="M0.835537482,20.1603593 L33.6140426,0.720435601 C33.6140426,0.678431405 33.6114894,0.635154355 33.6089362,0.594423013 L0.83106383,20.0321828 C0.832336671,20.0753326 0.834878609,20.117217 0.834893551,20.1603593 L0.835537482,20.1603593 Z"/>
    <path id="bi-crisis-adv-ac" d="M0.743234043,20.149134 L33.5210546,0.709616338 L33.5232583,0.709616338 C34.2695545,1.1300689 34.8817053,2.16682733 34.8880851,3.01666497 L2.1112859,22.4550612 L2.11020884,22.4550612 C2.10480042,21.6037389 1.48974144,20.5681863 0.743234043,20.1494286 L0.743234043,20.149134 Z"/>
  </defs>
  <g fill="none" fill-rule="evenodd">
    <g transform="translate(40.851 145.137)">
      <mask id="bi-crisis-adv-b" fill="#fff">
        <use xlink:href="#bi-crisis-adv-a"/>
      </mask>
      <path fill="#A3A6AA" d="M0.925914894,19.5861291 L33.7038604,0.147096402 C33.707617,0.56713836 33.5608085,0.863713439 33.3220851,1.00500028 L0.545489362,20.444033 C0.78293617,20.3014733 0.928468085,20.006171 0.925914894,19.5861291" mask="url(#bi-crisis-adv-b)"/>
    </g>
    <g transform="translate(32.915 131.408)">
      <mask id="bi-crisis-adv-d" fill="#fff">
        <use xlink:href="#bi-crisis-adv-c"/>
      </mask>
      <path fill="#A3A6AA" d="M0.222595745,20.2592601 L33.0004681,0.821500242 C33.2417447,0.676394838 33.5774894,0.692941945 33.9515319,0.902962924 L1.17365957,20.3419956 C0.799617021,20.1319746 0.46387234,20.1167004 0.222595745,20.2592601" mask="url(#bi-crisis-adv-d)"/>
    </g>
    <polygon fill="#9A9DA1" points="39.024 157.602 71.802 138.164 72.938 138.802 40.16 158.241"/>
    <g transform="translate(39.574 138.772)">
      <mask id="bi-crisis-adv-f" fill="#fff">
        <use xlink:href="#bi-crisis-adv-e"/>
      </mask>
      <path fill="#A3A6AA" d="M0.586085106,19.4681355 L33.3639574,0.0303756516 C33.4009787,0.0507413223 33.438,0.0685612842 33.4737447,0.0851083916 L0.69587234,19.5241411 C0.66012766,19.507594 0.623106383,19.489774 0.586085106,19.4681355" mask="url(#bi-crisis-adv-f)"/>
    </g>
    <g transform="translate(39.574 138.772)">
      <mask id="bi-crisis-adv-h" fill="#fff">
        <use xlink:href="#bi-crisis-adv-g"/>
      </mask>
      <path fill="#A3A6AA" d="M-0.562085106,17.2840446 L32.2157872,-2.15371524 C32.2221702,-1.34545269 32.7774894,-0.36917335 33.4745106,0.085235677 L0.695361702,19.5242684 C-0.000382978723,19.0685865 -0.555702128,18.09358 -0.562085106,17.2840446" mask="url(#bi-crisis-adv-h)"/>
    </g>
    <g transform="translate(39.574 138.772)">
      <mask id="bi-crisis-adv-j" fill="#fff">
        <use xlink:href="#bi-crisis-adv-i"/>
      </mask>
      <path fill="#A3A6AA" d="M0.69587234,19.5240138 L33.4737447,0.0862539606 C33.510766,0.10916534 33.5465106,0.13207672 33.5835319,0.15244239 L0.805659574,19.5914751 C0.768638298,19.5711094 0.731617021,19.548198 0.69587234,19.5240138" mask="url(#bi-crisis-adv-j)"/>
    </g>
    <g transform="translate(38.298 136.5)">
      <mask id="bi-crisis-adv-l" fill="#fff">
        <use xlink:href="#bi-crisis-adv-k"/>
      </mask>
      <path fill="#A3A6AA" d="M0.714510638,19.556899 L33.492383,0.119139174 C33.498766,0.927401729 34.0540851,1.90368107 34.7511064,2.3580901 L1.97195745,21.7971228 C1.27621277,21.3414409 0.720893617,20.3664344 0.714510638,19.556899" mask="url(#bi-crisis-adv-l)"/>
    </g>
    <polygon fill="#9A9DA1" points="40.38 158.364 73.158 138.926 74.514 139.687 41.736 159.127"/>
    <g transform="translate(38.298 139.045)">
      <path fill="#CED1D5" d="M1.97246809,19.2511594 C2.00821277,19.2753436 2.04523404,19.298255 2.08225532,19.3186206 L3.438,20.0810604 L3.47885106,25.6778013 C3.48523404,26.5280681 2.88140426,26.8691931 2.13459574,26.4491511 C1.38778723,26.030382 0.773744681,25.0031885 0.767361702,24.1529217 L0.726510638,18.5561809 L1.86268085,19.1951538 C1.89970213,19.2167923 1.9367234,19.2346123 1.97246809,19.2511594"/>
      <polygon fill="#A6AAAD" points="3.439 20.081 36.216 .642 36.257 6.238 3.479 25.677"/>
    </g>
    <g transform="translate(39.574 138.772)">
      <mask id="bi-crisis-adv-n" fill="#fff">
        <use xlink:href="#bi-crisis-adv-m"/>
      </mask>
      <path fill="#BFC2C4" d="M0.805531915,19.5910932 L33.5834043,0.153333388 C33.96,0.364627222 34.2995745,0.379901475 34.5434043,0.236068926 L1.76425532,19.6738287 C1.52170213,19.8189342 1.18085106,19.802387 0.805531915,19.5910932" mask="url(#bi-crisis-adv-n)"/>
    </g>
    <g transform="translate(31.915 131.408)">
      <polygon fill="#9A9DA1" points="2.174 20.343 34.952 .903 39.864 3.664 7.086 23.105"/>
      <path fill="#CED1D5" d="M7.08625532,23.1044715 L7.09774468,24.648444 C7.10412766,25.4579794 7.65944681,26.4329858 8.35519149,26.8886677 C8.31944681,26.8721206 8.28242553,26.8530278 8.24540426,26.8326621 L7.10923404,26.1936892 L2.19561702,23.4315951 C1.44880851,23.0115532 0.843702128,21.9792682 0.837319149,21.1290015 C0.83093617,20.2774619 1.42710638,19.9223355 2.17391489,20.3423775 L7.08625532,23.1044715 Z"/>
      <polygon fill="#A6AAAD" points="7.086 23.104 39.864 3.665 39.876 5.209 7.098 24.648"/>
    </g>
    <g transform="translate(40.851 137.772)">
      <mask id="bi-crisis-adv-p" fill="#fff">
        <use xlink:href="#bi-crisis-adv-o"/>
      </mask>
      <path fill="#BFC2C4" d="M0.873446809,19.809306 L33.6513917,0.371546205 C33.6551489,0.794133872 33.5070638,1.09325466 33.2670638,1.23581435 L0.487914894,20.674847 C0.729191489,20.5310145 0.876,20.2318937 0.873446809,19.809306" mask="url(#bi-crisis-adv-p)"/>
    </g>
    <polygon fill="#C3C6C8" points="41.713 156.038 74.491 136.599 74.503 138.143 41.725 157.582"/>
    <g transform="translate(63.553 157.865)">
      <mask id="bi-crisis-adv-r" fill="#fff">
        <use xlink:href="#bi-crisis-adv-q"/>
      </mask>
      <path fill="#A3A6AA" d="M0.627148936,19.4531158 L33.4050944,0.0153559695 C33.4088511,0.435397928 33.2620426,0.730700153 33.0233191,0.871986993 L0.246723404,20.3122925 C0.484170213,20.1697328 0.629702128,19.8731577 0.627148936,19.4531158" mask="url(#bi-crisis-adv-r)"/>
    </g>
    <g transform="translate(32.915 105.951)">
      <mask id="bi-crisis-adv-t" fill="#fff">
        <use xlink:href="#bi-crisis-adv-s"/>
      </mask>
      <path fill="#A3A6AA" d="M0.0330212766,20.1945991 L32.8108936,0.756839237 C33.0534468,0.613006688 33.3891915,0.63082665 33.7645106,0.840847629 L0.986638298,20.2798803 C0.611319149,20.0685865 0.274297872,20.0520394 0.0330212766,20.1945991" mask="url(#bi-crisis-adv-t)"/>
    </g>
    <g transform="translate(31.915 105.951)">
      <polygon fill="#9A9DA1" points="29.52 64.251 62.298 44.813 65.002 46.333 32.225 65.771"/>
      <path fill="#CED1D5" d="M32.2248511,65.7713154 L32.2657021,71.3667834 C32.2720851,72.218323 31.6669787,72.5607208 30.9214468,72.1406789 C30.1733617,71.7206369 29.5669787,70.6985348 29.5618723,69.8469952 L29.5197447,64.2515272 L32.2248511,65.7713154 Z"/>
      <polygon fill="#A6AAAD" points="32.225 65.771 65.003 46.334 65.044 51.929 32.266 71.367"/>
      <polygon fill="#9A9DA1" points="1.987 20.28 34.765 .841 39.677 3.603 6.899 23.042"/>
      <polygon fill="#A6AAAD" points="6.899 23.042 39.677 3.603 39.7 6.684 6.922 26.123"/>
      <path fill="#CED1D5" d="M6.89923404,23.0423562 L6.92221277,26.1226639 L2.00859574,23.3605699 C1.26178723,22.9405279 0.656680851,21.9171529 0.650297872,21.0668862 C0.643914894,20.2064366 1.23880851,19.8602202 1.98689362,20.2802622 L6.89923404,23.0423562 Z"/>
    </g>
    <g transform="translate(85.532 169.594)">
      <mask id="bi-crisis-adv-v" fill="#fff">
        <use xlink:href="#bi-crisis-adv-u"/>
      </mask>
      <path fill="#A3A6AA" d="M1.05982979,20.3251939 L33.8377753,0.8874341 C33.8415319,1.30747606 33.6947234,1.60405114 33.456,1.74406512 L0.679404255,21.1843707 C0.916851064,21.041811 1.06238298,20.7465087 1.05982979,20.3251939" mask="url(#bi-crisis-adv-v)"/>
    </g>
    <g transform="translate(31.915 80.494)">
      <mask id="bi-crisis-adv-x" fill="#fff">
        <use xlink:href="#bi-crisis-adv-w"/>
      </mask>
      <path fill="#A3A6AA" d="M0.847914894,20.1262468 L33.6257872,0.6872141 C33.8683404,0.544654406 34.2040851,0.559928659 34.5768511,0.769949638 L1.80025532,20.2089823 C1.42621277,19.9989613 1.08919149,19.9836871 0.847914894,20.1262468" mask="url(#bi-crisis-adv-x)"/>
    </g>
    <g transform="translate(31.915 80.494)">
      <polygon fill="#A6AAAD" points="54.636 103.83 87.414 84.391 87.454 89.986 54.677 109.426"/>
      <path fill="#CED1D5" d="M54.6357447,103.830044 L54.6765957,109.425512 C54.6829787,110.275779 54.0791489,110.618177 53.3323404,110.198135 C52.5855319,109.778093 51.9714894,108.7509 51.9651064,107.900633 L51.9229787,102.305165 L54.6357447,103.830044 Z"/>
      <polygon fill="#9A9DA1" points="51.924 102.305 84.701 82.866 87.414 84.391 54.636 103.83"/>
      <polygon fill="#A6AAAD" points="6.712 22.971 39.49 3.533 39.513 6.621 6.735 26.06"/>
      <path fill="#CED1D5" d="M6.71234043,22.9709491 L6.73531915,26.0601668 L1.82170213,23.2980727 C1.07489362,22.8780307 0.468510638,21.8470187 0.46212766,20.9954791 C0.457021277,20.1452123 1.05191489,19.7888131 1.8,20.208855 L6.71234043,22.9709491 Z"/>
      <polygon fill="#9A9DA1" points="1.8 20.209 34.578 .77 39.49 3.532 6.712 22.971"/>
    </g>
    <g transform="translate(108.51 182.322)">
      <mask id="bi-crisis-adv-z" fill="#fff">
        <use xlink:href="#bi-crisis-adv-y"/>
      </mask>
      <path fill="#A3A6AA" d="M0.484468085,20.1933262 L33.2624136,0.755566383 C33.2661702,1.17560834 33.1193617,1.47091057 32.8806383,1.61219741 L0.104042553,21.0512301 C0.341489362,20.9099432 0.487021277,20.6133682 0.484468085,20.1933262" mask="url(#bi-crisis-adv-z)"/>
    </g>
    <g transform="translate(31.915 55.037)">
      <mask id="bi-crisis-adv-B" fill="#fff">
        <use xlink:href="#bi-crisis-adv-A"/>
      </mask>
      <path fill="#A3A6AA" d="M0.660893617,20.0641315 L33.438766,0.626371659 C33.6800426,0.48253911 34.0157872,0.497813363 34.3898298,0.707834342 L1.61323404,20.146867 C1.23919149,19.936846 0.902170213,19.9215718 0.660893617,20.0641315" mask="url(#bi-crisis-adv-B)"/>
    </g>
    <g transform="translate(31.915 55.037)">
      <polygon fill="#9A9DA1" points="74.335 140.362 107.113 120.925 109.817 122.445 77.039 141.882"/>
      <path fill="#CED1D5" d="M77.0391064,141.882791 L77.0799574,147.478259 C77.0863404,148.329798 76.4825106,148.672196 75.7357021,148.252154 C74.9888936,147.832112 74.3825106,146.81001 74.3761277,145.958471 L74.3352766,140.363003 L77.0391064,141.882791 Z"/>
      <polygon fill="#A6AAAD" points="77.039 141.883 109.817 122.445 109.858 128.04 77.08 147.478"/>
      <path fill="#CED1D5" d="M6.52531915,22.909343 L6.54829787,25.9896507 L1.63468085,23.2275566 C0.88787234,22.8075146 0.281489362,21.7854125 0.275106383,20.9338729 C0.27,20.0823333 0.864893617,19.7272069 1.61297872,20.1472489 L6.52531915,22.909343 Z"/>
      <polygon fill="#A6AAAD" points="6.525 22.909 39.303 3.47 39.326 6.551 6.548 25.99"/>
      <polygon fill="#9A9DA1" points="1.613 20.147 34.391 .708 39.303 3.47 6.525 22.909"/>
    </g>
    <g transform="translate(130.213 195.05)">
      <mask id="bi-crisis-adv-D" fill="#fff">
        <use xlink:href="#bi-crisis-adv-C"/>
      </mask>
      <path fill="#A3A6AA" d="M1.19387234,20.0654043 L33.9718178,0.627644514 C33.9755745,1.04768647 33.828766,1.3429887 33.5900426,1.48427554 L0.812170213,20.9245811 C1.05089362,20.7820214 1.19642553,20.4854463 1.19387234,20.0654043" mask="url(#bi-crisis-adv-D)"/>
    </g>
    <g transform="translate(31.915 29.58)">
      <mask id="bi-crisis-adv-F" fill="#fff">
        <use xlink:href="#bi-crisis-adv-E"/>
      </mask>
      <path fill="#A3A6AA" d="M0.47387234,19.9932335 L33.2517447,0.554200814 C33.4930213,0.411641119 33.828766,0.426915372 34.2028085,0.636936351 L1.42493617,20.075969 C1.05089362,19.865948 0.715148936,19.8506738 0.47387234,19.9932335" mask="url(#bi-crisis-adv-F)"/>
    </g>
    <g transform="translate(31.915 29.58)">
      <polygon fill="#9A9DA1" points="96.739 178.416 129.516 158.977 132.229 160.502 99.451 179.94"/>
      <polygon fill="#A6AAAD" points="99.451 179.94 132.229 160.503 132.269 166.098 99.491 185.536"/>
      <path fill="#CED1D5" d="M99.4506383 179.940374L99.4914894 185.535842C99.4978723 186.387382 98.8940426 186.72978 98.147234 186.309738 97.4004255 185.889696 96.786383 184.862502 96.78 184.012236L96.7378723 178.416768 99.4506383 179.940374zM6.33765957 22.8379358L6.3606383 25.9271535 1.44829787 23.1650594C.700212766 22.7450175.095106383 21.7140054.0887234043 20.8624658.0823404255 20.012199.678510638 19.6557998 1.42531915 20.0758417L6.33765957 22.8379358z"/>
      <polygon fill="#A6AAAD" points="6.338 22.838 39.116 3.4 39.139 6.488 6.361 25.927"/>
      <polygon fill="#9A9DA1" points="1.425 20.076 34.203 .637 39.115 3.399 6.338 22.838"/>
    </g>
    <g transform="translate(153.191 207.78)">
      <mask id="bi-crisis-adv-H" fill="#fff">
        <use xlink:href="#bi-crisis-adv-G"/>
      </mask>
      <path fill="#A3A6AA" d="M0.618510638,19.9335366 L33.3964561,0.494503942 C33.4002128,0.915818754 33.2534043,1.21112098 33.0146809,1.35240782 L0.236808511,20.7914405 C0.475531915,20.6488808 0.62106383,20.3535786 0.618510638,19.9335366" mask="url(#bi-crisis-adv-H)"/>
    </g>
    <g transform="translate(31.915 4.123)">
      <mask id="bi-crisis-adv-J" fill="#fff">
        <use xlink:href="#bi-crisis-adv-I"/>
      </mask>
      <path fill="#A3A6AA" d="M0.286340426,19.9311182 L33.0642128,0.493358373 C33.306766,0.349525823 33.6425106,0.364800076 34.0165532,0.574821055 L1.23868085,20.0138537 C0.864638298,19.8038328 0.527617021,19.7885585 0.286340426,19.9311182" mask="url(#bi-crisis-adv-J)"/>
    </g>
    <g transform="translate(31.638 4.123)">
      <polygon fill="#A6AAAD" points="122.131 217.994 154.908 198.557 154.949 204.151 122.171 223.59"/>
      <polygon fill="#9A9DA1" points="119.427 216.474 152.204 197.035 154.908 198.556 122.13 217.994"/>
      <path fill="#CED1D5" d="M122.130596,217.994266 L122.171447,223.589734 C122.17783,224.440001 121.574,224.783672 120.827191,224.36363 C120.080383,223.943588 119.474,222.920213 119.467617,222.069946 L119.426766,216.474478 L122.130596,217.994266 Z"/>
      <polygon fill="#A6AAAD" points="6.427 22.776 39.205 3.337 39.228 6.418 6.45 25.857"/>
      <path fill="#CED1D5" d="M6.42723404,22.7763297 L6.45021277,25.8566374 L1.53659574,23.0945433 C0.789787234,22.6745013 0.184680851,21.6523992 0.178297872,20.8008596 C0.171914894,19.9505929 0.768085106,19.5941936 1.51489362,20.0142356 L6.42723404,22.7763297 Z"/>
      <polygon fill="#9A9DA1" points="1.515 20.014 34.293 .575 39.205 3.337 6.427 22.776"/>
      <polygon fill="#C3C6C8" points="9.113 20.703 41.891 1.265 42.854 132.476 10.074 151.915"/>
    </g>
    <g transform="translate(38.298 2.85)">
      <mask id="bi-crisis-adv-L" fill="#fff">
        <use xlink:href="#bi-crisis-adv-K"/>
      </mask>
      <path fill="#BFC2C4" d="M0.126765957,19.5861746 L32.9046383,0.147141971 C33.1484681,0.00330942149 33.4880426,0.0185836745 33.8646383,0.229877508 L1.08548936,19.6689102 C0.710170213,19.4576164 0.370595745,19.4410692 0.126765957,19.5861746" mask="url(#bi-crisis-adv-L)"/>
    </g>
    <path fill="#F2F5F7" d="M39.3838723,22.5187039 C40.1306809,22.9387459 40.7447234,23.9748494 40.7511064,24.8251161 L41.7136596,156.037314 L41.7238723,157.581286 C41.7302553,158.432826 41.1264255,158.784134 40.379617,158.364092 C39.5740851,157.840949 39.018766,156.865942 39.012383,156.056407 L39.0008936,154.512434 L38.8362128,132.073284 L38.8145106,128.992976 L38.6498298,106.553825 L38.6268511,103.464608 L38.4621702,81.0267301 L38.4404681,77.9464224 L38.2757872,55.5072719 L38.2528085,52.4180542 L38.0881277,29.9789037 L38.0651489,26.898596 L38.039617,23.3015094 C38.033234,22.4499698 38.6370638,22.098662 39.3838723,22.5187039"/>
    <g transform="translate(39.298 2.85)">
      <mask id="bi-crisis-adv-N" fill="#fff">
        <use xlink:href="#bi-crisis-adv-M"/>
      </mask>
      <path fill="#BFC2C4" d="M0.086,19.6687829 L32.8638723,0.231023077 C33.6106809,0.649792181 34.226,1.68589568 34.232383,2.53743528 L1.45323404,21.9751951 C1.44685106,21.1249284 0.832808511,20.0888249 0.086,19.6687829" mask="url(#bi-crisis-adv-N)"/>
    </g>
    <g transform="translate(174.894 220.508)">
      <mask id="bi-crisis-adv-P" fill="#fff">
        <use xlink:href="#bi-crisis-adv-O"/>
      </mask>
      <path fill="#A3A6AA" d="M1.32791489,19.8056147 L34.1058604,0.367854927 C34.109617,0.787896885 33.9628085,1.08319911 33.7253617,1.22448595 L0.946212766,20.6635186 C1.18493617,20.5222318 1.33046809,20.2256567 1.32791489,19.8056147" mask="url(#bi-crisis-adv-P)"/>
    </g>
    <g transform="translate(173.34 212.87)">
      <polygon fill="#A6AAAD" points="2.84 21.847 35.618 2.409 35.659 8.004 2.881 27.442"/>
      <path fill="#CED1D5" d="M2.84,21.8466368 L2.88085106,27.4421048 C2.88723404,28.2936444 2.28340426,28.6360423 1.53659574,28.2160003 C0.789787234,27.7959584 0.175744681,26.7687648 0.169361702,25.9172252 L0.127234043,20.3217572 L2.84,21.8466368 Z"/>
      <polygon fill="#9A9DA1" points=".128 20.321 32.906 .884 35.617 2.408 2.841 21.846"/>
    </g>
    <g transform="translate(197.872 233.237)">
      <mask id="bi-crisis-adv-R" fill="#fff">
        <use xlink:href="#bi-crisis-adv-Q"/>
      </mask>
      <path fill="#A3A6AA" d="M0.751914894,19.673747 L33.5310966,0.234714355 C33.533617,0.654756313 33.3868085,0.951331392 33.1493617,1.09261823 L0.371489362,20.5316509 C0.610212766,20.3890912 0.755744681,20.093789 0.751914894,19.673747" mask="url(#bi-crisis-adv-R)"/>
    </g>
    <g transform="translate(195.32 225.6)">
      <path fill="#CED1D5" d="M3.2652766,21.7148964 L3.30485106,27.3103644 C3.31251064,28.1606312 2.70740426,28.503029 1.96187234,28.082987 C1.21506383,27.6642179 0.607404255,26.640843 0.602297872,25.7905762 L0.560170213,20.1951082 L3.2652766,21.7148964 Z"/>
      <polygon fill="#9A9DA1" points=".561 20.195 33.338 .756 36.042 2.275 3.266 21.714"/>
      <polygon fill="#A6AAAD" points="3.265 21.715 36.043 2.276 36.084 7.871 3.305 27.31"/>
    </g>
    <g transform="translate(220.574 245.965)">
      <mask id="bi-crisis-adv-T" fill="#fff">
        <use xlink:href="#bi-crisis-adv-S"/>
      </mask>
      <path fill="#A3A6AA" d="M0.461319149,19.5458252 L33.2405009,0.106792486 C33.2430213,0.528107298 33.0962128,0.823409523 32.858766,0.964696364 L0.080893617,20.403729 C0.319617021,20.2611693 0.465148936,19.9658671 0.461319149,19.5458252" mask="url(#bi-crisis-adv-T)"/>
    </g>
    <g transform="translate(218.021 238.328)">
      <polygon fill="#A6AAAD" points="2.975 21.587 35.752 2.149 35.793 7.743 3.014 27.182"/>
      <polygon fill="#9A9DA1" points=".262 20.062 33.04 .624 35.752 2.149 2.975 21.586"/>
      <path fill="#CED1D5" d="M2.97455319,21.5868472 L3.01412766,27.1823152 C3.02051064,28.032582 2.41668085,28.3762527 1.67114894,27.9562107 C0.92306383,27.5361688 0.309021277,26.5089753 0.302638298,25.6574357 L0.261787234,20.0619676 L2.97455319,21.5868472 Z"/>
    </g>
    <g transform="translate(242.553 258.42)">
      <mask id="bi-crisis-adv-V" fill="#fff">
        <use xlink:href="#bi-crisis-adv-U"/>
      </mask>
      <path fill="#A3A6AA" d="M0.886595745,19.6856663 L33.6645412,0.247906472 C33.6682979,0.66794843 33.5214894,0.964523509 33.282766,1.1045375 L0.504893617,20.544843 C0.743617021,20.4022833 0.889148936,20.1069811 0.886595745,19.6856663" mask="url(#bi-crisis-adv-V)"/>
    </g>
    <polygon fill="#9A9DA1" points="240.695 270.991 273.472 251.552 274.821 252.31 242.043 271.749"/>
    <g transform="translate(241.277 252.057)">
      <mask id="bi-crisis-adv-X" fill="#fff">
        <use xlink:href="#bi-crisis-adv-W"/>
      </mask>
      <path fill="#A3A6AA" d="M0.765702128,19.691776 L33.5448511,0.254016173 C33.9201702,0.465310006 34.2584681,0.480584259 34.5035745,0.335478856 L1.72442553,19.7745115 C1.48187234,19.9196169 1.14229787,19.9030698 0.765702128,19.691776" mask="url(#bi-crisis-adv-X)"/>
    </g>
    <g transform="translate(242.553 251.057)">
      <mask id="bi-crisis-adv-Z" fill="#fff">
        <use xlink:href="#bi-crisis-adv-Y"/>
      </mask>
      <path fill="#BFC2C4" d="M0.834255319,19.9099888 L33.6121277,0.472228989 C33.5853191,0.903726637 33.4321277,1.19775601 33.1997872,1.33522428 L0.420638298,20.7755298 C0.654255319,20.6355158 0.807446809,20.3440322 0.834255319,19.9099888" mask="url(#bi-crisis-adv-Z)"/>
    </g>
    <polygon fill="#A6AAAD" points="243.389 271.216 276.168 251.779 276.218 258.669 243.44 278.106"/>
    <g transform="translate(242.553 251.057)">
      <mask id="bi-crisis-adv-ab" fill="#fff">
        <use xlink:href="#bi-crisis-adv-aa"/>
      </mask>
      <path fill="#A3A6AA" d="M0.830425532,20.031801 L33.6082979,0.594041157 C33.6121277,0.636045353 33.6146809,0.679322403 33.6146809,0.721326599 L0.835531915,20.1603593 C0.835531915,20.1170822 0.832978723,20.075078 0.830425532,20.031801" mask="url(#bi-crisis-adv-ab)"/>
    </g>
    <g transform="translate(40.851 136.5)">
      <path fill="#CED1D5" d="M202.532553,134.588699 C202.535106,134.631976 202.53766,134.67398 202.53766,134.717257 L202.588723,141.607218 C202.595106,142.458757 201.99,142.799882 201.243191,142.379841 C200.496383,141.959799 199.891277,140.937696 199.884894,140.086157 L199.844043,134.491962 L201.190851,135.24931 C201.901915,135.647714 202.481489,135.351138 202.532553,134.588699"/>
      <polygon fill="#B5B7B9" points=".862 19.538 33.64 .099 233.947 112.72 201.169 132.159"/>
    </g>
    <g transform="translate(241.277 248.51)">
      <mask id="bi-crisis-adv-ad" fill="#fff">
        <use xlink:href="#bi-crisis-adv-ac"/>
      </mask>
      <path fill="#BFC2C4" d="M0.743234043,20.148649 L33.522383,0.709616338 C34.2691915,1.1296583 34.8819574,2.16576179 34.8883404,3.0173014 L2.11046809,22.4550612 C2.10408511,21.6047945 1.49004255,20.568691 0.743234043,20.148649" mask="url(#bi-crisis-adv-ad)"/>
    </g>
    <path fill="#F2F5F7" d="M242.01983,268.659473 C242.766638,269.079515 243.380681,270.115618 243.387064,270.965885 C243.33217,271.850519 242.752596,272.147094 242.042809,271.74869 L240.694723,270.991342 L220.995574,259.914963 L218.282809,258.390083 L198.584936,247.313704 L195.87983,245.793916 L176.180681,234.717537 L173.467915,233.192657 L153.768766,222.117551 L151.064936,220.59649 L131.365787,209.520111 L128.653021,207.996504 L108.953872,196.920125 L106.250043,195.399064 L86.5508936,184.323958 L83.8381277,182.799078 L64.1402553,171.722699 L61.4351489,170.201638 L41.736,159.126532 L40.3802553,158.364092 C41.1270638,158.784134 41.7308936,158.432826 41.7245106,157.581286 L41.7130213,156.038587 L242.01983,268.659473 Z"/>
    <polygon fill="#211935" points="60.103 19.132 63.647 17.031 108.906 74.275 105.363 76.376"/>
    <polygon fill="#211935" points="127.585 63.116 131.129 61.015 160.321 107.189 156.777 109.29"/>
    <polygon fill="#211935" points="156.777 109.291 160.32 107.189 219.028 175.505 215.485 177.605"/>
    <polygon fill="#211935" points="215.484 177.606 219.028 175.505 265.84 173.003 262.296 175.103"/>
    <polygon fill="#211935" points="262.296 175.103 265.84 173.003 266.427 253.231 262.884 255.333"/>
    <polygon fill="#31284D" points="60.103 19.132 105.363 76.376 127.585 63.117 156.777 109.291 215.484 177.605 262.295 175.104 262.884 255.333 61.003 141.825"/>
    <polygon fill="#8C1943" points="55.109 27.803 58.653 25.701 128.373 123.457 124.829 125.559"/>
    <polygon fill="#8C1943" points="124.829 125.559 128.372 123.458 164.648 111.246 161.106 113.347"/>
    <polygon fill="#8C1943" points="161.105 113.347 164.648 111.245 179.723 177.641 176.18 179.744"/>
    <polygon fill="#8C1943" points="212.56 168.512 216.103 166.41 237.969 210.39 234.425 212.493"/>
    <polygon fill="#8C1943" points="190.619 96.579 194.163 94.477 216.104 166.41 212.56 168.511"/>
    <polygon fill="#8C1943" points="257.102 156.562 260.646 154.462 261.397 256.806 257.853 258.906"/>
    <polygon fill="#B63665" points="190.619 96.579 212.56 168.511 234.424 212.492 257.102 156.562 257.853 258.907 55.97 145.399 55.109 27.802 124.829 125.559 161.104 113.347 176.18 179.743"/>
    <polygon fill="#491A4D" points="48.976 46.952 52.519 44.85 76.209 126.849 72.665 128.949"/>
    <polygon fill="#499EC5" points="118.217 162.142 121.761 160.041 142.477 191.777 138.934 193.88"/>
    <polygon fill="#491A4D" points="95.72 111.359 99.264 109.257 121.761 160.04 118.217 162.142"/>
    <polygon fill="#491A4D" points="138.933 193.879 142.477 191.778 184.14 174.203 180.596 176.305"/>
    <polygon fill="#491A4D" points="180.597 176.305 184.139 174.204 223.285 227.899 219.742 230.001"/>
    <polygon fill="#491A4D" points="219.742 230 223.284 227.9 254.963 234.934 251.419 237.034"/>
    <polygon fill="#491A4D" points="251.42 237.035 254.962 234.934 255.153 260.702 251.607 262.803"/>
    <polygon fill="#672E6C" points="48.976 46.952 72.665 128.949 95.72 111.359 118.218 162.142 138.933 193.88 180.597 176.305 219.742 230.001 251.42 237.035 251.608 262.803 49.726 149.295"/>
    <polygon fill="#131650" points="43.353 132.941 46.895 130.84 92.038 170.987 88.496 173.087"/>
    <polygon fill="#131650" points="132.616 184.151 136.16 182.051 159.247 207.485 155.703 209.586"/>
    <polygon fill="#131650" points="110.518 133.768 114.062 131.666 136.16 182.051 132.616 184.151"/>
    <polygon fill="#131650" points="155.704 209.586 159.248 207.486 181.121 203.957 177.577 206.059"/>
    <polygon fill="#131650" points="177.577 206.06 181.12 203.958 226.484 246.577 222.939 248.679"/>
    <polygon fill="#131650" points="245.012 216.073 248.554 213.973 248.918 263.464 245.374 265.567"/>
    <polygon fill="#212670" points="110.518 133.768 132.616 184.151 155.704 209.586 177.576 206.06 222.939 248.679 245.012 216.073 245.375 265.567 43.493 152.059 43.352 132.942 88.495 173.088"/>
    <g fill="#616364" transform="translate(5.106 29.58)">
      <path d="M1.97310638 2.2907561C1.97182979 2.80371643 2.1492766 3.31794961 2.5067234 3.8321828 2.86544681 4.337506 3.36204255 4.77409507 3.99012766 5.13558572 4.61693617 5.49707638 5.11480851 5.6332718 5.47480851 5.54035343 5.84246809 5.44361649 6.02246809 5.14576856 6.02374468 4.63153537 6.02502128 4.10839221 5.8386383 3.59034046 5.47353191 3.07101586 5.09948936 2.55550982 4.61055319 2.12528502 3.99906383 1.77270435 3.37097872 1.41248655 2.88204255 1.28010969 2.52331915 1.37175521 2.15565957 1.46849214 1.97438298 1.77652291 1.97310638 2.2907561M5.67395745 10.1264479C6.08246809 10.0157096 6.2867234 9.67585743 6.288 9.09670867 6.29055319 8.51755991 6.08757447 7.94222971 5.68161702 7.38090092 5.27438298 6.81066214 4.70502128 6.31424891 3.98757447 5.90057123 3.27012766 5.4881664 2.70714894 5.33287816 2.2986383 5.43343366 1.89012766 5.52635203 1.68459574 5.86620416 1.68331915 6.44535292 1.68204255 7.03341166 1.88502128 7.60874186 2.28331915 8.17516207 2.6892766 8.74540085 3.25097872 9.23799551 3.9773617 9.65549176 4.69353191 10.0678966 5.26544681 10.2282762 5.67395745 10.1264479M6.74119149 7.9536854C7.01693617 8.50610422 7.15480851 9.05215877 7.15225532 9.61221471 7.15097872 10.1544507 7.01948936 10.5553998 6.76544681 10.8112436 6.50374468 11.0632687 6.13608511 11.1689157 5.66246809 11.1116372 5.18119149 11.0492673 4.61821277 10.8379735 3.97480851 10.4675729 2.99693617 9.90369837 2.22331915 9.21508413 1.67055319 8.42082298 1.10885106 7.61128757.825446809 6.79284217.828 5.97185107.829276596 5.41179513.969702128 5.01466455 1.23906383 4.77791363 1.50970213 4.54879983 1.90161702 4.48515711 2.41608511 4.58443976 1.99225532 4.15294211 1.67565957 3.69980594 1.45608511 3.21866697 1.24544681 2.74134656 1.13182979 2.26402615 1.13310638 1.77906862 1.13565957 1.0229931 1.3986383.574948341 1.91310638.422205811 2.43523404.274554698 3.12970213.448935753 4.00161702.951713249 4.57225532 1.28010969 5.07778723 1.6734217 5.5092766 2.12783073 5.93948936 2.57205692 6.27395745 3.05446875 6.51651064 3.56870193 6.75268085 4.0778437 6.87268085 4.58825832 6.87140426 5.08212584 6.87012766 5.56835622 6.75523404 5.91329977 6.53438298 6.14114071 6.30459574 6.36516309 5.97778723 6.44789863 5.56161702 6.3957116 6.07480851 6.8870334 6.46544681 7.40253944 6.74119149 7.9536854M13.6731064 13.3853371C13.8697021 12.9181995 13.9782128 12.2881366 13.980766 11.4671455 13.9833191 10.6448815 13.8786383 9.88371456 13.6845957 9.19255461 13.4828936 8.49630324 13.1982128 7.89297025 12.840766 7.38764704 12.4833191 6.872141 12.0594894 6.47882899 11.5871489 6.20643814 11.1148085 5.9340473 10.6986383 5.84494749 10.3309787 5.94168442 9.97097872 6.0346028 9.68374468 6.3082665 9.48714894 6.77540407 9.28161702 7.23745022 9.17438298 7.87642314 9.17182979 8.69868709 9.1692766 9.51967819 9.27395745 10.2719352 9.47565957 10.9681865 9.66970213 11.6606193 9.95310638 12.2728623 10.3118298 12.7781855 10.6769362 13.2975101 11.0931064 13.6857307 11.5654468 13.9581216 12.0377872 14.2305124 12.461617 14.3247036 12.821617 14.2228753 13.181617 14.1299569 13.4675745 13.8461104 13.6731064 13.3853371M14.4275745 9.1900089C14.7109787 10.063187 14.8475745 10.9936436 14.8437447 11.9635587 14.8424681 12.9347466 14.700766 13.6959135 14.4135319 14.2508781 14.1339574 14.810934 13.7420426 15.1355119 13.2518298 15.2373402 12.7526809 15.3340772 12.1897021 15.1966089 11.5628936 14.8363911 10.9348085 14.4749004 10.3731064 13.9644858 9.87651064 13.2949644 9.38885106 12.6305344 9.00714894 11.8591846 8.73268085 10.9809151 8.45821277 10.1013727 8.32161702 9.18109892 8.32417021 8.21118385 8.3267234 7.23872308 8.46714894 6.46864615 8.7467234 5.91877305 9.02629787 5.3587171 9.41055319 5.02904781 9.90076596 4.92721945 10.3999149 4.83048252 10.961617 4.95776796 11.5897021 5.32053147 12.2165106 5.68074927 12.7794894 6.20134673 13.2748085 6.8695953 13.7624681 7.5340253 14.1518298 8.3104665 14.4275745 9.1900089M23.6858298 20.6831206C23.9066809 20.4552796 24.0228511 20.0543305 24.0241277 19.4560889 24.0254043 18.8578473 23.9130638 18.3168842 23.6934894 17.8446552 23.4662553 17.3673348 23.1573191 17.0122084 22.7743404 16.7907318 22.3913617 16.570528 22.0811489 16.570528 21.8513617 16.7843675 21.6228511 16.9892971 21.5066809 17.3991562 21.5054043 18.0063077 21.5041277 18.6134593 21.6164681 19.1556953 21.8437021 19.6228329 22.0709362 20.1001533 22.3811489 20.4463697 22.7628511 20.6665735 23.1471064 20.8880501 23.4560426 20.8969601 23.6858298 20.6831206M24.102 17.6588185C24.4441277 18.3232485 24.6126383 19.0385927 24.6113617 19.7946682 24.6088085 20.5507437 24.4351915 21.0687955 24.0917872 21.3386406 23.7573191 21.6123043 23.3079574 21.5881201 22.7615745 21.273725 22.2151915 20.95933 21.7760426 20.4718268 21.4351915 19.8086696 21.0943404 19.1442396 20.9245532 18.4288954 20.9271064 17.6728199 20.928383 16.9167444 21.102 16.3986926 21.4454043 16.1288475 21.7888085 15.8590023 22.229234 15.879368 22.775617 16.1937631 23.322 16.5081581 23.7700851 16.9994799 24.102 17.6588185M16.8514468 12.3244129C17.0710213 12.8055519 17.3799574 13.1530411 17.7718723 13.3783364 18.1548511 13.5985402 18.4561277 13.6036316 18.6859149 13.3897921 18.9144255 13.1759525 19.0305957 12.7750034 19.0318723 12.166579 19.0331489 11.5607003 18.9208085 11.0184643 18.6935745 10.5411439 18.4663404 10.0740063 18.1650638 9.72269847 17.7820851 9.50249466 17.3914468 9.27719943 17.081234 9.27592657 16.8591064 9.49485753 16.6305957 9.70869708 16.5144255 10.1198291 16.5131489 10.7167978 16.5118723 11.3150394 16.6242128 11.8470925 16.8514468 12.3244129M19.0995319 14.0491306C18.7561277 14.3189758 18.3157021 14.299883 17.7693191 13.9854879 17.2152766 13.6660015 16.7684681 13.1734068 16.4352766 12.5064311 16.1020851 11.8470925 15.9322979 11.1406583 15.9348511 10.3845828 15.9374043 9.62723439 16.1097447 9.1104555 16.4454894 8.83551894 16.781234 8.56058239 17.2293191 8.58476662 17.7833617 8.90425308 18.3297447 9.21992098 18.7688936 9.70615137 19.1110213 10.3603985 19.4518723 11.0248285 19.620383 11.7401727 19.6178298 12.5051582 19.6165532 13.2714166 19.4442128 13.7881955 19.0995319 14.0491306"/>
      <polygon points="22.731 11.818 23.416 12.213 17.814 18.361 17.13 17.966"/>
    </g>
    <polygon fill="#616364" points=".002 0 0 .859 1.924 1.965 1.899 10.465 2.739 10.946 2.766 1.591"/>
    <g fill="#616364" transform="translate(3.83 3.85)">
      <path d="M6.21919149 8.72460776C6.41706383 8.25747018 6.52429787 7.61849727 6.52685106 6.79623331 6.52940426 5.97524221 6.4247234 5.21407527 6.23068085 4.52164247 6.02897872 3.8253911 5.74429787 3.22205811 5.38685106 2.7167349 5.02174468 2.19868315 4.60557447 1.8091897 4.13323404 1.53679886 3.66089362 1.26568086 3.2447234 1.1753082 2.87706383 1.27204514 2.51706383 1.36496351 2.23110638 1.63990006 2.02557447 2.10067336 1.82897872 2.56781093 1.72046809 3.20678385 1.71791489 4.02904781 1.7153617 4.85003891 1.82004255 5.61120585 2.01408511 6.30363865 2.21578723 6.99989002 2.49919149 7.60322301 2.85791489 8.10854622 3.22302128 8.62787082 3.63919149 9.01609142 4.11153191 9.28848226 4.58387234 9.56087311 5.00004255 9.64997292 5.36770213 9.55323598 5.72770213 9.46159046 6.01365957 9.18665391 6.21919149 8.72460776M6.97365957 4.51909676C7.24940426 5.39863916 7.39365957 6.32273147 7.39110638 7.29391939 7.38855319 8.26510731 7.23919149 9.02118284 6.95961702 9.58123878 6.68004255 10.1400219 6.28812766 10.4658726 5.79791489 10.567701 5.30004255 10.6644379 4.73578723 10.5282425 4.10897872 10.165479 3.48089362 9.80526116 2.91919149 9.29357368 2.42387234 8.62532511 1.93621277 7.9608951 1.54557447 7.18445391 1.27876596 6.31127578 1.00429787 5.43173338.867702128 4.51145963.870255319 3.54027171.872808511 2.56908379 1.01451064 1.80791685 1.29280851 1.24913376 1.5647234.68525925 1.9566383.359408519 2.44685106.257580165 2.946.160843229 3.50770213.298311507 4.13578723.659802161 4.76387234 1.02001996 5.32557447 1.53170744 5.82089362 2.19995601 6.30982979 2.86438601 6.69919149 3.64082721 6.97365957 4.51909676M13.938 13.167888C14.1345957 12.7020232 14.2431064 12.0617775 14.2456596 11.2407864 14.2482128 10.4185224 14.1435319 9.65735547 13.9494894 8.96619552 13.7477872 8.2686713 13.4631064 7.66661116 13.1056596 7.16128796 12.7482128 6.64578192 12.324383 6.2524699 11.8520426 5.98135191 11.3797021 5.70896107 10.9635319 5.6185884 10.5958723 5.71659819 10.2358723 5.80824371 9.9486383 6.08318027 9.75204255 6.54904498 9.54651064 7.01109114 9.4392766 7.65006406 9.4367234 8.47232801 9.43417021 9.29459196 9.53885106 10.0557589 9.74055319 10.7520103 9.93459574 11.4431702 10.218 12.0465032 10.5767234 12.5518264 10.9418298 13.071151 11.358 13.4593716 11.8303404 13.7317625 12.3026809 14.0041533 12.7265106 14.0983445 13.0865106 13.9965162 13.4465106 13.9048707 13.7324681 13.6299341 13.938 13.167888M14.6924681 8.96364982C14.9758723 9.84701078 15.1124681 10.7672845 15.1086383 11.7371996 15.1073617 12.7096604 14.9656596 13.4695545 14.6784255 14.024519 14.3988511 14.5845749 14.0069362 14.9104257 13.5167234 15.0109812 13.0175745 15.1077181 12.4545957 14.9715227 11.8277872 14.610032 11.1997021 14.2485414 10.638 13.7381267 10.1414043 13.0686053 9.65374468 12.4041753 9.27204255 11.6328255 8.99757447 10.754556 8.72310638 9.87628643 8.58651064 8.95473983 8.58906383 7.98355191 8.59161702 7.01363685 8.73204255 6.2524699 9.01161702 5.69241396 9.29119149 5.13363087 9.67544681 4.80268872 10.1656596 4.70086037 10.6648085 4.60412343 11.2265106 4.74159171 11.8545957 5.10308236 12.4814043 5.46457302 13.044383 5.97498764 13.5397021 6.64450907 14.0273617 7.30766622 14.418 8.08410741 14.6924681 8.96364982M23.9507234 20.4568888C24.1715745 20.2290478 24.2877447 19.8280987 24.2890213 19.2298571 24.2902979 18.6316155 24.1779574 18.0995624 23.958383 17.6184234 23.7311489 17.141103 23.4222128 16.7948866 23.039234 16.5746828 22.6562553 16.3532061 22.3460426 16.3442962 22.1162553 16.5581357 21.8877447 16.7630653 21.7715745 17.1729244 21.7702979 17.7800759 21.7690213 18.3872275 21.8813617 18.9294635 22.1085957 19.3966011 22.3358298 19.8739215 22.6460426 20.2201379 23.0277447 20.4403417 23.412 20.6605455 23.7209362 20.6707283 23.9507234 20.4568888M24.3681702 17.4325867C24.7090213 18.0970167 24.8775319 18.811088 24.8762553 19.5671635 24.8737021 20.3245119 24.7000851 20.8425637 24.3566809 21.1124088 24.0222128 21.3860725 23.5728511 21.3618883 23.0264681 21.0474932 22.4800851 20.7330982 22.0332766 20.2417764 21.6911489 19.5773464 21.3502979 18.9141892 21.1894468 18.2026636 21.192 17.4465881 21.1932766 16.6905126 21.359234 16.1673694 21.7026383 15.8975243 22.0460426 15.628952 22.4941277 15.6531362 23.0405106 15.9675313 23.5868936 16.2819263 24.0349787 16.7732481 24.3681702 17.4325867M17.1164681 12.1074729C17.3360426 12.5797019 17.6449787 12.9259183 18.0368936 13.1512136 18.4109362 13.3675988 18.7211489 13.3777817 18.9509362 13.1639421 19.1794468 12.9577397 19.295617 12.5478806 19.2968936 11.940729 19.2981702 11.3335775 19.1858298 10.7913415 18.9585957 10.3242039 18.7313617 9.84815635 18.4224255 9.49175711 18.0471064 9.27537186 17.6564681 9.05134949 17.3462553 9.05007663 17.1241277 9.26900759 16.895617 9.48284713 16.7794468 9.89397911 16.7781702 10.4909478 16.7768936 11.0891894 16.889234 11.6212426 17.1164681 12.1074729M19.3645532 13.8232807C19.0211489 14.0931258 18.5807234 14.0727602 18.0343404 13.7583651 17.4802979 13.4388787 17.0334894 12.9475569 16.7002979 12.2882183 16.3594468 11.6250611 16.1973191 10.9148084 16.1998723 10.15746 16.2024255 9.40138445 16.3671064 8.87951414 16.7105106 8.60839615 17.0462553 8.33473245 17.4943404 8.35891668 18.048383 8.67840314 18.594766 8.99279818 19.0339149 9.48030142 19.3760426 10.1345486 19.7168936 10.7977057 19.8854043 11.5130499 19.8841277 12.2793083 19.8815745 13.0442938 19.709234 13.5623455 19.3645532 13.8232807"/>
      <polygon points="22.988 11.587 23.681 11.986 18.079 18.134 17.395 17.739"/>
      <path d="M7.32382979 62.0104941C7.69148936 61.8564787 7.88042553 61.4708039 7.88170213 60.8534695 7.88425532 60.2374079 7.69787234 59.6442578 7.33148936 59.0689276 6.9587234 58.488506 6.46212766 58.0150041 5.83404255 57.6547863 5.41787234 57.4154897 5.05914894 57.3022056 4.7412766 57.2958414 4.42340426 57.2907499 4.17829787 57.3925783 3.99702128 57.5975079 3.81702128 57.8126203 3.72638298 58.1066496 3.72510638 58.488506 3.72510638 58.8436323 3.81319149 59.2229429 3.97531915 59.6238921 4.14510638 60.0222955 4.38893617 60.4143347 4.71574468 60.7898267 5.04 61.1627731 5.43191489 61.4822595 5.88 61.740649 6.46723404 62.0779554 6.94851064 62.1683281 7.32382979 62.0104941M8.35914894 59.6226192C8.59404255 60.1788566 8.70638298 60.7389126 8.70638298 61.2989685 8.70382979 61.8692073 8.58 62.3032506 8.34255319 62.60619 8.09617021 62.9040379 7.76170213 63.0478705 7.34553191 63.0427791 6.92170213 63.0313234 6.44042553 62.8760351 5.9106383 62.5705501 4.83446809 61.9519428 4.00340426 61.0622176 3.43531915 59.92174 2.85957447 58.776171 2.57744681 57.4536753 2.5812766 55.9682542 2.58510638 54.9232407 2.74212766 54.134071 3.05361702 53.5931079 3.36510638 53.0521447 3.79914894 52.7504782 4.36212766 52.7097469 4.92638298 52.6601056 5.5787234 52.848488 6.32042553 53.2761671 7.13489362 53.7445775 7.77829787 54.2842678 8.25829787 54.9054208L7.91361702 55.4845695C7.53191489 54.9652449 7.00212766 54.509563 6.33446809 54.125161 5.4293617 53.6045635 4.71829787 53.5231009 4.21148936 53.8858644 3.69702128 54.2537193 3.43276596 55.0467076 3.43021277 56.2979235 3.42893617 56.5219459 3.44425532 56.7841539 3.45957447 57.0730918 3.66510638 56.6861441 3.99191489 56.4812145 4.43361702 56.4544846 4.87404255 56.4277546 5.38851064 56.5830429 5.96680851 56.9165307 6.49659574 57.2220158 6.97787234 57.6102364 7.39276596 58.0837382 7.80638298 58.5559672 8.13191489 59.0702004 8.35914894 59.6226192M15.0294894 65.155972C15.2273617 64.6888344 15.3345957 64.0498615 15.3371489 63.2275975 15.3397021 62.4155164 15.2362979 61.6543495 15.0409787 60.9631895 14.8392766 60.2669381 14.5558723 59.6636051 14.1984255 59.1480991 13.8397021 58.6427759 13.4158723 58.2494639 12.9435319 57.977073 12.4711915 57.7046822 12.0550213 57.6155824 11.6873617 57.7034093 11.3286383 57.8052377 11.0414043 58.0801743 10.8435319 58.546039 10.6392766 59.0080851 10.530766 59.647058 10.5282128 60.460412 10.5256596 61.2814031 10.6303404 62.0425701 10.8320426 62.7400943 11.0260851 63.4312542 11.3094894 64.0345872 11.6682128 64.5488204 12.0333191 65.0579622 12.4494894 65.4474556 12.9218298 65.7198465 13.3941702 65.9922373 13.8192766 66.0864285 14.178 65.9935102 14.538 65.8916818 14.8239574 65.6167453 15.0294894 65.155972M15.7839574 60.950461C16.0673617 61.8338219 16.2039574 62.7642785 16.2014043 63.7252836 16.1988511 64.6964715 16.0571489 65.4665484 15.7699149 66.021513 15.491617 66.5713861 15.0984255 66.8972368 14.6082128 66.9990652 14.1103404 67.0958021 13.5473617 66.9672438 12.9192766 66.607026 12.2911915 66.2455353 11.730766 65.7249379 11.2341702 65.0566893 10.7465106 64.3922593 10.3648085 63.6196367 10.0890638 62.75155 9.81459574 61.8720076 9.678 60.9428238 9.68055319 59.9716359 9.68438298 59.009358 9.82480851 58.2392811 10.104383 57.680498 10.3826809 57.129352 10.7669362 56.7996827 11.2571489 56.6978544 11.7562979 56.6011174 12.318 56.7296757 12.9460851 57.0911664 13.5741702 57.4513842 14.1358723 57.9719816 14.6311915 58.6402302 15.1201277 59.3046602 15.5094894 60.0811014 15.7839574 60.950461M25.0422128 72.4451001C25.2630638 72.2261691 25.379234 71.8150371 25.3805106 71.2269784 25.3830638 70.6287368 25.2694468 70.0865008 25.0498723 69.6155447 24.8239149 69.1382243 24.5137021 68.7830979 24.1307234 68.5616212 23.7477447 68.3414174 23.4375319 68.3312346 23.2077447 68.5450741 22.979234 68.7589137 22.8630638 69.1700457 22.8617872 69.7771972 22.8605106 70.3754388 22.9728511 70.9164019 23.2000851 71.3937223 23.4273191 71.8710427 23.7375319 72.2172591 24.1205106 72.4374629 24.5034894 72.6576668 24.8137021 72.6589396 25.0422128 72.4451001M25.4596596 69.429708C25.8005106 70.0928651 25.9702979 70.7992993 25.9677447 71.5655577 25.9651915 72.3216332 25.7928511 72.8295021 25.4481702 73.0993472 25.1137021 73.3742838 24.6643404 73.3488267 24.1179574 73.0344317 23.5728511 72.7213095 23.124766 72.2299877 22.7839149 71.5655577 22.4430638 70.9011277 22.2809362 70.1997849 22.2834894 69.4437094 22.2860426 68.6787239 22.4507234 68.1644907 22.7941277 67.8946455 23.1375319 67.6248004 23.5868936 67.6502575 24.1332766 67.9633797 24.678383 68.2790476 25.1264681 68.7703694 25.4596596 69.429708M18.2084681 64.0956842C18.426766 64.5679132 18.7369787 64.9230396 19.127617 65.1483348 19.5029362 65.3647201 19.8131489 65.3749029 20.0429362 65.1597905 20.2714468 64.945951 20.387617 64.5360919 20.3888936 63.9289403 20.3901702 63.3306987 20.2778298 62.7897356 20.0505957 62.3124152 19.8233617 61.8350948 19.5131489 61.4888784 19.1391064 61.2724931 18.7471915 61.0471979 18.4369787 61.0471979 18.2161277 61.2661289 17.987617 61.4799684 17.8714468 61.8911004 17.8701702 62.4791591 17.8688936 63.0761278 17.981234 63.6183638 18.2084681 64.0956842M20.4565532 65.8191291C20.1131489 66.0813371 19.6727234 66.0609715 19.1263404 65.7465764 18.5722979 65.42709 18.1242128 64.9357682 17.7910213 64.2764296 17.4501702 63.6119996 17.2893191 62.9030196 17.2918723 62.1456713 17.2931489 61.3895957 17.4591064 60.8766354 17.8025106 60.6067903 18.1369787 60.3318537 18.5863404 60.356038 19.140383 60.6755244 19.686766 60.9899195 20.1259149 61.4672399 20.4680426 62.1316699 20.8088936 62.7960999 20.9774043 63.5012612 20.9748511 64.2662467 20.9735745 65.0325051 20.7999574 65.5505568 20.4565532 65.8191291"/>
      <polygon points="24.08 63.584 24.772 63.983 19.171 70.122 18.487 69.727"/>
    </g>
    <polygon fill="#616364" points="10.778 84.019 6.589 87.658 10.134 89.7 10.14 87.533 10.954 88.002 10.948 90.17 12.587 91.113 12.585 91.972 10.946 91.027 10.939 93.484 10.1 93.002 10.107 90.545 5.502 87.894 5.503 87.194 9.849 83.484"/>
    <g fill="#616364" transform="translate(6.383 86.858)">
      <path d="M12.3229787 8.51514149C12.5195745 8.04927677 12.6280851 7.409031 12.6306383 6.5880399 12.6331915 5.76577594 12.5285106 5.004609 12.3344681 4.31344905 12.132766 3.61719769 11.8480851 3.01386469 11.4906383 2.50854149 11.1331915 1.99303545 10.7093617 1.59972343 10.2370213 1.32860544 9.76468085 1.0562146 9.34851064.965841933 8.98085106 1.06385172 8.62085106 1.15549724 8.33489362 1.4304338 8.13702128 1.89629851 7.93276596 2.35834467 7.82425532 2.99731758 7.82170213 3.81958154 7.81914894 4.64184549 7.92382979 5.40301243 8.12553191 6.0992638 8.31957447 6.79042375 8.60297872 7.39375675 8.96170213 7.89907995 9.32680851 8.41840455 9.74297872 8.80662515 10.2153191 9.07901599 10.6876596 9.35140684 11.1114894 9.44559807 11.4714894 9.34376971 11.8314894 9.2521242 12.1174468 8.97718764 12.3229787 8.51514149M13.0774468 4.31090334C13.3608511 5.19426431 13.4974468 6.11453805 13.493617 7.08445312 13.4923404 8.0569139 13.3506383 8.81680798 13.0634043 9.37177251 12.7838298 9.93182846 12.3919149 10.2576792 11.9017021 10.3582347 11.4025532 10.4549716 10.8395745 10.3187762 10.212766 9.95728554 9.58468085 9.59579489 9.02297872 9.08538027 8.52638298 8.41585884 8.04 7.75142884 7.65829787 6.98007906 7.38255319 6.10180951 7.10808511 5.22353996 6.97148936 4.30199336 6.97404255 3.33080544 6.97659574 2.36089038 7.11702128 1.59972343 7.39659574 1.03966749 7.67617021.480884399 8.06042553.14994225 8.5506383.0493867514 9.04978723-.0486230388 9.61148936.0888452384 10.2395745.450335893 10.866383.811826548 11.4293617 1.32224117 11.9246809 1.99176259 12.4123404 2.65491975 12.8029787 3.43136094 13.0774468 4.31090334M15.5019574 7.45485376C15.7202553 7.92708275 16.0304681 8.274572 16.4211064 8.49859438 16.8040851 8.72007105 17.1066383 8.72516247 17.3364255 8.51132292 17.5649362 8.30639336 17.6798298 7.89526139 17.682383 7.28810983 17.6836596 6.68223113 17.5713191 6.13999514 17.3428085 5.67158472 17.1168511 5.19553716 16.8155745 4.85313933 16.4325957 4.63293551 16.0406809 4.40764028 15.7304681 4.39745744 15.509617 4.6163884 15.2811064 4.83913793 15.1649362 5.24135992 15.1636596 5.83832865 15.1611064 6.43657022 15.2747234 6.96862337 15.5019574 7.45485376M17.7500426 9.17066151C17.4066383 9.44050665 16.9649362 9.42014098 16.4198298 9.10574594 15.8657872 8.78625948 15.4177021 8.29493767 15.0845106 7.63559908 14.7525957 6.97753335 14.5828085 6.26218917 14.5840851 5.50484079 14.5866383 4.74876526 14.7589787 4.23071352 15.0947234 3.95577696 15.4304681 3.68211326 15.8798298 3.7062975 16.4338723 4.02578395 16.9802553 4.340179 17.4194043 4.82768224 17.7602553 5.49083939 18.1011064 6.14508656 18.2708936 6.86043074 18.2683404 7.6266891 18.2670638 8.39167461 18.0934468 8.90972636 17.7500426 9.17066151"/>
      <polygon points="21.381 6.939 22.066 7.334 16.464 13.482 15.78 13.087"/>
      <path d="M22.3355745 15.8042696C22.5564255 15.5853386 22.6725957 15.1754795 22.6738723 14.5772379 22.6751489 13.9789964 22.5628085 13.4469432 22.343234 12.9658042 22.116 12.4884838 21.8070638 12.1422674 21.4240851 11.9220636 21.0411064 11.700587 20.7308936 11.691677 20.5011064 11.9055165 20.2725957 12.1104461 20.1564255 12.5203052 20.1551489 13.1274568 20.1538723 13.7346083 20.2662128 14.2768443 20.4934468 14.7439819 20.7206809 15.2213023 21.0308936 15.5764287 21.4125957 15.7979053 21.7968511 16.0168363 22.1057872 16.0181091 22.3355745 15.8042696M22.7530213 12.7799675C23.0938723 13.4443975 23.2636596 14.1584688 23.2611064 14.9158172 23.2585532 15.6718927 23.0849362 16.1899445 22.7415319 16.4597896 22.4070638 16.7334533 21.9577021 16.7092691 21.4113191 16.394874 20.8649362 16.080479 20.4257872 15.5929758 20.0849362 14.9298186 19.7440851 14.2653886 19.5742979 13.5500444 19.5768511 12.7939689 19.5781277 12.0378934 19.7517447 11.5198416 20.0951489 11.2499965 20.4385532 10.9801514 20.8789787 11.000517 21.4266383 11.3149121 21.9717447 11.6293071 22.4198298 12.1206289 22.7530213 12.7799675M3.08259574 20.8590291C3.91365957 21.3376223 4.57365957 21.9422282 5.06131915 22.6715738 5.54131915 23.4060108 5.78387234 24.1633591 5.78131915 24.9474375 5.78004255 25.423485 5.68940426 25.8397084 5.50046809 26.1706506 5.31153191 26.5105027 4.96046809 26.822352 4.43706383 27.1011071L1.64770213 28.6298053 6.14004255 31.2149726 6.13748936 32.0652394.406851064 28.7660007.409404255 28.0850236 3.81919149 26.2406575C4.24429787 25.9988152 4.53791489 25.7569729 4.686 25.4858549 4.84174468 25.2211012 4.91706383 24.907979 4.91706383 24.5528526 4.91834043 24.0017066 4.75748936 23.4785635 4.42429787 22.9783317 4.09876596 22.4819184 3.62642553 22.0606036 3.01493617 21.708023 2.05365957 21.1543313 1.31068085 21.0728686.778340426 21.4598164L.184723404 20.5293598C.50387234 20.291336.912382979 20.1895076 1.41025532 20.2429675 1.90046809 20.300246 2.46344681 20.5026298 3.08259574 20.8590291M12.5018298 33.1475475C12.6984255 32.6804099 12.8069362 32.041437 12.8094894 31.2293559 12.8120426 30.4070919 12.7073617 29.645925 12.5133191 28.954765 12.311617 28.2585137 12.0269362 27.6551807 11.6694894 27.1396746 11.3120426 26.6343514 10.8882128 26.2410394 10.4158723 25.9686486 9.94353191 25.6962577 9.52608511 25.6071579 9.15842553 25.6949849 8.79970213 25.7968132 8.51246809 26.0704769 8.31587234 26.5376145 8.11034043 26.9996606 8.00310638 27.6386336 8.00055319 28.4608975 7.998 29.2729786 8.10140426 30.0341456 8.30438298 30.7303969 8.49842553 31.4228297 8.78182979 32.0261627 9.1392766 32.5403959 9.50565957 33.0495377 9.92182979 33.4390311 10.3941702 33.711422 10.8665106 33.9838128 11.2903404 34.0780041 11.6503404 33.9850857 12.0090638 33.8832573 12.2962979 33.6083208 12.5018298 33.1475475M13.2562979 28.9420365C13.5397021 29.8253974 13.6750213 30.755854 13.6724681 31.7257691 13.6711915 32.696957 13.5294894 33.458124 13.2422553 34.0130885 12.9626809 34.5629616 12.570766 34.8888123 12.0792766 34.9906407 11.5814043 35.0873776 11.0184255 34.9588193 10.391617 34.5986015 9.76353191 34.2371109 9.20182979 33.7165134 8.70523404 33.0482648 8.21757447 32.3838348 7.83587234 31.6112122 7.56140426 30.7431255 7.28565957 29.8635831 7.15034043 28.9433093 7.15289362 27.9733943 7.15544681 27.0009335 7.29587234 26.2308566 7.57544681 25.6720735 7.85502128 25.1209275 8.2392766 24.7912582 8.72948936 24.6894299 9.2273617 24.5926929 9.79034043 24.7199784 10.4184255 25.0827419 11.045234 25.4429597 11.6069362 25.9635571 12.1035319 26.6318057 12.5911915 27.2962357 12.9805532 28.0726769 13.2562979 28.9420365"/>
      <polygon points="21.56 31.581 22.245 31.975 16.642 38.113 15.958 37.718"/>
      <path d="M22.5145532 40.4360392C22.7354043 40.2171082 22.8502979 39.8161591 22.8528511 39.2191903 22.8541277 38.6209488 22.7417872 38.0787128 22.5222128 37.6064838 22.2949787 37.1291634 21.9860426 36.774037 21.6030638 36.5538332 21.2200851 36.3323565 20.9098723 36.3323565 20.6800851 36.5372861 20.4515745 36.7511256 20.3354043 37.1609847 20.3341277 37.7681363 20.3328511 38.3752879 20.4451915 38.9086139 20.6724255 39.3859343 20.8996596 39.8619818 21.2085957 40.2081982 21.5915745 40.428402 21.9745532 40.6498787 22.284766 40.6498787 22.5145532 40.4360392M22.9307234 37.420647C23.2715745 38.0850771 23.4413617 38.8004212 23.4400851 39.5564968 23.4375319 40.3125723 23.2639149 40.821714 22.9205106 41.0915592 22.584766 41.3652229 22.1366809 41.3410387 21.5902979 41.0266436 21.0439149 40.7122486 20.604766 40.2260182 20.2639149 39.5615882 19.9230638 38.8971582 19.7532766 38.1919968 19.7545532 37.4359213 19.7571064 36.6785729 19.9307234 36.161794 20.2741277 35.8919489 20.6175319 35.6208309 21.0579574 35.6411966 21.6043404 35.9555916 22.1507234 36.2699866 22.5975319 36.7613085 22.9307234 37.420647M15.6802979 32.0866233C15.8998723 32.5588523 16.2088085 32.9152515 16.5994468 33.1405468 16.9837021 33.3607506 17.2849787 33.365842 17.514766 33.1520025 17.7432766 32.9381629 17.8594468 32.5270309 17.8607234 31.9287894 17.862 31.3229107 17.7496596 30.7806747 17.5224255 30.3033543 17.2951915 29.8273067 16.9939149 29.4849089 16.6109362 29.2647051 16.2190213 29.0394098 15.9100851 29.038137 15.6879574 29.2570679 15.4594468 29.4709075 15.3432766 29.8820395 15.342 30.4790082 15.3407234 31.0683398 15.4530638 31.6093029 15.6802979 32.0866233M17.928383 33.8113411C17.5849787 34.0811862 17.1445532 34.0519105 16.5981702 33.7375155 16.0441277 33.418029 15.5960426 32.9267072 15.2628511 32.2686415 14.9309362 31.6093029 14.7611489 30.9028687 14.7637021 30.1467932 14.7649787 29.3805348 14.9385957 28.8726659 15.2743404 28.5977294 15.6088085 28.3227928 16.0581702 28.346977 16.6122128 28.6664635 17.1585957 28.9821314 17.5977447 29.4594518 17.9398723 30.122609 18.2807234 30.787039 18.449234 31.4922003 18.4466809 32.2673686 18.4454043 33.033627 18.2717872 33.5414959 17.928383 33.8113411M13.9305957 56.0309242C14.1284681 55.5650595 14.2357021 54.9260866 14.2382553 54.1025498 14.2408085 53.2815587 14.1361277 52.5203917 13.9420851 51.8279589 13.740383 51.1317076 13.4557021 50.5296474 13.0982553 50.0230514 12.7408085 49.5088182 12.3169787 49.1155062 11.8446383 48.8443882 11.3722979 48.5719973 10.9561277 48.4816247 10.5884681 48.5796344 10.2284681 48.67128 9.94251064 48.9462165 9.7446383 49.4120812 9.54038298 49.8741274 9.43187234 50.5131003 9.42931915 51.3353643 9.42676596 52.1563554 9.53144681 52.9187952 9.73314894 53.6150465 9.92719149 54.3062065 10.2105957 54.9095395 10.5693191 55.4148627 10.9344255 55.9341873 11.3505957 56.3224079 11.8229362 56.5947987 12.2952766 56.8671896 12.720383 56.9613808 13.0791064 56.8595524 13.4391064 56.7679069 13.7250638 56.4929704 13.9305957 56.0309242M14.6850638 51.8254132C14.9684681 52.710047 15.1050638 53.6290479 15.101234 54.6015087 15.0999574 55.5726966 14.9582553 56.3325907 14.6710213 56.8875552 14.3914468 57.4463383 13.9995319 57.7721891 13.5093191 57.8740174 13.0101702 57.9707543 12.4471915 57.8345589 11.820383 57.4730683 11.1922979 57.1115776 10.6305957 56.601163 10.134 55.9316416 9.64761702 55.2672116 9.26591489 54.4958618 8.99017021 53.6175922 8.71570213 52.7380498 8.57910638 51.8177761 8.58165957 50.847861 8.58421277 49.8754002 8.7246383 49.1142333 9.00421277 48.5554502 9.28378723 47.9966671 9.66804255 47.665725 10.1582553 47.5651695 10.6574043 47.4671597 11.2191064 47.604628 11.8471915 47.9661186 12.4752766 48.3263364 13.0369787 48.8380239 13.5322979 49.5062725 14.021234 50.1707025 14.4105957 50.9471437 14.6850638 51.8254132M17.1095745 54.9706365C17.3278723 55.4428655 17.6380851 55.7903547 18.0287234 56.0143771 18.4040426 56.2307624 18.7142553 56.2409452 18.9440426 56.0258328 19.1725532 55.8221761 19.2887234 55.4110441 19.29 54.8038925 19.2912766 54.1980138 19.1789362 53.6557779 18.9517021 53.1784575 18.7244681 52.7113199 18.4142553 52.3549206 18.0402128 52.1385354 17.6482979 51.914513 17.3380851 51.9132402 17.117234 52.1321711 16.8887234 52.3447378 16.7725532 52.7571426 16.7712766 53.3541114 16.7687234 53.9510801 16.8823404 54.4844061 17.1095745 54.9706365M19.3576596 56.6864442C19.0142553 56.9562894 18.5725532 56.9359237 18.0274468 56.6215287 17.4734043 56.3033151 17.0253191 55.8107204 16.6921277 55.1526547 16.3512766 54.4869518 16.1904255 53.7779719 16.1929787 53.0218964 16.1942553 52.264548 16.3589362 51.7426777 16.703617 51.4728325 17.0380851 51.197896 17.4874468 51.2233531 18.0414894 51.5415667 18.5878723 51.8559617 19.0270213 52.343465 19.3678723 52.9964393 19.7087234 53.6621421 19.8785106 54.3762135 19.8759574 55.1424718 19.8746809 55.9074573 19.7010638 56.4255091 19.3576596 56.6864442"/>
      <g transform="translate(16.596 53.46)">
        <path d="M7.34744681,9.86016675 C7.56829787,9.64123579 7.68446809,9.23137667 7.68574468,8.63313509 C7.68702128,8.03489352 7.57468085,7.50284037 7.35510638,7.0217014 C7.12787234,6.54438099 6.81893617,6.19816459 6.43595745,5.97668792 C6.05297872,5.75648411 5.74276596,5.74757413 5.51297872,5.96141367 C5.28446809,6.16634323 5.16829787,6.57620235 5.16702128,7.18208106 C5.16574468,7.79050547 5.27808511,8.33274145 5.50531915,8.79987902 C5.73255319,9.27719943 6.04276596,9.63232581 6.42446809,9.85252962 C6.8087234,10.0740063 7.11765957,10.0740063 7.34744681,9.86016675 M7.76489362,6.83586465 C8.10574468,7.50029466 8.27553191,8.21436599 8.27297872,8.97171437 C8.27042553,9.72778989 8.09680851,10.2458416 7.75340426,10.5156868 C7.41893617,10.7893505 6.96957447,10.7651662 6.42319149,10.4507712 C5.87680851,10.1363762 5.43,9.64505435 5.08787234,8.9818972 C4.74702128,8.31619434 4.58617021,7.60594158 4.5887234,6.84986605 C4.59,6.09379053 4.75595745,5.57192022 5.0993617,5.30080223 C5.44276596,5.03095709 5.89212766,5.05641418 6.43851064,5.37080922 C6.98361702,5.68520426 7.43170213,6.17525321 7.76489362,6.83586465"/>
        <polygon points="6.385 .99 7.077 1.388 1.477 7.537 .792 7.143"/>
      </g>
    </g>
  </g>
</svg>
