<?xml version="1.0" encoding="UTF-8"?>
<svg width="48px" height="60px" viewBox="0 0 48 60" version="1.1" xmlns="http://www.w3.org/2000/svg" xmlns:xlink="http://www.w3.org/1999/xlink">
    <!-- Generator: Sketch 46.2 (44496) - http://www.bohemiancoding.com/sketch -->
    <title>Group 26</title>
    <desc>Created with Sketch.</desc>
    <defs>
        <linearGradient x1="0%" y1="50%" x2="100%" y2="50%" id="linearGradient-1">
            <stop stop-color="#C33764" offset="0%"></stop>
            <stop stop-color="#1D2671" offset="100%"></stop>
        </linearGradient>
    </defs>
    <g id="Page-1" stroke="none" stroke-width="1" fill="none" fill-rule="evenodd">
        <g id="6.0-Brand-Insights_CopyNotReady" transform="translate(-945.000000, -1585.000000)">
            <g id="Group-26" transform="translate(945.000000, 1585.000000)">
                <g id="Group-21">
                    <g id="Group-2" fill="#000000">
                        <path d="M38.8987694,58.0030722 L45.1012306,58.0030722 L45.1012306,17.4254992 L38.8987694,17.4254992 L38.8987694,58.0030722 Z M46.1220439,60 L37.8779561,60 C37.3144672,60 36.8571429,59.5526882 36.8571429,59.0015361 L36.8571429,16.4270353 C36.8571429,15.8758833 37.3144672,15.4285714 37.8779561,15.4285714 L46.1220439,15.4285714 C46.6855328,15.4285714 47.1428571,15.8758833 47.1428571,16.4270353 L47.1428571,59.0015361 C47.1428571,59.5526882 46.6855328,60 46.1220439,60 L46.1220439,60 Z" id="Fill-367"></path>
                        <path d="M38.4882436,60 L0.940327797,60 C0.421266853,60 0,59.5526882 0,59.0015361 L0,16.4270353 C0,15.8758833 0.421266853,15.4285714 0.940327797,15.4285714 L38.4882436,15.4285714 C39.0073046,15.4285714 39.4285714,15.8758833 39.4285714,16.4270353 C39.4285714,16.9781874 39.0073046,17.4254992 38.4882436,17.4254992 L1.88065559,17.4254992 L1.88065559,58.0030722 L38.4882436,58.0030722 C39.0073046,58.0030722 39.4285714,58.450384 39.4285714,59.0015361 C39.4285714,59.5526882 39.0073046,60 38.4882436,60" id="Fill-368"></path>
                        <path d="M33.327149,15.4285714 C32.7967429,15.4285714 32.3685838,15.0497071 32.3685838,14.5828922 L32.3685838,11.7199862 C32.3685838,6.19037179 27.2690167,1.69135841 21.0012781,1.69135841 C14.7322614,1.69135841 9.6314162,6.19037179 9.6314162,11.7199862 L9.6314162,14.5828922 C9.6314162,15.0497071 9.20325706,15.4285714 8.67285096,15.4285714 C8.14372294,15.4285714 7.71428571,15.0497071 7.71428571,14.5828922 L7.71428571,11.7199862 C7.71428571,5.25786951 13.6752834,0 21.0012781,0 C28.3259946,0 34.2857143,5.25786951 34.2857143,11.7199862 L34.2857143,14.5828922 C34.2857143,15.0497071 33.8562771,15.4285714 33.327149,15.4285714" id="Fill-369"></path>
                        <path d="M41.0413886,15.4285714 C40.5122352,15.4285714 40.0827773,15.0497071 40.0827773,14.5828922 L40.0827773,11.7199862 C40.0827773,6.19037179 34.9829649,1.69135841 28.7123685,1.69135841 C22.4443284,1.69135841 17.3457941,6.19037179 17.3457941,11.7199862 L17.3457941,14.5828922 C17.3457941,15.0497071 16.9163362,15.4285714 16.3871828,15.4285714 C15.8580293,15.4285714 15.4285714,15.0497071 15.4285714,14.5828922 L15.4285714,11.7199862 C15.4285714,5.25786951 21.3872996,0 28.7123685,0 C36.0399937,0 42,5.25786951 42,11.7199862 L42,14.5828922 C42,15.0497071 41.5705421,15.4285714 41.0413886,15.4285714" id="Fill-370"></path>
                    </g>
                    <g id="heart-2" transform="translate(8.571429, 29.142857)"></g>
                </g>
                <g id="heart-2" transform="translate(10.000000, 30.000000)" fill-rule="nonzero" fill="url(#linearGradient-1)">
                    <path d="M19.20625,1.77948765 C18.048625,0.632494634 16.51125,0 14.875,0 C13.23875,0 11.701375,0.632494634 10.544625,1.77862003 C10.52975,1.79336956 10.514875,1.80811909 10.5,1.82373624 C10.485125,1.80811909 10.471125,1.79423718 10.45625,1.77948765 C9.298625,0.632494634 7.76125,0 6.125,0 C4.48875,0 2.951375,0.632494634 1.79375,1.77948765 C0.636125,2.92648066 0,4.45088817 0,6.07333668 C0,7.6957852 0.637,9.2201927 1.79375,10.3671857 L10.5,19 L19.20625,10.3671857 C20.363,9.2201927 21,7.6957852 21,6.07333668 C21,4.45175579 20.363,2.92648066 19.20625,1.77948765 Z" id="Shape"></path>
                </g>
            </g>
        </g>
    </g>
</svg>