<svg xmlns="http://www.w3.org/2000/svg" width="255" height="221" viewBox="0 0 255 221">
  <g fill="none" fill-rule="evenodd">
    <path fill="#BA3665" d="M93.6817137,8.06050304 C119.890222,4.78811087 145.328568,11.0752514 165.990566,24.2626213 L136.583982,60.7572762 C125.220548,55.0325287 111.861864,52.7717547 98.2662305,55.1790151 C77.0022957,58.9432858 60.4861729,73.1536193 53.3826071,91.2826087 L4.81132075,82.3488029 C14.7853265,47.4182498 43.8095935,18.9441582 82.4797818,10.0430965 C84.3120348,9.62331228 86.1644568,9.2410114 88.0259923,8.91170414 C89.9196491,8.57607786 91.8016525,8.29689194 93.6817137,8.06050304"/>
    <path fill="#7A306A" d="M109.014123,172.434635 L117.755864,219.477459 L117.877358,220.129363 C90.6443336,223.650112 64.2269537,216.313895 43.3306035,201.361741 C40.3121879,199.188776 37.4089499,196.866412 34.5957678,194.386642 C18.0489858,179.646499 6.06787695,159.561672 1.72389126,136.182378 C1.64367833,135.751803 1.58594265,135.321811 1.51175303,134.892548 C-0.485343296,123.33082 -0.462131495,111.88136 1.33531397,100.891304 L48.147199,109.764891 C47.7299743,114.762436 47.9529839,119.893361 48.9131885,125.062291 C54.2687973,153.881208 80.2846718,173.745724 109.014123,172.434635"/>
    <path fill="#402A6F" d="M159.8175,141.728261 L204.481132,161.800299 C190.804158,187.926068 165.726236,208.327858 134.140815,216.174668 C134.117582,216.17995 134.095707,216.1888 134.072626,216.195652 L134.071871,216.191512 L125.09434,170.070505 C140.53879,165.249989 152.819403,154.837824 159.8175,141.728261"/>
    <path fill="#272771" d="M146.745283,71.5853444 L175.210097,33.6304348 C192.796481,48.7005357 205.58721,69.9720895 210.018806,95.0061445 C210.220713,96.1388554 210.395217,97.2700994 210.561343,98.3994365 C210.608341,98.7268401 210.654061,99.0535103 210.697652,99.3788603 C210.8111,100.199716 210.908362,101.016905 211.001507,101.833507 C211.066253,102.413945 211.12816,102.993208 211.184671,103.570272 C211.258931,104.344188 211.328506,105.117518 211.386153,105.888794 C211.426761,106.41129 211.457289,106.929826 211.489946,107.450856 C211.529703,108.117398 211.564206,108.781886 211.591894,109.446375 C211.611204,109.86135 211.631225,110.273245 211.644145,110.688807 C211.679359,111.804796 211.698669,112.920198 211.698101,114.032519 C211.697533,114.1374 211.694551,114.241547 211.696255,114.347894 C211.691144,115.530039 211.661468,116.711596 211.617878,117.886846 C211.597005,118.497354 211.571731,119.104635 211.541914,119.713236 C211.524733,120.017756 211.504145,120.318023 211.484693,120.622104 C211.018687,128.522329 209.685701,136.245652 207.599042,143.684109 C207.330968,144.639476 207.045855,145.587363 206.751798,146.532609 L163.915641,125.515849 C165.210716,118.577005 165.314367,111.282886 164.001117,103.915278 C161.697216,90.9897294 155.433545,79.8525791 146.745283,71.5853444"/>
    <path fill="#5E5F5C" d="M22.5333881,12.0108696 L105.894389,132.047661 L183.300563,68.8544847 L238.160377,158.876102 C237.468152,160.344725 236.810765,161.837108 236.180489,163.347826 L182.273668,74.8901688 L105.074767,137.913793 L19.245283,14.3227077 L22.5333881,12.0108696 Z"/>
    <path fill="#E4712A" d="M170.801887 73.2662267C170.801887 80.5628721 176.725394 86.4782609 184.033097 86.4782609 191.340643 86.4782609 197.264151 80.5628721 197.264151 73.2662267 197.264151 65.9695812 191.340643 60.0543478 184.033097 60.0543478 176.725394 60.0543478 170.801887 65.9695812 170.801887 73.2662267M228.537736 166.951009C228.537736 174.247655 234.461243 180.163043 241.768946 180.163043 249.076492 180.163043 255 174.247655 255 166.951009 255 159.654364 249.076492 153.73913 241.768946 153.73913 234.461243 153.73913 228.537736 159.654364 228.537736 166.951009M93.8207547 133.320652C93.8207547 140.617341 99.7442971 146.532609 107.051887 146.532609 114.359477 146.532609 120.283019 140.617341 120.283019 133.320652 120.283019 126.023964 114.359477 120.108696 107.051887 120.108696 99.7442971 120.108696 93.8207547 126.023964 93.8207547 133.320652M9.62264151 13.2119565C9.62264151 20.5086449 15.546149 26.423913 22.8538514 26.423913 30.1613981 26.423913 36.0849057 20.5086449 36.0849057 13.2119565 36.0849057 5.91526818 30.1613981 0 22.8538514 0 15.546149 0 9.62264151 5.91526818 9.62264151 13.2119565"/>
  </g>
</svg>
