<svg xmlns="http://www.w3.org/2000/svg" xmlns:xlink="http://www.w3.org/1999/xlink" width="395" height="345" viewBox="0 0 395 345">
  <defs>
    <linearGradient id="bi-judgement-landing-a" x1="0%" y1="50%" y2="50%">
      <stop offset="0%" stop-color="#C33764"/>
      <stop offset="100%" stop-color="#1D2671"/>
    </linearGradient>
    <polygon id="bi-judgement-landing-b" points="0 .198 0 73.627 14.199 73.627 14.199 .198 0 .198"/>
    <polygon id="bi-judgement-landing-d" points="0 .346 0 91.868 44.369 91.868 44.369 .346"/>
    <polygon id="bi-judgement-landing-f" points=".241 73.736 14.44 73.736 14.44 .306 .241 .306 .241 73.736"/>
    <linearGradient id="bi-judgement-landing-g" x1="0%" y1="50%" y2="50%">
      <stop offset="0%" stop-color="#3C296E"/>
      <stop offset="100%" stop-color="#1D2671"/>
    </linearGradient>
    <polygon id="bi-judgement-landing-i" points=".212 71.319 2.37 71.319 2.37 .403 .212 .403"/>
  </defs>
  <g fill="none" fill-rule="evenodd">
    <path fill="#BA3665" d="M59.3431204,5.5586484 C76.2540124,3.41794971 92.6679619,7.53080441 106,16.1575777 L87.0255673,40.0312628 C79.6933754,36.2863084 71.07376,34.8073793 62.301254,36.3821353 C48.5808199,38.8446058 37.9238847,48.1405706 33.3403489,60 L2,54.155778 C8.435671,31.3052804 27.1634158,12.6784022 52.1151369,6.85560027 C53.2973878,6.58099032 54.4926527,6.3309008 55.693798,6.11547808 C56.9156694,5.89592165 58.1300215,5.71328677 59.3431204,5.5586484"/>
    <path fill="#7A306A" d="M71.2103461,111.46108 L76.9206371,142.011244 L77,142.434598 C59.2108084,144.721014 41.9544134,139.956788 28.3044726,130.246684 C26.3327793,128.835534 24.4363224,127.327364 22.598692,125.716972 C11.7899818,116.14455 3.9636664,103.101227 1.12608247,87.9184381 C1.07368568,87.6388181 1.0359715,87.3595763 0.987509265,87.0808074 C-0.317036573,79.5724856 -0.301874131,72.1370712 0.872255509,65 L31.4507754,70.7626117 C31.1782353,74.008076 31.3239099,77.3401592 31.951136,80.696923 C35.4495337,99.4122669 52.4436568,112.312517 71.2103461,111.46108"/>
    <path fill="#402A6F" d="M104.307,92 L133,105.207524 C124.21358,122.39844 108.102915,135.822944 87.8116748,140.986192 C87.7967497,140.989668 87.7826969,140.995491 87.7678687,141 L87.7673841,140.997276 L82,110.64937 C91.9218894,107.477441 99.8112529,100.626173 104.307,92"/>
    <path fill="#272771" d="M95,46.876964 L113.844245,22 C125.486762,31.8774668 133.954467,45.8195807 136.888267,62.2277685 C137.021933,62.9701865 137.137458,63.7116431 137.247437,64.4518498 C137.27855,64.6664415 137.308818,64.8805524 137.337676,65.0937981 C137.412781,65.6318156 137.47717,66.1674295 137.538833,66.7026589 C137.581697,67.0830976 137.62268,67.4627672 137.660092,67.8409947 C137.709253,68.3482464 137.755313,68.8551135 137.793476,69.3606345 C137.82036,69.7030967 137.84057,70.042963 137.86219,70.3844638 C137.888509,70.8213386 137.911351,71.2568674 137.929681,71.6923962 C137.942465,71.9643854 137.955718,72.2343556 137.964272,72.5067294 C137.987584,73.2381871 138.000368,73.9692602 137.999992,74.6983142 C137.999616,74.7670567 137.997642,74.8353183 137.99877,74.9050222 C137.995386,75.6798405 137.97574,76.4542742 137.946883,77.2245737 C137.933065,77.6247218 137.916333,78.0227548 137.896593,78.421653 C137.885219,78.6212464 137.871589,78.8180515 137.858712,79.0173565 C137.550207,84.1954384 136.667745,89.2575716 135.286337,94.1329947 C135.108867,94.7591755 134.920117,95.380453 134.725446,96 L106.367101,82.2248868 C107.224465,77.6769276 107.293084,72.8961094 106.423688,68.0671236 C104.898462,59.5952708 100.751794,52.2955963 95,46.876964"/>
    <path fill="#402A6F" d="M341.68115,199.949971 C333.272154,199.496954 325.680012,195.953002 320,190.424229 L331.411329,180.166624 C334.627249,182.706205 338.676749,184.225622 343.081725,184.22808 C349.971184,184.231768 356.001691,180.532555 359.319096,175 L374,180.759206 C368.771687,191.635489 357.963061,199.284676 345.31043,199.951956 C344.711109,199.982971 344.107561,200.000463 343.504482,199.999991 C342.890972,199.999802 342.284511,199.981836 341.68115,199.949971"/>
    <path fill="#272771" d="M347.008325,130.220557 L347.008325,130 C356.162831,130.479562 364.38546,134.462683 370.329941,140.607564 C371.187864,141.499259 371.998744,142.433229 372.770517,143.413012 C377.300097,149.227728 380.004254,156.517857 379.999995,164.428434 C379.999995,164.574292 379.992735,164.718428 379.990799,164.86333 C379.939012,168.766301 379.231029,172.511458 377.968682,176 L363.145667,170.291833 C363.588326,168.681464 363.829063,166.989128 363.830031,165.24017 C363.834968,155.489104 356.510434,147.430183 347,146.138024 L347.008325,130.220557 Z"/>
    <path fill="#BA3665" d="M327.571523,153 L315,143.835737 C320.793372,136.033242 329.759804,130.767496 339.977576,130.00292 C339.985144,130.002449 339.992432,130.000942 340,130 L340,130.001413 L339.991965,145.678367 C334.936429,146.375594 330.520344,149.09263 327.571523,153"/>
    <path fill="#7A306A" d="M327,178.334123 L315.664499,189 C310.875767,182.957275 307.985755,175.180952 308.000053,166.693538 C308.000328,166.309507 308.009309,165.9276 308.020674,165.546852 C308.024523,165.43648 308.028556,165.326495 308.03323,165.216992 C308.043953,164.940822 308.059717,164.666679 308.076673,164.393019 C308.089229,164.198638 308.102701,164.004739 308.117732,163.811999 C308.138262,163.5535 308.160349,163.295676 308.186195,163.038915 C308.20315,162.865101 308.22313,162.693122 308.242651,162.520178 C308.268038,162.299145 308.295167,162.079174 308.324495,161.859493 C308.342184,161.722181 308.359414,161.585833 308.379119,161.44881 C308.432001,161.080519 308.490016,160.713482 308.553988,160.348764 C308.560312,160.314387 308.567277,160.280397 308.572776,160.245538 C308.64243,159.858127 308.719966,159.472454 308.801444,159.089871 C308.843328,158.890951 308.886312,158.693286 308.930854,158.495621 C308.95395,158.396741 308.977779,158.299502 309.001608,158.2012 C309.605676,155.639285 310.478371,153.189962 311.577075,150.881042 C311.718125,150.584593 311.864307,150.291427 312.013239,150 L324.579422,159.573169 C323.763917,161.767662 323.311256,164.153446 323.309881,166.651823 C323.307681,171.034726 324.681521,175.079271 327,178.334123"/>
    <path fill="#F8D2B0" d="M232.5,232.5 C232.342478,232.339271 232.17242,232.170847 232,232"/>
    <path fill="#5E5F5C" d="M14.1628803 7L68.9968519 85.5243912 119.913803 44.1853513 156 103.074735C155.544662 104.035463 155.112239 105.011735 154.69765 106L119.238323 48.1337109 68.4577139 89.3618348 12 8.51233369 14.1628803 7zM293.640092 195.670506L345.239556 162 389 229.55351 386.796673 231 344.469171 165.658476 292.763407 199.39837 278 174.075549C278.562757 173.283973 279.108689 172.477384 279.641048 171.658861L293.640092 195.670506z"/>
    <path fill="#E4712A" d="M378 226.50005C378 231.194395 381.805405 235 386.50015 235 391.194395 235 395 231.194395 395 226.50005 395 221.805605 391.194395 218 386.50015 218 381.805405 218 378 221.805605 378 226.50005M336 164.49995C336 169.194295 339.805627 173 344.5 173 349.194573 173 353 169.194295 353 164.49995 353 159.805605 349.194573 156 344.5 156 339.805627 156 336 159.805605 336 164.49995M285 196.49995C285 201.194395 288.805427 205 293.5 205 298.194373 205 302 201.194395 302 196.49995 302 191.805605 298.194373 188 293.5 188 288.805427 188 285 191.805605 285 196.49995M112 47.49995C112 52.1942954 115.805405 56 120.50005 56 125.194595 56 129 52.1942954 129 47.49995 129 42.8056047 125.194595 39 120.50005 39 115.805405 39 112 42.8056047 112 47.49995M62 86.5C62 91.1943729 65.8054272 95 70.5 95 75.1945728 95 79 91.1943729 79 86.5 79 81.8056271 75.1945728 78 70.5 78 65.8054272 78 62 81.8056271 62 86.5M6 8.5C6 13.1943729 9.80540483 17 14.50005 17 19.1945952 17 23 13.1943729 23 8.5 23 3.80562708 19.1945952 0 14.50005 0 9.80540483 0 6 3.80562708 6 8.5"/>
    <path fill="#BCB8B0" d="M159,119.682618 L159.40762,118.041479 C159.657709,117.034015 159.931634,116.035305 160.221418,115.074564 C160.271878,114.906796 160.32503,114.740455 160.378277,114.574305 L163.124546,105.850175 L180.594925,134.057762 C181.138738,133.984489 181.692356,133.943379 182.256161,133.943379 C184.942744,133.943379 187.428544,134.805534 189.451073,136.261871 L228.35231,111.006355 C228.331645,110.719921 228.317516,110.431965 228.317516,110.140584 C228.317516,103.446229 233.818513,98 240.579758,98 C247.341388,98 252.842,103.446229 252.842,110.140584 C252.842,112.230215 252.305971,114.197945 251.363092,115.916544 L277,159.160832 L275.977922,161.137697 C275.483992,162.093395 274.951615,163.058418 274.396076,164.005837 L270.880124,170 L242.501464,122.131004 C241.875184,122.22902 241.233719,122.281168 240.579758,122.281168 C238.084347,122.281168 235.761652,121.537488 233.822742,120.264716 L194.510906,145.787158 C194.513213,145.886125 194.518403,145.984425 194.518403,146.083963 C194.518403,152.778318 189.017503,158.224547 182.256161,158.224547 C175.49482,158.224547 169.993823,152.778318 169.993823,146.083963 C169.993823,143.891083 170.587232,141.833998 171.618729,140.056589 L159,119.682618 Z"/>
    <path fill="#5E5F5C" d="M195.396598,80.1164715 C166.504872,93.4095439 153.813468,127.720798 167.106201,156.60897 C180.400951,185.502713 214.718084,198.192634 243.609906,184.898601 C272.494907,171.607834 285.185542,137.288605 271.890696,108.394862 C258.598828,79.5066905 224.282272,66.8257049 195.396598,80.1164715 M194.209217,77.5356385 C224.517173,63.5896479 260.520121,76.9095249 274.462603,107.211904 C288.409216,137.519567 275.097749,173.516918 244.789025,187.462909 C214.481165,201.408035 178.480811,188.099975 164.535639,157.790871 C150.593349,127.489356 163.89982,91.4812447 194.209217,77.5356385"/>
    <path fill="#E4712A" d="M228 110.500048C228 117.403603 233.596589 123 240.500048 123 247.403699 123 253 117.403603 253 110.500048 253 103.596493 247.403699 98 240.500048 98 233.596589 98 228 103.596493 228 110.500048M170 146.499952C170 153.403507 175.596493 159 182.500048 159 189.403699 159 195 153.403507 195 146.499952 195 139.596397 189.403699 134 182.500048 134 175.596493 134 170 139.596397 170 146.499952"/>
    <g transform="translate(145 63)">
      <polygon fill="url(#bi-judgement-landing-a)" points="48.877 183 36 179.126 51.123 128 64 131.881"/>
      <path fill="#212670" d="M0.617093204,259.728821 L28.3694432,164.586212 C30.9520484,155.713782 40.8887228,150.921221 50.5569638,153.869216 C53.5012057,154.766953 56.0768965,156.28833 58.1689525,158.211861 C62.9434475,162.599413 65.178245,169.10772 63.3821854,175.2701 L62.3247437,178.896344 L35.6351397,270.417846 C33.0423995,279.286566 23.1049674,284.079031 13.4422201,281.130466 C3.7753998,278.175146 -1.96134436,268.598873 0.617093204,259.728821"/>
      <path fill="url(#bi-judgement-landing-a)" d="M91.5786174,14.446939 C122.263952,23.6033891 139.707357,55.8944278 130.552327,86.5745259 C121.403577,117.251293 89.1031249,134.697013 58.4238808,125.546177 C27.7412109,116.394866 10.2929523,84.0968803 19.4486488,53.417258 C28.6002533,22.7395389 60.8931877,5.29705483 91.5786174,14.446939 M7.94212418,49.9884066 C-3.11408597,87.0166329 17.9536276,126.011503 54.9912321,137.06161 C92.0207478,148.108862 131.00778,127.04464 142.057709,90.0051852 C153.113729,52.9779105 132.048966,13.988084 95.0111709,2.93797691 C57.9808939,-8.10927542 18.9976682,12.960561 7.94212418,49.9884066"/>
      <g transform="translate(45 15)">
        <path fill="#161314" d="M22.466242,17.7817518 C22.2974522,17.8192372 22.1407643,17.8925419 22,18 L22.9898089,17.2477935 C22.9949045,17.2436284 23,17.2402964 23.0050955,17.2361314 C23.0503185,17.202811 23.0974522,17.1728227 23.1458599,17.1461665 C23.1942675,17.1203432 23.2433121,17.097019 23.2942675,17.0778598 C23.3458599,17.0578676 23.3987261,17.0420404 23.4522293,17.0303783 C23.4535032,17.0303783 23.4547771,17.0295453 23.456051,17.0295453 C23.4573248,17.0295453 23.4579618,17.0295453 23.4592357,17.0295453 C23.5127389,17.0170502 23.5675159,17.0087201 23.6229299,17.003722 C23.6840764,16.999557 23.7464968,16.998724 23.8095541,17.002056 C23.8719745,17.005388 23.9356688,17.0137181 24,17.0253802 L23.0101911,17.7775868 C22.8191083,17.7426004 22.6382166,17.7442664 22.4694268,17.7817518 C22.4681529,17.7817518 22.466879,17.7817518 22.466242,17.7817518"/>
        <path fill="#1B1819" d="M25.1949128,21.8587621 C25.1337166,21.4779223 25.0466819,21.0957027 24.9365288,20.7231421 C24.9333556,20.7134831 24.9306358,20.7038242 24.927916,20.6941652 C24.8154962,20.3195348 24.6808646,19.9545634 24.528554,19.6116696 C24.5244742,19.6027006 24.5203945,19.5930416 24.5163147,19.5840725 C24.3603777,19.2370392 24.1872151,18.9120836 24,18.6230041 L24.7044364,18 C24.7669926,18.0965898 24.8281888,18.1973191 24.8880251,18.3014981 C24.9442349,18.3994678 24.9986316,18.500887 25.0516683,18.605066 C25.0979054,18.6954465 25.1427827,18.7878967 25.1863,18.8831066 C25.1980859,18.907944 25.2089652,18.9341612 25.2202979,18.9596885 C25.2248309,18.9700375 25.2289107,18.9803864 25.2334437,18.9900453 C25.2570156,19.0431697 25.2810408,19.0956042 25.303706,19.1494185 C25.3395172,19.2349694 25.3744217,19.3212103 25.4079663,19.409521 C25.4406042,19.494382 25.4718823,19.579933 25.5022538,19.6668638 C25.5321719,19.7524147 25.5611835,19.8386556 25.5883818,19.9255864 C25.6037942,19.9738813 25.6178466,20.0228662 25.6323524,20.071161 C25.6350722,20.08082 25.6382454,20.090479 25.6409652,20.0994481 C25.649578,20.1298048 25.6590974,20.1594717 25.6677102,20.1898285 C25.6935486,20.2802089 25.7180271,20.3705894 25.7411457,20.4623497 C25.7651708,20.5568697 25.7873828,20.6520796 25.8086881,20.7479795 C25.8309001,20.8500887 25.8517522,20.9528878 25.8703377,21.055687 C25.881217,21.1157106 25.8898298,21.1757343 25.8993492,21.235068 C25.902069,21.2523162 25.9047889,21.2681845 25.9070554,21.2847428 C25.9134017,21.3247585 25.9211079,21.3647743 25.9265475,21.4047901 C25.9469463,21.5482949 25.962812,21.6917997 25.9750512,21.8339247 C25.9918235,22.0333136 26.0004363,22.2313227 25.999983,22.4251922 C25.9981698,23.382811 25.7751436,24.0582496 25.4152191,24.3763059 L24.7107827,25 C25.0707071,24.6812537 25.2937333,24.0058151 25.2955465,23.0481963 C25.2964532,22.6783954 25.2624553,22.2941061 25.2030723,21.9077469 C25.2003524,21.8911886 25.1976326,21.8746304 25.1949128,21.8587621"/>
        <path fill="#363F44" d="M24.0243422,10.6916271 C24.0329336,7.71042809 25.1269017,5.6125985 26.8874172,4.624856 L28,4 C26.2394845,4.98843371 25.1455164,7.08626331 25.136925,10.0674623 L25.1125828,18.3758352 L24,19 L24.0243422,10.6916271 Z"/>
        <path fill="#161314" d="M41,29 L41.0057088,28.9950174 C41.0038059,28.9966783 41.0019029,28.9983391 41,29 L41.9857279,28.2501254 C41.9908024,28.2459733 41.9958769,28.2418212 42.0009515,28.2384995 C42.0466223,28.204452 42.094196,28.1745567 42.1430384,28.147983 C42.1912464,28.1214094 42.2407231,28.0981575 42.2921028,28.0790577 C42.3434824,28.0591275 42.396765,28.0433494 42.4506819,28.030893 C42.4519505,28.030893 42.4532192,28.030893 42.4538535,28.0300626 C42.4551221,28.0300626 42.4563907,28.0300626 42.4576594,28.0300626 C42.510942,28.0176062 42.5661275,28.0093019 42.6219474,28.0043194 C42.6828417,27.9993368 42.7456391,27.9985064 42.809705,28.0026585 C42.8718681,28.0059802 42.9352997,28.0142845 43,28.0259104 L42.0142721,28.775785 C41.8227085,28.7409071 41.641294,28.742568 41.4719315,28.7799371 C41.4706629,28.7799371 41.4693942,28.7799371 41.4687599,28.7799371 C41.2993974,28.8181367 41.1420869,28.8920446 41,29"/>
        <path fill="#1B1819" d="M46.2957062,34.0481963 C46.2961594,33.6790854 46.2626224,33.294796 46.2027997,32.9084368 C46.2005336,32.8918786 46.1973612,32.8746304 46.194642,32.8580721 C46.1334597,32.4779223 46.046898,32.0957027 45.9367697,31.7238321 C45.9335973,31.7134831 45.9304249,31.7038242 45.9277057,31.6934753 C45.8153114,31.3188449 45.6811635,30.9559432 45.5293406,30.6130495 C45.5248086,30.6033905 45.5207298,30.5930416 45.5157445,30.5833826 C45.3602961,30.2363493 45.1871727,29.9113937 45,29.6230041 L45.7042768,29 C45.7668188,29.0965898 45.8284543,29.1973191 45.8878239,29.3014981 C45.944021,29.3994678 45.9988585,29.500887 46.05143,29.605066 C46.0976567,29.6954465 46.1429769,29.7885866 46.1860312,29.8824167 C46.1982676,29.9086339 46.2091445,29.9355411 46.2204746,29.9610684 C46.2250066,29.9700375 46.2290854,29.9796964 46.2331642,29.9886655 C46.2567308,30.0417899 46.2807505,30.0949143 46.3034106,30.1494185 C46.3396668,30.2349694 46.3741102,30.3219003 46.4081004,30.409521 C46.4402778,30.494382 46.472002,30.579933 46.5019134,30.6668638 C46.5318247,30.7524147 46.5608297,30.8386556 46.588475,30.9262764 C46.6034307,30.9738813 46.61748,31.0228662 46.6319825,31.071161 C46.6351549,31.08082 46.6378741,31.090479 46.6405933,31.100138 C46.6496574,31.1304948 46.6591746,31.1594717 46.6677855,31.1898285 C46.6931648,31.2802089 46.718091,31.3712793 46.7407511,31.4616598 C46.7647709,31.5568697 46.787431,31.6520796 46.8082783,31.7479795 C46.8309384,31.8500887 46.8513325,31.9528878 46.8703671,32.055687 C46.8812439,32.1157106 46.8894016,32.1757343 46.899372,32.2357579 C46.901638,32.2516263 46.9043572,32.2681845 46.9070765,32.2847428 C46.9134213,32.3247585 46.9206725,32.3647743 46.9265642,32.4047901 C46.9465051,32.5482949 46.9628204,32.6917997 46.9750568,32.8339247 C46.9918253,33.0340035 47.0004362,33.2313227 46.999983,33.4251922 C46.9981702,34.382811 46.7751945,35.0582496 46.4153517,35.3763059 L45.7110748,36 C46.0709177,35.6812537 46.2938934,35.0058151 46.2957062,34.0481963"/>
        <path fill="#4B5860" d="M33.5650997,2.52250268 C27.6725172,-1.02123152 22.8647085,1.83307568 22.8456551,8.8861389 L22.8234261,16.8390301 C21.7583409,16.6802369 21.0038261,17.4490605 21.0000155,18.8940783 C20.9949346,20.745342 22.2429325,23.007483 23.7983253,23.9430394 C25.3543532,24.8792575 26.618864,24.1282981 26.6239449,22.2763728 C26.6283907,20.831355 25.8713355,19.1547638 24.8087907,18.0326254 L24.8303846,10.0803959 C24.8456273,4.3327448 28.7661826,2.01568782 33.5587486,4.89844546 C38.3513145,7.7812031 42.2369386,14.7925831 42.2210607,20.5402342 L42.1994669,28.4924637 C41.1337465,28.3343322 40.3709753,29.0978627 40.3665295,30.5422188 C40.3620837,32.3941442 41.6183381,34.6615783 43.174366,35.5971347 C44.7303939,36.5326911 45.9949048,35.7823934 45.9999857,33.9304681 C46.0037963,32.4854502 45.2473762,30.8081974 44.1841964,29.6867207 L44.2057902,21.7338295 C44.2254787,14.6801046 39.4481555,6.06094378 33.5650997,2.52250268"/>
        <g transform="translate(0 10)">
          <mask id="bi-judgement-landing-c" fill="#fff">
            <use xlink:href="#bi-judgement-landing-b"/>
          </mask>
          <polygon fill="#696969" points="0 73.627 9.781 73.533 14.117 65.582 13.5 .5 9.816 8.175 .082 8.243" mask="url(#bi-judgement-landing-c)"/>
        </g>
        <polygon fill="#444" points=".363 .2 .28 66.314 44.565 91.721 44.648 25.607" transform="translate(13 10)"/>
        <g transform="translate(0 18)">
          <mask id="bi-judgement-landing-e" fill="#fff">
            <use xlink:href="#bi-judgement-landing-d"/>
          </mask>
          <polygon fill="url(#bi-judgement-landing-a)" points=".083 .346 0 66.461 44.285 91.868 44.369 25.754" mask="url(#bi-judgement-landing-e)"/>
        </g>
        <g transform="translate(43 35)">
          <mask id="bi-judgement-landing-h" fill="#fff">
            <use xlink:href="#bi-judgement-landing-f"/>
          </mask>
          <polygon fill="url(#bi-judgement-landing-g)" points=".241 73.737 2.688 68.376 14.358 65.691 14.44 .306 2.693 3.035 .323 8.352" mask="url(#bi-judgement-landing-h)"/>
        </g>
        <path fill="#363F44" d="M8.46624204 27.7817518C8.29745223 27.8192372 8.14076433 27.8925419 8 28L8.98980892 27.2477935C8.99490446 27.2436284 9 27.2402964 9.00509554 27.2361314 9.05031847 27.202811 9.09745223 27.1728227 9.14585987 27.1461665 9.19426752 27.1203432 9.24394904 27.097019 9.29426752 27.0778598 9.34585987 27.0578676 9.39872611 27.0420404 9.4522293 27.0303783 9.45350318 27.0303783 9.45477707 27.0295453 9.45605096 27.0295453 9.45732484 27.0295453 9.45796178 27.0295453 9.45923567 27.0295453 9.51273885 27.0170502 9.56751592 27.0087201 9.62292994 27.003722 9.68407643 26.999557 9.74649682 26.998724 9.80955414 27.002056 9.87197452 27.005388 9.93566879 27.0137181 10 27.0253802L9.01019108 27.7775868C8.81910828 27.7417674 8.63821656 27.7442664 8.46942675 27.7817518 8.46815287 27.7817518 8.46751592 27.7817518 8.46624204 27.7817518M12.1949128 31.8587621C12.1337166 31.4779223 12.0466819 31.0957027 11.9365288 30.7231421 11.9333556 30.7134831 11.9306358 30.7038242 11.927916 30.6941652 11.8154962 30.3195348 11.6808646 29.9545634 11.528554 29.6116696 11.5244742 29.6027006 11.5203945 29.5930416 11.5163147 29.5840725 11.3603777 29.2370392 11.1872151 28.9120836 11 28.6230041L11.7044364 28C11.7669926 28.0965898 11.8281888 28.1973191 11.8880251 28.3014981 11.9442349 28.3994678 11.9986316 28.500887 12.0516683 28.605066 12.0979054 28.6954465 12.1427827 28.7878967 12.1863 28.8831066 12.1980859 28.907944 12.2089652 28.9341612 12.2202979 28.9596885 12.2248309 28.9700375 12.2289107 28.9803864 12.2334437 28.9900453 12.2570156 29.0431697 12.2810408 29.0956042 12.303706 29.1494185 12.3395172 29.2349694 12.3744217 29.3212103 12.4079663 29.409521 12.4406042 29.494382 12.4718823 29.579933 12.5022538 29.6668638 12.5321719 29.7524147 12.5611835 29.8386556 12.5883818 29.9255864 12.6037942 29.9738813 12.6178466 30.0228662 12.6323524 30.071161 12.6350722 30.08082 12.6382454 30.090479 12.6409652 30.0994481 12.649578 30.1298048 12.6590974 30.1594717 12.6677102 30.1898285 12.6935486 30.2802089 12.7180271 30.3705894 12.7411457 30.4623497 12.7651708 30.5568697 12.7878361 30.6520796 12.8086881 30.7479795 12.8309001 30.8500887 12.8517522 30.9528878 12.8703377 31.055687 12.881217 31.1157106 12.8898298 31.1757343 12.8993492 31.235068 12.902069 31.2523162 12.9047889 31.2681845 12.9075087 31.2847428 12.9134017 31.3247585 12.9211079 31.3647743 12.9265475 31.4047901 12.9469463 31.5482949 12.962812 31.6917997 12.9750512 31.8339247 12.9918235 32.0333136 13.0004363 32.2313227 12.999983 32.4251922 12.9981698 33.382811 12.7751436 34.0582496 12.4152191 34.3763059L11.7107827 35C12.0707071 34.6812537 12.2937333 34.0058151 12.2955465 33.0481963 12.2964532 32.6783954 12.2624553 32.2941061 12.2030723 31.9077469 12.2003524 31.8911886 12.1976326 31.8746304 12.1949128 31.8587621M11.0243422 19.6919355C11.0329336 16.7099078 12.1269017 14.6119816 13.8881332 13.6241935L15 13C13.2394845 13.987788 12.1455164 16.0857143 12.136925 19.0677419L12.1125828 27.3758065 11 28 11.0243422 19.6919355zM28 38L28.0057088 37.9950174C28.0038059 37.9966783 28.0019029 37.9983391 28 38L28.9857279 37.2501254C28.9908024 37.2459733 28.9958769 37.2418212 29.0015858 37.2384995 29.0466223 37.204452 29.094196 37.1745567 29.1430384 37.147983 29.1912464 37.1214094 29.2413574 37.0981575 29.2921028 37.0790577 29.3434824 37.0591275 29.396765 37.0433494 29.4506819 37.030893 29.4519505 37.030893 29.4532192 37.030893 29.4538535 37.0300626 29.4551221 37.0300626 29.4563907 37.0300626 29.4576594 37.0300626 29.510942 37.0176062 29.5661275 37.0093019 29.6219474 37.0043194 29.6828417 36.9993368 29.7456391 36.9985064 29.809705 37.0026585 29.8718681 37.0059802 29.9352997 37.0142845 30 37.0259104L29.0142721 37.775785C28.8227085 37.7409071 28.641294 37.742568 28.4719315 37.7799371 28.4706629 37.7799371 28.4693942 37.7799371 28.4687599 37.7799371 28.2993974 37.8181367 28.1420869 37.8920446 28 38M32.2957062 44.0481963C32.2961594 43.6790854 32.2626224 43.294796 32.2027997 42.9084368 32.2005336 42.8918786 32.1973612 42.8746304 32.194642 42.8580721 32.1334597 42.4779223 32.046898 42.0957027 31.9367697 41.7238321L31.9277057 41.6934753C31.8157646 41.3188449 31.6811635 40.9559432 31.5293406 40.6130495 31.5248086 40.6033905 31.5207298 40.5930416 31.5157445 40.5833826 31.3602961 40.2363493 31.1871727 39.9113937 31 39.6230041L31.7042768 39C31.767272 39.0965898 31.8284543 39.1973191 31.8882771 39.3014981 31.944021 39.3994678 31.9988585 39.500887 32.05143 39.605066 32.0976567 39.6954465 32.1429769 39.7885866 32.1860312 39.8824167 32.1982676 39.9086339 32.2091445 39.9355411 32.2209278 39.9610684 32.2250066 39.9700375 32.2290854 39.9796964 32.2331642 39.9886655 32.2567308 40.0417899 32.2807505 40.0949143 32.3034106 40.1494185 32.3396668 40.2349694 32.3741102 40.3219003 32.4081004 40.409521 32.4402778 40.494382 32.472002 40.579933 32.5023666 40.6668638 32.5318247 40.7524147 32.5608297 40.8386556 32.588475 40.9262764 32.6038839 40.9738813 32.61748 41.0228662 32.6319825 41.071161 32.6351549 41.08082 32.6378741 41.090479 32.6405933 41.100138 32.6496574 41.1304948 32.6591746 41.1594717 32.6677855 41.1898285 32.693618 41.2802089 32.718091 41.3712793 32.7407511 41.4616598 32.7647709 41.5568697 32.787431 41.6520796 32.8082783 41.7479795 32.8309384 41.8500887 32.8513325 41.9528878 32.8703671 42.055687 32.8812439 42.1157106 32.8898548 42.1757343 32.899372 42.2357579L32.9070765 42.2847428C32.9134213 42.3247585 32.9206725 42.3654642 32.9265642 42.4047901 32.9465051 42.5482949 32.9628204 42.6917997 32.9750568 42.8339247 32.9918253 43.0340035 33.0004362 43.2313227 32.999983 43.4251922 32.9981702 44.382811 32.7751945 45.0582496 32.4153517 45.3763059L31.7110748 46C32.0709177 45.6812537 32.2938934 45.0058151 32.2957062 44.0481963"/>
        <path fill="#B0B0B0" d="M19.5650997,12.5225027 C13.6725172,8.97876848 8.86470851,11.8330757 8.84565511,18.8861389 L8.82342614,26.8390301 C7.7583409,26.6802369 7.00382614,27.4490605 7.00001546,28.8940783 C6.99493455,30.745342 8.24293245,33.007483 9.79896037,33.9430394 C11.3543532,34.8792575 12.618864,34.1282981 12.6239449,32.2763728 C12.6283907,30.831355 11.8713355,29.1547638 10.8087907,28.0326254 L10.8303846,20.0803959 C10.8456273,14.3327448 14.7661826,12.0156878 19.5587486,14.8984455 C24.3513145,17.7812031 28.2369386,24.7925831 28.2210607,30.5402342 L28.1994669,38.4924637 C27.1337465,38.3343322 26.3709753,39.0978627 26.3665295,40.5422188 C26.3620837,42.3941442 27.6183381,44.6615783 29.174366,45.5971347 C30.7303939,46.5326911 31.9949048,45.7823934 31.9999857,43.9304681 C32.0037963,42.4854502 31.2473762,40.8081974 30.1841964,39.6867207 L30.2057902,31.7338295 C30.2254787,24.6801046 25.4481555,16.0609438 19.5650997,12.5225027"/>
        <g transform="translate(43 37)">
          <mask id="bi-judgement-landing-j" fill="#fff">
            <use xlink:href="#bi-judgement-landing-i"/>
          </mask>
          <polygon fill="#5050B1" points="2.37 .403 .284 5.736 .212 71.319 2.366 65.942" mask="url(#bi-judgement-landing-j)"/>
        </g>
      </g>
    </g>
  </g>
</svg>
