<svg xmlns="http://www.w3.org/2000/svg" xmlns:xlink="http://www.w3.org/1999/xlink" width="145" height="282" viewBox="0 0 145 282">
  <defs>
    <linearGradient id="bi-judgement-adv-a" x1="0%" y1="50%" y2="50%">
      <stop offset="0%" stop-color="#C33764"/>
      <stop offset="100%" stop-color="#1D2671"/>
    </linearGradient>
    <polygon id="bi-judgement-adv-b" points=".032 .417 20.093 .417 20.093 30.137 .032 30.137 .032 .417"/>
    <polygon id="bi-judgement-adv-d" points="0 .198 0 73.627 14.199 73.627 14.199 .198 0 .198"/>
    <polygon id="bi-judgement-adv-f" points="44.648 91.721 44.648 .2 .28 .2 .28 91.721"/>
    <polygon id="bi-judgement-adv-h" points="0 .346 0 91.868 44.369 91.868 44.369 .346"/>
    <polygon id="bi-judgement-adv-j" points=".241 73.736 14.44 73.736 14.44 .306 .241 .306 .241 73.736"/>
    <polygon id="bi-judgement-adv-l" points=".212 71.319 2.37 71.319 2.37 .403 .212 .403"/>
  </defs>
  <g fill="none" fill-rule="evenodd">
    <polygon fill="url(#bi-judgement-adv-a)" points="48.877 183 36 179.126 51.123 128 64 131.881"/>
    <path fill="#212670" d="M0.617093204,259.728821 L28.3694432,164.586212 C30.9520484,155.713782 40.8887228,150.921221 50.5569638,153.869216 C53.5012057,154.766953 56.0768965,156.28833 58.1689525,158.211861 C62.9434475,162.599413 65.178245,169.10772 63.3821854,175.2701 L62.3247437,178.896344 L35.6351397,270.417846 C33.0423995,279.286566 23.1049674,284.079031 13.4422201,281.130466 C3.7753998,278.175146 -1.96134436,268.598873 0.617093204,259.728821"/>
    <path fill="url(#bi-judgement-adv-a)" d="M91.5786174,14.446939 C122.263952,23.6033891 139.707357,55.8944278 130.552327,86.5745259 C121.403577,117.251293 89.1031249,134.697013 58.4238808,125.546177 C27.7412109,116.394866 10.2929523,84.0968803 19.4486488,53.417258 C28.6002533,22.7395389 60.8931877,5.29705483 91.5786174,14.446939 M7.94212418,49.9884066 C-3.11408597,87.0166329 17.9536276,126.011503 54.9912321,137.06161 C92.0207478,148.108862 131.00778,127.04464 142.057709,90.0051852 C153.113729,52.9779105 132.048966,13.988084 95.0111709,2.93797691 C57.9808939,-8.10927542 18.9976682,12.960561 7.94212418,49.9884066"/>
    <g transform="translate(45 15)">
      <path fill="#161314" d="M22.466242,17.7817518 C22.2974522,17.8192372 22.1407643,17.8925419 22,18 L22.9898089,17.2477935 C22.9949045,17.2436284 23,17.2402964 23.0050955,17.2361314 C23.0503185,17.202811 23.0974522,17.1728227 23.1458599,17.1461665 C23.1942675,17.1203432 23.2433121,17.097019 23.2942675,17.0778598 C23.3458599,17.0578676 23.3987261,17.0420404 23.4522293,17.0303783 C23.4535032,17.0303783 23.4547771,17.0295453 23.456051,17.0295453 C23.4573248,17.0295453 23.4579618,17.0295453 23.4592357,17.0295453 C23.5127389,17.0170502 23.5675159,17.0087201 23.6229299,17.003722 C23.6840764,16.999557 23.7464968,16.998724 23.8095541,17.002056 C23.8719745,17.005388 23.9356688,17.0137181 24,17.0253802 L23.0101911,17.7775868 C22.8191083,17.7426004 22.6382166,17.7442664 22.4694268,17.7817518 C22.4681529,17.7817518 22.466879,17.7817518 22.466242,17.7817518"/>
      <path fill="#1B1819" d="M25.1949128,21.8587621 C25.1337166,21.4779223 25.0466819,21.0957027 24.9365288,20.7231421 C24.9333556,20.7134831 24.9306358,20.7038242 24.927916,20.6941652 C24.8154962,20.3195348 24.6808646,19.9545634 24.528554,19.6116696 C24.5244742,19.6027006 24.5203945,19.5930416 24.5163147,19.5840725 C24.3603777,19.2370392 24.1872151,18.9120836 24,18.6230041 L24.7044364,18 C24.7669926,18.0965898 24.8281888,18.1973191 24.8880251,18.3014981 C24.9442349,18.3994678 24.9986316,18.500887 25.0516683,18.605066 C25.0979054,18.6954465 25.1427827,18.7878967 25.1863,18.8831066 C25.1980859,18.907944 25.2089652,18.9341612 25.2202979,18.9596885 C25.2248309,18.9700375 25.2289107,18.9803864 25.2334437,18.9900453 C25.2570156,19.0431697 25.2810408,19.0956042 25.303706,19.1494185 C25.3395172,19.2349694 25.3744217,19.3212103 25.4079663,19.409521 C25.4406042,19.494382 25.4718823,19.579933 25.5022538,19.6668638 C25.5321719,19.7524147 25.5611835,19.8386556 25.5883818,19.9255864 C25.6037942,19.9738813 25.6178466,20.0228662 25.6323524,20.071161 C25.6350722,20.08082 25.6382454,20.090479 25.6409652,20.0994481 C25.649578,20.1298048 25.6590974,20.1594717 25.6677102,20.1898285 C25.6935486,20.2802089 25.7180271,20.3705894 25.7411457,20.4623497 C25.7651708,20.5568697 25.7873828,20.6520796 25.8086881,20.7479795 C25.8309001,20.8500887 25.8517522,20.9528878 25.8703377,21.055687 C25.881217,21.1157106 25.8898298,21.1757343 25.8993492,21.235068 C25.902069,21.2523162 25.9047889,21.2681845 25.9070554,21.2847428 C25.9134017,21.3247585 25.9211079,21.3647743 25.9265475,21.4047901 C25.9469463,21.5482949 25.962812,21.6917997 25.9750512,21.8339247 C25.9918235,22.0333136 26.0004363,22.2313227 25.999983,22.4251922 C25.9981698,23.382811 25.7751436,24.0582496 25.4152191,24.3763059 L24.7107827,25 C25.0707071,24.6812537 25.2937333,24.0058151 25.2955465,23.0481963 C25.2964532,22.6783954 25.2624553,22.2941061 25.2030723,21.9077469 C25.2003524,21.8911886 25.1976326,21.8746304 25.1949128,21.8587621"/>
      <path fill="#363F44" d="M24.0243422,10.6916271 C24.0329336,7.71042809 25.1269017,5.6125985 26.8874172,4.624856 L28,4 C26.2394845,4.98843371 25.1455164,7.08626331 25.136925,10.0674623 L25.1125828,18.3758352 L24,19 L24.0243422,10.6916271 Z"/>
      <path fill="#161314" d="M41,29 L41.0057088,28.9950174 C41.0038059,28.9966783 41.0019029,28.9983391 41,29 L41.9857279,28.2501254 C41.9908024,28.2459733 41.9958769,28.2418212 42.0009515,28.2384995 C42.0466223,28.204452 42.094196,28.1745567 42.1430384,28.147983 C42.1912464,28.1214094 42.2407231,28.0981575 42.2921028,28.0790577 C42.3434824,28.0591275 42.396765,28.0433494 42.4506819,28.030893 C42.4519505,28.030893 42.4532192,28.030893 42.4538535,28.0300626 C42.4551221,28.0300626 42.4563907,28.0300626 42.4576594,28.0300626 C42.510942,28.0176062 42.5661275,28.0093019 42.6219474,28.0043194 C42.6828417,27.9993368 42.7456391,27.9985064 42.809705,28.0026585 C42.8718681,28.0059802 42.9352997,28.0142845 43,28.0259104 L42.0142721,28.775785 C41.8227085,28.7409071 41.641294,28.742568 41.4719315,28.7799371 C41.4706629,28.7799371 41.4693942,28.7799371 41.4687599,28.7799371 C41.2993974,28.8181367 41.1420869,28.8920446 41,29"/>
      <path fill="#1B1819" d="M46.2957062,34.0481963 C46.2961594,33.6790854 46.2626224,33.294796 46.2027997,32.9084368 C46.2005336,32.8918786 46.1973612,32.8746304 46.194642,32.8580721 C46.1334597,32.4779223 46.046898,32.0957027 45.9367697,31.7238321 C45.9335973,31.7134831 45.9304249,31.7038242 45.9277057,31.6934753 C45.8153114,31.3188449 45.6811635,30.9559432 45.5293406,30.6130495 C45.5248086,30.6033905 45.5207298,30.5930416 45.5157445,30.5833826 C45.3602961,30.2363493 45.1871727,29.9113937 45,29.6230041 L45.7042768,29 C45.7668188,29.0965898 45.8284543,29.1973191 45.8878239,29.3014981 C45.944021,29.3994678 45.9988585,29.500887 46.05143,29.605066 C46.0976567,29.6954465 46.1429769,29.7885866 46.1860312,29.8824167 C46.1982676,29.9086339 46.2091445,29.9355411 46.2204746,29.9610684 C46.2250066,29.9700375 46.2290854,29.9796964 46.2331642,29.9886655 C46.2567308,30.0417899 46.2807505,30.0949143 46.3034106,30.1494185 C46.3396668,30.2349694 46.3741102,30.3219003 46.4081004,30.409521 C46.4402778,30.494382 46.472002,30.579933 46.5019134,30.6668638 C46.5318247,30.7524147 46.5608297,30.8386556 46.588475,30.9262764 C46.6034307,30.9738813 46.61748,31.0228662 46.6319825,31.071161 C46.6351549,31.08082 46.6378741,31.090479 46.6405933,31.100138 C46.6496574,31.1304948 46.6591746,31.1594717 46.6677855,31.1898285 C46.6931648,31.2802089 46.718091,31.3712793 46.7407511,31.4616598 C46.7647709,31.5568697 46.787431,31.6520796 46.8082783,31.7479795 C46.8309384,31.8500887 46.8513325,31.9528878 46.8703671,32.055687 C46.8812439,32.1157106 46.8894016,32.1757343 46.899372,32.2357579 C46.901638,32.2516263 46.9043572,32.2681845 46.9070765,32.2847428 C46.9134213,32.3247585 46.9206725,32.3647743 46.9265642,32.4047901 C46.9465051,32.5482949 46.9628204,32.6917997 46.9750568,32.8339247 C46.9918253,33.0340035 47.0004362,33.2313227 46.999983,33.4251922 C46.9981702,34.382811 46.7751945,35.0582496 46.4153517,35.3763059 L45.7110748,36 C46.0709177,35.6812537 46.2938934,35.0058151 46.2957062,34.0481963"/>
      <g transform="translate(25)">
        <mask id="bi-judgement-adv-c" fill="#fff">
          <use xlink:href="#bi-judgement-adv-b"/>
        </mask>
        <path fill="#64798B" d="M18.8781892,19.6086752 C18.8364433,19.3118498 18.7827699,19.0130098 18.726446,18.7141697 C18.6873505,18.5066606 18.6522309,18.299823 18.6065091,18.0923138 C18.5641005,17.9002503 18.5150656,17.7081868 18.4673559,17.5161233 C18.4004298,17.2468315 18.3315159,16.9775397 18.2539876,16.7075763 C18.2095911,16.5531197 18.1625441,16.398663 18.1148344,16.2448779 C18.0207403,15.941337 17.9206825,15.6384676 17.8139984,15.3362698 C17.7702645,15.2127045 17.7285185,15.0891392 17.6827968,14.9662454 C17.528403,14.5505556 17.3660575,14.1362088 17.1891341,13.7252198 C17.1679298,13.6761966 17.144075,13.6271734 17.1228707,13.5781502 C16.9625132,13.2114835 16.7928788,12.8481746 16.6152927,12.4868803 C16.5596315,12.3733883 16.5033075,12.2598962 16.4456583,12.1470757 C16.2727108,11.8065995 16.0931368,11.4694811 15.9062739,11.1357204 C15.8685038,11.0678938 15.8327215,10.9993956 15.7942887,10.9322405 C15.5696556,10.5393834 15.3344204,10.1532418 15.0912336,9.77314408 C15.0223196,9.66502442 14.9494298,9.55891941 14.878528,9.45147131 C14.6982914,9.17747863 14.5134164,8.90684371 14.323903,8.64090965 C14.2218573,8.4971978 14.1178237,8.35550061 14.0131274,8.21447497 C13.8487941,7.99286325 13.6798223,7.77595238 13.5095253,7.56172772 C13.3670589,7.38108059 13.2232672,7.20177656 13.0761624,7.02650183 C12.9363465,6.85995726 12.7925548,6.6987851 12.6500884,6.53626984 C12.4075642,6.26227717 12.1604016,5.99567155 11.9086005,5.73645299 C11.7528815,5.57528083 11.5971624,5.41343712 11.4374675,5.25830891 C11.3142175,5.13877289 11.1903048,5.02259463 11.0650669,4.90641636 C10.8576624,4.71435287 10.646282,4.52833333 10.4335763,4.34701465 C10.3076758,4.23956654 10.1824379,4.13278999 10.0552121,4.02937118 C9.82461532,3.8426801 9.59004274,3.66673382 9.35414489,3.4941453 C9.24282231,3.41221612 9.132825,3.32625763 9.02083978,3.24835775 C8.67163145,3.00525641 8.31844731,2.77491453 7.96062473,2.56606227 C7.48750376,2.28804029 7.02299704,2.06307082 6.56511667,1.86160562 C6.41801183,1.79713675 6.27289489,1.74139805 6.12777796,1.68431624 C5.86338683,1.58089744 5.60164624,1.48889499 5.34454409,1.41099512 C5.17756022,1.35995726 5.01057634,1.31026252 4.84690565,1.26996947 C4.6938371,1.23236264 4.54209382,1.20012821 4.39101317,1.17125153 C4.19156022,1.13364469 3.99409516,1.10208181 3.79994328,1.07992063 C3.68795806,1.06716117 3.57597285,1.05373016 3.4653129,1.04567155 C3.22013817,1.02888278 2.97960188,1.02418193 2.74370403,1.03156899 C2.69201855,1.03358364 2.63834516,1.03022589 2.58732231,1.03291209 C2.30504005,1.04970085 2.03070941,1.08663614 1.76300511,1.13901709 C1.69607903,1.15244811 1.63047823,1.16990842 1.56421478,1.18535409 C1.35482231,1.23437729 1.15139355,1.29347375 0.952603226,1.36465812 C0.889652957,1.38681929 0.825377419,1.40696581 0.763752419,1.43181319 C0.51128871,1.53254579 0.265451344,1.64738095 0.0322040323,1.78437729 L1.0619379,1.17796703 C1.08247957,1.16587912 1.1023586,1.15446276 1.1235629,1.14237485 C1.3044621,1.03895604 1.491325,0.946282051 1.68415161,0.864352869 C1.71993387,0.849578755 1.75770403,0.839505495 1.79348629,0.82540293 C1.85511129,0.801227106 1.91872419,0.780409035 1.98167446,0.758247863 C2.07974435,0.723327228 2.17450108,0.683034188 2.27455887,0.653485958 C2.37859247,0.623266178 2.48858978,0.603791209 2.59527392,0.578943834 C2.66087473,0.563498168 2.7258129,0.5453663 2.79273898,0.532606838 C2.82918387,0.52521978 2.86430349,0.513131868 2.90207366,0.507087912 C3.12140565,0.468809524 3.34670134,0.441275946 3.57597285,0.427173382 C3.58988817,0.426501832 3.60380349,0.427844933 3.61705618,0.426501832 C3.66807903,0.423815629 3.72175242,0.427173382 3.7734379,0.42515873 C3.95234919,0.419114774 4.13059785,0.412399267 4.31481022,0.421129426 C4.37378468,0.423815629 4.43607231,0.43523199 4.49504677,0.439261294 C4.60570672,0.447319902 4.71769194,0.460079365 4.83033978,0.473510379 C4.93569866,0.485598291 5.03840699,0.488956044 5.14575376,0.505744811 C5.23587204,0.519175824 5.32996613,0.548052503 5.42074704,0.56484127 C5.57116505,0.593717949 5.7222457,0.62528083 5.87531425,0.663559219 C5.95946882,0.683705739 6.04097285,0.693778999 6.12579005,0.717283272 C6.20663145,0.739444444 6.29277392,0.779065934 6.37494059,0.80458486 C6.63270538,0.882484737 6.8931207,0.974487179 7.15751183,1.07790598 C7.25160591,1.11484127 7.34172419,1.13565934 7.43581828,1.17528083 C7.4881664,1.197442 7.54250242,1.23236264 7.59485054,1.25519536 C8.05339355,1.45666056 8.51723763,1.68163004 8.99102124,1.95898046 C9.34818118,2.16850427 9.70070269,2.3981746 10.0492484,2.64127595 C10.1632215,2.72051893 10.2745441,2.80714896 10.3878546,2.88974969 C10.6217645,3.06166667 10.8543492,3.23626984 11.0836207,3.42161783 C11.2121718,3.52570818 11.3387349,3.63382784 11.4652981,3.7419475 C11.6773411,3.92259463 11.8867336,4.10727106 12.0934755,4.298663 C12.2193761,4.41551282 12.344614,4.53303419 12.4685266,4.65324176 C12.5440669,4.72711233 12.6229204,4.79493895 12.6984608,4.87015263 C12.7806274,4.95208181 12.8568304,5.0447558 12.9376718,5.12869963 C13.1901355,5.38858974 13.4372981,5.65519536 13.6798223,5.92985958 C13.7566879,6.01716117 13.8388546,6.09506105 13.9137323,6.18303419 C13.9793331,6.25959096 14.0409581,6.3421917 14.1058962,6.42009158 C14.2530011,6.59603785 14.3967927,6.77467033 14.5405844,6.95598901 C14.632028,7.07216728 14.7287726,7.18230159 14.8195535,7.29982295 C14.8957565,7.40055556 14.967321,7.50598901 15.0428613,7.60739316 C15.1475575,7.7484188 15.2509285,7.89078755 15.3536368,8.03449939 C15.4225508,8.13120269 15.4954406,8.22387668 15.5630293,8.32192308 C15.6809782,8.49249695 15.7923008,8.66844322 15.9069366,8.84237485 C15.9785011,8.95116606 16.0520535,9.05861416 16.1222927,9.16874847 C16.150786,9.21307082 16.1812672,9.25537851 16.2090978,9.30037241 C16.4078882,9.61532967 16.6007148,9.93498779 16.7869151,10.2586752 C16.7995051,10.2808364 16.8114325,10.3043407 16.8240226,10.3265018 C16.8624554,10.3929853 16.897575,10.4601404 16.9346825,10.5272955 C17.062571,10.7542796 17.1904594,10.9819353 17.3117215,11.2129487 C17.3687081,11.3210684 17.4203935,11.4318742 17.4753922,11.541337 C17.5330414,11.6541575 17.590028,11.766978 17.6456892,11.8804701 C17.6940616,11.979188 17.7464097,12.0772344 17.7934567,12.1766239 C17.9186946,12.4405433 18.0366435,12.7064774 18.1532672,12.9737546 C18.1744715,13.0221062 18.1983263,13.0697863 18.218868,13.1174664 C18.2248317,13.131569 18.2314581,13.145 18.2374218,13.1591026 C18.3812134,13.496221 18.5183788,13.8346825 18.6475925,14.1751587 C18.6707847,14.2362698 18.6900011,14.2980525 18.7125306,14.3598352 C18.7582524,14.4834005 18.800661,14.6076374 18.8443949,14.7318742 C18.9046946,14.9024481 18.9689702,15.0723504 19.0252941,15.2429243 C19.0683653,15.3732051 19.1028223,15.5041575 19.143243,15.6344383 C19.1916153,15.7909096 19.239325,15.9467094 19.2843841,16.1031807 C19.3122148,16.2005556 19.3460091,16.2979304 19.3725145,16.3953053 C19.4188989,16.5658791 19.4533559,16.7357814 19.4957645,16.9063553 C19.5441368,17.1004335 19.5938344,17.29384 19.6369056,17.4872466 C19.6514836,17.5550733 19.6720253,17.6235714 19.6859406,17.691398 C19.7150965,17.8297375 19.7296745,17.9653907 19.7555172,18.1037302 C19.8125038,18.4052564 19.8661772,18.704768 19.9085858,19.0042796 C19.9198505,19.0875519 19.9403922,19.1721673 19.9509944,19.254768 C19.9609339,19.3319963 19.9562954,19.4065385 19.9655723,19.4830952 C20.0424379,20.1506166 20.094786,20.812094 20.0927981,21.4581258 L20.0702685,29.5301648 L19.0405347,30.1365751 L19.0630642,22.0652076 C19.0650522,21.4198474 19.012704,20.7576984 18.9358384,20.0915201 C18.9179473,19.930348 18.9013815,19.7705189 18.8781892,19.6086752" mask="url(#bi-judgement-adv-c)"/>
      </g>
      <path fill="#4B5860" d="M33.5650997,2.52250268 C27.6725172,-1.02123152 22.8647085,1.83307568 22.8456551,8.8861389 L22.8234261,16.8390301 C21.7583409,16.6802369 21.0038261,17.4490605 21.0000155,18.8940783 C20.9949346,20.745342 22.2429325,23.007483 23.7983253,23.9430394 C25.3543532,24.8792575 26.618864,24.1282981 26.6239449,22.2763728 C26.6283907,20.831355 25.8713355,19.1547638 24.8087907,18.0326254 L24.8303846,10.0803959 C24.8456273,4.3327448 28.7661826,2.01568782 33.5587486,4.89844546 C38.3513145,7.7812031 42.2369386,14.7925831 42.2210607,20.5402342 L42.1994669,28.4924637 C41.1337465,28.3343322 40.3709753,29.0978627 40.3665295,30.5422188 C40.3620837,32.3941442 41.6183381,34.6615783 43.174366,35.5971347 C44.7303939,36.5326911 45.9949048,35.7823934 45.9999857,33.9304681 C46.0037963,32.4854502 45.2473762,30.8081974 44.1841964,29.6867207 L44.2057902,21.7338295 C44.2254787,14.6801046 39.4481555,6.06094378 33.5650997,2.52250268"/>
      <g transform="translate(0 10)">
        <mask id="bi-judgement-adv-e" fill="#fff">
          <use xlink:href="#bi-judgement-adv-d"/>
        </mask>
        <polygon fill="#FA5D58" points="0 73.627 9.781 73.533 14.117 65.582 14.199 .198 9.816 8.175 .082 8.243" mask="url(#bi-judgement-adv-e)"/>
      </g>
      <g transform="translate(13 10)">
        <mask id="bi-judgement-adv-g" fill="#fff">
          <use xlink:href="#bi-judgement-adv-f"/>
        </mask>
        <polygon fill="#C44639" points=".363 .2 .28 66.314 44.565 91.721 44.648 25.607" mask="url(#bi-judgement-adv-g)"/>
      </g>
      <g transform="translate(0 18)">
        <mask id="bi-judgement-adv-i" fill="#fff">
          <use xlink:href="#bi-judgement-adv-h"/>
        </mask>
        <polygon fill="#FF8585" points=".083 .346 0 66.461 44.285 91.868 44.369 25.754" mask="url(#bi-judgement-adv-i)"/>
      </g>
      <g transform="translate(43 35)">
        <mask id="bi-judgement-adv-k" fill="#fff">
          <use xlink:href="#bi-judgement-adv-j"/>
        </mask>
        <polygon fill="#FA5D58" points=".241 73.737 2.688 68.376 14.358 65.691 14.44 .306 2.693 3.035 .323 8.352" mask="url(#bi-judgement-adv-k)"/>
      </g>
      <path fill="#363F44" d="M8.46624204 27.7817518C8.29745223 27.8192372 8.14076433 27.8925419 8 28L8.98980892 27.2477935C8.99490446 27.2436284 9 27.2402964 9.00509554 27.2361314 9.05031847 27.202811 9.09745223 27.1728227 9.14585987 27.1461665 9.19426752 27.1203432 9.24394904 27.097019 9.29426752 27.0778598 9.34585987 27.0578676 9.39872611 27.0420404 9.4522293 27.0303783 9.45350318 27.0303783 9.45477707 27.0295453 9.45605096 27.0295453 9.45732484 27.0295453 9.45796178 27.0295453 9.45923567 27.0295453 9.51273885 27.0170502 9.56751592 27.0087201 9.62292994 27.003722 9.68407643 26.999557 9.74649682 26.998724 9.80955414 27.002056 9.87197452 27.005388 9.93566879 27.0137181 10 27.0253802L9.01019108 27.7775868C8.81910828 27.7417674 8.63821656 27.7442664 8.46942675 27.7817518 8.46815287 27.7817518 8.46751592 27.7817518 8.46624204 27.7817518M12.1949128 31.8587621C12.1337166 31.4779223 12.0466819 31.0957027 11.9365288 30.7231421 11.9333556 30.7134831 11.9306358 30.7038242 11.927916 30.6941652 11.8154962 30.3195348 11.6808646 29.9545634 11.528554 29.6116696 11.5244742 29.6027006 11.5203945 29.5930416 11.5163147 29.5840725 11.3603777 29.2370392 11.1872151 28.9120836 11 28.6230041L11.7044364 28C11.7669926 28.0965898 11.8281888 28.1973191 11.8880251 28.3014981 11.9442349 28.3994678 11.9986316 28.500887 12.0516683 28.605066 12.0979054 28.6954465 12.1427827 28.7878967 12.1863 28.8831066 12.1980859 28.907944 12.2089652 28.9341612 12.2202979 28.9596885 12.2248309 28.9700375 12.2289107 28.9803864 12.2334437 28.9900453 12.2570156 29.0431697 12.2810408 29.0956042 12.303706 29.1494185 12.3395172 29.2349694 12.3744217 29.3212103 12.4079663 29.409521 12.4406042 29.494382 12.4718823 29.579933 12.5022538 29.6668638 12.5321719 29.7524147 12.5611835 29.8386556 12.5883818 29.9255864 12.6037942 29.9738813 12.6178466 30.0228662 12.6323524 30.071161 12.6350722 30.08082 12.6382454 30.090479 12.6409652 30.0994481 12.649578 30.1298048 12.6590974 30.1594717 12.6677102 30.1898285 12.6935486 30.2802089 12.7180271 30.3705894 12.7411457 30.4623497 12.7651708 30.5568697 12.7878361 30.6520796 12.8086881 30.7479795 12.8309001 30.8500887 12.8517522 30.9528878 12.8703377 31.055687 12.881217 31.1157106 12.8898298 31.1757343 12.8993492 31.235068 12.902069 31.2523162 12.9047889 31.2681845 12.9075087 31.2847428 12.9134017 31.3247585 12.9211079 31.3647743 12.9265475 31.4047901 12.9469463 31.5482949 12.962812 31.6917997 12.9750512 31.8339247 12.9918235 32.0333136 13.0004363 32.2313227 12.999983 32.4251922 12.9981698 33.382811 12.7751436 34.0582496 12.4152191 34.3763059L11.7107827 35C12.0707071 34.6812537 12.2937333 34.0058151 12.2955465 33.0481963 12.2964532 32.6783954 12.2624553 32.2941061 12.2030723 31.9077469 12.2003524 31.8911886 12.1976326 31.8746304 12.1949128 31.8587621M11.0243422 19.6919355C11.0329336 16.7099078 12.1269017 14.6119816 13.8881332 13.6241935L15 13C13.2394845 13.987788 12.1455164 16.0857143 12.136925 19.0677419L12.1125828 27.3758065 11 28 11.0243422 19.6919355zM28 38L28.0057088 37.9950174C28.0038059 37.9966783 28.0019029 37.9983391 28 38L28.9857279 37.2501254C28.9908024 37.2459733 28.9958769 37.2418212 29.0015858 37.2384995 29.0466223 37.204452 29.094196 37.1745567 29.1430384 37.147983 29.1912464 37.1214094 29.2413574 37.0981575 29.2921028 37.0790577 29.3434824 37.0591275 29.396765 37.0433494 29.4506819 37.030893 29.4519505 37.030893 29.4532192 37.030893 29.4538535 37.0300626 29.4551221 37.0300626 29.4563907 37.0300626 29.4576594 37.0300626 29.510942 37.0176062 29.5661275 37.0093019 29.6219474 37.0043194 29.6828417 36.9993368 29.7456391 36.9985064 29.809705 37.0026585 29.8718681 37.0059802 29.9352997 37.0142845 30 37.0259104L29.0142721 37.775785C28.8227085 37.7409071 28.641294 37.742568 28.4719315 37.7799371 28.4706629 37.7799371 28.4693942 37.7799371 28.4687599 37.7799371 28.2993974 37.8181367 28.1420869 37.8920446 28 38M32.2957062 44.0481963C32.2961594 43.6790854 32.2626224 43.294796 32.2027997 42.9084368 32.2005336 42.8918786 32.1973612 42.8746304 32.194642 42.8580721 32.1334597 42.4779223 32.046898 42.0957027 31.9367697 41.7238321L31.9277057 41.6934753C31.8157646 41.3188449 31.6811635 40.9559432 31.5293406 40.6130495 31.5248086 40.6033905 31.5207298 40.5930416 31.5157445 40.5833826 31.3602961 40.2363493 31.1871727 39.9113937 31 39.6230041L31.7042768 39C31.767272 39.0965898 31.8284543 39.1973191 31.8882771 39.3014981 31.944021 39.3994678 31.9988585 39.500887 32.05143 39.605066 32.0976567 39.6954465 32.1429769 39.7885866 32.1860312 39.8824167 32.1982676 39.9086339 32.2091445 39.9355411 32.2209278 39.9610684 32.2250066 39.9700375 32.2290854 39.9796964 32.2331642 39.9886655 32.2567308 40.0417899 32.2807505 40.0949143 32.3034106 40.1494185 32.3396668 40.2349694 32.3741102 40.3219003 32.4081004 40.409521 32.4402778 40.494382 32.472002 40.579933 32.5023666 40.6668638 32.5318247 40.7524147 32.5608297 40.8386556 32.588475 40.9262764 32.6038839 40.9738813 32.61748 41.0228662 32.6319825 41.071161 32.6351549 41.08082 32.6378741 41.090479 32.6405933 41.100138 32.6496574 41.1304948 32.6591746 41.1594717 32.6677855 41.1898285 32.693618 41.2802089 32.718091 41.3712793 32.7407511 41.4616598 32.7647709 41.5568697 32.787431 41.6520796 32.8082783 41.7479795 32.8309384 41.8500887 32.8513325 41.9528878 32.8703671 42.055687 32.8812439 42.1157106 32.8898548 42.1757343 32.899372 42.2357579L32.9070765 42.2847428C32.9134213 42.3247585 32.9206725 42.3654642 32.9265642 42.4047901 32.9465051 42.5482949 32.9628204 42.6917997 32.9750568 42.8339247 32.9918253 43.0340035 33.0004362 43.2313227 32.999983 43.4251922 32.9981702 44.382811 32.7751945 45.0582496 32.4153517 45.3763059L31.7110748 46C32.0709177 45.6812537 32.2938934 45.0058151 32.2957062 44.0481963"/>
      <path fill="#64798B" d="M31.7284591,29.7264339 C31.6847583,29.4367977 31.6285717,29.145851 31.5696103,28.8535936 C31.5286843,28.6517657 31.4919201,28.4499378 31.4440574,28.2467993 C31.399663,28.0600429 31.348332,27.871976 31.2983883,27.6852196 C31.2283283,27.4217948 31.1561874,27.1590253 31.0750289,26.8962559 C31.0285535,26.7455402 30.9793034,26.5948245 30.9293597,26.4441089 C30.8308596,26.1485751 30.7261166,25.8523861 30.6144369,25.5575076 C30.5686552,25.436935 30.5249544,25.3170178 30.4770917,25.1964453 C30.3154683,24.7908235 30.145521,24.3865124 29.960313,23.9854777 C29.9381158,23.9376418 29.913144,23.8904613 29.8909468,23.8426254 C29.7230804,23.4848395 29.5455028,23.1296748 29.3602948,22.7777865 C29.3013335,22.666388 29.2423722,22.5563 29.1820235,22.4455567 C29.0009776,22.113327 28.812995,21.7843737 28.6173822,21.4586968 C28.5778434,21.3931682 28.5403856,21.3263291 28.5001532,21.2608006 C28.2650015,20.8774585 28.0187513,20.5006694 27.7648708,20.1297778 C27.6920362,20.0236215 27.6157333,19.9200864 27.5415114,19.8152407 C27.3528352,19.5478843 27.1593033,19.2844595 26.9609158,19.0243111 C26.8540917,18.8847353 26.7451867,18.7458148 26.635588,18.6082049 C26.4635597,18.3919606 26.2866757,18.1809587 26.1084044,17.9712673 C25.9592669,17.7949955 25.8087421,17.6200343 25.654749,17.4496601 C25.5083862,17.286494 25.3585551,17.1292255 25.208724,16.9713017 C24.9548434,16.7032899 24.6961073,16.4431416 24.4325155,16.1902014 C24.2695047,16.0335881 24.106494,15.875009 23.9393213,15.7242934 C23.8103001,15.6076526 23.6805852,15.4936329 23.5494829,15.3809238 C23.3323665,15.1928568 23.1117818,15.0113427 22.8884224,14.8344157 C22.7566265,14.7302253 22.6255243,14.6253796 22.4923411,14.5251209 C22.2509465,14.3429515 22.0053899,14.1706114 21.7591397,14.0022031 C21.6419107,13.9229135 21.5267627,13.839037 21.4095337,13.7623686 C21.0439735,13.5251552 20.6742513,13.3010476 20.3003671,13.0965985 C19.8043983,12.8259656 19.3181408,12.6057897 18.8388199,12.4098593 C18.6848268,12.3469519 18.5329147,12.2919079 18.3810026,12.2368639 C18.1042312,12.13595 17.8302345,12.0461759 17.5610934,11.9695075 C17.3862904,11.920361 17.2114874,11.8712146 17.0401527,11.8318975 C16.8799167,11.7958568 16.7210679,11.7637478 16.5629128,11.7362258 C16.3541204,11.6988745 16.1474089,11.6680761 15.9441658,11.6464517 C15.8269368,11.6340013 15.7097078,11.6208956 15.5945598,11.6130321 C15.337211,11.59665 15.0854114,11.592063 14.8384675,11.5999264 C14.7843618,11.601237 14.7281752,11.5979606 14.6747631,11.601237 C14.3792628,11.6169639 14.0920865,11.6530046 13.8125405,11.7041168 C13.7417869,11.7172225 13.6731143,11.73426 13.603748,11.7493315 C13.3845506,11.7971674 13.1715962,11.8554878 12.9634974,11.9242928 C12.8975995,11.9465725 12.8303142,11.966231 12.7658036,11.9904766 C12.5015181,12.0887694 12.2441692,12.200168 12,12.3338462 L13.0779517,11.7427787 C13.0994553,11.7309835 13.1209588,11.7191884 13.1424624,11.7073933 C13.3318323,11.6071346 13.5274451,11.5160499 13.7299946,11.4367603 C13.7667587,11.4216888 13.8062975,11.4125148 13.8437553,11.3987538 C13.9082659,11.3745082 13.9748575,11.3548497 14.0407555,11.3325699 C14.1434176,11.2984951 14.2426113,11.259178 14.3473544,11.2303454 C14.4562594,11.2008576 14.5714074,11.1818543 14.6830871,11.1576087 C14.7517597,11.1425372 14.8197386,11.1254997 14.8897986,11.112394 C14.9286437,11.1051859 14.9647141,11.094046 15.0042529,11.0874932 C15.2338552,11.0501419 15.4697005,11.0239305 15.7104015,11.0095142 C15.7242747,11.0088589 15.7388416,11.0101695 15.7527149,11.0095142 C15.8061269,11.0062378 15.8623136,11.0101695 15.9164193,11.0082036 C16.1037082,11.0023061 16.2903034,10.9957532 16.4831416,11.0036166 C16.5448776,11.0062378 16.6100819,11.0173776 16.6718179,11.0219646 C16.7876595,11.0291728 16.9048885,11.0422785 17.0228112,11.0547289 C17.1331035,11.066524 17.2406212,11.0698005 17.3529946,11.0861826 C17.4473327,11.0999436 17.5458328,11.1274656 17.6408646,11.144503 C17.798326,11.172025 17.9564811,11.2034787 18.1167171,11.2401747 C18.2048123,11.2604885 18.2901328,11.2703178 18.3789216,11.2932528 C18.4642421,11.3148772 18.5537246,11.3535391 18.6397388,11.3777846 C18.9095735,11.4544531 19.182183,11.5442272 19.4589543,11.6451411 C19.5574544,11.6805265 19.6517926,11.7008404 19.7509863,11.7401575 C19.805092,11.7611267 19.8619723,11.7958568 19.9167717,11.8174812 C20.3967862,12.0140669 20.8823501,12.2342428 21.3783189,12.5048757 C21.752203,12.7086695 22.1212316,12.9334324 22.4860981,13.1699905 C22.6054081,13.2479695 22.7219434,13.3325013 22.8405597,13.4131014 C23.0854226,13.5801992 23.3295919,13.7512287 23.5689055,13.9320875 C23.703476,14.0336568 23.8359656,14.1391577 23.9684552,14.2446587 C24.1904272,14.4202752 24.4096246,14.6004787 24.6260473,14.7878904 C24.7578432,14.9012548 24.8889455,15.0159297 25.0186604,15.1332258 C25.0984316,15.2053073 25.1809775,15.2721464 25.2593613,15.3455384 C25.3453755,15.4254832 25.4251467,15.5159126 25.5097735,15.597168 C25.774059,15.8514188 26.0327952,16.1115671 26.2866757,16.3795789 C26.3671406,16.4641107 26.4531547,16.5401238 26.5315386,16.6259662 C26.6009049,16.701324 26.6647218,16.7819242 26.7327008,16.857282 C26.8866939,17.0289668 27.0372187,17.203928 27.1877435,17.3801998 C27.2834689,17.4935642 27.3847437,17.601031 27.4797754,17.7163613 C27.5595466,17.8139988 27.6344622,17.9168787 27.7135397,18.0158268 C27.8231384,18.154092 27.9313498,18.2923572 28.0388675,18.4332436 C28.1110084,18.5276047 28.1873113,18.6180341 28.2580649,18.7130505 C28.3815369,18.8801483 28.4980722,19.0518331 28.6180758,19.2215521 C28.6929914,19.3277083 28.7699879,19.4318987 28.8435162,19.5393655 C28.8733437,19.5826144 28.9052522,19.6245527 28.9350796,19.6678015 C29.1424848,19.9757857 29.3443406,20.2877016 29.5392598,20.6028939 C29.5531331,20.6251736 29.5649253,20.6474533 29.5781049,20.6690778 C29.6183373,20.733951 29.6551015,20.8001349 29.6939466,20.8650081 C29.8278235,21.0871499 29.9617004,21.3092917 30.0886406,21.5347099 C30.1482956,21.6402109 30.2024013,21.748333 30.2606689,21.8544892 C30.3203239,21.9645772 30.3799789,22.0746651 30.4382466,22.1854084 C30.488884,22.2823907 30.5436833,22.3774071 30.5929334,22.4743893 C30.7247293,22.7319165 30.8475075,22.9920648 30.9695922,23.2522132 C30.9917894,23.2993937 31.0167612,23.345919 31.0382648,23.3930996 C31.0445077,23.4068606 31.0514444,23.4199663 31.0576873,23.433072 C31.2082121,23.7620253 31.3518003,24.0929445 31.4870645,24.4251742 C31.5113427,24.4841499 31.5314589,24.5450915 31.5550434,24.6047225 C31.6029062,24.7259503 31.6473006,24.8465228 31.6930823,24.9677506 C31.7562056,25.1341931 31.8234909,25.2999804 31.8824522,25.4670782 C31.9275403,25.5942036 31.9636107,25.721329 32.0059241,25.8491096 C32.0572552,26.0017912 32.1065052,26.1538174 32.1536743,26.3064989 C32.1835018,26.4015153 32.2181849,26.4958764 32.2459314,26.5908928 C32.2944878,26.7573353 32.3312519,26.9231226 32.3749527,27.0895651 C32.42559,27.2789426 32.4776147,27.4676648 32.5227028,27.6570423 C32.5379634,27.7232262 32.5594669,27.78941 32.5740338,27.8555938 C32.604555,27.9905826 32.6198156,28.1236056 32.6475621,28.2579391 C32.7065234,28.5521623 32.7627101,28.8450749 32.8071045,29.136677 C32.8188968,29.2179324 32.8404003,29.3004984 32.8514989,29.3817538 C32.8619038,29.4571116 32.8570482,29.529193 32.8667595,29.6045508 C32.9472243,30.2552493 33.0020237,30.9013608 32.9999427,31.5317455 L32.9763582,39.4076219 L31.8984064,40 L31.921991,32.1234683 C31.924072,31.4937389 31.8692726,30.8482827 31.7888077,30.1982395 C31.7700788,30.040971 31.7527373,29.8843577 31.7284591,29.7264339"/>
      <path fill="#4B5860" d="M19.5650997,12.5225027 C13.6725172,8.97876848 8.86470851,11.8330757 8.84565511,18.8861389 L8.82342614,26.8390301 C7.7583409,26.6802369 7.00382614,27.4490605 7.00001546,28.8940783 C6.99493455,30.745342 8.24293245,33.007483 9.79896037,33.9430394 C11.3543532,34.8792575 12.618864,34.1282981 12.6239449,32.2763728 C12.6283907,30.831355 11.8713355,29.1547638 10.8087907,28.0326254 L10.8303846,20.0803959 C10.8456273,14.3327448 14.7661826,12.0156878 19.5587486,14.8984455 C24.3513145,17.7812031 28.2369386,24.7925831 28.2210607,30.5402342 L28.1994669,38.4924637 C27.1337465,38.3343322 26.3709753,39.0978627 26.3665295,40.5422188 C26.3620837,42.3941442 27.6183381,44.6615783 29.174366,45.5971347 C30.7303939,46.5326911 31.9949048,45.7823934 31.9999857,43.9304681 C32.0037963,42.4854502 31.2473762,40.8081974 30.1841964,39.6867207 L30.2057902,31.7338295 C30.2254787,24.6801046 25.4481555,16.0609438 19.5650997,12.5225027"/>
      <g transform="translate(43 37)">
        <mask id="bi-judgement-adv-m" fill="#fff">
          <use xlink:href="#bi-judgement-adv-l"/>
        </mask>
        <polygon fill="#D35443" points="2.37 .403 .284 5.736 .212 71.319 2.366 65.942" mask="url(#bi-judgement-adv-m)"/>
      </g>
      <polygon fill="#D35443" points="0 18.06 8 18 7.978 23"/>
    </g>
  </g>
</svg>
