<svg xmlns="http://www.w3.org/2000/svg" width="280" height="170" viewBox="0 0 280 170">
  <g fill="none" fill-rule="evenodd" transform="translate(1)">
    <polygon fill="#FB992D" points="184 21.783 185.826 37 198 30 198 16"/>
    <polygon fill="#FFB739" points="186 21.174 186 37 173 30 173 16"/>
    <polygon fill="#FB992D" points="173 15.41 177.404 18 185.746 15.492 190 10.59 185.597 8"/>
    <polygon fill="#F67A21" points="181 20.41 185.402 23 198 15.59 193.598 13 185.192 15.544"/>
    <polygon fill="#FFEAC3" points="181 26 177 23.943 177 18 180.856 18.269 181 20.057"/>
    <polygon fill="#FFD488" points="177 16.918 189.299 10 193 12.082 180.701 19"/>
    <path fill="#FFC552" d="M270.986338,67.5596283 L255.082162,67.5596283 L256.380244,64.9643608 C256.55956,64.6049392 256.926052,64.3784249 257.328265,64.3784249 L268.740235,64.3784249 C269.141733,64.3784249 269.509654,64.6049392 269.688971,64.9643608 L270.986338,67.5596283 Z"/>
    <polygon fill="#FFC552" points="255.083 74.983 258.263 74.983 258.263 67.56 255.083 67.56"/>
    <polygon fill="#FC9C47" points="255.083 69.681 258.263 69.681 258.263 67.56 255.083 67.56"/>
    <polygon fill="#FFC552" points="267.805 74.983 270.986 74.983 270.986 67.56 267.805 67.56"/>
    <polygon fill="#FC9C47" points="267.805 69.681 270.986 69.681 270.986 67.56 267.805 67.56"/>
    <path fill="#DDDAC5" d="M278.342465,96.1914593 L247.726464,96.1914593 C247.409266,96.1914593 247.162795,95.9149262 247.19923,95.599807 L249.726809,73.8608691 C249.757529,73.5936252 249.984711,73.3921204 250.254043,73.3921204 L275.814886,73.3921204 C276.084218,73.3921204 276.309971,73.5936252 276.341405,73.8608691 L278.868985,95.599807 C278.90542,95.9149262 278.658948,96.1914593 278.342465,96.1914593"/>
    <path fill="#D1CDB2" d="M278.691311,94.0708 L250.442147,94.0708 C250.124949,94.0708 249.878478,93.7942668 249.915627,93.4791476 L252.250316,73.3922633 L250.253543,73.3922633 C249.984211,73.3922633 249.757743,73.5937681 249.727023,73.861012 L247.199444,95.5999499 C247.163009,95.9150691 247.40948,96.1916023 247.725964,96.1916023 L278.34268,96.1916023 C278.659163,96.1916023 278.905634,95.9150691 278.869199,95.5999499 L278.691311,94.0708 Z"/>
    <path fill="#58AB23" d="M259.432985,79.6764262 C259.505141,79.6164035 259.577296,79.5570954 259.653023,79.5006454 C259.745182,79.4313335 259.805192,79.3463013 259.836626,79.2562673 C259.691601,79.3877456 259.555864,79.5277986 259.432985,79.6764262"/>
    <path fill="#FC7A51" d="M167.011882,61.5242738 C166.548944,60.2988102 165.402318,59.4649233 164.094235,59.4006133 L160.417886,59.2219743 C159.791349,59.1912484 159.162669,59.2376945 158.546848,59.3605982 L145.340996,61.9880207 C144.725176,62.1102097 144.126501,62.3081417 143.55926,62.5761003 L140.231542,64.1488381 C139.046338,64.7083354 138.306924,65.9173642 138.347646,67.2271454 L138.564112,74.1633407 C138.581257,74.6913976 138.971325,75.1329932 139.494272,75.2130235 L144.937355,76.0497686 L148.360803,93.2641377 C148.420099,93.561393 148.708721,93.7543231 149.005915,93.695015 L167.292644,90.0572103 C167.589839,89.9979021 167.782729,89.7092215 167.723433,89.4119662 L164.299985,72.1975971 L169.008655,69.3408021 C169.460876,69.0671272 169.652338,68.5097735 169.465877,68.0153007 L167.011882,61.5242738 Z"/>
    <path fill="#CC6144" d="M158.937773,59.294073 C158.807036,59.3126515 158.677014,59.3348027 158.546991,59.3605267 L145.341139,61.9879492 C145.211117,62.0136732 145.081809,62.0436846 144.953929,62.0765541 C145.72692,65.9322984 149.476853,68.4353882 153.334662,67.667955 C157.193186,66.9005218 159.698619,63.1526755 158.937773,59.294073"/>
    <path fill="#F9977D" d="M142.117439,67.6346567 L138.818298,65.4295368 C138.498957,65.9611665 138.327499,66.5814011 138.348217,67.2273598 L138.563969,74.1635551 C138.581114,74.691612 138.971896,75.1332076 139.494129,75.2132379 L144.937212,76.0492684 L143.749864,70.0777237 C143.550544,69.0787744 142.964014,68.2005851 142.117439,67.6346567"/>
    <path fill="#B2533D" d="M157.322708,59.6042618 C157.913525,62.5753857 155.98462,65.4629066 153.014107,66.0538444 C150.043594,66.6447822 147.156667,64.715481 146.565136,61.744357"/>
    <path fill="#CC6144" d="M138.527962,72.9984 L138.564397,74.1631263 C138.580829,74.6918978 138.97161,75.1327788 139.494558,75.2135237 L144.936926,76.0495542 L144.50971,73.898026 L138.527962,72.9984 Z"/>
    <path fill="#FC7A51" d="M143.222559,70.2388561 C142.925365,70.2981643 142.732474,70.5868449 142.791056,70.8841002 L143.78337,75.8724158 L144.937141,76.0496257 L143.866956,70.6697334 C143.808374,70.3724781 143.519753,70.179548 143.222559,70.2388561"/>
    <polygon fill="#B2533D" points="143.783 75.872 144.937 76.049 144.509 73.897 143.356 73.724"/>
    <path fill="#F9977D" d="M163.68545,63.343462 L165.890116,60.0436423 C166.38806,60.4116386 166.783842,60.9196879 167.011739,61.5242023 L169.465734,68.0152292 C169.652909,68.509702 169.460733,69.0670557 169.008512,69.3414452 L164.299842,72.1975256 L163.111779,66.2252664 C162.913888,65.2270316 163.119638,64.1902109 163.68545,63.343462"/>
    <path fill="#CC6144" d="M169.053948,66.9253169 L169.465448,68.0150149 C169.652623,68.5094876 169.460447,69.0675559 169.008941,69.3412308 L164.30027,72.1973113 L163.871625,70.0457831 L169.053948,66.9253169 Z"/>
    <path fill="#FC7A51" d="M163.661017,66.1727465 C163.958211,66.1134384 164.246118,66.3063685 164.305414,66.6036238 L165.297728,71.5919394 L164.300413,72.1971683 L163.229514,66.8172761 C163.170933,66.5207353 163.363823,66.2320547 163.661017,66.1727465"/>
    <polygon fill="#B2533D" points="165.298 71.592 164.3 72.197 163.872 70.046 164.871 69.444"/>
    <path fill="#CC6144" d="M167.292359,90.0569959 L149.005629,93.6955152 C148.708435,93.7541088 148.419814,93.5611786 148.360518,93.2646379 L148.146909,92.1885165 L167.509539,88.336345 L167.723862,89.4124664 C167.783158,89.7090071 167.589553,89.9976878 167.292359,90.0569959"/>
    <path fill="#F9977D" d="M153.447896,62.6121853 L151.296096,63.0402044 C151.000331,63.098798 150.710281,62.9051533 150.650985,62.6093271 C150.592403,62.3135009 150.786008,62.0226766 151.081773,61.964083 L153.233573,61.536064 C153.529339,61.4774704 153.820103,61.6711151 153.878685,61.9669412 C153.937266,62.2627674 153.742947,62.5528772 153.447896,62.6121853"/>
    <path fill="#B4E1FA" d="M234.203342,33.249435 C234.689141,31.9818126 234.34551,30.5469841 233.339622,29.6359252 L228.97101,25.680143 L218.847119,21.4856992 L212.961103,21.1927312 C211.605869,21.1255629 210.347794,21.897998 209.795556,23.1370381 L202.607886,39.2467036 C202.513584,39.4603559 202.563593,39.7104505 202.734336,39.870511 L205.868449,42.7994762 L205.872736,42.7916161 L204.77326,45.4483353 C204.677529,45.6777078 204.74897,45.9428081 204.946147,46.0935794 L210.970044,50.705324 C211.179366,50.8653845 211.48299,50.8053618 211.615156,50.5767039 L215.522974,43.8334387 L213.389748,51.84647 L221.403989,52.911873 C221.65046,52.944028 221.887644,52.8082624 221.982661,52.5788899 L223.082851,49.9300307 L227.367162,50.0750856 C227.600774,50.0829457 227.813668,49.9414636 227.896539,49.723524 L234.203342,33.249435 Z"/>
    <polygon fill="#91C5E6" points="228.587 23.742 220.489 20.386 222.86 26.114"/>
    <path fill="#B4E1FA" d="M203.33444,39.3768957 L202.081367,41.9828816 C201.977777,42.1986775 202.024928,42.4559176 202.19853,42.6202655 L204.891137,45.1626558 L206.708594,40.7745673 L203.33444,39.3768957 Z"/>
    <polygon fill="#A0D2F0" points="205.696 40.356 204.039 44.358 204.891 45.163 206.708 40.775"/>
    <path fill="#A0D2F0" d="M215.543549,33.7591992 L213.518913,32.9203104 C212.960245,32.6887943 212.694485,32.047123 212.925954,31.4883402 L214.184028,28.4507625 C214.299762,28.1713711 214.619818,28.0384637 214.899866,28.1542218 L217.936819,29.4125549 C218.216153,29.528313 218.349033,29.8484341 218.233299,30.1285401 L216.975224,33.1661177 C216.743756,33.7256151 216.102216,33.9907154 215.543549,33.7591992"/>
    <path fill="#91C5E6" d="M218.023763,30.6347316 C217.792294,31.1935144 217.150755,31.4593292 216.592087,31.2278131 L214.567451,30.3889243 C214.008069,30.1574081 213.743023,29.5164514 213.974492,28.956954 L212.925739,31.4879114 C212.694271,32.0474088 212.960031,32.6890801 213.518699,32.9198817 L215.543334,33.759485 C216.102717,33.9910012 216.743542,33.7251863 216.97501,33.165689 L218.023763,30.6347316 Z"/>
    <path fill="#A0D2F0" d="M209.795484,23.1371811 L202.607815,39.2468465 C202.513513,39.4604988 202.563521,39.7105934 202.734265,39.8699394 L205.868378,42.7996191 L205.872664,42.791759 L212.353783,27.141553 C212.632403,26.4705849 212.632403,25.7160137 212.353783,25.0443311 L210.98569,21.7409386 C210.476316,22.0789236 210.055529,22.5533888 209.795484,23.1371811"/>
    <path fill="#91C5E6" d="M211.443412,27.9084145 C211.163364,27.7926564 210.843308,27.9255639 210.727574,28.2049553 L205.014444,42.0008884 L205.868163,42.7990474 L205.87245,42.7919019 L211.739892,28.6243996 C211.855626,28.3450082 211.72346,28.0241726 211.443412,27.9084145"/>
    <path fill="#B4E1FA" d="M227.291577,49.3025076 L226.334269,52.0313971 C226.256399,52.2564822 226.040647,52.4051099 225.802034,52.3986788 L222.099967,52.2929246 L223.917423,47.9041215 L227.291577,49.3025076 Z"/>
    <polygon fill="#A0D2F0" points="224.93 48.324 223.273 52.326 222.1 52.293 223.918 47.905"/>
    <path fill="#A0D2F0" d="M234.203342,33.249435 L227.897253,49.723524 C227.813668,49.9421782 227.600774,50.0836603 227.367162,50.0750856 L223.080707,49.9300307 L223.082851,49.9221706 L229.563255,34.2712501 C229.841875,33.600282 230.374824,33.0665086 231.045654,32.7885463 L234.349082,31.4201715 C234.470531,32.0189695 234.431953,32.6527807 234.203342,33.249435"/>
    <path fill="#91C5E6" d="M229.664987,35.4576274 C229.945036,35.5733855 230.077201,35.8942212 229.961467,36.1736126 L224.248338,49.9695457 L223.080279,49.9302451 L223.082422,49.9216704 L228.949149,35.7541682 C229.064884,35.4747768 229.385653,35.3418693 229.664987,35.4576274"/>
    <path fill="#A0D2F0" d="M228.587087,23.7418384 L223.069705,25.6082587 L220.488545,20.3862833 L218.846833,21.485985 L219.599106,25.9769696 C219.653401,26.3006635 219.977028,26.5043119 220.292083,26.4128488 L221.84878,25.9619639 C222.069533,25.8983684 222.265995,26.1177371 222.178123,26.3299603 L215.712006,41.9444384 C215.239067,43.0855844 214.843285,44.2567417 214.524658,45.4500503 L212.96939,51.2936894 C212.900806,51.5495005 213.072979,51.8067406 213.335167,51.8410393 L213.935985,51.9196405 L215.584127,45.7330145 C215.88918,44.5854375 216.26996,43.4600118 216.725038,42.3631683 L223.190441,26.7494046 C223.278313,26.5371815 223.572649,26.5207467 223.683383,26.721537 L224.464946,28.1420743 C224.623545,28.4293259 224.997181,28.514358 225.263656,28.3242861 L228.97001,25.6797143 L228.587087,23.7418384 Z"/>
    <path fill="#A0D2F0" d="M224.205044,24.2989777 L223.192727,23.8795333 C222.914107,23.7637752 222.781227,23.4415105 222.896247,23.1635482 C223.011981,22.8848713 223.333465,22.7512493 223.612085,22.8670074 L224.624403,23.2864518 C224.903736,23.4014953 225.036617,23.7237601 224.920882,24.0017224 C224.805862,24.2811138 224.484378,24.4140212 224.205044,24.2989777"/>
    <path fill="#91C5E6" d="M223.417408 30.4969652C223.697457 30.6127232 223.829622 30.9328443 223.713888 31.2129503 223.598154 31.4923417 223.278099 31.6252491 222.99805 31.509491 222.718002 31.393733 222.585836 31.0728973 222.70157 30.7935059 222.817305 30.5133999 223.13736 30.3812071 223.417408 30.4969652M221.949512 34.0407343C222.22956 34.1564924 222.361726 34.4766135 222.245992 34.7567194 222.130257 35.0361108 221.810202 35.1690182 221.530154 35.0532602 221.25082 34.9375021 221.11794 34.6166664 221.233674 34.337275 221.349408 34.0571691 221.670178 33.9249762 221.949512 34.0407343M220.48233 37.5845749C220.761664 37.700333 220.894544 38.020454 220.77881 38.30056 220.663076 38.5799514 220.342306 38.7128588 220.062972 38.5971008 219.782924 38.4813427 219.650758 38.160507 219.766492 37.8811156 219.882226 37.6010097 220.202282 37.4688168 220.48233 37.5845749M219.014434 41.1284155C219.294482 41.2441735 219.426648 41.5650092 219.310913 41.8444006 219.195179 42.123792 218.875124 42.2566994 218.595076 42.1409413 218.315027 42.0251833 218.182862 41.7043476 218.298596 41.4249562 218.41433 41.1455648 218.734385 41.0126574 219.014434 41.1284155M217.547252 44.672256C217.826586 44.7880141 217.959466 45.1088498 217.843732 45.3882412 217.727997 45.6676326 217.407228 45.80054 217.127179 45.6847819 216.847845 45.5690239 216.71568 45.2481882 216.831414 44.9687968 216.947148 44.6894054 217.267203 44.556498 217.547252 44.672256"/>
    <path fill="#F5DCB4" d="M132.538857,6.56455471 L132.538857,4.44375244 C132.538857,4.16221737 132.427409,3.89282975 132.228089,3.69346862 L129.850535,1.31542618 C129.651215,1.11677961 129.381883,1.00530887 129.10112,1.00530887 L126.980754,1.00530887 C126.699277,1.00459431 126.429945,1.11677961 126.230624,1.31542618 L123.167953,4.3794424 L124.666783,5.87929549 L128.040937,2.5044474 L131.039312,5.50415357 L127.665872,8.87828711 L129.165417,10.3781402 L132.228089,7.31412398 C132.427409,7.1154774 132.538857,6.84608978 132.538857,6.56455471"/>
    <path fill="#FAEBC8" d="M129.850392 1.31564055C129.651787 1.11627942 129.38174 1.00480868 129.100977 1.00480868L126.980611 1.00480868C126.852732 1.00480868 126.728425 1.03053269 126.611262 1.07483517L132.469416 6.93419454C132.512995 6.8162928 132.538714 6.69196005 132.538714 6.56405452L132.538714 4.44325225C132.538714 4.16243173 132.427266 3.89232956 132.22866 3.69368298L129.850392 1.31564055zM113.860631 30.3133957L103.236653 19.6865186C103.038048 19.487872 102.925885 19.2184844 102.925885 18.9369493L102.925885 16.0665778C102.925885 15.7850427 103.038048 15.5156551 103.236653 15.3162939L118.294968.254882133C118.501432.0483754426 118.837205.0483754426 119.044383.254882133L133.288272 14.5024146C133.49545 14.7096359 133.49545 15.0447627 133.288272 15.2519839L118.230671 30.3133957C118.031351 30.5120423 117.762019 30.6242276 117.480542 30.6242276L114.610761 30.6242276C114.329283 30.6242276 114.059237 30.5120423 113.860631 30.3133957"/>
    <path fill="#F5DCB4" d="M131.039241,15.2519124 L118.294897,2.50494759 C118.087718,2.29772634 118.087718,1.96188501 118.294897,1.75466377 C118.501361,1.54744252 118.837133,1.54744252 119.044312,1.75466377 L131.788656,14.5023432 C131.995834,14.7095644 131.995834,15.0446912 131.788656,15.2519124 C131.582192,15.4591337 131.246419,15.4591337 131.039241,15.2519124"/>
    <path fill="#466289" d="M164.854723,46.8696587 C165.055472,47.8793264 164.399645,48.8604118 163.390185,49.061202 L162.417159,47.3548423 L162.663631,45.4048189 C163.673091,45.2040286 164.653974,45.8599911 164.854723,46.8696587"/>
    <path fill="#354A67" d="M162.663345 45.4048903L163.390613 49.0612735C162.380439 49.2620637 161.399555 48.6061013 161.198806 47.5971482 160.998057 46.5874806 161.653885 45.6056806 162.663345 45.4048903M147.184957 50.3848456C147.385706 51.3945133 146.729879 52.3763132 145.720419 52.5771035L144.748108 50.8700292 144.993865 48.9207203C146.003325 48.7192155 146.984209 49.375178 147.184957 50.3848456"/>
    <path fill="#233145" d="M144.993579,48.920506 L145.720847,52.5768891 C144.711387,52.7776794 143.729789,52.1217169 143.529755,51.1120493 C143.328291,50.1023816 143.984119,49.1212962 144.993579,48.920506"/>
    <polygon fill="#FFB739" points="152.813 27.725 160.734 26.15 161.491 29.958 157.957 31.295 154.18 31.413"/>
    <polygon fill="#FB992D" points="161.491 29.958 162.249 33.768 158.714 35.104 154.937 35.222 153.571 31.535"/>
    <polygon fill="#FFD488" points="154.328 35.343 162.249 33.767 163.006 37.576 159.471 38.913 155.695 39.031"/>
    <polygon fill="#FFB739" points="163.007 37.576 163.764 41.385 155.965 43.57 155.085 39.152"/>
    <polygon fill="#F67A21" points="141.237 30.029 153.423 27.604 154.938 35.222 148.965 37.044 142.752 37.647"/>
    <polygon fill="#FB992D" points="154.937 35.222 142.752 37.646 144.388 45.874 156.573 43.449"/>
    <polygon fill="#466289" points="141.829 45.749 165.591 41.021 165.955 42.849 140.974 47.819"/>
    <polygon fill="#354A67" points="138.318 24.907 142.439 45.627 140.974 47.819 136.854 27.099 133.807 27.706 133.444 25.877"/>
    <path fill="#DCB991" d="M196.125481,63.7663362 L194.045122,53.8833119 C193.982968,53.5874857 193.674343,53.4145631 193.392152,53.5217465 C192.670598,53.7932778 191.396093,54.4063669 190.640962,55.5389382 L191.73758,61.5726492 L196.125481,63.7663362 Z"/>
    <path fill="#F09846" d="M211.183153,69.6146914 C211.045986,68.5157043 210.113682,67.6882484 209.006348,67.6939648 C207.118879,67.7025395 203.541119,67.5188986 200.512024,66.509231 L192.287032,59.9267409 L189.544416,55.5386524 L185.284394,56.9591897 C184.837174,57.108532 184.368522,57.1842749 183.897726,57.1842749 L182.415327,57.1842749 C181.507313,57.1842749 180.770758,57.9209821 180.770758,58.8298974 L180.770758,71.994163 L205.996543,74.18785 L211.480347,71.994163 L211.183153,69.6146914 Z"/>
    <path fill="#AA6455" d="M190.64182,63.7663362 L190.64182,57.2938878 L189.544487,55.5389382 L185.284466,56.9594756 C184.837246,57.1081032 184.368593,57.1845607 183.897798,57.1845607 L182.415399,57.1845607 C181.507385,57.1845607 180.770829,57.921268 180.770829,58.8301832 L180.770829,63.7663362 L190.64182,63.7663362 Z"/>
    <path fill="#9B5A50" d="M188.495806,55.8884275 L189.041615,58.6144588 C189.105911,58.9381526 189.02304,59.2704212 188.813718,59.5255177 C188.604396,59.7806142 188.295772,59.9263836 187.965715,59.9263836 L184.060754,59.9263836 C182.749814,59.9263836 181.574611,60.5073177 180.770901,61.4219494 L180.770901,63.7664077 L190.641891,63.7664077 L190.641891,57.2939592 L189.544559,55.5390096 L188.495806,55.8884275 Z"/>
    <path fill="#DC8C46" d="M190.092725,71.445384 C192.835341,68.1548535 197.096791,68.2434584 198.693496,68.5385701 C199.140716,68.6214586 199.589365,68.4128082 199.823691,68.0226606 L200.814576,66.3713217 C200.955315,66.1362327 200.90102,65.8325464 200.686697,65.661053 L192.835341,59.3786764 L192.136649,56.5869061 C191.917326,55.7051439 191.0236,55.1692269 190.142019,55.3893102 L189.544059,55.5386524 L190.1163,58.3997347 C190.387776,59.7573911 189.349739,61.0242989 187.965214,61.0242989 L184.060969,61.0242989 C182.243512,61.0242989 180.7704,62.4977135 180.7704,64.3148294 L180.7704,70.8966049 L190.092725,71.445384 Z"/>
    <path fill="#EBC9A0" d="M203.254212,72.5423704 C195.194963,72.5423704 189.69187,70.4365738 180.778188,70.3515416 C180.473849,70.3479688 180.222377,70.5966343 180.222377,70.9017497 L180.222377,74.7367719 C180.222377,75.0397437 180.46742,75.2848364 180.770329,75.2848364 L189.544701,75.2848364 C189.847611,75.2848364 190.092653,75.0397437 190.092653,74.7367719 L190.092653,73.8850211 C194.425544,74.5138304 198.372655,75.2848364 203.254212,75.2848364 C207.622824,75.2848364 210.599052,74.5888588 211.629944,74.3058946 C211.867128,74.2401555 212.028584,74.0243595 212.028584,73.7778377 L212.028584,72.1700867 C212.028584,71.8120941 211.694955,71.5491375 211.348467,71.6377424 C210.119683,71.9521471 207.277764,72.5423704 203.254212,72.5423704"/>
    <path fill="#AA6455" d="M195.927304 64.3909296C195.78728 64.3909296 195.646541 64.3373379 195.53938 64.2301545 195.325057 64.0165023 195.325057 63.6692281 195.53938 63.4548613L196.635998 62.3573032C196.85032 62.143651 197.197523 62.143651 197.411846 62.3573032 197.626169 62.5723846 197.626169 62.9189442 197.411846 63.133311L196.315228 64.2301545C196.208067 64.3373379 196.067328 64.3909296 195.927304 64.3909296M198.821946 66.7376031C198.681922 66.7376031 198.540469 66.6840114 198.434022 66.576828 198.2197 66.3624612 198.2197 66.0151869 198.434022 65.8008201L199.53064 64.7039766C199.744963 64.4896098 200.092166 64.4896098 200.306489 64.7039766 200.520811 64.9183434 200.520811 65.2656177 200.306489 65.4799845L199.209871 66.576828C199.102709 66.6840114 198.961971 66.7376031 198.821946 66.7376031M197.374268 65.5642306C197.234244 65.5642306 197.093505 65.5106389 196.986344 65.4034555 196.772021 65.1898033 196.772021 64.842529 196.986344 64.6281622L198.082962 63.5313187C198.297284 63.3169519 198.644487 63.3169519 198.85881 63.5313187 199.073133 63.7456856 199.073133 64.0922452 198.85881 64.306612L197.762192 65.4034555C197.655031 65.5106389 197.514292 65.5642306 197.374268 65.5642306M194.48034 63.2179145C194.340315 63.2179145 194.198862 63.1643228 194.092415 63.0571394 193.878093 62.8434871 193.878093 62.4962129 194.092415 62.2811315L195.189033 61.184288C195.403356 60.9699212 195.750559 60.9699212 195.964882 61.184288 196.179204 61.3986548 196.179204 61.7459291 195.964882 61.9602959L194.867549 63.0571394C194.761102 63.1643228 194.620364 63.2179145 194.48034 63.2179145"/>
    <path fill="#DCB991" d="M180.778188,73.0936503 C180.473849,73.0907921 180.222377,73.3394576 180.222377,73.644573 L180.222377,74.7364146 C180.222377,75.0393864 180.46742,75.2851936 180.770329,75.2851936 L189.544701,75.2851936 C189.847611,75.2851936 190.092653,75.0393864 190.092653,74.7364146 L190.092653,73.8825202 C187.273595,73.4745087 184.290937,73.1272345 180.778188,73.0936503"/>
    <path fill="#FC7A51" d="M113.415483,47.0392229 L105.815599,53.9489796 C105.426246,54.3012557 104.920444,54.4963295 104.396068,54.4977586 L93.0183888,54.4963295 C92.725481,54.4963295 92.4890116,54.7335621 92.4890116,55.0265301 L92.489726,62.449338 C92.489726,62.742306 92.7276243,62.9795386 93.0198176,62.9795386 L105.982056,62.9795386 C107.534467,62.9795386 109.034012,62.4114665 110.19707,61.3825059 L119.136471,53.4359284 C120.93321,51.8453267 121.078235,49.0907132 119.456526,47.3214725 C117.862679,45.5822431 115.164356,45.4564813 113.415483,47.0392229"/>
    <path fill="#FFDC64" d="M92.4883687,55.0259584 L92.4883687,62.4494809 C92.4883687,62.7417343 92.7262669,62.9796815 93.0184602,62.9796815 L96.7298154,62.9796815 L96.7298154,54.4957579 L93.0184602,54.4957579 C92.7262669,54.4957579 92.4883687,54.7329905 92.4883687,55.0259584"/>
    <path fill="#FFC850" d="M96.7294582,61.9189231 L96.7294582,62.9793242 L93.0188174,62.9793242 C92.7259097,62.9793242 92.4880115,62.7420916 92.4880115,62.4491237 L92.4880115,61.9189231 L96.7294582,61.9189231 Z"/>
    <polygon fill="#FFC850" points="92.488 60.858 96.73 60.858 96.73 59.798 92.488 59.798"/>
    <path fill="#CC6144" d="M113.415483,47.0392229 L105.815599,53.9489796 C105.426246,54.3012557 104.920444,54.4963295 104.396068,54.4977586 L97.7892127,54.4963295 L96.729744,54.4963295 L93.0183888,54.4963295 C92.725481,54.4963295 92.4890116,54.7335621 92.4890116,55.0265301 L92.4890116,58.737934 L96.729744,58.737934 L96.729744,62.9795386 L97.7892127,62.9795386 L97.7892127,58.737934 L102.271415,58.737934 C104.083871,58.737934 105.830601,58.0755406 107.188693,56.8743719 L116.130237,48.9263653 C116.950379,48.2003764 117.515477,47.2428713 117.773378,46.1953322 C116.323842,45.6644171 114.637837,45.9330901 113.415483,47.0392229"/>
    <path fill="#FFDC64" d="M108.656732 58.2075906C106.168445 58.2075906 104.150954 60.2254968 104.150954 62.7142954 104.150954 62.8036149 104.159527 62.8915053 104.164528 62.9793957L105.981985 62.9793957C107.534396 62.9793957 109.03394 62.4113236 110.196998 61.382363L112.039459 59.743886C111.214317 58.8035303 110.006251 58.2075906 108.656732 58.2075906M119.456597 47.3214725C117.862751 45.5822431 115.164428 45.4564813 113.415554 47.0392229L113.004055 47.4129357 118.496432 54.004715 119.136542 53.4359284C120.933281 51.8453267 121.078306 49.0907132 119.456597 47.3214725"/>
    <path fill="#FFC850" d="M105.210994 62.7144383C105.210994 62.8037578 105.218139 62.8916482 105.224568 62.9795386L105.981842 62.9795386C107.534253 62.9795386 109.033797 62.4114665 110.196855 61.3825059L111.248466 60.4478666C110.616214 59.726165 109.691054 59.2681346 108.656589 59.2681346 106.754118 59.2681346 105.210994 60.8108611 105.210994 62.7144383M119.456597 47.3214725C118.112794 45.8552035 115.985284 45.5407989 114.302136 46.4254192L119.668063 52.8664272C120.940425 51.2465287 120.898989 48.8949249 119.456597 47.3214725"/>
    <polygon fill="#FFC850" points="92.488 58.737 96.73 58.737 96.73 57.677 92.488 57.677"/>
    <path fill="#FFC850" d="M113.004197,47.4128642 L115.058124,49.878797 L116.129737,48.9262939 C116.950593,48.2003049 117.514976,47.2427999 117.772878,46.1952608 C116.324056,45.6643456 114.638051,45.9330187 113.415697,47.0391514 L113.004197,47.4128642 Z"/>
    <path fill="#F5B44B" d="M116.270333,48.7878844 C117.01189,48.0811885 117.529122,47.182277 117.772021,46.200477 C116.648255,45.7903219 115.384466,45.856061 114.302136,46.4248476 L116.270333,48.7878844 Z"/>
    <path fill="#FC7A51" d="M109.704628,41.7368599 L102.104744,48.6466166 C101.715391,48.9988928 101.209589,49.1946811 100.685213,49.1953957 L89.3075336,49.1939665 C89.0153403,49.1939665 88.7781565,49.4311991 88.7781565,49.7241671 L88.7788709,57.1469751 C88.7788709,57.439943 89.0167691,57.6771756 89.3089625,57.6771756 L102.271201,57.6771756 C103.823612,57.6771756 105.323157,57.1091036 106.486215,56.0801429 L115.425616,48.1335654 C117.223069,46.5436783 117.36738,43.7883503 115.745671,42.0191095 C114.152539,40.2798802 111.453501,40.1541183 109.704628,41.7368599"/>
    <path fill="#FFDC64" d="M88.7777993,49.7240242 L88.7777993,57.1468322 C88.7777993,57.4398001 89.0149831,57.6770327 89.3078908,57.6770327 L93.0185317,57.6770327 L93.0185317,49.1938236 L89.3078908,49.1938236 C89.0149831,49.1938236 88.7777993,49.4310562 88.7777993,49.7240242"/>
    <path fill="#FFC850" d="M93.0186031,56.6166316 L93.0186031,57.6770327 L89.3079623,57.6770327 C89.0150546,57.6770327 88.7778707,57.4398001 88.7778707,57.1468322 L88.7778707,56.6166316 L93.0186031,56.6166316 Z"/>
    <polygon fill="#FFC850" points="88.778 55.557 93.019 55.557 93.019 54.496 88.778 54.496"/>
    <polygon fill="#FFC850" points="88.778 53.435 93.019 53.435 93.019 52.375 88.778 52.375"/>
    <polygon fill="#FFC850" points="88.778 51.314 93.019 51.314 93.019 50.254 88.778 50.254"/>
    <polygon fill="#CC6144" points="93.019 57.677 94.079 57.677 94.079 49.194 93.019 49.194"/>
    <path fill="#FFDC64" d="M104.946234 52.9052991C102.457233 52.9052991 100.440456 54.9232053 100.440456 57.4120039 100.440456 57.502038 100.448315 57.5892138 100.453316 57.6771042L102.271487 57.6771042C103.823898 57.6771042 105.322728 57.1090321 106.485786 56.0800715L108.328961 54.4415945C107.503105 53.5012388 106.295753 52.9052991 104.946234 52.9052991M115.745742 42.019181C114.15261 40.2799516 111.453572 40.1541898 109.704699 41.7369314L109.293199 42.1106442 114.785576 48.7024235 115.425687 48.1336369C117.22314 46.5437497 117.367451 43.7884217 115.745742 42.019181"/>
    <path fill="#FFC850" d="M101.500425 57.4121468C101.500425 57.5014663 101.506855 57.5893567 101.513999 57.6772471L102.271272 57.6772471C103.823683 57.6772471 105.323228 57.1091751 106.486286 56.0802144L107.537182 55.1455751C106.905644 54.4238735 105.980484 53.9658431 104.94602 53.9658431 103.042834 53.9658431 101.500425 55.5085696 101.500425 57.4121468M115.745742 42.019181C114.401939 40.552912 112.274429 40.2385074 110.591281 41.1231277L115.957922 47.5641357C117.22957 45.9442372 117.188134 43.5926334 115.745742 42.019181"/>
    <path fill="#00C3FF" d="M105.459323,92.5101382 C104.792779,93.1768189 103.70402,93.1482367 103.073197,92.4472573 L97.9973201,86.6893648 C97.6143968,86.2549148 97.6351146,85.5975232 98.0444711,85.1880826 L98.4795462,84.7536326 C98.6938689,84.5392658 99.0410717,84.5392658 99.2553945,84.7536326 L99.4718604,84.970143 C99.8054895,85.3038407 100.315578,85.3867292 100.737793,85.1752206 L103.774746,83.6567891 C104.331985,83.3781122 104.684189,82.8078965 104.684189,82.1848037 L104.684189,78.1318419 C104.684189,77.4494409 105.101404,76.8392101 105.738657,76.596261 C108.642016,75.4879846 116.713409,72.3568002 119.419591,70.7904934 C120.234017,70.3181718 120.935567,69.8179826 121.508523,69.3599522 C122.602998,68.4846211 124.174698,68.5660805 125.165583,69.5564551 L126.011444,70.4024894 L125.235595,74.2810995 L105.847247,92.1228488 L105.459323,92.5101382 Z"/>
    <polygon fill="#FAEBC8" points="115.49 74.042 113.489 82.024 110.857 83.831 112.646 76.692"/>
    <polygon fill="#EBC9A0" points="109.751 78.764 107.962 85.903 110.857 83.831 112.646 76.692"/>
    <path fill="#0096DC" d="M108.48406,85.2595382 L109.846438,79.7231582 C109.943597,79.3358688 110.177924,78.9957402 110.506552,78.7685113 C112.082538,77.6773843 116.849076,74.4047177 117.162701,71.9216355 C113.61566,73.5572543 108.046841,75.7152135 105.738586,76.596261 C105.101333,76.8392101 104.684118,77.4494409 104.684118,78.1318419 L104.684118,82.1848037 C104.684118,82.8078965 104.331914,83.3781122 103.774675,83.6567891 L100.737722,85.1752206 C100.315506,85.3867292 99.805418,85.3038407 99.471789,84.970143 L99.255323,84.7536326 C99.0410003,84.5392658 98.6937975,84.5392658 98.4794747,84.7536326 L98.0443996,85.1880826 C97.6350432,85.5982378 97.6143253,86.2549148 97.9972486,86.6893648 L102.241553,91.5033287 L108.48406,85.2595382 Z"/>
    <path fill="#00AAF0" d="M107.365366,90.7251772 L120.792685,78.3697891 L119.138114,76.7155919 C112.961333,82.0111666 104.577028,87.7490514 104.577028,87.7490514 L107.365366,90.7251772 Z"/>
    <path fill="#0096DC" d="M122.921553,68.775231 C122.3686,69.9864035 121.155534,72.3137124 118.969442,75.0418873 C118.76012,75.3041294 118.630812,75.6235359 118.606522,75.9586627 L118.255747,80.4868042 L125.235524,74.2815997 L126.011372,70.4029896 L125.165512,69.5569553 C124.555407,68.9467245 123.725263,68.6844824 122.921553,68.775231"/>
    <path fill="#EBC9A0" d="M107.471028 77.7717057C107.37744 77.8660271 107.248846 77.9260498 107.105965 77.9317662 106.803055 77.9446282 106.548011 77.7095393 106.535152 77.4065676L106.486572 76.2432704C106.474427 75.9402986 106.710182 75.6844876 107.011663 75.6723401 107.314572 75.6594781 107.569616 75.8952816 107.58319 76.1975388L107.63177 77.360836C107.638199 77.5208965 107.575331 77.6673805 107.471028 77.7717057M109.383001 76.9796918C109.289413 77.0740132 109.160819 77.1340359 109.017938 77.1397523 108.715028 77.1526144 108.459984 76.9175254 108.447125 76.6145537L108.398545 75.4512565C108.385686 75.1482847 108.622869 74.8917591 108.923636 74.8803262 109.226545 74.8674642 109.481589 75.1032677 109.494448 75.4055249L109.543028 76.5688221C109.550172 76.7288826 109.487304 76.8753666 109.383001 76.9796918M111.294974 76.1876779C111.201386 76.2819993 111.072792 76.342022 110.929911 76.3477385 110.627001 76.3606005 110.371957 76.1255115 110.359098 75.8225398L110.310518 74.6592426C110.298373 74.3555563 110.534842 74.1004598 110.835609 74.0883123 111.138518 74.0754503 111.393562 74.3112538 111.407136 74.613511L111.455716 75.7768082C111.462145 75.9368687 111.399277 76.0833527 111.294974 76.1876779M113.20659 75.3963786C113.113002 75.4899854 112.984408 75.5507227 112.842241 75.5564391 112.538617 75.5693011 112.283573 75.3342122 112.270714 75.0312404L112.222848 73.8679432C112.209989 73.5649715 112.446458 73.309875 112.747224 73.297013 113.050848 73.284151 113.305892 73.5199545 113.318752 73.8222117L113.367332 74.9855089C113.373761 75.1448548 113.310893 75.2920534 113.20659 75.3963786M109.337278 88.6317425L105.653785 87.5792014C104.527162 87.2569367 103.322668 87.3469707 102.255341 87.8314397L99.934226 88.886839 103.07334 92.4474716C103.703448 93.1484511 104.792922 93.1770333 105.459466 92.5103525L109.337278 88.6317425z"/>
    <path fill="#FAEBC8" d="M119.419234,79.3232926 C115.929345,82.8138988 113.214591,84.7532038 109.724702,88.24381 L104.50523,92.9791728 L106.299111,94.7734229 C106.513434,94.9870752 106.859922,94.9870752 107.074245,94.7734229 L119.807158,82.037891 C123.616387,78.2278783 125.866061,74.4178655 126.557609,73.1609615 C126.705492,72.8922884 126.735497,72.5750256 126.637623,72.2827722 L126.011801,70.4027753 C126.011801,70.4027753 123.684971,75.0566786 119.419234,79.3232926"/>
    <polygon fill="#F67A21" points="37.682 61.736 37.682 66.366 35.508 66.366 35.508 62.358"/>
    <polygon fill="#FB992D" points="40.943 60.183 41.565 61.27 40.943 62.357 35.508 62.357 37.682 60.183"/>
    <polygon fill="#FFB739" points="40.943 65.745 41.565 73.823 40.943 81.9 35.663 82.522 30.383 81.9 30.383 65.745"/>
    <polygon fill="#BB4919" points="46.379 62.358 46.379 66.366 44.205 66.366 44.205 61.736"/>
    <polygon fill="#F67A21" points="46.379 62.358 40.943 62.358 40.943 60.183 44.205 60.183"/>
    <polygon fill="#FFB739" points="40.943 85.318 41.565 87.134 40.943 88.736 30.383 88.736 35.058 85.318 38 84.696"/>
    <polygon fill="#FB992D" points="40.943 81.9 40.943 85.318 35.058 85.318 30.383 81.9"/>
    <polygon fill="#F67A21" points="30.383 81.9 36.301 85.318 30.383 88.735"/>
    <polygon fill="#FB992D" points="51.504 65.745 51.504 81.9 46.224 82.522 40.943 81.9 40.943 65.745"/>
    <polygon fill="#FB992D" points="51.504 88.735 40.943 88.735 40.943 85.318 43.886 84.697 46.829 85.318"/>
    <polygon fill="#F67A21" points="51.504 81.9 46.829 85.318 40.943 85.318 40.943 81.9"/>
    <polygon fill="#BB4919" points="51.504 88.735 45.586 85.318 51.504 81.901"/>
    <path fill="#BB4919" d="M72.6698032,65.5122824 L71.1974061,65.5122824 L71.1974061,60.1145262 C71.1974061,57.5214024 69.0884704,55.4127476 66.4958798,55.4127476 C63.9040037,55.4127476 61.795068,57.5214024 61.795068,60.1145262 L61.795068,65.5122824 L60.3226709,65.5122824 L60.3226709,60.1145262 C60.3226709,56.7096668 63.0924349,53.9393331 66.4958798,53.9393331 C69.9007536,53.9393331 72.6698032,56.7096668 72.6698032,60.1145262 L72.6698032,65.5122824 Z"/>
    <path fill="#FF8C00" d="M65.6791674,65.5122824 L64.2060558,65.5122824 L64.2060558,60.1145262 C64.2060558,57.5214024 62.0978346,55.4127476 59.505244,55.4127476 C56.9133678,55.4127476 54.8044322,57.5214024 54.8044322,60.1145262 L54.8044322,65.5122824 L53.332035,65.5122824 L53.332035,60.1145262 C53.332035,56.7096668 56.1010847,53.9393331 59.505244,53.9393331 C62.9094033,53.9393331 65.6791674,56.7096668 65.6791674,60.1145262 L65.6791674,65.5122824 Z"/>
    <polygon fill="#FF9E24" points="76.983 63.222 73.487 63.222 70.542 74.488 73.487 85.753 76.983 85.753"/>
    <polygon fill="#FF8C00" points="69.992 63.222 67.046 74.488 69.992 85.753 73.487 85.753 73.487 63.222"/>
    <polygon fill="#FFB14D" points="49.019 85.752 69.991 85.752 69.991 63.222 49.019 63.222"/>
    <polygon fill="#CCC" points="36.65 146.754 36.65 168.221 57.662 168.221 57.662 146.748"/>
    <path stroke="#000" stroke-linecap="round" stroke-linejoin="round" stroke-width="15" d="M86.9823464,140.657209 L7.41503387,140.657209"/>
    <path fill="#424242" d="M93.7473004,90.1012984 C93.7473004,87.5882049 91.6919454,85.5324272 89.1793686,85.5324272 L5.13128233,85.5324272 C2.61941996,85.5324272 0.5633506,87.5882049 0.5633506,90.1012984 L0.5633506,140.814768 L47.1556827,145.38364 L93.7473004,140.814768 L93.7473004,90.1012984 Z"/>
    <path fill="#EEE" d="M72.6209376 169.933784L21.6899991 169.933784C20.7441215 169.933784 19.9775605 169.167065 19.9775605 168.220993 19.9775605 167.274206 20.7441215 166.507488 21.6899991 166.507488L72.6209376 166.507488C73.5668153 166.507488 74.3340906 167.274206 74.3340906 168.220993 74.3340906 169.167065 73.5668153 169.933784 72.6209376 169.933784M93.7473004 140.816983L93.7473004 146.751371C93.7473004 149.267323 91.691231 151.323815 89.1815119 151.323815L5.12985351 151.323815C2.62013437 151.323815.5633506 149.267323.5633506 146.751371L.5633506 140.816983 93.7473004 140.816983z"/>
    <path fill="#333" d="M70.7867637,140.01518 C70.7867637,140.313865 70.6996058,140.587539 70.544579,140.816912 C70.2838197,141.208489 69.8365996,141.469302 69.3329412,141.469302 C68.8299972,141.469302 68.3827771,141.208489 68.1220178,140.816912 C67.9662766,140.587539 67.8798331,140.313865 67.8798331,140.01518 C67.8798331,139.530711 68.1155881,139.107694 68.48208,138.841165 L68.48208,139.369221 C68.48208,139.835112 68.8614312,140.220258 69.3329412,140.220258 C69.8051656,140.220258 70.1845169,139.835112 70.1845169,139.369221 L70.1845169,138.841165 C70.5510087,139.107694 70.7867637,139.530711 70.7867637,140.01518 Z M51.727758,146.894211 C51.727758,147.968903 50.8518924,148.844949 49.7767068,148.844949 C48.6965202,148.844949 47.8263699,147.968903 47.8263699,146.894211 C47.8263699,146.123205 48.27359,145.458668 48.9201303,145.14212 L48.9201303,146.161076 C48.9201303,146.633398 49.3051968,147.018544 49.7767068,147.018544 C50.2432159,147.018544 50.6282824,146.633398 50.6282824,146.161076 L50.6282824,145.14212 C51.2805379,145.458668 51.727758,146.123205 51.727758,146.894211 Z M29.6553747,140.195963 C29.6553747,140.413188 29.6246551,140.624696 29.5625015,140.816912 C29.2953125,141.662232 28.5058905,142.277464 27.574301,142.277464 C26.6427116,142.277464 25.8532895,141.662232 25.5861005,140.816912 C25.5246614,140.624696 25.4932274,140.413188 25.4932274,140.195963 C25.4932274,139.350643 25.9968858,138.62394 26.7170101,138.30096 L26.7170101,139.71721 C26.7170101,140.189532 27.102791,140.574677 27.574301,140.574677 C28.0408102,140.574677 28.4258767,140.189532 28.4258767,139.71721 L28.4258767,138.30096 C29.1524307,138.62394 29.6553747,139.350643 29.6553747,140.195963 Z M70.1845169,99.5841713 L70.1845169,99.4598386 L68.4763647,99.4598386 L68.4763647,99.5841713 L6.40921731,99.5841713 L6.40921731,120.293434 C9.96268813,121.170194 13.8519312,120.331305 16.7717212,117.777482 L16.7774364,117.777482 C19.5793489,120.231268 23.2814168,121.101597 26.7170101,120.387041 L26.7170101,136.436684 C23.8779484,136.722506 21.4553872,138.418862 20.1573059,140.816912 C19.5107656,142.010221 19.1442738,143.377166 19.1442738,144.824142 C19.1442738,147.440846 20.3373369,149.783161 22.2069455,151.323744 L32.9359413,151.323744 C34.8055499,149.783161 35.998613,147.440846 35.998613,144.824142 C35.998613,143.377166 35.6321212,142.010221 34.9855809,140.816912 C33.6874996,138.418862 31.2649384,136.722506 28.4258767,136.436684 L28.4258767,119.88971 C29.6932384,119.418103 30.8920169,118.71498 31.9600584,117.777482 L31.9664881,117.777482 C36.3086666,121.579635 42.8069317,121.579635 47.1491101,117.777482 L47.1555398,117.777482 C47.7084924,118.261951 48.305024,118.690685 48.9201303,119.050821 L48.9201303,143.246402 L47.3169963,144.37683 L44.105013,146.651262 L44.105013,159.140987 L55.4426853,159.140987 L55.4426853,146.651262 L50.6282824,143.246402 L50.6282824,119.865415 C54.5232408,121.356693 59.0454503,120.660001 62.3381618,117.777482 L62.3445915,117.777482 C63.232602,118.560636 64.2142001,119.175154 65.2515221,119.635328 C66.2895585,120.094787 67.3704594,120.399188 68.4763647,120.535668 L68.4763647,137.449209 L67.5004819,138.138756 L65.1086403,139.835112 L65.1086403,151.323744 L73.5572422,151.323744 L73.5572422,139.835112 L70.1845169,137.449209 L70.1845169,120.629275 C72.8121135,120.57354 75.4275652,119.622466 77.5336432,117.777482 C79.70759,119.678916 82.4159149,120.635706 85.1249542,120.635706 C86.0565436,120.635706 86.9888475,120.517805 87.9018623,120.293434 L87.9018623,99.5841713 L70.1845169,99.5841713 Z"/>
    <path fill="#FC7A51" d="M47.15654,148.845306 C46.0792111,148.845306 45.2069176,147.972119 45.2069176,146.895283 C45.2069176,145.817018 46.0792111,144.944545 47.15654,144.944545 C48.2338689,144.944545 49.1061624,145.817018 49.1061624,146.895283 C49.1061624,147.972119 48.2338689,148.845306 47.15654,148.845306 Z M47.15654,142.642245 L44.6968295,144.38076 L41.4891327,146.650905 L41.4891327,163.297916 L52.8239473,163.297916 L52.8239473,146.650905 L47.15654,142.642245 Z"/>
    <path fill="#29B6F6" d="M48.0104732,106.258053 L48.0104732,146.163863 C48.0104732,146.633327 47.6268355,147.017043 47.1567543,147.017043 C46.6845299,147.017043 46.3030354,146.633327 46.3030354,146.163863 L46.3030354,106.258053 L48.0104732,106.258053 Z"/>
    <path fill="#333" d="M46.3028926,104.64923 L48.0103303,104.64923 L48.0103303,113.523301 C47.7174226,113.311078 47.4316589,113.08242 47.1544682,112.840186 L47.152325,112.838042 C46.8772775,113.080277 46.5936571,113.304647 46.3028926,113.517585 L46.3028926,104.64923 Z"/>
    <path fill="#EEE" d="M44.5887394 153.784389C44.0593623 153.784389 43.6300024 154.214552 43.6300024 154.743323 43.6300024 155.272809 44.0600767 155.702972 44.5887394 155.702972 45.1174021 155.702972 45.5474764 155.272809 45.5474764 154.743323 45.5474764 154.214552 45.1174021 153.784389 44.5887394 153.784389M44.5887394 156.413955C43.6678661 156.413955 42.9191653 155.664386 42.9191653 154.743323 42.9191653 153.822975 43.6678661 153.073406 44.5887394 153.073406 45.5096127 153.073406 46.2583134 153.822975 46.2583134 154.743323 46.2583134 155.664386 45.5096127 156.413955 44.5887394 156.413955M49.7235547 158.308958C49.194892 158.308958 48.7648177 158.73912 48.7648177 159.268606 48.7648177 159.797378 49.194892 160.22754 49.7235547 160.22754 50.2529319 160.22754 50.6830061 159.797378 50.6830061 159.268606 50.6830061 158.73912 50.2529319 158.308958 49.7235547 158.308958M49.7235547 160.938524C48.8033958 160.938524 48.0539807 160.188954 48.0539807 159.268606 48.0539807 158.347544 48.8033958 157.597974 49.7235547 157.597974 50.644428 157.597974 51.3931288 158.347544 51.3931288 159.268606 51.3931288 160.188954 50.644428 160.938524 49.7235547 160.938524"/>
    <polygon fill="#EEE" points="46.684 161.231 45.987 161.093 47.637 152.777 48.334 152.915"/>
    <path fill="#FFD740" d="M26.5328355,141.197985 C25.3840656,141.197985 24.4524762,140.266204 24.4524762,139.117198 C24.4524762,137.967477 25.3840656,137.03641 26.5328355,137.03641 C27.6816053,137.03641 28.6131947,137.967477 28.6131947,139.117198 C28.6131947,140.266204 27.6816053,141.197985 26.5328355,141.197985 M26.5328355,135.317189 C21.8791746,135.317189 18.1078091,139.090759 18.1078091,143.743948 C18.1078091,148.398566 21.8798891,152.171422 26.5328355,152.171422 C31.1857819,152.171422 34.9585763,148.398566 34.9585763,143.743948 C34.9585763,139.090759 31.1864963,135.317189 26.5328355,135.317189"/>
    <path fill="#FB992D" d="M27.3867686,106.258053 L27.3867686,138.641732 C27.3867686,139.112624 27.003131,139.496341 26.5330498,139.496341 C26.0608254,139.496341 25.6793309,139.112624 25.6793309,138.641732 L25.6793309,106.258053 L27.3867686,106.258053 Z"/>
    <path fill="#333" d="M25.6792595,107.737041 L27.3866972,107.737041 L27.3866972,118.381782 C26.8251717,118.534697 26.2536444,118.64331 25.6792595,118.709763 L25.6792595,107.737041 Z"/>
    <polygon fill="#FFF" points="26.844 149.405 23.257 144.911 24.552 143.866 26.682 146.557 30.332 140.727 31.737 141.619"/>
    <path fill="#FB992D" d="M67.7805303,140.393395 C66.97682,140.393395 66.3259934,139.742434 66.3259934,138.938559 C66.3259934,138.134683 66.97682,137.483723 67.7805303,137.483723 C68.5842405,137.483723 69.2350672,138.134683 69.2350672,138.938559 C69.2350672,139.74172 68.5842405,140.393395 67.7805303,140.393395 Z M67.7805303,135.76593 L65.9459277,137.063564 L63.5533717,138.756347 L63.5533717,155.249014 L72.0076889,155.249014 L72.0076889,138.756347 L67.7805303,135.76593 Z"/>
    <path fill="#9B5A50" d="M68.6341062,98.3839316 L68.6341062,138.289027 C68.6341062,138.759205 68.2504686,139.142922 67.7803874,139.142922 C67.308163,139.142922 66.9266685,138.759205 66.9266685,138.289027 L66.9266685,98.3839316 L68.6341062,98.3839316 Z"/>
    <path fill="#333" d="M68.6341062,105.740572 L68.6341062,116.715438 C68.0597213,116.648984 67.4874797,116.540371 66.9266685,116.3896 L66.9266685,105.740572 L68.6341062,105.740572 Z"/>
    <path fill="#EEE" d="M67.7805303,150.979185 L66.065234,150.979185 L66.065234,150.023823 L67.7805303,150.023823 C68.4627909,150.023823 69.0178868,149.468613 69.0178868,148.786212 C69.0178868,148.103811 68.4627909,147.547887 67.7805303,147.547887 C66.5717501,147.547887 65.5880088,146.564658 65.5880088,145.355629 C65.5880088,144.145886 66.5717501,143.162656 67.7805303,143.162656 L69.4951121,143.162656 L69.4951121,144.117303 L67.7805303,144.117303 C67.0975552,144.117303 66.5431737,144.672513 66.5431737,145.354914 C66.5431737,146.037315 67.0975552,146.592525 67.7805303,146.592525 C68.9893104,146.592525 69.9730518,147.576469 69.9730518,148.786212 C69.9730518,149.995241 68.9893104,150.979185 67.7805303,150.979185"/>
    <polygon fill="#EEE" points="67.302 143.64 68.257 143.64 68.257 141.303 67.302 141.303"/>
    <polygon fill="#EEE" points="67.302 152.838 68.257 152.838 68.257 150.501 67.302 150.501"/>
    <path fill="#FFF" d="M92.1126609,108.674539 L90.0022965,97.1458918 L88.4827483,88.8520401 C87.9998078,86.2038955 85.6908376,84.2810252 82.9989442,84.2810252 L74.1531308,84.2810252 L60.654371,84.2810252 L47.1556113,84.2810252 L33.6568515,84.2810252 L20.1588061,84.2810252 L11.3101351,84.2810252 C8.62038489,84.2810252 6.3114147,86.2038955 5.82633093,88.8520401 L4.3074972,97.1458918 L2.19856157,108.67311 C1.75919998,111.07116 3.1280078,113.446344 5.43340593,114.238072 C9.23763434,115.544995 13.5826704,114.801142 16.772507,112.006513 L16.7739358,112.006513 L16.7767935,112.008657 C21.1232584,115.815097 27.6165226,115.815097 31.9629875,112.008657 L31.9651308,112.006513 C36.3115957,115.815097 42.8070031,115.815097 47.153468,112.006513 L47.1556113,112.008657 C51.5020762,115.815097 57.9953404,115.815097 62.3418053,112.008657 L62.3439485,112.006513 L62.3460918,112.008657 C66.6904134,115.817241 73.1858209,115.817241 77.5322858,112.008657 L77.534429,112.006513 L77.5365723,112.008657 C80.7264088,114.803286 85.0721593,115.547138 88.8771022,114.240216 C91.1832147,113.448487 92.5520225,111.072589 92.1126609,108.674539"/>
    <path fill="#BB3664" d="M77.5367151 112.008657L77.5345719 112.006513 77.5324287 112.008657C73.1859638 115.817241 66.6905563 115.817241 62.3462346 112.008657L61.4389351 97.1458918 60.6545139 84.2810252 74.1525593 84.2810252 75.7228305 97.1458918 77.5367151 112.008657zM47.1554684 84.2808823L47.1554684 112.008514 47.1533251 112.00637C42.8068602 115.814954 36.3114528 115.814954 31.9649879 112.00637L31.9628446 112.00637 32.871573 97.1457489 33.6567086 84.2808823 47.1554684 84.2808823zM20.1582346 84.2808823L18.5858202 97.1457489 16.7719355 112.00637C13.5820989 114.801714 9.23706281 115.544852 5.43354881 114.237929 3.12743627 113.445486 1.75934286 111.071731 2.19799004 108.672967L4.30764009 97.1457489 5.8257594 88.8518972C6.31155759 86.2037526 8.62052777 84.2808823 11.310278 84.2808823L20.1582346 84.2808823z"/>
    <path fill="#E4EAF8" d="M239.897683,61.4035853 C239.431888,60.3910594 238.398853,59.760821 237.285803,59.8101254 L232.7143,60.0109156 L222.581835,64.2089322 L219.206967,67.299387 C218.385396,68.0525291 218.100347,69.2279737 218.486843,70.2740837 L222.480389,81.0717398 C222.663993,81.5690708 223.176938,81.8634678 223.698457,81.7712901 L227.531976,81.0974638 L227.966337,81.8298837 C228.25853,82.325071 228.490713,82.8531279 228.65717,83.4033361 L231.415504,92.5489386 C231.509806,92.8597704 231.850579,93.0219747 232.149916,92.8976419 L246.230205,87.0647211 C246.529543,86.9403884 246.656707,86.5845395 246.503824,86.2987171 L241.988758,77.879818 C241.717283,77.3731978 241.507961,76.8358517 241.365079,76.2792125 L241.153614,75.4546149 L244.341308,73.2201982 C244.774954,72.9157973 244.929266,72.3448671 244.707799,71.8632563 L239.897683,61.4035853 Z"/>
    <path fill="#D5DCED" d="M239.016531,60.3387539 C238.464293,62.0786978 238.503585,63.9472618 238.592172,64.9983737 C238.63075,65.4528313 238.707192,65.9030016 238.820783,66.3445973 L241.153328,75.454472 L244.341022,73.2200553 C244.775383,72.9156544 244.92898,72.3447242 244.708228,71.8631134 L239.897397,61.4034424 C239.696648,60.9675632 239.388024,60.6088561 239.016531,60.3387539"/>
    <path fill="#C7CFE2" d="M239.223709,65.7097857 C238.930802,65.7848141 238.753628,66.0834985 238.828641,66.377181 L241.153328,75.4541861 L242.113494,74.7810744 L239.891682,66.1049352 C239.815955,65.8119672 239.517332,65.6347573 239.223709,65.7097857"/>
    <path fill="#E4EAF8" d="M244.708085,71.863042 L243.955098,70.2267087 L240.461638,72.7526642 L241.153186,75.4544005 L244.340879,73.2199838 C244.77524,72.915583 244.929552,72.3446527 244.708085,71.863042"/>
    <polygon fill="#D5DCED" points="241.417 72.062 240.461 72.752 241.154 75.455 242.114 74.782"/>
    <path fill="#D5DCED" d="M218.357249,68.8977059 C219.978957,69.7365947 221.270609,71.086391 221.951441,71.8931248 C222.245777,72.2411135 222.509394,72.6133972 222.742292,73.0056885 L227.532405,81.0980354 L223.698886,81.7718618 C223.176652,81.8640395 222.663707,81.5689278 222.480104,81.0723114 L218.487271,70.2739408 C218.320814,69.8237705 218.285808,69.351449 218.357249,68.8977059"/>
    <path fill="#C7CFE2" d="M222.008094,72.8424124 C222.268138,72.6880683 222.604625,72.7738151 222.758937,73.034628 L227.531905,81.0976781 L226.37742,81.3006121 L221.815203,73.5934108 C221.661605,73.3333124 221.747334,72.9967565 222.008094,72.8424124"/>
    <path fill="#E4EAF8" d="M222.480461,81.0720256 L221.856067,79.3828152 L226.111802,78.6975559 L227.532048,81.0977496 L223.698528,81.7715759 C223.17701,81.8637537 222.664064,81.568642 222.480461,81.0720256"/>
    <polygon fill="#D5DCED" points="224.948 78.885 226.112 78.698 227.532 81.098 226.378 81.3"/>
    <path fill="#D5DCED" d="M231.071516,58.910285 L222.965116,62.2686983 L222.581478,64.2087179 L226.292834,66.8554334 C226.559308,67.0462198 226.932944,66.9611876 227.090828,66.6732216 L227.873106,65.2519696 C227.984554,65.0504648 228.279605,65.0668996 228.367478,65.2791228 L238.683545,90.1906893 L239.697291,89.771245 L229.38051,64.8596784 C229.292637,64.6467407 229.4891,64.427372 229.710567,64.4909675 L231.267978,64.9425669 C231.583747,65.0340301 231.908089,64.8303816 231.96167,64.5066877 L232.714657,60.0107012 L231.071516,58.910285 Z"/>
    <path fill="#C7CFE2" d="M232.193353 67.3513352C232.473401 67.2348626 232.793456 67.36777 232.909905 67.647876 233.025639 67.9279819 232.892759 68.2488176 232.612711 68.3645757 232.332662 68.4810483 232.011893 68.3481409 231.896158 68.0680349 231.780424 67.787929 231.91259 67.4670933 232.193353 67.3513352M235.131217 74.4455903C235.411265 74.3298322 235.732035 74.4627397 235.847769 74.7428456 235.963504 75.022237 235.830624 75.3430727 235.550575 75.4588308 235.270527 75.5753034 234.950472 75.442396 234.834023 75.16229 234.718289 74.8821841 234.851169 74.562063 235.131217 74.4455903M233.661892 70.8983199C233.94194 70.7825618 234.26271 70.9154692 234.378444 71.1955752 234.494178 71.4749666 234.361298 71.7958022 234.081964 71.9115603 233.801916 72.0280329 233.481146 71.8951255 233.365412 71.6150196 233.249678 71.3349136 233.381843 71.0147925 233.661892 70.8983199M236.599828 77.9929322C236.880591 77.8771742 237.200646 78.0100816 237.317095 78.2901875 237.432829 78.5695789 237.299234 78.8904146 237.0199 79.0061727 236.739852 79.1226453 236.419082 78.9897379 236.303348 78.7096319 236.187614 78.429526 236.319779 78.1094049 236.599828 77.9929322M239.538335 85.0875446C239.818384 84.9717865 240.139153 85.1046939 240.254888 85.3847999 240.370622 85.6641913 240.237742 85.985027 239.957693 86.100785 239.677645 86.2172577 239.356875 86.0843503 239.241141 85.8042443 239.125407 85.5241383 239.258287 85.2033027 239.538335 85.0875446M238.069082 81.5402741C238.34913 81.4245161 238.6699 81.5574235 238.785634 81.8375294 238.901368 82.1169209 238.768488 82.4377565 238.489154 82.5535146 238.209106 82.6699872 237.888336 82.5370798 237.772602 82.2569738 237.656867 81.9768679 237.789033 81.6560322 238.069082 81.5402741M228.260602 64.0598044L222.965402 62.269127 231.071802 58.9099991 228.594231 63.9218951C228.533506 64.0447987 228.390624 64.1041069 228.260602 64.0598044"/>
  </g>
</svg>
