<svg xmlns="http://www.w3.org/2000/svg" xmlns:xlink="http://www.w3.org/1999/xlink" width="265" height="247" viewBox="0 0 265 247">
  <defs>
    <linearGradient id="bi-purchase-adv-c" x1="0%" y1="50%" y2="50%">
      <stop offset="0%" stop-color="#C33764"/>
      <stop offset="100%" stop-color="#1D2671"/>
    </linearGradient>
    <path id="bi-purchase-adv-b" d="M170,51.501026 C170,34.1037425 156.120126,20 138.99899,20 C121.877854,20 108,34.1037425 108,51.501026 C108,68.8983095 121.877854,83 138.99899,83 C156.120126,83 170,68.8983095 170,51.501026"/>
    <filter id="bi-purchase-adv-a" width="122.6%" height="122.2%" x="-11.3%" y="-7.9%" filterUnits="objectBoundingBox">
      <feOffset dy="2" in="SourceAlpha" result="shadowOffsetOuter1"/>
      <feGaussianBlur in="shadowOffsetOuter1" result="shadowBlurOuter1" stdDeviation="2"/>
      <feColorMatrix in="shadowBlurOuter1" values="0 0 0 0 0.607843137   0 0 0 0 0.607843137   0 0 0 0 0.607843137  0 0 0 0.5 0"/>
    </filter>
  </defs>
  <g fill="none" fill-rule="evenodd">
    <polygon fill="#CCC" points="103 176.018 103 237 163 237 163 176"/>
    <path fill="#EEE" d="M205.116907,247 L59.8830928,247 C57.1858818,247 55,244.762252 55,242.001043 C55,239.237748 57.1858818,237 59.8830928,237 L205.116907,237 C207.812081,237 210,239.237748 210,242.001043 C210,244.762252 207.812081,247 205.116907,247"/>
    <path stroke="#000" stroke-linecap="round" stroke-linejoin="round" stroke-width="15" d="M247,158 L20,158"/>
    <path fill="#424242" d="M265,13.0536533 C265,5.87353152 259.152873,0 252.007513,0 L12.990455,0 C5.84509526,0 0,5.87353152 0,13.0536533 L0,157.946347 L132.498984,171 L265,157.946347 L265,13.0536533 Z"/>
    <use fill="#000" filter="url(#bi-purchase-adv-a)" xlink:href="#bi-purchase-adv-b"/>
    <use fill="url(#bi-purchase-adv-c)" xlink:href="#bi-purchase-adv-b"/>
    <path fill="#EEE" d="M147.648007,58.7484663 L148.033042,55.8854806 L150.500956,55.8854806 L149.804615,58.7484663 L147.648007,58.7484663 Z M142.126434,58.7484663 L142.126434,55.8854806 L145.759694,55.8854806 L145.374659,58.7484663 L142.126434,58.7484663 Z M136.240306,55.8854806 L139.873566,55.8854806 L139.873566,58.7484663 L136.625341,58.7484663 L136.240306,55.8854806 Z M132.197433,58.7484663 L131.499044,55.8854806 L133.966958,55.8854806 L134.354042,58.7484663 L132.197433,58.7484663 Z M149.061169,48.2351738 L149.464637,45.2494888 L153.085609,45.2494888 L152.360595,48.2351738 L149.061169,48.2351738 Z M148.760104,50.4846626 L151.813763,50.4846626 L151.047788,53.6359918 L148.336155,53.6359918 L148.760104,50.4846626 Z M142.126434,50.4846626 L146.486756,50.4846626 L146.062807,53.6359918 L142.126434,53.6359918 L142.126434,50.4846626 Z M135.513244,50.4846626 L139.873566,50.4846626 L139.873566,53.6359918 L135.937193,53.6359918 L135.513244,50.4846626 Z M130.188285,50.4846626 L133.239896,50.4846626 L133.663845,53.6359918 L130.95426,53.6359918 L130.188285,50.4846626 Z M132.936783,48.2351738 L129.639405,48.2351738 L128.914391,45.2494888 L132.535363,45.2494888 L132.936783,48.2351738 Z M142.126434,45.2494888 L147.189241,45.2494888 L146.787821,48.2351738 L142.126434,48.2351738 L142.126434,45.2494888 Z M139.871518,48.2351738 L135.210131,48.2351738 L134.806663,45.2494888 L139.871518,45.2494888 L139.871518,48.2351738 Z M130.42586,61 L134.653058,61 L147.346942,61 L151.57414,61 L156,43 L126,43 L130.42586,61 Z"/>
    <polygon fill="#EEE" points="125.822 43 128 43 126.505 37 120 37 120 39.084 124.846 39.084"/>
    <path fill="#EEE" d="M136.498954 63C137.881221 63 139 64.1187788 139 65.4989544 139 66.8791301 137.881221 68 136.498954 68 135.118779 68 134 66.8791301 134 65.4989544 134 64.1187788 135.118779 63 136.498954 63M148.5 63C149.880753 63 151 64.1187788 151 65.4989544 151 66.8791301 149.880753 68 148.5 68 147.119247 68 146 66.8791301 146 65.4989544 146 64.1187788 147.119247 63 148.5 63"/>
    <path fill="#FFD180" d="M180.26719,114.34648 C177.861201,111.849158 173.898516,111.820571 171.466176,114.270928 L162.821238,122.988072 C157.849131,127.997009 149.350133,124.448076 149.350133,117.374713 L149.350133,64.3489934 C149.350133,60.9266618 146.67456,58.0372829 143.277393,58.0005275 C141.556513,57.9780659 139.991709,58.6743756 138.872833,59.8097076 C137.755984,60.9266618 137.078983,62.4744705 137.078983,64.1856363 L137.078983,91.3029173 C137.078983,91.1681477 137.070875,91.0435879 137.064794,90.9169861 C137.036417,90.3248166 136.910746,89.7551087 136.720213,89.2201141 C136.689808,89.1323097 136.653323,89.0342954 136.616838,88.9485329 C136.543868,88.7627142 136.46279,88.5932312 136.375631,88.4135384 C136.302661,88.2787687 136.221583,88.148083 136.138478,88.0133134 C136.073616,87.9112152 136.006726,87.8050331 135.933756,87.7090608 C135.874975,87.6130885 135.802004,87.525284 135.727007,87.4354376 C135.617552,87.2884162 135.491881,87.1393529 135.36013,87.0066252 L135.352022,86.9984573 C134.940551,86.563519 134.454083,86.1837137 133.933157,85.8815031 C133.035219,85.3710121 131.999448,85.0810532 130.896787,85.0810532 C129.184015,85.0810532 127.645561,85.7691951 126.528712,86.904527 C125.411863,88.0276072 124.720673,89.5835837 124.720673,91.3029173 L124.720673,93.4204339 C124.720673,93.2591188 124.714592,93.0957617 124.698377,92.9324045 C124.682161,92.7241242 124.659865,92.509718 124.617299,92.3014377 C124.586894,92.1401225 124.558517,91.9910592 124.513924,91.8358699 C124.491628,91.7256039 124.455143,91.6194217 124.418658,91.5091557 C124.374065,91.3621343 124.321364,91.2130709 124.256502,91.0742174 L124.256502,91.0578816 C124.191639,90.9088183 124.12475,90.7617969 124.059888,90.6209014 L123.990971,90.4861317 C123.909893,90.3472782 123.830842,90.2063827 123.741656,90.0634452 C123.632201,89.8857943 123.50653,89.7163113 123.382886,89.5529542 C123.263296,89.4059328 123.137626,89.2589114 123.007901,89.1180159 L122.999793,89.1180159 C122.557918,88.6422383 122.043073,88.2501812 121.477554,87.9377608 C120.61002,87.4640251 119.602626,87.190402 118.536451,87.190402 C116.82976,87.190402 115.285224,87.8867117 114.170402,89.0138757 C113.053553,90.1451238 112.354256,91.7011003 112.354256,93.4204339 L112.354256,98.6356098 C112.354256,98.4783786 112.346148,98.3211474 112.33804,98.1659581 C112.317771,97.8576215 112.273178,97.5594948 112.206288,97.26341 C112.177911,97.1225145 112.141426,96.9734512 112.096833,96.8345976 C111.993459,96.4792959 111.853599,96.1382879 111.685362,95.8115737 C111.648877,95.738063 111.612392,95.6645523 111.565772,95.5889996 C111.531314,95.5216148 111.492802,95.456272 111.450236,95.3909291 C111.411724,95.3153765 111.369158,95.2479916 111.316458,95.1826488 L111.304296,95.1663131 C111.21511,95.0274595 111.119844,94.9008578 111.016469,94.7660882 C110.896879,94.6190667 110.773235,94.4720453 110.639457,94.3291079 L110.552298,94.2331356 C110.213797,93.8921276 109.846919,93.5960428 109.443557,93.3448813 C108.501025,92.7527117 107.376068,92.4035359 106.184222,92.4035359 C102.766786,92.4035359 100,95.1969425 100,98.6335678 L100,129.238523 C100,131.143676 100.326339,133.018199 100.942531,134.780413 C101.566832,136.550796 102.487067,138.210913 103.670805,139.683169 L103.721479,139.744428 C107.333502,144.185699 109.413152,149.690834 109.413152,155.436921 L109.413152,166 L149.439319,166 L149.439319,156.837708 C149.439319,152.688437 151.756122,148.933265 155.402604,146.9934 L155.455304,146.964812 C159.122056,144.994317 162.460441,142.409191 165.314385,139.29928 L178.797652,124.595097 L180.364484,122.892099 C181.114455,122.075314 181.607004,121.099255 181.834022,120.084399 C182.304274,118.093484 181.773213,115.916751 180.26719,114.34648"/>
    <path fill="#F5B122" d="M113 98.3025806L113 112.137849C113 112.617957 112.551358 113 111.996458 113 111.446281 113 111 112.617957 111 112.137849L111 94C112.239669 95.1134409 113 96.6334409 113 98.3025806M125 93.3295154L125 109.128341C125 109.609398 124.550827 110 123.997636 110 123.444444 110 123 109.609398 123 109.128341L123 89C124.238771 90.1265786 125 91.6519824 125 93.3295154M137 91.2704193L137 111.140238C137 111.612702 136.552415 112 136.001178 112 135.449941 112 135 111.612702 135 111.140238L135 87C136.243816 88.105118 137 89.6097007 137 91.2704193"/>
    <path fill="#EEE" d="M0,158 L0,174.957497 C0,182.130568 5.84509526,188 12.9924867,188 L252.009545,188 C259.152873,188 265,182.130568 265,174.957497 L265,158 L0,158 Z"/>
  </g>
</svg>
