<svg xmlns="http://www.w3.org/2000/svg" xmlns:xlink="http://www.w3.org/1999/xlink" width="222" height="193" viewBox="0 0 222 193">
  <defs>
    <polygon id="bi-penetration-adv-a" points="0 .091 0 96.261 109.865 96.261 109.865 .091 0 .091"/>
    <polygon id="bi-penetration-adv-c" points=".071 45 51.828 45 51.828 .122 .071 .122"/>
  </defs>
  <g fill="none" fill-rule="evenodd">
    <path fill="#5580A0" d="M150,43.8992782 C150,35.0540834 148.446999,27.4674586 145.607405,21.224901 L145.371298,12.9945321 L135.382847,6.76957689 C116.128154,-4.23190923 99.1284698,-1.44444698 75.0960878,12.3746769 C49.8692835,26.8777789 27.5729803,52.1258752 14,78.9607002 L109.90226,133 C133.737676,106.815206 150,72.5810955 150,43.8992782"/>
    <g transform="translate(0 79)">
      <mask id="bi-penetration-adv-b" fill="#fff">
        <use xlink:href="#bi-penetration-adv-a"/>
      </mask>
      <path fill="#254260" d="M13.829023,0.0908153846 C5.13017241,17.2521231 -0.000632183908,35.0604821 -0.000632183908,51.1236872 C-0.000632183908,70.1344308 5.12385057,81.8366359 17.2023563,88.7330718 L31.1192529,96.2614821 L39.2782184,94.1431744 C49.9001724,93.7800718 62.0722414,90.0510462 75.0105172,82.6269179 C87.5972989,75.4063282 99.4494828,65.510841 109.865345,54.0913282 L13.829023,0.0908153846 Z" mask="url(#bi-penetration-adv-b)"/>
    </g>
    <path fill="#2E4759" d="M99,61.7508903 C99,80.641893 83.7760069,104.794433 64.9981163,115.704069 C46.2239931,126.607389 31,120.135635 31,101.243369 C31,82.3561561 46.2239931,58.202353 64.9981163,47.2990333 C83.7772627,36.3919237 99,42.8624142 99,61.7508903"/>
    <path fill="#40B5B5" d="M79,73.9988088 C79,81.6492371 72.730925,91.4366917 64.9980891,95.8544737 C57.2678011,100.272256 51.0025479,97.6485672 51,89.9968781 C51.0025479,82.3464498 57.2678011,72.5615167 64.9980891,68.1462564 C72.730925,63.7284744 79,66.3496413 79,73.9988088"/>
    <path fill="#41627F" d="M162,50.2557472 C162,91.6206953 128.420571,144.516167 86.9981037,168.400372 C45.5781649,192.279527 12,178.10909 12,136.741617 C12.0012642,95.3754064 45.5756365,42.4837224 86.9981037,18.6020426 C128.420571,-5.28089979 162,8.8907991 162,50.2557472"/>
    <path fill="#DBDBDB" d="M142,62.7553282 C142,93.1209138 117.377255,131.952195 86.9993667,149.483756 C56.6265443,167.015317 32,156.611096 32,126.245511 C32,95.8799251 56.6265443,57.0499104 86.9993667,39.5170831 C117.377255,21.9842558 142,32.3884764 142,62.7553282"/>
    <path fill="#41627F" d="M121,73.7517267 C121,92.6430638 105.778931,116.794768 86.9987441,127.703334 C68.2223248,138.606847 53,132.137505 53,113.244904 C53,94.3573573 68.2223248,70.2031266 86.9987441,59.2970873 C105.778931,48.3923112 121,54.8641795 121,73.7517267"/>
    <path fill="#DBDBDB" d="M101,85.9993616 C101,93.6497922 94.7319137,103.43725 86.998726,107.855033 C79.2680863,112.271556 73,109.649127 73,101.997436 C73,94.3470052 79.2680863,84.5633298 86.998726,80.1468073 C94.7319137,75.729024 101,78.3476701 101,85.9993616"/>
    <polygon fill="#E86767" points="207.308 169 83 97.225 87.281 89 173.052 138.558 212 161.052"/>
    <polygon fill="#9DCC29" points="186.004 131 222 151.341 206.951 158 170 137.122"/>
    <g transform="translate(170 148)">
      <mask id="bi-penetration-adv-d" fill="#fff">
        <use xlink:href="#bi-penetration-adv-c"/>
      </mask>
      <polygon fill="#9DCC29" points="16.001 24.509 51.829 45.001 36.848 21.154 .071 .122" mask="url(#bi-penetration-adv-d)"/>
    </g>
    <path fill="#FF7171" d="M213,163.209576 C213,165.186351 211.434566,167.587572 209.501349,168.574767 C207.566785,169.566731 205.997309,168.763145 206.000003,166.788755 C206.000003,164.814364 207.566785,162.408374 209.501349,161.421179 C211.434566,160.436368 213,161.23757 213,163.209576"/>
    <path fill="#E86767" d="M89,91.2097366 C88.9986533,93.1851849 87.432474,95.5898192 85.5,96.5769473 C83.567526,97.5640753 82,96.7653123 82,94.7886718 C82,92.8144158 83.5688726,90.4097814 85.5,89.4226533 C87.432474,88.4355253 88.9986533,89.2366727 89,91.2097366"/>
  </g>
</svg>
