<svg xmlns="http://www.w3.org/2000/svg" width="192" height="247" viewBox="0 0 192 247">
  <g fill="none" fill-rule="evenodd">
    <polygon fill="#283197" points="164.738 193.514 140.378 186.34 115.82 157.528 140.174 164.707"/>
    <path fill="#0E1456" d="M155.439874,114.923036 C155.439874,114.889887 155.444618,114.861473 155.449362,114.828324 C155.473081,114.250578 155.416155,113.687039 155.430386,113.114029 C155.482568,110.736747 155.4968,108.359465 155.359229,106.010596 C155.349742,105.906413 155.363973,105.792758 155.354485,105.683838 C155.193196,103.046097 154.908567,100.432034 154.495856,97.8605912 C153.56607,92.0973396 152.052795,86.9118338 150.06514,82.3514301 L125.71043,75.1722275 C127.698085,79.7421025 129.216104,84.9276083 130.141146,90.6861243 C130.572833,93.3664862 130.84323,96.0894687 131.009263,98.8408649 C131.14209,101.184998 131.127858,103.557544 131.075676,105.930091 C131.061445,106.53625 131.108883,107.137674 131.085164,107.748569 C131.070933,108.084799 131.023495,108.416292 131.004519,108.752521 C130.876437,111.167688 130.672453,113.582855 130.368849,115.998022 C130.269229,116.755722 130.131659,117.508686 130.017807,118.271121 C129.723691,120.203255 129.396369,122.130653 128.993145,124.053315 C128.81288,124.915198 128.618384,125.772346 128.419144,126.624758 C127.97797,128.500064 127.475126,130.361163 126.939076,132.212791 C126.711373,132.975226 126.507389,133.742397 126.270199,134.500097 C125.501702,136.915264 124.666792,139.297281 123.737006,141.636679 C123.675336,141.807161 123.61841,141.977643 123.551997,142.148126 C122.522591,144.710097 121.379333,147.215241 120.164918,149.658822 C119.197182,151.609898 118.129825,153.470997 117.048237,155.327361 C116.626038,156.051911 116.256021,156.823817 115.81959,157.529425 L140.1743,164.703892 C140.226482,164.623386 140.278664,164.542881 140.326102,164.45764 C140.715094,163.823066 141.037673,163.131666 141.412434,162.482885 C142.489278,160.631257 143.556635,158.779629 144.519628,156.838024 C144.576554,156.719634 144.652455,156.61545 144.704637,156.49706 C145.847894,154.186076 146.905763,151.808794 147.882988,149.388891 C147.892476,149.365213 147.897219,149.341535 147.906707,149.317857 C147.97312,149.15211 148.030046,148.976892 148.091715,148.811145 C148.893419,146.789035 149.652428,144.743246 150.335537,142.664308 C150.4399,142.337551 150.520545,142.001321 150.620165,141.674563 C150.862099,140.916864 151.070827,140.149693 151.293786,139.382523 C151.616365,138.274387 151.976894,137.180458 152.266266,136.062852 C152.456019,135.314624 152.593589,134.556924 152.773854,133.799225 C152.96835,132.942077 153.16759,132.089665 153.347855,131.227782 C153.475937,130.612151 153.641971,130.005992 153.760566,129.390361 C154.007244,128.078593 154.168533,126.757355 154.367773,125.440852 C154.486369,124.683153 154.623939,123.930189 154.723559,123.172489 C154.752022,122.921501 154.808947,122.675249 154.83741,122.424261 C155.09832,120.260082 155.245378,118.091167 155.359229,115.926988 C155.373461,115.590759 155.425642,115.25453 155.439874,114.923036"/>
    <polygon fill="#283197" points="150.066 82.35 125.711 75.175 157.827 40.761 182.182 47.936"/>
    <path fill="#0C728E" d="M118.457622,2.61161064 L142.817075,9.78607756 C129.259272,5.78921282 113.965236,7.33776113 98.3675954,15.2367782 L74.0081418,8.06231125 C89.610526,0.163294203 104.909306,-1.38051848 118.457622,2.61161064"/>
    <path fill="#9050A2" d="M98.3661722 15.2367782L74.0067187 8.06231125C75.7856466 7.16254312 77.555087 6.34801619 79.3245273 5.6092592L103.679237 12.7837261C101.914541 13.5177475 100.140356 14.33701 98.3661722 15.2367782M103.679711 12.7832526L79.3250017 5.60878563C83.0488909 4.0555017 86.7538049 2.86686065 90.4017932 2.02391998L114.756503 9.19838691C111.103771 10.0413276 107.403601 11.2299686 103.679711 12.7832526"/>
    <path fill="#9050A2" d="M114.756503 9.19933403L90.4017932 2.02486711C93.5089873 1.30978822 96.5829749.845697295 99.6142681.632594317L123.964234 7.80706124C120.937685 8.02016422 117.863697 8.48425515 114.756503 9.19933403M123.966132 7.80516699L99.6114218.630700068C102.415012.431803955 105.175908.441275199 107.889367.659113799L132.244076 7.83358072C129.530618 7.61574212 126.769722 7.60627088 123.966132 7.80516699M132.244551 7.8326336L107.889841.658166674C110.536886.871269652 113.131749 1.27853312 115.67443 1.87522146L140.02914 9.04495276C137.481715 8.44826442 134.891596 8.04100095 132.244551 7.8326336"/>
    <path fill="#0C728E" d="M140.027242,9.04684701 L115.672532,1.87238009 C116.607062,2.09495431 117.541593,2.33647102 118.457147,2.61113708 L142.816601,9.785604 C141.896302,9.51567356 140.961772,9.26468561 140.027242,9.04684701"/>
    <polygon fill="#5E2C6C" points="102.633 63.863 78.278 56.688 74.009 8.063 98.368 15.237"/>
    <path fill="#9B224C" d="M109.048753,167.01014 C108.071529,168.208252 107.05161,169.344801 106.022204,170.462408 C105.789757,170.713396 105.576286,170.96912 105.343839,171.215372 C104.24802,172.370864 103.128481,173.474263 101.985223,174.535043 C101.695851,174.800238 101.401735,175.041754 101.112363,175.302213 C100.220527,176.097798 99.3144594,176.860233 98.3941607,177.589519 C98.0193999,177.892598 97.6398953,178.186207 97.2603906,178.470344 C96.0839263,179.355906 94.8979743,180.217789 93.6740718,180.989695 C92.4264504,181.780544 91.1788289,182.490887 89.9359512,183.139667 C89.5279837,183.35277 89.1152725,183.518517 88.707305,183.717413 C87.867651,184.119941 87.0327408,184.527205 86.2025744,184.868169 C85.865764,185.005502 85.5384413,185.109686 85.2063747,185.237548 C84.3619769,185.55957 83.5175791,185.857914 82.6779251,186.113638 C82.26047,186.2415 81.8430149,186.350419 81.4255598,186.459338 C80.6143687,186.677177 79.8079213,186.871337 79.0062178,187.032348 C78.7073579,187.089176 78.4132418,187.150739 78.1143819,187.202831 C77.0280499,187.382784 75.9464617,187.524853 74.8791049,187.595887 C73.4512188,187.695335 72.0423078,187.676393 70.6523721,187.581681 C70.2396608,187.553267 69.8364371,187.496439 69.4332135,187.449083 C68.4654766,187.344899 67.5119713,187.202831 66.5726973,187.003935 C65.8042004,186.842924 65.0357035,186.696119 64.2861819,186.478281 L88.6408917,193.648012 C89.1627105,193.804288 89.6892732,193.941621 90.2158359,194.064747 C90.4482825,194.121574 90.6902167,194.131045 90.9274071,194.178402 C91.866681,194.372562 92.8201864,194.519366 93.7879232,194.62355 C94.0725517,194.656699 94.3429488,194.732469 94.6275772,194.756147 C94.7509162,194.765619 94.8837429,194.746676 95.0070819,194.756147 C96.3970176,194.85086 97.8059285,194.869802 99.2385585,194.770354 C99.2622776,194.770354 99.2812528,194.77509 99.3097156,194.770354 C100.353353,194.69932 101.411223,194.552516 102.469092,194.372562 C102.767952,194.325206 103.057324,194.263643 103.356184,194.206815 C103.759407,194.12631 104.157887,194.064747 104.561111,193.97477 C104.964335,193.880057 105.377046,193.74746 105.78027,193.638541 C106.197725,193.524886 106.61518,193.415967 107.032635,193.288105 C107.872289,193.032381 108.716687,192.734037 109.556341,192.412015 C109.893151,192.284153 110.220474,192.175234 110.55254,192.042636 C110.647417,192.004751 110.732805,191.981073 110.822937,191.943188 C111.558228,191.635373 112.307749,191.256523 113.047783,190.896616 C113.465238,190.692984 113.87795,190.527237 114.290661,190.309399 C115.533539,189.665354 116.78116,188.955011 118.028782,188.164162 C118.934849,187.586416 119.831429,186.980257 120.713777,186.340948 C121.017381,186.123109 121.311497,185.872121 121.610357,185.644811 C121.994605,185.360674 122.37411,185.067065 122.74887,184.768721 C123.669169,184.0347 124.575237,183.272265 125.471816,182.471945 C125.756445,182.216221 126.050561,181.974704 126.339933,181.70951 C127.483191,180.64873 128.602729,179.540595 129.698549,178.385103 C129.926252,178.143586 130.149211,177.883127 130.376914,177.636875 C130.984121,176.973888 131.596072,176.325108 132.184304,175.638443 C132.597016,175.160145 133.000239,174.677111 133.403463,174.184607 L109.048753,167.01014 Z"/>
    <path fill="#98204A" d="M26.4443519,179.022518 C25.946252,175.897008 25.5857226,172.724141 25.2963503,169.541803 C25.2251932,168.803046 25.1587799,168.069025 25.1018542,167.330268 C24.8741514,164.34209 24.7270934,161.334971 24.6749115,158.308908 C24.6701677,158.010564 24.6417049,157.707484 24.6417049,157.404405 C24.5990106,154.094205 24.6891429,150.760327 24.8551762,147.42645 C24.8883829,146.763463 24.9358209,146.09574 24.9690276,145.428017 C25.1682675,142.222001 25.4339208,139.006514 25.8086816,135.800498 C25.8181692,135.719993 25.822913,135.644223 25.8324006,135.563717 C25.8750949,135.246431 25.9415082,134.924408 25.9747149,134.607122 C26.4253766,131.012785 26.9756583,127.427919 27.6445353,123.861996 C27.9101885,122.441309 28.2469989,121.03483 28.5458588,119.618879 C29.0487024,117.236861 29.5468022,114.854843 30.1397782,112.491768 C30.5287705,110.952691 30.9794322,109.432556 31.4063749,107.902951 C32.0278138,105.677208 32.6539964,103.451466 33.3513362,101.244667 C33.8304608,99.7434744 34.3570234,98.2564892 34.8693547,96.769504 C35.6710582,94.4585206 36.4964808,92.161744 37.3835729,89.8933812 C37.9385984,88.4632235 38.517343,87.0520082 39.110319,85.6407929 C40.2108824,83.0077872 41.3731153,80.4079309 42.592274,77.8459595 C43.2706385,76.4158018 43.9300278,74.9619659 44.641599,73.5554862 C45.0780293,72.6936031 45.5239472,71.8411912 45.9793528,70.9935149 C47.1368419,68.7867152 48.3417691,66.622536 49.5846468,64.4962419 C50.0021019,63.7858986 50.4053256,63.0613485 50.8275245,62.3557409 C51.5201204,61.2049848 52.2743859,60.1110561 52.9954447,58.9792426 C54.4090995,56.7629716 55.8417294,54.5703787 57.3455165,52.4535558 C58.1804267,51.2696504 59.0532874,50.1331012 59.9166604,48.9870807 C61.3492904,47.0833608 62.8198709,45.2175258 64.323658,43.4085183 C65.656668,41.8078782 66.989678,40.2167093 68.3748699,38.7013103 C68.7116803,38.3319318 69.039003,37.9436108 69.385301,37.5789679 C71.3871879,35.4432025 73.4460006,33.4021496 75.5522513,31.4463378 C76.002913,31.0296031 76.4630624,30.617604 76.9232118,30.2056049 C79.1053634,28.2403219 81.3207217,26.3413376 83.6072371,24.5891575 L59.2525273,17.4146906 C56.9707557,19.1668707 54.7506536,21.065855 52.568502,23.031138 C52.1083526,23.4431371 51.6482033,23.8504005 51.1975415,24.2718709 C49.0912908,26.2276827 47.0324782,28.264 45.035335,30.404501 C44.6890371,30.7738795 44.3522267,31.1574649 44.0106725,31.531579 C43.1330681,32.4976458 42.2412322,33.4495058 41.3778591,34.448722 C40.8892469,35.0169966 40.4528166,35.6563055 39.973692,36.2340514 C38.4604173,38.0383233 37.0040683,39.9041582 35.5666945,41.8126138 C34.6985776,42.9633699 33.8304608,44.0951835 32.9908068,45.2790889 C31.4870197,47.4006474 30.0543897,49.5932403 28.6359911,51.8142469 C28.1141722,52.6382451 27.5354277,53.3959445 27.0230964,54.229414 C26.8333441,54.541965 26.662567,54.8687229 26.4728147,55.1812739 C26.045872,55.8868816 25.6426483,56.6114317 25.2251932,57.3265106 C23.9823156,59.4528047 22.786876,61.6122482 21.624643,63.8095767 C21.1739813,64.6667243 20.7233195,65.5191362 20.2821454,66.3857549 C19.9832855,66.9871789 19.6512189,67.5649248 19.3571029,68.1710843 C18.9538792,68.9856113 18.6313002,69.8474944 18.242308,70.6714926 C17.0231494,73.2381996 15.8609164,75.8285847 14.7508654,78.4710616 C14.4520055,79.1956117 14.0914761,79.8870125 13.7926162,80.6210339 C13.5127315,81.307699 13.2992602,82.0275135 13.0288631,82.7189143 C12.141771,84.9920127 11.3163485,87.2840536 10.5193887,89.5997727 C10.1778346,90.5753108 9.77461089,91.5224351 9.45677576,92.5027088 C9.28599868,93.0188916 9.16265967,93.5540168 8.99662639,94.0701996 C8.29928663,96.2769993 7.66836018,98.5027415 7.04692135,100.733219 C6.72908622,101.888711 6.34009397,103.020525 6.04123407,104.180752 C5.94635791,104.554866 5.8799446,104.938451 5.78981225,105.317301 C5.19683626,107.680376 4.69399263,110.062394 4.19114899,112.449148 C3.93972717,113.637789 3.61714823,114.812223 3.39418926,116.005599 C3.35149499,116.232909 3.33251976,116.460219 3.28982549,116.682793 C2.62569238,120.258188 2.07066686,123.843053 1.62474891,127.427919 C1.58679845,127.726263 1.52038514,128.015136 1.48717848,128.31348 C1.48243468,128.337158 1.48243468,128.365572 1.47769087,128.393986 C1.46820325,128.469756 1.46345944,128.545526 1.45397183,128.621296 C1.0744672,131.836783 0.818301569,135.047534 0.619061637,138.25355 C0.576367366,138.921273 0.533673095,139.58426 0.495722632,140.251983 C0.472003592,140.801315 0.424565513,141.350647 0.400846474,141.899979 C0.286995084,144.684525 0.253788429,147.464335 0.282251276,150.229938 C0.286995084,150.533018 0.310714124,150.831362 0.315457932,151.134441 C0.358152203,153.469103 0.429309321,155.803764 0.571623558,158.119484 C0.619061637,158.801413 0.694962564,159.478607 0.747144451,160.155801 C0.804070146,160.894558 0.870483456,161.628579 0.936896767,162.367336 C1.23575666,165.55441 1.59154226,168.722541 2.08964209,171.848051 C7.79169919,207.346271 25.9509958,230.588703 49.2620679,237.455354 L73.6167777,244.629821 C50.3057056,237.76317 32.1511528,214.525474 26.4443519,179.022518"/>
    <path fill="#43194F" d="M145.401028,73.9996876 L121.046318,66.8252206 C116.354692,60.1385228 110.296849,55.6207396 103.442047,53.6033648 L127.796756,60.7778317 C134.646815,62.7952065 140.709402,67.3082541 145.401028,73.9996876"/>
    <path fill="#1F2671" d="M182.179296,47.9352991 C185.694458,55.9953273 188.360478,65.1776978 189.992348,75.3592846 C196.325331,114.764393 185.732408,159.478133 164.736314,193.513047 L140.177621,164.70626 C152.06086,145.432279 158.080752,120.167737 154.494433,97.8582234 C153.56939,92.0997074 152.051372,86.9142016 150.063716,82.3490622 L182.179296,47.9352991 Z"/>
    <path fill="#5E2C6C" d="M98.3661722,15.2367782 C127.905864,0.276949125 156.35448,8.10019623 173.958751,33.1753133 L145.401028,74.0011083 C135.443775,59.8179212 119.362266,55.4043217 102.630856,63.8621421 L98.3661722,15.2367782 Z"/>
    <path fill="#BC3665" d="M83.6062883,24.5877368 L94.308319,69.1404661 C71.1727678,86.8753695 56.846468,124.769815 61.9508053,156.522158 C67.3492587,190.140337 92.4914405,204.347202 118.027358,188.165583 C123.658258,184.594924 128.80529,179.793004 133.40204,174.186027 L152.780495,210.30935 C144.649608,220.216271 135.489315,228.63147 125.54155,234.934583 C80.4374247,263.528267 35.9926884,238.448414 26.4434031,179.021097 C17.4301681,122.885037 42.7478709,55.909139 83.6062883,24.5877368"/>
  </g>
</svg>
