<svg xmlns="http://www.w3.org/2000/svg" xmlns:xlink="http://www.w3.org/1999/xlink" width="246" height="279" viewBox="0 0 246 279">
  <defs>
    <polygon id="bi-performance-ans-a" points=".015 78.583 44.923 78.583 44.923 .294 .015 .294"/>
    <polygon id="bi-performance-ans-c" points=".079 58.653 3.634 58.653 3.634 .167 .079 .167 .079 58.653"/>
    <polygon id="bi-performance-ans-e" points="33.474 57.622 33.474 .179 .431 .179 .431 57.622 33.474 57.622"/>
    <linearGradient id="bi-performance-ans-g" x1="0%" y1="50%" y2="50%">
      <stop offset="0%" stop-color="#C33764"/>
      <stop offset="100%" stop-color="#1D2671"/>
    </linearGradient>
  </defs>
  <g fill="none" fill-rule="evenodd">
    <path stroke="#000" stroke-dasharray="5" d="M144.02083,203.254454 L79.7858297,166.747918"/>
    <path fill="#27405E" d="M56.0169674,161.716373 L84.3403007,145.246002 C82.7789239,146.128249 81.8805543,148.080971 81.8731993,150.599425 C81.8710978,152.252456 83.0384529,154.276682 84.4821486,155.112662 L99.9288514,164.036085 C100.716895,164.491404 101.346279,165.594476 101.343127,166.498806 C101.343127,166.950971 101.183417,167.271693 100.92704,167.418909 L72.6037065,183.890332 C72.8611341,183.741012 73.0218949,183.422394 73.0218949,182.970229 C73.0229457,182.065899 72.3914601,180.962827 71.6055181,180.508559 L56.1619674,171.584085 C54.7151196,170.746002 53.5467138,168.722827 53.5530181,167.072951 C53.557221,164.555548 54.4566413,162.599672 56.0169674,161.716373"/>
    <polygon fill="#212525" points="74.023 146.814 102.346 130.343 104.349 133.824 76.025 150.297"/>
    <polygon fill="#1C1E1F" points="54.006 158.228 82.329 141.758 102.345 130.343 74.023 146.814"/>
    <path fill="#17232B" d="M74.0234457,146.813963 L76.0250761,150.296685 L56.0171775,161.716478 C54.4568514,162.599777 53.5574312,164.555654 53.5532283,167.073056 C53.5469239,168.722932 54.7153297,170.746107 56.1611268,171.58419 L71.6057283,180.508664 C72.3916703,180.962932 73.0231558,182.064953 73.0210543,182.970334 C73.0168514,183.875715 72.3853659,184.246911 71.5973225,183.791592 L56.1506196,174.868169 C53.1413442,173.126808 51.3214891,170.145674 51.3330471,166.685035 C51.3435543,163.304313 53.8064529,159.420953 55.8921413,158.228499 L74.0234457,146.813963 Z"/>
    <polygon fill="#17232B" points="130.303 92.284 130.082 7.56 132.915 9.207 133.132 93.93 9.699 165.252 6.867 163.605"/>
    <path fill="#27405E" d="M1.08834058,184.404748 L1.08834058,174.637986 L3.9337029,176.315202 L3.91794203,186.061986 L3.89902899,186.048315 C3.90533333,187.734996 4.5010942,188.92114 5.45830435,189.47846 L2.62555072,187.831738 C1.66623913,187.271264 1.07152899,186.081965 1.06627536,184.393181 L1.08834058,184.404748 Z"/>
    <path fill="#9B9B9B" d="M3.94652174,176.318882 L139.467935,98.0144289 L139.496304,107.723357 C139.503659,111.123006 137.109058,115.267151 134.151268,116.974862 L86.0701087,144.746202 L56.9986594,161.536243 L9.26844203,189.103584 C6.31065217,190.814449 3.90869565,189.44113 3.89713768,186.039377 L3.94652174,176.318882 Z"/>
    <polygon fill="#FFF" points="131.27 8.173 131.489 92.899 8.052 164.219 7.835 79.495"/>
    <polygon fill="#AAA" points="9.698 165.252 6.867 163.605 6.65 78.882 9.481 80.529"/>
    <polygon fill="#F2F2F2" points="9.481 80.529 6.65 78.883 130.082 7.561 132.915 9.207"/>
    <path fill="#17232B" d="M0.902152174,82.6542804 C0.892695652,79.5038474 3.15280435,75.2040742 6.23983333,73.4143423 L131.061717,1.29403299 C132.545341,0.435971134 133.89237,0.357105155 134.862188,0.92388866 L137.697043,2.57061031 C136.721971,2.00487835 135.378094,2.08269278 133.89237,2.94180619 L9.07258696,75.0621155 C6.25454348,76.6888577 3.72544928,80.8508784 3.73595652,84.3020536 L3.92613768,168.62661 L3.95555797,176.334445 L1.07972464,174.645662 L1.09338406,166.978837 L0.902152174,82.6542804 Z"/>
    <path fill="#27405E" d="M133.13238,93.9306433 L132.91488,9.20755052 L9.48100362,80.5286845 L9.69850362,165.251777 L133.13238,93.9306433 Z M133.892054,2.94138557 C136.842489,1.23788041 139.244446,2.60699381 139.253902,6.00033402 C139.513431,98.071633 139.462996,96.8465814 139.46825,98.0148495 L3.93422826,176.355056 L3.92897464,169.964808 L3.92582246,168.62619 L3.73669203,84.3026845 C3.72513406,80.9072412 6.11343116,76.7715093 9.07227174,75.0616948 L133.892054,2.94138557 Z"/>
    <path fill="#BB3665" d="M81.1317029,76.600633 L89.1203623,69.4112103 C86.0312319,62.8758495 79.8445652,59.4499113 72.5725,60.9283856 L71.7707971,71.8013753 C75.8854348,70.9643443 79.3832971,72.9033959 81.1317029,76.600633"/>
    <path fill="#6B2E6A" d="M90.4507899,73.131266 L81.8863333,78.7044619 C82.1721304,79.8212041 82.3297391,81.043101 82.3297391,82.357534 C82.3297391,87.4417608 80.0328551,92.5985443 76.6253551,96.0833691 L81.1602826,103.857452 C87.1830362,97.6995959 91.2293768,88.5732247 91.2293768,79.5898639 C91.2293768,77.2669979 90.9551377,75.1050186 90.4507899,73.131266"/>
    <path fill="#272770" d="M70.7245906,99.8712495 C64.3256775,101.861827 59.1203877,97.2434351 59.1203877,89.5766103 C59.1203877,82.3325072 63.7687935,74.926466 69.6780688,72.4511258 L68.8763659,62.0786722 C58.4332138,66.4510021 50.2196993,79.5448577 50.2196993,92.3442804 C50.2196993,105.891353 59.4177428,114.051353 70.7245906,110.534981 C73.2200616,109.75894 75.6115109,108.477105 77.8253877,106.806198 L74.7383587,97.7471258 C73.4848442,98.6935175 72.1367645,99.4327546 70.7245906,99.8712495"/>
    <g transform="translate(117 156)">
      <path stroke="#3A4D57" stroke-linecap="round" stroke-width="2" d="M7.38489413,62.6388889 L7.38489413,51.728005 C7.38489413,45.7272125 14.1592831,36.8882729 22.4382346,32.087639 C30.7181505,27.287005 37.4925394,28.269217 37.4925394,34.2700095 L37.4925394,45.1818621"/>
      <g transform="translate(14.77 40.43)">
        <mask id="bi-performance-ans-b" fill="#fff">
          <use xlink:href="#bi-performance-ans-a"/>
        </mask>
        <polygon fill="#F46699" points="29.96 8.993 44.923 .294 44.916 52.488 .015 78.584 .029 26.39" mask="url(#bi-performance-ans-b)"/>
      </g>
      <polygon fill="#D8CDA7" points="44.877 32.458 44.877 49.826 14.957 67.194 11.216 60.683 0 58.51"/>
      <g transform="translate(11.361 60.361)">
        <mask id="bi-performance-ans-d" fill="#fff">
          <use xlink:href="#bi-performance-ans-c"/>
        </mask>
        <polygon fill="#CA3F71" points=".085 .167 3.634 6.664 3.62 58.653 .079 52.156" mask="url(#bi-performance-ans-d)"/>
      </g>
      <polygon fill="#F24C88" points="11.361 60.249 11.355 112.181 0 110.015 .014 58.083"/>
      <polygon fill="#C9BC97" points="44.877 32.458 44.877 50.111 48.854 47.907 48.854 39.077"/>
      <polygon fill="#C9BC97" points="48.854 38.722 48.854 47.264 60.215 40.858"/>
      <path fill="#CA3F71" d="M52.543274 56.1373142C51.4514914 56.6957734 50.5581214 56.2360272 50.5581214 55.1154527 50.5581214 53.9948783 51.4535475 52.6183815 52.5494422 52.0580943 53.6443089 51.497807 54.537679 51.9584673 54.5345949 53.0799558 54.5315107 54.2023582 53.6350565 55.578855 52.543274 56.1373142M22.4356287 73.7900331C21.3438461 74.3485789 20.4504761 73.8887613 20.4504761 72.7689272 20.4504761 71.6472647 21.3459022 70.2705543 22.4417969 69.7110943 23.5366636 69.1507201 24.4300337 69.6105377 24.4269495 70.7322002 24.4238654 71.855691 23.5274112 73.2314872 22.4356287 73.7900331"/>
      <polygon fill="#F24C88" points="22.723 79.885 52.83 62.639 52.83 75.573 22.723 92.819"/>
      <path stroke="#3A4D57" stroke-linecap="round" stroke-width="2" d="M22.7227512 71.75L22.7227512 60.8381474C22.7227512 54.837355 29.4971401 45.999384 37.7760916 41.1987501 46.0560075 36.3981161 52.8303965 37.3803282 52.8303965 43.3811206L52.8303965 54.2929732M90.3229359 51.8194444L90.3229359 43.8667597C90.3229359 39.4936456 95.3071132 33.0523352 101.400277 29.5542273 107.492478 26.0542026 112.477618 26.7701167 112.477618 31.1441892L112.477618 39.0959155"/>
      <g transform="translate(95.436 35.875)">
        <mask id="bi-performance-ans-f" fill="#fff">
          <use xlink:href="#bi-performance-ans-e"/>
        </mask>
        <polygon fill="#50D6C6" points="22.465 6.562 33.475 .179 33.469 38.474 .431 57.622 .44 19.327" mask="url(#bi-performance-ans-f)"/>
      </g>
      <polygon fill="#D8CDA7" points="117.59 30.611 117.59 43.423 95.622 56.236 92.876 51.432 84.642 49.829"/>
      <polygon fill="#31A395" points="93.168 50.681 96.004 55.489 95.994 93.958 93.163 89.151"/>
      <polygon fill="#3EBFB4" points="93.163 50.568 93.158 88.833 84.642 87.238 84.653 48.972"/>
      <polygon fill="#C9BC97" points="117.59 30.611 117.59 43.139 120.431 41.575 120.431 35.309"/>
      <polygon fill="#C9BC97" points="120.431 35.5 120.431 41.431 129 36"/>
      <path fill="#31A395" d="M123.552465 47.0855625C122.771845 47.504353 122.134788 47.1600141 122.134788 46.3196412 122.134788 45.4783376 122.774836 44.4462516 123.556453 44.0265305 124.339066 43.6058787 124.977121 43.9511482 124.975127 44.7924518 124.972136 45.6337554 124.332088 46.6658413 123.552465 47.0855625M101.397779 60.1827847C100.618158 60.6015752 99.9801052 60.2572363 99.9801052 59.4168634 99.9801052 58.5755598 100.620152 57.5434739 101.401767 57.1237527 102.185376 56.7031009 102.823429 57.0483704 102.820439 57.889674 102.817448 58.7309776 102.177401 59.7630635 101.397779 60.1827847"/>
      <polygon fill="#3EBFB4" points="101.116 64.51 123.271 51.819 123.271 61.337 101.116 74.028"/>
      <path stroke="#3A4D57" stroke-linecap="round" stroke-width="2" d="M101.116243,58.0833333 L101.116243,50.1306486 C101.116243,45.7575345 106.101383,39.316224 112.193584,35.8181161 C118.286748,32.3180915 123.270925,33.0340056 123.270925,37.4080781 L123.270925,45.3598044"/>
      <g transform="translate(24.427)">
        <path stroke="#3A4D57" stroke-linecap="round" stroke-width="2" d="M10.225238,45.5555556 L10.225238,30.7602177 C10.225238,22.6236445 19.4274742,10.6401684 30.6757141,4.12995137 C41.923954,-2.37930725 51.1261901,-1.04717099 51.1261901,7.08940228 L51.1261901,21.8847401"/>
        <polygon fill="url(#bi-performance-ans-g)" points="61.74 27.84 82.37 15.944 82.36 87.315 20.45 123 20.47 51.63"/>
        <polygon fill="#747474" points="61.919 3.986 61.919 27.903 20.637 51.819 15.475 42.854 0 39.862"/>
        <polygon fill="#6D2E6A" points="15.347 42.708 20.45 51.628 20.431 123 15.338 114.082"/>
        <polygon fill="#672364" points="15.338 42.847 15.328 114.458 0 111.472 .019 39.861"/>
        <polygon fill="#5B5B5B" points="61.919 3.986 61.919 27.903 67.032 24.918 67.032 12.953"/>
        <polygon fill="#3D3D3D" points="67.032 13.097 67.032 25.056 82.37 16.088"/>
        <path fill="#222771" d="M71.8563557 37.2258673C70.4521 38.0652281 69.3043911 37.3749314 69.3043911 35.6942088 69.3043911 34.0124858 70.4559579 31.949599 71.8640714 31.1082372 73.2721848 30.267876 74.4208582 30.9571723 74.4170004 32.6408962 74.4121781 34.32462 73.2606113 36.3875069 71.8563557 37.2258673M30.9554035 61.7119878C29.5511479 62.5513267 28.403439 61.8610479 28.403439 60.1803693 28.403439 58.4986903 29.5550057 56.4348569 30.9631192 55.5945176 32.3721972 54.7541783 33.5199061 55.4424562 33.5160483 57.1271365 33.511226 58.8108163 32.3596592 60.8736492 30.9554035 61.7119878"/>
        <polygon fill="#CCC" points="30.676 69.31 71.577 45.556 71.577 63.371 30.676 87.125"/>
        <path stroke="#3A4D57" stroke-linecap="round" stroke-width="2" d="M30.6757141,57.5138889 L30.6757141,42.7184925 C30.6757141,34.5818871 39.8779503,22.5983636 51.1261901,16.0890792 C62.37443,9.57883649 71.5766662,10.910978 71.5766662,19.0475835 L71.5766662,33.8429798"/>
      </g>
    </g>
  </g>
</svg>
