<svg xmlns="http://www.w3.org/2000/svg" xmlns:xlink="http://www.w3.org/1999/xlink" width="227" height="216" viewBox="0 0 227 216">
  <defs>
    <polygon id="bi-penetration-ans-a" points=".027 137.54 78.723 137.54 78.723 .515 .027 .515"/>
    <polygon id="bi-penetration-ans-c" points=".148 102.617 6.824 102.617 6.824 .291 .148 .291 .148 102.617"/>
    <polygon id="bi-penetration-ans-e" points="58.869 100.654 58.869 .313 .757 .313 .757 100.654 58.869 100.654"/>
    <linearGradient id="bi-penetration-ans-g" x1="0%" y1="50%" y2="50%">
      <stop offset="0%" stop-color="#C33764"/>
      <stop offset="100%" stop-color="#1D2671"/>
    </linearGradient>
  </defs>
  <g fill="none" fill-rule="evenodd" transform="translate(0 1)">
    <path stroke="#3A4D57" stroke-linecap="round" stroke-width="2" d="M13,109 L13,90.1641789 C13,79.8048117 24.9252971,64.5458568 39.4991511,56.2583631 C54.0747029,47.9708693 66,49.6664946 66,60.0258618 L66,78.8633551"/>
    <g transform="translate(26 71)">
      <mask id="bi-penetration-ans-b" fill="#fff">
        <use xlink:href="#bi-penetration-ans-a"/>
      </mask>
      <polygon fill="#F46699" points="52.503 15.74 78.723 .515 78.711 91.866 .027 134.5 .027 44.5" mask="url(#bi-penetration-ans-b)"/>
    </g>
    <polygon fill="#D8CDA7" points="79 57 79 87.499 26 115.5 20 105 .5 101"/>
    <g transform="translate(20 105)">
      <mask id="bi-penetration-ans-d" fill="#fff">
        <use xlink:href="#bi-penetration-ans-c"/>
      </mask>
      <polygon fill="#CA3F71" points="-.84 -1.709 5.824 9.658 5.798 100.617 -.852 89.25" mask="url(#bi-penetration-ans-d)"/>
    </g>
    <polygon fill="#F24C88" points="20 104.803 19.988 196 0 192.197 .024 101"/>
    <polygon fill="#C9BC97" points="79 57 79 87 86 83.255 86 68.247"/>
    <polygon fill="#C9BC97" points="86 68 86 83 106 71.751"/>
    <path fill="#CA3F71" d="M92.4945638 98.5826006C90.5726442 99.5633094 89 98.7559501 89 96.7881121 89 94.8202741 90.5762636 92.4030114 92.5054221 91.4190923 94.4327709 90.4351733 96.0054151 91.2441377 95.999986 93.2135809 95.9945568 95.1846291 94.4164835 97.6018918 92.4945638 98.5826006M39.4945638 128.582497C37.5726442 129.563358 36 128.755874 36 126.789335 36 124.819587 37.5762636 122.401949 39.5054221 121.419483 41.4327709 120.435411 43.0054151 121.242896 42.999986 123.212644 42.9945568 125.185604 41.4164835 127.601636 39.4945638 128.582497"/>
    <polygon fill="#F24C88" points="40 140.285 93 110 93 132.713 40 163"/>
    <path stroke="#3A4D57" stroke-linecap="round" stroke-width="2" d="M40 125L40 106.162507C40 95.8031395 51.9252971 80.5458568 66.4991511 72.2583631 81.0747029 63.9708693 93 65.6664946 93 76.0258618L93 94.8633551M158 91L158 77.0343097C158 69.3546947 166.773898 58.0431251 177.5 51.9001064 188.224406 45.7537216 197 47.0109367 197 54.6922346L197 68.6562419"/>
    <g transform="translate(168 63)">
      <mask id="bi-penetration-ans-f" fill="#fff">
        <use xlink:href="#bi-penetration-ans-e"/>
      </mask>
      <polygon fill="#50D6C6" points="39.508 11.462 58.87 .313 58.86 67.207 .757 100.654 .774 33.76" mask="url(#bi-penetration-ans-f)"/>
    </g>
    <polygon fill="#D8CDA7" points="207 53 207 74.999 168.329 97 163.495 88.751 149 85.999"/>
    <polygon fill="#31A395" points="164.009 89 169 97.444 168.983 165 164 156.558"/>
    <polygon fill="#3EBFB4" points="164 88.802 163.991 156 149 153.198 149.019 86"/>
    <polygon fill="#C9BC97" points="207 53 207 75 212 72.254 212 61.249"/>
    <polygon fill="#C9BC97" points="211.5 61 211.5 72.5 227 63.5"/>
    <path fill="#31A395" d="M217.495608 82.6868414C216.121444 83.4222784 215 82.8175858 215 81.3418089 215 79.8643977 216.126709 78.0519541 217.502628 77.3148828 218.880303 76.5761772 220.003502 77.1825041 219.999992 78.6599153 219.994727 80.1373265 218.868018 81.9497701 217.495608 82.6868414M178.495603 105.686841C177.123197 106.422278 176 105.817586 176 104.341809 176 102.864398 177.126707 101.051954 178.502623 100.314883 179.88205 99.5761772 181.005247 100.182504 180.999982 101.659915 180.994717 103.137327 179.86801 104.94977 178.495603 105.686841"/>
    <polygon fill="#3EBFB4" points="177 113.286 216 91 216 107.714 177 130"/>
    <path stroke="#3A4D57" stroke-linecap="round" stroke-width="2" d="M177,101 L177,87.0343097 C177,79.3546947 185.775594,68.0431251 196.5,61.9001064 C207.226102,55.7537216 216,57.0109367 216,64.6922346 L216,78.6562419"/>
    <g transform="translate(43)">
      <path stroke="#3A4D57" stroke-linecap="round" stroke-width="2" d="M17.9016339,79.6296296 L17.9016339,53.7678603 C17.9016339,39.5453948 34.0122674,18.5986683 53.7049016,7.21902068 C73.3975357,-4.1589517 89.5081693,-1.83042084 89.5081693,12.3920446 L89.5081693,38.253814"/>
      <polygon fill="url(#bi-penetration-ans-g)" points="108.09 48.663 144.208 27.87 144.191 152.623 35.803 215 35.837 90.247"/>
      <polygon fill="#747474" points="108.404 6.968 108.404 48.773 36.129 90.579 27.093 74.908 0 69.678"/>
      <polygon fill="#6D2E6A" points="26.869 74.653 35.803 90.243 35.77 215 26.852 199.411"/>
      <polygon fill="#672364" points="26.852 74.896 26.836 200.069 0 194.85 .033 69.676"/>
      <polygon fill="#5B5B5B" points="108.404 6.968 108.404 48.773 117.355 43.555 117.355 22.642"/>
      <polygon fill="#3D3D3D" points="117.355 22.894 117.355 43.796 144.208 28.121"/>
      <path fill="#222771" d="M125.801098 65.0696054C123.342625 66.5367809 121.333296 65.3301646 121.333296 62.3923162 121.333296 59.4527191 123.349379 55.84686 125.814606 54.3761871 128.279833 52.9072629 130.29085 54.1121304 130.284096 57.055225 130.275654 59.9983195 128.259571 63.6041787 125.801098 65.0696054M54.1945624 107.870548C51.7360895 109.337685 49.7267607 108.1311 49.7267607 105.193328 49.7267607 102.253808 51.7428436 98.6462946 54.2080705 97.1774088 56.6749859 95.708523 58.6843147 96.9116104 58.6775607 99.8563767 58.6691181 102.799394 56.6530353 106.405159 54.1945624 107.870548"/>
      <polygon fill="#CCC" points="53.705 121.151 125.311 79.63 125.311 110.77 53.705 152.292"/>
      <path stroke="#3A4D57" stroke-linecap="round" stroke-width="2" d="M53.7049016,100.532407 L53.7049016,74.6705358 C53.7049016,60.448014 69.8155351,39.5012047 89.5081693,28.1231873 C109.200803,16.7434947 125.311437,19.0720348 125.311437,33.2945565 L125.311437,59.1564281"/>
    </g>
  </g>
</svg>
