<?xml version="1.0" encoding="UTF-8"?>
<svg width="54px" height="62px" viewBox="0 0 54 62" version="1.1" xmlns="http://www.w3.org/2000/svg" xmlns:xlink="http://www.w3.org/1999/xlink">
    <!-- Generator: Sketch 46.2 (44496) - http://www.bohemiancoding.com/sketch -->
    <title>Group 25</title>
    <desc>Created with Sketch.</desc>
    <defs>
        <linearGradient x1="0%" y1="50%" x2="100%" y2="50%" id="linearGradient-1">
            <stop stop-color="#C33764" offset="0%"></stop>
            <stop stop-color="#1D2671" offset="100%"></stop>
        </linearGradient>
    </defs>
    <g id="Page-1" stroke="none" stroke-width="1" fill="none" fill-rule="evenodd">
        <g id="6.0-Brand-Insights_CopyNotReady" transform="translate(-944.000000, -1063.000000)">
            <g id="Group-25" transform="translate(945.000000, 1064.000000)">
                <g id="Group-2" transform="translate(33.750000, 31.250000)" stroke="#000000" stroke-width="0.5" fill="#000000">
                    <path d="M15.2434002,22.9659498 L17.8815998,22.9659498 L17.8815998,7.03405018 L15.2434002,7.03405018 L15.2434002,22.9659498 Z M18.3157999,23.75 L14.8092001,23.75 C14.5695216,23.75 14.375,23.5743728 14.375,23.3579749 L14.375,6.64202509 C14.375,6.42562724 14.5695216,6.25 14.8092001,6.25 L18.3157999,6.25 C18.5554784,6.25 18.75,6.42562724 18.75,6.64202509 L18.75,23.3579749 C18.75,23.5743728 18.5554784,23.75 18.3157999,23.75 L18.3157999,23.75 Z" id="Fill-367"></path>
                    <path d="M15.252361,23.75 L0.37263896,23.75 C0.166942254,23.75 0,23.5743728 0,23.3579749 L0,6.64202509 C0,6.42562724 0.166942254,6.25 0.37263896,6.25 L15.252361,6.25 C15.4580577,6.25 15.625,6.42562724 15.625,6.64202509 C15.625,6.85842294 15.4580577,7.03405018 15.252361,7.03405018 L0.745277919,7.03405018 L0.745277919,22.9659498 L15.252361,22.9659498 C15.4580577,22.9659498 15.625,23.1415771 15.625,23.3579749 C15.625,23.5743728 15.4580577,23.75 15.252361,23.75" id="Fill-368"></path>
                    <path d="M13.3667027,6.25 C13.1546116,6.25 12.9834055,6.09652488 12.9834055,5.90742162 L12.9834055,4.7476796 C12.9834055,2.50767376 10.9442641,0.685156764 8.43801106,0.685156764 C5.93124699,0.685156764 3.89159452,2.50767376 3.89159452,4.7476796 L3.89159452,5.90742162 C3.89159452,6.09652488 3.72038841,6.25 3.50829726,6.25 C3.29671717,6.25 3.125,6.09652488 3.125,5.90742162 L3.125,4.7476796 C3.125,2.12992399 5.50859788,0 8.43801106,0 C11.3669132,0 13.75,2.12992399 13.75,4.7476796 L13.75,5.90742162 C13.75,6.09652488 13.5782828,6.25 13.3667027,6.25" id="Fill-369"></path>
                    <path d="M16.4916843,6.25 C16.280094,6.25 16.1083686,6.09652488 16.1083686,5.90742162 L16.1083686,4.7476796 C16.1083686,2.50767376 14.0691291,0.685156764 11.5617334,0.685156764 C9.05535981,0.685156764 7.01663139,2.50767376 7.01663139,4.7476796 L7.01663139,5.90742162 C7.01663139,6.09652488 6.84490596,6.25 6.6333157,6.25 C6.42172543,6.25 6.25,6.09652488 6.25,5.90742162 L6.25,4.7476796 C6.25,2.12992399 8.63269037,0 11.5617334,0 C14.4917985,0 16.875,2.12992399 16.875,4.7476796 L16.875,5.90742162 C16.875,6.09652488 16.7032746,6.25 16.4916843,6.25" id="Fill-370"></path>
                </g>
                <g id="Group-24">
                    <g id="noun_683354_cc">
                        <path d="M36.40625,26.61875 C35.7564197,26.4374036 35.0615369,26.6683422 34.6495261,27.2025828 C34.2375154,27.7368235 34.1907305,28.4675806 34.53125,29.05 C34.9844409,29.8460675 35.9961881,30.1255557 36.79375,29.675 L36.79375,29.675 C37.3760529,29.3397902 37.6981448,28.6860021 37.6090755,28.0200375 C37.5200061,27.3540728 37.0374263,26.8079055 36.3875,26.6375 L36.40625,26.61875 Z M32.03125,22.04375 C31.2328181,21.5911715 30.2186836,21.871208 29.7656218,22.6693659 C29.3125601,23.4675237 29.5919826,24.4818275 30.389866,24.9353723 C31.1877495,25.3889172 32.2022222,25.1101087 32.65625,24.3125 C32.8763419,23.9292396 32.9341265,23.4739109 32.8167468,23.0478228 C32.6993672,22.6217348 32.4165605,22.2602329 32.03125,22.04375 L32.03125,22.04375 Z M13.90625,39.625 C13.142107,39.4253875 12.3433296,39.79309 11.9980539,40.5034029 C11.6527782,41.2137157 11.8570739,42.0690015 12.4860949,42.5465915 C13.1151159,43.0241815 13.9938434,42.9911911 14.5852835,42.4677808 C15.1767235,41.9443706 15.3163137,41.0761741 14.91875,40.39375 C14.7094592,40.0187964 14.3617503,39.7406293 13.95,39.61875 L13.90625,39.625 Z M19.06875,44.53125 C18.4660072,44.1863341 17.7120945,44.2540629 17.1804786,44.7008855 C16.6488627,45.1477082 16.4524469,45.8787296 16.6885298,46.5318228 C16.9246127,47.1849161 17.5430557,47.6213788 18.2375,47.625 C18.7544721,47.6258048 19.2421693,47.3851695 19.5560679,46.9744038 C19.8699665,46.563638 19.9740595,46.0298604 19.8375,45.53125 C19.7371148,45.1137492 19.4767529,44.7523849 19.1125,44.525 L19.06875,44.53125 Z M24.725,49.35 L24.725,49.35 C25.6407317,49.3465574 26.3812565,48.6032381 26.38125,47.6875 C26.3813616,47.2484443 26.2058187,46.8275915 25.89375,46.51875 C25.5843826,46.2043892 25.1597506,46.0304707 24.71875,46.0375 L24.71875,46.0375 C23.8309416,46.0710219 23.12772,46.7990632 23.125,47.6875 C23.1283576,48.5959646 23.8603369,49.3335103 24.76875,49.34375 L24.725,49.35 Z M26.25,34.7125 L26.25,21.74375 C26.25,20.9187747 25.5812253,20.25 24.75625,20.25 C16.7682333,20.2534409 10.291592,26.7244893 10.28125,34.7125 C10.28125,35.5374753 10.9500247,36.20625 11.775,36.20625 L24.74375,36.20625 C25.1420785,36.2095834 25.5252388,36.0536794 25.8080806,35.7731849 C26.0909224,35.4926903 26.2500139,35.1108424 26.25,34.7125 L26.25,34.7125 Z" id="Shape" fill="url(#linearGradient-1)" fill-rule="nonzero"></path>
                        <path d="M0.09375,36.4375 C-0.75431202,23.4168248 8.64940079,11.9732255 21.5875,10.28125 L21.5875,6.8375 L18.83125,6.8375 C18.3169348,6.8375 17.9,6.42056517 17.9,5.90625 L17.9,1.40625 C17.9,1.15926714 17.9981136,0.922400062 18.1727568,0.74775681 C18.3474001,0.573113558 18.5842671,0.475 18.83125,0.475 L30.70625,0.475 C31.2205652,0.475 31.6375,0.891934827 31.6375,1.40625 L31.6375,5.9 C31.6375,6.14698286 31.5393864,6.38384994 31.3647432,6.55849319 C31.1900999,6.73313644 30.9532329,6.83125 30.70625,6.83125 L27.95,6.83125 L27.95,10.275 C38.2210702,11.6253319 46.5691448,19.2206091 48.88125,29.31875 C47.9999066,28.7202056 46.9591239,28.4001323 45.89375,28.4 L44.15625,28.4 C43.7217889,28.4032652 43.2893777,28.4599405 42.86875,28.56875 C39.4468823,18.6251185 28.6448733,13.3032282 18.6754837,16.6493089 C8.70609403,19.9953896 3.30213629,30.7565771 6.57223611,40.7511472 C9.84233593,50.7457174 20.5620784,56.2314295 30.58125,53.0375 C30.3405047,54.6960306 30.896484,56.3709182 32.08125,57.55625 L32.70625,58.18125 C25.4364556,60.6530985 17.4306905,59.6052505 11.041949,55.3456814 C4.65320761,51.0861123 0.607440777,44.0988359 0.09375,36.4375 Z" id="Path" stroke="#FFFFFF" stroke-width="2" fill="#000000"></path>
                    </g>
                </g>
            </g>
        </g>
    </g>
</svg>