<svg xmlns="http://www.w3.org/2000/svg" xmlns:xlink="http://www.w3.org/1999/xlink" width="341" height="332" viewBox="0 0 341 332">
  <defs>
    <polygon id="bi-performance-landing-a" points="128.713 79 .004 79 .004 .647 128.713 .647 128.713 79"/>
    <polygon id="bi-performance-landing-c" points=".015 74.75 42.849 74.75 42.849 .28 .015 .28"/>
    <polygon id="bi-performance-landing-e" points=".075 55.792 3.466 55.792 3.466 .158 .075 .158 .075 55.792"/>
    <polygon id="bi-performance-landing-g" points="31.929 54.811 31.929 .17 .411 .17 .411 54.811 31.929 54.811"/>
    <linearGradient id="bi-performance-landing-i" x1="0%" y1="50%" y2="50%">
      <stop offset="0%" stop-color="#C33764"/>
      <stop offset="100%" stop-color="#1D2671"/>
    </linearGradient>
  </defs>
  <g fill="none" fill-rule="evenodd" transform="translate(0 -1)">
    <g transform="translate(0 .466)">
      <g transform="translate(233 72)">
        <polygon fill="#283197" points="34.938 41.706 29.803 40.191 24.626 34.107 29.76 35.623"/>
        <path fill="#0E1456" d="M32.9777,25.1099 C32.9777,25.1029 32.9787,25.0969 32.9797,25.0899 C32.9847,24.9679 32.9727,24.8489 32.9757,24.7279 C32.9867,24.2259 32.9897,23.7239 32.9607,23.2279 C32.9587,23.2059 32.9617,23.1819 32.9597,23.1589 C32.9257,22.6019 32.8657,22.0499 32.7787,21.5069 C32.5827,20.2899 32.2637,19.1949 31.8447,18.2319 L26.7107,16.7159 C27.1297,17.6809 27.4497,18.7759 27.6447,19.9919 C27.7357,20.5579 27.7927,21.1329 27.8277,21.7139 C27.8557,22.2089 27.8527,22.7099 27.8417,23.2109 C27.8387,23.3389 27.8487,23.4659 27.8437,23.5949 C27.8407,23.6659 27.8307,23.7359 27.8267,23.8069 C27.7997,24.3169 27.7567,24.8269 27.6927,25.3369 C27.6717,25.4969 27.6427,25.6559 27.6187,25.8169 C27.5567,26.2249 27.4877,26.6319 27.4027,27.0379 C27.3647,27.2199 27.3237,27.4009 27.2817,27.5809 C27.1887,27.9769 27.0827,28.3699 26.9697,28.7609 C26.9217,28.9219 26.8787,29.0839 26.8287,29.2439 C26.6667,29.7539 26.4907,30.2569 26.2947,30.7509 C26.2817,30.7869 26.2697,30.8229 26.2557,30.8589 C26.0387,31.3999 25.7977,31.9289 25.5417,32.4449 C25.3377,32.8569 25.1127,33.2499 24.8847,33.6419 C24.7957,33.7949 24.7177,33.9579 24.6257,34.1069 L29.7597,35.6219 C29.7707,35.6049 29.7817,35.5879 29.7917,35.5699 C29.8737,35.4359 29.9417,35.2899 30.0207,35.1529 C30.2477,34.7619 30.4727,34.3709 30.6757,33.9609 C30.6877,33.9359 30.7037,33.9139 30.7147,33.8889 C30.9557,33.4009 31.1787,32.8989 31.3847,32.3879 C31.3867,32.3829 31.3877,32.3779 31.3897,32.3729 C31.4037,32.3379 31.4157,32.3009 31.4287,32.2659 C31.5977,31.8389 31.7577,31.4069 31.9017,30.9679 C31.9237,30.8989 31.9407,30.8279 31.9617,30.7589 C32.0127,30.5989 32.0567,30.4369 32.1037,30.2749 C32.1717,30.0409 32.2477,29.8099 32.3087,29.5739 C32.3487,29.4159 32.3777,29.2559 32.4157,29.0959 C32.4567,28.9149 32.4987,28.7349 32.5367,28.5529 C32.5637,28.4229 32.5987,28.2949 32.6237,28.1649 C32.6757,27.8879 32.7097,27.6089 32.7517,27.3309 C32.7767,27.1709 32.8057,27.0119 32.8267,26.8519 C32.8327,26.7989 32.8447,26.7469 32.8507,26.6939 C32.9057,26.2369 32.9367,25.7789 32.9607,25.3219 C32.9637,25.2509 32.9747,25.1799 32.9777,25.1099"/>
        <polygon fill="#283197" points="31.845 18.232 26.711 16.716 33.481 9.45 38.615 10.964"/>
        <path fill="#0C728E" d="M25.1818,1.3936 L30.3168,2.9086 C27.4588,2.0646 24.2348,2.3916 20.9468,4.0596 L15.8118,2.5446 C19.1008,0.8766 22.3258,0.5506 25.1818,1.3936"/>
        <path fill="#9050A2" d="M20.9465 4.0596L15.8115 2.5446C16.1865 2.3546 16.5595 2.1826 16.9325 2.0266L22.0665 3.5416C21.6945 3.6966 21.3205 3.8696 20.9465 4.0596M22.0666 3.5415L16.9326 2.0265C17.7176 1.6985 18.4986 1.4475 19.2676 1.2695L24.4016 2.7845C23.6316 2.9625 22.8516 3.2135 22.0666 3.5415"/>
        <path fill="#9050A2" d="M24.4016 2.7847L19.2676 1.2697C19.9226 1.1187 20.5706 1.0207 21.2096.9757L26.3426 2.4907C25.7046 2.5357 25.0566 2.6337 24.4016 2.7847M26.343 2.4903L21.209.9753C21.8.9333 22.382.9353 22.954.9813L28.088 2.4963C27.516 2.4503 26.934 2.4483 26.343 2.4903M28.0881 2.4961L22.9541.9811C23.5121 1.0261 24.0591 1.1121 24.5951 1.2381L29.7291 2.7521C29.1921 2.6261 28.6461 2.5401 28.0881 2.4961"/>
        <path fill="#0C728E" d="M29.7287,2.7525 L24.5947,1.2375 C24.7917,1.2845 24.9887,1.3355 25.1817,1.3935 L30.3167,2.9085 C30.1227,2.8515 29.9257,2.7985 29.7287,2.7525"/>
        <polygon fill="#5E2C6C" points="21.846 14.328 16.712 12.813 15.812 2.545 20.947 4.06"/>
        <path fill="#9B224C" d="M23.1984,36.1089 C22.9924,36.3619 22.7774,36.6019 22.5604,36.8379 C22.5114,36.8909 22.4664,36.9449 22.4174,36.9969 C22.1864,37.2409 21.9504,37.4739 21.7094,37.6979 C21.6484,37.7539 21.5864,37.8049 21.5254,37.8599 C21.3374,38.0279 21.1464,38.1889 20.9524,38.3429 C20.8734,38.4069 20.7934,38.4689 20.7134,38.5289 C20.4654,38.7159 20.2154,38.8979 19.9574,39.0609 C19.6944,39.2279 19.4314,39.3779 19.1694,39.5149 C19.0834,39.5599 18.9964,39.5949 18.9104,39.6369 C18.7334,39.7219 18.5574,39.8079 18.3824,39.8799 C18.3114,39.9089 18.2424,39.9309 18.1724,39.9579 C17.9944,40.0259 17.8164,40.0889 17.6394,40.1429 C17.5514,40.1699 17.4634,40.1929 17.3754,40.2159 C17.2044,40.2619 17.0344,40.3029 16.8654,40.3369 C16.8024,40.3489 16.7404,40.3619 16.6774,40.3729 C16.4484,40.4109 16.2204,40.4409 15.9954,40.4559 C15.6944,40.4769 15.3974,40.4729 15.1044,40.4529 C15.0174,40.4469 14.9324,40.4349 14.8474,40.4249 C14.6434,40.4029 14.4424,40.3729 14.2444,40.3309 C14.0824,40.2969 13.9204,40.2659 13.7624,40.2199 L18.8964,41.7339 C19.0064,41.7669 19.1174,41.7959 19.2284,41.8219 C19.2774,41.8339 19.3284,41.8359 19.3784,41.8459 C19.5764,41.8869 19.7774,41.9179 19.9814,41.9399 C20.0414,41.9469 20.0984,41.9629 20.1584,41.9679 C20.1844,41.9699 20.2124,41.9659 20.2384,41.9679 C20.5314,41.9879 20.8284,41.9919 21.1304,41.9709 C21.1354,41.9709 21.1394,41.9719 21.1454,41.9709 C21.3654,41.9559 21.5884,41.9249 21.8114,41.8869 C21.8744,41.8769 21.9354,41.8639 21.9984,41.8519 C22.0834,41.8349 22.1674,41.8219 22.2524,41.8029 C22.3374,41.7829 22.4244,41.7549 22.5094,41.7319 C22.5974,41.7079 22.6854,41.6849 22.7734,41.6579 C22.9504,41.6039 23.1284,41.5409 23.3054,41.4729 C23.3764,41.4459 23.4454,41.4229 23.5154,41.3949 C23.5354,41.3869 23.5534,41.3819 23.5724,41.3739 C23.7274,41.3089 23.8854,41.2289 24.0414,41.1529 C24.1294,41.1099 24.2164,41.0749 24.3034,41.0289 C24.5654,40.8929 24.8284,40.7429 25.0914,40.5759 C25.2824,40.4539 25.4714,40.3259 25.6574,40.1909 C25.7214,40.1449 25.7834,40.0919 25.8464,40.0439 C25.9274,39.9839 26.0074,39.9219 26.0864,39.8589 C26.2804,39.7039 26.4714,39.5429 26.6604,39.3739 C26.7204,39.3199 26.7824,39.2689 26.8434,39.2129 C27.0844,38.9889 27.3204,38.7549 27.5514,38.5109 C27.5994,38.4599 27.6464,38.4049 27.6944,38.3529 C27.8224,38.2129 27.9514,38.0759 28.0754,37.9309 C28.1624,37.8299 28.2474,37.7279 28.3324,37.6239 L23.1984,36.1089 Z"/>
        <path fill="#98204A" d="M5.7853,38.6455 C5.6803,37.9855 5.6043,37.3155 5.5433,36.6435 C5.5283,36.4875 5.5143,36.3325 5.5023,36.1765 C5.4543,35.5455 5.4233,34.9105 5.4123,34.2715 C5.4113,34.2085 5.4053,34.1445 5.4053,34.0805 C5.3963,33.3815 5.4153,32.6775 5.4503,31.9735 C5.4573,31.8335 5.4673,31.6925 5.4743,31.5515 C5.5163,30.8745 5.5723,30.1955 5.6513,29.5185 C5.6533,29.5015 5.6543,29.4855 5.6563,29.4685 C5.6653,29.4015 5.6793,29.3335 5.6863,29.2665 C5.7813,28.5075 5.8973,27.7505 6.0383,26.9975 C6.0943,26.6975 6.1653,26.4005 6.2283,26.1015 C6.3343,25.5985 6.4393,25.0955 6.5643,24.5965 C6.6463,24.2715 6.7413,23.9505 6.8313,23.6275 C6.9623,23.1575 7.0943,22.6875 7.2413,22.2215 C7.3423,21.9045 7.4533,21.5905 7.5613,21.2765 C7.7303,20.7885 7.9043,20.3035 8.0913,19.8245 C8.2083,19.5225 8.3303,19.2245 8.4553,18.9265 C8.6873,18.3705 8.9323,17.8215 9.1893,17.2805 C9.3323,16.9785 9.4713,16.6715 9.6213,16.3745 C9.7133,16.1925 9.8073,16.0125 9.9033,15.8335 C10.1473,15.3675 10.4013,14.9105 10.6633,14.4615 C10.7513,14.3115 10.8363,14.1585 10.9253,14.0095 C11.0713,13.7665 11.2303,13.5355 11.3823,13.2965 C11.6803,12.8285 11.9823,12.3655 12.2993,11.9185 C12.4753,11.6685 12.6593,11.4285 12.8413,11.1865 C13.1433,10.7845 13.4533,10.3905 13.7703,10.0085 C14.0513,9.6705 14.3323,9.3345 14.6243,9.0145 C14.6953,8.9365 14.7643,8.8545 14.8373,8.7775 C15.2593,8.3265 15.6933,7.8955 16.1373,7.4825 C16.2323,7.3945 16.3293,7.3075 16.4263,7.2205 C16.8863,6.8055 17.3533,6.4045 17.8353,6.0345 L12.7013,4.5195 C12.2203,4.8895 11.7523,5.2905 11.2923,5.7055 C11.1953,5.7925 11.0983,5.8785 11.0033,5.9675 C10.5593,6.3805 10.1253,6.8105 9.7043,7.2625 C9.6313,7.3405 9.5603,7.4215 9.4883,7.5005 C9.3033,7.7045 9.1153,7.9055 8.9333,8.1165 C8.8303,8.2365 8.7383,8.3715 8.6373,8.4935 C8.3183,8.8745 8.0113,9.2685 7.7083,9.6715 C7.5253,9.9145 7.3423,10.1535 7.1653,10.4035 C6.8483,10.8515 6.5463,11.3145 6.2473,11.7835 C6.1373,11.9575 6.0153,12.1175 5.9073,12.2935 C5.8673,12.3595 5.8313,12.4285 5.7913,12.4945 C5.7013,12.6435 5.6163,12.7965 5.5283,12.9475 C5.2663,13.3965 5.0143,13.8525 4.7693,14.3165 C4.6743,14.4975 4.5793,14.6775 4.4863,14.8605 C4.4233,14.9875 4.3533,15.1095 4.2913,15.2375 C4.2063,15.4095 4.1383,15.5915 4.0563,15.7655 C3.7993,16.3075 3.5543,16.8545 3.3203,17.4125 C3.2573,17.5655 3.1813,17.7115 3.1183,17.8665 C3.0593,18.0115 3.0143,18.1635 2.9573,18.3095 C2.7703,18.7895 2.5963,19.2735 2.4283,19.7625 C2.3563,19.9685 2.2713,20.1685 2.2043,20.3755 C2.1683,20.4845 2.1423,20.5975 2.1073,20.7065 C1.9603,21.1725 1.8273,21.6425 1.6963,22.1135 C1.6293,22.3575 1.5473,22.5965 1.4843,22.8415 C1.4643,22.9205 1.4503,23.0015 1.4313,23.0815 C1.3063,23.5805 1.2003,24.0835 1.0943,24.5875 C1.0413,24.8385 0.9733,25.0865 0.9263,25.3385 C0.9173,25.3865 0.9133,25.4345 0.9043,25.4815 C0.7643,26.2365 0.6473,26.9935 0.5533,27.7505 C0.5453,27.8135 0.5313,27.8745 0.5243,27.9375 C0.5233,27.9425 0.5233,27.9485 0.5223,27.9545 C0.5203,27.9705 0.5193,27.9865 0.5173,28.0025 C0.4373,28.6815 0.3833,29.3595 0.3413,30.0365 C0.3323,30.1775 0.3233,30.3175 0.3153,30.4585 C0.3103,30.5745 0.3003,30.6905 0.2953,30.8065 C0.2713,31.3945 0.2643,31.9815 0.2703,32.5655 C0.2713,32.6295 0.2763,32.6925 0.2773,32.7565 C0.2863,33.2495 0.3013,33.7425 0.3313,34.2315 C0.3413,34.3755 0.3573,34.5185 0.3683,34.6615 C0.3803,34.8175 0.3943,34.9725 0.4083,35.1285 C0.4713,35.8015 0.5463,36.4705 0.6513,37.1305 C1.8533,44.6265 5.6813,49.5345 10.5953,50.9845 L15.7293,52.4995 C10.8153,51.0495 6.9883,46.1425 5.7853,38.6455"/>
        <path fill="#43194F" d="M30.8615,16.4683 L25.7275,14.9533 C24.7385,13.5413 23.4615,12.5873 22.0165,12.1613 L27.1505,13.6763 C28.5945,14.1023 29.8725,15.0553 30.8615,16.4683"/>
        <path fill="#1F2671" d="M38.6144,10.9644 C39.3554,12.6664 39.9174,14.6054 40.2614,16.7554 C41.5964,25.0764 39.3634,34.5184 34.9374,41.7054 L29.7604,35.6224 C32.2654,31.5524 33.5344,26.2174 32.7784,21.5064 C32.5834,20.2904 32.2634,19.1954 31.8444,18.2314 L38.6144,10.9644 Z"/>
        <path fill="#5E2C6C" d="M20.9465,4.0596 C27.1735,0.9006 33.1705,2.5526 36.8815,7.8476 L30.8615,16.4686 C28.7625,13.4736 25.3725,12.5416 21.8455,14.3276 L20.9465,4.0596 Z"/>
        <path fill="#BC3665" d="M17.8351,6.0342 L20.0911,15.4422 C15.2141,19.1872 12.1941,27.1892 13.2701,33.8942 C14.4081,40.9932 19.7081,43.9932 25.0911,40.5762 C26.2781,39.8222 27.3631,38.8082 28.3321,37.6242 L32.4171,45.2522 C30.7031,47.3442 28.7721,49.1212 26.6751,50.4522 C17.1671,56.4902 7.7981,51.1942 5.7851,38.6452 C3.8851,26.7912 9.2221,12.6482 17.8351,6.0342"/>
      </g>
      <path stroke="#000" stroke-dasharray="5" d="M238.6769 246.6905L276.0809 267.1995M169.0646 235.045L93.5606 278.612"/>
      <path fill="#696E70" d="M139.3517,0.8789 L142.0497,2.4439 C141.1217,1.9069 139.8427,1.9809 138.4287,2.7969 L135.7347,1.2309 C137.1467,0.4149 138.4287,0.3399 139.3517,0.8789"/>
      <g transform="translate(11)">
        <path stroke="#000" stroke-dasharray="5" d="M137.0681,193.291 L75.9341,158.574"/>
        <path fill="#27405E" d="M53.3127,153.7891 L80.2687,138.1261 C78.7827,138.9651 77.9277,140.8221 77.9207,143.2171 C77.9187,144.7891 79.0297,146.7141 80.4037,147.5091 L95.1047,155.9951 C95.8547,156.4281 96.4537,157.4771 96.4507,158.3371 C96.4507,158.7671 96.2987,159.0721 96.0547,159.2121 L69.0987,174.8761 C69.3437,174.7341 69.4967,174.4311 69.4967,174.0011 C69.4977,173.1411 68.8967,172.0921 68.1487,171.6601 L53.4507,163.1731 C52.0737,162.3761 50.9617,160.4521 50.9677,158.8831 C50.9717,156.4891 51.8277,154.6291 53.3127,153.7891"/>
        <polygon fill="#212525" points="70.45 139.617 97.405 123.953 99.312 127.264 72.355 142.929"/>
        <polygon fill="#1C1E1F" points="51.399 150.472 78.355 134.809 97.405 123.953 70.45 139.617"/>
        <path fill="#17232B" d="M70.4499,139.6172 L72.3549,142.9292 L53.3129,153.7892 C51.8279,154.6292 50.9719,156.4892 50.9679,158.8832 C50.9619,160.4522 52.0739,162.3762 53.4499,163.1732 L68.1489,171.6602 C68.8969,172.0922 69.4979,173.1402 69.4959,174.0012 C69.4919,174.8622 68.8909,175.2152 68.1409,174.7822 L53.4399,166.2962 C50.5759,164.6402 48.8439,161.8052 48.8549,158.5142 C48.8649,155.2992 51.2089,151.6062 53.1939,150.4722 L70.4499,139.6172 Z"/>
        <polygon fill="#17232B" points="124.012 87.76 123.802 7.19 126.498 8.756 126.705 89.326 9.23 157.152 6.535 155.585"/>
        <path fill="#27405E" d="M1.0358,175.3653 L1.0358,166.0773 L3.7438,167.6723 L3.7288,176.9413 L3.7108,176.9283 C3.7168,178.5323 4.2838,179.6603 5.1948,180.1903 L2.4988,178.6243 C1.5858,178.0913 1.0198,176.9603 1.0148,175.3543 L1.0358,175.3653 Z"/>
        <path fill="#9B9B9B" d="M3.756,167.6758 L132.735,93.2098 L132.762,102.4428 C132.769,105.6758 130.49,109.6168 127.675,111.2408 L81.915,137.6508 L54.247,153.6178 L8.821,179.8338 C6.006,181.4608 3.72,180.1548 3.709,176.9198 L3.756,167.6758 Z"/>
        <polygon fill="#FFF" points="124.933 7.772 125.141 88.345 7.663 156.169 7.456 75.598"/>
        <polygon fill="#AAA" points="9.23 157.151 6.535 155.585 6.329 75.015 9.023 76.581"/>
        <polygon fill="#F2F2F2" points="9.023 76.581 6.329 75.016 123.802 7.19 126.498 8.756"/>
        <path fill="#17232B" d="M0.8586,78.6026 C0.8496,75.6066 3.0006,71.5176 5.9386,69.8156 L124.7346,1.2306 C126.1466,0.4146 127.4286,0.3396 128.3516,0.8786 L131.0496,2.4446 C130.1216,1.9066 128.8426,1.9806 127.4286,2.7976 L8.6346,71.3826 C5.9526,72.9296 3.5456,76.8876 3.5556,80.1696 L3.7366,160.3606 L3.7646,167.6906 L1.0276,166.0846 L1.0406,158.7936 L0.8586,78.6026 Z"/>
        <path fill="#27405E" d="M126.7053,89.3262 L126.4983,8.7562 L9.0233,76.5812 L9.2303,157.1512 L126.7053,89.3262 Z M127.4283,2.7972 C130.2363,1.1772 132.5223,2.4792 132.5313,5.7062 C132.7783,93.2642 132.7303,92.0992 132.7353,93.2102 L3.7443,167.7102 L3.7393,161.6332 L3.7363,160.3602 L3.5563,80.1702 C3.5453,76.9412 5.8183,73.0082 8.6343,71.3822 L127.4283,2.7972 Z"/>
        <path fill="#BB3665" d="M77.215,72.8457 L84.818,66.0087 C81.878,59.7937 75.99,56.5357 69.069,57.9417 L68.306,68.2817 C72.222,67.4857 75.551,69.3297 77.215,72.8457"/>
        <path fill="#6B2E6A" d="M86.0842,69.5464 L77.9332,74.8464 C78.2052,75.9084 78.3552,77.0704 78.3552,78.3204 C78.3552,83.1554 76.1692,88.0594 72.9262,91.3734 L77.2422,98.7664 C82.9742,92.9104 86.8252,84.2314 86.8252,75.6884 C86.8252,73.4794 86.5642,71.4234 86.0842,69.5464"/>
        <path fill="#272770" d="M67.3103,94.9756 C61.2203,96.8686 56.2663,92.4766 56.2663,85.1856 C56.2663,78.2966 60.6903,71.2536 66.3143,68.8996 L65.5513,59.0356 C55.6123,63.1936 47.7953,75.6456 47.7953,87.8176 C47.7953,100.7006 56.5493,108.4606 67.3103,105.1166 C69.6853,104.3786 71.9613,103.1596 74.0683,101.5706 L71.1303,92.9556 C69.9373,93.8556 68.6543,94.5586 67.3103,94.9756"/>
      </g>
      <g transform="translate(0 253)">
        <mask id="bi-performance-landing-b" fill="#fff">
          <use xlink:href="#bi-performance-landing-a"/>
        </mask>
        <path fill="#425460" d="M128.7077,30.6983 C128.7207,30.3703 128.5727,30.0363 128.2467,29.8483 L77.8867,0.7733 C77.5967,0.6053 77.2377,0.6053 76.9467,0.7733 L0.4697,44.9233 C0.1447,45.1103 -0.0033,45.4443 0.0087,45.7723 C0.0077,45.7973 0.0077,45.8193 0.0087,45.8443 C0.0077,45.8683 0.0077,45.8903 0.0087,45.9153 C0.0077,45.9393 0.0077,45.9613 0.0087,45.9853 C0.0077,46.0113 0.0077,46.0323 0.0087,46.0563 C0.0077,46.0813 0.0077,46.1033 0.0087,46.1283 C0.0077,46.1523 0.0077,46.1753 0.0087,46.1993 C0.0077,46.2233 0.0077,46.2453 0.0087,46.2703 C0.0077,46.2953 0.0077,46.3163 0.0087,46.3413 C0.0077,46.3663 0.0077,46.3873 0.0087,46.4123 C0.0077,46.4363 0.0077,46.4593 0.0087,46.4833 C0.0077,46.5083 0.0077,46.5303 0.0087,46.5543 C0.0077,46.5793 0.0077,46.6003 0.0087,46.6263 C0.0077,46.6503 0.0077,46.6723 0.0087,46.6963 C0.0077,46.7213 0.0077,46.7433 0.0087,46.7673 C0.0077,46.7923 0.0077,46.8143 0.0087,46.8393 C0.0077,46.8633 0.0077,46.8853 0.0087,46.9103 C0.0087,46.9293 0.0047,46.9473 0.0057,46.9673 C0.0047,46.9793 0.0037,46.9903 0.0037,47.0033 C0.0037,47.0143 0.0047,47.0253 0.0057,47.0383 C0.0047,47.0503 0.0037,47.0613 0.0037,47.0733 C0.0037,47.0863 0.0047,47.0963 0.0057,47.1093 C0.0047,47.1213 0.0037,47.1333 0.0037,47.1443 C0.0037,47.1573 0.0047,47.1683 0.0057,47.1793 C0.0047,47.1923 0.0037,47.2033 0.0037,47.2163 C0.0037,47.2273 0.0047,47.2393 0.0057,47.2513 C0.0047,47.2633 0.0037,47.2743 0.0037,47.2873 C0.0037,47.2993 0.0047,47.3103 0.0057,47.3223 C0.0047,47.3353 0.0037,47.3453 0.0037,47.3573 C0.0037,47.3703 0.0047,47.3813 0.0057,47.3933 C0.0047,47.4053 0.0037,47.4173 0.0037,47.4283 C0.0037,47.4413 0.0047,47.4523 0.0057,47.4653 C0.0047,47.4763 0.0037,47.4873 0.0037,47.5003 C0.0037,47.5123 0.0047,47.5233 0.0057,47.5363 C0.0047,47.5483 0.0037,47.5583 0.0037,47.5713 C0.0037,47.5833 0.0047,47.5943 0.0057,47.6063 C0.0047,47.6193 0.0037,47.6303 0.0037,47.6423 C0.0037,47.6543 0.0047,47.6653 0.0057,47.6773 C0.0047,47.6903 0.0037,47.7013 0.0037,47.7133 C0.0037,47.7253 0.0047,47.7363 0.0057,47.7493 C0.0047,47.7683 0.0087,47.7863 0.0087,47.8053 C0.0077,47.8303 0.0077,47.8523 0.0087,47.8773 C0.0077,47.9013 0.0077,47.9243 0.0087,47.9483 C0.0077,47.9723 0.0077,47.9953 0.0087,48.0193 C0.0077,48.0443 0.0077,48.0653 0.0087,48.0903 C0.0077,48.1153 0.0077,48.1363 0.0087,48.1613 C0.0077,48.1853 0.0077,48.2083 0.0087,48.2323 C0.0077,48.2573 0.0077,48.2793 0.0087,48.3033 C0.0077,48.3283 0.0077,48.3493 0.0087,48.3753 C0.0077,48.3993 0.0077,48.4213 0.0087,48.4453 C0.0077,48.4693 0.0077,48.4923 0.0087,48.5163 C0.0077,48.5413 0.0077,48.5633 0.0087,48.5883 C0.0077,48.6123 0.0077,48.6353 0.0087,48.6593 C0.0077,48.6833 0.0077,48.7053 0.0087,48.7293 C0.0077,48.7553 0.0077,48.7763 0.0087,48.8013 C0.0077,48.8253 0.0077,48.8473 0.0087,48.8723 C0.0077,48.8963 0.0077,48.9193 0.0087,48.9433 C-0.0033,49.2713 0.1447,49.6053 0.4697,49.7933 L50.8277,78.8743 C51.1187,79.0423 51.4767,79.0423 51.7677,78.8743 L128.2467,34.7193 C128.5727,34.5313 128.7207,34.1983 128.7077,33.8693 C128.7087,33.8443 128.7087,33.8223 128.7077,33.7983 C128.7087,33.7733 128.7087,33.7523 128.7077,33.7263 C128.7087,33.7023 128.7087,33.6803 128.7077,33.6563 C128.7087,33.6313 128.7087,33.6093 128.7077,33.5853 C128.7087,33.5603 128.7087,33.5383 128.7077,33.5133 C128.7087,33.4893 128.7087,33.4673 128.7077,33.4423 C128.7087,33.4183 128.7087,33.3963 128.7077,33.3713 C128.7087,33.3463 128.7087,33.3253 128.7077,33.3013 C128.7087,33.2753 128.7087,33.2543 128.7077,33.2293 C128.7087,33.2053 128.7087,33.1823 128.7077,33.1583 C128.7087,33.1343 128.7087,33.1113 128.7077,33.0873 C128.7087,33.0623 128.7087,33.0413 128.7077,33.0153 C128.7087,32.9913 128.7087,32.9693 128.7077,32.9453 C128.7087,32.9203 128.7087,32.8983 128.7077,32.8743 C128.7087,32.8493 128.7087,32.8273 128.7077,32.8023 C128.7087,32.7783 128.7087,32.7563 128.7077,32.7313 C128.7087,32.7123 128.7117,32.6943 128.7107,32.6753 C128.7117,32.6623 128.7137,32.6513 128.7127,32.6393 C128.7137,32.6273 128.7117,32.6163 128.7107,32.6033 C128.7117,32.5913 128.7137,32.5803 128.7127,32.5683 C128.7137,32.5553 128.7117,32.5453 128.7107,32.5323 C128.7117,32.5203 128.7137,32.5093 128.7127,32.4973 C128.7137,32.4843 128.7117,32.4733 128.7107,32.4623 C128.7117,32.4493 128.7137,32.4383 128.7127,32.4263 C128.7137,32.4143 128.7117,32.4023 128.7107,32.3903 C128.7117,32.3783 128.7137,32.3673 128.7127,32.3543 C128.7137,32.3433 128.7117,32.3323 128.7107,32.3193 C128.7117,32.3063 128.7137,32.2963 128.7127,32.2843 C128.7137,32.2713 128.7117,32.2603 128.7107,32.2483 C128.7117,32.2363 128.7137,32.2243 128.7127,32.2133 C128.7137,32.2003 128.7117,32.1893 128.7107,32.1773 C128.7117,32.1653 128.7137,32.1543 128.7127,32.1413 C128.7137,32.1293 128.7117,32.1183 128.7107,32.1063 C128.7117,32.0943 128.7137,32.0833 128.7127,32.0703 C128.7137,32.0583 128.7117,32.0473 128.7107,32.0353 C128.7117,32.0223 128.7137,32.0113 128.7127,31.9993 C128.7137,31.9873 128.7117,31.9763 128.7107,31.9643 C128.7117,31.9513 128.7137,31.9403 128.7127,31.9283 C128.7137,31.9163 128.7117,31.9053 128.7107,31.8923 C128.7117,31.8733 128.7087,31.8553 128.7077,31.8363 C128.7087,31.8113 128.7087,31.7893 128.7077,31.7643 C128.7087,31.7403 128.7087,31.7193 128.7077,31.6933 C128.7087,31.6693 128.7087,31.6473 128.7077,31.6233 C128.7087,31.5973 128.7087,31.5763 128.7077,31.5523 C128.7087,31.5273 128.7087,31.5053 128.7077,31.4803 C128.7087,31.4563 128.7087,31.4333 128.7077,31.4093 C128.7087,31.3853 128.7087,31.3623 128.7077,31.3383 C128.7087,31.3133 128.7087,31.2923 128.7077,31.2663 C128.7087,31.2423 128.7087,31.2203 128.7077,31.1963 C128.7087,31.1713 128.7087,31.1493 128.7077,31.1253 C128.7087,31.1003 128.7087,31.0783 128.7077,31.0533 C128.7087,31.0293 128.7087,31.0083 128.7077,30.9823 C128.7087,30.9583 128.7087,30.9363 128.7077,30.9123 C128.7087,30.8863 128.7087,30.8653 128.7077,30.8413 C128.7087,30.8163 128.7087,30.7943 128.7077,30.7693 C128.7087,30.7453 128.7087,30.7223 128.7077,30.6983" mask="url(#bi-performance-landing-b)"/>
      </g>
      <path fill="#17232B" d="M0.009,298.7725 C0.008,298.7965 0.008,298.8195 0.009,298.8435 C0.008,298.8685 0.008,298.8905 0.009,298.9155 C0.008,298.9395 0.008,298.9605 0.009,298.9855 C0.008,299.0105 0.008,299.0325 0.009,299.0565 C0.008,299.0815 0.008,299.1035 0.009,299.1275 C0.008,299.1525 0.008,299.1745 0.009,299.1995 C0.008,299.2235 0.008,299.2455 0.009,299.2705 C0.008,299.2945 0.008,299.3165 0.009,299.3405 C0.008,299.3665 0.008,299.3875 0.009,299.4125 C0.008,299.4365 0.008,299.4595 0.009,299.4835 C0.008,299.5075 0.008,299.5305 0.009,299.5545 C0.008,299.5795 0.008,299.6005 0.009,299.6265 C0.008,299.6505 0.008,299.6715 0.009,299.6965 C0.008,299.7215 0.008,299.7435 0.009,299.7675 C0.008,299.7925 0.008,299.8145 0.009,299.8385 C0.008,299.8635 0.008,299.8855 0.009,299.9105 C0.009,299.9295 0.005,299.9475 0.006,299.9665 C0.005,299.9795 0.004,299.9905 0.004,300.0025 C0.004,300.0145 0.005,300.0255 0.006,300.0385 C0.005,300.0495 0.004,300.0615 0.004,300.0735 C0.004,300.0855 0.005,300.0965 0.006,300.1095 C0.005,300.1215 0.004,300.1325 0.004,300.1445 C0.004,300.1575 0.005,300.1685 0.006,300.1795 C0.005,300.1925 0.004,300.2035 0.004,300.2155 C0.004,300.2275 0.005,300.2395 0.006,300.2515 C0.005,300.2635 0.004,300.2745 0.004,300.2875 C0.004,300.2985 0.005,300.3105 0.006,300.3225 C0.005,300.3345 0.004,300.3455 0.004,300.3575 C0.004,300.3705 0.005,300.3805 0.006,300.3935 C0.005,300.4055 0.004,300.4175 0.004,300.4285 C0.004,300.4415 0.005,300.4525 0.006,300.4645 C0.005,300.4765 0.004,300.4875 0.004,300.5005 C0.004,300.5125 0.005,300.5235 0.006,300.5365 C0.005,300.5475 0.004,300.5585 0.004,300.5715 C0.004,300.5835 0.005,300.5945 0.006,300.6065 C0.005,300.6195 0.004,300.6295 0.004,300.6425 C0.004,300.6545 0.005,300.6655 0.006,300.6775 C0.005,300.6905 0.004,300.7015 0.004,300.7125 C0.004,300.7255 0.005,300.7365 0.006,300.7495 C0.005,300.7685 0.009,300.7865 0.009,300.8055 C0.008,300.8305 0.008,300.8525 0.009,300.8765 C0.008,300.9015 0.008,300.9235 0.009,300.9485 C0.008,300.9725 0.008,300.9955 0.009,301.0195 C0.008,301.0435 0.008,301.0655 0.009,301.0895 C0.008,301.1155 0.008,301.1365 0.009,301.1615 C0.008,301.1855 0.008,301.2085 0.009,301.2325 C0.008,301.2565 0.008,301.2795 0.009,301.3035 C0.008,301.3285 0.008,301.3495 0.009,301.3755 C0.008,301.3995 0.008,301.4205 0.009,301.4455 C0.008,301.4695 0.008,301.4925 0.009,301.5165 C0.008,301.5415 0.008,301.5635 0.009,301.5875 C0.008,301.6125 0.008,301.6345 0.009,301.6595 C0.008,301.6835 0.008,301.7055 0.009,301.7295 C0.008,301.7545 0.008,301.7765 0.009,301.8005 C0.008,301.8255 0.008,301.8475 0.009,301.8725 C0.008,301.8965 0.008,301.9185 0.009,301.9435 C-0.004,302.2715 0.144,302.6055 0.47,302.7935 L50.827,331.8745 C50.913,331.9225 51.01,331.9275 51.103,331.9475 L51.103,326.0435 L3.534,296.1545 L0.47,297.9225 C0.145,298.1105 -0.004,298.4445 0.009,298.7725"/>
      <path fill="#27405E" d="M0.4699,297.9229 L76.9469,253.7739 C77.2379,253.6059 77.5959,253.6059 77.8869,253.7739 L128.2469,282.8489 C128.8729,283.2109 128.8729,284.1149 128.2469,284.4779 L51.7679,328.6319 C51.4769,328.7999 51.1179,328.7999 50.8269,328.6319 L0.4699,299.5519 C-0.1561,299.1899 -0.1561,298.2849 0.4699,297.9229"/>
      <polygon fill="#FFF" points="7.766 298.737 51.297 323.878 120.99 283.681 77.427 258.528"/>
      <path fill="#FFF" d="M28.9709,312.794 C28.9709,313.239 28.2489,313.6 27.3589,313.6 C26.4689,313.6 25.7469,313.239 25.7469,312.794 C25.7469,312.349 26.4689,311.988 27.3589,311.988 C28.2489,311.988 28.9709,312.349 28.9709,312.794"/>
      <polygon fill="#17232B" points="274.322 276.71 274.322 279.099 318.458 304.591 340.213 292.351 340.213 289.782"/>
      <path fill="#17232B" d="M337.5168,294.2881 L320.5068,304.1081 C320.5068,304.1081 318.6168,305.1961 316.7268,304.1091 C314.8358,303.0211 275.1508,280.1021 275.1508,280.1021 C275.1508,280.1021 273.2618,279.0141 275.1508,277.9221 C277.0378,276.8301 294.0478,267.0101 294.0478,267.0101 C294.0478,267.0101 295.9408,265.9171 297.8298,267.0081 C299.7198,268.1001 339.4028,291.0171 339.4028,291.0171 C339.4028,291.0171 341.2958,292.1051 339.4068,293.1971 L337.5168,294.2881 Z"/>
      <path fill="#27405E" d="M337.5168,292.128 L320.5068,301.948 C320.5068,301.948 318.6168,303.036 316.7268,301.949 C314.8358,300.861 275.1508,277.942 275.1508,277.942 C275.1508,277.942 273.2618,276.854 275.1508,275.762 C277.0378,274.67 294.0478,264.85 294.0478,264.85 C294.0478,264.85 295.9408,263.757 297.8298,264.848 C299.7198,265.939 339.4028,288.857 339.4028,288.857 C339.4028,288.857 341.2958,289.945 339.4068,291.037 L337.5168,292.128 Z"/>
      <polygon fill="#FFF" points="331.826 286.685 297.829 267.036 278.927 277.945 312.966 297.574"/>
      <path fill="#FFF" d="M331.5861 290.2657L331.2661 290.0797C330.7911 289.8057 330.2051 289.8057 329.7301 290.0797L320.0371 295.6707C319.6431 295.8997 319.6431 296.4687 320.0371 296.6967L320.1531 296.7637C320.7011 297.0797 321.3771 297.0797 321.9251 296.7637L331.5861 291.1907C331.9421 290.9857 331.9421 290.4707 331.5861 290.2657M285.5441 271.2461C285.5441 271.4651 285.9671 271.6421 286.4891 271.6421 287.0111 271.6421 287.4341 271.4651 287.4341 271.2461 287.4341 271.0271 287.0111 270.8501 286.4891 270.8501 285.9671 270.8501 285.5441 271.0271 285.5441 271.2461"/>
      <path fill="#6B2E6A" d="M304.9953,277.9492 L306.4993,275.5182 C303.2533,274.7252 299.5163,274.9352 296.6973,276.2062 L299.4493,278.3392 C301.0443,277.6192 303.1583,277.5012 304.9953,277.9492"/>
      <path fill="#BB3665" d="M308.1564,276.0284 L305.9324,278.2374 C306.3804,278.4064 306.7994,278.6124 307.1764,278.8564 C308.6294,279.8014 309.0814,281.0754 308.5584,282.1904 L312.8034,283.0154 C313.7274,281.0464 312.9214,278.7944 310.3504,277.1234 C309.6864,276.6904 308.9464,276.3264 308.1564,276.0284"/>
      <path fill="#272770" d="M307.0119,283.7032 C304.7289,284.9492 301.0869,284.8042 298.8939,283.3772 C296.8229,282.0302 296.7759,280.0152 298.7019,278.7462 L295.3779,276.9272 C291.9739,279.1702 292.0579,282.7302 295.7179,285.1112 C299.5929,287.6312 306.0279,287.8902 310.0619,285.6862 C310.9519,285.2012 311.6519,284.6352 312.1599,284.0202 L308.1939,282.7592 C307.9059,283.1062 307.5159,283.4282 307.0119,283.7032"/>
      <path fill="#BB3665" d="M70.903,283.0801 L73.757,278.4691 C67.599,276.9661 60.51,277.3631 55.165,279.7731 L60.384,283.8181 C63.409,282.4541 67.419,282.2291 70.903,283.0801"/>
      <path fill="#6B2E6A" d="M76.8991,279.4356 L72.6811,283.6256 C73.5291,283.9466 74.3251,284.3356 75.0381,284.7996 C77.7961,286.5936 78.6521,289.0086 77.6621,291.1236 L85.7131,292.6886 C87.4641,288.9526 85.9351,284.6816 81.0611,281.5116 C79.8011,280.6926 78.3971,280.0006 76.8991,279.4356"/>
      <path fill="#272770" d="M74.7277,293.9922 C70.3977,296.3562 63.4907,296.0792 59.3317,293.3742 C55.4017,290.8192 55.3147,286.9992 58.9687,284.5912 L52.6627,281.1392 C46.2057,285.3942 46.3647,292.1462 53.3087,296.6622 C60.6577,301.4412 72.8617,301.9312 80.5127,297.7552 C82.2017,296.8332 83.5277,295.7602 84.4937,294.5952 L76.9697,292.2012 C76.4227,292.8602 75.6837,293.4712 74.7277,293.9922"/>
    </g>
    <g transform="translate(150 132)">
      <path stroke="#3A4D57" stroke-linecap="round" stroke-width="2" d="M7.04405286,59.5833333 L7.04405286,49.2046876 C7.04405286,43.4966168 13.5057777,35.088845 21.4026237,30.5223883 C29.3003897,25.9559316 35.7621145,26.8902308 35.7621145,32.5983017 L35.7621145,42.9778688"/>
      <g transform="translate(14.088 38.458)">
        <mask id="bi-performance-landing-d" fill="#fff">
          <use xlink:href="#bi-performance-landing-c"/>
        </mask>
        <polygon fill="#F46699" points="28.578 8.554 42.849 .28 42.843 49.927 .015 74.751 .027 25.103" mask="url(#bi-performance-landing-d)"/>
      </g>
      <polygon fill="#D8CDA7" points="42.806 30.875 42.806 47.395 14.266 63.917 10.699 57.723 0 55.656"/>
      <g transform="translate(10.837 57.417)">
        <mask id="bi-performance-landing-f" fill="#fff">
          <use xlink:href="#bi-performance-landing-e"/>
        </mask>
        <polygon fill="#CA3F71" points=".081 .158 3.466 6.338 3.453 55.792 .075 49.612" mask="url(#bi-performance-landing-f)"/>
      </g>
      <polygon fill="#F24C88" points="10.837 57.31 10.831 106.708 0 104.648 .013 55.25"/>
      <polygon fill="#C9BC97" points="42.806 30.875 42.806 47.667 46.599 45.57 46.599 37.17"/>
      <polygon fill="#C9BC97" points="46.599 36.833 46.599 44.958 57.436 38.865"/>
      <path fill="#CA3F71" d="M50.1181998 53.3989087C49.0768072 53.930126 48.2246696 53.4928063 48.2246696 52.4268941 48.2246696 51.3609818 49.0787684 50.0516312 50.1240834 49.518675 51.1684177 48.9857189 52.0205553 49.4239079 52.0176136 50.4906896 52.0146718 51.5583407 51.1595924 52.8676914 50.1181998 53.3989087M21.4001381 70.1905193C20.3587455 70.721819 19.5066079 70.2844315 19.5066079 69.2192234 19.5066079 68.1522762 20.3607067 66.8427224 21.4060217 66.3105531 22.4503561 65.7775142 23.3024937 66.2149017 23.2995519 67.281849 23.2966101 68.3505353 22.4415307 69.6592196 21.4001381 70.1905193"/>
      <polygon fill="#F24C88" points="21.674 75.988 50.392 59.583 50.392 71.886 21.674 88.292"/>
      <path stroke="#3A4D57" stroke-linecap="round" stroke-width="2" d="M21.6740088 68.25L21.6740088 57.8704329C21.6740088 52.1623621 28.1357337 43.7555116 36.0325797 39.1890549 43.9303456 34.6225983 50.3920705 35.5568975 50.3920705 41.2649684L50.3920705 51.6445355M86.154185 49.2916667L86.154185 41.7269178C86.154185 37.5671263 90.9083233 31.4400261 96.7202643 28.1125576 102.531286 24.7832659 107.286344 25.4642574 107.286344 29.6249604L107.286344 37.1887977"/>
      <g transform="translate(91.03 34.125)">
        <mask id="bi-performance-landing-h" fill="#fff">
          <use xlink:href="#bi-performance-landing-g"/>
        </mask>
        <polygon fill="#50D6C6" points="21.428 6.242 31.93 .17 31.924 36.598 .411 54.811 .42 18.384" mask="url(#bi-performance-landing-h)"/>
      </g>
      <polygon fill="#D8CDA7" points="112.163 29.167 112.163 41 91.209 53.542 88.59 48.972 80.736 47.447"/>
      <polygon fill="#31A395" points="88.868 48.208 91.573 52.782 91.563 89.375 88.863 84.802"/>
      <polygon fill="#3EBFB4" points="88.863 48.101 88.859 84.5 80.736 82.982 80.746 46.583"/>
      <polygon fill="#C9BC97" points="112.163 29.167 112.163 41 114.872 39.5 114.872 33.5"/>
      <polygon fill="#C9BC97" points="114.872 33.5 114 40 123 34.5"/>
      <path fill="#31A395" d="M117.850043 44.7887058C117.105452 45.1870675 116.497797 44.8595256 116.497797 44.0601465 116.497797 43.2598821 117.108305 42.2781418 117.853847 41.8788948 118.60034 41.4787626 119.208946 41.8071897 119.207044 42.6074541 119.204191 43.4077185 118.593684 44.3894588 117.850043 44.7887058M96.717882 57.2470391C95.9742433 57.6454008 95.3656388 57.317859 95.3656388 56.5184798 95.3656388 55.7182154 95.9761452 54.7364751 96.7216857 54.3372282 97.4691282 53.937096 98.0777327 54.2655231 98.0748799 55.0657875 98.072027 55.8660519 97.4615206 56.8477921 96.717882 57.2470391"/>
      <polygon fill="#3EBFB4" points="96.449 61.363 117.581 49.292 117.581 58.345 96.449 70.417"/>
      <path stroke="#3A4D57" stroke-linecap="round" stroke-width="2" d="M96.4493392,55.25 L96.4493392,47.6852511 C96.4493392,43.5254597 101.204397,37.3983595 107.015419,34.070891 C112.827359,30.7415992 117.581498,31.4225907 117.581498,35.5832938 L117.581498,43.147131"/>
      <g transform="translate(23.3)">
        <path stroke="#3A4D57" stroke-linecap="round" stroke-width="2" d="M9.75330396,43.3333333 L9.75330396,29.2597193 C9.75330396,21.520052 18.5308216,10.1211358 29.2599119,3.92849032 C39.9890022,-2.26324348 48.7665198,-0.996089478 48.7665198,6.74357778 L48.7665198,20.8171918"/>
        <polygon fill="url(#bi-performance-landing-i)" points="58.89 26.481 78.568 15.167 78.559 83.056 19.507 117 19.525 49.111"/>
        <polygon fill="#747474" points="59.062 3.792 59.062 26.542 19.684 49.292 14.761 40.764 0 37.918"/>
        <polygon fill="#6D2E6A" points="14.639 40.625 19.507 49.109 19.488 117 14.63 108.517"/>
        <polygon fill="#672364" points="14.63 40.757 14.621 108.875 0 106.034 .018 37.917"/>
        <polygon fill="#5B5B5B" points="59.062 3.792 59.062 26.542 63.938 23.702 63.938 12.322"/>
        <polygon fill="#3D3D3D" points="63.938 12.458 63.938 23.833 78.568 15.303"/>
        <path fill="#222771" d="M68.5399085 35.4099713C67.2004646 36.2083878 66.1057269 35.551764 66.1057269 33.9530279 66.1057269 32.3533402 67.2041444 30.3910819 68.5472681 29.5907623 69.8903917 28.7913942 70.9860494 29.4470663 70.9823696 31.0486573 70.9777699 32.6502483 69.8793523 34.6125065 68.5399085 35.4099713M29.5266926 58.7016469C28.1872488 59.5000424 27.092511 58.8434358 27.092511 57.2447415 27.092511 55.6450956 28.1909286 53.6819371 29.5340522 52.8825899 30.8780958 52.0832428 31.9728335 52.7379461 31.9691537 54.3404469 31.964554 55.941996 30.8661365 57.9042029 29.5266926 58.7016469"/>
        <polygon fill="#CCC" points="29.26 65.929 68.273 43.333 68.273 60.28 29.26 82.875"/>
        <path stroke="#3A4D57" stroke-linecap="round" stroke-width="2" d="M29.2599119,54.7083333 L29.2599119,40.6346636 C29.2599119,32.8949658 38.0374295,21.4960044 48.7665198,15.3042461 C59.4956102,9.11157618 68.2731278,10.3787352 68.2731278,18.1184331 L68.2731278,32.1921028"/>
      </g>
    </g>
  </g>
</svg>
