
<svg width="77px" height="60px" viewBox="0 0 77 60" version="1.1" xmlns="http://www.w3.org/2000/svg" xmlns:xlink="http://www.w3.org/1999/xlink">
    <!-- Generator: Sketch 47.1 (45422) - http://www.bohemiancoding.com/sketch -->
    <desc>Created with Sketch.</desc>
    <defs>
        <linearGradient x1="0%" y1="50%" x2="100%" y2="50%" id="linearGradient-1">
            <stop stop-color="#C33764" offset="0%"></stop>
            <stop stop-color="#1D2671" offset="100%"></stop>
        </linearGradient>
    </defs>
    <g id="Page-1" stroke="none" stroke-width="1" fill="none" fill-rule="evenodd">
        <g id="6.0-Brand-Insights_CopyNotReady" transform="translate(-595.000000, -1586.000000)">
            <g id="Group-15" transform="translate(595.000000, 1586.000000)">
                <path d="M48.6514271,47.2153896 L8.27583887,47.2153896 C7.91054475,47.2153896 7.61407417,46.918919 7.61407417,46.5536249 L7.61407417,21.2309779 C7.61407417,20.456272 8.22907417,20.0380367 8.80701534,20.0380367 L41.7249565,20.0380367 C42.0902506,20.0380367 42.3867212,20.3345073 42.3867212,20.6998014 C42.3867212,21.0650955 42.0902506,21.3615661 41.7249565,21.3615661 L8.93760358,21.3615661 L8.93760358,45.8918602 L47.9896624,45.8918602 L47.9896624,27.716272 C47.9896624,27.3509779 48.2852506,27.0545073 48.6514271,27.0545073 C49.0167212,27.0545073 49.3131918,27.3509779 49.3131918,27.716272 L49.3131918,46.5536249 C49.3131918,46.918919 49.0167212,47.2153896 48.6514271,47.2153896" id="Fill-388" fill="#000000"></path>
                <path d="M56.4417212,59.3080367 L0.662015342,59.3080367 C0.296721225,59.3080367 0.000250636431,59.0115661 0.000250636431,58.646272 L0.000250636431,55.9374485 C0.000250636431,55.5721543 0.296721225,55.2756838 0.662015342,55.2756838 C1.02730946,55.2756838 1.32378005,55.5721543 1.32378005,55.9374485 L1.32378005,57.9845073 L55.7799565,57.9845073 L55.7799565,55.9374485 C55.7799565,55.5721543 56.0764271,55.2756838 56.4417212,55.2756838 C56.8070153,55.2756838 57.1034859,55.5721543 57.1034859,55.9374485 L57.1034859,58.646272 C57.1034859,59.0115661 56.8070153,59.3080367 56.4417212,59.3080367" id="Fill-389" fill="#000000"></path>
                <path d="M2.05083887,55.2783308 L55.0326036,55.2783308 L48.3399565,47.2153896 L8.59083887,47.2153896 L2.05083887,55.2783308 Z M56.4417212,56.6018602 L0.662015342,56.6018602 C0.407015342,56.6018602 0.174074166,56.4545073 0.0646624011,56.2242132 C-0.0456317165,55.993919 -0.0129846577,55.721272 0.148485931,55.5227426 L7.76230946,46.136272 C7.88672122,45.9809779 8.07642711,45.8918602 8.27583887,45.8918602 L48.6514271,45.8918602 C48.8473095,45.8918602 49.0343683,45.9792132 49.1605448,46.1309779 L56.9508389,55.5174485 C57.1140742,55.7150955 57.1493683,55.9886249 57.0399565,56.2206838 C56.9314271,56.4536249 56.6984859,56.6018602 56.4417212,56.6018602 L56.4417212,56.6018602 Z" id="Fill-390" fill="#000000"></path>
                <path d="M45.436133,44.0159779 L11.3128977,44.0159779 C10.9476036,44.0159779 10.651133,43.7195073 10.651133,43.3542132 L10.651133,23.4906838 C10.651133,23.1253896 10.9476036,22.828919 11.3128977,22.828919 L41.0984859,22.828919 C41.46378,22.828919 41.7602506,23.1253896 41.7602506,23.4906838 C41.7602506,23.8559779 41.46378,24.1524485 41.0984859,24.1524485 L11.9746624,24.1524485 L11.9746624,42.6924485 L44.7743683,42.6924485 L44.7743683,29.0080367 C44.7743683,28.6427426 45.0708389,28.346272 45.436133,28.346272 C45.8014271,28.346272 46.0978977,28.6427426 46.0978977,29.0080367 L46.0978977,43.3542132 C46.0978977,43.7195073 45.8014271,44.0159779 45.436133,44.0159779" id="Fill-391" fill="#000000"></path>
                <path d="M47.9649565,52.2165661 L9.20407417,52.2165661 C8.8378977,52.2165661 8.54230946,51.9200955 8.54230946,51.5548014 C8.54230946,51.1895073 8.8378977,50.8930367 9.20407417,50.8930367 L47.9649565,50.8930367 C48.3302506,50.8930367 48.6267212,51.1895073 48.6267212,51.5548014 C48.6267212,51.9200955 48.3302506,52.2165661 47.9649565,52.2165661" id="Fill-392" fill="#000000"></path>
                <path d="M50.8176036,37.4609779 C50.491133,37.4609779 50.206133,37.2200955 50.1620153,36.8874485 C50.1143683,36.5248014 50.3684859,36.1921543 50.7302506,36.1436249 C58.4199565,35.113919 64.21878,28.4777426 64.21878,20.7059779 C64.21878,12.1171543 57.2323095,5.13068375 48.6452506,5.13068375 C41.1849565,5.13068375 34.7517212,10.4380367 33.3470153,17.7509779 C33.2781918,18.1100955 32.9296624,18.3500955 32.5723095,18.2759779 C32.2140742,18.2071543 31.9784859,17.8603896 32.0473095,17.501272 C33.571133,9.56715434 40.5514271,3.80715434 48.6452506,3.80715434 C57.9620153,3.80715434 65.5423095,11.3874485 65.5423095,20.7059779 C65.5423095,29.1377426 59.2502506,36.3386249 50.9058389,37.4548014 C50.8758389,37.4592132 50.8467212,37.4609779 50.8176036,37.4609779" id="Fill-393" fill="#000000"></path>
                <path d="M51.0249565,30.6615661 C50.7302506,30.6615661 50.461133,30.4630367 50.3843683,30.163919 C50.2943683,29.8092132 50.5078977,29.4492132 50.8617212,29.3592132 C54.8155448,28.348919 57.5773095,24.7903896 57.5773095,20.7059779 C57.5773095,15.7815661 53.5705448,11.7748014 48.6452506,11.7748014 C44.7267212,11.7748014 41.2070153,14.3936249 40.0855448,18.1418602 C39.97878,18.491272 39.6090742,18.6906838 39.2614271,18.5856838 C38.9102506,18.4806838 38.7126036,18.1118602 38.8167212,17.7624485 C40.1049565,13.4574485 44.146133,10.451272 48.6452506,10.451272 C54.3002506,10.451272 58.9008389,15.0518602 58.9008389,20.7059779 C58.9008389,25.3956838 55.7296624,29.4809779 51.1899565,30.641272 C51.1343683,30.6545073 51.0796624,30.6615661 51.0249565,30.6615661" id="Fill-394" fill="#000000"></path>
                <path d="M48.6452506,17.3000955 C47.5978977,17.3000955 46.62378,17.7730367 45.9726036,18.596272 C45.4934859,19.2024485 45.241133,19.931272 45.241133,20.7059779 C45.241133,22.5836249 46.7684859,24.1100955 48.6452506,24.1100955 C49.2055448,24.1100955 49.741133,23.9777426 50.2343683,23.7165661 C51.3540742,23.1236249 52.0493683,21.9703896 52.0493683,20.7059779 C52.0493683,18.8274485 50.5228977,17.3000955 48.6452506,17.3000955 Z M48.6452506,25.4336249 C46.03878,25.4336249 43.9176036,23.3133308 43.9176036,20.7059779 C43.9176036,19.631272 44.2696624,18.6183308 44.9340742,17.7765661 C45.8376036,16.6321543 47.1902506,15.9765661 48.6452506,15.9765661 C51.2526036,15.9765661 53.3728977,18.0977426 53.3728977,20.7059779 C53.3728977,22.4618602 52.4076036,24.0642132 50.85378,24.8865661 C50.176133,25.243919 49.4128977,25.4336249 48.6452506,25.4336249 L48.6452506,25.4336249 Z" id="Fill-395" fill="url(#linearGradient-1)"></path>
                <path d="M65.6923095,4.77068375 L65.2978977,8.8965661 L70.5417212,5.28950728 L70.0890742,1.80950728 L65.6923095,4.77068375 Z M64.50378,10.9074485 C64.3881918,10.9074485 64.2726036,10.8774485 64.1684859,10.8165661 C63.9470153,10.6859779 63.8208389,10.438919 63.8446624,10.1830367 L64.4040742,4.33391905 C64.4234859,4.13715434 64.5293683,3.95803669 64.6934859,3.84774258 L70.2373095,0.113624928 C70.4278977,-0.0151986015 70.6705448,-0.0363750721 70.8796624,0.0598013985 C71.08878,0.154213163 71.2334859,0.350095516 71.2643683,0.576860222 L71.9067212,5.52068375 C71.9384859,5.76686022 71.8299565,6.01038963 71.6252506,6.1515661 L64.87878,10.7918602 C64.7667212,10.8695073 64.6352506,10.9074485 64.50378,10.9074485 L64.50378,10.9074485 Z" id="Fill-396" fill="url(#linearGradient-1)"></path>
                <path d="M65.9799565,9.92450728 L69.8870153,10.9886249 L74.3570153,8.06186022 L71.3076036,6.4198014 L65.9799565,9.92450728 Z M69.9999565,12.3677426 C69.9408389,12.3677426 69.8834859,12.3598014 69.826133,12.343919 L64.2170153,10.8156838 C63.9664271,10.7477426 63.7784859,10.5386249 63.7378977,10.2809779 C63.6964271,10.0242132 63.8102506,9.7665661 64.0273095,9.62362493 L70.9105448,5.09715434 C71.1143683,4.96303669 71.3746624,4.9515661 71.5881918,5.06803669 L75.9646624,7.42391905 C76.1693683,7.53421316 76.3017212,7.74509552 76.3114271,7.97803669 C76.3220153,8.21186022 76.2081918,8.43244846 76.0131918,8.56038963 L70.3626036,12.2600955 C70.2531918,12.3306838 70.1270153,12.3677426 69.9999565,12.3677426 L69.9999565,12.3677426 Z" id="Fill-397" fill="url(#linearGradient-1)"></path>
                <path d="M48.5684859,21.5318602 C48.3558389,21.5318602 48.1458389,21.4295073 48.01878,21.2398014 C47.8140742,20.9371543 47.8943683,20.5259779 48.1978977,20.321272 L74.07378,2.91244846 C74.3790742,2.70774258 74.7893683,2.78891905 74.9923095,3.0915661 C75.1970153,3.39509552 75.1167212,3.80627199 74.8131918,4.01009552 L48.9373095,21.4198014 C48.8234859,21.4956838 48.6946624,21.5318602 48.5684859,21.5318602" id="Fill-398" fill="url(#linearGradient-1)"></path>
                <path d="M48.5676036,13.6453896 C48.2023095,13.6453896 47.9058389,13.348919 47.9058389,12.9836249 L47.9058389,0.86715434 C47.9058389,0.501860222 48.2023095,0.205389634 48.5676036,0.205389634 C48.9328977,0.205389634 49.2293683,0.501860222 49.2293683,0.86715434 L49.2293683,12.9836249 C49.2293683,13.348919 48.9328977,13.6453896 48.5676036,13.6453896" id="Fill-399" fill="#000000"></path>
                <path d="M68.5705448,21.386272 L55.7631918,21.386272 C55.3978977,21.386272 55.1014271,21.0898014 55.1014271,20.7245073 C55.1014271,20.3592132 55.3978977,20.0627426 55.7631918,20.0627426 L68.5705448,20.0627426 C68.9358389,20.0627426 69.2323095,20.3592132 69.2323095,20.7245073 C69.2323095,21.0898014 68.9358389,21.386272 68.5705448,21.386272" id="Fill-400" fill="#000000"></path>
                <path d="M16.1226036,38.6345073 C15.9240742,38.6345073 15.7273095,38.546272 15.5976036,38.3750955 C15.3743683,38.0856838 15.4290742,37.6709779 15.7193683,37.4486249 L20.4178977,33.8459779 C20.6331918,33.6783308 20.9314271,33.6633308 21.1634859,33.806272 L25.0784859,36.1824485 L30.0355448,30.6421543 C30.2402506,30.4118602 30.5790742,30.3545073 30.8499565,30.5045073 L37.3846624,34.1353896 L45.0258389,23.6468602 C45.241133,23.3521543 45.6558389,23.2859779 45.9505448,23.501272 C46.246133,23.7165661 46.3105448,24.1303896 46.096133,24.4259779 L38.1099565,35.3874485 C37.9131918,35.6583308 37.546133,35.7395073 37.2540742,35.5753896 L30.6690742,31.9180367 L25.6978977,37.4750955 C25.4852506,37.7124485 25.1331918,37.7653896 24.8614271,37.5986249 L20.8626036,35.171272 L16.5240742,38.4977426 C16.4049565,38.5895073 16.2628977,38.6345073 16.1226036,38.6345073" id="Fill-401" fill="url(#linearGradient-1)"></path>
            </g>
        </g>
    </g>
</svg>