<svg xmlns="http://www.w3.org/2000/svg" xmlns:xlink="http://www.w3.org/1999/xlink" width="286" height="262" viewBox="0 0 286 262">
  <defs>
    <polygon id="bi-penetration-landing-a" points=".032 166.443 95.663 166.443 95.663 .623 .032 .623"/>
    <polygon id="bi-penetration-landing-c" points=".17 124.535 7.799 124.535 7.799 .354 .17 .354 .17 124.535"/>
    <polygon id="bi-penetration-landing-e" points="70.842 122.578 70.842 .381 .911 .381 .911 122.578 70.842 122.578"/>
    <linearGradient id="bi-penetration-landing-g" x1="0%" y1="50%" y2="50%">
      <stop offset="0%" stop-color="#C33764"/>
      <stop offset="100%" stop-color="#1D2671"/>
    </linearGradient>
    <polygon id="bi-penetration-landing-h" points="0 .868 0 77.412 86.894 77.412 86.894 .868 0 .868"/>
    <polygon id="bi-penetration-landing-j" points=".849 36 41.864 36 41.864 .098 .849 .098"/>
  </defs>
  <g fill="none" fill-rule="evenodd" transform="translate(0 1)">
    <path stroke="#3A4D57" stroke-linecap="round" stroke-width="2" d="M16,133 L16,109.942357 C16,97.2610626 30.4003588,78.5819971 47.9989749,68.4369617 C65.5996412,58.2919263 80,60.3676054 80,73.0488997 L80,96.1085899"/>
    <g transform="translate(31 86)">
      <mask id="bi-penetration-landing-b" fill="#fff">
        <use xlink:href="#bi-penetration-landing-a"/>
      </mask>
      <polygon fill="#F46699" points="63.801 19.048 95.663 .623 95.649 111.171 .032 166.445 .061 55.896" mask="url(#bi-penetration-landing-b)"/>
    </g>
    <polygon fill="#D8CDA7" points="96 69 96 105.999 31.995 143 23.994 129.129 0 124.499"/>
    <g transform="translate(24 128)">
      <mask id="bi-penetration-landing-d" fill="#fff">
        <use xlink:href="#bi-penetration-landing-c"/>
      </mask>
      <polygon fill="#CA3F71" points=".17 1 7.769 14.5 7 124 .17 111" mask="url(#bi-penetration-landing-d)"/>
    </g>
    <polygon fill="#F24C88" points="23.986 129 23.986 239 0 234.396 0 124.5"/>
    <polygon fill="#C9BC97" points="96 69 96 106 104 101.381 104 82.872"/>
    <polygon fill="#C9BC97" points="104 82 104 100 128 86.501"/>
    <path fill="#CA3F71" d="M111.993787 119.478251C109.797308 120.704137 108 119.694938 108 117.23514 108 114.775343 109.801444 111.753764 112.006197 110.523865 114.208881 109.293967 116.006189 110.305172 115.999984 112.766976 115.993779 115.230786 114.190267 118.252365 111.993787 119.478251M47.9937872 156.478121C45.7973077 157.704198 44 156.694842 44 154.236669 44 151.774483 45.8014442 148.752436 48.0061967 147.524353 50.2088811 146.294264 52.0061887 147.303619 51.999984 149.765805 51.9937792 152.232005 50.1902668 155.252045 47.9937872 156.478121"/>
    <polygon fill="#F24C88" points="48 169.571 112 133 112 160.427 48 197"/>
    <path stroke="#3A4D57" stroke-linecap="round" stroke-width="2" d="M48 152L48 128.94031C48 116.259016 62.4003588 97.5819971 79.9989749 87.4369617 97.5996412 77.2919263 112 79.3676054 112 92.0488997L112 115.10859M192 110L192 93.1112582C192 83.824282 202.573671 70.1451746 215.5 62.7164077 228.424285 55.2835703 239 56.8039234 239 66.0929349L239 82.9796414"/>
    <g transform="translate(203 76)">
      <mask id="bi-penetration-landing-f" fill="#fff">
        <use xlink:href="#bi-penetration-landing-e"/>
      </mask>
      <polygon fill="#50D6C6" points="47.544 13.958 70.844 .381 70.832 81.846 .911 122.578 .932 41.113" mask="url(#bi-penetration-landing-f)"/>
    </g>
    <polygon fill="#D8CDA7" points="250 64 250 90.999 203.328 118 197.494 107.876 180 104.498"/>
    <polygon fill="#31A395" points="199.01 108 205 118.222 204.979 200 199 189.781"/>
    <polygon fill="#3EBFB4" points="198 107.403 197.99 189 180 185.597 180.023 104"/>
    <polygon fill="#C9BC97" points="250 64 250 91 256 87.63 256 74.124"/>
    <polygon fill="#C9BC97" points="256 74.5 256 88 273.5 76.5"/>
    <path fill="#31A395" d="M262.99473 99.6346483C261.345733 100.492658 260 99.7871834 260 98.0654437 260 96.3417973 261.352051 94.2272798 263.003154 93.3673632 264.656363 92.5055401 266.004202 93.2129215 265.99999 94.9365679 265.993672 96.6602143 264.641621 98.7747318 262.99473 99.6346483M215.994724 127.634648C214.347836 128.492658 213 127.787183 213 126.065444 213 124.341797 214.352048 122.22728 216.003148 121.367363 217.658459 120.50554 219.006296 121.212921 218.999978 122.936568 218.99366 124.660214 217.641612 126.774732 215.994724 127.634648"/>
    <polygon fill="#3EBFB4" points="215 136.857 262 110 262 130.143 215 157"/>
    <path stroke="#3A4D57" stroke-linecap="round" stroke-width="2" d="M215,123 L215,106.111258 C215,96.824282 225.575715,83.1451746 238.5,75.7164077 C251.426329,68.2835703 262,69.8039234 262,79.0929349 L262,95.9796414"/>
    <g transform="translate(52)">
      <path stroke="#3A4D57" stroke-linecap="round" stroke-width="2" d="M21.7288797,96.6666667 L21.7288797,65.2716815 C21.7288797,48.00627 41.2838556,22.5779182 65.1866392,8.76355534 C89.0894227,-5.04877392 108.644399,-2.22204576 108.644399,15.0433658 L108.644399,46.438351"/>
      <polygon fill="url(#bi-penetration-landing-g)" points="131.199 59.074 175.038 33.833 175.018 185.278 43.458 261 43.499 109.556"/>
      <polygon fill="#747474" points="131.58 8.458 131.58 59.208 43.853 109.958 32.885 90.934 0 84.585"/>
      <polygon fill="#6D2E6A" points="32.614 90.625 43.458 109.551 43.417 261 32.593 242.076"/>
      <polygon fill="#672364" points="32.593 90.92 32.573 242.875 0 236.538 .041 84.583"/>
      <polygon fill="#5B5B5B" points="131.58 8.458 131.58 59.208 142.445 52.874 142.445 27.487"/>
      <polygon fill="#3D3D3D" points="142.445 27.792 142.445 53.167 175.038 34.137"/>
      <path fill="#222771" d="M152.696505 78.9914745C149.712428 80.7725573 147.273518 79.3077812 147.273518 75.7413699 147.273518 72.1728358 149.720626 67.7954905 152.712901 66.010162 155.705176 64.2269563 158.146135 65.6896095 158.137937 69.2623894 158.12769 72.8351693 155.680582 77.2125146 152.696505 78.9914745M65.7809861 130.949828C62.7969087 132.730864 60.3579992 131.266126 60.3579992 127.699808 60.3579992 124.131367 62.8051067 119.752013 65.7973821 117.968854 68.7917071 116.185695 71.2306165 117.646188 71.2224185 121.220997 71.212171 124.793683 68.7650635 129.170914 65.7809861 130.949828"/>
      <polygon fill="#CCC" points="65.187 147.072 152.102 96.667 152.102 134.47 65.187 184.875"/>
      <path stroke="#3A4D57" stroke-linecap="round" stroke-width="2" d="M65.1866392,122.041667 L65.1866392,90.6465574 C65.1866392,73.3810775 84.7416151,47.9526252 108.644399,34.1402413 C132.547182,20.3258238 152.102158,23.1525631 152.102158,40.418043 L152.102158,71.8131523"/>
    </g>
    <g transform="translate(110 88)">
      <path fill="#5580A0" d="M118.6513,34.9155 C118.6513,27.8805 117.4213,21.8465 115.1723,16.8815 L114.9853,10.3355 L107.0743,5.3845 C91.8243,-3.3655 78.3603,-1.1485 59.3263,9.8425 C39.3463,21.3775 21.6873,41.4585 10.9373,62.8015 L86.8933,105.7815 C105.7713,84.9555 118.6513,57.7275 118.6513,34.9155"/>
      <g transform="translate(0 61.933)">
        <mask id="bi-penetration-landing-i" fill="#fff">
          <use xlink:href="#bi-penetration-landing-h"/>
        </mask>
        <path fill="#254260" d="M10.9375,0.8682 C4.0575,14.5272 -0.0005,28.7012 -0.0005,41.4862 C-0.0005,56.6172 4.0525,65.9312 13.6055,71.4202 L24.6125,77.4122 L31.0655,75.7262 C39.4665,75.4372 49.0935,72.4692 59.3265,66.5602 C69.2815,60.8132 78.6555,52.9372 86.8935,43.8482 L10.9375,0.8682 Z" mask="url(#bi-penetration-landing-i)"/>
      </g>
      <path fill="#2E4759" d="M78.6191,49.0385 C78.6191,63.9925 66.4961,83.1115 51.5431,91.7475 C36.5931,100.3785 24.4701,95.2555 24.4701,80.3005 C24.4701,65.3495 36.5931,46.2295 51.5431,37.5985 C66.4971,28.9645 78.6191,34.0865 78.6191,49.0385"/>
      <path fill="#40B5B5" d="M62.5341,58.3256 C62.5341,64.3936 57.6131,72.1566 51.5431,75.6606 C45.4751,79.1646 40.5571,77.0836 40.5551,71.0146 C40.5571,64.9466 45.4751,57.1856 51.5431,53.6836 C57.6131,50.1796 62.5341,52.2586 62.5341,58.3256"/>
      <path fill="#41627F" d="M128.3554,40.1352 C128.3554,72.8992 101.7934,114.7962 69.0274,133.7142 C36.2634,152.6282 9.7024,141.4042 9.7024,108.6382 C9.7034,75.8732 36.2614,33.9792 69.0274,15.0632 C101.7934,-3.8538 128.3554,7.3712 128.3554,40.1352"/>
      <path fill="#DBDBDB" d="M112.4531,49.3158 C112.4531,73.2978 93.0121,103.9658 69.0271,117.8118 C45.0461,131.6578 25.6021,123.4408 25.6021,99.4588 C25.6021,75.4768 45.0461,44.8098 69.0271,30.9628 C93.0121,17.1158 112.4531,25.3328 112.4531,49.3158"/>
      <path fill="#41627F" d="M96.1015,58.7553 C96.1015,73.7093 83.9815,92.8273 69.0275,101.4623 C54.0765,110.0933 41.9555,104.9723 41.9555,90.0173 C41.9555,75.0663 54.0765,55.9463 69.0275,47.3133 C83.9815,38.6813 96.1015,43.8043 96.1015,58.7553"/>
      <path fill="#DBDBDB" d="M80.0175,68.0424 C80.0175,74.1104 75.0975,81.8734 69.0275,85.3774 C62.9595,88.8804 58.0395,86.8004 58.0395,80.7314 C58.0395,74.6634 62.9595,66.9034 69.0275,63.4004 C75.0975,59.8964 80.0175,61.9734 80.0175,68.0424"/>
      <polygon fill="#E86767" points="163.992 133.857 65.674 77.136 69.06 70.636 136.898 109.8 167.703 127.576"/>
      <polygon fill="#9DCC29" points="147.472 103.683 175.863 120.076 163.993 125.443 134.849 108.617"/>
      <g transform="translate(134 116.933)">
        <mask id="bi-penetration-landing-k" fill="#fff">
          <use xlink:href="#bi-penetration-landing-j"/>
        </mask>
        <polygon fill="#9DCC29" points="13.473 19.608 41.865 36.001 29.993 16.924 .849 .098" mask="url(#bi-penetration-landing-k)"/>
      </g>
      <path fill="#FF7171" d="M168.3457,129.2104 C168.3457,130.8684 167.1837,132.8824 165.7487,133.7104 C164.3127,134.5424 163.1477,133.8684 163.1497,132.2124 C163.1497,130.5564 164.3127,128.5384 165.7487,127.7104 C167.1837,126.8844 168.3457,127.5564 168.3457,129.2104"/>
      <path fill="#E86767" d="M69.9824,72.392 C69.9814,74.049 68.8184,76.066 67.3834,76.894 C65.9484,77.722 64.7844,77.052 64.7844,75.394 C64.7844,73.738 65.9494,71.721 67.3834,70.893 C68.8184,70.065 69.9814,70.737 69.9824,72.392"/>
    </g>
  </g>
</svg>
