<svg xmlns="http://www.w3.org/2000/svg" xmlns:xlink="http://www.w3.org/1999/xlink" width="507" height="311" viewBox="0 0 507 311">
  <defs>
    <linearGradient id="bi-purchase-landing-c" x1="0%" y1="50%" y2="50%">
      <stop offset="0%" stop-color="#C33764"/>
      <stop offset="100%" stop-color="#1D2671"/>
    </linearGradient>
    <path id="bi-purchase-landing-b" d="M440.003061,189.616446 C440.003061,178.854577 431.291534,170.130075 420.545669,170.130075 C409.799804,170.130075 401.089544,178.854577 401.089544,189.616446 C401.089544,200.378316 409.799804,209.101548 420.545669,209.101548 C431.291534,209.101548 440.003061,200.378316 440.003061,189.616446"/>
    <filter id="bi-purchase-landing-a" width="136%" height="135.9%" x="-18%" y="-12.8%" filterUnits="objectBoundingBox">
      <feOffset dy="2" in="SourceAlpha" result="shadowOffsetOuter1"/>
      <feGaussianBlur in="shadowOffsetOuter1" result="shadowBlurOuter1" stdDeviation="2"/>
      <feColorMatrix in="shadowBlurOuter1" values="0 0 0 0 0.607843137   0 0 0 0 0.607843137   0 0 0 0 0.607843137  0 0 0 0.5 0"/>
    </filter>
  </defs>
  <g fill="none" fill-rule="evenodd" transform="translate(-1)">
    <path fill="#333" d="M501.6625,311 L7.3375,311 C3.8379325,311 1,308.0906 1,304.5 C1,300.9094 3.8379325,298 7.3375,298 L501.6625,298 C505.163335,298 508,300.9094 508,304.5 C508,308.0906 505.163335,311 501.6625,311"/>
    <polygon fill="#FB992D" points="325 37.464 328.26 65 350 52.333 350 27"/>
    <polygon fill="#FFB739" points="329 36.362 329 65 307 52.333 307 27"/>
    <polygon fill="#FB992D" points="307 26.596 314.771 31 329.493 26.736 337 18.402 329.23 14"/>
    <polygon fill="#F67A21" points="321 34.597 328.769 39 351 26.403 343.231 22 328.397 26.325"/>
    <polygon fill="#FFEAC3" points="321 46 314 42.144 314 31 320.747 31.505 321 34.857"/>
    <polygon fill="#FFD488" points="314 30.299 336.291 18 343 21.701 320.707 34"/>
    <path fill="#FFC552" d="M480.782212,120.017693 L452.565127,120.017693 L454.868174,115.407276 C455.186317,114.768774 455.836544,114.366378 456.550147,114.366378 L476.797192,114.366378 C477.509527,114.366378 478.162289,114.768774 478.480432,115.407276 L480.782212,120.017693 Z"/>
    <polygon fill="#FFC552" points="452.566 133.204 458.209 133.204 458.209 120.018 452.566 120.018"/>
    <polygon fill="#FC9C47" points="452.566 123.786 458.209 123.786 458.209 120.018 452.566 120.018"/>
    <polygon fill="#FFC552" points="475.138 133.204 480.782 133.204 480.782 120.018 475.138 120.018"/>
    <polygon fill="#FC9C47" points="475.138 123.786 480.782 123.786 480.782 120.018 475.138 120.018"/>
    <path fill="#DDDAC5" d="M493.833406,170.881298 L439.514693,170.881298 C438.951923,170.881298 438.514636,170.390045 438.579278,169.830245 L443.063693,131.211662 C443.118196,130.736911 443.521261,130.378943 443.999108,130.378943 L489.348991,130.378943 C489.826838,130.378943 490.227368,130.736911 490.283138,131.211662 L494.767553,169.830245 C494.832196,170.390045 494.394908,170.881298 493.833406,170.881298"/>
    <path fill="#D1CDB2" d="M494.452326,167.114009 L444.332841,167.114009 C443.770071,167.114009 443.332784,166.622756 443.398694,166.062956 L447.540884,130.379197 L443.998221,130.379197 C443.520374,130.379197 443.118576,130.737164 443.064074,131.211916 L438.579659,169.830499 C438.515016,170.390299 438.952304,170.881552 439.513806,170.881552 L493.833786,170.881552 C494.395289,170.881552 494.832576,170.390299 494.767934,169.830499 L494.452326,167.114009 Z"/>
    <path fill="#58AB23" d="M460.284329,141.542828 C460.412346,141.436199 460.540364,141.33084 460.674719,141.230558 C460.838226,141.107428 460.944696,140.956371 461.000466,140.796428 C460.743164,141.029995 460.502339,141.278795 460.284329,141.542828"/>
    <path fill="#FC7A51" d="M296.311403,109.296063 C295.490063,107.119063 293.455725,105.637687 291.134933,105.523442 L284.612378,105.206096 C283.50078,105.151512 282.38538,105.234022 281.292795,105.452357 L257.863058,110.119896 C256.770473,110.336961 255.708308,110.688581 254.701913,111.164602 L248.797898,113.958524 C246.695115,114.952455 245.383253,117.100259 245.4555,119.427047 L245.839553,131.748993 C245.869973,132.687071 246.562028,133.471553 247.489838,133.613724 L257.14692,135.100177 L263.22078,165.680998 C263.325983,166.209063 263.838053,166.551798 264.365333,166.446438 L296.80953,159.983985 C297.33681,159.878626 297.679035,159.365793 297.573833,158.837728 L291.499973,128.256908 L299.854065,123.181896 C300.656393,122.69572 300.996083,121.705598 300.665265,120.827181 L296.311403,109.296063 Z"/>
    <path fill="#CC6144" d="M281.986371,105.334177 C281.754419,105.367181 281.523734,105.406532 281.293049,105.45223 L257.863311,110.119769 C257.632626,110.165467 257.403209,110.218781 257.176326,110.277173 C258.547761,117.126789 265.200869,121.573454 272.045369,120.210132 C278.891136,118.846809 283.336259,112.188871 281.986371,105.334177"/>
    <path fill="#F9977D" d="M252.143844,120.150978 L246.290529,116.233648 C245.723957,117.178072 245.419757,118.279901 245.456514,119.427427 L245.839299,131.749374 C245.869719,132.687452 246.563042,133.471933 247.489584,133.614105 L257.146667,135.099289 L255.040082,124.491015 C254.686449,122.716411 253.645832,121.156333 252.143844,120.150978"/>
    <path fill="#B2533D" d="M279.120934,105.885218 C280.169156,111.163332 276.746906,116.292928 271.476641,117.342712 C266.206376,118.392496 261.084409,114.965149 260.034919,109.687034"/>
    <path fill="#CC6144" d="M245.775417,129.679511 L245.84006,131.748613 C245.869212,132.68796 246.562535,133.471172 247.490345,133.614613 L257.14616,135.099796 L256.388195,131.27767 L245.775417,129.679511 Z"/>
    <path fill="#FC7A51" d="M254.10454,124.777262 C253.57726,124.882621 253.235035,125.395454 253.33897,125.923519 L255.099527,134.785115 L257.14654,135.099923 L255.247825,125.542703 C255.14389,125.014638 254.63182,124.671903 254.10454,124.777262"/>
    <polygon fill="#B2533D" points="255.1 134.785 257.147 135.1 256.387 131.276 254.342 130.969"/>
    <path fill="#F9977D" d="M290.409669,112.527797 L294.321174,106.665764 C295.204622,107.319499 295.906817,108.222034 296.311149,109.295936 L300.665012,120.827054 C300.997097,121.705471 300.656139,122.695593 299.853812,123.183038 L291.499719,128.256781 L289.391867,117.647238 C289.040769,115.873903 289.405809,114.032022 290.409669,112.527797"/>
    <path fill="#CC6144" d="M299.934425,118.890857 L300.664505,120.826673 C300.99659,121.70509 300.655632,122.696482 299.854572,123.182657 L291.50048,128.2564 L290.73998,124.434273 L299.934425,118.890857 Z"/>
    <path fill="#FC7A51" d="M290.366321,117.553938 C290.893601,117.448579 291.404403,117.791313 291.509606,118.319379 L293.270163,127.180975 L291.500733,128.256146 L289.600751,118.698926 C289.496816,118.17213 289.839041,117.659297 290.366321,117.553938"/>
    <polygon fill="#B2533D" points="293.27 127.181 291.501 128.256 290.74 124.434 292.512 123.365"/>
    <path fill="#CC6144" d="M296.809023,159.983604 L264.364826,166.447327 C263.837546,166.551417 263.325476,166.208682 263.220273,165.681886 L262.841291,163.770188 L297.194343,156.926919 L297.574593,158.838617 C297.679796,159.365413 297.336303,159.878245 296.809023,159.983604"/>
    <path fill="#F9977D" d="M272.246267,111.228706 L268.428557,111.989069 C267.903812,112.093159 267.389207,111.749155 267.284005,111.223628 C267.18007,110.698102 267.523562,110.181461 268.048307,110.077371 L271.866017,109.317008 C272.390762,109.212918 272.906635,109.556922 273.01057,110.082449 C273.114505,110.607975 272.769745,111.123347 272.246267,111.228706"/>
    <path fill="#B4E1FA" d="M415.522059,59.0666433 C416.383959,56.8147494 415.774292,54.2658188 413.989652,52.6473494 L406.238889,45.6200188 L388.277147,38.1687127 L377.834214,37.6482637 C375.429767,37.5289412 373.197699,38.9011494 372.217922,41.1022678 L359.465604,69.7206147 C359.298294,70.1001616 359.387019,70.5444473 359.689952,70.8287902 L365.250474,76.0320106 L365.258079,76.0180473 L363.307397,80.737631 C363.137552,81.1451045 363.264302,81.6160473 363.614132,81.8838882 L374.301692,90.0765167 C374.673069,90.3608596 375.211757,90.254231 375.446244,89.8480269 L382.379469,77.8688147 L378.594714,92.103729 L392.813529,93.9963861 C393.250817,94.0535086 393.671627,93.8123249 393.840204,93.4048514 L395.792154,88.699231 L403.393352,88.9569167 C403.807824,88.97088 404.185539,88.7195412 404.332569,88.332378 L415.522059,59.0666433 Z"/>
    <polygon fill="#91C5E6" points="405.558 42.177 391.189 36.216 395.397 46.391"/>
    <path fill="#B4E1FA" d="M360.754652,69.9518971 L358.531457,74.5813543 C358.347669,74.9647094 358.431324,75.421689 358.739327,75.7136482 L363.516534,80.2301298 L366.741054,72.4348196 L360.754652,69.9518971 Z"/>
    <polygon fill="#A0D2F0" points="364.945 71.69 362.004 78.8 363.516 80.231 366.741 72.436"/>
    <path fill="#A0D2F0" d="M382.415973,59.9722245 L378.823878,58.4819633 C377.832693,58.0706816 377.361183,56.9307714 377.771853,55.9381102 L380.003921,50.5419429 C380.209256,50.0456122 380.777096,49.8095061 381.273956,50.0151469 L386.662098,52.2505388 C387.157691,52.4561796 387.393446,53.0248653 387.188111,53.5224653 L384.956043,58.9186327 C384.545373,59.9125633 383.407158,60.3835061 382.415973,59.9722245"/>
    <path fill="#91C5E6" d="M386.816353,54.4216996 C386.405683,55.4143608 385.267468,55.8865731 384.276283,55.4752914 L380.684188,53.9850302 C379.691736,53.5737486 379.221493,52.4351078 379.632163,51.4411771 L377.771473,55.9373486 C377.360803,56.9312792 377.832313,58.0711894 378.823498,58.4812016 L382.415593,59.9727322 C383.408046,60.3840139 384.544993,59.9118016 384.955663,58.917871 L386.816353,54.4216996 Z"/>
    <path fill="#A0D2F0" d="M372.217795,41.1025216 L359.465478,69.7208686 C359.298168,70.1004155 359.386893,70.5447012 359.689825,70.8277747 L365.250348,76.0322645 L365.257953,76.0183012 L376.756713,48.2161706 C377.251038,47.0242155 377.251038,45.683742 376.756713,44.4905176 L374.32945,38.622138 C373.425723,39.2225584 372.679165,40.0654318 372.217795,41.1025216"/>
    <path fill="#91C5E6" d="M375.141537,49.5784776 C374.644677,49.3728367 374.076837,49.6089429 373.871502,50.1052735 L363.735305,74.6133429 L365.249967,76.031249 L365.257572,76.0185551 L375.66755,50.8504041 C375.872885,50.3540735 375.638397,49.7841184 375.141537,49.5784776"/>
    <path fill="#B4E1FA" d="M403.25925,87.5844547 L401.5608,92.4322465 C401.422643,92.8321037 401.039858,93.0961363 400.616513,93.0847118 L394.048328,92.8968424 L397.272848,85.1002629 L403.25925,87.5844547 Z"/>
    <polygon fill="#A0D2F0" points="399.069 85.847 396.129 92.956 394.049 92.897 397.273 85.101"/>
    <path fill="#A0D2F0" d="M415.522059,59.0666433 L404.333837,88.332378 C404.185539,88.7208106 403.807824,88.9721494 403.393352,88.9569167 L395.788352,88.699231 L395.792154,88.6852678 L407.289647,60.8818678 C407.783972,59.6899127 408.729527,58.74168 409.919709,58.2478882 L415.780629,55.8170106 C415.996104,56.8807576 415.927659,58.0067045 415.522059,59.0666433"/>
    <path fill="#91C5E6" d="M407.470139,62.9894322 C407.966999,63.1950731 408.201486,63.7650282 407.996151,64.2613588 L397.859954,88.7694282 L395.787591,88.6996118 L395.791394,88.6843792 L406.200104,63.5162282 C406.405439,63.0198976 406.974546,62.7837914 407.470139,62.9894322"/>
    <path fill="#A0D2F0" d="M405.557735,42.1766776 L395.768832,45.4923184 L391.189355,36.2156327 L388.27664,38.1692204 L389.611317,46.1473224 C389.707647,46.7223551 390.281825,47.0841306 390.840792,46.921649 L393.602675,46.1206653 C393.994332,46.0076898 394.342895,46.3973918 394.186992,46.7744 L382.71485,74.5130612 C381.875765,76.5402735 381.17357,78.6208 380.608265,80.7406776 L377.848917,91.1217306 C377.727237,91.5761714 378.032705,92.033151 378.497877,92.0940816 L379.563845,92.2337143 L382.487967,81.2433551 C383.02919,79.2047184 383.704767,77.2054327 384.512165,75.2569224 L395.98304,47.5195306 C396.138942,47.1425224 396.661152,47.1133265 396.857615,47.4700245 L398.24426,49.9935673 C398.525645,50.5038612 399.188547,50.6549184 399.661325,50.3172612 L406.237115,45.6192571 L405.557735,42.1766776 Z"/>
    <path fill="#A0D2F0" d="M397.783143,43.1664192 L395.987096,42.4212886 C395.492771,42.2156478 395.257016,41.6431539 395.461083,41.149362 C395.666418,40.6543008 396.236793,40.4169253 396.731118,40.6225661 L398.527166,41.3676967 C399.022758,41.5720682 399.258513,42.144562 399.053178,42.6383539 C398.849111,43.1346845 398.278736,43.3707906 397.783143,43.1664192"/>
    <path fill="#91C5E6" d="M396.385724 54.1769616C396.882584 54.3826024 397.117072 54.9512882 396.911737 55.4488882 396.706402 55.9452188 396.138562 56.1813249 395.641702 55.9756841 395.144842 55.7700433 394.910354 55.2000882 395.115689 54.7037576 395.321024 54.2061576 395.888864 53.9713208 396.385724 54.1769616M393.781392 60.4723633C394.278252 60.6780041 394.51274 61.2466898 394.307405 61.7442898 394.10207 62.2406204 393.53423 62.4767265 393.03737 62.2710857 392.541777 62.0654449 392.306022 61.4954898 392.511357 60.9991592 392.716692 60.5015592 393.2858 60.2667224 393.781392 60.4723633M391.178327 66.7678918C391.67392 66.9735327 391.909675 67.5422184 391.70434 68.0398184 391.499005 68.536149 390.929897 68.7722551 390.434305 68.5666143 389.937445 68.3609735 389.702957 67.7910184 389.908292 67.2946878 390.113627 66.7970878 390.681467 66.562251 391.178327 66.7678918M388.573995 73.0634204C389.070855 73.2690612 389.305343 73.8390163 389.100008 74.3353469 388.894673 74.8316776 388.326833 75.0677837 387.829973 74.8621429 387.333113 74.656502 387.098625 74.0865469 387.30396 73.5902163 387.509295 73.0938857 388.077135 72.8577796 388.573995 73.0634204M385.97093 79.358949C386.466523 79.5645898 386.702278 80.1345449 386.496943 80.6308755 386.291608 81.1272061 385.7225 81.3633122 385.22564 81.1576714 384.730048 80.9520306 384.49556 80.3820755 384.700895 79.8857449 384.90623 79.3894143 385.47407 79.1533082 385.97093 79.358949"/>
    <path fill="#F5DCB4" d="M235.149585,11.6617384 L235.149585,7.89419551 C235.149585,7.39405673 234.951855,6.91549755 234.598222,6.56133837 L230.379982,2.33681592 C230.02635,1.98392612 229.548502,1.78590163 229.050375,1.78590163 L225.288435,1.78590163 C224.78904,1.78463224 224.311192,1.98392612 223.95756,2.33681592 L218.523787,7.77995061 L221.183002,10.4443955 L227.169405,4.44907714 L232.489102,9.77796694 L226.503967,15.7720159 L229.16445,18.4364608 L234.598222,12.9933261 C234.951855,12.6404363 235.149585,12.1618771 235.149585,11.6617384"/>
    <path fill="#FAEBC8" d="M230.379729 2.33719673C230.027364 1.98303755 229.548249 1.78501306 229.050121 1.78501306L225.288181 1.78501306C225.061299 1.78501306 224.840754 1.83071102 224.632884 1.90941306L235.026384 12.3183927C235.103701 12.1089437 235.149331 11.8880702 235.149331 11.6608498L235.149331 7.89330694C235.149331 7.39443755 234.951601 6.91460898 234.599236 6.56171918L230.379729 2.33719673zM202.010797 53.8508559L183.161805 34.9725212C182.80944 34.6196314 182.610442 34.1410722 182.610442 33.6409335L182.610442 28.5418029C182.610442 28.0416641 182.80944 27.5631049 183.161805 27.2089457L209.87817.452790612C210.244477.085937551 210.840202.085937551 211.207777.452790612L236.479192 25.7631131C236.846767 26.1312355 236.846767 26.7265784 236.479192 27.0947008L209.764095 53.8508559C209.410462 54.2037457 208.932615 54.4030396 208.43322 54.4030396L203.341672 54.4030396C202.842277 54.4030396 202.363162 54.2037457 202.010797 53.8508559"/>
    <path fill="#F5DCB4" d="M232.488975,27.0945739 L209.878043,4.44996571 C209.510468,4.08184327 209.510468,3.48523102 209.878043,3.11710857 C210.24435,2.74898612 210.840075,2.74898612 211.20765,3.11710857 L233.818583,25.7629861 C234.186158,26.1311086 234.186158,26.7264514 233.818583,27.0945739 C233.452275,27.4626963 232.85655,27.4626963 232.488975,27.0945739"/>
    <path fill="#466289" d="M292.484186,83.2625702 C292.840354,85.0562151 291.676789,86.7990845 289.885811,87.1557824 L288.159476,84.1244845 L288.596764,80.6603253 C290.387741,80.3036273 292.128019,81.4689253 292.484186,83.2625702"/>
    <path fill="#354A67" d="M288.596257 80.6604522L289.886572 87.1559094C288.094327 87.5126073 286.35405 86.3473094 285.997882 84.5549339 285.641715 82.761289 286.80528 81.0171502 288.596257 80.6604522M261.134602 89.5071963C261.49077 91.3008412 260.327204 93.04498 258.536227 93.401678L256.811159 90.3691106 257.247179 86.9062208C259.038157 86.5482535 260.778435 87.7135514 261.134602 89.5071963"/>
    <path fill="#233145" d="M257.246672,86.90584 L258.536987,93.4012971 C256.74601,93.7579951 255.004465,92.5926971 254.649565,90.7990522 C254.29213,89.0054073 255.455695,87.262538 257.246672,86.90584"/>
    <polygon fill="#FFB739" points="271.12 49.253 285.173 46.454 286.516 53.22 280.246 55.595 273.545 55.804"/>
    <polygon fill="#FB992D" points="286.517 53.22 287.862 59.987 281.59 62.361 274.889 62.57 272.464 56.02"/>
    <polygon fill="#FFD488" points="273.808 62.786 287.861 59.986 289.205 66.753 282.933 69.128 276.233 69.338"/>
    <polygon fill="#FFB739" points="289.205 66.752 290.549 73.52 276.712 77.401 275.151 69.553"/>
    <polygon fill="#F67A21" points="250.581 53.345 272.202 49.038 274.889 62.571 264.293 65.807 253.27 66.878"/>
    <polygon fill="#FB992D" points="274.889 62.571 253.269 66.878 256.172 81.493 277.791 77.186"/>
    <polygon fill="#466289" points="251.633 81.272 293.791 72.873 294.436 76.12 250.115 84.949"/>
    <polygon fill="#354A67" points="245.403 44.247 252.714 81.056 250.115 84.949 242.806 48.141 237.4 49.218 236.755 45.97"/>
    <path fill="#DCB991" d="M347.964563,113.279021 L344.273603,95.7221188 C344.16333,95.1965922 343.61577,94.8894004 343.115108,95.0798086 C341.834933,95.5621759 339.573713,96.6513106 338.233965,98.6632902 L340.179578,109.382 L347.964563,113.279021 Z"/>
    <path fill="#F09846" d="M374.679787,123.668452 C374.436427,121.716133 372.782339,120.246182 370.817714,120.256338 C367.468979,120.27157 361.121339,119.945338 355.747139,118.151693 L341.154412,106.458093 L336.288479,98.6627824 L328.730377,101.186325 C327.936922,101.451627 327.105442,101.586182 326.270159,101.586182 L323.640097,101.586182 C322.029104,101.586182 320.722312,102.894921 320.722312,104.509582 L320.722312,127.895513 L365.477737,131.792533 L375.207067,127.895513 L374.679787,123.668452 Z"/>
    <path fill="#AA6455" d="M338.235486,113.279021 L338.235486,101.780907 L336.288606,98.6632902 L328.730504,101.186833 C327.937049,101.450866 327.105569,101.58669 326.270286,101.58669 L323.640224,101.58669 C322.029231,101.58669 320.722439,102.895429 320.722439,104.51009 L320.722439,113.279021 L338.235486,113.279021 Z"/>
    <path fill="#9B5A50" d="M334.428043,99.2841478 L335.396413,104.126862 C335.510488,104.701895 335.363458,105.29216 334.99208,105.745331 C334.620703,106.198503 334.073143,106.457458 333.487558,106.457458 L326.559403,106.457458 C324.233541,106.457458 322.148503,107.48947 320.722566,109.114287 L320.722566,113.279148 L338.235613,113.279148 L338.235613,101.781033 L336.288733,98.6634171 L334.428043,99.2841478 Z"/>
    <path fill="#DC8C46" d="M337.261286,126.920623 C342.127218,121.075093 349.687856,121.232497 352.520718,121.756754 C353.314173,121.904003 354.110163,121.533342 354.525903,120.840256 L356.283926,117.906701 C356.533623,117.489072 356.437293,116.949582 356.057043,116.644929 L342.127218,105.484472 L340.887603,100.524974 C340.498481,98.9585498 338.912838,98.006509 337.348743,98.3974804 L336.287846,98.6627824 L337.303113,103.745411 C337.784763,106.157248 335.943086,108.407872 333.486671,108.407872 L326.559783,108.407872 C323.335263,108.407872 320.721678,111.02535 320.721678,114.253403 L320.721678,125.945733 L337.261286,126.920623 Z"/>
    <path fill="#EBC9A0" d="M360.612311,128.869387 C346.313644,128.869387 336.550091,125.128502 320.735494,124.977444 C320.195539,124.971098 319.749379,125.412844 319.749379,125.954873 L319.749379,132.767677 C319.749379,133.305898 320.184131,133.741298 320.721551,133.741298 L336.288986,133.741298 C336.826406,133.741298 337.261159,133.305898 337.261159,132.767677 L337.261159,131.254567 C344.948546,132.371628 351.951484,133.741298 360.612311,133.741298 C368.363074,133.741298 373.643479,132.504914 375.472481,132.002236 C375.893291,131.885453 376.179746,131.502098 376.179746,131.064159 L376.179746,128.208036 C376.179746,127.572073 375.587824,127.104938 374.973086,127.262342 C372.792986,127.820873 367.750871,128.869387 360.612311,128.869387"/>
    <path fill="#AA6455" d="M347.612958 114.388593C347.364528 114.388593 347.114831 114.293389 346.924706 114.10298 346.544456 113.723433 346.544456 113.106511 346.924706 112.725695L348.870318 110.775915C349.250568 110.396368 349.866573 110.396368 350.246823 110.775915 350.627073 111.158001 350.627073 111.773654 350.246823 112.15447L348.301211 114.10298C348.111086 114.293389 347.861388 114.388593 347.612958 114.388593M352.748615 118.557389C352.500185 118.557389 352.24922 118.462185 352.060362 118.271777 351.680112 117.89096 351.680112 117.274038 352.060362 116.893222L354.005975 114.944711C354.386225 114.563895 355.00223 114.563895 355.38248 114.944711 355.76273 115.325528 355.76273 115.94245 355.38248 116.323267L353.436867 118.271777C353.246742 118.462185 352.997045 118.557389 352.748615 118.557389M350.180153 116.472927C349.931723 116.472927 349.682025 116.377723 349.4919 116.187315 349.11165 115.807768 349.11165 115.190846 349.4919 114.810029L351.437513 112.861519C351.817763 112.480703 352.433768 112.480703 352.814018 112.861519 353.194268 113.242336 353.194268 113.857989 352.814018 114.238805L350.868405 116.187315C350.67828 116.377723 350.428583 116.472927 350.180153 116.472927M345.045764 112.304766C344.797334 112.304766 344.546369 112.209562 344.357511 112.019153 343.977261 111.639607 343.977261 111.022684 344.357511 110.640598L346.303124 108.692088C346.683374 108.311272 347.299379 108.311272 347.679629 108.692088 348.059879 109.072904 348.059879 109.689827 347.679629 110.070643L345.732749 112.019153C345.543891 112.209562 345.294194 112.304766 345.045764 112.304766"/>
    <path fill="#DCB991" d="M320.735494,129.84872 C320.195539,129.843642 319.749379,130.285389 319.749379,130.827418 L319.749379,132.767042 C319.749379,133.305263 320.184131,133.741932 320.721551,133.741932 L336.288986,133.741932 C336.826406,133.741932 337.261159,133.305263 337.261159,132.767042 L337.261159,131.250124 C332.259604,130.525304 326.967791,129.908381 320.735494,129.84872"/>
    <path fill="#FC7A51" d="M201.221018,83.5637959 L187.737353,95.8387755 C187.046565,96.4645837 186.149175,96.8111265 185.21883,96.8136653 L165.032625,96.8111265 C164.51295,96.8111265 164.093408,97.2325633 164.093408,97.7530122 L164.094675,110.939412 C164.094675,111.459861 164.516753,111.881298 165.03516,111.881298 L188.03268,111.881298 C190.786958,111.881298 193.44744,110.872135 195.51093,109.044216 L211.371158,94.9273551 C214.55892,92.101698 214.816223,87.2082082 211.938998,84.0652041 C209.111205,80.9755143 204.323858,80.752102 201.221018,83.5637959"/>
    <path fill="#FFDC64" d="M164.092267,97.7519967 L164.092267,110.939666 C164.092267,111.458846 164.514344,111.881552 165.032752,111.881552 L171.617415,111.881552 L171.617415,96.810111 L165.032752,96.810111 C164.514344,96.810111 164.092267,97.2315478 164.092267,97.7519967"/>
    <path fill="#FFC850" d="M171.616781,109.997146 L171.616781,111.880917 L165.033386,111.880917 C164.513711,111.880917 164.091633,111.45948 164.091633,110.939031 L164.091633,109.997146 L171.616781,109.997146 Z"/>
    <polygon fill="#FFC850" points="164.092 108.112 171.617 108.112 171.617 106.229 164.092 106.229"/>
    <path fill="#CC6144" d="M201.221018,83.5637959 L187.737353,95.8387755 C187.046565,96.4645837 186.149175,96.8111265 185.21883,96.8136653 L173.49699,96.8111265 L171.617288,96.8111265 L165.032625,96.8111265 C164.51295,96.8111265 164.093408,97.2325633 164.093408,97.7530122 L164.093408,104.346212 L171.617288,104.346212 L171.617288,111.881298 L173.49699,111.881298 L173.49699,104.346212 L181.449285,104.346212 C184.664933,104.346212 187.76397,103.16949 190.173488,101.035649 L206.037518,86.916249 C207.492608,85.626551 208.4952,83.9255714 208.952768,82.064649 C206.38101,81.1214939 203.38971,81.5987837 201.221018,83.5637959"/>
    <path fill="#FFDC64" d="M192.778074 103.404073C188.363371 103.404073 184.783951 106.988824 184.783951 111.410101 184.783951 111.568775 184.799161 111.724909 184.808034 111.881044L188.032554 111.881044C190.786831 111.881044 193.447314 110.871881 195.510804 109.043962L198.779686 106.133256C197.315724 104.462742 195.172381 103.404073 192.778074 103.404073M211.939124 84.0652041C209.111332 80.9755143 204.323984 80.752102 201.221145 83.5637959L200.491064 84.2276857 210.235605 95.9377878 211.371285 94.9273551C214.559047 92.101698 214.81635 87.2082082 211.939124 84.0652041"/>
    <path fill="#FFC850" d="M186.664668 111.410355C186.664668 111.569029 186.677343 111.725163 186.68875 111.881298L188.0323 111.881298C190.786578 111.881298 193.44706 110.872135 195.51055 109.044216L197.37631 107.383857C196.254573 106.101776 194.61316 105.288098 192.77782 105.288098 189.402468 105.288098 186.664668 108.028706 186.664668 111.410355M211.939124 84.0652041C209.554957 81.4604204 205.780342 80.9018898 202.794112 82.4733918L212.314304 93.9156531C214.571722 91.037951 214.498207 86.8603959 211.939124 84.0652041"/>
    <polygon fill="#FFC850" points="164.092 104.345 171.617 104.345 171.617 102.461 164.092 102.461"/>
    <path fill="#FFC850" d="M200.491318,84.2275588 L204.135381,88.6082159 L206.036631,86.916122 C207.492988,85.6264241 208.494313,83.9254445 208.951881,82.064522 C206.381391,81.1213669 203.390091,81.5986567 201.221398,83.563669 L200.491318,84.2275588 Z"/>
    <path fill="#F5B44B" d="M206.286074,86.6702416 C207.601739,85.4148171 208.519409,83.8179273 208.950359,82.0737886 C206.956582,81.34516 204.714374,81.4619437 202.794112,82.4723763 L206.286074,86.6702416 Z"/>
    <path fill="#FC7A51" d="M194.637243,74.1443041 L181.153578,86.4192837 C180.46279,87.0450918 179.5654,87.3929041 178.635055,87.3941735 L158.44885,87.3916347 C157.930443,87.3916347 157.509633,87.8130714 157.509633,88.3335204 L157.5109,101.51992 C157.5109,102.040369 157.932978,102.461806 158.451385,102.461806 L181.448905,102.461806 C184.203183,102.461806 186.863665,101.452643 188.927155,99.6247245 L204.787383,85.5078633 C207.976413,82.6834755 208.232448,77.7887163 205.355223,74.6457122 C202.528698,71.5560224 197.740083,71.3326102 194.637243,74.1443041"/>
    <path fill="#FFDC64" d="M157.508999,88.3332665 L157.508999,101.519667 C157.508999,102.040116 157.929809,102.461552 158.449484,102.461552 L165.032879,102.461552 L165.032879,87.3913808 L158.449484,87.3913808 C157.929809,87.3913808 157.508999,87.8128176 157.508999,88.3332665"/>
    <path fill="#FFC850" d="M165.033005,100.577781 L165.033005,102.461552 L158.44961,102.461552 C157.929935,102.461552 157.509125,102.040116 157.509125,101.519667 L157.509125,100.577781 L165.033005,100.577781 Z"/>
    <polygon fill="#FFC850" points="157.51 98.695 165.034 98.695 165.034 96.811 157.51 96.811"/>
    <polygon fill="#FFC850" points="157.51 94.926 165.034 94.926 165.034 93.042 157.51 93.042"/>
    <polygon fill="#FFC850" points="157.51 91.159 165.034 91.159 165.034 89.275 157.51 89.275"/>
    <polygon fill="#CC6144" points="165.034 102.461 166.914 102.461 166.914 87.391 165.034 87.391"/>
    <path fill="#FFDC64" d="M186.194932 93.9847078C181.778962 93.9847078 178.20081 97.5694588 178.20081 101.990736 178.20081 102.150679 178.214752 102.305544 178.223625 102.461679L181.449412 102.461679C184.20369 102.461679 186.862905 101.452516 188.926395 99.6245976L192.196545 96.7138914C190.731315 95.0433771 188.58924 93.9847078 186.194932 93.9847078M205.355349 74.6458392C202.528824 71.5561494 197.740209 71.3327371 194.637369 74.144431L193.907289 74.8083208 203.651829 86.5184229 204.787509 85.5079902C207.976539 82.6836024 208.232574 77.7888433 205.355349 74.6458392"/>
    <path fill="#FFC850" d="M180.081399 101.99099C180.081399 102.149664 180.092807 102.305798 180.105482 102.461933L181.449032 102.461933C184.203309 102.461933 186.863792 101.45277 188.927282 99.6248514L190.791774 97.9644922C189.671304 96.6824106 188.029892 95.8687331 186.194552 95.8687331 182.817932 95.8687331 180.081399 98.6093412 180.081399 101.99099M205.355349 74.6458392C202.971182 72.0410555 199.196567 71.4825249 196.210337 73.0540269L205.731797 84.4962882C207.987947 81.6185861 207.914432 77.441031 205.355349 74.6458392"/>
    <path fill="#00C3FF" d="M187.10525,164.34154 C185.922673,165.525878 183.991003,165.475103 182.8718,164.229833 L173.866213,154.001107 C173.186833,153.229319 173.22359,152.061482 173.949868,151.334123 L174.721775,150.562336 C175.102025,150.181519 175.71803,150.181519 176.09828,150.562336 L176.482333,150.94696 C177.074255,151.539764 177.97925,151.687013 178.728343,151.311274 L184.116485,148.613825 C185.105135,148.118764 185.730013,147.105793 185.730013,145.998887 L185.730013,138.798919 C185.730013,137.586654 186.470233,136.502597 187.600843,136.071005 C192.751963,134.102184 207.072178,128.539727 211.873468,125.757229 C213.318418,124.918164 214.563103,124.029593 215.579638,123.215915 C217.521448,121.660915 220.309948,121.805625 222.06797,123.564997 L223.56869,125.067952 L222.192185,131.958189 L187.793503,163.653531 L187.10525,164.34154 Z"/>
    <polygon fill="#FAEBC8" points="204.902 131.533 201.352 145.713 196.681 148.923 199.856 136.241"/>
    <polygon fill="#EBC9A0" points="194.72 139.921 191.545 152.604 196.681 148.924 199.856 136.241"/>
    <path fill="#0096DC" d="M192.471719,151.461062 L194.888841,141.625846 C195.061221,140.937838 195.476961,140.333609 196.060011,139.929944 C198.856116,137.991589 207.312876,132.177793 207.869309,127.76667 C201.576171,130.672299 191.696009,134.50585 187.600716,136.071005 C186.470106,136.502597 185.729886,137.586654 185.729886,138.798919 L185.729886,145.998887 C185.729886,147.105793 185.105009,148.118764 184.116359,148.613825 L178.728216,151.311274 C177.979124,151.687013 177.074129,151.539764 176.482206,150.94696 L176.098154,150.562336 C175.717904,150.181519 175.101899,150.181519 174.721649,150.562336 L173.949741,151.334123 C173.223464,152.062752 173.186706,153.229319 173.866086,154.001107 L181.396304,162.552972 L192.471719,151.461062 Z"/>
    <path fill="#00AAF0" d="M190.486941,161.170609 L214.309603,139.221625 L211.374073,136.282993 C200.415268,145.690425 185.539888,155.883609 185.539888,155.883609 L190.486941,161.170609 Z"/>
    <path fill="#0096DC" d="M218.086626,122.177175 C217.105581,124.328787 214.953366,128.463183 211.074816,133.309706 C210.703439,133.775571 210.474021,134.342987 210.430926,134.93833 L209.808584,142.98244 L222.192059,131.959077 L223.568564,125.06884 L222.067844,123.565885 C220.985399,122.481828 219.512564,122.015963 218.086626,122.177175"/>
    <path fill="#EBC9A0" d="M190.674404 138.159148C190.508361 138.326707 190.280211 138.433336 190.026711 138.443491 189.489291 138.46634 189.036794 138.048711 189.013979 137.510491L188.927789 135.443927C188.906241 134.905707 189.324516 134.451266 189.859401 134.429687 190.396821 134.406838 190.849319 134.825736 190.873401 135.362687L190.959591 137.42925C190.970999 137.713593 190.859459 137.973817 190.674404 138.159148M194.066614 136.752158C193.900571 136.919718 193.672421 137.026346 193.418921 137.036501 192.881501 137.05935 192.429004 136.641722 192.406189 136.103501L192.319999 134.036938C192.297184 133.498718 192.717994 133.043007 193.251611 133.022697 193.789031 132.999848 194.241529 133.418746 194.264344 133.955697L194.350534 136.02226C194.363209 136.306603 194.251669 136.566828 194.066614 136.752158M197.458824 135.345169C197.292782 135.512728 197.064632 135.619357 196.811132 135.629512 196.273712 135.652361 195.821214 135.234732 195.798399 134.696512L195.712209 132.629949C195.690662 132.090459 196.110204 131.637287 196.643822 131.615708 197.181242 131.592859 197.633739 132.011757 197.657822 132.548708L197.744012 134.615271C197.755419 134.899614 197.643879 135.159838 197.458824 135.345169M200.850401 133.939449C200.684358 134.105739 200.456208 134.213637 200.203976 134.223792 199.665288 134.246641 199.212791 133.829012 199.189976 133.290792L199.105053 131.224229C199.082238 130.686008 199.501781 130.232837 200.035398 130.209988 200.574086 130.187139 201.026583 130.606037 201.049398 131.142988L201.135588 133.209551C201.146996 133.492624 201.035456 133.754118 200.850401 133.939449M193.985494 157.451684L187.450264 155.581876C185.451416 155.009382 183.314411 155.169324 181.420766 156.029969L177.302659 157.904855 182.872054 164.230214C183.989989 165.475484 185.922926 165.526259 187.105504 164.34192L193.985494 157.451684z"/>
    <path fill="#FAEBC8" d="M211.872834,140.915496 C205.681097,147.116456 200.864597,150.561574 194.672859,156.762533 L185.412504,165.174766 L188.595197,168.362198 C188.975447,168.741745 189.590184,168.741745 189.970434,168.362198 L212.561087,145.7379 C219.319397,138.969525 223.310754,132.201149 224.537694,129.968296 C224.800067,129.491007 224.853302,128.927398 224.679654,128.408219 L223.569324,125.06846 C223.569324,125.06846 219.441077,133.335982 211.872834,140.915496"/>
    <polygon fill="#CCC" points="406.698 260.704 406.698 298.839 443.976 298.839 443.976 260.693"/>
    <path stroke="#000" stroke-linecap="round" stroke-linejoin="round" stroke-width="15" d="M495.997155,249.873394 L354.83061,249.873394"/>
    <path fill="#424242" d="M508,160.062307 C508,155.59787 504.352135,151.945841 499.894338,151.945841 L350.778032,151.945841 C346.320235,151.945841 342.673637,155.59787 342.673637,160.062307 L342.673637,250.153294 L425.336185,258.26976 L508,250.153294 L508,160.062307 Z"/>
    <path fill="#EEE" d="M470.518377,301.882369 L380.155767,301.882369 C378.477597,301.882369 377.11757,300.520316 377.11757,298.839646 C377.11757,297.157707 378.477597,295.795654 380.155767,295.795654 L470.518377,295.795654 C472.19528,295.795654 473.556575,297.157707 473.556575,298.839646 C473.556575,300.520316 472.19528,301.882369 470.518377,301.882369"/>
    <use fill="#000" filter="url(#bi-purchase-landing-a)" xlink:href="#bi-purchase-landing-b"/>
    <use fill="url(#bi-purchase-landing-c)" xlink:href="#bi-purchase-landing-b"/>
    <path fill="#EEE" d="M425.47637,194.572009 L425.71466,192.794866 L427.241998,192.794866 L426.811048,194.572009 L425.47637,194.572009 Z M422.05919,194.572009 L422.05919,192.794866 L424.307735,192.794866 L424.069445,194.572009 L422.05919,194.572009 Z M418.416395,192.794866 L420.66494,192.794866 L420.66494,194.572009 L418.654685,194.572009 L418.416395,192.794866 Z M415.91435,194.572009 L415.482133,192.794866 L417.00947,192.794866 L417.249028,194.572009 L415.91435,194.572009 Z M426.350945,188.046087 L426.600643,186.19278 L428.841583,186.19278 L428.392888,188.046087 L426.350945,188.046087 Z M426.164623,189.442413 L428.054465,189.442413 L427.58042,191.39854 L425.90225,191.39854 L426.164623,189.442413 Z M422.05919,189.442413 L424.757698,189.442413 L424.495325,191.39854 L422.05919,191.39854 L422.05919,189.442413 Z M417.966433,189.442413 L420.66494,189.442413 L420.66494,191.39854 L418.228805,191.39854 L417.966433,189.442413 Z M414.670933,189.442413 L416.559508,189.442413 L416.82188,191.39854 L415.144978,191.39854 L414.670933,189.442413 Z M416.371918,188.046087 L414.331243,188.046087 L413.882548,186.19278 L416.123488,186.19278 L416.371918,188.046087 Z M422.05919,186.19278 L425.19245,186.19278 L424.94402,188.046087 L422.05919,188.046087 L422.05919,186.19278 Z M420.663673,188.046087 L417.778843,188.046087 L417.529145,186.19278 L420.663673,186.19278 L420.663673,188.046087 Z M414.817963,195.969605 L417.434083,195.969605 L425.290048,195.969605 L427.906168,195.969605 L430.645235,184.796454 L412.078895,184.796454 L414.817963,195.969605 Z"/>
    <polygon fill="#EEE" points="412.079 184.796 413.515 184.796 412.528 180.776 408.239 180.776 408.239 182.172 411.435 182.172"/>
    <path fill="#EEE" d="M418.429578 196.894989C419.267395 196.894989 419.945508 197.574111 419.945508 198.411907 419.945508 199.249703 419.267395 199.930095 418.429578 199.930095 417.593028 199.930095 416.914915 199.249703 416.914915 198.411907 416.914915 197.574111 417.593028 196.894989 418.429578 196.894989M426.007326 196.894989C426.843876 196.894989 427.521989 197.574111 427.521989 198.411907 427.521989 199.249703 426.843876 199.930095 426.007326 199.930095 425.170776 199.930095 424.492664 199.249703 424.492664 198.411907 424.492664 197.574111 425.170776 196.894989 426.007326 196.894989"/>
    <path fill="#FFD180" d="M455.11407,222.903855 C453.609547,221.351394 451.131585,221.333622 449.610585,222.856888 L444.204697,228.275904 C441.09552,231.389712 435.780892,229.183516 435.780892,224.786357 L435.780892,191.822896 C435.780892,189.695402 434.107792,187.899218 431.983462,187.876369 C430.907355,187.862406 429.928845,188.295267 429.229185,189.001047 C428.530792,189.695402 428.107447,190.657598 428.107447,191.721345 L428.107447,208.578814 C428.107447,208.495035 428.102377,208.417602 428.098575,208.3389 C428.08083,207.970778 428.002245,207.616618 427.8831,207.284039 C427.864087,207.229455 427.841272,207.168524 427.818457,207.11521 C427.772827,206.999696 427.722127,206.894337 427.667625,206.782631 C427.621995,206.698851 427.571295,206.61761 427.519327,206.533831 C427.478767,206.470361 427.43694,206.404353 427.39131,206.344692 C427.354552,206.285031 427.308922,206.230447 427.262025,206.174594 C427.19358,206.083198 427.114995,205.990533 427.032607,205.908022 L427.027537,205.902945 C426.770235,205.632565 426.466035,205.396459 426.140287,205.20859 C425.578785,204.891243 424.931092,204.71099 424.241572,204.71099 C423.170535,204.71099 422.208502,205.138773 421.51011,205.844553 C420.811717,206.542716 420.3795,207.50999 420.3795,208.578814 L420.3795,209.895169 C420.3795,209.794888 420.375697,209.693337 420.365557,209.591786 C420.355417,209.462308 420.341475,209.329022 420.314857,209.199545 C420.295845,209.099263 420.2781,209.006598 420.250215,208.910124 C420.236272,208.841578 420.213457,208.775569 420.190642,208.707022 C420.162757,208.615627 420.129802,208.522961 420.089242,208.436643 L420.089242,208.426488 C420.048682,208.333822 420.006855,208.242427 419.966295,208.154839 L419.9232,208.071059 C419.8725,207.984741 419.823067,207.897153 419.767297,207.808296 C419.698852,207.697859 419.620267,207.5925 419.54295,207.490949 C419.468167,207.399553 419.389582,207.308157 419.308462,207.220569 L419.303392,207.220569 C419.027077,206.924802 418.705132,206.68108 418.3515,206.486863 C417.80901,206.192365 417.179062,206.022267 416.512357,206.022267 C415.445122,206.022267 414.479287,206.455129 413.782162,207.155831 C413.08377,207.859071 412.646482,208.826345 412.646482,209.895169 L412.646482,213.137186 C412.646482,213.039443 412.641412,212.9417 412.636342,212.845227 C412.623667,212.653549 412.595782,212.468218 412.553955,212.284157 C412.53621,212.196569 412.513395,212.103904 412.48551,212.017586 C412.420867,211.796712 412.33341,211.584724 412.228207,211.381622 C412.205392,211.335924 412.182577,211.290227 412.153425,211.243259 C412.131877,211.201369 412.107795,211.160749 412.081177,211.120129 C412.057095,211.073161 412.030477,211.031271 411.997522,210.990651 L411.989917,210.980496 C411.934147,210.894178 411.874575,210.815476 411.809932,210.731696 C411.73515,210.6403 411.657832,210.548904 411.574177,210.460047 L411.519675,210.400386 C411.308002,210.188398 411.078585,210.004337 410.826352,209.848202 C410.236965,209.48008 409.533502,209.263014 408.788212,209.263014 C406.651207,209.263014 404.92107,210.999537 404.92107,213.135916 L404.92107,232.1615 C404.92107,233.345839 405.125137,234.511137 405.510457,235.606618 C405.900847,236.707178 406.476292,237.73919 407.216512,238.654418 L407.2482,238.6925 C409.506885,241.453418 410.80734,244.875688 410.80734,248.447745 L410.80734,255.014288 L435.836662,255.014288 L435.836662,249.318545 C435.836662,246.739149 437.285415,244.404745 439.565647,243.198827 L439.598602,243.181055 C441.89151,241.956096 443.979082,240.349051 445.763722,238.415773 L454.195132,229.274912 L455.17491,228.216243 C455.643885,227.708488 455.951887,227.10172 456.093847,226.470835 C456.387907,225.233182 456.055822,223.880014 455.11407,222.903855"/>
    <path fill="#F5B122" d="M412.649144 213.136805L412.649144 221.733099C412.649144 222.031405 412.408319 222.26878 412.110456 222.26878 411.815129 222.26878 411.575571 222.031405 411.575571 221.733099L411.575571 210.463474C412.241009 211.155291 412.649144 212.099715 412.649144 213.136805M420.376584 209.896312L420.376584 219.651557C420.376584 219.948593 420.135759 220.189777 419.839164 220.189777 419.542569 220.189777 419.304279 219.948593 419.304279 219.651557L419.304279 207.222981C419.968449 207.918606 420.376584 208.860491 420.376584 209.896312M428.105419 208.581099L428.105419 221.01983C428.105419 221.315597 427.864594 221.55805 427.567999 221.55805 427.271404 221.55805 427.029312 221.315597 427.029312 221.01983L427.029312 205.907769C427.698552 206.599585 428.105419 207.541471 428.105419 208.581099"/>
    <path fill="#EEE" d="M342.674144,250.153548 L342.674144,260.704699 C342.674144,265.167867 346.320742,268.819895 350.779807,268.819895 L499.896112,268.819895 C504.352642,268.819895 508.000507,265.167867 508.000507,260.704699 L508.000507,250.153548 L342.674144,250.153548 Z"/>
    <polygon fill="#F67A21" points="66.855 109.673 66.855 117.897 62.998 117.897 62.998 110.777"/>
    <polygon fill="#FB992D" points="72.641 106.913 73.744 108.845 72.641 110.776 62.998 110.776 66.855 106.913"/>
    <polygon fill="#FFB739" points="72.641 116.795 73.744 131.144 72.641 145.493 63.273 146.597 53.905 145.493 53.905 116.795"/>
    <polygon fill="#BB4919" points="82.285 110.777 82.285 117.898 78.428 117.898 78.428 109.672"/>
    <polygon fill="#F67A21" points="82.285 110.776 72.641 110.776 72.641 106.914 78.428 106.914"/>
    <polygon fill="#FFB739" points="72.641 151.565 73.744 154.791 72.641 157.636 53.905 157.636 62.199 151.565 67.42 150.46"/>
    <polygon fill="#FB992D" points="72.641 145.494 72.641 151.565 62.199 151.565 53.905 145.494"/>
    <polygon fill="#F67A21" points="53.905 145.494 64.405 151.565 53.905 157.635"/>
    <polygon fill="#FB992D" points="91.378 116.795 91.378 145.493 82.01 146.597 72.641 145.493 72.641 116.795"/>
    <polygon fill="#FB992D" points="91.378 157.636 72.641 157.636 72.641 151.564 77.863 150.461 83.084 151.564"/>
    <polygon fill="#F67A21" points="91.378 145.494 83.084 151.565 72.641 151.565 72.641 145.494"/>
    <polygon fill="#BB4919" points="91.378 157.636 80.878 151.564 91.378 145.494"/>
    <path fill="#BB4919" d="M128.930296,116.380643 L126.317979,116.380643 L126.317979,106.791688 C126.317979,102.18508 122.576319,98.4391163 117.976561,98.4391163 C113.378071,98.4391163 109.636411,102.18508 109.636411,106.791688 L109.636411,116.380643 L107.024094,116.380643 L107.024094,106.791688 C107.024094,100.743055 111.938191,95.8216388 117.976561,95.8216388 C124.017466,95.8216388 128.930296,100.743055 128.930296,106.791688 L128.930296,116.380643 Z"/>
    <path fill="#FF8C00" d="M116.527555,116.380643 L113.91397,116.380643 L113.91397,106.791688 C113.91397,102.18508 110.173577,98.4391163 105.57382,98.4391163 C100.97533,98.4391163 97.23367,102.18508 97.23367,106.791688 L97.23367,116.380643 L94.6213525,116.380643 L94.6213525,106.791688 C94.6213525,100.743055 99.5341825,95.8216388 105.57382,95.8216388 C111.613457,95.8216388 116.527555,100.743055 116.527555,106.791688 L116.527555,116.380643 Z"/>
    <polygon fill="#FF9E24" points="136.582 112.312 130.38 112.312 125.156 132.325 130.38 152.337 136.582 152.337"/>
    <polygon fill="#FF8C00" points="124.179 112.312 118.953 132.325 124.179 152.337 130.381 152.337 130.381 112.312"/>
    <polygon fill="#FFB14D" points="86.969 152.337 124.178 152.337 124.178 112.312 86.969 112.312"/>
    <polygon fill="#CCC" points="65.024 260.704 65.024 298.839 102.303 298.839 102.303 260.693"/>
    <path stroke="#000" stroke-linecap="round" stroke-linejoin="round" stroke-width="15" d="M154.323518,249.873394 L13.1557053,249.873394"/>
    <path fill="#424242" d="M166.325855,160.062307 C166.325855,155.59787 162.679258,151.945841 158.22146,151.945841 L9.103888,151.945841 C4.647358,151.945841 0.999493,155.59787 0.999493,160.062307 L0.999493,250.153294 L83.663308,258.26976 L166.325855,250.153294 L166.325855,160.062307 Z"/>
    <path fill="#EEE" d="M128.843599 301.882369L38.4822565 301.882369C36.8040865 301.882369 35.444059 300.520316 35.444059 298.839646 35.444059 297.157707 36.8040865 295.795654 38.4822565 295.795654L128.843599 295.795654C130.521769 295.795654 131.883064 297.157707 131.883064 298.839646 131.883064 300.520316 130.521769 301.882369 128.843599 301.882369M166.325855 250.157229L166.325855 260.699495C166.325855 265.169009 162.67799 268.822307 158.225263 268.822307L9.101353 268.822307C4.6486255 268.822307.999493 265.169009.999493 260.699495L.999493 250.157229 166.325855 250.157229z"/>
    <path fill="#333" d="M125.58942,248.732849 C125.58942,249.263453 125.434785,249.749629 125.159737,250.157102 C124.6971,250.852727 123.903645,251.316053 123.010057,251.316053 C122.117737,251.316053 121.324282,250.852727 120.861645,250.157102 C120.58533,249.749629 120.431962,249.263453 120.431962,248.732849 C120.431962,247.872204 120.850237,247.120727 121.500465,246.647245 L121.500465,247.585323 C121.500465,248.412964 122.173507,249.097164 123.010057,249.097164 C123.847875,249.097164 124.520917,248.412964 124.520917,247.585323 L124.520917,246.647245 C125.171145,247.120727 125.58942,247.872204 125.58942,248.732849 Z M91.7750545,260.953245 C91.7750545,262.862404 90.2210995,264.418674 88.313512,264.418674 C86.397052,264.418674 84.853237,262.862404 84.853237,260.953245 C84.853237,259.583576 85.646692,258.403045 86.7937795,257.840707 L86.7937795,259.650853 C86.7937795,260.489919 87.476962,261.174119 88.313512,261.174119 C89.1411895,261.174119 89.824372,260.489919 89.824372,259.650853 L89.824372,257.840707 C90.9815995,258.403045 91.7750545,259.583576 91.7750545,260.953245 Z M52.6143745,249.054004 C52.6143745,249.439898 52.559872,249.815637 52.4495995,250.157102 C51.9755545,251.658788 50.574967,252.751731 48.922147,252.751731 C47.269327,252.751731 45.8687395,251.658788 45.3946945,250.157102 C45.2856895,249.815637 45.2299195,249.439898 45.2299195,249.054004 C45.2299195,247.552319 46.123507,246.261351 47.401147,245.687588 L47.401147,248.203515 C47.401147,249.04258 48.085597,249.72678 48.922147,249.72678 C49.7498245,249.72678 50.433007,249.04258 50.433007,248.203515 L50.433007,245.687588 C51.7220545,246.261351 52.6143745,247.552319 52.6143745,249.054004 Z M124.520917,176.908351 L124.520917,176.687478 L121.490325,176.687478 L121.490325,176.908351 L11.371192,176.908351 L11.371192,213.697747 C17.675737,215.255286 24.576007,213.765025 29.7562795,209.228233 L29.7664195,209.228233 C34.7375545,213.587311 41.3057395,215.133425 47.401147,213.864037 L47.401147,242.375756 C42.364102,242.883511 38.0660095,245.897037 35.762962,250.157102 C34.6158745,252.27698 33.965647,254.705319 33.965647,257.275829 C33.965647,261.924327 36.082372,266.08538 39.3994195,268.82218 L58.4347345,268.82218 C61.751782,266.08538 63.868507,261.924327 63.868507,257.275829 C63.868507,254.705319 63.2182795,252.27698 62.071192,250.157102 C59.7681445,245.897037 55.470052,242.883511 50.433007,242.375756 L50.433007,212.980543 C52.681552,212.142747 54.808417,210.89367 56.7033295,209.228233 L56.714737,209.228233 C64.418602,215.982645 75.947782,215.982645 83.651647,209.228233 L83.6630545,209.228233 C84.6440995,210.088878 85.702462,210.850511 86.7937795,211.490282 L86.7937795,254.473021 L83.9495095,256.481192 L78.2508295,260.521653 L78.2508295,282.709282 L98.3660545,282.709282 L98.3660545,260.521653 L89.824372,254.473021 L89.824372,212.937384 C96.734782,215.586596 104.758057,214.348943 110.599965,209.228233 L110.611372,209.228233 C112.186875,210.619482 113.92842,211.711156 115.76883,212.528641 C117.610507,213.344858 119.528235,213.885617 121.490325,214.12807 L121.490325,244.174478 L119.75892,245.399437 L115.51533,248.412964 L115.51533,268.82218 L130.504785,268.82218 L130.504785,248.412964 L124.520917,244.174478 L124.520917,214.29436 C129.182782,214.195347 133.8231,212.505792 137.55969,209.228233 C141.416692,212.606074 146.221785,214.305784 151.028145,214.305784 C152.680965,214.305784 154.335052,214.096335 155.954917,213.697747 L155.954917,176.908351 L124.520917,176.908351 Z"/>
    <path fill="#FC7A51" d="M83.664829,264.419309 C81.753439,264.419309 80.2058215,262.868117 80.2058215,260.955149 C80.2058215,259.039643 81.753439,257.489721 83.664829,257.489721 C85.576219,257.489721 87.1238365,259.039643 87.1238365,260.955149 C87.1238365,262.868117 85.576219,264.419309 83.664829,264.419309 Z M83.664829,253.399753 L79.3008265,256.488174 L73.6097515,260.521019 L73.6097515,290.093945 L93.7199065,290.093945 L93.7199065,260.521019 L83.664829,253.399753 Z"/>
    <path fill="#29B6F6" d="M85.1798718,188.764306 L85.1798718,259.655804 C85.1798718,260.489792 84.4992243,261.171453 83.6652093,261.171453 C82.8273918,261.171453 82.1505468,260.489792 82.1505468,259.655804 L82.1505468,188.764306 L85.1798718,188.764306 Z"/>
    <path fill="#333" d="M82.1502932,185.90628 L85.1796182,185.90628 L85.1796182,201.670806 C84.6599432,201.293798 84.1529432,200.887594 83.6611532,200.457271 L83.6573507,200.453463 C83.1693632,200.883786 82.6661657,201.282373 82.1502932,201.660651 L82.1502932,185.90628 Z"/>
    <path fill="#EEE" d="M79.1090538 273.193444C78.1698363 273.193444 77.4080688 273.957615 77.4080688 274.896962 77.4080688 275.837578 78.1711038 276.60175 79.1090538 276.60175 80.0470038 276.60175 80.8100388 275.837578 80.8100388 274.896962 80.8100388 273.957615 80.0470038 273.193444 79.1090538 273.193444M79.1090538 277.864791C77.4752463 277.864791 76.1469063 276.533203 76.1469063 274.896962 76.1469063 273.261991 77.4752463 271.930403 79.1090538 271.930403 80.7428613 271.930403 82.0712013 273.261991 82.0712013 274.896962 82.0712013 276.533203 80.7428613 277.864791 79.1090538 277.864791M88.21921 281.231207C87.28126 281.231207 86.518225 281.995378 86.518225 282.935995 86.518225 283.875342 87.28126 284.639513 88.21921 284.639513 89.1584275 284.639513 89.9214625 283.875342 89.9214625 282.935995 89.9214625 281.995378 89.1584275 281.231207 88.21921 281.231207M88.21921 285.902554C86.58667 285.902554 85.2570625 284.570966 85.2570625 282.935995 85.2570625 281.299754 86.58667 279.968166 88.21921 279.968166 89.8530175 279.968166 91.1813575 281.299754 91.1813575 282.935995 91.1813575 284.570966 89.8530175 285.902554 88.21921 285.902554"/>
    <polygon fill="#EEE" points="82.826 286.423 81.589 286.178 84.517 271.403 85.754 271.65"/>
    <path fill="#FFD740" d="M47.0743855,250.834067 C45.0362455,250.834067 43.3834255,249.178785 43.3834255,247.13761 C43.3834255,245.095165 45.0362455,243.441153 47.0743855,243.441153 C49.1125255,243.441153 50.7653455,245.095165 50.7653455,247.13761 C50.7653455,249.178785 49.1125255,250.834067 47.0743855,250.834067 M47.0743855,240.387006 C38.8178905,240.387006 32.126758,247.090642 32.126758,255.356896 C32.126758,263.625687 38.819158,270.328055 47.0743855,270.328055 C55.329613,270.328055 62.0232805,263.625687 62.0232805,255.356896 C62.0232805,247.090642 55.3308805,240.387006 47.0743855,240.387006"/>
    <path fill="#FB992D" d="M48.5894282,188.764306 L48.5894282,246.292959 C48.5894282,247.129486 47.9087807,247.811147 47.0747657,247.811147 C46.2369482,247.811147 45.5601032,247.129486 45.5601032,246.292959 L45.5601032,188.764306 L48.5894282,188.764306 Z"/>
    <path fill="#333" d="M45.5599765,191.391685 L48.5893015,191.391685 L48.5893015,210.301754 C47.5930465,210.573403 46.5790465,210.76635 45.5599765,210.884403 L45.5599765,191.391685 Z"/>
    <polygon fill="#FFF" points="47.627 265.413 41.263 257.43 43.56 255.573 47.339 260.354 53.815 249.997 56.307 251.582"/>
    <path fill="#FB992D" d="M120.25578,249.404736 C118.829842,249.404736 117.67515,248.248324 117.67515,246.820263 C117.67515,245.392202 118.829842,244.235789 120.25578,244.235789 C121.681717,244.235789 122.83641,245.392202 122.83641,246.820263 C122.83641,248.247055 121.681717,249.404736 120.25578,249.404736 Z M120.25578,241.184181 L117.00084,243.489389 L112.755982,246.496569 L112.755982,275.795308 L127.755577,275.795308 L127.755577,246.496569 L120.25578,241.184181 Z"/>
    <path fill="#9B5A50" d="M121.770189,174.776161 L121.770189,245.666389 C121.770189,246.501647 121.089541,247.183308 120.255526,247.183308 C119.417709,247.183308 118.740864,246.501647 118.740864,245.666389 L118.740864,174.776161 L121.770189,174.776161 Z"/>
    <path fill="#333" d="M121.770189,187.845016 L121.770189,207.341542 C120.751119,207.223489 119.735851,207.030542 118.740864,206.762701 L118.740864,187.845016 L121.770189,187.845016 Z"/>
    <path fill="#EEE" d="M120.255779,268.210081 L117.212512,268.210081 L117.212512,266.51291 L120.255779,266.51291 C121.466242,266.51291 122.451089,265.526596 122.451089,264.31433 C122.451089,263.102065 121.466242,262.114481 120.255779,262.114481 C118.111169,262.114481 116.365822,260.367804 116.365822,258.22 C116.365822,256.070926 118.111169,254.324249 120.255779,254.324249 L123.297779,254.324249 L123.297779,256.020151 L120.255779,256.020151 C119.044049,256.020151 118.060469,257.006465 118.060469,258.21873 C118.060469,259.430996 119.044049,260.41731 120.255779,260.41731 C122.400389,260.41731 124.145737,262.165257 124.145737,264.31433 C124.145737,266.462134 122.400389,268.210081 120.255779,268.210081"/>
    <polygon fill="#EEE" points="119.407 255.172 121.102 255.172 121.102 251.021 119.407 251.021"/>
    <polygon fill="#EEE" points="119.407 271.512 121.102 271.512 121.102 267.361 119.407 267.361"/>
    <path fill="#FFF" d="M163.425689,193.057122 L159.681494,172.57682 L156.985521,157.843036 C156.128691,153.138685 152.032131,149.722762 147.256191,149.722762 L131.562006,149.722762 L107.612594,149.722762 L83.6631813,149.722762 L59.7137688,149.722762 L35.7656238,149.722762 L20.0663688,149.722762 C15.2942313,149.722762 11.1976713,153.138685 10.3370388,157.843036 L7.64233375,172.57682 L3.90067375,193.054583 C3.12116125,197.314648 5.54969125,201.534093 9.63991375,202.940575 C16.3893513,205.262285 24.0982863,203.940852 29.7576738,198.976277 L29.7602088,198.976277 L29.7652788,198.980085 C37.4767488,205.742113 48.9970563,205.742113 56.7085263,198.980085 L56.7123288,198.976277 C64.4237988,205.742113 75.9479088,205.742113 83.6593788,198.976277 L83.6631813,198.980085 C91.3746513,205.742113 102.894959,205.742113 110.606429,198.980085 L110.610231,198.976277 L110.614034,198.980085 C118.321701,205.745922 129.845811,205.745922 137.557281,198.980085 L137.561084,198.976277 L137.564886,198.980085 C143.224274,203.94466 150.934476,205.266093 157.685181,202.944383 C161.776671,201.537901 164.205201,197.317187 163.425689,193.057122"/>
    <path fill="#BB3664" d="M137.56514 198.980085L137.561337 198.976277 137.557535 198.980085C129.846065 205.745922 118.321955 205.745922 110.614287 198.980085L109.004562 172.57682 107.612847 149.722762 131.560992 149.722762 134.346957 172.57682 137.56514 198.980085zM83.6629278 149.722509L83.6629278 198.979831 83.6591253 198.976023C75.9476553 205.74186 64.4235453 205.74186 56.7120753 198.976023L56.7082728 198.976023 58.3205328 172.576566 59.7135153 149.722509 83.6629278 149.722509zM35.7646098 149.722509L32.9748423 172.576566 29.7566598 198.976023C24.0972723 203.941868 16.3883373 205.262031 9.64016725 202.940321 5.54867725 201.53257 3.12141475 197.315664 3.89965975 193.054329L7.64258725 172.576566 10.3360248 157.842782C11.1979248 153.138431 15.2944848 149.722509 20.0666223 149.722509L35.7646098 149.722509z"/>
    <path fill="#E4EAF8" d="M425.624922,109.081663 C424.798512,107.282941 422.965707,106.163341 420.990942,106.250929 L412.880209,106.607627 L394.903256,114.06528 L388.915586,119.555382 C387.457961,120.893316 386.952229,122.981459 387.637946,124.839843 L394.723271,144.021561 C395.049019,144.905055 395.959084,145.428043 396.884359,145.264292 L403.685764,144.067259 L404.456404,145.368382 C404.974811,146.248067 405.386749,147.186145 405.682076,148.163573 L410.575894,164.410467 C410.743204,164.962651 411.347802,165.250802 411.878884,165.029929 L436.860042,154.667916 C437.391124,154.447043 437.616739,153.814888 437.345494,153.307133 L429.334894,138.351206 C428.853244,137.45121 428.481867,136.496631 428.228367,135.507778 L427.853187,134.042904 L433.508772,130.073529 C434.278144,129.532769 434.551924,128.518529 434.158999,127.662961 L425.624922,109.081663 Z"/>
    <path fill="#D5DCED" d="M424.061587,107.190022 C423.081809,110.280981 423.151522,113.60043 423.308692,115.467699 C423.377137,116.27503 423.51276,117.074744 423.714292,117.859226 L427.852679,134.04265 L433.508264,130.073275 C434.278904,129.532516 434.551417,128.518275 434.159759,127.662707 L425.624415,109.081409 C425.268247,108.307083 424.720687,107.66985 424.061587,107.190022"/>
    <path fill="#C7CFE2" d="M424.429162,116.731502 C423.909487,116.864787 423.595147,117.395391 423.728234,117.91711 L427.852679,134.042142 L429.556199,132.846379 L425.614274,117.433473 C425.479919,116.913024 424.950104,116.598216 424.429162,116.731502"/>
    <path fill="#E4EAF8" d="M434.159506,127.66258 L432.823561,124.755682 L426.625486,129.242968 L427.852426,134.042523 L433.508011,130.073148 C434.278651,129.532389 434.552431,128.518148 434.159506,127.66258"/>
    <polygon fill="#D5DCED" points="428.321 128.016 426.625 129.242 427.853 134.043 429.557 132.847"/>
    <path fill="#D5DCED" d="M387.408022,122.394748 C390.285247,123.885009 392.576887,126.282883 393.784814,127.716022 C394.307024,128.334213 394.774732,128.995564 395.187937,129.692458 L403.686524,144.068275 L396.885119,145.265307 C395.958577,145.429058 395.048512,144.904801 394.722764,144.022577 L387.638707,124.839589 C387.343379,124.039875 387.281272,123.200809 387.408022,122.394748"/>
    <path fill="#C7CFE2" d="M393.885327,129.402403 C394.346697,129.128216 394.94369,129.280542 395.21747,129.743869 L403.685637,144.06764 L401.637357,144.428146 L393.543102,130.73653 C393.27059,130.274473 393.42269,129.676591 393.885327,129.402403"/>
    <path fill="#E4EAF8" d="M394.723398,144.022069 L393.615603,141.021236 L401.166101,139.803893 L403.685891,144.067767 L396.884486,145.2648 C395.959211,145.428551 395.049146,144.904293 394.723398,144.022069"/>
    <polygon fill="#D5DCED" points="399.101 140.137 401.166 139.804 403.686 144.068 401.638 144.428"/>
    <path fill="#D5DCED" d="M409.965593,104.652389 L395.58327,110.618511 L394.902623,114.064899 L401.487285,118.766711 C401.960063,119.105638 402.622965,118.95458 402.903083,118.443017 L404.290995,115.918205 C404.488725,115.560238 405.012203,115.589433 405.168105,115.966442 L423.470805,160.221107 L425.269388,159.475976 L406.96542,115.221311 C406.809518,114.843033 407.15808,114.453331 407.551005,114.566307 L410.314155,115.36856 C410.87439,115.531042 411.449835,115.169266 411.544898,114.594233 L412.880843,106.607246 L409.965593,104.652389 Z"/>
    <path fill="#C7CFE2" d="M411.955948 119.647666C412.452808 119.440756 413.020648 119.676862 413.22725 120.174462 413.432585 120.672062 413.19683 121.242017 412.69997 121.447658 412.20311 121.654568 411.634003 121.418462 411.428668 120.920862 411.223333 120.423262 411.45782 119.853307 411.955948 119.647666M417.168288 132.250402C417.665148 132.044761 418.234256 132.280867 418.439591 132.778467 418.644926 133.274798 418.409171 133.844753 417.912311 134.050393 417.415451 134.257304 416.847611 134.021198 416.641008 133.523598 416.435673 133.025998 416.671428 132.457312 417.168288 132.250402M414.561421 125.94878C415.058281 125.743139 415.627389 125.979245 415.832724 126.476845 416.038059 126.973176 415.802304 127.543131 415.306711 127.748772 414.809851 127.955682 414.240744 127.719576 414.035409 127.221976 413.830074 126.724376 414.064561 126.15569 414.561421 125.94878M419.773888 138.55215C420.272015 138.346509 420.839855 138.582616 421.046458 139.080216 421.251793 139.576546 421.01477 140.146501 420.519178 140.352142 420.022318 140.559052 419.45321 140.322946 419.247875 139.825346 419.04254 139.327746 419.277028 138.75906 419.773888 138.55215M424.987369 151.15552C425.484229 150.94988 426.053337 151.185986 426.258672 151.683586 426.464007 152.179916 426.228252 152.749871 425.731392 152.955512 425.234532 153.162422 424.665424 152.926316 424.460089 152.428716 424.254754 151.931116 424.490509 151.361161 424.987369 151.15552M422.380629 144.853899C422.877489 144.648258 423.446596 144.884364 423.651931 145.381964 423.857266 145.878295 423.621511 146.44825 423.125919 146.653891 422.629059 146.860801 422.059951 146.624695 421.854616 146.127095 421.649281 145.629495 421.883769 145.05954 422.380629 144.853899M404.978487 113.800358L395.583777 110.619273 409.9661 104.651881 405.57041 113.555367C405.462672 113.773701 405.209172 113.87906 404.978487 113.800358"/>
  </g>
</svg>
