
<svg width="39px" height="62px" viewBox="0 0 39 62" version="1.1" xmlns="http://www.w3.org/2000/svg" xmlns:xlink="http://www.w3.org/1999/xlink">
    <!-- Generator: Sketch 47.1 (45422) - http://www.bohemiancoding.com/sketch -->
    <desc>Created with Sketch.</desc>
    <defs>
        <linearGradient x1="0%" y1="50%" x2="100%" y2="50%" id="linearGradient-1">
            <stop stop-color="#C33764" offset="0%"></stop>
            <stop stop-color="#1D2671" offset="100%"></stop>
        </linearGradient>
    </defs>
    <g id="Page-1" stroke="none" stroke-width="1" fill="none" fill-rule="evenodd">
        <g id="6.0-Brand-Insights_CopyNotReady" transform="translate(-244.000000, -1585.000000)" stroke-width="0.5">
            <g id="Group-14" transform="translate(245.000000, 1586.000000)">
                <path d="M34.5045,50.56725 L34.5045,49.44225 L35.80275,49.44225 L35.80275,14.76375 L1.125,14.76375 L1.125,49.44225 L3.441,49.44225 L3.441,50.56725 L0.5625,50.56725 C0.3555,50.56725 0.168,50.56725 0,50.56725 L0,13.63875 C0.168,13.63875 0.3555,13.63875 0.5625,13.63875 L36.36525,13.63875 L36.92775,13.63875 L36.92775,50.56725 C36.75975,50.56725 36.57225,50.56725 36.36525,50.56725 L34.5045,50.56725 Z" id="Fill-246" stroke="#000000" fill="#000000"></path>
                <path d="M26.4255,11.6445 L26.4255,9.087 C26.4255,4.6965 22.854,1.125 18.4635,1.125 C14.07375,1.125 10.5015,4.6965 10.5015,9.087 L10.5015,11.6445 L9.3765,11.6445 L9.3765,9.087 C9.3765,4.07625 13.4535,0 18.4635,0 C23.47425,0 27.5505,4.07625 27.5505,9.087 L27.5505,11.6445 L26.4255,11.6445 Z" id="Fill-248" stroke="#000000" fill="#000000"></path>
                <path d="M13.91625,31.89225 L13.92375,31.89225 L13.91625,31.89225 Z M22.7150054,32.1607879 L27.918,36.576 C27.993,36.63975 28.04925,36.7215 28.083,36.813 L34.5891484,54.9852714 L22.8645,59.53125 L22.47975,58.47375 L33.1164012,54.1362782 L27.07575,37.33725 L23.7632553,34.5259042 L25.5165,40.88475 C25.542,40.97925 25.54275,41.07825 25.51875,41.1735 L20.6216121,60.2072382 L3.65642125,55.6469854 L8.46825,36.81675 C8.49225,36.72225 8.541,36.63525 8.60925,36.56475 L13.512,31.5015 C15.01275,29.95275 17.2425,29.32275 19.32825,29.856 C20.7100404,30.2087659 21.9011317,31.0381156 22.7150054,32.1607879 Z M23.31225,54.687 L29.25375,52.63125 L25.93875,43.494 L26.99625,43.11 L30.6664512,53.1922077 L23.6805,55.74975 L23.31225,54.687 Z" id="Combined-Shape" stroke="url(#linearGradient-1)" fill="url(#linearGradient-1)"></path>
                <path d="M9.52125,37.23975 L4.94950185,54.8099594 L19.7351868,58.992889 L24.39225,41.04 L22.5585,34.389 C22.09275,32.69925 20.748,31.38 19.05,30.94575 C17.352,30.51225 15.53925,31.0245 14.3205,32.28375 L9.52125,37.23975 Z" id="Fill-251" stroke="url(#linearGradient-1)" fill="#FFFFFF"></path>
                <polygon id="Fill-252" stroke="url(#linearGradient-1)" fill="url(#linearGradient-1)" points="14.775 55.3575 7.53782777 53.3084982 8.71425 48.651 9.804 48.92925 8.8455 52.68225 15.05325 54.26775"></polygon>
                <path d="M18.53625,51.1605 L20.907,41.88375 L12.17475,39.6525 L11.84325,40.94925 L10.7535,40.67025 L11.22375,38.829 C11.301,38.5275 11.60775,38.34525 11.90775,38.42325 L21.72975,40.93275 C22.03125,41.01 22.21275,41.316 22.1355,41.61675 L19.626,51.43875 L18.53625,51.1605 Z" id="Fill-253" stroke="url(#linearGradient-1)" fill="url(#linearGradient-1)"></path>
                <path d="M19.176,33.576 C19.13025,33.576 19.083,33.57 19.0365,33.558 L17.80875,33.2445 C17.508,33.168 17.3265,32.86125 17.403,32.5605 C17.4795,32.25975 17.78775,32.076 18.08775,32.15475 L19.31475,32.46825 C19.61625,32.54475 19.79775,32.8515 19.7205,33.15225 C19.656,33.4065 19.42725,33.576 19.176,33.576" id="Fill-254" stroke="url(#linearGradient-1)" fill="url(#linearGradient-1)"></path>
            </g>
        </g>
    </g>
</svg>