<svg xmlns="http://www.w3.org/2000/svg" width="248" height="254" viewBox="0 0 248 254">
  <defs>
    <linearGradient id="bi-resonance-adv-a" x1="0%" y1="50%" y2="50%">
      <stop offset="0%" stop-color="#C33764"/>
      <stop offset="100%" stop-color="#1D2671"/>
    </linearGradient>
  </defs>
  <g fill="none" fill-rule="evenodd" transform="translate(0 .138)">
    <polygon fill="url(#bi-resonance-adv-a)" points="129 232.838 110.495 249 40 207.083 49.394 191"/>
    <polygon fill="#231F20" points="50.956 190.778 49.465 190 40 206.085 111.021 248 115 244.549 43.979 202.634"/>
    <path fill="#231F20" d="M40 207.163724L61.5814737 220C68.3250108 216.5994 74.3867492 212.269566 79.0378697 208.980672 79.6893009 208.51309 80.3436709 208.05045 81 207.593741L49.4384049 191 40 207.163724zM17.1519992 209.311727C22.1882204 214.977943 23.5151052 221.894314 20.1166957 224.760219 16.7192763 227.626123 9.88185843 225.354428 4.84662747 219.687249-.188603494 214.021998-1.51449814 207.104662 1.88292122 204.238757 5.28232101 201.374782 12.1187487 203.645512 17.1519992 209.311727"/>
    <polygon fill="url(#bi-resonance-adv-a)" points="33 213.565 18.707 226 1 205.437 15.292 193"/>
    <polygon fill="#231F20" points="19.283 226 34 213.757 29.717 209 15 221.245"/>
    <path fill="#630042" d="M131.146223,110.295691 C139.819924,120.314027 138.729072,135.47383 128.707789,144.145568 C118.685524,152.821241 103.528678,151.727437 94.8549773,141.709101 C86.1783253,131.685847 87.2721284,116.529978 97.2934107,107.854306 C107.314693,99.1786335 122.472522,100.271454 131.146223,110.295691"/>
    <path fill="#231F20" d="M123.845856,137.494074 C114.886426,145.249663 101.787901,145.123928 93,137.732873 C93.6559008,138.791383 94.4004896,139.811881 95.241563,140.783645 C103.836495,150.711812 118.853992,151.795665 128.783142,143.198921 C138.713266,134.6051 139.794089,119.583216 131.200131,109.656024 C130.361007,108.683285 129.455611,107.800218 128.503434,107 C134.557603,116.757597 132.803336,129.73946 123.845856,137.494074"/>
    <path fill="#E6E7E8" d="M17.0448967,210.050415 C16.8661212,209.847358 17.2960763,210.342924 17.0448967,210.050415"/>
    <path fill="#E5E5E5" d="M72.0451665,65 C69.1186501,72.4434327 69.2707275,81.3063834 67.2147571,88.7888943 C61.099488,111.745422 47.6357575,132.755851 30.547514,150.897936 C19.1231813,163.172419 -2.93877542,186.421057 17.0945069,208.98094 C36.6081911,231.993153 62.6426844,213.322535 76.3589025,203.688765 C96.6563706,189.246415 119.288618,178.799818 142.823581,175.914865 C150.501544,174.914461 159.237225,176.292947 167,174.423052 L72.0451665,65 Z"/>
    <path fill="url(#bi-resonance-adv-a)" d="M133.641662,160.770803 C110.029589,163.658378 87.3241677,174.118992 66.9601971,188.580346 C53.5472249,197.980618 28.3937454,215.971231 9,195.53909 C9.9584886,200.304764 12.3185223,205.151626 16.6033576,209.967187 C36.1819544,233.008122 62.3017469,214.314201 76.0619266,204.668407 C96.4258973,190.208031 119.132297,179.748395 142.74437,176.859842 C150.448467,175.858189 159.212769,177.238396 167,175.366167 L153.63593,160 C147.009644,160.728741 139.968665,159.948157 133.641662,160.770803"/>
    <path fill="#231F20" d="M167,174.92921 L71.6384879,65 C70.2609916,68.500924 69.5658798,72.3159202 69,76.1534904 L155.616809,176 C159.48496,175.971537 163.350173,175.808612 167,174.92921"/>
    <path fill="#630042" d="M130.516444,231.389321 C131.232391,232.224459 131.143629,233.48601 130.314535,234.206194 L109.320887,252.512428 C108.491793,253.234577 107.239372,253.144186 106.521474,252.31003 L102.483296,247.609674 C101.766373,246.775518 101.858062,245.51495 102.685205,244.792801 L123.680804,226.48755 C124.507947,225.764418 125.761343,225.856775 126.477291,226.690931 L130.516444,231.389321 Z"/>
    <path fill="#231F20" d="M109.472654,249.27281 C108.643559,250.000519 107.392114,249.908567 106.674216,249.069131 L102.852578,244.592139 L102.684808,244.740449 C101.857665,245.467169 101.766952,246.736705 102.4829,247.575152 L106.522053,252.30526 C107.238976,253.144696 108.491396,253.236648 109.320491,252.50894 L130.314138,234.087819 C131.143233,233.362088 131.23297,232.092552 130.516047,231.252127 L130.299507,231 L109.472654,249.27281 Z"/>
    <path fill="#443E3F" d="M28.311242 153C27.5719195 153.797345 26.7972509 154.634162 26 155.509464L71.2056946 208C72.1786942 207.329954 73.1114384 206.677671 74 206.052032L28.311242 153zM33.3045089 148C32.5677332 148.797331 31.7966203 149.632022 31 150.506039L77.2029992 204C78.1771914 203.333427 79.110179 202.682584 80 202.062219L33.3045089 148z"/>
    <path fill="#630042" d="M173.514104,174.783972 C174.23414,175.618799 174.14389,176.876436 173.310061,177.597468 L168.786783,181.513604 C167.953934,182.234635 166.695343,182.143403 165.972364,181.310537 L65.4871156,65.216541 C64.7651176,64.3826945 64.8563483,63.1230957 65.6901775,62.4020638 L70.2124747,58.4869092 C71.0472849,57.7658772 72.3058765,57.8561288 73.0268935,58.6880133 L173.514104,174.783972 Z"/>
    <path fill="url(#bi-resonance-adv-a)" d="M130,64 C130,64 185.532172,63.6939758 182.909975,121 C182.909975,121 179.344889,78.3565125 130,64"/>
    <path fill="url(#bi-resonance-adv-a)" d="M123,38.3317327 C123,38.3317327 205.813364,35.9341394 205.813364,129 C205.813364,129 223.419285,31.6192526 123,38.3317327"/>
    <path fill="url(#bi-resonance-adv-a)" d="M130,0.466589669 C130,0.466589669 246.332788,-2.90536802 246.332788,128 C246.332788,128 271.066691,-8.97489185 130,0.466589669"/>
  </g>
</svg>
