<svg xmlns="http://www.w3.org/2000/svg" width="271" height="276" viewBox="0 0 271 276">
  <defs>
    <linearGradient id="bi-resonance-ans-a" x1="0%" y1="50%" y2="50%">
      <stop offset="0%" stop-color="#C33764"/>
      <stop offset="100%" stop-color="#1D2671"/>
    </linearGradient>
  </defs>
  <g fill="none" fill-rule="evenodd" transform="translate(0 -25)">
    <text fill="#E3E4E6" font-family="LucidaGrande, Lucida Grande" font-size="106.625">
      <tspan x="67" y="103">@</tspan>
    </text>
    <path fill="#DEDFE0" d="M159.363322,71.347982 C195.374576,67.7369238 227.316627,92.6405151 230.707492,126.969242 C232.046859,140.529608 228.725229,153.534236 222.002842,164.528566 C221.693758,165.036955 221.35088,165.526238 221.026959,166.024659 L228.728526,203 L206.411785,181.866962 C196.772463,189.343272 184.856629,194.344924 171.635221,195.670723 C135.621495,199.280951 103.681092,174.379852 100.2927,140.046971 C96.9026586,105.718244 123.350419,74.9598708 159.363322,71.347982"/>
    <path fill="#9F0023" d="M252.000834,160.007469 C250.331979,160.007469 248.980723,158.660581 248.980723,157.00083 C248.980723,155.339419 250.331979,153.994191 252.000834,153.994191 C253.668021,153.994191 255.020944,155.339419 255.020944,157.00083 C255.020944,158.660581 253.668021,160.007469 252.000834,160.007469 Z M259.843284,158.60249 L260,157.119502 L258.140252,156.924481 C258.135251,156.635685 258.111076,156.351037 258.066896,156.072199 L259.863291,155.560166 L259.451495,154.126971 L257.655101,154.639004 C257.542565,154.375104 257.410858,154.120332 257.264145,153.877178 L258.736272,152.73195 L257.815151,151.556846 L256.341357,152.702905 C256.139627,152.501245 255.922893,152.313693 255.693654,152.141079 L256.628113,150.53029 L255.331875,149.785062 L254.397416,151.395851 C254.004793,151.229046 253.589663,151.103734 253.160363,151.021577 L253.44045,149.229876 L251.959987,149 L251.660727,150.918672 C251.227259,150.941909 250.80546,151.009959 250.402001,151.117842 L249.701782,149.392531 L248.313014,149.951867 L249.013233,151.676349 C248.762322,151.815768 248.521413,151.970954 248.293842,152.142739 L246.994269,150.804149 L245.916432,151.839834 L247.216005,153.178423 C247.036782,153.39917 246.870897,153.633195 246.722517,153.878838 L245.016151,153.121992 L244.40596,154.483817 L246.113994,155.240664 C246.030635,155.511203 245.965614,155.789212 245.919767,156.073859 L244.052516,156.009129 L244,157.498755 L245.869751,157.564315 C245.893925,157.851452 245.939773,158.13361 246.003126,158.407469 L244.24591,159.044813 L244.75857,160.445643 L246.515786,159.809959 C246.645827,160.0639 246.794207,160.308714 246.958425,160.542739 L245.56799,161.787552 L246.570803,162.895436 L247.961238,161.649793 C248.176305,161.835685 248.406377,162.008299 248.645618,162.165145 L247.826196,163.837344 L249.17245,164.490456 L249.991872,162.818257 C250.26029,162.910373 250.537043,162.985062 250.820465,163.039834 L250.690424,164.896266 L252.185058,165 L252.315098,163.143568 C252.605189,163.129461 252.889445,163.093776 253.167865,163.039834 L253.744712,164.809129 L255.169324,164.347718 L254.59081,162.579253 C254.853392,162.458091 255.102636,162.318672 255.341878,162.163485 L256.544754,163.589212 L257.690945,162.631535 L256.489736,161.204979 C256.684797,160.995851 256.865687,160.774274 257.029905,160.541079 L258.681255,161.414938 L259.383974,160.097925 L257.733458,159.224896 C257.83599,158.960166 257.91935,158.687967 257.98437,158.407469 L259.843284,158.60249 Z"/>
    <path fill="#E6E7E8" d="M37.5024699,177.28608 C29.6835207,177.28608 23.3457012,170.887889 23.3457012,163.004568 C23.3457012,155.112111 29.6835207,148.721396 37.5024699,148.721396 C45.3173026,148.721396 51.6584153,155.112111 51.6584153,163.004568 C51.6584153,170.887889 45.3173026,177.28608 37.5024699,177.28608 Z M74.2664332,170.610466 L75,163.56523 L66.2811759,162.642422 C66.2581233,161.266932 66.1436836,159.91636 65.9378568,158.592367 L74.3594669,156.158679 L72.4246948,149.35266 L64.0063779,151.786347 C63.4802845,150.530465 62.8669206,149.321927 62.1753425,148.167379 L69.0779507,142.728543 L64.7547642,137.146013 L57.8513327,142.589001 C56.9012361,141.631307 55.8869215,140.740893 54.8108589,139.921912 L59.1916769,132.26867 L53.1173158,128.726948 L48.7373211,136.379359 C46.896406,135.586957 44.9501076,134.990579 42.936298,134.601854 L44.2486498,126.089761 L37.3114626,125 L35.9077237,134.111794 C33.877448,134.224757 31.9039804,134.547033 30.0070804,135.05952 L26.7262009,126.863059 L20.2171336,129.51935 L23.4988364,137.711658 C22.3231536,138.373654 21.1927527,139.112897 20.1257465,139.929387 L14.0349192,133.569405 L8.98722227,138.489109 L15.073933,144.849091 C14.2333363,145.89566 13.4553109,147.008678 12.7604395,148.175685 L4.76283262,144.579143 L1.90595635,151.046274 L9.9060332,154.642816 C9.51743216,155.9286 9.21198516,157.24844 8.99957188,158.599843 L0.24534557,158.291686 L0,165.367654 L8.76163608,165.679964 C8.87936902,167.046317 9.08931237,168.385261 9.38817292,169.686827 L1.1534535,172.711909 L3.55751076,179.368419 L11.7914069,176.34666 C12.4014776,177.556028 13.0963489,178.718052 13.8669645,179.826916 L7.34966409,185.739199 L12.051572,191.006929 L18.5680491,185.085509 C19.5757772,185.97094 20.6510165,186.790752 21.7764776,187.533317 L17.9349258,195.479765 L24.2463994,198.582924 L28.0854813,190.636477 C29.3443181,191.07587 30.641027,191.42971 31.9731382,191.691352 L31.3622442,200.506618 L38.3644726,201 L38.9753666,192.183904 C40.3338237,192.114963 41.6692281,191.945519 42.9741701,191.691352 L45.6795578,200.094635 L52.3532866,197.905147 L49.6478989,189.501033 C50.8729802,188.927081 52.0445464,188.265085 53.1667142,187.525842 L58.8022526,194.301129 L64.1784491,189.751046 L58.5429108,182.975759 C59.4576052,181.98318 60.3047884,180.927475 61.0762273,179.81861 L68.8144924,183.972492 L72.1110148,177.717166 L64.3768662,173.566607 C64.8543844,172.312386 65.2462787,171.019126 65.5476091,169.686827 L74.2664332,170.610466 Z"/>
    <path fill="#E3E4E6" d="M109.500817,270.574959 C106.685593,270.574959 104.403995,268.302516 104.403995,265.502034 C104.403995,262.697484 106.685593,260.426669 109.500817,260.426669 C112.31359,260.426669 114.596822,262.697484 114.596822,265.502034 C114.596822,268.302516 112.31359,270.574959 109.500817,270.574959 Z M122.73523,268.203254 L123,265.701371 L119.861168,265.372668 C119.852179,264.884496 119.81132,264.40446 119.736955,263.934187 L122.768735,263.069308 L122.073305,260.651228 L119.042343,261.515293 C118.851937,261.069429 118.632113,260.640651 118.382869,260.229772 L120.867131,258.298237 L119.311199,256.315444 L116.82612,258.248606 C116.483717,257.908513 116.119249,257.592014 115.731901,257.300738 L117.30908,254.582432 L115.121459,253.323761 L113.545097,256.042881 C112.883172,255.760554 112.182022,255.549013 111.457173,255.409884 L111.92951,252.387283 L109.432173,252 L108.926332,255.236583 C108.194946,255.27645 107.484806,255.391984 106.802452,255.573422 L105.620793,252.66066 L103.277906,253.606087 L104.459564,256.516408 C104.036259,256.750731 103.628481,257.01353 103.245218,257.303993 L101.051877,255.043755 L99.2344431,256.792225 L101.42615,259.05165 C101.123789,259.422661 100.843493,259.818894 100.593432,260.233027 L97.7136501,258.955643 L96.6856235,261.253307 L99.5654056,262.530692 C99.4256659,262.987946 99.3161622,263.457405 99.2393462,263.936628 L96.0874395,263.826789 L96,266.341691 L99.1535412,266.452343 C99.1968523,266.937261 99.2712167,267.413229 99.379086,267.876179 L96.414316,268.950158 L97.2805387,271.315353 L100.244492,270.242188 C100.463499,270.670966 100.714377,271.083471 100.991404,271.478077 L98.6460654,273.578846 L100.338469,275.450173 L102.683808,273.34615 C103.04664,273.661022 103.433989,273.952298 103.839316,274.216724 L102.456628,277.038361 L104.72842,278.14163 L106.111108,275.318367 C106.563832,275.474582 107.030448,275.600693 107.509322,275.693446 L107.290315,278.825885 L109.810533,279 L110.030357,275.868374 C110.519855,275.843966 111.00118,275.783758 111.470248,275.693446 L112.44434,278.67862 L114.846883,277.900799 L113.872791,274.915625 C114.314891,274.711406 114.735745,274.476269 115.139437,274.21347 L117.168523,276.620973 L119.103632,275.003496 L117.075363,272.596806 C117.404691,272.244508 117.709504,271.869429 117.987349,271.474823 L120.773154,272.951544 L121.959715,270.728733 L119.175545,269.253639 C119.347155,268.808588 119.488529,268.349706 119.596398,267.876179 L122.73523,268.203254 Z"/>
    <path fill="url(#bi-resonance-ans-a)" d="M152.000823,77.1429773 C148.039986,77.1429773 144.827362,73.9437364 144.827362,70.0020487 C144.827362,66.0562636 148.039986,62.8611201 152.000823,62.8611201 C155.960837,62.8611201 159.174284,66.0562636 159.174284,70.0020487 C159.174284,73.9437364 155.960837,77.1429773 152.000823,77.1429773 Z M170.628774,73.8052447 L171,70.2823101 L166.582333,69.8209441 C166.57081,69.1334023 166.513192,68.4581527 166.408656,67.7960148 L170.674869,66.5790904 L169.694537,63.176619 L165.430793,64.3927239 C165.162457,63.765004 164.852142,63.1610489 164.502318,62.5833172 L167.99974,59.8642902 L165.808604,57.0723297 L162.312005,59.7946346 C161.829658,59.3152401 161.31521,58.8702637 160.770307,58.4605249 L162.991076,54.6343836 L159.911797,52.8634923 L157.693497,56.6896336 C156.760906,56.2930064 155.775636,55.9947165 154.754971,55.8005003 L155.418403,51.5449527 L151.904518,51 L151.194169,55.5554765 C150.165273,55.6120204 149.165187,55.7734575 148.203786,56.0291346 L146.541091,51.9309267 L143.243686,53.2593 L144.906381,57.355869 C144.309622,57.6861185 143.737556,58.0565224 143.197591,58.4646223 L140.110904,55.2842294 L137.552658,57.7443014 L140.637699,60.9238748 C140.212147,61.4475211 139.816228,62.0039464 139.464758,62.5874145 L135.413378,60.7894805 L133.964693,64.0231395 L138.019365,65.8210735 C137.820994,66.4643635 137.667071,67.124043 137.559243,67.8001121 L133.123467,67.6460503 L133,71.1837355 L137.439068,71.3394363 C137.498332,72.0228807 137.604514,72.692394 137.755144,73.3430592 L133.58359,74.8558151 L134.801802,78.1845334 L138.97418,76.6734166 C139.282849,77.2781911 139.635143,77.8592008 140.0253,78.4131677 L136.722956,81.3698432 L139.105879,84.0036445 L142.408223,81.0428716 C142.917732,81.4853896 143.462635,81.8959479 144.033055,82.2663518 L142.086384,86.2399991 L145.284192,87.7912704 L147.229216,83.8184426 C147.867955,84.0380626 148.524802,84.2150698 149.200581,84.3461862 L148.890266,88.7533372 L152.437898,89 L152.748213,84.5920295 C153.436338,84.5576114 154.111294,84.4732052 154.773903,84.3461862 L156.143569,88.5476483 L159.526578,87.4528261 L158.155266,83.2505445 C158.775073,82.9637273 159.36854,82.6326583 159.938136,82.2630739 L162.792705,85.6507947 L165.518044,83.3751051 L162.661006,79.9873844 C163.126067,79.4916004 163.554911,78.9638567 163.945891,78.4090703 L167.866395,80.4864463 L169.537322,77.3584999 L165.617641,75.2827629 C165.86046,74.6558625 166.058008,74.0092946 166.211108,73.3430592 L170.628774,73.8052447 Z"/>
    <path fill="#DEDFE0" d="M90.5016513,174.703066 C87.0602982,174.703066 84.2720426,171.924776 84.2720426,168.502055 C84.2720426,165.075224 87.0602982,162.300222 90.5016513,162.300222 C93.9397018,162.300222 96.7296087,165.075224 96.7296087,168.502055 C96.7296087,171.924776 93.9397018,174.703066 90.5016513,174.703066 Z M106.677992,171.804767 L107,168.745361 L103.163981,168.345057 C103.154073,167.7483 103.104534,167.161407 103.013711,166.586021 L106.71845,165.529778 L105.866368,162.574763 L102.164106,163.631006 C101.932096,163.086034 101.661279,162.561611 101.357436,162.060204 L104.394215,159.697835 L102.492719,157.273819 L99.4551141,159.637831 C99.0373299,159.221909 98.5906475,158.835579 98.1183697,158.479662 L100.045461,155.1564 L97.3711469,153.618477 L95.4440552,156.941739 C94.6349079,156.59733 93.778698,156.338406 92.8919386,156.169901 L93.4707266,152.474282 L90.4174339,152 L89.7998399,155.957008 C88.9064752,156.005505 88.0378803,156.146063 87.2039632,156.367998 L85.7590572,152.80965 L82.8948409,153.962886 L84.3397468,157.520412 C83.8220576,157.807283 83.32501,158.128677 82.8543835,158.48295 L80.1751151,155.7211 L77.9540883,157.857424 L80.632531,160.619274 C80.2626351,161.073007 79.919986,161.55633 79.6144916,162.063492 L76.0947008,160.501731 L74.8372198,163.309612 L78.3586619,164.871373 C78.1877502,165.429497 78.0523419,166.003238 77.9590422,166.589309 L74.1081615,166.456149 L74,169.528707 L77.855009,169.663512 C77.9070256,170.256981 77.9986739,170.838942 78.129954,171.403642 L74.5061299,172.717164 L75.5646267,175.607243 L79.1876251,174.295365 C79.4567904,174.820609 79.7614592,175.324483 80.1016313,175.806162 L77.2332866,178.374025 L79.3023919,180.660772 L82.1690853,178.089621 C82.612465,178.474307 83.0872198,178.830224 83.5817904,179.153262 L81.8908377,182.603109 L84.6691853,183.950333 L86.3568355,180.499664 C86.9108537,180.690363 87.4822108,180.844895 88.0684297,180.958328 L87.7992644,184.785463 L90.8806295,185 L91.1497948,181.172043 C91.7467474,181.14163 92.3354434,181.068473 92.9092774,180.958328 L94.0990542,184.607094 L97.0359287,183.656064 L95.8461519,180.007298 C96.3844826,179.757416 96.9005204,179.470546 97.3942654,179.149152 L99.8728983,182.091016 L102.240067,180.114977 L99.7597828,177.173114 C100.161054,176.742397 100.535078,176.284554 100.874425,175.802874 L104.279449,177.607119 L105.729308,174.890477 L102.326761,173.088699 C102.536479,172.543727 102.709042,171.981493 102.841148,171.403642 L106.677992,171.804767 Z"/>
    <path fill="#DADBDC" d="M126.500844,198.447792 C124.311902,198.447792 122.53729,196.680149 122.53729,194.50168 C122.53729,192.320691 124.311902,190.554729 126.500844,190.554729 C128.689785,190.554729 130.464398,192.320691 130.464398,194.50168 C130.464398,196.680149 128.689785,198.447792 126.500844,198.447792 Z M136.794945,196.603697 L137,194.656265 L134.559592,194.401704 C134.552841,194.021964 134.522462,193.648944 134.464237,193.282645 L136.821104,192.609698 L136.280198,190.728637 L133.92333,191.401584 C133.775657,191.055449 133.603512,190.721075 133.410271,190.401824 L135.343526,188.898824 L134.132605,187.356337 L132.199349,188.860178 C131.932693,188.595535 131.64916,188.350216 131.34875,188.12338 L132.574018,186.008761 L130.873664,185.030005 L129.646709,187.144623 C129.131118,186.926188 128.58768,186.760682 128.022302,186.653145 L128.390219,184.301608 L126.448525,184 L126.055292,186.518723 C125.486539,186.548968 124.934662,186.638022 124.404726,186.780005 L123.484087,184.515002 L121.66222,185.24928 L122.580326,187.512602 C122.251226,187.695751 121.934783,187.899904 121.635217,188.1259 L119.931488,186.368339 L118.516355,187.727676 L120.222615,189.485238 C119.985494,189.773404 119.767781,190.081733 119.573696,190.403505 L117.334124,189.410466 L116.534156,191.197432 L118.775416,192.191311 C118.664872,192.546687 118.579643,192.911306 118.521418,193.284325 L116.070039,193.199472 L116,195.155305 L118.454754,195.240999 C118.487664,195.618219 118.545045,195.988718 118.628586,196.347456 L116.323194,197.184229 L116.997428,199.023284 L119.301977,198.18819 C119.473278,198.522564 119.668207,198.843495 119.884232,199.150144 L118.058145,200.784205 L119.376236,202.239318 L121.200635,200.602736 C121.48248,200.847216 121.783734,201.074052 122.097645,201.279885 L121.022583,203.475156 L122.789601,204.332093 L123.865507,202.136822 C124.218235,202.258641 124.58109,202.356097 124.954071,202.428349 L124.781082,204.863898 L126.742184,205 L126.913485,202.56445 C127.294905,202.545127 127.669573,202.49892 128.034116,202.428349 L128.791047,204.75048 L130.66017,204.145583 L129.902395,201.823452 C130.244997,201.664666 130.573254,201.482357 130.888009,201.277364 L132.466849,203.149184 L133.972274,201.892343 L132.39259,200.019683 C132.649964,199.745799 132.885397,199.454273 133.102266,199.147624 L135.270112,200.295247 L136.191594,198.567091 L134.02628,197.420307 C134.161296,197.074172 134.270152,196.716275 134.354537,196.347456 L136.794945,196.603697 Z"/>
    <path fill="url(#bi-resonance-ans-a)" d="M162.815568,181.874592 C161.205905,182.325004 159.539256,181.380217 159.090796,179.765203 C158.642337,178.14853 159.581376,176.475452 161.191039,176.023381 C162.798224,175.573799 164.467351,176.517756 164.915811,178.13277 C165.36427,179.748613 164.423579,181.42418 162.815568,181.874592 Z M170,178.388252 L169.749755,176.902639 L167.903061,177.217015 C167.819646,176.936648 167.720539,176.666235 167.60161,176.407434 L169.195581,175.422832 L168.410984,174.140443 L166.817839,175.124216 C166.638621,174.897766 166.44371,174.685417 166.235586,174.487998 L167.344758,172.976671 L166.13813,172.082482 L165.028958,173.595469 C164.778713,173.453626 164.519383,173.330033 164.250968,173.224688 L164.717597,171.403961 L163.265679,171.029032 L162.79905,172.848929 C162.37702,172.792524 161.940949,172.78257 161.505704,172.819068 L161.290972,171 L159.802715,171.176681 L160.031487,173.12349 C159.620193,173.264503 159.23285,173.443673 158.871935,173.657681 L157.731379,172.168749 L156.542095,173.087822 L157.684303,174.576754 C157.47783,174.779978 157.289527,174.996475 157.115264,175.224584 L155.500645,174.273161 L154.742477,175.57214 L156.355443,176.523563 C156.242296,176.78651 156.147318,177.059412 156.069685,177.33812 L154.219687,177.06273 L154,178.551662 L155.849997,178.827881 C155.844216,179.113225 155.854953,179.401058 155.888814,179.68972 L154.069375,180.131007 L154.422857,181.595054 L156.242296,181.153766 C156.343881,181.426668 156.463635,181.688786 156.599081,181.938462 L155.077789,183.032557 L155.94993,184.256882 L157.472875,183.164446 C157.666959,183.375966 157.876736,183.574213 158.097249,183.75753 L157.09379,185.343512 L158.359882,186.151433 L159.363341,184.562963 C159.621845,184.686557 159.889434,184.791902 160.16363,184.879828 L159.825014,186.728757 L161.299231,187 L161.637846,185.151071 C161.921953,185.16849 162.207712,185.166831 162.4976,185.142776 L162.87338,186.98424 L164.341816,186.680647 L163.966035,184.840842 C164.241883,184.748769 164.506168,184.636788 164.760543,184.509047 L165.794559,186.074291 L167.043308,185.241485 L166.007639,183.67624 C166.228978,183.487946 166.432148,183.284722 166.620451,183.069055 L168.164869,184.131629 L169.013059,182.889885 L167.467816,181.826481 C167.599959,181.570999 167.714758,181.305563 167.809735,181.03432 L169.637434,181.43911 L169.959531,179.967598 L168.131833,179.563637 C168.159913,179.279123 168.16652,178.99129 168.153306,178.700969 L170,178.388252 Z"/>
    <path fill="#E3E4E6" d="M91.7832694,186.787683 C70.3241544,182.787604 50.1859183,194.415277 46.8030785,212.757426 C45.4673116,220.000812 46.9469939,227.212597 50.5473611,233.531225 C50.7136083,233.823954 50.8980516,234.105872 51.074224,234.394444 L45,253.919985 L59.2178527,243.780076 C64.7073168,248.365613 71.6566128,251.743642 79.5347424,253.212278 C100.994685,257.212357 121.132093,245.585517 124.514933,227.242535 C127.896119,208.900386 113.24073,190.787762 91.7832694,186.787683"/>
    <path fill="#E3E4E6" d="M118.652467,249.312442 L143.700584,216.268 L159.055907,256.564191 L202.10599,260.321488 L177.058699,293.364282 L118.652467,249.312442 Z M197.757697,254.472134 L162.945745,251.433337 L150.52866,218.849494 L197.757697,254.472134 Z M206.640968,254.340299 L148.235563,210.286811 L143.877357,207 L140.579792,211.347259 L114.295088,246.023159 L111,250.371242 L115.357379,253.657229 L173.761133,297.710717 L178.120165,301 L181.415252,296.653565 L207.702434,261.976017 L211,257.627934 L206.640968,254.340299 Z"/>
    <polygon fill="url(#bi-resonance-ans-a)" points="252 95.495 232.124 154 183 137.505 202.876 79"/>
    <path fill="url(#bi-resonance-ans-a)" d="M232.737721,73.8038501 C239.645578,76.0890116 242.587306,85.7131044 239.297731,95.2573021 L241.542098,96 C245.249423,85.2435171 241.641126,74.3003407 233.496661,71.6051056 C225.352196,68.9106857 215.70899,75.4686021 212,86.2250849 L214.244367,86.9677828 C217.533942,77.4235851 225.831527,71.5186885 232.737721,73.8038501"/>
    <path fill="#AB3465" d="M97.9723597,176.168969 C98.1638659,177.383497 97.3400593,178.525269 96.1266368,178.718734 L38.1432002,187.971965 C36.9289523,188.16543 35.78817,187.337004 35.5958384,186.122476 L22.0277935,100.831031 C21.8354619,99.6173296 22.6617449,98.4747308 23.8743419,98.2812661 L81.8586039,89.0280347 C83.0703755,88.8345701 84.2111578,89.6629955 84.4051403,90.8775235 L97.9723597,176.168969 Z"/>
    <path fill="#FFF" d="M89.9779495,165.677917 C90.1302957,166.635479 89.4770286,167.535107 88.5190691,167.68739 L42.7431775,174.977937 C41.786046,175.13022 40.8860443,174.478051 40.7328701,173.520489 L30.0222703,106.321497 C29.8690961,105.363935 30.5223632,104.465134 31.4803227,104.312024 L77.2553864,97.0223049 C78.2133459,96.8691943 79.1141755,97.520535 79.2673497,98.4789244 L89.9779495,165.677917 Z"/>
    <path fill="#630042" d="M69.9497334,175.37071 C70.2966129,177.551938 68.8114375,179.601916 66.629378,179.949569 C64.4488811,180.297222 62.3980733,178.810518 62.0504126,176.62851 C61.7027518,174.448063 63.1902711,172.397303 65.370768,172.050432 C67.5528275,171.702779 69.6020727,173.189482 69.9497334,175.37071"/>
    <path fill="#630042" d="M67.9810184,176.263932 C68.1116419,177.082406 67.5542655,177.851163 66.7349,177.981021 C65.917761,178.111621 65.1496058,177.554346 65.0189823,176.735872 C64.8883588,175.91814 65.4457352,175.149382 66.2643585,175.018783 C67.0814975,174.888925 67.8496527,175.4462 67.9810184,176.263932"/>
    <path fill="#1D1F1F" d="M54.9872886,96.8423301 C55.0745128,97.3876222 54.7036329,97.900296 54.1575956,97.9875143 C53.6122675,98.0740236 53.1002689,97.7017501 53.0123356,97.1571672 C52.9265298,96.6118751 53.2974096,96.0992013 53.8434469,96.012692 C54.3887751,95.9254737 54.9014828,96.2970381 54.9872886,96.8423301"/>
    <polygon fill="#E6E7E8" points="56 110.695 36.695 114 36 109.305 55.304 106"/>
    <polygon fill="#E6E7E8" points="57 117.695 37.695 121 37 116.306 56.304 113"/>
    <polygon fill="#E6E7E8" points="59 124.695 39.695 128 39 123.304 58.304 120"/>
    <polygon fill="#E6E7E8" points="60 130.694 40.696 134 40 129.305 59.304 126"/>
    <polygon fill="#E6E7E8" points="61 138.695 41.695 142 41 137.305 60.304 134"/>
    <polygon fill="#322870" points="82 160.123 45.345 166 42 144.877 78.655 139"/>
    <path fill="#630042" d="M74.8993761 110.741799C75.5936159 115.104086 72.6218703 119.204186 68.2583155 119.899188 63.8955932 120.594191 59.7950837 117.62191 59.100844 113.257959 58.4057718 108.896505 61.3775174 104.796405 65.7419046 104.10057 70.1037945 103.4064 74.2034716 106.379513 74.8993761 110.741799M77.8989559 127.741799C78.5948536 132.104085 75.6223048 136.204185 71.2604578 136.899188 66.896946 137.59419 62.7964769 134.621909 62.1005791 130.258791 61.4063462 125.896505 64.3797274 121.796405 68.7424069 121.10057 73.1050863 120.4064 77.204723 123.379513 77.8989559 127.741799"/>
    <path fill="url(#bi-resonance-ans-a)" d="M158.379818,282.231739 C155.766366,292.106611 145.642531,297.992857 135.768027,295.380131 C125.893523,292.766582 120.006673,282.641547 122.620125,272.766675 C125.233577,262.892626 135.356589,257.007203 145.232739,259.619929 C155.107243,262.233479 160.99327,272.357691 158.379818,282.231739"/>
    <polygon fill="#FFF" points="136.337 268 132 284 150 280.09"/>
    <path fill="#7D7D7D" d="M255.389278,236.299996 C254.974502,237.586801 253.596321,238.295907 252.309854,237.881849 L168.699396,211.007715 C167.411276,210.593657 166.704835,209.214288 167.117958,207.926657 L182.61175,159.700824 C183.024874,158.413193 184.403055,157.704087 185.691175,158.118146 L269.29998,184.993105 C270.5881,185.407164 271.296194,186.786532 270.881418,188.073337 L255.389278,236.299996 Z"/>
    <path fill="#FFF" d="M253.158357,229.63445 C252.817865,230.696832 251.607133,231.257028 250.455077,230.884945 L175.561581,206.752618 C174.407873,206.381364 173.749202,205.219539 174.089694,204.157156 L186.841638,164.365874 C187.182131,163.30432 188.392863,162.743296 189.544918,163.114549 L264.439241,187.246876 C265.592122,187.618959 266.250794,188.780784 265.910301,189.843167 L253.158357,229.63445 Z"/>
    <path fill="#231F20" d="M228.951429 173.30593C228.783473 173.831084 228.219566 174.12064 227.694418 173.951922 227.16851 173.782444 226.878957 173.219292 227.048433 172.694138 227.217909 172.168225 227.780296 171.879429 228.305444 172.048146 228.832872 172.217624 229.120905 172.780017 228.951429 173.30593M174.871421 202L174.089829 204.413121C173.749071 205.465373 174.407428 206.616941 175.562862 206.983833L250.51385 230.886042C251.667629 231.254577 252.878477 230.699723 253.220062 229.647471L254 227.235171 174.871421 202z"/>
    <path fill="#CACACA" d="M255.8691,261.486562 C255.865786,262.081215 254.652132,262.172828 253.159296,261.69061 L156.154773,230.352235 C154.661108,229.870016 153.729121,229.085474 154.070436,228.599924 L166.882151,210.404712 C167.223465,209.918329 168.547301,209.862528 169.837999,210.279785 L253.668782,237.361477 C254.95948,237.778733 256.003306,238.599921 255.999992,239.194574 L255.8691,261.486562 Z"/>
    <path fill="#7D7D7D" d="M255.367665,263.310681 C254.953781,264.595135 253.558163,265.297094 252.2536,264.879379 L153.730103,233.367011 C152.423884,232.949295 151.702898,231.570918 152.116782,230.286464 L152.632482,228.68893 C153.046366,227.4053 154.439501,226.703341 155.745719,227.120232 L254.270044,258.6326 C255.574607,259.050316 256.297249,260.429517 255.883365,261.713147 L255.367665,263.310681 Z"/>
    <polygon fill="#630042" points="168.604 213 167 215.245 252 243 251.965 240.219"/>
    <polygon fill="#630042" points="166.588 217 165 219.197 253 247 252.937 244.28"/>
    <polygon fill="#630042" points="164.572 220 163 222.226 252.9 251 253 248.303"/>
    <polygon fill="#630042" points="193.792 234 192 237.902 221.222 247 222 242.781"/>
    <path fill="#FF802E" d="M108.404028,184.748506 C109.069977,183.918941 110.321787,183.753356 111.204496,184.380448 C112.086335,185.00672 112.26131,186.18713 111.597102,187.018334 L106.593342,193.25073 C105.929134,194.081115 104.675583,194.246701 103.794614,193.619608 C102.914517,192.993336 102.738671,191.812107 103.402009,190.982542 L108.404028,184.748506 Z"/>
    <polygon fill="#FFF" points="165.257 122 168 108 155 114.701"/>
    <path fill="url(#bi-resonance-ans-a)" d="M155.609837,114 C155.533354,114.08341 155.459364,114.16682 155.391193,114.258488 L106.024204,179.182779 C104.337403,181.400161 104.78051,184.554047 107.011843,186.2272 L109.352082,187.982937 C111.583414,189.658568 114.756662,189.217569 116.444295,187.000187 L165.809622,122.076722 C165.881118,121.985054 165.941806,121.893385 166,121.798414 L155.609837,114 Z"/>
    <path fill="#231F20" d="M166.185141,107.000999 C167.357646,105.439437 168.900631,104.620923 169.625917,105.171575 C170.352853,105.722226 169.987322,107.43472 168.815643,108.99794 C167.640664,110.559502 166.099328,111.379675 165.374868,110.828194 C164.647932,110.276713 165.010162,108.564219 166.185141,107.000999"/>
    <path fill="#630042" d="M118.210196,184 L107.91421,176.245639 C107.491951,176.01482 106.474879,175.329808 106.118987,173.960613 C105.748992,172.522751 106.242595,170.892126 107.589842,169.110931 C110.534871,165.2292 129.012229,143.310492 129.797017,142.378943 C129.984504,142.130751 130.414229,141.363009 130.31219,140.85835 C130.295598,140.773965 130.249971,140.555556 129.821075,140.307363 L131.162515,138 C132.389472,138.709831 132.804265,139.67199 132.938658,140.35452 C133.290402,142.182044 132.021136,143.871408 131.87347,144.057552 C131.650311,144.323118 112.625426,166.89209 109.724366,170.718391 C108.649223,172.136398 108.622676,172.924823 108.703146,173.268983 C108.801037,173.702493 109.185135,173.901874 109.204216,173.90932 L109.43567,174.049962 L119.821251,181.872163 L118.210196,184 Z"/>
    <path fill="#443E3F" d="M109.761895,245.678625 C110.49391,247.660972 109.481691,249.863856 107.498702,250.597598 L88.1073612,257.761737 C86.1235436,258.49465 83.9216967,257.479848 83.1896821,255.497501 L67.2378982,212.320316 C66.5058836,210.33714 67.5197612,208.135914 69.5027498,207.403001 L88.8940904,200.238033 C90.87625,199.505949 93.0780969,200.519093 93.8101115,202.50144 L109.761895,245.678625 Z"/>
    <path fill="#524B4C" d="M98.8447999,249.632553 C99.3224379,250.92879 98.6606824,252.366483 97.3665235,252.845122 C96.0705857,253.32198 94.6341137,252.660962 94.1564757,251.366504 C93.6761693,250.071156 94.3388142,248.634352 95.6347521,248.155714 C96.928911,247.677076 98.3653829,248.338984 98.8447999,249.632553"/>
    <path fill="#443E3F" d="M96.9363909,250.653606 C97.1302567,251.17146 96.8660582,251.746054 96.3466781,251.937885 C95.8281998,252.128816 95.2547176,251.864935 95.0626552,251.347081 C94.8705927,250.828325 95.1347913,250.254633 95.6541714,250.061901 C96.171748,249.87097 96.7461319,250.136652 96.9363909,250.653606"/>
    <path fill="#1D1F1F" d="M80.9687549,206.326789 C81.0644042,206.585313 80.9332095,206.873567 80.6740515,206.968574 C80.416186,207.064874 80.1266528,206.932381 80.0310035,206.673211 C79.9353541,206.414041 80.0684877,206.126433 80.3276457,206.031426 C80.5868038,205.935126 80.8743981,206.067619 80.9687549,206.326789"/>
    <polygon fill="#FFF" points="106 243.691 83.38 252 69 213.309 91.62 205"/>
    <polygon fill="#E6E7E8" points="93 215.415 75.512 222 75 220.585 92.486 214"/>
    <polygon fill="#E6E7E8" points="94 218.416 76.513 225 76 223.584 93.488 217"/>
    <polygon fill="#E6E7E8" points="96 221.416 78.514 228 78 226.583 95.486 220"/>
    <polygon fill="#E6E7E8" points="97 223.414 79.512 230 79 228.584 96.486 222"/>
    <polygon fill="#E6E7E8" points="98 226.416 80.513 233 80 231.583 97.488 225"/>
    <polygon fill="#E6E7E8" points="98 229.415 80.512 236 80 234.585 97.488 228"/>
    <polygon fill="#E6E7E8" points="99 232.415 81.514 239 81 237.584 98.488 231"/>
    <polygon fill="#E6E7E8" points="93 212.441 75.035 219 73 213.559 90.967 207"/>
    <polygon fill="#AB3465" points="103 241.282 85.578 248 83 240.72 100.424 234"/>
    <polygon fill="#E6E7E8" points="197.817 205 182 199.677 192.183 168 208 173.324"/>
    <polygon fill="#A0A2A4" points="249.637 221 202 205.389 212.365 174 260 189.61"/>
    <path fill="#E3E4E6" d="M93,281.999569 C93,284.761194 90.7605245,287 87.9991373,287 C85.2377502,287 83,284.761194 83,281.999569 C83,279.237943 85.2377502,277 87.9991373,277 C90.7605245,277 93,279.237943 93,281.999569"/>
    <path fill="#9F0023" d="M136,92.7269347 C136,92.7269347 161.995263,106.635052 176,84 C176,84 162.728452,113.180049 136,92.7269347"/>
  </g>
</svg>
