<svg xmlns="http://www.w3.org/2000/svg" width="438" height="421" viewBox="0 0 438 421">
  <defs>
    <linearGradient id="bi-resonance-landing-a" x1="0%" y1="50%" y2="50%">
      <stop offset="0%" stop-color="#C33764"/>
      <stop offset="100%" stop-color="#1D2671"/>
    </linearGradient>
  </defs>
  <g fill="none" fill-rule="evenodd" transform="translate(0 -26)">
    <g transform="translate(0 .138)">
      <g transform="translate(0 214)">
        <polygon fill="url(#bi-resonance-landing-a)" points="118.593 213.071 101.627 227.769 36.996 189.649 45.608 175.024"/>
        <polygon fill="#231F20" points="47.018 175.686 45.661 174.978 37.048 189.606 101.681 227.723 105.302 224.585 40.669 186.468"/>
        <path fill="#231F20" d="M36.9954465 189.6497L56.6884629 201.265085C62.8419159 198.187925 68.3732302 194.269913 72.6173608 191.293834 73.2117894 190.870724 73.8088996 190.452087 74.4077976 190.038818L45.6079567 175.023349 36.9954465 189.6497zM15.4830318 192.293911C20.0292931 197.548341 21.227089 203.962073 18.1593012 206.619702 15.0924073 209.277331 8.92018286 207.170728 4.37481551 201.915404-.170551837 196.661868-1.36745388 190.247242 1.69944 187.589613 4.76812163 184.933773 10.9394522 187.039481 15.4830318 192.293911"/>
        <polygon fill="url(#bi-resonance-landing-a)" points="30.47 195.956 17.186 207.462 .727 188.435 14.011 176.927"/>
        <polygon fill="#231F20" points="17.185 207.462 30.47 195.956 26.604 191.485 13.319 202.993"/>
        <path fill="#630042" d="M120.010033,101.42027 C127.892246,110.53099 126.900936,124.317384 117.794111,132.203501 C108.686393,140.093197 94.9126335,139.098487 87.0304212,129.987767 C79.1455273,120.872574 80.1395192,107.089759 89.2463437,99.2000633 C98.3531682,91.3103675 112.127821,92.304183 120.010033,101.42027"/>
        <path fill="#231F20" d="M113.264923,126.968393 C105.047507,134.086115 93.0337922,133.970722 84.9736984,127.187551 C85.575278,128.159004 86.2582004,129.09557 87.0296167,129.987409 C94.9127229,139.099024 108.686482,140.093734 117.793307,132.204038 C126.901025,124.317026 127.892335,110.530632 120.010123,101.419912 C119.240494,100.527178 118.410082,99.71674 117.536764,98.9823363 C123.089531,107.937409 121.480551,119.851566 113.264923,126.968393"/>
        <path fill="#E6E7E8" d="M15.2028906,192.586599 C15.0241151,192.383542 15.4540702,192.879108 15.2028906,192.586599"/>
        <path fill="#E5E5E5" d="M65.5890698,60.7544347 C62.9056494,67.5698079 63.0450943,75.6849235 61.1599065,82.5360777 C55.5526127,103.555587 43.2072698,122.793205 27.5384902,139.404504 C17.0631392,150.643295 -3.16620367,171.930266 15.20298,192.586599 C33.0957269,213.657096 56.9676208,196.561861 69.544478,187.740966 C88.1559024,174.517228 108.908164,164.95209 130.488156,162.310562 C137.528335,161.394571 145.538372,162.656743 152.656319,160.944625 L65.5890698,60.7544347 Z"/>
        <path fill="url(#bi-resonance-landing-a)" d="M122.168748,147.597443 C100.588756,150.238076 79.8373886,159.804108 61.2259641,173.028741 C48.9673273,181.62511 25.9785845,198.077183 8.25388653,179.39238 C9.12988653,183.750498 11.2868131,188.182861 15.2028906,192.586599 C33.0965314,213.657096 56.9684253,196.561861 69.5443886,187.740966 C88.1558131,174.517228 108.908074,164.95209 130.488066,162.310562 C137.52914,161.394571 145.539176,162.656743 152.656229,160.944625 L140.442287,146.892558 C134.386266,147.558978 127.951242,146.845149 122.168748,147.597443"/>
        <path fill="#231F20" d="M152.656587,160.944536 L65.589338,60.7543452 C64.3316522,63.9451099 63.6969992,67.4221221 63.180338,70.9197083 L142.263473,161.920461 C145.795183,161.89452 149.324211,161.746029 152.656587,160.944536"/>
        <path fill="#630042" d="M119.291535,212.33338 C119.947641,213.093725 119.866298,214.242293 119.106502,214.897979 L99.8675755,231.564737 C99.1077796,232.222212 97.9600408,232.139916 97.3021469,231.380466 L93.6014939,227.101066 C92.9444939,226.341616 93.0285184,225.193942 93.7865265,224.536468 L113.027241,207.870603 C113.785249,207.212234 114.933882,207.296319 115.589988,208.05577 L119.291535,212.33338 Z"/>
        <path fill="#231F20" d="M100.006842,228.636515 C99.2470457,229.294884 98.1002008,229.211694 97.4423069,228.452243 L93.9400947,224.401842 L93.7863478,224.53602 C93.0283396,225.193495 92.945209,226.342063 93.6013151,227.100619 L97.302862,231.380018 C97.959862,232.139469 99.1076008,232.222659 99.8673967,231.56429 L119.106323,214.898426 C119.866119,214.241846 119.948356,213.093278 119.291356,212.332933 L119.092915,212.10483 L100.006842,228.636515 Z"/>
        <path fill="#443E3F" d="M26.1511029 140.897284C25.4780131 141.620059 24.7727437 142.378615 24.0469151 143.172057L65.2028253 190.753542C66.088658 190.14616 66.9378416 189.554881 67.7468008 188.987753L26.1511029 140.897284zM30.6999563 135.980895C30.0286543 136.706353 29.3260665 137.465803 28.600238 138.261034L70.6974012 186.932943C71.5850216 186.326456 72.4350992 185.734282 73.2458461 185.169838L30.6999563 135.980895z"/>
        <path fill="#630042" d="M158.457227,160.703462 C159.113333,161.464701 159.031096,162.61148 158.2713,163.268955 L154.149631,166.839892 C153.390729,167.497367 152.243884,167.414176 151.585096,166.654726 L60.0216429,60.7941515 C59.363749,60.0338067 59.4468796,58.8852387 60.2066755,58.2277641 L64.327451,54.6577215 C65.0881408,54.0002469 66.2349857,54.082543 66.8919857,54.8410988 L158.457227,160.703462 Z"/>
        <path fill="url(#bi-resonance-landing-a)" d="M118.593238,59.0273471 C118.593238,59.0273471 169.080336,58.7464982 166.696364,111.338208 C166.696364,111.338208 163.455164,72.2028126 118.593238,59.0273471"/>
        <path fill="url(#bi-resonance-landing-a)" d="M112.764709,36.1638095 C112.764709,36.1638095 188.44664,33.9668602 188.44664,119.244453 C188.44664,119.244453 204.536436,30.0130671 112.764709,36.1638095"/>
        <path fill="url(#bi-resonance-landing-a)" d="M118.593238,0.964227181 C118.593238,0.964227181 224.767119,-2.11740568 224.767119,117.517039 C224.767119,117.517039 247.341103,-7.66434483 118.593238,0.964227181"/>
      </g>
      <text fill="#E3E4E6" font-family="LucidaGrande, Lucida Grande" font-size="106.625">
        <tspan x="215.711" y="103.214">@</tspan>
      </text>
      <path fill="#DEDFE0" d="M316.46662,71.5429765 C355.521024,67.6544836 390.162355,94.4713984 393.839767,131.437575 C395.292318,146.039774 391.689992,160.043536 384.399527,171.882553 C384.064322,172.430001 383.692469,172.956875 383.341176,173.493589 L391.693567,213.309717 L367.490939,190.553043 C357.037041,198.603753 344.114253,203.989678 329.775563,205.417338 C290.718478,209.304936 256.078935,182.490705 252.404204,145.520056 C248.727686,108.553879 277.410429,75.4323639 316.46662,71.5429765"/>
      <path fill="#9F0023" d="M416.613264,168.274314 C414.823722,168.274314 413.374746,166.822502 413.374746,165.033456 C413.374746,163.24262 414.823722,161.792598 416.613264,161.792598 C418.40102,161.792598 419.851783,163.24262 419.851783,165.033456 C419.851783,166.822502 418.40102,168.274314 416.613264,168.274314 Z M425.022864,166.759886 L425.190913,165.161373 L423.196673,164.95116 C423.191309,164.639866 423.165387,164.333044 423.118011,164.032484 L425.044318,163.480563 L424.602742,161.935722 L422.676436,162.487642 C422.555762,162.203184 422.41453,161.928565 422.257207,161.66647 L423.835795,160.432028 L422.84806,159.165383 L421.267685,160.400719 C421.051367,160.18335 420.818958,159.981188 420.573142,159.795127 L421.575179,158.058857 L420.185199,157.255575 L419.183162,158.991845 C418.762146,158.812046 418.316995,158.676973 417.856648,158.588415 L418.156991,156.657139 L416.569464,156.409356 L416.248562,158.477494 C415.783746,158.502541 415.331444,158.575892 414.898807,158.69218 L414.14795,156.832466 L412.65875,157.435375 L413.409607,159.294194 C413.14055,159.444474 412.88222,159.61175 412.638191,159.796916 L411.244636,158.35405 L410.088852,159.470415 L411.482407,160.913281 C411.290224,161.151225 411.112342,161.40348 410.953232,161.668259 L409.123464,160.852454 L408.469146,162.320367 L410.300701,163.136172 C410.211313,163.427786 410.141591,163.727452 410.092428,164.034273 L408.090142,163.9645 L408.033828,165.57017 L410.038795,165.640837 C410.064718,165.950342 410.113881,166.25448 410.181816,166.549673 L408.297522,167.236667 L408.847256,168.746622 L410.73155,168.061417 C410.870995,168.335141 411.030105,168.599026 411.206199,168.851281 L409.715211,170.193066 L410.790546,171.387255 L412.281534,170.044575 C412.512154,170.244949 412.758864,170.43101 413.015407,170.600074 L412.136726,172.402539 L413.580338,173.106529 L414.45902,171.304064 C414.746848,171.403356 415.043616,171.483863 415.347534,171.542902 L415.208089,173.543951 L416.810811,173.655766 L416.950256,171.654717 C417.261326,171.639511 417.566138,171.601046 417.864693,171.542902 L418.483256,173.450026 L420.010893,172.952671 L419.390542,171.046442 C419.672113,170.915841 419.939383,170.765561 420.195926,170.598285 L421.485791,172.135076 L422.714873,171.102797 L421.426795,169.565111 C421.635962,169.339691 421.829934,169.100853 422.006028,168.849492 L423.776799,169.791425 L424.530338,168.371817 L422.76046,167.430778 C422.870407,167.145425 422.959795,166.852022 423.029518,166.549673 L425.022864,166.759886 Z"/>
      <path fill="#E6E7E8" d="M184.157904,187.011178 C175.668749,187.011178 168.78768,180.120665 168.78768,171.630744 C168.78768,163.130984 175.668749,156.248521 184.157904,156.248521 C192.64259,156.248521 199.527235,163.130984 199.527235,171.630744 C199.527235,180.120665 192.64259,187.011178 184.157904,187.011178 Z M224.073113,179.821894 L224.869558,172.234547 L215.403394,171.240732 C215.378366,169.759401 215.254117,168.304906 215.030647,166.879036 L224.174121,164.258083 L222.073509,156.928359 L212.933611,159.549312 C212.362423,158.196793 211.696484,156.895261 210.945627,155.651874 L218.439896,149.794535 L213.746145,143.782444 L206.250982,149.644255 C205.219447,148.61287 204.11819,147.653941 202.949892,146.771941 L207.706215,138.529803 L201.111186,134.715556 L196.355758,142.956799 C194.357047,142.103424 192.243921,141.461156 190.057496,141.042519 L191.482337,131.875444 L183.950525,130.701829 L182.426464,140.51475 C180.222162,140.636405 178.079537,140.983481 176.020043,141.535401 L172.457941,132.708245 L165.390945,135.568931 L168.953941,144.391614 C167.677484,145.104549 166.45019,145.900675 165.291725,146.779992 L158.678819,139.930627 L153.198456,145.228888 L159.806892,152.078253 C158.894243,153.205353 158.049529,154.404014 157.295096,155.660819 L148.61197,151.787533 L145.510215,158.752292 L154.196023,162.625578 C153.774113,164.0103 153.442484,165.431698 153.211864,166.887087 L143.707264,166.555219 L143.440888,174.175663 L152.953533,174.512004 C153.081358,175.983495 153.309296,177.425466 153.633774,178.827184 L144.693211,182.085038 L147.303333,189.253748 L156.243002,185.999472 C156.905366,187.301898 157.659798,188.553337 158.496468,189.747525 L151.420533,196.114742 L156.525468,201.787809 L163.600509,195.410752 C164.694615,196.364314 165.862019,197.247209 167.083949,198.046913 L162.913117,206.604817 L169.765582,209.946756 L173.933733,201.388852 C175.300472,201.862055 176.708329,202.243122 178.154623,202.524896 L177.491366,212.018472 L185.093794,212.549819 L185.757051,203.055349 C187.231949,202.981103 188.681819,202.79862 190.098615,202.524896 L193.035896,211.574789 L200.281668,209.216825 L197.344386,200.166038 C198.674476,199.547923 199.946464,198.834988 201.164819,198.038862 L207.283411,205.335489 L213.120431,200.43529 L207.001839,193.138663 C207.994937,192.069708 208.914737,190.932769 209.7523,189.73858 L218.153856,194.212091 L221.732941,187.475436 L213.335856,183.005503 C213.854304,181.654773 214.27979,180.262 214.606949,178.827184 L224.073113,179.821894 Z"/>
      <path fill="#E3E4E6" d="M262.63061,287.80714 C259.551202,287.80714 257.055496,285.308737 257.055496,282.229787 C257.055496,279.146365 259.551202,276.649751 262.63061,276.649751 C265.707337,276.649751 268.204831,279.146365 268.204831,282.229787 C268.204831,285.308737 265.707337,287.80714 262.63061,287.80714 Z M277.106957,285.199605 L277.396573,282.448945 L273.96319,282.087558 C273.953357,281.550844 273.908663,281.023075 273.82732,280.506041 L277.143606,279.555162 L276.382916,276.896639 L273.067524,277.846623 C272.859251,277.356424 272.618798,276.88501 272.346165,276.433276 L275.063553,274.309678 L273.36161,272.129724 L270.643329,274.255112 C270.268794,273.881201 269.870124,273.533231 269.446427,273.212992 L271.17161,270.22439 L268.7787,268.840562 L267.05441,271.830059 C266.330369,271.519659 265.563422,271.287083 264.770553,271.13412 L265.287214,267.810966 L262.555524,267.385173 L262.002214,270.943586 C261.202194,270.987418 260.425414,271.11444 259.679027,271.313919 L258.38648,268.111526 L255.823733,269.150962 L257.11628,272.350672 C256.653251,272.608294 256.207206,272.897225 255.787978,273.21657 L253.38881,270.731584 L251.400827,272.653915 L253.798206,275.138006 C253.467471,275.545909 253.160871,275.981542 252.887345,276.436854 L249.73732,275.032453 L248.612822,277.558586 L251.762847,278.962988 C251.609994,279.46571 251.490214,279.98185 251.40619,280.508724 L247.958504,280.387964 L247.862859,283.152935 L251.312333,283.27459 C251.359708,283.807726 251.441051,284.331023 251.559043,284.840006 L248.316055,286.020777 L249.263565,288.621156 L252.505659,287.44128 C252.745218,287.912694 253.019639,288.366217 253.322663,288.800061 L250.757235,291.10972 L252.608455,293.167124 L255.173884,290.853887 C255.570765,291.200067 255.994463,291.520306 256.437827,291.811027 L254.925386,294.913233 L257.410365,296.126207 L258.922806,293.022211 C259.418014,293.19396 259.928418,293.332611 260.452231,293.434586 L260.212671,296.878501 L262.96939,297.069929 L263.209843,293.626909 C263.745276,293.600073 264.271769,293.533878 264.784855,293.434586 L265.850357,296.716592 L268.478357,295.861428 L267.412855,292.579422 C267.896443,292.354897 268.35679,292.09638 268.798365,291.807448 L271.017863,294.454343 L273.134565,292.676031 L270.915961,290.030031 C271.276194,289.642702 271.60961,289.230327 271.913529,288.796483 L274.960757,290.420043 L276.258667,287.976205 L273.213227,286.354434 C273.400941,285.86513 273.555582,285.360619 273.673573,284.840006 L277.106957,285.199605 Z"/>
      <path fill="url(#bi-resonance-landing-a)" d="M308.077848,79.3971596 C303.776509,79.3971596 300.287705,75.9049406 300.287705,71.6022834 C300.287705,67.2951535 303.776509,63.8074071 308.077848,63.8074071 C312.378293,63.8074071 315.867991,67.2951535 315.867991,71.6022834 C315.867991,75.9049406 312.378293,79.3971596 308.077848,79.3971596 Z M328.307191,75.7537661 L328.710329,71.9082103 L323.912889,71.4045937 C323.900374,70.6540886 323.837803,69.9170014 323.72428,69.1942266 L328.357248,67.8658594 L327.29264,64.1517986 L322.662354,65.4792712 C322.37095,64.7940663 322.033958,64.1348026 321.65406,63.5041637 L325.452146,60.5361353 L323.072644,57.4884943 L319.275452,60.4601008 C318.75164,59.9368047 318.192966,59.4510785 317.601219,59.0038168 L320.012901,54.8272874 L316.668905,52.8942225 L314.259905,57.0707519 C313.247142,56.6378026 312.17717,56.3121961 311.068762,56.1001941 L311.789227,51.4549345 L307.973264,50.8600765 L307.201848,55.8327316 C306.084501,55.8944538 304.99844,56.0706748 303.954391,56.3497661 L302.148758,51.876255 L298.567884,53.3262773 L300.373517,57.7979994 C299.725456,58.1584923 299.104211,58.5628168 298.517827,59.0082895 L295.165787,55.5366444 L292.387615,58.2220034 L295.737868,61.692754 C295.275733,62.2643544 294.845778,62.8717357 294.464093,63.5086363 L290.064427,61.5460521 L288.491203,65.0758412 L292.894444,67.0384254 C292.679019,67.7406262 292.511864,68.4607174 292.394766,69.1986992 L287.57766,69.0305288 L287.443578,72.892186 L292.26426,73.0621454 C292.328619,73.8081779 292.443929,74.5390034 292.607509,75.249255 L288.077338,76.900545 L289.400276,80.5340988 L293.931342,78.8845978 C294.266546,79.544756 294.649125,80.178973 295.072823,80.7836708 L291.486587,84.011111 L294.074362,86.8861089 L297.660599,83.6541961 C298.213909,84.1372387 298.805656,84.5853949 299.425113,84.9897195 L297.311093,89.3272631 L300.783807,91.0205957 L302.89604,86.6839467 C303.589689,86.9236789 304.303003,87.1168959 305.036876,87.2600197 L304.699884,92.0707661 L308.552497,92.3400176 L308.889489,87.5283767 C309.63677,87.4908067 310.36975,87.3986708 311.089321,87.2600197 L312.576733,91.8462408 L316.25057,90.6511576 L314.76137,86.064042 C315.43446,85.7509588 316.078946,85.3895714 316.697509,84.9861414 L319.797476,88.6841008 L322.757105,86.2000095 L319.654456,82.5020501 C320.159497,81.9608635 320.625207,81.3847905 321.049799,80.7791982 L325.307338,83.0468148 L327.121909,79.6324193 L322.865264,77.3665917 C323.128958,76.6822813 323.343489,75.9765024 323.50975,75.249255 L328.307191,75.7537661 Z"/>
      <path fill="#DEDFE0" d="M241.843577,184.520289 C238.117896,184.520289 235.099271,181.4968 235.099271,177.772005 C235.099271,174.042737 238.117896,171.022826 241.843577,171.022826 C245.565683,171.022826 248.586096,174.042737 248.586096,177.772005 C248.586096,181.4968 245.565683,184.520289 241.843577,184.520289 Z M259.356426,181.366199 L259.705038,178.036784 L255.552083,177.601151 C255.541357,176.951727 255.487724,176.313037 255.389398,175.686871 L259.400226,174.537408 L258.477744,171.321597 L254.469598,172.471059 C254.218418,171.87799 253.925226,171.307285 253.596279,170.761625 L256.883961,168.190765 L254.825361,165.552816 L251.536785,168.125465 C251.084483,167.672836 250.600896,167.25241 250.089598,166.865082 L252.175908,163.248524 L249.280638,161.574871 L247.194328,165.191429 C246.318328,164.816623 245.391377,164.534848 244.431353,164.351471 L245.057961,160.329694 L241.752402,159.813554 L241.083781,164.11979 C240.116606,164.172567 239.176247,164.32553 238.27343,164.567051 L236.709144,160.69466 L233.608283,161.949676 L235.172569,165.821173 C234.612108,166.133362 234.073993,166.48312 233.564483,166.86866 L230.663851,163.863061 L228.25932,166.187928 L231.159059,169.193526 C230.758602,169.687303 230.387642,170.213283 230.056908,170.765203 L226.246308,169.065609 L224.884932,172.121301 L228.69732,173.820895 C228.512287,174.428276 228.365691,175.052654 228.264683,175.690449 L224.095638,175.545536 L223.97854,178.889264 L228.152055,179.035966 C228.208369,179.681812 228.307589,180.315134 228.449716,180.929672 L224.526487,182.35912 L225.672438,185.504264 L229.594773,184.076605 C229.886177,184.648205 230.216018,185.196548 230.584296,185.720739 L227.478965,188.51523 L229.719022,191.003794 L232.822565,188.205725 C233.302577,188.624362 233.816557,189.01169 234.351989,189.363238 L232.521328,193.117552 L235.529226,194.583676 L237.356312,190.828467 C237.956104,191.035997 238.574667,191.204167 239.20932,191.327611 L238.917916,195.492512 L242.253867,195.725982 L242.545271,191.560187 C243.191544,191.52709 243.828879,191.447477 244.450124,191.327611 L245.738202,195.2984 L248.917724,194.263437 L247.629647,190.292648 C248.212455,190.020713 248.771128,189.708524 249.305667,189.358765 L251.989087,192.560264 L254.551834,190.40983 L251.866626,187.208331 C252.301051,186.739601 252.705977,186.241352 253.073361,185.717161 L256.759712,187.68064 L258.329361,184.72424 L254.645691,182.763445 C254.872736,182.170376 255.059557,181.558522 255.202577,180.929672 L259.356426,181.366199 Z"/>
      <path fill="#DADBDC" d="M279.708588,208.470614 C277.389869,208.470614 275.510045,206.588537 275.510045,204.269038 C275.510045,201.946855 277.389869,200.066567 279.708588,200.066567 C282.027306,200.066567 283.907131,201.946855 283.907131,204.269038 C283.907131,206.588537 282.027306,208.470614 279.708588,208.470614 Z M290.613,206.507135 L290.830212,204.43363 L288.245118,204.16259 C288.237967,203.758265 288.205788,203.361097 288.14411,202.971085 L290.64071,202.254571 L290.067735,200.251734 L287.571135,200.968247 C287.414706,200.599703 287.232355,200.243683 287.027657,199.903764 L289.075531,198.303462 L287.792816,196.661117 L285.744943,198.262314 C285.462478,197.980539 285.162135,197.719338 284.843914,197.477817 L286.141824,195.226302 L284.340661,194.184182 L283.040963,196.435697 C282.494804,196.203121 281.919147,196.0269 281.320249,195.912401 L281.70998,193.40863 L279.653167,193.087496 L279.23662,195.769277 C278.634147,195.80148 278.049551,195.8963 277.488196,196.047474 L276.512976,193.635839 L274.583094,194.417653 L275.555633,196.827498 C275.20702,197.022504 274.871816,197.239874 274.55449,197.4805 L272.749751,195.609158 L271.250718,197.056496 L273.058139,198.927839 C272.806959,199.234661 272.576339,199.562951 272.370747,199.905553 L269.998396,198.848227 L269.151,200.750878 L271.525139,201.809099 C271.408041,202.187482 271.317759,202.575705 271.256082,202.972874 L268.659367,202.882527 L268.585176,204.964977 L271.185465,205.056218 C271.220327,205.457859 271.28111,205.852344 271.369604,206.234306 L268.927531,207.125251 L269.641739,209.083362 L272.082918,208.194206 C272.264376,208.550227 272.470861,208.891934 272.699694,209.218435 L270.765343,210.958283 L272.16158,212.507598 L274.094143,210.765066 C274.392698,211.025373 274.711812,211.266894 275.044335,211.486052 L273.905535,213.823442 L275.777314,214.735855 L276.917008,212.398466 C277.290649,212.528172 277.675016,212.631937 278.07011,212.708866 L277.886865,215.302089 L279.964237,215.447001 L280.145694,212.853778 C280.549727,212.833204 280.946608,212.784005 281.332763,212.708866 L282.134571,215.181328 L284.11451,214.537271 L283.311808,212.064809 C283.674722,211.895744 284.022441,211.701632 284.355857,211.483369 L286.028302,213.476367 L287.62298,212.13816 L285.949641,210.144267 C286.222273,209.852653 286.471665,209.542253 286.701392,209.215752 L288.997763,210.437671 L289.973878,208.597636 L287.680188,207.376612 C287.823208,207.008068 287.938518,206.627001 288.027906,206.234306 L290.613,206.507135 Z"/>
      <path fill="url(#bi-resonance-landing-a)" d="M319.267854,191.206493 C317.525687,191.692219 315.721842,190.673357 315.236466,188.93172 C314.751091,187.188294 315.767429,185.38404 317.509597,184.896525 C319.249082,184.411694 321.055609,185.429661 321.540984,187.171298 C322.02636,188.913829 321.008233,190.720767 319.267854,191.206493 Z M327.043695,187.446811 L326.77285,185.84472 L324.77414,186.183744 C324.683858,185.881395 324.576593,185.589781 324.447874,185.310689 L326.173058,184.24889 L325.323874,182.865957 L323.599584,183.926862 C323.405613,183.682657 323.194658,183.453659 322.969401,183.240762 L324.169878,181.610941 L322.863923,180.646645 L321.663446,182.278255 C321.392601,182.125292 321.111923,181.992008 320.821413,181.878403 L321.326454,179.914925 L319.755017,179.5106 L319.249976,181.473184 C318.793205,181.412357 318.321238,181.401623 317.850164,181.440982 L317.617756,179.479292 L316.006989,179.669825 L316.254593,181.769272 C315.809442,181.921341 315.390213,182.114558 314.999589,182.345345 L313.765144,180.739675 L312.47796,181.730807 L313.714193,183.336476 C313.490723,183.555635 313.286919,183.789105 313.098311,184.035099 L311.35078,183.009081 L310.530201,184.409904 L312.275944,185.435923 C312.153482,185.719487 312.050687,186.013785 311.966662,186.314345 L309.964376,186.017363 L309.726605,187.623032 L311.728891,187.920909 C311.722633,188.228625 311.734254,188.539024 311.770903,188.850318 L309.801691,189.326205 L310.18427,190.905038 L312.153482,190.429152 C312.263429,190.72345 312.393042,191.006119 312.539638,191.275371 L310.893115,192.455247 L311.83705,193.775564 L313.48536,192.597476 C313.695421,192.82558 313.922466,193.039371 314.161131,193.237061 L313.07507,194.947389 L314.445384,195.818655 L315.531446,194.105643 C315.811229,194.238927 316.100846,194.352531 316.397613,194.447351 L316.031123,196.441243 L317.626695,196.733752 L317.993184,194.73986 C318.300678,194.758645 318.60996,194.756856 318.923711,194.730915 L319.330425,196.716756 L320.91974,196.389361 L320.513025,194.405308 C320.81158,194.306016 321.097621,194.185255 321.372936,194.047499 L322.49207,195.735464 L323.843613,194.837363 L322.722691,193.149397 C322.96225,192.946341 323.182144,192.727182 323.385948,192.494606 L325.057499,193.640491 L325.975511,192.301389 L324.303066,191.15461 C324.446087,190.879097 324.570336,190.59285 324.673131,190.300341 L326.651282,190.736868 L326.999895,189.149984 L325.021744,188.714351 C325.052136,188.407529 325.059287,188.09713 325.044984,187.784046 L327.043695,187.446811 Z"/>
      <path fill="#E3E4E6" d="M243.809393,197.213932 C220.61774,192.911275 198.853609,205.4185 195.19765,225.148107 C193.754038,232.939405 195.353184,240.696711 199.244233,247.4933 C199.423903,247.808172 199.623238,248.111415 199.813633,248.421815 L193.248997,269.424328 L208.614752,258.517405 C214.547417,263.449807 222.057776,267.08336 230.57196,268.663089 C253.764507,272.965746 275.527744,260.459415 279.183703,240.728914 C282.837874,220.999308 266.999258,201.51659 243.809393,197.213932"/>
      <path fill="#E3E4E6" d="M272.56016,264.42108 L299.665209,228.547117 L316.281498,272.29378 L362.866821,276.372806 L335.762666,312.244981 L272.56016,264.42108 Z M358.161449,270.022585 L320.490768,266.723583 L307.054,231.349658 L358.161449,270.022585 Z M367.774209,269.879461 L304.572596,222.053772 L299.856498,218.485518 L296.288139,223.205023 L267.844956,260.850143 L264.279278,265.570543 L268.994482,269.137902 L332.194307,316.963591 L336.911298,320.534528 L340.476976,315.815918 L368.922841,278.169009 L372.4912,273.44861 L367.774209,269.879461 Z"/>
      <polygon fill="url(#bi-resonance-landing-a)" points="416.612 98.36 395.189 161.835 342.239 143.938 363.663 80.464"/>
      <path fill="url(#bi-resonance-landing-a)" d="M395.110414,74.6764917 C402.530492,77.1838406 405.690349,87.7436884 402.156851,98.215873 L404.567639,99.0307838 C408.549863,87.228443 404.67401,75.2212564 395.925631,72.2639623 C387.177251,69.3075627 376.818998,76.5031083 372.834986,88.3054491 L375.245773,89.1203598 C378.779271,78.6481753 387.692124,72.1691428 395.110414,74.6764917"/>
      <path fill="#AB3465" d="M250.270787,185.940702 C250.478166,187.254757 249.586076,188.490094 248.272076,188.699412 L185.482542,198.710917 C184.167648,198.920236 182.932309,198.023923 182.724036,196.709869 L168.03137,104.429053 C167.823097,103.115893 168.717868,101.879662 170.030974,101.670343 L232.821403,91.6588381 C234.133615,91.4495197 235.368954,92.345832 235.579015,93.6598868 L250.270787,185.940702 Z"/>
      <path fill="#FFF" d="M240.947912,173.695572 C241.112385,174.730536 240.407116,175.702883 239.3729,175.867475 L189.953091,183.747331 C188.919769,183.911923 187.948124,183.207039 187.782757,182.172075 L176.219557,109.541254 C176.054189,108.50629 176.759459,107.534838 177.793675,107.369351 L227.212589,99.4903899 C228.246806,99.324903 229.219344,100.028893 229.384712,101.064751 L240.947912,173.695572 Z"/>
      <path fill="#630042" d="M220.215942,185.578152 C220.612823,188.075661 218.913562,190.42289 216.416962,190.820953 C213.92215,191.219016 211.575721,189.516738 211.177946,187.018334 C210.78017,184.52172 212.482113,182.173596 214.976925,181.776428 C217.473525,181.378365 219.818166,183.080643 220.215942,185.578152"/>
      <path fill="#630042" d="M217.481034,186.014053 C217.638356,187.000712 216.967054,187.927439 215.980213,188.08398 C214.996054,188.241416 214.070891,187.569629 213.913569,186.58297 C213.756246,185.597205 214.427548,184.670479 215.413495,184.513043 C216.397654,184.356501 217.322818,185.028288 217.481034,186.014053"/>
      <path fill="#1D1F1F" d="M203.216536,99.8947144 C203.326483,100.582603 202.858985,101.229343 202.170699,101.33937 C201.483307,101.448501 200.837928,100.978877 200.727087,100.291883 C200.618928,99.6039943 201.086426,98.957254 201.774711,98.8481221 C202.462103,98.7380957 203.108377,99.206826 203.216536,99.8947144"/>
      <polygon fill="#E6E7E8" points="204.771 114.545 183.751 117.897 182.995 113.136 204.013 109.784"/>
      <polygon fill="#E6E7E8" points="205.933 121.844 184.913 125.195 184.156 120.435 205.175 117.084"/>
      <polygon fill="#E6E7E8" points="207.096 129.143 186.075 132.495 185.318 127.733 206.338 124.382"/>
      <polygon fill="#E6E7E8" points="208.257 136.442 187.238 139.794 186.48 135.033 207.499 131.682"/>
      <polygon fill="#E6E7E8" points="209.42 143.742 188.399 147.094 187.642 142.333 208.662 138.981"/>
      <polygon fill="#322870" points="232.847 168.154 192.771 174.543 189.113 151.576 229.19 145.186"/>
      <path fill="#630042" d="M224.833713 114.473119C225.579207 119.161316 222.388064 123.567738 217.702358 124.314665 213.017546 125.061591 208.614305 121.867249 207.868811 117.177263 207.122423 112.489961 210.313566 108.083539 215.000166 107.335717 219.684084 106.589685 224.086431 109.784922 224.833713 114.473119M227.724871 132.641424C228.472152 137.329621 225.280116 141.736043 220.596197 142.48297 215.910491 143.229897 211.50725 140.035554 210.759969 135.346463 210.014475 130.658266 213.207405 126.251844 217.892218 125.504023 222.57703 124.75799 226.979377 127.953228 227.724871 132.641424"/>
    </g>
    <g transform="translate(198.629 76.805)">
      <path fill="url(#bi-resonance-landing-a)" d="M116.259819,223.340827 C113.420864,234.075107 102.423488,240.473632 91.6969576,237.633521 C80.9704269,234.792515 74.5756269,223.7863 77.414582,213.05202 C80.2535371,202.318634 91.2500188,195.921004 101.978337,198.761115 C112.704868,201.602121 119.098774,212.607442 116.259819,223.340827"/>
      <polygon fill="#FFF" points="92.813 207.834 88.218 225.212 107.289 220.965"/>
      <path fill="#7D7D7D" d="M222.07606,173.112985 C221.627333,174.505757 220.136346,175.273258 218.744578,174.825102 L128.290427,145.737887 C126.896872,145.289731 126.132607,143.796772 126.579546,142.403104 L143.341538,90.2058791 C143.788476,88.8122118 145.279464,88.0447108 146.673019,88.4928669 L237.125382,117.580976 C238.518938,118.029133 239.284991,119.522092 238.836264,120.914865 L222.07606,173.112985 Z"/>
      <path fill="#FFF" d="M218.572149,166.886208 C218.203872,168.032987 216.894341,168.637684 215.648276,168.236043 L134.643304,142.18663 C133.395451,141.785883 132.683031,140.531761 133.051309,139.384983 L146.843839,96.432656 C147.212117,95.2867716 148.521647,94.6811793 149.767713,95.0819258 L230.773578,121.13134 C232.020537,121.532981 232.732958,122.787102 232.36468,123.933881 L218.572149,166.886208 Z"/>
      <path fill="#231F20" d="M192.12419 106.180903C191.926643 106.799018 191.263386 107.139832 190.645716 106.941248 190.027153 106.741769 189.686586 106.078927 189.88592 105.460812 190.085255 104.841801 190.746724 104.501883 191.364394 104.700467 191.984745 104.899945 192.323524 105.561893 192.12419 106.180903M133.89647 136.754995L133.051756 139.384893C132.683478 140.531672 133.395004 141.786688 134.643751 142.18654L215.647829 168.235954C216.894788 168.637595 218.203425 168.032897 218.572596 166.886118L219.415523 164.257114 133.89647 136.754995z"/>
      <path fill="#CACACA" d="M221.117555,200.736581 C221.11398,201.37527 219.804449,201.473668 218.193682,200.955739 L113.525984,167.296615 C111.914322,166.778686 110.90871,165.936045 111.276988,165.414538 L125.100804,145.871887 C125.469082,145.349485 126.897498,145.289552 128.290159,145.737708 L218.743416,174.824923 C220.136078,175.27308 221.262363,176.15508 221.258788,176.793769 L221.117555,200.736581 Z"/>
      <path fill="#7D7D7D" d="M221.072236,203.725899 C220.625297,205.12046 219.118219,205.882594 217.709468,205.429071 L111.31748,171.215343 C109.906942,170.761819 109.128374,169.265282 109.575313,167.87072 L110.132199,166.136239 C110.579138,164.742572 112.083533,163.980438 113.494072,164.433067 L219.886954,198.646795 C221.295705,199.100318 222.07606,200.597751 221.629121,201.991418 L221.072236,203.725899 Z"/>
      <polygon fill="#630042" points="127.617 148.631 125.878 151.029 218.019 180.66 217.98 177.691"/>
      <polygon fill="#630042" points="125.048 152.519 123.339 154.926 218.054 185.386 217.986 182.406"/>
      <polygon fill="#630042" points="122.721 156.272 121.026 158.682 217.933 189.845 218.042 186.924"/>
      <polygon fill="#630042" points="153.815 170.578 151.901 174.881 183.102 184.914 183.932 180.262"/>
      <path fill="#FF802E" d="M61.5447694,117.353768 C62.2285857,116.44851 63.5139816,116.267816 64.4203735,116.952127 C65.3258714,117.635542 65.5055408,118.923656 64.8235122,119.830703 L59.6855041,126.631763 C59.0034755,127.537916 57.7162918,127.718609 56.8116878,127.034299 C55.9079776,126.350883 55.7274143,125.061875 56.408549,124.156617 L61.5447694,117.353768 Z"/>
      <polygon fill="#FFF" points="123.512 50.288 126.562 34.625 112.105 42.122"/>
      <path fill="url(#bi-resonance-landing-a)" d="M112.340344,41.8411497 C112.258108,41.9314966 112.178553,42.0218434 112.105255,42.1211355 L59.025018,112.444981 C57.2113404,114.846776 57.6877771,118.262961 60.0869445,120.075265 L62.6032098,121.977022 C65.0023771,123.79201 68.4143078,123.314334 70.2288792,120.912539 L123.307328,50.5895878 C123.384202,50.4902957 123.449455,50.3910037 123.512026,50.2881335 L112.340344,41.8411497 Z"/>
      <path fill="#231F20" d="M124.554377,34.3216077 C125.824577,32.6372203 127.496128,31.7543258 128.281846,32.3482892 C129.069352,32.9422527 128.673364,34.7894434 127.404058,36.4756199 C126.131177,38.1600073 124.461413,39.0446909 123.676589,38.4498329 C122.889083,37.8549748 123.281495,36.0077842 124.554377,34.3216077"/>
      <path fill="#630042" d="M73.048169,117.148027 L61.9542547,108.76366 C61.499271,108.514088 60.4033771,107.773423 60.0199037,106.292987 C59.6212343,104.738305 60.1530914,102.9752 61.6047486,101.049291 C64.7780139,96.8521874 84.6873486,73.1526864 85.5329567,72.1454531 C85.7349731,71.8770961 86.1980016,71.0469785 86.0880547,70.5013193 C86.0701771,70.4100779 86.0210139,70.1739237 85.5588792,69.9055667 L87.0042792,67.4107412 C88.3263241,68.1782422 88.7732629,69.2185728 88.918071,69.9565546 C89.2970751,71.9325566 87.9294424,73.7591732 87.7703322,73.960441 C87.5298792,74.247583 67.0305853,98.6501793 63.9046955,102.78735 C62.7462302,104.320563 62.7176261,105.173043 62.8043322,105.545165 C62.9098098,106.013895 63.3236751,106.229475 63.3442343,106.237526 L63.5936261,106.389595 L74.7840792,114.847313 L73.048169,117.148027 Z"/>
      <path fill="#443E3F" d="M63.7445127,184.402853 C64.5338065,186.541658 63.442382,188.918407 61.3042269,189.71006 L40.3955371,197.439636 C38.2564882,198.230395 35.8823494,197.135498 35.0930555,194.996693 L17.8930637,148.411707 C17.1037698,146.272007 18.196982,143.897048 20.3351371,143.106289 L41.2438269,135.375818 C43.3810882,134.585954 45.7552269,135.679062 46.5445208,137.817867 L63.7445127,184.402853 Z"/>
      <path fill="#524B4C" d="M51.7434914,188.742633 C52.2235037,190.045953 51.5584588,191.491503 50.2578669,191.972757 C48.9554873,192.452221 47.5118751,191.78759 47.0318629,190.486059 C46.549169,189.183633 47.2151078,187.738978 48.5174873,187.257724 C49.8180792,186.776471 51.2616914,187.441996 51.7434914,188.742633"/>
      <path fill="#443E3F" d="M50.3154327,189.270312 C50.5076163,189.784663 50.2457102,190.355369 49.7308367,190.545902 C49.2168571,190.735541 48.648351,190.473446 48.4579551,189.959095 C48.2675592,189.44385 48.5294653,188.874038 49.0443388,188.68261 C49.5574245,188.492971 50.1268245,188.756856 50.3154327,189.270312"/>
      <path fill="#1D1F1F" d="M32.2667935,141.250779 C32.3990873,141.608589 32.2176302,142.007546 31.8591853,142.139041 C31.5025282,142.272325 31.102071,142.088948 30.9697771,141.730244 C30.8374833,141.37154 31.021622,140.973477 31.3800669,140.841982 C31.7385118,140.708698 32.1362873,140.892075 32.2667935,141.250779"/>
      <polygon fill="#FFF" points="60.412 181.774 35.918 190.831 20.346 148.655 44.84 139.598"/>
      <polygon fill="#E6E7E8" points="46.125 151.023 27.055 158.073 26.497 156.558 45.565 149.507"/>
      <polygon fill="#E6E7E8" points="47.276 154.14 28.208 161.191 27.648 159.675 46.717 152.624"/>
      <polygon fill="#E6E7E8" points="48.426 157.255 29.358 164.308 28.798 162.79 47.866 155.739"/>
      <polygon fill="#E6E7E8" points="49.577 160.37 30.507 167.421 29.948 165.905 49.016 158.855"/>
      <polygon fill="#E6E7E8" points="50.727 163.488 31.658 170.54 31.099 169.022 50.169 161.971"/>
      <polygon fill="#E6E7E8" points="51.878 166.603 32.808 173.653 32.249 172.138 51.319 165.088"/>
      <polygon fill="#E6E7E8" points="53.028 169.719 33.96 176.77 33.4 175.254 52.47 168.204"/>
      <polygon fill="#E6E7E8" points="45.02 148.034 25.954 155.084 23.794 149.235 42.862 142.186"/>
      <polygon fill="#AB3465" points="56.656 179.548 37.589 186.598 34.768 178.959 53.837 171.907"/>
      <polygon fill="#E6E7E8" points="159.732 139.546 142.381 133.835 153.551 99.853 170.901 105.564"/>
      <polygon fill="#A0A2A4" points="215.004 157.879 163.66 140.979 174.832 106.998 226.174 123.897"/>
      <path fill="#E3E4E6" d="M45.5596465 222.515272C45.5596465 225.378641 43.2391404 227.699929 40.3778384 227.699929 37.5165363 227.699929 35.197818 225.378641 35.197818 222.515272 35.197818 219.651902 37.5165363 217.331509 40.3778384 217.331509 43.2391404 217.331509 45.5596465 219.651902 45.5596465 222.515272M63.1046751 234.482115C63.1046751 236.332884 61.6047486 237.833894 59.7553159 237.833894 57.9049894 237.833894 56.4059567 236.332884 56.4059567 234.482115 56.4059567 232.631346 57.9049894 231.131231 59.7553159 231.131231 61.6047486 231.131231 63.1046751 232.631346 63.1046751 234.482115"/>
      <path fill="#9F0023" d="M91.8195976,18.1895951 C91.8195976,18.1895951 120.025904,33.3964917 135.221822,8.64771481 C135.221822,8.64771481 120.821455,40.5526783 91.8195976,18.1895951"/>
      <path fill="#722F6B" d="M0.239071429,32.2905925 C0.239071429,32.2905925 155.753206,27.7768278 155.753206,203.005897 C155.753206,203.005897 188.816843,19.6518724 0.239071429,32.2905925"/>
      <path fill="#3B296F" d="M80.0376657,1.18801643 C80.0376657,1.18801643 188.845804,-1.97054544 188.845804,120.631927 C188.845804,120.631927 211.978462,-7.65434665 80.0376657,1.18801643"/>
    </g>
  </g>
</svg>
