<?xml version="1.0" encoding="UTF-8"?>
<svg width="73px" height="60px" viewBox="0 0 73 60" version="1.1" xmlns="http://www.w3.org/2000/svg" xmlns:xlink="http://www.w3.org/1999/xlink">
    <!-- Generator: Sketch 46.2 (44496) - http://www.bohemiancoding.com/sketch -->
    <title>Group 16</title>
    <desc>Created with Sketch.</desc>
    <defs>
        <linearGradient x1="0%" y1="50%" x2="100%" y2="50%" id="linearGradient-1">
            <stop stop-color="#C33764" offset="0%"></stop>
            <stop stop-color="#1D2671" offset="100%"></stop>
        </linearGradient>
    </defs>
    <g id="Page-1" stroke="none" stroke-width="1" fill="none" fill-rule="evenodd">
        <g id="6.0-Brand-Insights_CopyNotReady" transform="translate(-244.000000, -2080.000000)">
            <g id="Group-16" transform="translate(244.000000, 2080.000000)">
                <g id="Group-17">
                    <g id="noun_631594_cc">
                        <g id="Group">
                            <path d="M42.1621622,0 C39.7297297,0 37.5405405,1.21621622 36.0810811,3 C34.7027027,1.21621622 32.5135135,0 30,0 L7.62162162,0 C3.48648649,0 0,3.56756757 0,7.78378378 L0,37.7837838 C0,42 3.48648649,45.4054054 7.78378378,45.4054054 L11.3513514,45.4054054 L11.3513514,60 C18.6486486,57.8108108 23.3513514,52.7027027 25.1351351,45.4054054 L30.0810811,45.4054054 C32.5135135,45.4054054 34.7027027,44.2702703 36.1621622,42.4864865 C37.5405405,44.2702703 39.7297297,45.4054054 42.1621622,45.4054054 L47.1081081,45.4054054 C48.8918919,52.7027027 54.3243243,57.8108108 60.8108108,60 L60.8108108,45.4054054 L65.1891892,45.4054054 C69.4054054,45.4054054 72.972973,42.0810811 72.972973,37.7837838 L72.972973,7.78378378 C72.972973,3.56756757 69.4864865,1.44028933e-15 65.2702703,1.44028933e-15 L42.1621622,0 L42.1621622,0 Z" id="Shape" fill="url(#linearGradient-1)" fill-rule="nonzero"></path>
                            <path d="M30.0810811,3.24324324 C31.4594595,3.24324324 32.6756757,3.89189189 33.5675676,5.02702703 L36.1621622,8.35135135 L38.7567568,5.02702703 C39.6486486,3.89189189 40.8648649,3.24324324 42.2432432,3.24324324 L65.3513514,3.24324324 C67.7837838,3.24324324 69.8108108,5.35135135 69.8108108,7.78378378 L69.8108108,37.7837838 C69.8108108,40.2162162 67.7837838,42.1621622 65.2702703,42.1621622 L60.8108108,42.1621622 L57.5675676,42.1621622 L57.5675676,45.4054054 L57.5675676,54.8918919 C53.9189189,52.5405405 51.3243243,48.972973 50.2702703,44.6756757 L49.6216216,42.2432432 L47.1081081,42.2432432 L42.1621622,42.2432432 C40.7837838,42.2432432 39.4864865,41.6756757 38.6756757,40.5405405 L36.0810811,37.2972973 L33.5675676,40.4594595 C32.7567568,41.5135135 31.4594595,42.1621622 30.0810811,42.1621622 L25.1351351,42.1621622 L22.6216216,42.1621622 L21.972973,44.5945946 C20.7567568,49.2972973 18.3243243,52.7837838 14.5945946,55.0540541 L14.5945946,45.4054054 L14.5945946,42.1621622 L11.3513514,42.1621622 L7.78378378,42.1621622 C5.27027027,42.1621622 3.24324324,40.2162162 3.24324324,37.7837838 L3.24324324,7.78378378 C3.24324324,5.35135135 5.27027027,3.24324324 7.7027027,3.24324324 L30.0810811,3.24324324 L30.0810811,3.24324324 Z" id="Path" stroke="#FFFFFF" stroke-width="2" fill="#FFFFFF"></path>
                            <circle id="Oval" fill="#000000" fill-rule="nonzero" cx="17.8378378" cy="25.1351351" r="4.05405405"></circle>
                            <circle id="Oval" fill="#000000" fill-rule="nonzero" cx="34.0540541" cy="25.1351351" r="4.05405405"></circle>
                            <path d="M57.152015,28.3204587 C56.8389009,27.9551589 56.6823439,27.4854878 56.5518797,27.0158168 L55.6908161,26.7027027 L54.5166384,29.9904003 C54.25571,29.9643074 53.9425959,30.0164931 53.6555747,30.1469573 C52.9510681,30.4600714 52.5335827,31.1384852 52.7684182,31.6603419 C53.0032538,32.1821987 53.7599461,32.3387557 54.4644527,32.0256416 C55.1689593,31.7125276 55.5864447,31.0341138 55.3516092,30.512257 C55.3516092,30.4861642 55.3255163,30.4600714 55.2994235,30.4339785 L55.2994235,30.4339785 L56.1604872,28.0073446 C56.1604872,28.0334374 56.1604872,28.0595303 56.1604872,28.0856231 C56.2387657,28.581387 56.4736012,29.1032438 56.9432723,29.2598008 C57.1781078,29.3380793 57.4651291,29.3119865 57.6999646,29.233708 C57.9348001,29.1554295 58.1696357,28.9988724 58.3783784,28.8684083 C57.960893,28.9466868 57.4651291,28.6857584 57.152015,28.3204587 Z" id="Shape" fill="#000000" fill-rule="nonzero"></path>
                        </g>
                    </g>
                    <g id="Group-2" transform="translate(44.016451, 10.540541)" stroke="#000000" stroke-width="0.5" fill="#000000">
                        <path d="M15.3461602,23.0684122 L17.8482605,23.0684122 L17.8482605,7.01403168 L15.3461602,7.01403168 L15.3461602,23.0684122 Z M18.2600611,23.8584899 L14.9343597,23.8584899 C14.7070458,23.8584899 14.5225591,23.6815125 14.5225591,23.463451 L14.5225591,6.61899279 C14.5225591,6.40093132 14.7070458,6.2239539 14.9343597,6.2239539 L18.2600611,6.2239539 C18.487375,6.2239539 18.6718617,6.40093132 18.6718617,6.61899279 L18.6718617,23.463451 C18.6718617,23.6815125 18.487375,23.8584899 18.2600611,23.8584899 L18.2600611,23.8584899 Z" id="Fill-367"></path>
                        <path d="M15.1887987,23.8584899 L0.371086033,23.8584899 C0.166246543,23.8584899 0,23.6815125 0,23.463451 L0,6.61899279 C0,6.40093132 0.166246543,6.2239539 0.371086033,6.2239539 L15.1887987,6.2239539 C15.3936382,6.2239539 15.5598847,6.40093132 15.5598847,6.61899279 C15.5598847,6.83705425 15.3936382,7.01403168 15.1887987,7.01403168 L0.742172065,7.01403168 L0.742172065,23.0684122 L15.1887987,23.0684122 C15.3936382,23.0684122 15.5598847,23.2453896 15.5598847,23.463451 C15.5598847,23.6815125 15.3936382,23.8584899 15.1887987,23.8584899" id="Fill-368"></path>
                        <path d="M13.1110178,6.2239539 C12.9039519,6.2239539 12.7368022,6.07111837 12.7368022,5.88280317 L12.7368022,4.72789423 C12.7368022,2.49722334 10.7459752,0.682301458 8.29910415,0.682301458 C5.85173411,0.682301458 3.86040815,2.49722334 3.86040815,4.72789423 L3.86040815,5.88280317 C3.86040815,6.07111837 3.69325852,6.2239539 3.48619255,6.2239539 C3.27962554,6.2239539 3.11197695,6.07111837 3.11197695,5.88280317 L3.11197695,4.72789423 C3.11197695,2.1210478 5.43909904,0 8.29910415,0 C11.1586103,0 13.4852334,2.1210478 13.4852334,4.72789423 L13.4852334,5.88280317 C13.4852334,6.07111837 13.3175849,6.2239539 13.1110178,6.2239539" id="Fill-369"></path>
                        <path d="M16.2229768,6.2239539 C16.0163998,6.2239539 15.8487432,6.07111837 15.8487432,5.88280317 L15.8487432,4.72789423 C15.8487432,2.49722334 13.8578204,0.682301458 11.4098337,0.682301458 C8.96284489,0.682301458 6.9724211,2.49722334 6.9724211,4.72789423 L6.9724211,5.88280317 C6.9724211,6.07111837 6.80476445,6.2239539 6.5981875,6.2239539 C6.39161055,6.2239539 6.2239539,6.07111837 6.2239539,5.88280317 L6.2239539,4.72789423 C6.2239539,2.1210478 8.55018997,0 11.4098337,0 C14.2704753,0 16.5972104,2.1210478 16.5972104,4.72789423 L16.5972104,5.88280317 C16.5972104,6.07111837 16.4295537,6.2239539 16.2229768,6.2239539" id="Fill-370"></path>
                    </g>
                </g>
            </g>
        </g>
    </g>
</svg>