<svg xmlns="http://www.w3.org/2000/svg" xmlns:xlink="http://www.w3.org/1999/xlink" width="183" height="270" viewBox="0 0 183 270">
  <defs>
    <polygon id="ci-advantage-adv-a" points="0 91.946 0 .513 70.52 .513 70.52 91.946"/>
    <path id="ci-advantage-adv-c" d="M32.1972314,4.40647839 C37.2994067,1.48431672 42.1226632,0.100845262 46.3948846,0.100845262 C56.8271325,0.100845262 63.9871852,8.35105921 63.9871852,22.6176868 C63.9871852,42.7320121 49.7555175,67.1890881 32.1972314,77.2479379 C14.6355438,87.3067877 0.400474621,79.1510547 0.400474621,59.0367294 C0.400474621,38.9224041 14.6355438,14.4653282 32.1972314,4.40647839 Z M6.82241266,55.3620943 C6.82241266,66.7470521 12.536849,73.3303516 20.8635992,73.3303516 C24.2752538,73.3303516 28.122294,72.2269488 32.1972314,69.8919189 C46.2078049,61.8677844 57.5686486,42.3473396 57.5686486,26.2956963 C57.5686486,10.2440531 46.2078049,3.7383629 32.1972314,11.7624974 C18.1832564,19.7900062 6.82241266,39.3070767 6.82241266,55.3620943 Z"/>
    <linearGradient id="ci-advantage-adv-e" x1="2.366%" x2="99.404%" y1="50%" y2="50%">
      <stop offset="0%" stop-color="#24C6DC"/>
      <stop offset="100%" stop-color="#514A9D"/>
    </linearGradient>
    <polygon id="ci-advantage-adv-f" points=".61 .622 42.811 .622 42.811 48.13 .61 48.13 .61 .622"/>
  </defs>
  <g fill="none" fill-rule="evenodd">
    <polygon fill="#656A69" points="117 123 117.028 123.012 117.004 123"/>
    <path fill="#656A69" d="M161.024,149.016 L161,149 L161.024,149.016 Z"/>
    <polygon fill="#4C5553" points="83 205 86 205 86 186 83 186"/>
    <polygon fill="#737C79" points="71 183.436 82.342 191 89 186.564 77.658 179"/>
    <g transform="translate(108 107)">
      <path fill="#D0D2D3" d="M22.6433483,3.32307047 C22.4237877,2.05997771 23.2682517,0.86105277 24.5315698,0.638154048 C25.7915101,0.418632579 26.9974047,1.26294592 27.2169653,2.52603868 C27.5952852,4.69085808 26.8521569,6.75435988 26.0549829,8.96308358 C25.396301,10.7901776 24.6903291,12.7523618 24.8997561,14.5119108 C25.3794117,18.4903153 25.0956718,21.6412927 24.8288212,24.5423533 C24.6025048,27.0617843 24.3930777,29.3853346 24.8254433,31.8642386 C25.4976366,35.7176847 26.3387228,38.5579548 27.4331481,40.8983913 C28.5208177,43.2151872 29.8956051,45.1267126 31.6453345,47.1294238 C32.4864206,48.0885637 32.3884628,49.5509145 31.4257739,50.3952278 C30.4630849,51.2361639 29.0004733,51.1348463 28.1593871,50.1723291 C26.146185,47.865665 24.5450812,45.6299233 23.2446067,42.8571983 C21.9576436,40.1081141 20.9915768,36.8963461 20.2518263,32.6646477 C19.7248808,29.6386286 19.9647086,26.9976165 20.2248035,24.1269512 C20.4612534,21.485939 20.7247261,18.6186509 20.2957384,15.0556486 C19.9579528,12.2423966 20.8598404,9.73309735 21.7009265,7.40279253 C22.2785399,5.80197443 22.815619,4.3058512 22.6433483,3.32307047"/>
      <path fill="#E71A4B" d="M30.5880656,44.1202911 C27.9938722,45.613037 25.8928458,49.2570934 25.8928458,52.2493399 C25.8928458,55.2415864 27.9938722,56.4540203 30.5880656,54.9578971 C33.1788811,53.4617738 35.2832854,49.8210947 35.2832854,46.8288482 C35.2832854,43.8366018 33.1788811,42.6241678 30.5880656,44.1202911"/>
      <path fill="#414042" d="M35.5953993,19.7540835 C51.1639375,10.7672123 63.7836074,18.0519478 63.7836074,36.0223129 C63.7836074,53.9994326 51.1639375,75.8536391 35.5953993,84.837133 C20.0268611,93.8273814 7.40719119,86.542646 7.40719119,68.5689036 C7.40719119,50.5951612 20.0268611,28.7375775 35.5953993,19.7540835 M35.5953993,11.5169626 C16.088281,22.7801025 0.273159375,50.16625 0.273159375,72.6857754 C0.273159375,95.2086781 16.088281,104.337394 35.5953993,93.0776312 C55.1058954,81.8144912 70.9176392,54.431721 70.9176392,31.9088184 C70.9176392,9.3859157 55.1058954,0.257199869 35.5953993,11.5169626"/>
    </g>
    <path d="M147,123.38718 C129.327592,133.636539 115,158.560257 115,179.055537 C115,199.550817 129.327592,207.857577 147,197.611656 C164.672408,187.362297 179,162.43514 179,141.946737 C179,127.406469 171.789986,119 161.293356,119 C156.989943,119 152.135338,120.409674 147,123.38718 M121.460255,175.311306 C121.460255,158.952215 132.898363,139.062063 147,130.885956 C161.101637,122.70641 172.536322,129.335315 172.536322,145.690968 C172.536322,162.050059 161.101637,181.933334 147,190.116318 C142.902001,192.492133 139.026533,193.616434 135.596127,193.616434 C127.215256,193.619872 121.460255,186.911889 121.460255,175.311306"/>
    <g transform="translate(0 114)">
      <path fill="#231F20" d="M147.717527,13.2132511 C163.258434,4.2040241 175.855708,11.5068811 175.855708,29.5253351 C175.855708,47.5471747 163.258434,69.4557458 147.717527,78.4615871 C132.176619,87.4741997 119.579346,80.1713427 119.579346,62.1528887 C119.579346,44.1344348 132.176619,22.222478 147.717527,13.2132511 M147.717527,4.95902508 C128.245029,16.2467976 112.457975,43.701071 112.457975,66.2800017 C112.457975,88.8589325 128.245029,98.0103569 147.717527,86.7225844 C167.190024,75.4314262 182.977078,47.9771528 182.977078,25.4016077 C182.977078,2.81929135 167.190024,-6.32874746 147.717527,4.95902508"/>
      <path fill="#D0D2D3" d="M32.2542119,105.244147 C31.6911111,106.395269 30.3120199,106.865875 29.1655871,106.303857 C28.0225262,105.741838 27.5470938,104.353719 28.1101946,103.205983 L59.3336285,39.4473345 C59.8933575,38.3029833 61.2758205,37.825606 62.4188815,38.3876246 C63.5653142,38.9496433 64.0373748,40.3377617 63.4776459,41.4888843 L32.2542119,105.244147 Z"/>
      <g transform="translate(0 60.942)">
        <mask id="ci-advantage-adv-b" fill="#fff">
          <use xlink:href="#ci-advantage-adv-a"/>
        </mask>
        <path fill="#414042" d="M35.2605633,13.6032785 C50.8014712,4.59743717 63.3987443,11.8969085 63.3987443,29.9153625 C63.3987443,47.9338164 50.8014712,69.8423875 35.2605633,78.8516145 C19.7196554,87.8642271 7.12238224,80.5579845 7.12238224,62.5395305 C7.12238224,44.5244622 19.7196554,22.6125055 35.2605633,13.6032785 M35.2605633,5.34905249 C15.7846935,16.636825 -0.00236030278,44.0910984 -0.00236030278,66.6700292 C-0.00236030278,89.2489599 15.7846935,98.4003844 35.2605633,87.1092262 C54.7330612,75.8214536 70.520115,48.3671802 70.520115,25.7882495 C70.520115,3.21270442 54.7330612,-5.9421057 35.2605633,5.34905249" mask="url(#ci-advantage-adv-b)"/>
      </g>
    </g>
    <g transform="translate(4 182)">
      <mask id="ci-advantage-adv-d" fill="#fff">
        <use xlink:href="#ci-advantage-adv-c"/>
      </mask>
      <path d="M32.1972314,4.40647839 C14.6355438,14.4653282 0.400474621,38.9224041 0.400474621,59.0367294 C0.400474621,79.1510547 14.6355438,87.3067877 32.1972314,77.2479379 C49.7555175,67.1890881 63.9871852,42.7320121 63.9871852,22.6176868 C63.9871852,8.35105921 56.8271325,0.100845262 46.3948846,0.100845262 C42.1226632,0.100845262 37.2994067,1.48431672 32.1972314,4.40647839 M6.82241266,55.3620943 C6.82241266,39.3070767 18.1832564,19.7900062 32.1972314,11.7624974 C46.2078049,3.7383629 57.5686486,10.2440531 57.5686486,26.2956963 C57.5686486,42.3473396 46.2078049,61.8677844 32.1972314,69.8919189 C28.122294,72.2269488 24.2752538,73.3303516 20.8635992,73.3303516 C12.536849,73.3303516 6.82241266,66.7470521 6.82241266,55.3620943" mask="url(#ci-advantage-adv-d)"/>
    </g>
    <g transform="translate(4 55)">
      <path fill="#FFF" d="M61.1249625,100.086254 C59.5117125,101.294349 57.2369625,100.953079 56.0422125,99.3218095 C54.8474625,97.6939524 55.1849625,95.390381 56.7948375,94.1856984 L128.405587,40.5517302 C130.018837,39.3402222 132.293587,39.6814921 133.488337,41.3127619 C134.683087,42.9440317 134.348962,45.2476032 132.735712,46.4522857 L61.1249625,100.086254 Z"/>
      <path fill="#FFF" d="M47.951325,79.1834762 C47.2122,77.2996667 48.12345,75.1633175 49.98645,74.4193492 C51.84945,73.6719683 53.9622,74.5899841 54.701325,76.4772063 L84.5127,152.140143 C85.251825,154.023952 84.340575,156.160302 82.477575,156.90427 C80.614575,157.651651 78.501825,156.733635 77.7627,154.846413 L47.951325,79.1834762 Z"/>
      <path fill="#231F20" d="M35.343,136.032889 C50.898375,126.951698 63.507375,134.312889 63.507375,152.47527 C63.507375,170.637651 50.898375,192.721222 35.343,201.802413 C19.787625,210.887016 7.178625,203.522413 7.178625,185.360032 C7.178625,167.197651 19.787625,145.114079 35.343,136.032889 M35.343,127.71273 C15.849,139.090667 0.04725,166.764238 0.04725,189.523524 C0.04725,212.28281 15.849,221.503921 35.343,210.125984 C54.833625,198.748048 70.635375,171.074476 70.635375,148.31519 C70.635375,125.555905 54.833625,116.331381 35.343,127.71273"/>
      <path fill="#E71A4B" d="M35.343,161.038413 C31.617,163.215714 28.593,168.505397 28.593,172.86 C28.593,177.207778 31.617,178.975556 35.343,176.798254 C39.069,174.620952 42.089625,169.33127 42.089625,164.976667 C42.089625,160.628889 39.069,158.864524 35.343,161.038413"/>
      <path fill="#E71A4B" d="M28.5946875,157.099135 C24.8686875,159.276437 21.8480625,164.566119 21.8480625,168.91731 C21.8480625,173.2685 24.8686875,175.032865 28.5946875,172.858976 C32.3206875,170.681675 35.3446875,165.391992 35.3446875,161.037389 C35.3446875,156.689611 32.3206875,154.921833 28.5946875,157.099135"/>
      <path fill="#FFF" d="M125.52705,29.1860794 C125.3313,27.1657619 126.792675,25.3638571 128.7873,25.1659206 C130.7853,24.9679841 132.5673,26.4422698 132.76305,28.4625873 L135.6183,57.818619 C135.81405,59.8355238 134.352675,61.6374286 132.354675,61.8353651 C130.356675,62.0333016 128.57805,60.5556032 128.3823,58.5386984 L125.52705,29.1860794 Z"/>
      <path fill="#FFF" d="M130.444425,55.7713413 C130.22505,54.4984048 131.0688,53.2834841 132.33105,53.058246 C133.5933,52.8364206 134.7948,53.6930079 135.014175,54.9659444 C135.2268,56.1842778 136.188675,58.4741984 137.234925,60.9620556 C138.70305,64.4498333 140.319675,68.2959444 140.6538,71.0977698 C141.13305,75.1213413 140.846175,78.3053889 140.582925,81.2368968 C140.3568,83.7827698 140.144175,86.1307063 140.576175,88.635627 C141.251175,92.5295159 142.09155,95.3961825 143.18505,97.7645952 C144.2718,100.102294 145.645425,102.040706 147.3903,104.057611 C148.23405,105.03023 148.136175,106.507929 147.1743,107.35769 C146.212425,108.207452 144.75105,108.108484 143.910675,107.135865 C141.90255,104.808405 140.299425,102.545786 139.00005,99.7439603 C137.714175,96.9626111 136.7523,93.7205476 136.0098,89.4410238 C135.4833,86.3866587 135.71955,83.7145159 135.9828,80.8171349 C136.21905,78.1484048 136.4823,75.2510238 136.053675,71.6472143 C135.797175,69.4938016 134.31555,65.9787222 132.975675,62.7946746 C131.8113,60.0303889 130.741425,57.4845159 130.444425,55.7713413"/>
      <path fill="#E71A4B" d="M144.480037,99.7729683 C141.888037,101.288206 139.788788,104.963683 139.788788,107.990746 C139.788788,111.014397 141.888037,112.239556 144.480037,110.72773 C147.072037,109.215905 149.171287,105.537016 149.171287,102.513365 C149.171287,99.4897143 147.072037,98.2645556 144.480037,99.7729683"/>
      <path fill="#C9C9C6" d="M97.9995375,5.26715873 C96.7339125,4.53342857 96.3019125,2.90215873 97.0241625,1.62580952 C97.7497875,0.349460317 99.3664125,-0.0941904762 100.628663,0.639539683 L113.305163,8.03826984 C114.985913,9.01771429 116.113163,11.4304921 117.240413,13.8364444 C118.020038,15.4950159 118.799663,17.157 119.022413,17.2866825 L119.032538,17.2866825 L124.753163,20.6277143 L124.749788,20.631127 L130.460288,23.9653333 L130.473788,23.9653333 L136.191038,27.3029524 L136.187663,27.3097778 L141.898163,30.6439841 C142.650788,31.0773968 141.381788,29.9716825 141.621413,29.7430317 L141.621413,29.7327937 C143.281913,28.1254127 144.952538,26.5180317 147.618787,28.0708095 L160.291912,35.4695397 C161.557538,36.1998571 161.989537,37.8379524 161.267287,39.1143016 C160.541663,40.3906508 158.925038,40.8343016 157.662787,40.1005714 L144.986288,32.6984286 C144.230288,32.2581905 145.506038,33.3741429 145.266413,33.609619 L145.263037,33.6027937 C143.595788,35.2135873 141.925162,36.8209683 139.269038,35.2716032 L133.551788,31.9339841 L133.538288,31.9339841 L127.821038,28.5963651 L127.821038,28.5895397 L122.113913,25.2553333 L122.103788,25.2553333 L116.383163,21.9177143 L116.386538,21.9143016 C114.709163,20.9314444 113.581913,18.5220794 112.454663,16.1195397 C111.678413,14.4609683 110.898788,12.7989841 110.672663,12.6693016 L97.9995375,5.26715873 Z"/>
      <path fill="#E71A4B" d="M111.987225,13.0358254 C111.53835,13.0358254 111.07935,12.9197937 110.66085,12.6774921 L97.9911,5.2787619 C96.7221,4.53820635 96.286725,2.89328571 97.015725,1.61352381 C97.7481,0.326936508 99.37485,-0.109888889 100.640475,0.630666667 L113.316975,8.02939683 C114.5826,8.77336508 115.0146,10.4114603 114.282225,11.6946349 C113.79285,12.5546349 112.90185,13.0358254 111.987225,13.0358254 M158.973975,40.4670952 C158.5251,40.4670952 158.0661,40.3510635 157.650975,40.1087619 L144.97785,32.7100317 C143.70885,31.9694762 143.27685,30.3245556 144.00585,29.0447937 C144.738225,27.761619 146.364975,27.321381 147.627225,28.0619365 L160.303725,35.4606667 C161.56935,36.2046349 162.004725,37.8461429 161.27235,39.1293175 C160.7796,39.9859048 159.8886,40.4670952 158.973975,40.4670952"/>
      <path fill="#FFF" d="M37.4439375 169.889929C36.9140625 171.063897 35.5404375 171.579214 34.3828125 171.043421 33.2218125 170.51104 32.7088125 169.118659 33.2386875 167.948103L61.5718125 105.598103C62.1016875 104.427548 63.4753125 103.908817 64.6363125 104.444611 65.7939375 104.980405 66.3069375 106.372786 65.7770625 107.543341L37.4439375 169.889929zM126.398812 53.031627C127.286437 51.2126587 129.470062 50.4652778 131.268937 51.3628175 133.071187 52.2603571 133.810312 54.468373 132.922687 56.2873413L84.4003125 155.119087C83.5093125 156.938056 81.3290625 157.688849 79.5301875 156.787897 77.7313125 155.89377 76.9888125 153.685754 77.8798125 151.866786L126.398812 53.031627z"/>
      <path fill="#4C5553" d="M83.2636125,139.125817 C78.5183625,141.896929 74.6708625,148.637008 74.6708625,154.17923 C74.6708625,159.195897 77.8231125,161.513119 81.9372375,159.854548 L81.9372375,168.021135 L84.5899875,168.021135 L84.5899875,158.305183 C88.7041125,155.155262 91.8563625,149.159151 91.8563625,144.145897 C91.8563625,138.603675 88.0088625,136.354706 83.2636125,139.125817"/>
    </g>
    <polygon points="83 223.439 94.343 231 101 226.565 89.657 219"/>
    <g transform="translate(33)">
      <path fill="#D0D2D3" d="M17.6557122,133.948403 C16.9132488,132.087498 17.8286146,129.977123 19.7000293,129.242201 C21.5714439,128.503907 23.6937366,129.410761 24.4362,131.275037 L30.0131512,145.285767 C30.7556146,147.150044 29.8402488,149.257048 27.9688341,149.998713 C26.0974195,150.733636 23.9751268,149.82341 23.2326634,147.962505 L17.6557122,133.948403 Z"/>
      <path fill="#D0184D" d="M27.6925293,139.518983 L39.4871878,124.500263 C41.4060659,122.056139 39.9889439,117.83539 39.629578,117.292626 C38.9142366,116.207097 37.6395049,115.718273 36.3783341,116.04528 L3.12004146,124.655338 C-0.551592683,125.606018 0.251895122,132.634982 2.37757805,133.851987 L16.1351878,141.754093 C20.0373585,143.989202 24.9227,143.045264 27.6925293,139.518983"/>
      <path fill="#E71A4B" d="M27.6925293,135.769191 L39.4871878,120.753842 C40.2872854,119.728996 40.3449195,118.377142 39.629578,117.294985 C38.9142366,116.206086 37.6395049,115.720632 36.3783341,116.044268 L3.12004146,124.654327 C1.91989512,124.964478 1.07572439,125.908415 0.912992683,127.128792 C0.743480488,128.355911 1.30626098,129.492007 2.37757805,130.105566 L16.1351878,138.004301 C20.0373585,140.242781 24.9227,139.298844 27.6925293,135.769191"/>
      <path fill="#000" d="M35.2971854,238.479035 C35.8836976,236.783318 39.3315756,235.337071 40.6876732,235.650593 C43.3320634,236.25741 49.3938195,237.063128 49.2988927,236.921538 C49.5938439,237.373279 54.1469415,236.699038 54.5605512,237.34631 C55.3267463,237.636233 56.5472341,238.010437 58.2423561,238.479035 C59.8798439,238.954375 60.5850146,240.090471 60.3476976,241.870467 C60.1103805,243.670691 59.6798195,244.864098 59.0288927,245.454059 C58.3779659,245.983338 56.9811854,246.671064 54.8317707,247.544206 C54.7165024,247.645342 54.5775024,247.746479 54.4012098,247.800418 C53.6316244,248.157766 52.9061122,248.622992 52.194161,249.192726 C51.1126732,250.065868 50.5024293,251.343555 49.4785756,252.263894 C47.149478,254.354041 42.4404293,253.740482 39.6909415,252.948249 C33.4495024,251.148025 33.5885024,243.404366 35.2971854,238.479035"/>
      <path fill="#787878" d="M55.5227024,240.750553 L55.5227024,242.045096 C55.4650683,242.571004 55.2074098,243.980168 54.7361659,246.313042 C54.6175073,246.842321 54.4988488,247.334517 54.4005317,247.799744 C53.6309463,248.157091 52.9054341,248.622318 52.1968732,249.192051 C52.2545073,249.013378 52.2918,248.821219 52.2918,248.585234 C52.7460927,245.625316 52.9834098,243.552025 52.9834098,242.395701 L52.7291415,240.652788 L55.5227024,240.750553 Z"/>
      <path fill="#000" d="M113.268049,240.213857 C113.257878,240.53075 118.190683,241.832036 118.678878,241.889346 C121.547024,242.212982 124.672829,242.438853 127.59861,242.890594 C129.639537,243.207487 130.737976,246.140436 129.761585,247.853009 C129.015732,249.22846 125.37461,251.123078 118.824659,253.5908 C117.929634,253.931292 116.946463,254.248185 115.868366,254.531367 C115.020805,254.774093 114.091878,255.013449 113.057854,255.188752 C112.17978,255.343827 111.230512,255.488789 110.250732,255.637122 C109.433683,255.758485 108.464073,256.324848 107.653805,256.58106 C105.789171,257.174392 104.134732,257.84189 102.127707,257.760982 C99.3951707,257.653103 94.2013171,256.412499 94.0385854,253.051407 C93.9199268,250.590427 94.3131951,248.072137 94.6488293,245.641498 C98.4730244,243.038927 102.893902,240.213857 113.268049,240.213857"/>
      <path fill="#787878" d="M117.411266,246.534867 C117.716388,246.582064 117.913022,246.605663 118.011339,246.605663 C117.862168,246.848389 117.563827,247.937289 117.116315,249.902702 C116.76712,251.52088 116.35012,253.05815 115.868705,254.531367 C115.017754,254.774093 114.092217,255.013449 113.058193,255.188752 C113.342973,254.416746 113.658266,253.455952 114.007461,252.340083 C114.987241,249.390278 115.485607,247.556343 115.485607,246.811306 C115.634778,246.811306 115.967022,246.764109 116.451827,246.662973 C116.997656,246.582064 117.316339,246.534867 117.411266,246.534867"/>
      <path fill="#F2C15B" d="M33.9149829,121.632378 C33.9149829,121.632378 27.6599829,137.355681 36.7593976,145.861232 C44.4349098,153.035157 43.5398854,173.626481 44.3196415,177.17636 C44.3196415,177.17636 42.5770561,183.544567 41.2480805,190.883681 C39.9191049,198.226167 39.3461537,233.38784 37.0034951,238.549156 C37.0034951,238.549156 42.5295927,243.81835 55.5243976,238.549156 C55.5243976,238.549156 62.3794707,193.155874 66.9190073,186.989939 C71.4585439,180.824004 68.2683244,140.844878 68.2683244,140.844878 L59.5282756,127.434223 L33.9149829,121.632378 Z"/>
      <path fill="#F2C15B" d="M84.0733024,131.690033 C84.0733024,131.690033 100.105766,159.266494 103.068839,168.550794 C106.031912,177.831722 104.963985,191.599725 106.747254,206.46337 C108.533912,221.327015 111.134229,242.943185 111.134229,242.943185 C111.134229,242.943185 101.580522,249.007984 94.477961,246.614428 C94.477961,246.614428 95.9289854,239.760767 92.7218146,231.524912 C89.5180341,223.292428 81.3543268,192.300936 82.4900585,179.207174 C82.4900585,179.207174 67.9323512,156.68415 61.409522,153.211809 C54.8900829,149.739467 47.092522,137.019909 50.2691805,123.733988 C53.445839,110.441325 84.0733024,131.690033 84.0733024,131.690033"/>
      <polygon fill="#F5D6A0" points="53.33 43.469 51.601 52.727 64.785 55.602 65.833 46.749"/>
      <path fill="url(#ci-advantage-adv-e)" d="M41.6457561,59.8509925 C43.354439,56.0381591 46.0496829,49.7508609 57.4510732,49.5148765 C68.8490732,49.2788921 75.9312927,53.3277099 79.1215122,59.3419405 C82.6371951,65.9629881 84.4272439,64.0548858 78.9553902,84.9159053 C73.4835366,105.773554 79.8266829,120.421441 85.2985366,128.58313 C90.7703902,136.744818 85.2985366,135.837964 85.2985366,135.837964 C85.2985366,135.837964 46.690439,146.052717 32.553122,123.38136 C32.553122,123.38136 39.2183415,103.585641 39.2183415,95.8756943 C39.2183415,88.1657474 38.7369268,66.3439343 41.6457561,59.8509925"/>
      <path fill="#EFC3A1" d="M64.7268756,54.5143742 C77.3521439,49.2654073 86.5329244,70.3556688 88.946778,75.985582 C90.0350463,78.5274709 90.4825585,80.2164448 91.0656805,81.5952679 C91.5470951,81.7503433 92.0861439,81.891934 92.7099488,82.0267822 C98.1309488,83.1898481 108.284729,86.0351455 115.373729,86.8408636 C119.357266,87.2959764 123.706949,87.5892712 124.490095,87.6465817 C136.291534,88.5163527 139.312241,88.0477552 137.969705,91.4728999 C134.901534,99.3143239 119.245388,99.0311426 117.580778,96.8263742 C116.4959,95.3834983 106.545534,96.3004662 97.7512415,95.5014905 C88.8382902,94.6957724 80.0406073,92.7000187 78.5522902,88.9984351 C76.4706805,83.8101499 72.029461,78.4937588 64.9574122,69.4622994 C57.8853634,60.4274687 64.7268756,54.5143742 64.7268756,54.5143742"/>
      <path fill="#BA9653" d="M47.2989878,8.99669496 C47.2989878,8.99669496 44.159622,3.66007668 38.3012805,2.24417038 C32.4463293,0.83163528 24.6182561,2.60826057 24.8691341,12.4285821 C25.1234024,22.2421613 26.1845488,46.1709778 17.5631585,50.947976 C17.5631585,50.947976 23.8961341,49.4309335 25.672622,45.7630619 C25.672622,45.7630619 26.0150366,52.1750948 20.8381341,57.4240617 C27.757622,52.4919881 33.9041341,47.1048017 35.0059634,38.2351601 C35.4399146,34.7189928 35.4738171,31.1421438 34.8805244,27.6428325 C34.2295976,23.8097718 33.4362805,19.4710304 35.3992317,15.8672117 C36.2976463,14.2220635 38.5894512,12.2667643 40.2235488,14.427707 C43.2442561,18.4225855 47.1464268,11.8217652 47.1464268,11.8217652 L47.2989878,8.99669496 Z"/>
      <path fill="#EFC3A1" d="M78.0725707,23.4820907 C78.0725707,23.4820907 80.5271073,44.7476548 66.789839,47.326627 C53.0525707,49.9055992 55.0358634,31.0369622 55.0358634,31.0369622 L63.0402293,19.84456 L78.0725707,23.4820907 Z"/>
      <g transform="translate(36.374)">
        <mask id="ci-advantage-adv-g" fill="#fff">
          <use xlink:href="#ci-advantage-adv-f"/>
        </mask>
        <path fill="#BA9653" d="M42.8024192,21.4280152 C42.8024192,21.4280152 43.6126875,4.06630694 29.1126143,1.23786554 C15.6601265,-1.38830353 2.24154111,4.05956453 0.705760624,23.42714 C-0.82662962,42.7947155 16.3856387,50.841783 30.4144679,47.3289869 C30.4144679,47.3289869 28.4752484,39.1571848 28.7837606,33.4800748 C29.0956631,27.8063359 32.180785,23.7002077 33.6216387,32.3170089 C33.6216387,32.3170089 40.6157118,26.5286491 42.8024192,21.4280152" mask="url(#ci-advantage-adv-g)"/>
      </g>
    </g>
  </g>
</svg>
