<svg xmlns="http://www.w3.org/2000/svg" width="167" height="311" viewBox="0 0 167 311">
  <g fill="none" fill-rule="evenodd">
    <path fill="#9B9B9B" d="M167,267.501214 C167,291.525577 129.613966,311 83.5012117,311 C37.3860342,311 0,291.525577 0,267.501214 C0,243.474423 37.3860342,224 83.5012117,224 C129.613966,224 167,243.474423 167,267.501214"/>
    <path fill="#0F0F6A" d="M41.5360505,150 C41.4472582,150 41.3584658,149.977754 41.2766834,149.930789 C41.0149796,149.777536 40.9238506,149.431481 41.0687223,149.154637 L50.9947735,130.292173 C51.1373086,130.017801 51.4644384,129.918928 51.7238055,130.072181 C51.9831727,130.225434 52.0766383,130.571489 51.9317666,130.845861 L42.0057154,149.710797 C41.9075764,149.896184 41.7229818,150 41.5360505,150"/>
    <polygon fill="#C18C37" points="57.637 133.572 30.829 149.251 27 193.976 42.831 204 75 183.438 72.702 135.37 66.58 136.646 62.232 131"/>
    <polygon fill="#EAD1AD" points="30.75 149 35.25 157.876 43 153.332 42.502 203 27 193.114"/>
    <polygon fill="#E5B28F" points="43.506 154.103 72.714 136 75 183.624 43 204"/>
    <path fill="#0F0F6A" d="M55.9480405 156.172761C55.7326838 157.272088 54.9114568 158.088732 54.1103298 157.99226 53.3120743 157.898032 52.8382895 156.926585 53.0507748 155.827258 53.2661315 154.725687 54.0931013 153.911287 54.8913569 154.007758 55.6896124 154.101986 56.1633972 155.073433 55.9480405 156.172761M65.9492252 150.172761C65.7338685 151.272088 64.9126415 152.088732 64.1086431 151.99226 63.3103876 151.895789 62.8366028 150.926585 63.0519595 149.827258 63.2673162 148.725687 64.0914146 147.911287 64.8896702 148.007758 65.6879257 148.101986 66.1617105 149.073433 65.9492252 150.172761"/>
    <polygon fill="#E5B28F" points="27 194.051 35.249 191 43 204"/>
    <path fill="#E2A1D0" d="M110,19.5012182 C110,29.1642882 102.163743,37 92.4975634,37 C82.8338207,37 75,29.1642882 75,19.5012182 C75,9.8357118 82.8338207,2 92.4975634,2 C102.163743,2 110,9.8357118 110,19.5012182"/>
    <path fill="#E090C6" d="M68.351343,104 C68.351343,104 66.9252112,122.978408 66.3964753,126.744523 C65.8725901,130.510638 65.0891878,167.805839 67.034354,179.208394 C67.791077,183.650665 57.9876335,189.021135 52.9282612,198.567291 C47.0054485,209.739614 44.6067336,223.592325 41.0753596,229.619563 L41.0680834,229.619563 L40.8400963,230.029134 C40.3113604,230.935522 39.8893418,231.691653 39.5910183,232.275716 L34.6068332,236.642859 C33.2364855,237.844913 32.3851721,239.521973 32.2202453,241.332326 L30.0131365,265.463089 C29.8748891,267.00201 30.840196,268.427027 32.3245372,268.86568 C33.9932085,269.360073 35.7564701,268.448838 36.3167361,266.803283 C38.9022064,259.198349 45.5914436,239.454116 45.5865928,238.615585 C56.4717621,222.700478 81.8995952,193.82693 85.6662324,185.514334 C89.9082469,176.14994 99.1417227,131.155288 99.1417227,131.155288 L107,112.707626 L68.351343,104 Z"/>
    <path fill="#E2A1D0" d="M102.279126,256.827396 C104.63285,247.800571 115.779505,195.496441 115.779505,180.132148 C115.779505,163.54211 110.315937,104.145647 110.315937,104.145647 L67.2976537,103 L64,117.490494 L83.3444466,133.216442 C83.3444466,133.216442 95.9252883,179.814182 97.0936138,189.112856 C97.5619197,192.8532 92.0203004,196.078973 91.5885809,208.125258 C90.9958813,224.676461 93.739861,266.604232 93.8398638,266.905207 C94.0252349,267.463468 111.018396,265.373633 111.018396,265.373633 C111.018396,265.373633 128.401812,262.46097 126.909087,260.230357 C125.928571,258.771598 104.271865,259.905109 102.279126,256.827396"/>
    <path fill="#E0E4FF" d="M79.01526,36.9447655 C79.01526,36.9447655 64.9743833,30.3190431 59.7108872,36.9447655 C54.442504,43.570488 39.2335906,74.4256872 37.4790919,83.7381705 C35.7221496,93.0530853 39.2335906,114.590938 40.9880893,120.411848 C42.742588,126.23519 50.3494883,120.411848 50.3494883,120.411848 C50.3494883,120.411848 52.6904489,91.888417 53.2744673,89.5590805 C53.8584856,87.2321754 64.9743833,59.2874311 64.9743833,59.2874311 C64.9743833,59.2874311 68.4833807,73.261019 70.8243413,78.5008105 C73.165302,83.7381705 67.8993623,98.8739952 66.7313256,102.949118 C65.5584017,107.024242 76.090281,111.099365 84.8676616,111.680483 C93.640155,112.264033 110,105.278455 110,105.278455 C110,105.278455 106.581416,92.7758991 106.752467,80.2952263 C106.925962,67.6200369 110.647552,54.942416 105.342515,52.3018529 C94.8130789,47.0644928 79.01526,36.9447655 79.01526,36.9447655"/>
    <path fill="#E2A1D0" d="M45.998578,62 C41.8515502,70.8878178 38.2646718,79.6691658 37.4713273,83.9279622 C35.7427981,93.1956841 39.1974525,114.630013 40.9259817,120.425364 C42.6497028,126.218295 50.1335853,120.425364 50.1335853,120.425364 C50.1335853,120.425364 52.4366883,92.0366139 53.011262,89.7208933 C53.369469,88.2762902 57.7496919,76.9372446 61,68.5938752 C54.2493601,69.3077076 49.0108827,65.2231346 45.998578,62"/>
    <path fill="#D7DAFF" d="M105.411651,52.9210466 C102.638421,51.5329355 99.4920558,49.7953867 96.3721714,48 C93.7867116,49.0121643 91.7356765,49.9255221 91.7356765,49.9255221 L90,67.325109 C90,67.325109 90.953298,94.993344 92.8598941,111 C101.013481,109.28655 110,105.425866 110,105.425866 C110,105.425866 106.437169,92.043608 106.617718,79.7409915 C106.800674,67.1250861 110.666827,55.5502639 105.411651,52.9210466"/>
    <path fill="#E2A1D0" d="M157,59.5 C157,63.6433907 153.640955,67 149.5,67 C145.359045,67 142,63.6433907 142,59.5 C142,55.3566093 145.359045,52 149.5,52 C153.640955,52 157,55.3566093 157,59.5"/>
    <path fill="#E0E4FF" d="M86.2706173,42 L104.901882,52.2049429 C104.901882,52.2049429 110.154728,54.0650168 115.407575,66.7799682 C120.665298,79.4924945 128.254368,91.6860431 131.756266,92.8476799 C135.260602,94.0093167 145.824822,66.6756877 148.161046,64.934445 C150.494831,63.1932024 154.525915,59.2911698 153.943078,66.7799682 C153.360242,74.2687666 148.690232,107.941683 141.098723,110.846987 C133.507214,113.749867 83.6441942,74.5137046 83.0613575,64.0638237 C82.4760822,53.6115177 86.2706173,42 86.2706173,42"/>
    <path fill="#E2A1D0" d="M147.907049,63.8083395 C145.58425,65.5377068 135.371692,94.1252571 131.889918,92.9715427 C131.693522,92.9089193 131.485004,92.7981242 131.264362,92.6656518 C131.198897,92.6295229 131.135856,92.5837597 131.070391,92.5428137 C130.895818,92.4272014 130.718819,92.294729 130.532123,92.1429878 C130.469082,92.0899989 130.408466,92.0442357 130.343001,91.9888381 C130.105387,91.784108 129.858074,91.5528834 129.601063,91.2927557 C129.523475,91.2108637 129.438613,91.1193373 129.3586,91.032628 C129.171903,90.8375323 128.982782,90.6303936 128.788811,90.4088033 C128.677278,90.2811481 128.565745,90.1534928 128.454211,90.0162032 C128.267515,89.7970215 128.078393,89.5609798 127.889272,89.3201208 C127.695301,89.0768532 127.498906,88.8215427 127.300086,88.5541893 C127.130361,88.3325991 126.960637,88.1061916 126.790913,87.8701498 C126.616339,87.6268823 126.439341,87.3739804 126.259918,87.1186699 C126.143535,86.9548858 126.032002,86.7886931 125.91562,86.6200918 C125.224599,85.603667 124.514181,84.4933072 123.79164,83.3058725 C123.757696,83.2528835 123.723751,83.1998946 123.694655,83.144497 C122.625392,81.3790008 121.54158,79.4473119 120.469892,77.4048279 C120.469892,77.4000107 120.467467,77.4000107 120.467467,77.3976021 C117.991916,80.9936265 113.307524,87.1499815 108,91.2060465 C121.885878,102.475837 137.243509,112.351055 141.17869,110.848095 C148.724151,107.965013 153.367324,74.5193375 153.946812,67.0816128 C154.526299,59.643888 150.229848,62.0789721 147.907049,63.8083395"/>
    <path fill="#2D2D91" d="M136.599065,65.9184572 C136.54976,65.8822159 136.522641,65.8387264 136.502919,65.7904047 L136,65.1139011 L137.323861,63.7415653 C139.36019,59.5496592 144.818341,48.3172836 145.136363,47.6649409 C145.525879,46.8628009 146.42571,46.7468289 146.42571,46.7468289 C146.42571,46.7468289 152.618517,45.9422728 154.765784,45.6644232 L155.409225,45 L155.912144,45.6789197 C156.106902,45.8722064 155.917074,46.2660281 155.917074,46.2660281 C155.917074,46.2660281 147.734778,63.103719 147.340332,63.9034429 C147.219533,64.1571318 147.044497,64.3407542 146.864531,64.4760549 C146.475015,64.765985 146.053451,64.8215549 146.053451,64.8215549 L137.969766,65.8701355 L137.069936,65.9885236 C136.833268,66.0199327 136.685351,65.9836914 136.599065,65.9184572"/>
    <path fill="#2D2D91" d="M147.517635 61L138.494581 61.2822711C138.01931 62.2643881 137.598424 63.1391953 137.269754 63.8203786L136 65.1430871 136.482365 65.7986094C136.501281 65.8452658 136.529655 65.8872565 136.574581 65.9222488 136.65734 65.9852349 136.799212 66.0178944 137.026207 65.9899006L137.889261 65.8755924 145.642562 64.8631488C145.642562 64.8631488 146.046897 64.809494 146.420493 64.5295557 146.593103 64.3989178 146.760985 64.2216235 146.876847 63.9766775 146.959606 63.8110473 147.382857 62.9315744 148 61.6555222L147.517635 61zM156.054 46.048C156.054 46.048 156.208 45.722 156.05 45.562L155.642 45 155.12 45.55C155.084 45.556 155.04 45.56 155 45.566L155.33 46.15 155.738 46.712C155.938 46.292 156.054 46.048 156.054 46.048"/>
    <path fill="#5654A6" d="M137.45037,65.8685327 L145.318061,64.7906774 C145.318061,64.7906774 146.193848,64.6689841 146.572956,63.8469331 C146.954464,63.0223987 154.918131,45.7171087 154.918131,45.7171087 C154.918131,45.7171087 155.297239,44.8925742 154.423851,45.011784 C153.550463,45.1309938 145.682772,46.2088491 145.682772,46.2088491 C145.682772,46.2088491 144.804585,46.3305425 144.425477,47.155077 C144.046369,47.9771279 136.082702,65.2849014 136.082702,65.2849014 C136.082702,65.2849014 135.701195,66.1094359 136.576982,65.9877426 L137.45037,65.8685327 Z"/>
    <polygon fill="#0F0F6A" points="138 63 145.095 48.416 156 47 148.903 61.586"/>
    <path fill="#0F0F6A" d="M142.533409 62.1354729C142.695409 62.3574729 142.495409 62.7794729 142.087409 63.0754729 141.679409 63.3734729 141.217409 63.4334729 141.055409 63.2114729 140.895409 62.9874729 141.093409 62.5654729 141.501409 62.2694729 141.909409 61.9714729 142.371409 61.9114729 142.533409 62.1354729M148.35424 47.0305094C148.39224 47.0825094 148.34424 47.1785094 148.25024 47.2465094 148.15624 47.3165094 148.05224 47.3285094 148.01224 47.2785094 147.97624 47.2265094 148.02224 47.1305094 148.11624 47.0625094 148.21024 46.9925094 148.31624 46.9805094 148.35424 47.0305094M149.160325 47.01408C149.176325 47.03808 149.156325 47.08208 149.114325 47.11208 149.070325 47.14208 149.022325 47.14808 149.006325 47.12608 148.988325 47.10208 149.010325 47.05808 149.052325 47.02808 149.094325 46.99808 149.142325 46.99008 149.160325 47.01408M150.587344 46.000762C150.637344 45.994762 150.661344 46.024762 150.639344 46.070762 150.619344 46.116762 150.559344 46.158762 150.511344 46.164762L149.059344 46.356762C149.009344 46.364762 148.987344 46.332762 149.007344 46.286762 149.031344 46.242762 149.087344 46.200762 149.135344 46.192762L150.587344 46.000762z"/>
    <path fill="#E2A1D0" d="M41,120.895163 C41,120.895163 45.0467578,134.852973 52,135 C51.2503308,131.454187 52,123.774451 52,123.774451 C52,123.774451 51.2600353,125.31824 50.2920159,120.895163 C49.3239965,116.474537 46.6261579,112 46.6261579,112 L41,120.895163 Z"/>
    <path fill="#0F0F6A" d="M54.56836,157 L54.5658782,157 C54.2506842,157 53.9975363,156.745839 54.0000181,156.437912 L54.0819189,125.562188 C54.0819189,125.29092 54.2779844,125.061197 54.5485053,125.01232 C54.8140624,124.953667 55.0821014,125.110074 55.1813751,125.361791 L64.9598343,150.240284 C65.0764809,150.528659 64.9300522,150.856137 64.6371948,150.96611 C64.3443374,151.07364 64.0142524,150.936784 63.9000876,150.643521 L55.2136391,128.548585 L55.1367019,156.440356 C55.1367019,156.748282 54.8810722,157 54.56836,157"/>
    <path fill="#E2A1D0" d="M58,128.5 C58,131.536883 55.538747,134 52.5012006,134 C49.4636542,134 47,131.536883 47,128.5 C47,125.463117 49.4636542,123 52.5012006,123 C55.538747,123 58,125.463117 58,128.5"/>
    <path fill="#0F0F6A" d="M54.9701315,156 C54.7221315,156 54.5181315,155.759709 54.5121315,155.453883 L54.0001315,130.567961 C53.9941315,130.262136 54.1941315,130.007282 54.4481315,130 L54.4601315,130 C54.7081315,130 54.9141315,130.237864 54.9201315,130.543689 L55.4301315,155.429612 C55.4361315,155.737864 55.2361315,155.990291 54.9821315,156 L54.9701315,156 Z"/>
    <path fill="#E2A1D0" d="M81.6144492,24 L79,42.4086324 C80.8410587,46.5426934 85.0679542,49.1530509 89.6596567,48.9930381 L91.8120172,48.9190023 L96,29.5670112 L81.6144492,24 Z"/>
    <path fill="#AA6396" d="M103.699004,25.1143794 C103.783893,22.5184187 100.228259,20.6812397 98.1812218,22.2622383 C96.7211317,23.386992 96.3985536,25.5486661 96.9224398,27.3224099 C97.446326,29.0961538 98.644473,30.5722405 99.8159407,31.9995309 C94.3078597,35.7178055 88.3389529,38.7480529 82.0935506,41 C79.4959483,37.2109709 76.8959206,33.4243815 74.2983183,29.6353524 C73.1244252,27.9226038 71.9287035,26.1683785 71.3878395,24.1604126 C70.1581623,19.5955231 71.9844877,11.5392615 75.0065348,7.91613959 C79.26311,2.81693101 85.0501119,0.567423689 91.6447717,0.0331047049 C96.7502365,-0.381663457 102.937429,3.16338442 106.240823,7.16711708 C110.599265,12.444432 105.73634,19.4466945 103.699004,25.1143794"/>
    <path fill="#AA6396" d="M65.2072892,33.3326672 C65.0686426,33.8557248 64.9324284,34.4006778 65.0370215,34.9334667 C65.1489117,35.4905838 65.5089063,35.9625521 65.8664686,36.4028936 C67.6640094,38.6046011 69.6804659,40.6311451 71.9134057,42.3852127 C73.7620268,43.8376098 75.7638889,45.1051121 77.9262892,46.0198547 C85.1115877,49.0584544 93.2844391,47.9807124 101,46.8518812 C100.46244,41.7891703 100.287308,36.6899671 100.47217,31.6029279 C97.2297858,30.4108432 94.8630643,27.1386922 94.7487416,23.6840793 C94.6660402,21.2901786 95.5660268,18.8816809 95.0917095,16.531571 C93.732,9.79750863 84.2651138,8.38403673 78.6949264,9.21363039 C73.2050081,10.0334927 71.4804391,14.8018317 69.6901955,19.4631263 C67.9485998,24.0027795 66.4526761,28.6324474 65.2072892,33.3326672"/>
    <path fill="#E0E4FF" d="M102,29 C102,30.1044386 101.101828,31 99.997389,31 C98.8955614,31 98,30.1044386 98,29 C98,27.8955614 98.8955614,27 99.997389,27 C101.101828,27 102,27.8955614 102,29"/>
    <path fill="#2AB5D3" d="M68.3290083,97 L55,154.269874 C55,154.269874 70.2366151,174.443907 86.9396877,176.684383 C103.64276,178.924858 123,168.502624 123,168.502624 L109.760676,103.826259 C109.760676,103.826259 83.6383403,107.705037 74.136665,101.059186 L68.3290083,97 Z"/>
    <path fill="#1E4302" d="M39.2548946 236.716865C39.7538641 237.080017 40.2317503 237.498853 40.5409708 238.043582 41.058681 238.951463 41.0282274 240.072393 40.9673203 241.125535 40.4496102 250.129294 38.7559251 259.060422 35.9448295 267.596925 35.8066173 268.018182 35.6637199 268.44186 35.4224342 268.807433 34.5978461 270.078466 32.7448656 270.32541 31.4470765 269.587 30.1469447 268.84859 29.3785786 267.359665 29.12558 265.851372 28.8678962 264.343079 29.0553026 262.793629 29.2544219 261.278073 29.5214759 259.256525 29.8049281 257.237397 29.9384551 255.201323 30.184426 251.521378 29.9454829 247.80754 30.4280543 244.154226 30.7770987 241.503214 31.5478074 238.820728 33.049401 236.607919 34.8461596 233.956907 36.9263704 235.010049 39.2548946 236.716865M91.0882366 259.223358C97.9315944 263.532124 106.933956 264.487801 114.590603 261.71939 115.18897 261.503365 115.828856 261.22394 116.109721 260.669789 116.390587 260.117985 116.019356 259.27032 115.381912 259.324327 118.075782 258.9862 121.02121 258.904017 123.72485 259.117694 124.56012 259.183441 125.429583 259.286757 126.118315 259.744637 126.804605 260.200168 127.236894 261.115928 126.860778 261.832099 126.638528 262.259453 126.194027 262.527137 125.761738 262.761947 123.949542 263.745801 122.005462 264.492497 120.012536 265.053693 116.842415 265.945972 113.557506 266.370978 110.284808 266.793636 109.21996 266.929826 108.150227 267.068364 107.085379 267.204554 102.234948 267.831497 97.2794971 268.453744 92.4803544 267.535636 92.1701808 267.476934 91.8453533 267.399446 91.6206606 267.185769 91.3910833 266.9627 91.3202562 266.633966 91.2591984 266.326364 90.8293516 264.067491 91.0564866 261.522149 91.0882366 259.223358"/>
  </g>
</svg>
