
<svg width="60px" height="60px" viewBox="0 0 60 60" version="1.1" xmlns="http://www.w3.org/2000/svg" xmlns:xlink="http://www.w3.org/1999/xlink">
    <!-- Generator: Sketch 47.1 (45422) - http://www.bohemiancoding.com/sketch -->
    <desc>Created with Sketch.</desc>
    <defs>
        <linearGradient x1="2.36567283%" y1="50%" x2="99.4040976%" y2="50%" id="linearGradient-1">
            <stop stop-color="#24C6DC" offset="0%"></stop>
            <stop stop-color="#514A9D" offset="100%"></stop>
        </linearGradient>
    </defs>
    <g id="Page-1" stroke="none" stroke-width="1" fill="none" fill-rule="evenodd">
        <g id="2.0-ConsumerInsights_CopyNotReady" transform="translate(-945.000000, -1064.000000)" fill-rule="nonzero">
            <g id="noun_154327_cc" transform="translate(945.000000, 1064.000000)">
                <path d="M8.56689582,44.3137036 C12.2753671,44.3137036 15.2920695,47.330406 15.2920695,51.0388772 C15.2920695,54.7473485 12.2753671,57.7646926 8.56689582,57.7646926 C4.85842459,57.7646926 1.84172217,54.7479902 1.84172217,51.039519 C1.84172217,47.3310477 4.85842459,44.3137036 8.56689582,44.3137036 L8.56689582,44.3137036 Z M8.56689582,43.0302735 C4.14355403,43.0302735 0.558292087,46.6161772 0.558292087,51.0388772 C0.558292087,55.4615773 4.14419575,59.0481227 8.56689582,59.0481227 C12.9895959,59.0481227 16.5754996,55.462219 16.5754996,51.039519 C16.5754996,46.6168189 12.9902376,43.0302735 8.56689582,43.0302735 L8.56689582,43.0302735 Z" id="Shape" stroke="#000000" fill="#000000"></path>
                <path d="M14.3513152,46.6745732 L13.4439301,45.7671882 L16.1667271,43.0450329 L17.0741121,43.952418 L14.3513152,46.6745732 Z M18.8888823,42.1363644 L17.9814972,41.2289794 L20.7042941,38.5068242 L21.6116792,39.4142092 L18.8888823,42.1363644 Z M23.4264494,37.5994391 L22.5190643,36.692054 L25.2418612,33.9692571 L26.1492463,34.8766422 L23.4264494,37.5994391 Z M27.9640164,33.061872 L27.0566314,32.154487 L29.7787866,29.43169 L30.6861716,30.3390751 L27.9640164,33.061872 Z M32.5015835,28.524305 L31.5941984,27.6169199 L34.3163536,24.894123 L35.2237387,25.801508 L32.5015835,28.524305 Z M37.0397923,23.9867379 L36.1324072,23.0793528 L38.8545624,20.3565559 L39.7619475,21.263941 L37.0397923,23.9867379 Z M41.5767176,19.4491708 L40.6693326,18.5417858 L42.7857088,16.4260513 L43.6930938,17.3334363 L41.5767176,19.4491708 Z" id="Shape" stroke="#000000" fill="#000000"></path>
                <path d="M56.2557048,16.4698611 L51.6303447,11.844501 L47.0049847,16.4698611 L43.4377269,12.9032855 L48.063087,8.27792545 L43.4377269,3.65256539 L47.0049847,0.0859898157 L51.6303447,4.71134987 L56.2557048,0.0859898157 L59.8222804,3.65256539 L55.1969203,8.27792545 L59.8222804,12.9032855 L56.2557048,16.4698611 Z" id="Shape" fill="url(#linearGradient-1)"></path>
                <g id="Group" transform="translate(34.652612, 15.411500)" fill="#000000">
                    <polygon id="Shape" points="0.0333691822 2.40707313 7.47469682 9.84904248 9.53973583 0.342675833"></polygon>
                    <path d="M7.86229271,2.02011895 L6.72003993,7.27897373 L2.60343793,3.16237173 L7.86229271,2.02011895 L7.86229271,2.02011895 Z M9.53973583,0.342675833 L0.0333691822,2.40707313 L7.47533853,9.84904248 L9.53973583,0.342675833 L9.53973583,0.342675833 Z" id="Shape" stroke="#000000"></path>
                </g>
            </g>
        </g>
    </g>
</svg>