<svg xmlns="http://www.w3.org/2000/svg" width="341" height="331" viewBox="0 0 341 331">
  <defs>
    <linearGradient id="ci-journey-landing-a" x1="2.366%" x2="99.404%" y1="50%" y2="50%">
      <stop offset="0%" stop-color="#24C6DC"/>
      <stop offset="100%" stop-color="#514A9D"/>
    </linearGradient>
  </defs>
  <g fill="none" fill-rule="evenodd" transform="translate(-1 -1)">
    <g transform="translate(0 86.262)">
      <g transform="translate(272)">
        <path fill="#9B9B9B" d="M69.201,110.7092 C69.201,120.6042 53.774,128.6252 34.746,128.6252 C15.717,128.6252 0.29,120.6042 0.29,110.7092 C0.29,100.8132 15.717,92.7922 34.746,92.7922 C53.774,92.7922 69.201,100.8132 69.201,110.7092"/>
        <path fill="#0F0F6A" d="M17.5496,62.1301 C17.5116,62.1301 17.4736,62.1211 17.4386,62.1021 C17.3266,62.0401 17.2876,61.9001 17.3496,61.7881 L21.5976,54.1571 C21.6586,54.0461 21.7986,54.0061 21.9096,54.0681 C22.0206,54.1301 22.0606,54.2701 21.9986,54.3811 L17.7506,62.0131 C17.7086,62.0881 17.6296,62.1301 17.5496,62.1301"/>
        <polygon fill="#C18C37" points="24.284 55.576 13.223 62.002 11.643 80.332 18.175 84.44 31.448 76.013 30.5 56.313 27.974 56.836 26.18 54.522"/>
        <polygon fill="#EAD1AD" points="13.223 62.002 15.119 65.69 18.384 63.802 18.174 84.44 11.643 80.332"/>
        <polygon fill="#E5B28F" points="18.385 63.802 30.5 56.314 31.448 76.013 18.175 84.441"/>
        <path fill="#0F0F6A" d="M23.3699 64.7775C23.2949 65.2675 23.0089 65.6315 22.7299 65.5885 22.4519 65.5465 22.2869 65.1135 22.3609 64.6235 22.4359 64.1325 22.7239 63.7695 23.0019 63.8125 23.2799 63.8545 23.4449 64.2875 23.3699 64.7775M27.3445 62.3244C27.2695 62.8144 26.9835 63.1784 26.7035 63.1354 26.4255 63.0924 26.2605 62.6604 26.3355 62.1704 26.4105 61.6794 26.6975 61.3164 26.9755 61.3594 27.2535 61.4014 27.4185 61.8344 27.3445 62.3244"/>
        <polygon fill="#E5B28F" points="11.643 80.332 15.01 79.072 18.174 84.44"/>
        <path fill="#E2A1D0" d="M45.6473,8.6056 C45.6473,12.5716 42.4313,15.7876 38.4643,15.7876 C34.4983,15.7876 31.2833,12.5716 31.2833,8.6056 C31.2833,4.6386 34.4983,1.4226 38.4643,1.4226 C42.4313,1.4226 45.6473,4.6386 45.6473,8.6056"/>
        <path fill="#E090C6" d="M28.4227,43.4426 C28.4227,43.4426 27.8347,51.2736 27.6167,52.8276 C27.4007,54.3816 27.0777,69.7706 27.8797,74.4756 C28.1917,76.3086 24.1497,78.5246 22.0637,82.4636 C19.6217,87.0736 18.6327,92.7896 17.1767,95.2766 L17.1737,95.2766 L17.0797,95.4456 C16.8617,95.8196 16.6877,96.1316 16.5647,96.3726 L14.5097,98.1746 C13.9447,98.6706 13.5937,99.3626 13.5257,100.1096 L12.6157,110.0666 C12.5587,110.7016 12.9567,111.2896 13.5687,111.4706 C14.2567,111.6746 14.9837,111.2986 15.2147,110.6196 C16.2807,107.4816 19.0387,99.3346 19.0367,98.9886 C23.5247,92.4216 34.0087,80.5076 35.5617,77.0776 C37.3107,73.2136 41.1177,54.6476 41.1177,54.6476 L44.3577,47.0356 L28.4227,43.4426 Z"/>
        <path fill="#E2A1D0" d="M42.282,106.3097 C43.247,102.5907 47.817,81.0417 47.817,74.7117 C47.817,67.8767 45.577,43.4057 45.577,43.4057 L27.94,42.9337 L26.588,48.9037 L34.519,55.3827 C34.519,55.3827 39.677,74.5807 40.156,78.4117 C40.348,79.9527 38.076,81.2817 37.899,86.2447 C37.656,93.0637 38.781,110.3377 38.822,110.4617 C38.898,110.6917 45.865,109.8307 45.865,109.8307 C45.865,109.8307 52.992,108.6307 52.38,107.7117 C51.978,107.1107 43.099,107.5777 42.282,106.3097"/>
        <path fill="#E0E4FF" d="M32.9676,15.7878 C32.9676,15.7878 27.2216,13.0628 25.0676,15.7878 C22.9116,18.5128 16.6876,31.2028 15.9696,35.0328 C15.2506,38.8638 16.6876,47.7218 17.4056,50.1158 C18.1236,52.5108 21.2366,50.1158 21.2366,50.1158 C21.2366,50.1158 22.1946,38.3848 22.4336,37.4268 C22.6726,36.4698 27.2216,24.9768 27.2216,24.9768 C27.2216,24.9768 28.6576,30.7238 29.6156,32.8788 C30.5736,35.0328 28.4186,41.2578 27.9406,42.9338 C27.4606,44.6098 31.7706,46.2858 35.3626,46.5248 C38.9526,46.7648 45.6476,43.8918 45.6476,43.8918 C45.6476,43.8918 44.2486,38.7498 44.3186,33.6168 C44.3896,28.4038 45.9126,23.1898 43.7416,22.1038 C39.4326,19.9498 32.9676,15.7878 32.9676,15.7878"/>
        <path fill="#E2A1D0" d="M19.5164,25.9714 C17.7914,29.6444 16.2994,33.2734 15.9694,35.0334 C15.2504,38.8634 16.6874,47.7214 17.4064,50.1164 C18.1234,52.5104 21.2364,50.1164 21.2364,50.1164 C21.2364,50.1164 22.1944,38.3844 22.4334,37.4274 C22.5824,36.8304 24.4044,32.1444 25.7564,28.6964 C22.9484,28.9914 20.7694,27.3034 19.5164,25.9714"/>
        <path fill="#D7DAFF" d="M43.741,22.1042 C42.589,21.5282 41.282,20.8072 39.986,20.0622 C38.912,20.4822 38.06,20.8612 38.06,20.8612 L37.339,28.0812 C37.339,28.0812 37.735,39.5622 38.527,46.2042 C41.914,45.4932 45.647,43.8912 45.647,43.8912 C45.647,43.8912 44.167,38.3382 44.242,33.2332 C44.318,27.9982 45.924,23.1952 43.741,22.1042"/>
        <path fill="#E2A1D0" d="M64.9695,24.8263 C64.9695,26.5273 63.5905,27.9053 61.8905,27.9053 C60.1905,27.9053 58.8115,26.5273 58.8115,24.8263 C58.8115,23.1253 60.1905,21.7473 61.8905,21.7473 C63.5905,21.7473 64.9695,23.1253 64.9695,24.8263"/>
        <path fill="#E0E4FF" d="M36.1024,17.8967 L43.7424,22.1047 C43.7424,22.1047 45.8964,22.8717 48.0504,28.1147 C50.2064,33.3567 53.3184,38.3847 54.7544,38.8637 C56.1914,39.3427 60.5234,28.0717 61.4814,27.3537 C62.4384,26.6357 64.0914,25.0267 63.8524,28.1147 C63.6134,31.2027 61.6984,45.0877 58.5854,46.2857 C55.4724,47.4827 35.0254,31.3037 34.7864,26.9947 C34.5464,22.6847 36.1024,17.8967 36.1024,17.8967"/>
        <path fill="#E2A1D0" d="M61.3611,26.7551 C60.4031,27.4731 56.1911,39.3421 54.7551,38.8631 C54.6741,38.8371 54.5881,38.7911 54.4971,38.7361 C54.4701,38.7211 54.4441,38.7021 54.4171,38.6851 C54.3451,38.6371 54.2721,38.5821 54.1951,38.5191 C54.1691,38.4971 54.1441,38.4781 54.1171,38.4551 C54.0191,38.3701 53.9171,38.2741 53.8111,38.1661 C53.7791,38.1321 53.7441,38.0941 53.7111,38.0581 C53.6341,37.9771 53.5561,37.8911 53.4761,37.7991 C53.4301,37.7461 53.3841,37.6931 53.3381,37.6361 C53.2611,37.5451 53.1831,37.4471 53.1051,37.3471 C53.0251,37.2461 52.9441,37.1401 52.8621,37.0291 C52.7921,36.9371 52.7221,36.8431 52.6521,36.7451 C52.5801,36.6441 52.5071,36.5391 52.4331,36.4331 C52.3851,36.3651 52.3391,36.2961 52.2911,36.2261 C52.0061,35.8041 51.7131,35.3431 51.4151,34.8501 C51.4011,34.8281 51.3871,34.8061 51.3751,34.7831 C50.9341,34.0501 50.4871,33.2481 50.0451,32.4001 C50.0451,32.3981 50.0441,32.3981 50.0441,32.3971 C49.0231,33.8901 47.0911,36.4461 44.9021,38.1301 C50.6291,42.8091 56.9631,46.9091 58.5861,46.2851 C61.6981,45.0881 63.6131,31.2021 63.8521,28.1141 C64.0911,25.0261 62.3191,26.0371 61.3611,26.7551"/>
        <path fill="#2D2D91" d="M56.7742,27.738 C56.7542,27.723 56.7432,27.705 56.7352,27.685 L56.5312,27.405 L57.0682,26.837 C57.8942,25.102 60.1082,20.453 60.2372,20.183 C60.3952,19.851 60.7602,19.803 60.7602,19.803 C60.7602,19.803 63.2722,19.47 64.1432,19.355 L64.4042,19.08 L64.6082,19.361 C64.6872,19.441 64.6102,19.604 64.6102,19.604 C64.6102,19.604 61.2912,26.573 61.1312,26.904 C61.0822,27.009 61.0112,27.085 60.9382,27.141 C60.7802,27.261 60.6092,27.284 60.6092,27.284 L57.3302,27.718 L56.9652,27.767 C56.8692,27.78 56.8092,27.765 56.7742,27.738"/>
        <path fill="#2D2D91" d="M61.4022 25.6281L57.5862 25.7491C57.3852 26.1701 57.2072 26.5451 57.0682 26.8371L56.5312 27.4041 56.7352 27.6851C56.7432 27.7051 56.7552 27.7231 56.7742 27.7381 56.8092 27.7651 56.8692 27.7791 56.9652 27.7671L57.3302 27.7181 60.6092 27.2841C60.6092 27.2841 60.7802 27.2611 60.9382 27.1411 61.0112 27.0851 61.0822 27.0091 61.1312 26.9041 61.1662 26.8331 61.3452 26.4561 61.6062 25.9091L61.4022 25.6281zM64.6102 19.6037C64.6102 19.6037 64.6872 19.4407 64.6082 19.3607L64.4042 19.0797 64.1432 19.3547C64.1252 19.3577 64.1032 19.3597 64.0832 19.3627L64.2482 19.6547 64.4522 19.9357C64.5522 19.7257 64.6102 19.6037 64.6102 19.6037"/>
        <path fill="#5654A6" d="M57.1258,27.4377 L60.4048,27.0037 C60.4048,27.0037 60.7698,26.9547 60.9278,26.6237 C61.0868,26.2917 64.4058,19.3237 64.4058,19.3237 C64.4058,19.3237 64.5638,18.9917 64.1998,19.0397 C63.8358,19.0877 60.5568,19.5217 60.5568,19.5217 C60.5568,19.5217 60.1908,19.5707 60.0328,19.9027 C59.8748,20.2337 56.5558,27.2027 56.5558,27.2027 C56.5558,27.2027 56.3968,27.5347 56.7618,27.4857 L57.1258,27.4377 Z"/>
        <polygon fill="#0F0F6A" points="57.03 26.207 59.875 20.235 64.248 19.655 61.402 25.628"/>
        <path fill="#0F0F6A" d="M59.1434 26.2228C59.2244 26.3338 59.1244 26.5448 58.9204 26.6928 58.7164 26.8418 58.4854 26.8718 58.4044 26.7608 58.3244 26.6488 58.4234 26.4378 58.6274 26.2898 58.8314 26.1408 59.0624 26.1108 59.1434 26.2228M61.6541 19.6447C61.6731 19.6707 61.6491 19.7187 61.6021 19.7527 61.5551 19.7877 61.5031 19.7937 61.4831 19.7687 61.4651 19.7427 61.4881 19.6947 61.5351 19.6607 61.5821 19.6257 61.6351 19.6197 61.6541 19.6447M61.824 19.6672C61.832 19.6792 61.822 19.7012 61.801 19.7162 61.779 19.7312 61.755 19.7342 61.747 19.7232 61.738 19.7112 61.749 19.6892 61.77 19.6742 61.791 19.6592 61.815 19.6552 61.824 19.6672M62.6893 19.5539C62.7143 19.5509 62.7263 19.5659 62.7153 19.5889 62.7053 19.6119 62.6753 19.6329 62.6513 19.6359L61.9253 19.7319C61.9003 19.7359 61.8893 19.7199 61.8993 19.6969 61.9113 19.6749 61.9393 19.6539 61.9633 19.6499L62.6893 19.5539z"/>
        <path fill="#E2A1D0" d="M17.4061,50.1159 C17.4061,50.1159 19.0741,55.8119 21.9401,55.8719 C21.6311,54.4249 21.9401,51.2909 21.9401,51.2909 C21.9401,51.2909 21.6351,51.9209 21.2361,50.1159 C20.8371,48.3119 19.7251,46.4859 19.7251,46.4859 L17.4061,50.1159 Z"/>
        <path fill="#0F0F6A" d="M22.866,64.9299 L22.865,64.9299 C22.738,64.9299 22.636,64.8259 22.637,64.6999 L22.67,52.0659 C22.67,51.9549 22.749,51.8609 22.858,51.8409 C22.965,51.8169 23.073,51.8809 23.113,51.9839 L27.053,62.1639 C27.1,62.2819 27.041,62.4159 26.923,62.4609 C26.805,62.5049 26.672,62.4489 26.626,62.3289 L23.126,53.2879 L23.095,64.7009 C23.095,64.8269 22.992,64.9299 22.866,64.9299"/>
        <path fill="#E2A1D0" d="M24.2303,53.5817 C24.2303,54.8467 23.2053,55.8727 21.9403,55.8727 C20.6753,55.8727 19.6493,54.8467 19.6493,53.5817 C19.6493,52.3167 20.6753,51.2907 21.9403,51.2907 C23.2053,51.2907 24.2303,52.3167 24.2303,53.5817"/>
        <path fill="#0F0F6A" d="M23.0945,64.8195 C22.9705,64.8195 22.8685,64.7205 22.8655,64.5945 L22.6095,54.3415 C22.6065,54.2155 22.7065,54.1105 22.8335,54.1075 L22.8395,54.1075 C22.9635,54.1075 23.0665,54.2055 23.0695,54.3315 L23.3245,64.5845 C23.3275,64.7115 23.2275,64.8155 23.1005,64.8195 L23.0945,64.8195 Z"/>
        <path fill="#E2A1D0" d="M33.867,10.4274 L32.792,18.1354 C33.549,19.8664 35.287,20.9594 37.175,20.8924 L38.06,20.8614 L39.782,12.7584 L33.867,10.4274 Z"/>
        <path fill="#AA6396" d="M43.1951,10.6979 C43.2301,9.6339 41.7641,8.8809 40.9201,9.5289 C40.3181,9.9899 40.1851,10.8759 40.4011,11.6029 C40.6171,12.3299 41.1111,12.9349 41.5941,13.5199 C39.3231,15.0439 36.8621,16.2859 34.2871,17.2089 C33.2161,15.6559 32.1441,14.1039 31.0731,12.5509 C30.5891,11.8489 30.0961,11.1299 29.8731,10.3069 C29.3661,8.4359 30.1191,5.1339 31.3651,3.6489 C33.1201,1.5589 35.5061,0.6369 38.2251,0.4179 C40.3301,0.2479 42.8811,1.7009 44.2431,3.3419 C46.0401,5.5049 44.0351,8.3749 43.1951,10.6979"/>
        <path fill="#AA6396" d="M27.1356,14.2096 C27.0786,14.4246 27.0226,14.6486 27.0656,14.8676 C27.1116,15.0966 27.2596,15.2906 27.4066,15.4716 C28.1456,16.3766 28.9746,17.2096 29.8926,17.9306 C30.6526,18.5276 31.4756,19.0486 32.3646,19.4246 C35.3186,20.6736 38.6786,20.2306 41.8506,19.7666 C41.6296,17.6856 41.5576,15.5896 41.6336,13.4986 C40.3006,13.0086 39.3276,11.6636 39.2806,10.2436 C39.2466,9.2596 39.6166,8.2696 39.4216,7.3036 C38.8626,4.5356 34.9706,3.9546 32.6806,4.2956 C30.4236,4.6326 29.7146,6.5926 28.9786,8.5086 C28.2626,10.3746 27.6476,12.2776 27.1356,14.2096"/>
        <path fill="#E0E4FF" d="M42.4031,12.4694 C42.4031,12.8924 42.0591,13.2354 41.6361,13.2354 C41.2141,13.2354 40.8711,12.8924 40.8711,12.4694 C40.8711,12.0464 41.2141,11.7034 41.6361,11.7034 C42.0591,11.7034 42.4031,12.0464 42.4031,12.4694"/>
        <path fill="#2AB5D3" d="M28.4481,40.5446 L22.9491,64.0356 C22.9491,64.0356 29.2351,72.3106 36.1261,73.2296 C43.0171,74.1486 51.0031,69.8736 51.0031,69.8736 L45.5411,43.3446 C45.5411,43.3446 34.7641,44.9356 30.8441,42.2096 L28.4481,40.5446 Z"/>
        <path fill="#1E4302" d="M16.8524 97.9787C17.0654 98.1287 17.2694 98.3017 17.4014 98.5267 17.6224 98.9017 17.6094 99.3647 17.5834 99.7997 17.3624 103.5187 16.6394 107.2077 15.4394 110.7337 15.3804 110.9077 15.3194 111.0827 15.2164 111.2337 14.8644 111.7587 14.0734 111.8607 13.5194 111.5557 12.9644 111.2507 12.6364 110.6357 12.5284 110.0127 12.4184 109.3897 12.4984 108.7497 12.5834 108.1237 12.6974 107.2887 12.8184 106.4547 12.8754 105.6137 12.9804 104.0937 12.8784 102.5597 13.0844 101.0507 13.2334 99.9557 13.5624 98.8477 14.2034 97.9337 14.9704 96.8387 15.8584 97.2737 16.8524 97.9787M38.0965 107.1437C40.8985 108.9787 44.5845 109.3857 47.7195 108.2067 47.9645 108.1147 48.2265 107.9957 48.3415 107.7597 48.4565 107.5247 48.3045 107.1637 48.0435 107.1867 49.1465 107.0427 50.3525 107.0077 51.4595 107.0987 51.8015 107.1267 52.1575 107.1707 52.4395 107.3657 52.7205 107.5597 52.8975 107.9497 52.7435 108.2547 52.6525 108.4367 52.4705 108.5507 52.2935 108.6507 51.5515 109.0697 50.7555 109.3877 49.9395 109.6267 48.6415 110.0067 47.2965 110.1877 45.9565 110.3677 45.5205 110.4257 45.0825 110.4847 44.6465 110.5427 42.6605 110.8097 40.6315 111.0747 38.6665 110.6837 38.5395 110.6587 38.4065 110.6257 38.3145 110.5347 38.2205 110.4397 38.1915 110.2997 38.1665 110.1687 37.9905 109.2067 38.0835 108.1227 38.0965 107.1437"/>
      </g>
      <path fill="#9B9B9B" d="M151.0081,212.6955 C151.0081,222.5915 135.5821,230.6125 116.5521,230.6125 C97.5241,230.6125 82.0971,222.5915 82.0971,212.6955 C82.0971,202.8005 97.5241,194.7795 116.5521,194.7795 C135.5821,194.7795 151.0081,202.8005 151.0081,212.6955"/>
    </g>
    <g transform="translate(0 201.262)">
      <path fill="#9B9B9B" d="M69.9105,112.8244 C69.9105,122.7204 54.4845,130.7414 35.4555,130.7414 C16.4265,130.7414 0.9995,122.7204 0.9995,112.8244 C0.9995,102.9284 16.4265,94.9074 35.4555,94.9074 C54.4845,94.9074 69.9105,102.9284 69.9105,112.8244"/>
      <path fill="#0F0F6A" d="M44.1585 78.8068C44.1165 78.8068 44.0745 78.7968 44.0345 78.7758 43.9125 78.7058 43.8675 78.5518 43.9365 78.4288L48.6345 69.9898C48.7025 69.8668 48.8575 69.8228 48.9795 69.8908 49.1025 69.9588 49.1465 70.1148 49.0785 70.2378L44.3805 78.6768C44.3345 78.7598 44.2475 78.8068 44.1585 78.8068M8.9481 66.5871C8.9061 66.5871 8.8641 66.5771 8.8241 66.5561 8.7021 66.4871 8.6581 66.3321 8.7261 66.2091L13.4251 57.7701C13.4921 57.6471 13.6471 57.6041 13.7701 57.6721 13.8921 57.7401 13.9361 57.8951 13.8681 58.0181L9.1701 66.4571C9.1241 66.5411 9.0371 66.5871 8.9481 66.5871"/>
      <polygon fill="#E4C3AD" points="16.396 59.339 4.164 66.445 2.416 86.717 9.639 91.261 24.318 81.941 23.27 60.154 20.477 60.733 18.493 58.174"/>
      <polygon fill="#F7D7CA" points="4.163 66.445 6.26 70.523 9.871 68.436 9.638 91.26 2.415 86.716"/>
      <polygon fill="#E5B28F" points="9.872 68.437 23.269 60.155 24.318 81.941 9.639 91.261"/>
      <path fill="#0F0F6A" d="M15.3851 69.5148C15.3021 70.0568 14.9851 70.4578 14.6771 70.4108 14.3691 70.3648 14.1871 69.8868 14.2691 69.3438 14.3521 68.8018 14.6691 68.4008 14.9771 68.4478 15.2851 68.4938 15.4681 68.9728 15.3851 69.5148M19.7796 66.8019C19.6966 67.3439 19.3806 67.7449 19.0716 67.6979 18.7636 67.6519 18.5816 67.1739 18.6646 66.6319 18.7476 66.0889 19.0646 65.6879 19.3726 65.7349 19.6796 65.7819 19.8626 66.2599 19.7796 66.8019"/>
      <polygon fill="#E5B28F" points="2.416 86.717 6.14 85.323 9.639 91.261"/>
      <path fill="#0F0F6A" d="M14.827,69.6838 C14.686,69.6838 14.573,69.5698 14.573,69.4288 L14.61,55.4568 C14.611,55.3348 14.698,55.2308 14.818,55.2078 C14.936,55.1818 15.056,55.2518 15.101,55.3668 L19.458,66.6248 C19.51,66.7548 19.445,66.9038 19.314,66.9538 C19.183,67.0018 19.036,66.9398 18.985,66.8078 L15.115,56.8088 L15.081,69.4308 C15.08,69.5708 14.967,69.6838 14.827,69.6838"/>
      <path fill="#0F0F6A" d="M15.0804,69.5617 C14.9434,69.5617 14.8304,69.4527 14.8264,69.3137 L14.5434,57.9747 C14.5404,57.8337 14.6514,57.7177 14.7914,57.7137 L14.7974,57.7137 C14.9354,57.7137 15.0484,57.8237 15.0514,57.9617 L15.3344,69.3007 C15.3384,69.4417 15.2264,69.5577 15.0874,69.5617 L15.0804,69.5617 Z"/>
      <path fill="#27BDD8" d="M21.7376,47.1496 C21.7376,47.1496 17.2046,66.0346 15.3096,76.1426 C13.4136,86.2516 16.3936,112.4696 16.3936,112.4696 C16.3936,112.4696 17.3416,114.0486 19.5526,114.0486 C21.7636,114.0486 24.1546,82.7766 24.1546,82.7766 C24.1546,82.7766 27.1076,59.7846 28.6876,60.1006 C29.0426,60.1716 31.9196,61.2506 33.2186,61.0026 C37.6966,60.1456 44.0946,56.2246 43.8496,51.5716 C43.5336,45.5696 38.7956,45.2536 38.7956,45.2536 C38.7956,45.2536 30.5826,44.6226 29.6346,44.9376 C28.6876,45.2536 21.7376,47.1496 21.7376,47.1496"/>
      <path fill="#27BDD8" d="M32.2576,53.9572 C32.2576,53.9572 30.7316,74.6192 32.9426,78.7272 C35.1536,82.8332 47.4926,95.3222 47.4926,95.3222 C47.4926,95.3222 51.1146,95.7962 50.1676,93.2692 C49.2196,90.7422 40.6726,75.5432 40.6726,75.5432 L43.8496,51.5712 L36.9006,43.0422 L32.2576,53.9572 Z"/>
      <path fill="#F1F1FF" d="M16.6365,16.883 C16.6365,16.883 18.5325,13.408 21.3745,13.408 C24.2175,13.408 42.8075,17.543 44.0715,18.807 C45.3345,20.07 54.2745,37.04 54.2745,42.727 C54.2745,48.412 52.3785,67.998 52.3785,67.998 C52.3785,67.998 48.9045,68.63 47.9565,67.05 C47.0085,65.471 46.0605,45.886 46.0605,45.886 C46.0605,45.886 41.0065,27.564 41.0065,28.512 C41.0065,29.459 16.6365,16.883 16.6365,16.883"/>
      <path fill="#F1F1FF" d="M22.0535,16.8234 L40.5955,21.9654 L43.2185,26.6164 C43.2185,26.6164 44.7975,48.7284 43.8495,51.5714 C42.9025,54.4144 32.4775,55.6774 28.6875,55.0464 C24.8965,54.4144 21.7375,47.1494 21.7375,47.1494 L19.7955,15.6194 L22.0535,16.8234 Z"/>
      <path fill="#F1F1FF" d="M16.6365,16.883 C16.6365,16.883 11.3855,26.404 11.0695,33.037 C10.7535,39.671 12.2605,54.099 12.2605,54.099 C12.2605,54.099 14.1565,55.362 16.0515,54.414 C17.9465,53.467 17.3145,35.778 18.2625,33.566 C19.2105,31.355 25.2125,17.455 25.2125,17.455 C25.2125,17.455 22.9545,13.093 16.6365,16.883"/>
      <path fill="#AA6396" d="M34.2889,7.4142 C34.2889,11.5062 30.9719,14.8222 26.8809,14.8222 C22.7889,14.8222 19.4729,11.5062 19.4729,7.4142 C19.4729,3.3232 22.7889,0.0072 26.8809,0.0072 C30.9719,0.0072 34.2889,3.3232 34.2889,7.4142"/>
      <path fill="#AA6396" d="M24.43,9.6916 L26.952,17.3116 C28.443,18.5676 30.549,18.7856 32.265,17.8626 L33.07,17.4286 L30.965,9.1476 L24.43,9.6916 Z"/>
      <path fill="#1E4302" d="M47.2298,94.9406 C47.2298,94.9406 48.1958,98.8346 47.8828,99.5726 C47.5708,100.3116 46.4748,103.8896 48.3808,104.2436 C50.2878,104.5966 51.4968,102.8086 51.6948,100.9416 C51.8928,99.0736 50.2168,93.3126 50.2168,93.3126 L47.2298,94.9406 Z"/>
      <path fill="#AA6396" d="M18.867,106.1926 C17.903,106.0426 16.808,105.7356 15.713,105.5336 C16.075,109.6586 16.394,112.4696 16.394,112.4696 C16.644,115.0556 17.46,114.8366 19.607,114.1646 C20.289,113.9516 21.002,110.7676 21.668,106.3386 C20.629,106.3206 19.638,106.3136 18.867,106.1926"/>
      <path fill="#E0E4FF" d="M15.098,106.2306 C15.098,106.2306 17.257,108.3896 21.702,107.8806 C22.227,107.7646 22.752,106.6386 22.79,105.6486 C22.807,105.1906 22.734,104.6886 22.64,104.2486 C22.514,103.6636 21.844,103.3786 21.329,103.6836 C20.426,104.2186 19.027,104.8666 17.744,104.7026 C15.632,104.4326 15.428,102.1396 15.428,102.1396 L15.002,102.1496 C14.384,103.0566 14.453,104.1256 14.721,105.1886 C14.772,105.3896 14.836,105.5886 14.915,105.7826 L15.098,106.2306 Z"/>
      <path fill="#AA6396" d="M50.1678,93.2687 C49.9348,92.6477 49.2408,91.2587 48.3298,89.5207 C47.5588,90.6397 46.6898,91.6907 46.4578,91.8737 C45.9538,92.2727 45.4458,92.5157 44.9348,92.6877 C46.4568,94.2727 47.4928,95.3227 47.4928,95.3227 C47.4928,95.3227 51.1148,95.7957 50.1678,93.2687"/>
      <path fill="#E0E4FF" d="M42.9095,91.3967 L44.2455,93.4017 C44.2455,93.4017 48.1665,95.2287 49.1475,90.2827 L47.8995,87.7427 L47.4535,87.8327 C47.4535,87.8327 47.6775,90.2827 45.8495,90.6837 C44.0235,91.0847 43.2215,90.8617 43.2215,90.8617 L42.9095,91.3967 Z"/>
      <path fill="#1E4302" d="M20.0174,117.507 L20.3294,113.446 C20.3454,113.238 20.3594,113.014 20.2704,112.824 C20.0164,113.093 19.6134,113.147 19.2444,113.166 C18.2744,113.217 17.2984,113.142 16.3484,112.943 C16.2844,114.41 15.2374,115.569 14.2344,116.641 C13.2304,117.712 12.0984,118.719 11.4784,120.05 C11.3674,120.289 11.2744,120.573 11.3914,120.81 C11.5374,121.105 11.9224,121.173 12.2504,121.179 C13.6974,121.205 15.1204,120.743 16.3964,120.061 C17.6724,119.378 18.8884,118.412 20.0174,117.507"/>
      <path fill="#AA6396" d="M35.1678,7.7121 C35.1678,9.2971 34.4908,10.5831 33.6568,10.5831 C32.8218,10.5831 32.1458,9.2971 32.1458,7.7121 C32.1458,6.1261 32.8218,4.8411 33.6568,4.8411 C34.4908,4.8411 35.1678,6.1261 35.1678,7.7121"/>
      <path fill="#4E50A0" d="M26.8807,0.007 C23.7467,0.007 21.0727,1.956 19.9907,4.706 C21.3037,5.482 23.3907,5.744 24.7217,5.76 C25.3067,5.767 30.6037,5.035 30.3717,4.109 C30.6587,5.256 31.1017,6.365 31.6837,7.396 C31.6847,6.27 32.5667,5.208 33.6727,5.001 C33.7367,4.989 33.8007,4.977 33.8657,4.965 C32.8537,2.079 30.1117,0.007 26.8807,0.007"/>
      <path fill="#AA6396" d="M52.3528 68.1554C52.3528 69.6434 51.1458 70.8504 49.6568 70.8504 48.1678 70.8504 46.9618 69.6434 46.9618 68.1554 46.9618 66.6664 48.1678 65.4594 49.6568 65.4594 51.1458 65.4594 52.3528 66.6664 52.3528 68.1554M17.1277 55.9621C17.1277 57.4501 15.9207 58.6571 14.4317 58.6571 12.9427 58.6571 11.7367 57.4501 11.7367 55.9621 11.7367 54.4731 12.9427 53.2671 14.4317 53.2671 15.9207 53.2671 17.1277 54.4731 17.1277 55.9621"/>
      <polygon fill="url(#ci-journey-landing-a)" points="52.622 72.574 40.389 79.68 38.642 99.952 45.865 104.496 60.544 95.176 59.496 73.389 56.703 73.968 54.719 71.409"/>
      <polygon fill="#F1F1FF" points="40.389 79.681 42.486 83.759 46.097 81.672 45.865 104.496 38.642 99.952"/>
      <polygon fill="#E0E4FF" points="46.098 81.672 59.496 73.39 60.544 95.176 45.865 104.496"/>
      <path fill="#0F0F6A" d="M51.6111 82.7502C51.5281 83.2932 51.2121 83.6942 50.9031 83.6462 50.5951 83.6002 50.4131 83.1222 50.4961 82.5802 50.5791 82.0372 50.8961 81.6362 51.2041 81.6842 51.5111 81.7302 51.6941 82.2082 51.6111 82.7502M56.0062 80.0373C55.9232 80.5793 55.6062 80.9813 55.2982 80.9333 54.9902 80.8873 54.8082 80.4093 54.8912 79.8673 54.9742 79.3243 55.2912 78.9233 55.5992 78.9703 55.9062 79.0173 56.0892 79.4953 56.0062 80.0373"/>
      <polygon fill="#E0E4FF" points="38.642 99.952 42.367 98.558 45.865 104.496"/>
      <path fill="#0F0F6A" d="M51.0535,82.9191 C50.9125,82.9191 50.7995,82.8051 50.7995,82.6641 L50.8365,68.6921 C50.8375,68.5701 50.9245,68.4661 51.0445,68.4431 C51.1625,68.4171 51.2825,68.4881 51.3275,68.6021 L55.6845,79.8601 C55.7365,79.9901 55.6715,80.1391 55.5395,80.1891 C55.4095,80.2371 55.2625,80.1751 55.2115,80.0431 L51.3415,70.0441 L51.3075,82.6661 C51.3065,82.8061 51.1935,82.9191 51.0535,82.9191"/>
      <path fill="#0F0F6A" d="M51.3069,82.797 C51.1699,82.797 51.0569,82.688 51.0529,82.549 L50.7699,71.21 C50.7669,71.07 50.8779,70.954 51.0179,70.95 L51.0239,70.95 C51.1609,70.95 51.2749,71.059 51.2779,71.198 L51.5609,82.537 C51.5639,82.677 51.4529,82.793 51.3129,82.797 L51.3069,82.797 Z"/>
    </g>
    <g transform="translate(85 .262)">
      <path fill="#0F0F6A" d="M8.7161 159.8166C8.5071 161.1866 7.7061 162.2006 6.9281 162.0816 6.1501 161.9626 5.6891 160.7556 5.8991 159.3856 6.1081 158.0166 6.9081 157.0026 7.6871 157.1216 8.4651 157.2406 8.9251 158.4476 8.7161 159.8166M19.8172 152.964C19.6082 154.334 18.8072 155.348 18.0292 155.23 17.2512 155.11 16.7912 153.903 17.0002 152.533 17.2092 151.164 18.0092 150.151 18.7882 150.269 19.5662 150.388 20.0262 151.595 19.8172 152.964"/>
      <polygon fill="#0F1877" points="191.654 71.666 199.87 264.189 135.526 304.665 4.762 221.64 14.102 18.38 38.977 23.527 56.653 .738"/>
      <polygon fill="#E0E4FF" points="191.654 71.666 172.054 96.043 140.801 89.398 135.526 304.665 199.87 264.189"/>
      <polygon fill="#EFF2FF" points="140.802 89.398 14.102 18.38 4.763 221.64 135.527 304.665"/>
      <path fill="#4BAD00" d="M85.096 77.5256C85.371 79.5566 86.53 81.0766 87.683 80.9206 88.837 80.7636 89.549 78.9906 89.273 76.9596 88.998 74.9286 87.84 73.4086 86.686 73.5646 85.532 73.7216 84.821 75.4946 85.096 77.5256M50.8489 55.5661C51.1219 57.5831 52.2729 59.0921 53.4179 58.9371 54.5639 58.7811 55.2709 57.0201 54.9969 55.0041 54.7239 52.9861 53.5739 51.4771 52.4279 51.6321 51.2819 51.7881 50.5759 53.5491 50.8489 55.5661"/>
      <polygon fill="url(#ci-journey-landing-a)" points="199.87 264.19 166.69 251.78 135.526 304.666" opacity=".803"/>
      <path fill="#2C6600" d="M68.3704,117.7829 C70.4914,117.8189 72.5054,117.2209 74.3874,115.9919 C84.7774,109.2149 87.8954,84.5109 88.5404,78.0519 C88.6234,77.2209 88.0054,76.4899 87.1724,76.4269 C86.3714,76.3659 85.6654,76.9519 85.5824,77.7519 C84.9534,83.8459 81.9474,107.5179 72.7654,113.5059 C70.5464,114.9529 68.1644,115.1959 65.4644,114.2459 C51.4724,109.3179 52.5094,71.9189 54.2424,56.0979 C54.3304,55.2919 53.7554,54.5729 52.9514,54.4729 C52.1294,54.3719 51.3834,54.9589 51.2964,55.7829 C50.3354,64.8779 46.4324,110.6899 64.4774,117.0479 C65.8084,117.5159 67.1094,117.7619 68.3704,117.7829"/>
      <polygon fill="url(#ci-journey-landing-a)" points="56.653 .738 56.653 42.231 140.802 89.398 172.055 96.044 191.654 71.666"/>
      <polygon fill="#4B5CA6" points="36.096 239.803 36.096 157.823 91.776 190.222 91.776 274.985" opacity=".62"/>
      <polygon fill="#B8BCFF" points="37.015 239.803 37.015 157.823 57.255 169.6 57.255 252.591"/>
      <polygon fill="#B8BCFF" points="57.255 252.591 56.336 252.974 56.336 169.278 57.34 169.278 56.838 171.646"/>
      <polygon fill="#4B5CA6" points="36.096 239.803 36.096 157.823 56.336 169.6 56.336 252.591" opacity=".62"/>
      <polygon fill="#4B5CA6" points="71.576 262.221 71.576 178.463 91.816 190.241 91.776 274.985" opacity=".62"/>
      <path fill="#4E50A0" d="M91.7762,274.9845 L36.0962,239.8025 L36.0962,157.8225 L91.7762,190.2215 L91.7762,274.9845 Z M34.2582,154.6275 L34.2582,240.8155 L93.6142,278.3195 L93.6142,189.1655 L34.2582,154.6275 Z"/>
      <polygon fill="#4E50A0" points="36.096 235.968 56.336 219.255 56.336 215.102 36.096 231.846"/>
      <polygon fill="#4E50A0" points="36.096 211.506 56.336 194.793 56.336 193.397 36.096 210.14"/>
      <polygon fill="#4E50A0" points="36.096 204.787 56.336 188.074 56.336 183.92 36.096 200.663"/>
      <polygon fill="#4E50A0" points="36.096 177.816 50.299 166.087 47.356 164.375 36.096 173.69"/>
      <polygon fill="#4E50A0" points="71.576 248.97 91.796 232.798 91.797 228.649 71.576 244.845"/>
      <polygon fill="#4E50A0" points="71.576 232.634 91.803 215.768 91.805 214.377 71.576 231.266"/>
      <polygon fill="#4E50A0" points="71.576 202.567 88.7 188.427 85.751 186.712 71.576 198.439"/>
      <polygon fill="#514A9D" points="15.588 120.836 .76 134.886 8.192 139.132 23.002 125.089"/>
      <polygon fill="#FFF" points="23.011 125.081 8.183 139.131 15.615 143.377 30.425 129.334"/>
      <polygon fill="#514A9D" points="30.424 129.328 15.596 143.378 23.028 147.624 37.838 133.581"/>
      <polygon fill="#FFF" points="37.838 133.575 23.01 147.625 30.442 151.871 45.252 137.828"/>
      <polygon fill="#514A9D" points="45.251 137.822 30.423 151.872 37.855 156.118 52.665 142.075"/>
      <polygon fill="#FFF" points="52.665 142.07 37.837 156.119 45.269 160.365 60.079 146.322"/>
      <polygon fill="#514A9D" points="60.078 146.317 45.25 160.367 52.682 164.613 67.492 150.57"/>
      <polygon fill="#FFF" points="67.492 150.564 52.664 164.614 60.096 168.86 74.906 154.817"/>
      <polygon fill="#514A9D" points="74.906 154.811 60.078 168.861 67.51 173.107 82.32 159.064"/>
      <polygon fill="#FFF" points="82.319 159.058 67.491 173.108 74.923 177.354 89.733 163.311"/>
      <polygon fill="#514A9D" points="89.733 163.305 74.905 177.355 82.337 181.601 97.146 167.558"/>
      <polygon fill="#FFF" points="97.146 167.552 82.318 181.602 89.75 185.848 104.56 171.805"/>
      <polygon fill="#514A9D" points="104.56 171.799 89.732 185.849 97.164 190.095 111.973 176.052"/>
      <polygon fill="#FFF" points="111.973 176.046 97.145 190.096 104.577 194.342 119.386 180.299"/>
      <polygon fill="#514A9D" points="119.386 180.293 104.559 194.343 111.99 198.589 126.8 184.546"/>
      <polygon fill="#FFF" points="126.801 184.54 111.973 198.59 119.405 202.836 134.214 188.793"/>
      <path fill="#4E50A0" d="M0.7601,134.8854 C0.7601,134.8854 0.9521,138.7864 3.6391,140.3754 C6.8171,142.2544 8.1831,139.1304 8.1831,139.1304 L0.7601,134.8854 Z"/>
      <path fill="#D0DDFF" d="M8.1693,139.1198 C8.1693,139.1198 8.3613,143.0218 11.0483,144.6108 C14.2263,146.4888 15.5923,143.3658 15.5923,143.3658 L8.1693,139.1198 Z"/>
      <path fill="#4E50A0" d="M15.5784,143.3547 C15.5784,143.3547 15.7704,147.2557 18.4574,148.8447 C21.6354,150.7237 23.0014,147.5997 23.0014,147.5997 L15.5784,143.3547 Z"/>
      <path fill="#D0DDFF" d="M22.9876,147.589 C22.9876,147.589 23.1796,151.49 25.8666,153.079 C29.0446,154.958 30.4106,151.835 30.4106,151.835 L22.9876,147.589 Z"/>
      <path fill="#4E50A0" d="M30.3968,151.8244 C30.3968,151.8244 30.5888,155.7254 33.2758,157.3144 C36.4538,159.1924 37.8198,156.0694 37.8198,156.0694 L30.3968,151.8244 Z"/>
      <path fill="#D0DDFF" d="M37.806,156.0588 C37.806,156.0588 37.997,159.9598 40.685,161.5488 C43.863,163.4278 45.229,160.3038 45.229,160.3038 L37.806,156.0588 Z"/>
      <path fill="#4E50A0" d="M45.2151,160.2931 C45.2151,160.2931 45.4061,164.1941 48.0941,165.7831 C51.2721,167.6621 52.6381,164.5381 52.6381,164.5381 L45.2151,160.2931 Z"/>
      <path fill="#D0DDFF" d="M52.6243,164.5285 C52.6243,164.5285 52.8163,168.4285 55.5033,170.0185 C58.6813,171.8965 60.0473,168.7735 60.0473,168.7735 L52.6243,164.5285 Z"/>
      <path fill="#4E50A0" d="M60.0335,168.7629 C60.0335,168.7629 60.2245,172.6639 62.9125,174.2529 C66.0905,176.1319 67.4565,173.0079 67.4565,173.0079 L60.0335,168.7629 Z"/>
      <path fill="#D0DDFF" d="M67.4427,172.9972 C67.4427,172.9972 67.6337,176.8982 70.3217,178.4872 C73.4997,180.3662 74.8657,177.2422 74.8657,177.2422 L67.4427,172.9972 Z"/>
      <path fill="#4E50A0" d="M74.8519,177.2326 C74.8519,177.2326 75.0429,181.1326 77.7309,182.7216 C80.9089,184.6006 82.2749,181.4776 82.2749,181.4776 L74.8519,177.2326 Z"/>
      <path fill="#D0DDFF" d="M82.2606,181.467 C82.2606,181.467 82.4526,185.368 85.1396,186.957 C88.3186,188.835 89.6836,185.712 89.6836,185.712 L82.2606,181.467 Z"/>
      <path fill="#4E50A0" d="M89.6697,185.7013 C89.6697,185.7013 89.8617,189.6023 92.5497,191.1913 C95.7277,193.0703 97.0927,189.9463 97.0927,189.9463 L89.6697,185.7013 Z"/>
      <path fill="#D0DDFF" d="M97.0789,189.9357 C97.0789,189.9357 97.2709,193.8367 99.9589,195.4257 C103.1369,197.3047 104.5019,194.1817 104.5019,194.1817 L97.0789,189.9357 Z"/>
      <path fill="#4E50A0" d="M104.4881,194.1711 C104.4881,194.1711 104.6791,198.0721 107.3681,199.6611 C110.5461,201.5391 111.9111,198.4161 111.9111,198.4161 L104.4881,194.1711 Z"/>
      <path fill="#D0DDFF" d="M111.8973,198.4054 C111.8973,198.4054 112.0893,202.3064 114.7773,203.8954 C117.9553,205.7744 119.3203,202.6504 119.3203,202.6504 L111.8973,198.4054 Z"/>
      <path fill="#0F0F6A" d="M14.7298,250.3693 C14.6908,250.3693 14.6528,250.3593 14.6178,250.3403 C14.5068,250.2783 14.4668,250.1383 14.5288,250.0273 L18.7768,242.3953 C18.8388,242.2843 18.9788,242.2453 19.0898,242.3063 C19.2008,242.3693 19.2398,242.5093 19.1788,242.6203 L14.9298,250.2513 C14.8888,250.3263 14.8098,250.3693 14.7298,250.3693"/>
      <polygon fill="url(#ci-journey-landing-a)" points="21.464 243.815 10.402 250.241 8.822 268.571 15.354 272.679 28.628 264.252 27.679 244.552 25.154 245.075 23.36 242.761"/>
      <polygon fill="#F1F1FF" points="10.403 250.24 12.299 253.928 15.565 252.041 15.354 272.678 8.823 268.57"/>
      <polygon fill="#E0E4FF" points="15.565 252.041 27.68 244.552 28.628 264.252 15.354 272.679"/>
      <path fill="#0F0F6A" d="M20.5501 253.0158C20.4751 253.5058 20.1881 253.8698 19.9101 253.8268 19.6321 253.7848 19.4671 253.3518 19.5411 252.8618 19.6161 252.3708 19.9031 252.0078 20.1811 252.0508 20.4601 252.0938 20.6251 252.5258 20.5501 253.0158M24.5242 250.5627C24.4492 251.0527 24.1622 251.4167 23.8842 251.3737 23.6062 251.3317 23.4412 250.8987 23.5152 250.4087 23.5902 249.9177 23.8772 249.5547 24.1552 249.5977 24.4342 249.6407 24.5992 250.0727 24.5242 250.5627"/>
      <polygon fill="#E0E4FF" points="8.823 268.57 12.191 267.31 15.354 272.678"/>
      <path fill="#D98EBE" d="M14.5853,238.3547 C14.5853,238.3547 16.2533,244.0497 19.1203,244.1107 C18.8103,242.6637 19.1203,239.5297 19.1203,239.5297 C19.1203,239.5297 18.8153,240.1597 18.4163,238.3547 C18.0163,236.5497 16.9053,234.7237 16.9053,234.7237 L14.5853,238.3547 Z"/>
      <path fill="#0F0F6A" d="M20.0457,253.1681 C19.9187,253.1681 19.8157,253.0651 19.8157,252.9381 L19.8497,240.3041 C19.8497,240.1931 19.9287,240.1001 20.0377,240.0791 C20.1447,240.0561 20.2537,240.1191 20.2937,240.2231 L24.2337,250.4021 C24.2797,250.5211 24.2207,250.6541 24.1027,250.7001 C23.9847,250.7441 23.8517,250.6881 23.8057,250.5681 L20.3057,241.5261 L20.2747,252.9391 C20.2747,253.0661 20.1717,253.1681 20.0457,253.1681"/>
      <path fill="#D98EBE" d="M21.4105,241.8205 C21.4105,243.0855 20.3855,244.1105 19.1195,244.1105 C17.8545,244.1105 16.8295,243.0855 16.8295,241.8205 C16.8295,240.5545 17.8545,239.5295 19.1195,239.5295 C20.3855,239.5295 21.4105,240.5545 21.4105,241.8205"/>
      <path stroke="#4B4590" stroke-linecap="round" stroke-width=".5" d="M46.6878,233.4133 L49.2428,223.9463"/>
      <path fill="#0F0F6A" d="M20.2747,253.0578 C20.1507,253.0578 20.0477,252.9588 20.0457,252.8338 L19.7897,242.5798 C19.7857,242.4538 19.8867,242.3488 20.0127,242.3458 L20.0187,242.3458 C20.1437,242.3458 20.2457,242.4448 20.2487,242.5698 L20.5047,252.8238 C20.5077,252.9498 20.4067,253.0548 20.2807,253.0578 L20.2747,253.0578 Z"/>
      <path fill="#D98EBE" d="M58.971,209.7726 C58.536,211.0046 57.185,211.6516 55.953,211.2166 C54.721,210.7826 54.074,209.4316 54.509,208.1996 C54.943,206.9666 56.294,206.3206 57.527,206.7546 C58.759,207.1896 59.406,208.5416 58.971,209.7726"/>
      <path fill="#4E50A0" d="M25.3563,231.4631 C25.3563,231.4631 22.6853,251.9771 22.4603,261.8901 C22.2343,271.8031 18.3243,272.0581 15.5483,278.4641 C12.7723,284.8701 10.9693,291.4031 10.9693,291.4031 L12.4573,292.2421 C12.4573,292.2421 25.6143,276.0831 27.1913,274.5061 C28.7683,272.9291 33.9503,245.8941 33.9503,245.8941 L25.3563,231.4631 Z"/>
      <path fill="#1E4302" d="M12.4568,292.2424 C12.4568,292.2424 11.8438,294.0814 11.3328,295.5124 C10.8218,296.9414 11.3328,300.1094 10.5158,301.4374 C9.6978,302.7654 7.4508,301.6414 7.5528,300.5174 C7.6548,299.3934 8.2678,295.1024 8.5748,294.3884 C8.8808,293.6734 10.9698,291.4034 10.9698,291.4034 L12.4568,292.2424 Z"/>
      <polygon fill="#992862" points="52.447 227.419 42.507 234.152 42.215 251.418 48.596 254.842 60.479 246.09 58.314 227.706 55.984 228.359 54.154 226.31"/>
      <path fill="#D98EBE" d="M42.8275,196.8439 C42.8275,200.8109 39.6115,204.0269 35.6445,204.0269 C31.6785,204.0269 28.4625,200.8109 28.4625,196.8439 C28.4625,192.8769 31.6785,189.6609 35.6445,189.6609 C39.6115,189.6609 42.8275,192.8769 42.8275,196.8439"/>
      <path fill="#1E4302" d="M38.6678,293.6398 C38.6678,293.6398 38.8038,296.5868 38.8378,296.8508 C38.8718,297.1138 40.1208,297.7468 41.9478,297.3788 C43.7758,297.0118 48.9048,295.3058 49.8038,294.4218 C50.7028,293.5388 47.8628,293.7298 46.1258,293.8888 C44.3888,294.0488 41.0218,293.6398 41.0218,293.6398 L38.6678,293.6398 Z"/>
      <path fill="#2EA9CD" d="M24.4642,238.8595 L32.3722,245.3635 C32.3722,245.3635 37.0082,261.2765 37.4842,265.0765 C37.9592,268.8775 38.6792,289.3535 38.6682,293.6395 C38.6602,296.2955 40.5712,295.0035 41.2832,294.5285 C41.9962,294.0525 45.0842,268.1875 45.0842,261.4065 C45.0842,254.6265 42.0892,230.9895 42.0892,230.9895 L25.3562,231.0545 L24.4642,238.8595 Z"/>
      <path fill="#D98EBE" d="M55.556,210.0265 C55.556,210.0265 49.059,223.4835 48.459,225.8605 C47.998,227.6905 51.389,230.2815 52.732,228.8615 C54.074,227.4415 57.608,210.6135 57.608,210.6135 L55.556,210.0265 Z"/>
      <path fill="#EAD1AD" d="M41.0926,222.8849 C41.3716,217.0229 42.2316,211.4219 40.9216,210.3429 C37.2016,207.2809 30.9206,205.0449 30.9206,205.0449 C30.9206,205.0449 25.1746,202.3199 23.0196,205.0449 C20.8646,207.7709 13.8666,219.4409 13.1496,223.2719 C12.7756,225.2629 12.9866,228.6109 13.3736,231.7039 C14.3356,232.2609 17.0006,233.6439 18.4796,232.9149 C18.5326,229.3449 18.6226,225.2399 18.7546,224.7119 C18.9936,223.7539 24.4016,213.2159 24.4016,213.2159 C24.4016,213.2159 25.8386,218.9619 26.7956,221.1169 C27.7536,223.2719 25.5986,229.4959 25.1196,231.1719 C24.6406,232.8479 28.9506,234.5239 32.5416,234.7629 C36.1336,235.0029 42.8276,232.1299 42.8276,232.1299 C42.8276,232.1299 40.9066,226.7869 41.0926,222.8849"/>
      <path fill="#D98EBE" d="M18.4163,238.3547 C18.4163,238.3547 18.4363,235.8097 18.4793,232.9157 C17.0003,233.6437 14.3353,232.2607 13.3743,231.7047 C13.7313,234.5627 14.2403,237.2057 14.5853,238.3547 C15.3043,240.7497 18.4163,238.3547 18.4163,238.3547"/>
      <path fill="#DBBE96" d="M40.8743,210.4318 C39.8053,209.7108 40.0363,211.8638 38.7393,211.1188 C37.6663,211.5388 37.1453,211.4218 37.1453,211.4218 L36.3863,216.4318 C36.3863,216.4318 34.9153,227.8008 35.7073,234.4438 C39.0933,233.7318 42.8273,232.1298 42.8273,232.1298 C42.8273,232.1298 42.5353,229.7928 41.7003,226.9088 C40.0133,221.0818 42.4853,211.5178 40.8743,210.4318"/>
      <path fill="#D98EBE" d="M31.0472,198.6662 L29.9712,206.3742 C30.7292,208.1042 32.4662,209.1972 34.3552,209.1312 L35.2402,209.1002 L36.9622,200.9962 L31.0472,198.6662 Z"/>
      <path fill="#4E50A0" d="M40.3748,198.9367 C40.4098,197.8727 38.9448,197.1197 38.0998,197.7677 C37.4978,198.2287 37.3648,199.1147 37.5808,199.8417 C37.7968,200.5687 38.2918,201.1737 38.7738,201.7577 C36.5028,203.2827 34.0418,204.5247 31.4668,205.4477 C30.3958,203.8947 29.3238,202.3417 28.2528,200.7897 C27.7688,200.0877 27.2758,199.3687 27.0528,198.5457 C26.5458,196.6747 27.2988,193.3727 28.5448,191.8877 C30.2998,189.7967 32.6858,188.8747 35.4058,188.6567 C37.5098,188.4867 40.0608,189.9397 41.4228,191.5807 C43.2198,193.7437 41.2148,196.6137 40.3748,198.9367"/>
      <path fill="#EAD1AD" d="M52.7484,225.4015 C52.3174,224.4425 51.7964,223.5235 51.1414,222.7025 C49.6134,220.7865 47.6704,219.1765 45.3014,214.8345 C42.5874,209.8585 39.3474,209.5235 39.3474,209.5235 C33.8294,210.1205 34.8974,213.5795 35.8134,216.2285 C36.2924,217.6155 37.2714,218.7735 38.5754,219.4475 C39.3414,219.8435 40.0954,220.3535 40.7584,221.0585 C44.6044,225.1505 49.4034,230.1255 50.9074,228.7225 L51.2754,228.6135 C52.6364,228.2095 53.3304,226.6975 52.7484,225.4015"/>
      <polygon fill="#D36397" points="47.456 235.504 58.314 227.706 60.478 246.09 48.596 254.842"/>
      <path stroke="#4B4590" stroke-linecap="round" stroke-width=".5" d="M51.3568 223.2062L50.4378 237.4882M51.3445 223.0334L56.2705 234.0794"/>
      <polygon fill="#E879B2" points="42.507 234.153 44.521 237.482 47.457 235.505 48.597 254.841 42.215 251.418"/>
      <path fill="#EAD1AD" d="M35.7625,191.1994 C35.7625,194.1844 33.3425,196.6044 30.3565,196.6044 C27.3715,196.6044 24.9515,194.1844 24.9515,191.1994 C24.9515,188.2144 27.3715,185.7944 30.3565,185.7944 C33.3425,185.7944 35.7625,188.2144 35.7625,191.1994"/>
      <polygon fill="#D36397" points="42.215 251.418 45.287 250.021 48.597 254.842"/>
      <path fill="#4E50A0" d="M35.2435,190.2804 C35.2435,193.4864 32.6445,196.0864 29.4385,196.0864 C26.2315,196.0864 23.6325,193.4864 23.6325,190.2804 C23.6325,187.0744 26.2315,184.4744 29.4385,184.4744 C32.6445,184.4744 35.2435,187.0744 35.2435,190.2804"/>
      <polygon fill="#3A309A" points="40.287 113.81 41.355 112.742 93.308 142.736 93.264 158.265 92.195 159.333"/>
      <path fill="#3A309A" d="M65.8992,130.6203 L63.2102,129.0673 L65.8992,130.6203 Z M65.8242,137.9963 L65.1912,137.5903 L65.8242,137.9963 Z M60.3372,135.9133 L61.3212,136.4813 L61.3212,136.4823 L60.3372,135.9133 Z M52.2832,122.7793 C51.9692,122.7113 51.6942,122.7193 51.4682,122.8043 C51.6942,122.7193 51.9692,122.7113 52.2832,122.7793 Z M54.9182,124.4183 C54.4082,123.9273 53.8842,123.5313 53.3352,123.2143 C53.8842,123.5313 54.4082,123.9263 54.9182,124.4183 Z M54.0142,127.4243 C53.8882,127.2993 53.7612,127.1773 53.6352,127.0573 C53.4262,126.8633 53.2302,126.6813 53.0522,126.5043 C52.6972,126.1503 52.4182,125.8193 52.2722,125.4623 C52.1992,125.2833 52.1602,125.0983 52.1602,124.9003 C52.1602,125.0983 52.1992,125.2833 52.2722,125.4623 C52.4182,125.8193 52.6972,126.1503 53.0522,126.5043 C53.2302,126.6813 53.4262,126.8633 53.6352,127.0573 C53.7612,127.1773 53.8882,127.2993 54.0142,127.4243 C54.2662,127.6753 54.5122,127.9413 54.7352,128.2253 C54.5122,127.9413 54.2662,127.6753 54.0142,127.4243 Z M54.0402,130.7093 C53.9062,130.8063 53.7202,130.8043 53.5042,130.7433 C53.7202,130.8043 53.9062,130.8063 54.0402,130.7093 Z M52.5022,130.2103 C52.6372,130.3083 52.7852,130.4023 52.9352,130.4893 C53.0912,130.5793 53.2402,130.6503 53.3802,130.7023 C53.2402,130.6503 53.0912,130.5793 52.9352,130.4893 C52.7852,130.4023 52.6372,130.3083 52.5022,130.2103 Z M58.6342,133.8953 L59.0002,134.0683 C59.1422,134.1293 59.2532,134.1463 59.3002,134.0443 C59.2532,134.1463 59.1422,134.1293 59.0002,134.0683 L58.6342,133.8953 L58.6312,134.9293 L58.6342,133.8953 Z M58.7102,126.4693 L58.7072,127.5533 L58.7102,126.4693 Z M60.6852,132.4073 L63.8312,134.2233 L63.8252,136.4313 C63.8252,136.5913 63.7962,136.6743 63.7422,136.7043 C63.6882,136.7363 63.6072,136.7153 63.5022,136.6683 C63.6072,136.7153 63.6882,136.7363 63.7422,136.7043 C63.7962,136.6743 63.8252,136.5913 63.8252,136.4313 L63.8312,134.2233 L60.6852,132.4073 Z M41.3552,112.7423 L41.3112,128.2703 L93.2632,158.2653 L93.3072,142.7363 L41.3552,112.7423 Z"/>
      <path fill="url(#ci-journey-landing-a)" d="M40.2872,113.8106 L92.2392,143.8046 L92.1952,159.3336 L40.2432,129.3386 L40.2872,113.8106 Z"/>
      <path fill="#F1F1FF" d="M71.0882 142.6799C72.4992 143.4939 72.9032 142.1949 72.9082 140.6629 72.9112 139.3589 72.6172 137.3469 71.0842 136.4629 69.6602 135.6399 69.1912 136.8909 69.1872 138.4119 69.1822 139.8659 69.4882 141.7559 71.0882 142.6799M71.1532 135.1859C72.8102 136.1429 74.2962 138.1769 74.2862 141.4189 74.2782 144.3449 72.9522 145.0499 71.0062 143.9269 69.0282 142.7839 67.7892 140.5859 67.7972 137.6729 67.8062 134.4049 69.5992 134.2889 71.1532 135.1859M52.2664 124.2824C52.9984 124.7054 53.6874 125.2674 54.3534 126.0104L54.3484 127.9264 53.2134 127.3614 53.2154 126.6184C53.2164 126.3764 53.1834 126.2554 52.9844 126.0654 52.7734 125.8654 52.4844 125.6744 52.2624 125.5464 51.6054 125.1664 51.0944 125.1764 51.0924 125.9684 51.0894 126.7604 51.7324 127.3494 52.5664 128.1264 53.5764 129.0794 54.6424 130.2174 54.6384 131.8664 54.6334 133.5504 53.4734 133.8044 51.9414 132.9194 51.0524 132.4064 50.3634 131.8404 49.6974 131.0984L49.7024 129.0794 50.8374 129.6474 50.8354 130.4244C50.8354 130.6664 50.8674 130.7874 51.0664 130.9804 51.2774 131.1804 51.5664 131.3844 51.8664 131.5574 52.5994 131.9804 53.2004 132.0594 53.2024 131.1004 53.2044 130.2954 52.5734 129.7004 51.7954 129.0094 50.6964 128.0294 49.6764 126.9304 49.6814 125.2964 49.6854 123.7374 50.7314 123.3954 52.2664 124.2824M64.8309 131.6886L64.8279 132.7226 64.4629 132.5496C64.2739 132.4686 64.1409 132.4666 64.1399 132.7736L64.1229 138.6586 64.7559 139.0646 64.7529 140.1476 62.0629 138.5956 62.0659 137.5616 62.4339 137.7366C62.6449 137.8306 62.7559 137.8196 62.7569 137.4996L62.7629 135.2916 59.6169 133.4756 59.6099 136.0526 60.2559 136.4666 60.2529 137.5506 57.5629 135.9976 57.5659 134.9636 57.9319 135.1366C58.1209 135.2176 58.2559 135.2216 58.2569 134.9666L58.2729 129.0286 57.6389 128.6216 57.6419 127.5376 60.3309 129.0906 60.3279 130.1246 59.9629 129.9516C59.7489 129.8556 59.6269 129.8606 59.6259 130.1806L59.6209 132.1586 62.7669 133.9746 62.7739 131.6266 62.1389 131.2196 62.1419 130.1366 64.8309 131.6886zM79.3597 141.3185L79.3517 144.3555 80.1517 144.8175C81.1187 145.3765 81.7767 145.3735 81.7797 144.2365 81.7837 142.9225 81.1277 142.3395 80.0387 141.7105L79.3597 141.3185M80.2937 146.1405L79.3477 145.5945 79.3427 147.4455 80.4097 148.1025 80.4067 149.1865 77.2967 147.3895 77.2987 146.3555 77.6667 146.5315C77.8557 146.6125 77.9887 146.6145 77.9887 146.3595L78.0057 140.4215 77.3737 140.0155 77.3767 138.9325 80.5527 140.7655C82.1877 141.7105 83.1857 143.1815 83.1807 144.8925 83.1747 146.8345 81.9717 147.1095 80.2937 146.1405"/>
    </g>
  </g>
</svg>
