<svg xmlns="http://www.w3.org/2000/svg" width="137" height="259" viewBox="0 0 137 259">
  <defs>
    <linearGradient id="ci-journey-adv-a" x1="2.366%" x2="99.404%" y1="50%" y2="50%">
      <stop offset="0%" stop-color="#24C6DC"/>
      <stop offset="100%" stop-color="#514A9D"/>
    </linearGradient>
  </defs>
  <g fill="none" fill-rule="evenodd">
    <path fill="#9B9B9B" d="M137,223.5 C137,243.107524 106.332008,259 68.500994,259 C30.6699801,259 0,243.107524 0,223.5 C0,203.892476 30.6699801,188 68.500994,188 C106.332008,188 137,203.892476 137,223.5"/>
    <path fill="#0F0F6A" d="M85.4886917 157C85.4080216 157 85.3273514 156.979884 85.2505227 156.937639 85.0161952 156.796825 84.9297629 156.487034 85.0622924 156.239603L94.0858237 139.263435C94.2164325 139.016004 94.5141437 138.927492 94.7484712 139.064283 94.9847195 139.201074 95.0692311 139.514889 94.9386223 139.762319L85.915091 156.738488C85.826738 156.905453 85.6596356 157 85.4886917 157M15.4878778 132C15.4072013 132 15.3265248 131.979882 15.24969 131.937634 15.0153439 131.79882 14.9308257 131.48699 15.0614448 131.239538L24.0876101 114.26193C24.2163083 114.014478 24.5140431 113.927971 24.75031 114.064774 24.9846561 114.201576 25.0691743 114.513406 24.9385552 114.760857L15.9143108 131.738466C15.8259508 131.907457 15.6588352 132 15.4878778 132"/>
    <polygon fill="#E4C3AD" points="30.447 117.324 6.432 131.499 3 171.936 17.181 181 46 162.409 43.942 118.95 38.459 120.105 34.564 115"/>
    <polygon fill="#F7D7CA" points="6.517 132 10.735 140.052 18 135.931 17.531 181 3 172.027"/>
    <polygon fill="#E5B28F" points="17.46 135.508 43.928 119 46 162.424 17 181"/>
    <path fill="#0F0F6A" d="M27.9653951 138.173561C27.8217528 139.273797 27.2731434 140.087808 26.7401096 139.992401 26.2070758 139.899023 25.8921013 138.928704 26.0340129 137.826439 26.1776551 136.726203 26.7262646 135.912192 27.2592984 136.007599 27.7923322 136.100977 28.1090373 137.073326 27.9653951 138.173561M36.9653701 132.173561C36.8216555 133.273797 36.274501 134.087808 35.739467 133.992401 35.2061645 133.899023 34.8910312 132.928704 35.0347459 131.828469 35.1784605 130.726203 35.7273465 129.912191 36.260649 130.007599 36.79222 130.103007 37.1090847 131.073325 36.9653701 132.173561"/>
    <polygon fill="#E5B28F" points="3 171.817 10.218 169 17 181"/>
    <path fill="#0F0F6A" d="M27.5180567,139 C27.230474,139 27,138.771707 27,138.489345 L27.075465,110.509484 C27.0775045,110.26517 27.2549492,110.056903 27.4997004,110.010844 C27.7403724,109.958778 27.9851236,110.098957 28.0769053,110.329253 L36.9634135,132.874148 C37.0694724,133.134482 36.9368988,133.432865 36.6697121,133.532993 C36.4025254,133.629116 36.1027052,133.504957 35.9986859,133.240618 L28.1054596,113.216954 L28.0361134,138.493351 C28.0340738,138.77371 27.8035998,139 27.5180567,139"/>
    <path fill="#0F0F6A" d="M28.0741188,139 C27.8001188,139 27.5741188,138.779203 27.5661188,138.497637 L27.0001188,115.528697 C26.9941188,115.243079 27.2161188,115.008103 27.4961188,115 L27.5081188,115 C27.7841188,115 28.0101188,115.222822 28.0161188,115.502363 L28.5821188,138.471303 C28.5901188,138.756921 28.3661188,138.991897 28.0881188,139 L28.0741188,139 Z"/>
    <path fill="#27BDD8" d="M41.0322025,93.553718 C41.0322025,93.553718 32.0215084,130.94214 28.2546288,150.953904 C24.4857613,170.967648 30.4094032,222.873904 30.4094032,222.873904 C30.4094032,222.873904 32.2938369,226 36.6888611,226 C41.0838853,226 45.8367134,164.087862 45.8367134,164.087862 C45.8367134,164.087862 51.7066847,118.568423 54.8474076,119.194038 C55.5530763,119.334604 61.2719748,121.470802 63.8541261,120.979813 C72.7554913,119.283129 85.4734311,111.520354 84.9864203,102.30837 C84.3582757,90.4256424 74.9400827,89.8000273 74.9400827,89.8000273 C74.9400827,89.8000273 58.6142872,88.5507769 56.7298535,89.1744122 C54.8474076,89.8000273 41.0322025,93.553718 41.0322025,93.553718"/>
    <path fill="#27BDD8" d="M62.0218519,106.698442 C62.0218519,106.698442 58.9831673,147.773404 63.3858748,155.939891 C67.7885823,164.102401 92.358916,188.929872 92.358916,188.929872 C92.358916,188.929872 99.5713115,189.872159 97.6855748,184.848617 C95.7978467,179.825075 78.7784252,149.610267 78.7784252,149.610267 L85.1047037,101.9552 L71.2673385,85 L62.0218519,106.698442 Z"/>
    <path fill="#F1F1FF" d="M31,33.9227106 C31,33.9227106 34.7780966,27 40.4412562,27 C46.1064084,27 83.1500877,35.2375276 85.6688187,37.7556013 C88.1855571,40.2716829 106,74.0784164 106,85.4077561 C106,96.7331114 102.221903,135.751301 102.221903,135.751301 C102.221903,135.751301 95.2993783,137.010338 93.41033,133.862746 C91.5212817,130.717146 89.6322334,91.7009483 89.6322334,91.7009483 C89.6322334,91.7009483 79.5612944,55.2008321 79.5612944,57.0893874 C79.5612944,58.9759505 31,33.9227106 31,33.9227106"/>
    <path fill="#F1F1FF" d="M41.4498006,33.4027596 L77.9901915,43.6643791 L83.1592911,52.9461357 C83.1592911,52.9461357 86.2709985,97.0738936 84.4027917,102.74752 C82.5365555,108.421145 61.9921927,110.941648 54.5233069,109.682395 C47.0524503,108.421145 40.827065,93.9227662 40.827065,93.9227662 L37,31 L41.4498006,33.4027596 Z"/>
    <path fill="#F1F1FF" d="M31.0735538,33.0619976 C31.0735538,33.0619976 20.7096582,51.8955297 20.0859692,65.0162963 C19.4622802,78.1390409 22.4366452,106.679131 22.4366452,106.679131 C22.4366452,106.679131 26.1787793,109.177477 29.9189397,107.302234 C33.6591001,105.428969 32.411722,70.4382805 34.2827891,66.0627135 C36.1538561,61.6891246 48,34.1934733 48,34.1934733 C48,34.1934733 43.5433867,25.5649819 31.0735538,33.0619976"/>
    <path fill="#AA6396" d="M66,14.4990213 C66,22.5090111 59.5074919,29 51.5,29 C43.4905508,29 37,22.5090111 37,14.4990213 C37,6.49098886 43.4905508,0 51.5,0 C59.5074919,0 66,6.49098886 66,14.4990213"/>
    <path fill="#AA6396" d="M47,19.0549453 L51.9622685,33.8319369 C54.8959491,36.2676195 59.0396991,36.6903733 62.416088,34.9004568 L64,34.0588277 L59.8582176,18 L47,19.0549453 Z"/>
    <path fill="#1E4302" d="M92,188.263155 C92,188.263155 93.9400806,196.068269 93.3114624,197.547512 C92.6848525,199.02876 90.4836844,206.200485 94.3116281,206.910041 C98.1415802,207.617592 100.569694,204.033734 100.96735,200.291529 C101.365006,196.547319 97.9989863,185 97.9989863,185 L92,188.263155 Z"/>
    <path fill="#AA6396" d="M35.3556675,210.30756 C33.4130982,210.009936 31.2065491,209.4008 29,209 C29.729471,217.18465 30.3722922,222.762116 30.3722922,222.762116 C30.8760705,227.893147 32.520403,227.458617 36.8468514,226.125263 C38.2211587,225.702638 39.6579345,219.38508 41,210.597247 C38.9062972,210.561532 36.9093199,210.547643 35.3556675,210.30756"/>
    <path fill="#E0E4FF" d="M28.1100333,211.436965 C28.1100333,211.436965 32.2880259,215.889521 40.8897753,214.839799 C41.90573,214.600569 42.9216847,212.278393 42.9952204,210.236693 C43.028118,209.292149 42.8868519,208.256862 42.7049477,207.34944 C42.4611186,206.142981 41.1645669,205.555219 40.1679637,206.184227 C38.4205217,207.28757 35.7132445,208.623956 33.2304448,208.285735 C29.1434043,207.728908 28.7486334,203 28.7486334,203 L27.9242587,203.020623 C26.728335,204.891151 26.8618604,207.095774 27.3804811,209.288024 C27.4791738,209.702551 27.6030235,210.112953 27.7559005,210.513044 L28.1100333,211.436965 Z"/>
    <path fill="#AA6396" d="M97.6778059,185.705204 C97.2023752,184.428541 95.7862855,181.573011 93.9274128,178 C92.3542065,180.30046 90.5810337,182.461124 90.1076435,182.837339 C89.0792441,183.65761 88.0426827,184.157173 87,184.510774 C90.105603,187.769245 92.2195352,189.927853 92.2195352,189.927853 C92.2195352,189.927853 99.6101358,190.900255 97.6778059,185.705204"/>
    <path fill="#E0E4FF" d="M83,181.321641 L85.5700545,185.339126 C85.5700545,185.339126 93.1128567,188.999947 95,179.089482 L92.5992305,174 L91.7412632,174.180336 C91.7412632,174.180336 92.1721706,179.089482 88.6556589,179.892979 C85.1429945,180.696476 83.6001924,180.249644 83.6001924,180.249644 L83,181.321641 Z"/>
    <path fill="#1E4302" d="M38.3526212,233.527355 L38.9763469,225.265431 C39.0083329,224.842265 39.0363206,224.386547 38.8583988,224 C38.3506221,224.547269 37.5449763,224.657129 36.8073006,224.695784 C34.8681532,224.799541 32.9170111,224.646957 31.0178461,224.2421 C30.8899023,227.226646 28.7968226,229.58458 26.7917042,231.765517 C24.7845867,233.944419 22.5215817,235.993115 21.2821266,238.700976 C21.0602242,239.18721 20.874306,239.764996 21.1082031,240.247162 C21.4000748,240.847326 22.1697364,240.985669 22.8254481,240.997876 C25.7181762,241.050772 28.5629255,240.110853 31.1138039,238.723355 C33.6646823,237.333822 36.0956135,235.368537 38.3526212,233.527355"/>
    <path fill="#AA6396" d="M68,15.5 C68,18.5363985 66.655857,21 65,21 C63.3421575,21 62,18.5363985 62,15.5 C62,12.4616858 63.3421575,10 65,10 C66.655857,10 68,12.4616858 68,15.5"/>
    <path fill="#4E50A0" d="M51.9041441,0 C45.5796757,0 40.1834955,3.95655704 38,9.53917986 C40.6496577,11.1144945 44.8612613,11.6463662 47.5472432,11.6788469 C48.7277838,11.6930572 59.4172252,10.2070646 58.949045,8.3272432 C59.5282162,10.6557044 60.4221982,12.907024 61.5966847,15 C61.5987027,12.7141697 63.3785946,10.5582623 65.6105225,10.138043 C65.7396757,10.1136825 65.8688288,10.089322 66,10.0649614 C63.9577658,4.20625254 58.4243604,0 51.9041441,0"/>
    <path fill="#AA6396" d="M102 135.50102C102 138.537192 99.5371916 141 96.4989798 141 93.4607679 141 91 138.537192 91 135.50102 91 132.462808 93.4607679 130 96.4989798 130 99.5371916 130 102 132.462808 102 135.50102M32 111.5C32 114.536735 29.5371916 117 26.4989798 117 23.4607679 117 21 114.536735 21 111.5 21 108.461224 23.4607679 106 26.4989798 106 29.5371916 106 32 108.461224 32 111.5"/>
    <polygon fill="url(#ci-journey-adv-a)" points="102.447 144.324 78.43 158.499 75 198.936 89.181 208 118 189.409 115.942 145.95 110.459 147.105 106.564 142"/>
    <polygon fill="#F1F1FF" points="78.517 158 82.735 166.052 90 161.931 89.533 207 75 198.027"/>
    <polygon fill="#E0E4FF" points="89.46 162.508 115.93 146 118 189.424 89 208"/>
    <path fill="#0F0F6A" d="M99.9653701 164.172607C99.8216555 165.275261 99.274501 166.089559 98.739467 165.992087 98.2061645 165.898676 97.8910312 164.928016 98.0347459 163.827393 98.1784605 162.724739 98.7273465 161.910441 99.260649 162.007913 99.79222 162.101324 100.109085 163.071984 99.9653701 164.172607M108.96537 159.173401C108.821655 160.273556 108.272769 161.089538 107.739467 160.992107 107.206165 160.898736 106.891031 159.928489 107.034746 158.828334 107.178461 157.72615 107.727346 156.912198 108.260649 157.007599 108.79222 157.102999 109.109085 158.073247 108.96537 159.173401"/>
    <polygon fill="#E0E4FF" points="75 198.817 82.22 196 89 208"/>
    <path fill="#0F0F6A" d="M99.5180581,165 C99.2304747,165 99,164.771707 99,164.489344 L99.0754652,136.509384 C99.0775048,136.26507 99.2549498,136.056802 99.4997017,136.010743 C99.7403743,135.958676 99.9851262,136.100859 100.076908,136.329152 L108.96344,158.874127 C109.069499,159.134462 108.936925,159.432845 108.667698,159.532974 C108.40255,159.629097 108.102729,159.504938 107.998709,159.240598 L100.105462,139.216864 L100.036116,164.493349 C100.034077,164.773709 99.8036019,165 99.5180581,165"/>
    <path fill="#0F0F6A" d="M100.074119,165 C99.8001188,165 99.5741188,164.779185 99.5661188,164.497594 L99.0001188,141.526716 C98.9941188,141.2431 99.2161188,141.008103 99.4961188,141 L99.5081188,141 C99.7821188,141 100.010119,141.220815 100.016119,141.502406 L100.582119,164.473284 C100.588119,164.7569 100.366119,164.991897 100.086119,165 L100.074119,165 Z"/>
  </g>
</svg>
