<svg xmlns="http://www.w3.org/2000/svg" xmlns:xlink="http://www.w3.org/1999/xlink" width="414" height="393" viewBox="0 0 414 393">
  <defs>
    <polygon id="ci-loyalty-landing-a" points="0 118 392.5 118 392.5 .89 0 .89"/>
    <polygon id="ci-loyalty-landing-c" points="0 .656 0 55.281 95.618 55.281 95.618 .656 0 .656"/>
    <polygon id="ci-loyalty-landing-e" points="25.546 4 .254 4 .254 .974 25.546 .974"/>
    <polygon id="ci-loyalty-landing-g" points="0 38.112 0 76 65.823 76 65.823 38.112 65.823 .223 0 .223"/>
    <polygon id="ci-loyalty-landing-i" points="0 44.129 0 88 77.791 88 77.791 44.129 77.791 .259 0 .259"/>
    <polygon id="ci-loyalty-landing-k" points="0 39 0 78 67.818 78 67.818 39 67.818 .001 0 .001"/>
  </defs>
  <g fill="none" fill-rule="evenodd">
    <g transform="translate(0 274)">
      <polygon fill="#FFF" points="33.82 117.933 37.32 117.933 37.32 6.434 33.82 6.434"/>
      <g transform="translate(0 .11)">
        <path fill="#FFF" d="M37.4089,117.9998 L33.7319,117.9998 C33.1169,117.9998 32.6169,117.5008 32.6169,116.8858 L32.6169,116.0108 C32.6169,115.3958 33.1169,114.8958 33.7319,114.8958 L37.4089,114.8958 C38.0249,114.8958 38.5239,115.3958 38.5239,116.0108 L38.5239,116.8858 C38.5239,117.5008 38.0249,117.9998 37.4089,117.9998 Z"/>
        <mask id="ci-loyalty-landing-b" fill="#fff">
          <use xlink:href="#ci-loyalty-landing-a"/>
        </mask>
        <polygon fill="#FFF" points="358.417 116.719 361.917 116.719 361.917 6.323 358.417 6.323" mask="url(#ci-loyalty-landing-b)"/>
        <path fill="#FFF" d="M362.0055,117.9998 L358.3275,117.9998 C357.7125,117.9998 357.2135,117.5008 357.2135,116.8858 L357.2135,116.0108 C357.2135,115.3958 357.7125,114.8958 358.3275,114.8958 L362.0055,114.8958 C362.6205,114.8958 363.1195,115.3958 363.1195,116.0108 L363.1195,116.8858 C363.1195,117.5008 362.6205,117.9998 362.0055,117.9998" mask="url(#ci-loyalty-landing-b)"/>
        <path fill="#D19F9C" d="M389.2419,7.4061 L3.2579,7.4061 C1.4589,7.4061 -0.0001,5.9471 -0.0001,4.1481 C-0.0001,2.3481 1.4589,0.8901 3.2579,0.8901 L389.2419,0.8901 C391.0419,0.8901 392.4999,2.3481 392.4999,4.1481 C392.4999,5.9471 391.0419,7.4061 389.2419,7.4061" mask="url(#ci-loyalty-landing-b)"/>
      </g>
    </g>
    <g transform="translate(144 161)">
      <g transform="translate(0 55.92)">
        <mask id="ci-loyalty-landing-d" fill="#fff">
          <use xlink:href="#ci-loyalty-landing-c"/>
        </mask>
        <path fill="#393939" d="M95.6176,55.2808 L15.9546,55.2808 L0.1846,5.7008 C-0.6094,3.2038 1.2546,0.6558 3.8746,0.6558 L75.4116,0.6558 C77.0976,0.6558 78.5906,1.7468 79.1006,3.3538 L95.6176,55.2808 Z" mask="url(#ci-loyalty-landing-d)"/>
      </g>
      <path fill="#E1EDF9" d="M94.3305,111.2008 L18.0555,111.2008 L2.4335,62.5368 C1.6465,60.0868 3.4925,57.5858 6.0875,57.5858 L74.3135,57.5858 C75.9845,57.5858 77.4625,58.6558 77.9695,60.2328 L94.3305,111.2008 Z"/>
      <path fill="#C2E0F2" d="M46.4769 66.7838L11.7259 66.7838C11.2089 66.7838 10.7889 66.3638 10.7889 65.8468 10.7889 65.3288 11.2089 64.9088 11.7259 64.9088L46.4769 64.9088C46.9949 64.9088 47.4139 65.3288 47.4139 65.8468 47.4139 66.3638 46.9949 66.7838 46.4769 66.7838M51.8578 71.1178L13.1078 71.1178C12.5898 71.1178 12.1698 70.6978 12.1698 70.1808 12.1698 69.6618 12.5898 69.2428 13.1078 69.2428L51.8578 69.2428C52.3758 69.2428 52.7948 69.6618 52.7948 70.1808 52.7948 70.6978 52.3758 71.1178 51.8578 71.1178M48.268 75.4508L14.518 75.4508C14 75.4508 13.58 75.0308 13.58 74.5138 13.58 73.9958 14 73.5758 14.518 73.5758L48.268 73.5758C48.786 73.5758 49.205 73.9958 49.205 74.5138 49.205 75.0308 48.786 75.4508 48.268 75.4508M42.643 79.7838L15.893 79.7838C15.375 79.7838 14.955 79.3638 14.955 78.8468 14.955 78.3288 15.375 77.9088 15.893 77.9088L42.643 77.9088C43.161 77.9088 43.58 78.3288 43.58 78.8468 43.58 79.3638 43.161 79.7838 42.643 79.7838M56.06 84.1178L17.31 84.1178C16.792 84.1178 16.372 83.6978 16.372 83.1808 16.372 82.6618 16.792 82.2428 17.31 82.2428L56.06 82.2428C56.578 82.2428 56.997 82.6618 56.997 83.1808 56.997 83.6978 56.578 84.1178 56.06 84.1178M52.4467 88.4508L18.6967 88.4508C18.1787 88.4508 17.7587 88.0308 17.7587 87.5138 17.7587 86.9958 18.1787 86.5758 18.6967 86.5758L52.4467 86.5758C52.9647 86.5758 53.3837 86.9958 53.3837 87.5138 53.3837 88.0308 52.9647 88.4508 52.4467 88.4508M60.2123 97.1178L21.4623 97.1178C20.9443 97.1178 20.5243 96.6978 20.5243 96.1808 20.5243 95.6618 20.9443 95.2428 21.4623 95.2428L60.2123 95.2428C60.7303 95.2428 61.1493 95.6618 61.1493 96.1808 61.1493 96.6978 60.7303 97.1178 60.2123 97.1178M61.6234 101.4508L22.8724 101.4508C22.3554 101.4508 21.9354 101.0308 21.9354 100.5138 21.9354 99.9958 22.3554 99.5758 22.8724 99.5758L61.6234 99.5758C62.1414 99.5758 62.5604 99.9958 62.5604 100.5138 62.5604 101.0308 62.1414 101.4508 61.6234 101.4508M82.2279 101.4508L69.7099 101.4508C68.5439 101.4508 67.5129 100.6948 67.1619 99.5828L56.7259 66.5548C56.1819 64.8318 57.4679 63.0758 59.2759 63.0758L71.7919 63.0758C72.9589 63.0758 73.9909 63.8318 74.3419 64.9438L84.7769 97.9718C85.3219 99.6948 84.0349 101.4508 82.2279 101.4508"/>
      <path fill="#767676" d="M102.2934,114.8102 L15.6634,114.8102 C14.2474,114.8102 13.1004,113.6632 13.1004,112.2472 C13.1004,110.8322 14.2474,109.6852 15.6634,109.6852 L102.2934,109.6852 C103.7084,109.6852 104.8564,110.8322 104.8564,112.2472 C104.8564,113.6632 103.7084,114.8102 102.2934,114.8102"/>
      <path fill="#1A1A47" d="M109.2728,33.6696 C109.0888,33.6696 108.9038,33.7126 108.7318,33.8036 L100.7098,38.0396 C100.4278,38.1896 100.2238,38.4396 100.1338,38.7456 C100.0448,39.0516 100.0828,39.3726 100.2408,39.6496 L103.1228,44.7186 C103.4348,45.2676 104.1368,45.4676 104.6958,45.1666 L112.5728,40.8886 C112.8458,40.7396 113.0458,40.4926 113.1338,40.1926 C113.2228,39.8936 113.1888,39.5786 113.0398,39.3046 L110.3018,34.2776 C110.0908,33.8906 109.6878,33.6696 109.2728,33.6696 M104.1468,46.3056 C103.3898,46.3056 102.6508,45.9106 102.2528,45.2126 L99.3718,40.1446 C99.0788,39.6296 99.0088,39.0336 99.1738,38.4656 C99.3398,37.8976 99.7198,37.4326 100.2438,37.1556 L108.2648,32.9196 C109.3048,32.3676 110.6158,32.7626 111.1808,33.7996 L113.9188,38.8256 C114.1958,39.3346 114.2568,39.9206 114.0938,40.4766 C113.9298,41.0316 113.5588,41.4906 113.0488,41.7676 L105.1718,46.0456 C104.8478,46.2216 104.4958,46.3056 104.1468,46.3056"/>
      <path fill="#FFF" d="M71.2699,98.7057 C70.7099,99.4257 70.2599,99.8857 70.2599,99.8857 C70.2599,99.8857 66.0599,96.7057 64.8899,96.4057 C63.7299,96.1157 61.2299,97.0357 59.8099,97.1157 C58.3899,97.2057 58.2709,96.3547 58.2709,96.3547 C58.2709,96.3547 52.8499,98.6157 51.9799,98.8257 C51.0999,99.0357 50.5199,98.7457 51.0599,97.3657 C51.1799,97.0657 51.5409,96.5857 52.0599,96.0057 L52.0699,95.9957 C53.9199,93.9057 57.7299,90.5657 59.0999,89.9057 C60.8499,89.0757 63.2299,87.8657 65.1399,88.5757 C67.0599,89.2857 73.2699,93.9457 73.2699,93.9457 C73.4509,95.5457 72.2099,97.4957 71.2699,98.7057"/>
      <path fill="#F4F4F4" d="M72.56,94.2252 L71.27,98.7052 C70.71,99.4252 70.26,99.8852 70.26,99.8852 C70.26,99.8852 66.06,96.7052 64.89,96.4062 C63.73,96.1162 61.23,97.0362 59.81,97.1162 C58.39,97.2052 58.271,96.3552 58.271,96.3552 C58.271,96.3552 52.85,98.6162 51.98,98.8262 C51.1,99.0362 50.52,98.7462 51.06,97.3662 C51.18,97.0662 51.54,96.5852 52.06,96.0052 C51.601,96.6412 51.091,97.2962 51.393,98.1072 C51.76,99.0932 57.578,96.3202 61.78,93.7862 C61.845,93.7462 62.183,93.5792 62.301,93.7742 C62.377,93.9082 62.133,94.1782 62.07,94.2462 C61.37,94.9972 57.846,95.2622 58.56,96.3852 C59.565,97.9662 63.18,95.0662 65.161,95.7152 C67.14,96.3662 69.621,98.1752 69.621,98.1752 C69.621,98.1752 70.75,94.8052 72.56,94.2252"/>
      <path fill="#9E304F" d="M69.6215,99.8883 C69.6215,99.8883 90.2255,117.9093 105.6425,119.7423 C121.0595,121.5753 147.0585,92.3263 147.0585,92.3263 C147.0585,92.3263 145.4225,76.7433 135.8085,78.5763 C126.1945,80.4083 113.3095,103.5763 107.7255,104.6593 C102.1425,105.7423 73.1105,93.4393 73.1105,93.4393 C73.1105,93.4393 72.2855,94.0203 71.3135,95.6513 C70.2675,97.4093 69.6215,99.8883 69.6215,99.8883"/>
      <path fill="#AA6396" d="M139.725,11.0758 C134.086,4.6218 125.752,3.9278 119.319,4.6388 C110.871,5.5728 103.531,11.2688 101.091,19.4098 C100.038,22.9288 99.834,27.0448 101.475,31.5758 C106.725,46.0758 112.225,55.3258 117.35,58.0758 C119.306,59.1258 123.046,58.4258 127.042,57.0208 C127.569,56.8368 128.152,57.0548 128.414,57.5468 L130.1,60.7008 L144.934,57.4918 C144.934,57.4918 143.025,53.3598 142.013,49.0218 C144.169,46.3008 150.041,22.8838 139.725,11.0758"/>
      <path fill="#0B0B3A" d="M109.7494,31.7633 C111.5924,31.6173 113.3424,32.5883 114.0594,34.2933 C115.2784,37.1953 117.1614,41.2553 118.6424,42.5763 C118.9454,42.8463 119.6134,42.9393 120.2714,42.5913 C120.9224,42.2473 121.0544,41.6913 121.0174,41.3263 C120.8894,40.0723 119.9604,37.3543 119.3024,35.5473 C118.4604,33.2303 119.4594,30.7793 122.2254,30.1593 C122.7254,30.0473 123.9944,30.1133 124.6374,30.3073 C129.0214,31.6383 126.0014,38.5143 125.9124,42.1073 C125.8504,44.6383 128.8814,50.5063 130.2254,51.0343 C134.6314,52.7633 141.3094,51.2003 144.8504,46.8263 C148.3924,42.4513 149.1624,27.8253 147.2254,19.0753 C145.2874,10.3263 138.2874,5.3883 135.9754,4.8263 C134.8324,4.5473 133.8894,4.5443 133.2264,4.6123 C132.5214,4.6843 131.8264,4.4453 131.2924,3.9813 C128.9614,1.9523 121.9954,-2.6827 110.9754,2.0763 C97.2254,8.0133 94.9124,20.7003 95.1624,26.4513 C95.3254,30.1883 98.2604,29.9113 100.2954,29.2613 C101.4144,28.9023 102.6334,29.1953 103.5264,29.9593 C104.6794,30.9453 106.6664,32.0073 109.7494,31.7633"/>
      <path fill="#BA3E5C" d="M129.642,63.0758 C129.642,63.0758 128.366,61.6538 128.85,60.7838 C129.451,59.7058 135.96,54.5548 143.559,54.8258 C144.74,54.8678 146.184,54.8678 147.6,57.9508 C149.017,61.0338 149.35,63.0758 149.35,63.0758 L129.642,63.0758 Z"/>
      <path fill="#D73E5C" d="M164.8949,154.9957 C164.4349,155.1057 163.9349,155.2157 163.4159,155.3157 C156.9649,156.5157 146.4749,156.6557 146.4749,156.6557 C125.7949,156.2857 116.6159,145.1357 113.2549,139.3857 C112.0759,137.3657 111.6049,136.0157 111.6049,136.0157 C112.7859,135.3857 116.9159,131.6357 118.4749,126.5157 C120.0359,121.3857 118.3949,109.1557 115.7249,104.4957 C114.2549,101.9347 109.9059,96.7457 107.1749,91.2757 C104.9349,86.7757 103.7759,82.0857 106.2249,78.5057 C112.3049,69.5757 121.8949,64.8257 121.8949,64.8257 C121.8949,64.8257 139.4959,57.7757 154.4859,59.3757 C163.9959,60.3757 172.4649,64.8557 174.7249,76.8257 C180.5549,107.6557 164.8949,154.9957 164.8949,154.9957"/>
      <path fill="#BA3E5C" d="M124.225,119.7457 C122.975,130.7157 117.065,136.6447 113.255,139.3857 C112.076,137.3657 111.605,136.0157 111.605,136.0157 C112.786,135.3857 116.915,131.6357 118.475,126.5157 C120.036,121.3857 118.395,109.1557 115.725,104.4957 C114.255,101.9347 109.906,96.7457 107.175,91.2757 L108.335,90.8257 L115.395,89.6557 L118.975,92.5757 C118.975,92.5757 126.105,103.2857 124.225,119.7457"/>
      <path fill="#ED4877" d="M164.8949,154.9957 C164.4349,155.1057 163.9349,155.2157 163.4159,155.3157 C164.7359,148.3657 166.7549,137.4057 169.4749,121.5757 C174.8449,90.3257 169.2559,74.4957 166.1049,68.8257 C163.5589,64.2427 158.6559,61.8157 154.4859,59.3757 C163.9959,60.3757 172.4649,64.8557 174.7249,76.8257 C180.5549,107.6557 164.8949,154.9957 164.8949,154.9957"/>
      <path fill="#FFF" d="M121.6185 216.0504C121.6185 216.0504 120.1415 217.7854 117.9045 218.1454 115.4205 218.5444 113.5805 217.3424 113.5805 217.3424L112.4305 214.0254 120.3665 212.2964 121.6185 216.0504zM80.0375 220.1588C80.0375 220.1588 78.3035 221.6378 76.0375 221.6378 73.5215 221.6378 71.8955 220.1588 71.8955 220.1588L71.2875 216.7008 79.4295 216.7008 80.0375 220.1588z"/>
      <path fill="#1A1A47" d="M120.5853,212.736 C120.0643,212.975 119.5153,213.185 118.9453,213.385 C115.9453,214.395 112.5953,214.776 112.5953,214.776 C106.0953,204.116 93.7253,163.406 93.7253,163.406 C92.1753,156.845 96.8453,154.196 100.9453,153.946 C102.3653,153.866 103.7153,154.066 104.7253,154.496 C108.6453,156.156 114.3953,167.246 114.3953,167.246 C114.3953,167.246 116.1453,171.076 117.9753,178.996 C119.8053,186.906 120.5853,212.736 120.5853,212.736"/>
      <path fill="#3D3D72" d="M120.5853,212.736 C120.0643,212.975 119.5153,213.185 118.9453,213.385 C118.5353,210.225 117.9253,205.185 117.0253,197.156 C115.0153,179.156 103.6053,158.546 100.9453,153.946 C102.3653,153.866 103.7153,154.066 104.7253,154.496 C108.6453,156.156 114.3953,167.246 114.3953,167.246 C114.3953,167.246 116.1453,171.076 117.9753,178.996 C119.8053,186.906 120.5853,212.736 120.5853,212.736"/>
      <path fill="#3D3D72" d="M137.0258,155.6354 C136.9748,159.3654 135.9858,165.3164 130.3948,166.9954 C122.0548,169.4954 115.8948,168.0754 106.2248,166.4064 C98.1258,165.0154 85.3358,160.2764 81.4158,158.7854 C80.9058,158.5954 80.4058,159.0264 80.5058,159.5554 C82.3548,168.5954 81.0948,186.1564 80.1448,191.3254 C79.1448,196.7454 79.9558,217.2654 79.9558,217.2654 C79.9558,217.2654 78.6258,217.6754 77.1958,217.9064 C76.6558,217.9864 76.1048,218.0454 75.6048,218.0454 C73.5058,218.0454 70.9748,217.6564 70.9748,217.6564 C70.9748,217.6564 62.2248,183.2454 61.0548,163.9954 C59.8948,144.7454 61.7248,143.1564 70.4748,139.0754 C79.2248,134.9954 111.6048,136.0154 111.6048,136.0154 L111.6158,136.0264 C111.7248,136.3654 113.9248,142.3754 120.4158,147.8164 C124.2758,151.0664 129.6658,154.1064 137.0258,155.6354"/>
      <path fill="#33305B" d="M137.0258,155.6354 C136.9748,159.3654 135.9858,165.3164 130.3948,166.9954 C122.0548,169.4954 115.8948,168.0754 106.2248,166.4064 C98.1258,165.0154 85.3358,160.2764 81.4158,158.7854 C80.9058,158.5954 80.4058,159.0264 80.5058,159.5554 C82.3548,168.5954 81.0948,186.1564 80.1448,191.3254 C79.1448,196.7454 79.9558,217.2654 79.9558,217.2654 C79.9558,217.2654 78.6258,217.6754 77.1958,217.9064 C76.9458,216.5454 76.6158,214.6254 76.2648,212.2954 C75.5548,207.5154 76.1048,194.5754 76.2648,185.4154 C76.4248,176.2654 73.3448,168.4464 73.2248,159.4464 C73.1048,150.4464 74.2248,145.9464 96.2958,150.2054 C110.4348,152.9254 117.3048,150.1564 120.4158,147.8164 C124.2758,151.0664 129.6658,154.1064 137.0258,155.6354"/>
      <path fill="#C9DDF9" d="M146.4799,175.2057 L146.4799,224.6357 C146.4799,226.3947 145.0499,227.8257 143.2909,227.8257 C142.5809,227.8257 141.9299,227.5957 141.3999,227.2057 C140.6099,226.6257 140.0999,225.6847 140.0999,224.6357 L140.0999,175.2057 L146.4799,175.2057 Z"/>
      <path fill="#4E52A1" d="M146.4799,177.3561 L146.4799,224.4991 C146.4799,226.0351 145.2549,227.5941 143.7329,227.7961 C142.9809,227.8961 142.2789,227.7381 141.6929,227.3971 C141.5919,227.2101 141.4709,226.9831 141.3709,226.7951 L141.3709,178.6651 C141.3709,177.9411 141.9569,177.3561 142.6789,177.3561 L146.4799,177.3561 Z"/>
      <path fill="#C9DDF9" d="M150.5199,173.5455 C150.5199,173.7855 150.4899,174.0055 150.4299,174.2255 C150.3099,174.7155 150.0499,175.1455 149.7099,175.4855 C149.2199,175.9855 148.5299,176.2955 147.7699,176.2955 L138.2699,176.2955 C136.7599,176.2955 135.5199,175.0665 135.5199,173.5455 C135.5199,172.7855 135.8309,172.0955 136.3309,171.6065 C136.8309,171.1065 137.5099,170.7955 138.2699,170.7955 L147.7699,170.7955 C149.2909,170.7955 150.5199,172.0255 150.5199,173.5455"/>
      <path fill="#FEFEFF" d="M150.4301,174.2252 C150.3101,174.7152 150.0501,175.1452 149.7101,175.4862 C149.2201,175.9862 148.5301,176.2952 147.7701,176.2952 L138.6801,176.2952 C138.8001,175.8052 139.0501,175.3662 139.3901,175.0262 C139.8901,174.5362 140.5801,174.2252 141.3401,174.2252 L150.4301,174.2252 Z"/>
      <path fill="#26C1DA" d="M184.3597,87.3053 C184.3597,87.3353 184.3497,87.3563 184.3497,87.3853 C184.3197,87.6653 184.2597,87.9753 184.1797,88.3263 C183.4207,91.5453 180.6897,97.8563 180.2907,107.3263 C180.0097,114.0153 180.3497,133.3853 179.8497,141.6353 C179.3497,149.8853 176.5407,162.1353 167.9107,168.3263 C159.1607,174.9063 141.5407,173.7653 130.8497,173.5153 C120.1607,173.2653 93.6607,168.4463 91.5407,164.5153 C91.0497,163.6253 90.9397,162.8663 91.0497,162.2363 C91.1497,161.6063 91.4697,161.1063 91.8707,160.6963 C92.8807,159.6853 94.3997,159.3753 95.7907,159.7253 C100.0997,160.8053 112.9507,163.2763 118.7297,155.9463 C125.7297,147.0763 124.8497,136.8263 127.8497,115.2053 C130.6897,94.7553 137.0597,88.4863 147.6207,84.4063 C158.9107,80.0553 177.0407,81.9253 181.5697,83.2853 C183.3197,83.8163 184.5407,85.4753 184.3597,87.3053"/>
      <path fill="#4E52A1" d="M180.2904,230.736 C180.2904,231.385 179.7604,231.906 179.1204,231.906 L107.4604,231.906 C106.8104,231.906 106.2904,231.385 106.2904,230.736 C106.2904,230.166 106.7004,229.675 107.2704,229.586 L143.2904,223.746 L152.3504,225.215 L179.3004,229.586 C179.8704,229.675 180.2904,230.166 180.2904,230.736"/>
      <path fill="#C9DDF9" d="M127.5805,229.2858 C127.5805,229.2858 127.7905,229.5358 127.0805,230.1558 C126.7905,230.4158 123.5505,231.1448 119.8905,231.9058 L107.4605,231.9058 C106.8095,231.9058 106.2905,231.3858 106.2905,230.7358 C106.2905,230.1658 106.7005,229.6758 107.2695,229.5858 L143.2905,223.7458 L127.5805,229.2858 Z"/>
      <path fill="#1A1A47" d="M71.892 220.1588C71.892 220.1588 74.053 221.0128 76.006 221.0128 78.35 221.0128 80.059 220.1588 80.059 220.1588 80.059 220.1588 84.233 225.4748 82.015 231.3978 81.9 231.7078 81.591 231.9088 81.261 231.9088L53.267 231.9088C52.926 231.9088 52.637 231.6418 52.632 231.3018 52.623 230.6118 52.901 229.5128 54.6 228.9928 57.184 228.2008 59.85 227.7628 61.85 227.0548 63.85 226.3458 66.722 223.4088 68.329 222.8678 70.371 222.1798 71.892 220.1588 71.892 220.1588M113.5766 217.3434C113.5766 217.3434 115.8466 217.8434 117.7746 217.5334 120.0896 217.1614 121.6396 216.0464 121.6396 216.0464 121.6396 216.0464 126.6046 220.6324 125.3556 226.8334 125.2906 227.1564 125.0176 227.4054 124.6926 227.4564 124.6926 227.4564 109.9236 230.7684 104.9286 231.4824 101.8656 231.9194 97.0556 231.9194 97.0556 231.9194 96.6996 231.9284 96.3896 231.7384 96.3306 231.4024 96.2116 230.7224 96.3106 229.5934 97.9066 228.8094 100.3316 227.6174 102.8946 226.7624 104.7576 225.7454 106.6196 224.7294 108.9876 221.3724 110.4896 220.5824 112.3956 219.5794 113.5766 217.3434 113.5766 217.3434"/>
      <path fill="#FFF" d="M57.3803,112.1061 C57.3803,112.1061 54.5103,110.9161 53.0103,110.3851 C52.4103,110.1751 51.8503,110.0261 51.3903,109.9161 C50.7503,109.7651 50.0803,109.7061 49.4203,109.7061 L33.1093,109.7061 C32.6403,109.7061 32.2603,109.3161 32.2603,108.8451 C32.2603,108.2061 32.5803,107.6161 33.1093,107.2761 L34.8593,106.1451 L40.0903,102.7651 C42.6803,101.0951 44.5633,100.9931 47.6433,101.2631 C48.2233,101.3131 50.4283,102.2491 50.8503,102.3881 C53.9053,103.3961 54.5693,103.8561 56.6003,104.5761 C57.4003,104.8661 57.9503,105.0151 58.3103,105.0951 C58.8703,105.2151 59.0103,105.1661 59.0103,105.1661 C59.5693,109.3261 57.3803,112.1061 57.3803,112.1061"/>
      <path fill="#F4F4F4" d="M57.4184,112.0543 C57.3944,112.0883 57.3604,112.0973 57.3214,112.0813 C56.9074,111.9103 54.3844,110.8703 53.0104,110.3853 C52.5034,110.2083 52.0254,110.0743 51.6114,109.9703 C51.0154,109.8203 50.0244,109.7053 49.4094,109.7053 L33.1964,109.7053 C32.6954,109.7053 32.2514,109.3113 32.2604,108.8103 C32.2724,108.1843 32.5904,107.6093 33.1094,107.2763 L34.8594,106.1453 C33.2054,107.4043 32.9384,108.3503 33.7684,108.4503 C34.4314,108.5313 36.0024,108.3573 39.9814,107.2483 C40.0704,107.2243 40.1064,107.3643 40.0274,107.4123 C39.1114,107.9753 39.4514,109.1523 40.5804,109.0963 C41.2484,109.0633 44.0924,108.8843 44.7464,108.8463 C47.2884,108.7003 50.9924,108.4613 51.7054,108.5923 C53.1434,108.8573 54.2414,109.2913 55.2684,109.8253 C55.9644,110.1883 56.6264,109.3953 56.8804,108.6523 C57.2404,107.5973 57.7664,106.1723 58.3104,105.0953 C58.8704,105.2153 59.0104,105.1653 59.0104,105.1653 C59.5254,108.9973 57.7084,111.6583 57.4184,112.0543"/>
      <path fill="#D73E5C" d="M121.2426,73.1442 C119.1056,71.8392 112.6416,68.2492 104.3086,81.2462 C95.9746,94.2432 92.2246,102.2432 89.3086,103.9932 C86.3916,105.7432 76.3086,106.2432 73.7246,106.2432 C71.1416,106.2432 58.7246,104.8262 58.7246,104.8262 C58.7246,104.8262 56.9126,108.7322 56.5996,112.1072 C56.5996,112.1072 65.8496,119.6592 87.3296,119.7432 C108.8086,119.8262 125.1416,87.3262 125.8916,83.4092 C126.6416,79.4932 126.3496,76.2632 121.2426,73.1442"/>
      <path fill="#1A1A47" d="M100.5111,42.88 C100.3291,42.88 100.1551,42.781 100.0661,42.608 C99.9401,42.362 100.0371,42.061 100.2821,41.935 L118.9161,32.385 C121.0251,31.304 125.3411,29.094 128.5451,33.794 C128.7001,34.023 128.6421,34.334 128.4131,34.489 C128.1881,34.643 127.8751,34.588 127.7191,34.358 C125.2211,30.691 122.2411,31.804 119.4071,33.257 L100.7401,42.825 C100.6661,42.862 100.5881,42.88 100.5111,42.88"/>
      <path fill="#AA6396" d="M119.225,33.5758 L121.475,40.7628 C121.475,40.7628 123.225,42.4558 124.912,40.5128 C126.6,38.5708 128.069,31.8258 124.975,30.7008 C121.881,29.5758 120.006,31.1698 119.225,33.5758"/>
      <path fill="#C9DDF9" d="M184.3597,87.3053 C184.3597,87.3353 184.3497,87.3563 184.3497,87.3853 C184.3197,87.6653 184.2597,87.9753 184.1797,88.3263 C182.8097,88.9063 181.2397,88.7153 179.5297,88.3853 C168.8997,86.3453 147.8307,83.2453 137.6897,96.1753 C135.2997,99.2363 132.4507,113.7853 132.1607,116.0763 C131.0197,125.1163 129.5697,140.7853 127.3307,148.5763 C124.6607,157.8263 119.9507,161.8263 115.3307,163.0763 C110.7107,164.3263 101.5897,164.9153 91.0497,162.2363 C91.1497,161.6063 91.4697,161.1063 91.8707,160.6963 C92.8807,159.6853 94.3997,159.3753 95.7907,159.7253 C100.0997,160.8053 112.9507,163.2763 118.7297,155.9463 C125.7297,147.0763 124.8497,136.8263 127.8497,115.2053 C130.6897,94.7553 137.0597,88.4863 147.6207,84.4063 C158.9107,80.0553 177.0407,81.9253 181.5697,83.2853 C183.3197,83.8163 184.5407,85.4753 184.3597,87.3053"/>
    </g>
    <g transform="translate(124 250)">
      <path fill="#E1EBF9" d="M23.3956,4.0157 L21.8256,22.1857 C21.7656,22.9357 21.1356,23.5157 20.3756,23.5157 L5.4256,23.5157 C4.6656,23.5157 4.0356,22.9357 3.9756,22.1857 L2.4056,4.0157 C2.2356,2.0557 3.7756,0.3657 5.7456,0.3657 L20.0456,0.3657 C21.2156,0.3657 22.2356,0.9547 22.8356,1.8557 C23.2456,2.4657 23.4656,3.2157 23.3956,4.0157"/>
      <path fill="#FFF" d="M23.3956,4.0157 L21.8256,22.1857 C21.7656,22.9357 21.1356,23.5157 20.3756,23.5157 L8.0356,23.5157 L6.4756,5.5057 C6.3056,3.5457 7.8556,1.8557 9.8256,1.8557 L22.8356,1.8557 C23.2456,2.4657 23.4656,3.2157 23.3956,4.0157"/>
      <path fill="#FFF" d="M22.4766,20.2433 L20.3406,20.2433 C19.9266,20.2433 19.5906,19.9073 19.5906,19.4933 C19.5906,19.0793 19.9266,18.7433 20.3406,18.7433 L22.4766,18.7433 C23.5976,18.7433 24.5576,18.0853 24.7096,17.2123 L26.3576,7.7423 C26.4516,7.2073 26.2196,6.7963 26.0086,6.5453 C25.5866,6.0433 24.8826,5.7433 24.1246,5.7433 L20.3406,5.7433 C19.9266,5.7433 19.5906,5.4073 19.5906,4.9933 C19.5906,4.5793 19.9266,4.2433 20.3406,4.2433 L24.1246,4.2433 C25.3196,4.2433 26.4536,4.7433 27.1566,5.5793 C27.7446,6.2793 27.9856,7.1393 27.8356,8.0003 L26.1866,17.4693 C25.9076,19.0763 24.3476,20.2433 22.4766,20.2433"/>
      <g transform="translate(0 21.79)">
        <mask id="ci-loyalty-landing-f" fill="#fff">
          <use xlink:href="#ci-loyalty-landing-e"/>
        </mask>
        <path fill="#37396B" d="M24.0328,4.0002 L1.7668,4.0002 C0.9318,4.0002 0.2538,3.3222 0.2538,2.4862 C0.2538,1.6512 0.9318,0.9742 1.7668,0.9742 L24.0328,0.9742 C24.8678,0.9742 25.5458,1.6512 25.5458,2.4862 C25.5458,3.3222 24.8678,4.0002 24.0328,4.0002" mask="url(#ci-loyalty-landing-f)"/>
      </g>
    </g>
    <g fill="#FFF" fill-rule="nonzero" transform="translate(9 155)">
      <path d="M29,17.8772152 C29,18.8683544 28.5962025,19.8227848 27.8987342,20.5202532 L20.5202532,27.8987342 C19.0518987,29.3670886 16.6658228,29.3670886 15.1974684,27.8987342 L1.46835443,14.1696203 C0.660759494,13.3620253 0.293670886,12.2607595 0.367088608,11.1594937 L1.0278481,4.40506329 C1.21139241,2.60632911 2.60632911,1.21139241 4.40506329,1.0278481 L11.1227848,0.367088608 C12.2240506,0.256962025 13.3620253,0.660759494 14.1329114,1.46835443 L27.8987342,15.1974684 C28.5962025,15.8949367 29,16.8860759 29,17.8772152 Z M1.21139241,11.4898734 C1.21139241,12.2607595 1.50506329,12.9949367 2.0556962,13.5455696 L15.7848101,27.3113924 C16.9227848,28.4493671 18.7949367,28.4493671 19.9329114,27.3113924 L27.3113924,19.9329114 C28.4493671,18.7949367 28.4493671,16.9227848 27.3113924,15.7848101 L13.5822785,2.0556962 C12.9582278,1.43164557 12.1139241,1.13797468 11.2329114,1.21139241 L4.51518987,1.8721519 C3.12025316,2.01898734 2.01898734,3.12025316 1.8721519,4.51518987 L1.21139241,11.2329114 C1.21139241,11.3063291 1.21139241,11.4164557 1.21139241,11.4898734 Z"/>
      <path d="M12.664557,9.5443038 C12.664557,11.2696203 11.2696203,12.6278481 9.5443038,12.6278481 C7.81898734,12.6278481 6.46075949,11.2329114 6.46075949,9.50759494 C6.46075949,7.78227848 7.8556962,6.42405063 9.58101266,6.42405063 C10.3886076,6.42405063 11.1962025,6.75443038 11.7468354,7.34177215 C12.3341772,7.92911392 12.664557,8.73670886 12.664557,9.5443038 Z M7.30506329,9.5443038 C7.30506329,10.7924051 8.33291139,11.8202532 9.58101266,11.8202532 C10.8291139,11.8202532 11.856962,10.7924051 11.856962,9.5443038 C11.856962,8.95696203 11.6367089,8.36962025 11.1962025,7.92911392 C10.3151899,7.04810127 8.8835443,7.04810127 8.00253165,7.92911392 C7.52531646,8.36962025 7.30506329,8.95696203 7.30506329,9.5443038 Z"/>
    </g>
    <g fill="#FFF" fill-rule="nonzero" transform="translate(86 82)">
      <path d="M31.707,10.293 C31.316,9.902 30.683,9.902 30.293,10.293 L26.586,14 L5.414,14 L1.707,10.293 C1.316,9.902 0.684,9.902 0.293,10.293 C-0.098,10.684 -0.098,11.317 0.293,11.707 L4,15.414 L4,31 C4,31.553 4.448,32 5,32 L27,32 C27.552,32 28,31.553 28,31 L28,15.414 L31.707,11.707 C32.098,11.316 32.098,10.684 31.707,10.293 Z M26,30 L6,30 L6,16 L26,16 L26,30 Z"/>
      <path d="M9 10L23 10C23.552 10 24 9.553 24 9L24 1C24 .447 23.552 0 23 0L9 0C8.448 0 8 .447 8 1L8 9C8 9.553 8.448 10 9 10zM10 2L22 2 22 8 10 8 10 2zM11 22L21 22C21.552 22 22 21.553 22 21 22 20.447 21.552 20 21 20L11 20C10.448 20 10 20.447 10 21 10 21.553 10.448 22 11 22z"/>
    </g>
    <g transform="translate(274 13)">
      <mask id="ci-loyalty-landing-h" fill="#fff">
        <use xlink:href="#ci-loyalty-landing-g"/>
      </mask>
      <path fill="#ED6A88" d="M32.9115,0.223394118 C14.7345,0.223394118 0,15.054198 0,33.350002 C0,43.3378993 4.39263069,52.2904394 11.3393171,58.3611144 C12.481373,59.3591515 13.2016006,63.1302382 13.5,69.6743745 C18.5210468,66.1122702 21.7718934,64.5595418 23.2525398,65.0161894 C25.0082531,65.5576706 26.8264295,65.955412 28.6935,66.1957863 L37.1295,66.1957863 C53.3115,64.1122569 65.823,50.2054529 65.823,33.350002 C65.823,15.054198 51.087,0.223394118 32.9115,0.223394118 Z" mask="url(#ci-loyalty-landing-h)"/>
      <path fill="#A19CC2" d="M32.1761276,47.8050089 C32.1749455,48.5974955 32.5449198,49.5670841 33,49.9660107 C32.6536663,50.2701252 32.3073325,50.5742397 31.9609988,50.8801431 L31.8238837,51 C31.3676215,50.6010733 30.9976472,49.6332737 31.0000113,48.8407871 C31.391262,48.4955277 31.7836948,48.1502683 32.1761276,47.8050089 C31.7836948,48.1502683 31.391262,48.4955277 31.0000113,48.8407871 C31.0000113,48.4436494 31.0922093,48.1645796 31.2411447,48.0339893 L32.418443,47 C32.2695077,47.1305903 32.1761276,47.4096601 32.1761276,47.8050089"/>
      <path fill="#A19CC2" d="M33.3311037,50 C33.5919732,50.113 33.8287625,50.123 34,50.049 L32.6675585,50.627 C32.4976589,50.702 32.2608696,50.691 32,50.578 C32.3986622,50.405 32.9324415,50.173 33.3311037,50"/>
      <path fill="#8D87B5" d="M31 47.6254542L32.3337802 47.0474542C32.5053619 46.9734542 32.7399464 46.9834542 33 47.0954542L31.6662198 47.6734542C31.4061662 47.5624542 31.1702413 47.5514542 31 47.6254542M33.75914 49.9651475L32.5844123 51C32.7319912 50.8677391 32.8240804 50.5924933 32.825261 50.1974978 32.8264416 49.4021448 32.4569042 48.43521 32 48.0330652L33.1747277 47C33.6328125 47.4003575 34.00235 48.3690795 33.9999887 49.1644325 33.9999887 49.5576408 33.9067189 49.8346738 33.75914 49.9651475"/>
      <path fill="#8D87B5" d="M32.0021362 47.1062101C32.5560216 47.3548097 33.0028415 47.9563318 32.9999864 48.4502015 32.9985589 48.9418515 32.5488839 49.141619 31.9964261 48.8930195 31.4453958 48.6455297 30.9985759 48.0451174 31.0000034 47.5523575 31.001431 47.0584879 31.4511059 46.8587203 32.0021362 47.1062101M41.8135732 55.4643188L41 56C41.1144726 55.9249305 41.1856092 55.7636701 41.1856092 55.536608L42 55C41.9991823 55.2279889 41.9280458 55.3883225 41.8135732 55.4643188"/>
      <polygon fill="#A19CC2" points="24 42.873 25.474 42 41 51.128 39.525 52"/>
      <polygon fill="#A19CC2" points="24.051 14.888 25 14 24.949 43.111 24 44"/>
      <path fill="#8D87B5" d="M24,10.6311682 L25.2843327,10.0521682 C25.4661509,9.97016824 25.7201805,9.98216824 26,10.1071682 L24.7169568,10.6851682 C24.4371373,10.5601682 24.1831077,10.5481682 24,10.6311682"/>
      <path fill="#A19CC2" d="M33.7032268,17.1070619 C33.8193554,17.1816309 33.9238712,17.188801 34,17.1386103 L32.7161333,17.9689068 C32.6400045,18.0176634 32.5354887,18.0104933 32.41936,17.9373584 C32.1871027,17.7882205 31.9987163,17.4254139 32.0000066,17.1285722 C32.427102,16.8518067 32.8554876,16.5750412 33.2838733,16.2997098 C32.8554876,16.5750412 32.427102,16.8518067 32.0000066,17.1285722 C32.0000066,16.9808683 32.046458,16.877619 32.1225868,16.8288624 L33.4064536,16 C33.3303248,16.0473226 33.2838733,16.1520059 33.2838733,16.2997098 C33.282583,16.5965515 33.4709695,16.9579241 33.7032268,17.1070619"/>
      <polygon fill="#ACDAF5" points="25 14.872 26.474 14 42 23.128 40.525 24"/>
      <path fill="#8D87B5" d="M32 16.6004139L32.8102606 16.0224139C32.8591205 15.9874139 32.9258958 15.9924139 33 16.0444139L32.1889251 16.6234139C32.1156352 16.5704139 32.0480456 16.5664139 32 16.6004139M33.855835 17.1437037L32.3459774 18C32.4339892 17.9496296 32.4901347 17.842963 32.4901347 17.6888889 32.4916521 17.3822222 32.2701052 17.0088889 32 16.8562963L33.5098576 16C33.7799628 16.1525926 34.0015097 16.5259259 33.9999923 16.8325926 33.9999923 16.9851852 33.9453642 17.0933333 33.855835 17.1437037M32.328 18.0448145C32.506 18.1478145 32.652 18.3998145 32.651 18.6068145 32.651 18.8148145 32.504 18.8978145 32.326 18.7948145 32.145 18.6908145 32 18.4388145 32 18.2318145 32.001 18.0238145 32.147 17.9408145 32.328 18.0448145"/>
      <polygon fill="#ACDAF5" points="40 22.954 39.918 51 24 42.045 24.082 14"/>
      <path fill="#9BD4F4" d="M32.7088221,46.1954009 C21.3371483,39.6077584 25.2696233,14.7206159 25.307773,14.685103 L24.0824034,14 L24,42.044831 L39.993896,51 L40,49.0911818 C37.5141631,48.244791 34.9779685,47.5093781 32.7088221,46.1954009"/>
      <polygon fill="#ACDAF5" points="40.051 23.888 41 23 40.949 52.111 40 53"/>
      <polygon fill="#372D7C" points="41.06 21.89 42 21 41.94 55.108 41 56"/>
      <polygon fill="#8D87B5" points="25 10.87 26.468 10 42 19.131 40.53 20"/>
      <path fill="#8D87B5" d="M40,19.6009341 L41.122386,19 C41.6085653,19.2584328 42.0022464,19.885314 41.9999904,20.4001038 L40.8776043,21 C40.8798604,20.4862481 40.4861793,19.8593669 40,19.6009341"/>
      <path fill="#59509D" d="M33.7087774,16.4758673 C33.4257091,16.3176264 33.1973778,16.4439148 33.1958138,16.7603965 C33.1958138,17.0753567 33.4225813,17.4587866 33.7056496,17.6170274 C33.9840262,17.7737468 34.2139214,17.6474584 34.2139214,17.3309766 C34.2154853,17.0160164 33.987154,16.6325866 33.7087774,16.4758673 Z M33.4491678,50.2739886 C34.0559662,50.6148151 34.547035,50.3409366 34.5501628,49.6668914 C34.5517267,48.989803 34.0622218,48.1651246 33.4554235,47.8242981 C32.8533168,47.4849931 32.3606841,47.7588715 32.3591202,48.4359599 C32.3559924,49.1115267 32.8454973,49.9346836 33.4491678,50.2739886 Z M41.6550211,51.7255443 L41.7394725,22.8876659 L25.3480967,13.6807856 L25.2636453,42.518664 L41.6550211,51.7255443 Z M41.783262,19.4078881 C42.4573087,19.7867533 43.0031145,20.7042461 42.9999866,21.4574118 L42.9014601,55.1581541 C42.8998962,55.9097983 42.3509626,56.2156292 41.6769159,55.8382856 L25.2182919,46.5918451 C24.5442452,46.2129799 23.9984394,45.2939656 24.0000034,44.5407999 L24.0985299,10.8415791 C24.1016577,10.0884134 24.6505913,9.78410399 25.324638,10.1629692 L41.783262,19.4078881 Z"/>
      <path fill="#8D87B5" d="M34.5555241,30.6569021 C33.5444016,31.1145177 32.6805576,31.8268884 31.9569112,32.7924417 C31.9016818,32.863207 31.8167135,32.8569167 31.7303291,32.801877 C31.6496092,32.7499825 31.5660571,32.6540562 31.5079955,32.536114 C31.1610417,31.8520494 30.8055911,31.1789928 30.4331469,30.5106538 C30.2249746,30.1348114 30.434563,29.9335235 30.6625612,30.0797718 C30.7319519,30.1238035 30.8027588,30.1977139 30.8636528,30.3093658 C31.1454642,30.8173035 31.4187788,31.3346764 31.6864288,31.8520494 C32.3944977,30.9745597 33.2243545,30.3046482 34.1844959,29.870621 C34.2411415,29.8438874 34.3020354,29.8580405 34.3615132,29.895782 C34.5880952,30.0404577 34.7778577,30.5578307 34.5555241,30.6569021 M32.5120372,26.5336439 C30.5761768,25.2928922 29.0070961,26.2898967 29.0000154,28.7556743 C28.9943508,31.221452 30.5535186,34.2266184 32.489379,35.4673701 C34.4224071,36.7065491 35.9929039,35.7095447 35.9999846,33.243767 C36.0056492,30.7764168 34.4450653,27.7728229 32.5120372,26.5336439"/>
      <path fill="#FFF" d="M34.6592874,30.0256015 C34.5902336,30.0003412 34.5211798,29.991921 34.4537701,30.0087613 C33.339044,30.3003081 32.3755788,30.7476272 31.5535094,31.3349308 C31.2427672,30.9886532 30.9254484,30.6423756 30.5982648,30.3024131 C30.5275669,30.228737 30.4453599,30.1792688 30.3664413,30.1497984 C30.1000908,30.0508619 29.8584024,30.1866364 30.0984467,30.4371351 C30.5308551,30.8844542 30.943534,31.3349308 31.3463479,31.7938276 C31.4137576,31.8717137 31.5107618,31.9359171 31.6061219,31.9717027 C31.7064143,32.0085407 31.8050626,32.0127508 31.8675399,31.9643351 C32.7076948,31.3191431 33.7106194,30.841301 34.8845344,30.535019 C35.1426642,30.4687106 34.9239938,30.122433 34.6592874,30.0256015"/>
    </g>
    <g transform="translate(155)">
      <mask id="ci-loyalty-landing-j" fill="#fff">
        <use xlink:href="#ci-loyalty-landing-i"/>
      </mask>
      <path fill="#7C68AB" d="M77.7908182,38.6159666 C77.7908182,17.4313515 60.3755455,0.258841692 38.8954091,0.258841692 C17.4135,0.258841692 0,17.4313515 0,38.6159666 C0,58.1328045 14.7845455,74.2336714 33.9105,76.6479273 L38.8954091,88.0006993 L43.8803182,76.6479273 C63.0045,74.2336714 77.7908182,58.1328045 77.7908182,38.6159666" mask="url(#ci-loyalty-landing-j)"/>
      <path fill="#FBCFA2" d="M38.943809 47.3902305C38.9534418 47.3817306 38.9630745 47.3766306 38.9727072 47.3681307 38.9743127 47.3596308 38.9759182 47.3528309 38.9775236 47.344331 38.9887618 47.2270323 38.9919727 47.1080336 39 46.9907349 38.4653831 46.9601352 37.8729699 46.7204379 37.267713 46.2529431 35.3475876 44.7654595 34.00061 41.5439952 34.2606938 39.0535227 34.3425721 38.2817313 34.5673359 37.671438 34.8980599 37.2396428 34.8274198 37.1818434 34.7599907 37.1172442 34.6877451 37.0628448 31.9440208 34.9395683 29.4202439 36.0955555 29.0461727 39.657016 28.6737069 43.2184766 30.5954377 47.8169258 33.3391621 49.9402023 36.0684373 52.0515789 38.580976 50.9108915 38.9711018 47.3834305 38.9357818 47.4021303 38.9197272 47.4072303 38.943809 47.3902305M56.981849 48.6331457C57.041033 47.0874801 56.9383314 45.8213877 56.9174429 45.5845519 56.8321483 44.6354278 56.7642608 43.8839637 56.508377 42.4718522 56.1985313 40.7783868 55.7842433 39.3609332 55.7790212 39.3466874 55.2463651 37.5998004 55.0844795 37.0709264 54.755486 36.2606985 54.5709712 35.8066147 54.3342352 35.1958275 54.1410168 34.7453052 53.9460577 34.2947829 53.6640634 33.7053643 53.4604008 33.2601842 53.2567382 32.815004 52.9434111 32.2433927 52.71886 31.8106775 52.5691593 31.5257622 51.2061865 28.9419366 49.1347463 26.4418047 48.6142753 25.8149911 47.9510663 25.0457197 46.981493 24.10728 46.3583203 23.5036156 45.460116 22.7753009 44.784722 22.2339618 43.7507427 21.4593483 42.9465365 21.008826 42.6836899 20.8610262 42.0761835 20.5209085 41.226719 20.1469572 40.5878799 19.8762877 40.1439998 19.6875313 39.5277899 19.5076785 39.0612807 19.3937123 38.5512538 19.2690619 37.8601936 19.1461922 37.3397225 19.0803055 36.2256706 18.9360671 34.8035138 19.0037345 33.9766785 19.1444115 33.3152102 19.2583776 32.7929984 19.3474136 31.9522374 19.5984952 31.1636976 19.8317696 30.6554114 20.0507983 30.0096095 20.3285907 30.7807422 19.9777887 31.6058369 19.7587601 32.4779306 19.6732855 31.6058369 19.7587601 30.7807422 19.9777887 30.0096095 20.3285907L29 20.7880166C32.0793089 19.3865895 36.0655257 20.0721669 40.2188502 23.1777438 48.4645745 29.3443794 54.2437185 42.7282759 53.1227038 53.0635787 52.5656779 58.1991771 50.4124246 61.6181608 47.3731519 63L48.3827614 62.5423548C50.7536029 61.4543345 52.1374642 60.1205747 52.5935292 59.6825174 53.1418516 59.1536434 53.6814704 58.5232682 54.1914973 57.8074185 54.7311162 57.0541737 55.1001458 56.3205168 55.3438447 55.8379415 55.9095741 54.7143067 56.4735629 52.8855066 56.6894104 51.4876409 56.8408518 50.4975602 56.9331092 49.8992381 56.981849 48.6331457"/>
      <path fill="#FCD9B4" d="M34.2407818,49.5916357 C31.1450821,47.418196 28.9737424,42.7111068 29.3942356,39.0655055 C29.8165412,35.4199041 32.6657449,34.2366063 35.763257,36.4100459 C35.8448182,36.4657306 35.9209419,36.531856 36.0006907,36.5910209 C38.8662066,38.7592402 40.8689865,43.0782772 40.6315529,46.5724861 C40.6224905,46.692556 40.6188656,46.8143661 40.6061783,46.934436 C40.6043658,46.9431367 40.6025533,46.9500973 40.6007409,46.958798 L40.5989284,46.9744593 C40.1584981,50.5852578 37.3219817,51.7528943 34.2407818,49.5916357 M36.8869887,26.6878622 C29.2256758,21.3090776 22.1679156,24.2568813 21.1293699,33.2638659 C20.0871994,42.2725906 25.4557371,53.938515 33.11705,59.3138194 C40.7729256,64.6891237 47.8306858,61.7448003 48.8710439,52.7343355 C49.911402,43.729091 44.5428643,32.0596863 36.8869887,26.6878622"/>
      <path fill="#FCD9B4" d="M32.3664586,60.1213187 C24.7591536,54.6497176 19.428461,42.7748022 20.4632849,33.6046892 C21.4945093,24.4363476 28.5043161,21.435735 36.1098214,26.9108787 C43.7117274,32.3789372 49.0442196,44.2573953 48.0093958,53.4239656 C46.9763716,62.5958498 39.9683646,65.5929198 32.3664586,60.1213187 M41.7680582,30.6837859 C41.8058518,30.9140573 41.8148503,30.9866813 41.8094512,31.2842627 C41.8166499,31.1071309 41.7968533,30.9335418 41.7464619,30.7723518 C41.7662585,30.7333828 41.7716576,30.7050418 41.7680582,30.6837859 M53.8566004,52.7951477 C55.0138034,42.5144184 49.0406202,29.2011928 40.5136718,23.0671188 C36.2214024,19.9779404 32.100104,19.295983 28.9164459,20.6900102 C27.5468791,21.318828 23.3805883,23.2300801 21.3091409,28.2623943 C20.7512359,29.6174526 20.556869,30.5633363 20.3319072,31.6597821 C20.1537376,32.5348132 20.0997468,33.3691039 20.0259593,34.5240032 C19.9125786,36.2935498 20.1879318,39.1223446 20.515476,40.6545346 C20.8898123,42.3975114 21.003193,42.9235929 21.2695476,43.7631976 C21.4171225,44.2237402 21.5934925,44.8490155 21.760864,45.3060155 C22.5167353,47.3448024 22.5167353,47.3448024 22.9630594,48.3402831 C23.7585239,50.1080584 25.1226917,52.7544074 27.1077538,55.3228184 C29.168403,57.9904232 30.9770951,59.4960435 31.4810094,59.89459 C32.1342982,60.4100435 33.0089493,61.0973149 33.727027,61.5188885 C34.056371,61.7119622 34.484698,61.9918304 34.8284395,62.1601056 C35.4781289,62.4807142 36.347381,62.9076018 37.0312646,63.1502724 C38.285651,63.5931018 40.0313539,64.0890709 42.4321452,63.9863344 C43.6235424,63.9331949 44.5665818,63.7418925 45.4088385,63.5417336 C46.39867,63.3061483 47.3093149,62.9288576 47.9122123,62.6791018 C51.0526777,61.3045591 53.2806984,57.9036286 53.8566004,52.7951477"/>
      <path fill="#EC7F95" d="M42.024,30 C42.028,30.024 42.022,30.056 42,30.1 C42.058,30.284 42.08,30.478 42.07,30.678 C42.078,30.342 42.066,30.26 42.024,30"/>
      <path fill="#EC7F95" d="M19.0987603,37.2108753 C19.2912522,39.6018316 22.2802246,40.6817917 23.829072,38.8567846 C23.8415483,38.8406658 23.8540246,38.824547 23.866501,38.8102191 C25.7379506,36.5249306 26.0855055,33.2259482 28.4524437,31.2719906 C29.7981051,30.158002 31.911952,30.0415884 32.5785445,31.9328617 C33.0276924,33.2080384 32.5821092,34.8270829 33.4037647,35.9768911 C34.2878018,37.2108753 35.6138576,36.9995399 36.8080206,36.4586644 C38.2695337,35.7977933 39.8486807,34.7178332 41.4260454,35.7046624 C43.0853974,36.741639 43.5024633,38.7511169 43.7127786,40.5438863 C44.0728098,43.5957137 43.43117,51.4724372 47.7568921,51.9757022 C49.603389,52.1906196 50.5533725,50.9315617 52.0041915,50.1023387 C52.7028661,49.7029504 53.6492849,49.3877382 54.4121234,49.7763806 C55.1571385,50.154277 55.6472801,50.6396322 56.5580523,50.7524639 C56.5651816,50.7542548 56.5723109,50.7542548 56.5794403,50.7542548 C57.8056853,50.8993241 58.8786498,49.9178679 58.9517254,48.6803017 C58.9624194,48.5047858 58.9731134,48.3131511 58.9802428,48.1071886 C59.0444068,46.4612793 58.9339021,45.1270003 58.9089494,44.8762634 C58.8233975,43.9306267 58.7503218,43.1121495 58.4740602,41.6310103 C58.1407639,39.8328679 57.6987454,38.3660565 57.691616,38.3427738 C57.1337458,36.5428404 56.9662065,36.0001739 56.6061753,35.1315493 L56.411901,34.655149 C56.2639673,34.2897894 56.1035574,33.8975651 55.9663177,33.5841439 C55.8290781,33.2725136 55.6508448,32.8981991 55.4850878,32.5471673 L55.2587315,32.0636031 C55.0965392,31.7179442 54.8701829,31.2952733 54.6652147,30.9137949 L54.469158,30.5484353 C54.3105304,30.2493419 52.857929,27.5467553 50.6514008,24.9283447 C50.0970953,24.2710556 49.3912914,23.4669062 48.3521913,22.4782861 C47.6838164,21.8424887 46.7498739,21.0956507 45.9799061,20.4920909 C44.8516893,19.6628679 43.9783462,19.1828857 43.6913906,19.0252795 C43.1656023,18.735141 42.4223695,18.3894822 41.4224807,17.9757661 C40.7576705,17.6981645 39.914627,17.486829 39.6722297,17.4277267 C39.1446592,17.3023582 38.399644,17.1680348 37.7758274,17.0892318 L37.6065058,17.069531 C36.3214437,16.9298347 34.8207194,17.0211746 33.9705466,17.1626619 C33.282566,17.2772845 32.6872668,17.3775793 31.7533243,17.649808 C31.0617792,17.8521886 30.5591613,18.0456143 29.974556,18.2891874 C29.8515751,18.3375438 29.7285941,18.3876912 29.6073955,18.4432115 L28.57186,18.905284 L28.5736423,18.905284 C28.566513,18.9088659 28.5593837,18.9106569 28.5522543,18.9142389 C27.0853943,19.6019746 22.6259972,21.6920465 20.3891693,27.236916 C19.7920878,28.7162643 19.5799902,29.7747326 19.3554162,30.8958851 C19.1611419,31.8612225 19.1058896,32.737011 19.027467,33.9620403 C18.9704323,34.8987221 19.006079,36.0664401 19.0987603,37.2108753"/>
      <path fill="#EC7F95" d="M19.0987603,37.2108753 C19.2912522,39.6018316 22.2802246,40.6817917 23.829072,38.8567846 C23.8415483,38.8406658 23.8540246,38.824547 23.866501,38.8102191 C25.8199379,36.4264267 26.1336285,32.6367162 28.9283266,30.9496145 C30.0779314,30.2547148 31.61252,30.2905344 32.3824879,31.5263095 C33.0615567,32.6170155 32.9314464,33.9459215 33.1043327,35.1655779 C33.352077,36.9082 34.8866657,38.2156143 36.665434,37.8932381 C38.0592184,37.6407102 38.9325615,36.3297139 40.1926709,35.7977933 C41.8734109,35.0867748 42.8358707,36.8132781 43.286801,38.2263602 C44.0514218,40.6083616 43.6878259,43.407661 43.9391348,45.8756294 C44.1833145,48.2898684 44.8623833,51.6389982 47.7568921,51.9757022 C49.603389,52.1906196 50.5533725,50.9315617 52.0041915,50.1023387 C52.7028661,49.7029504 53.6492849,49.3877382 54.4121234,49.7763806 C55.1571385,50.154277 55.6472801,50.6396322 56.5580523,50.7524639 C56.5651816,50.7542548 56.5723109,50.7542548 56.5794403,50.7542548 C57.8056853,50.8993241 58.8786498,49.9178679 58.9517254,48.6803017 C58.9624194,48.5047858 58.9731134,48.3131511 58.9802428,48.1071886 C59.0444068,46.4612793 58.9339021,45.1270003 58.9089494,44.8762634 C58.8233975,43.9306267 58.7503218,43.1121495 58.4740602,41.6310103 C58.1407639,39.8328679 57.6987454,38.3660565 57.691616,38.3427738 C57.1337458,36.5428404 56.9662065,36.0001739 56.6061753,35.1315493 L56.411901,34.655149 C56.2639673,34.2897894 56.1035574,33.8975651 55.9663177,33.5841439 C55.8290781,33.2725136 55.6508448,32.8981991 55.4850878,32.5471673 L55.2587315,32.0636031 C55.0965392,31.7179442 54.8701829,31.2952733 54.6652147,30.9137949 L54.469158,30.5484353 C54.3105304,30.2493419 52.857929,27.5467553 50.6514008,24.9283447 C50.0970953,24.2710556 49.3912914,23.4669062 48.3521913,22.4782861 C47.6838164,21.8424887 46.7498739,21.0956507 45.9799061,20.4920909 C44.8516893,19.6628679 43.9783462,19.1828857 43.6913906,19.0252795 C43.1656023,18.735141 42.4223695,18.3894822 41.4224807,17.9757661 C40.7576705,17.6981645 39.914627,17.486829 39.6722297,17.4277267 C39.1446592,17.3023582 38.399644,17.1680348 37.7758274,17.0892318 L37.6065058,17.069531 C36.3214437,16.9298347 34.8207194,17.0211746 33.9705466,17.1626619 C33.282566,17.2772845 32.6872668,17.3775793 31.7533243,17.649808 C31.0617792,17.8521886 30.5591613,18.0456143 29.974556,18.2891874 C29.8515751,18.3375438 29.7285941,18.3876912 29.6073955,18.4432115 C29.6073955,18.4432115 28.57186,18.905284 28.5736423,18.905284 C28.566513,18.9088659 28.5593837,18.9106569 28.5522543,18.9142389 C27.0853943,19.6019746 22.6259972,21.6920465 20.3891693,27.236916 C19.7920878,28.7162643 19.5799902,29.7747326 19.3554162,30.8958851 C19.1611419,31.8612225 19.1058896,32.737011 19.027467,33.9620403 C18.9704323,34.8987221 19.006079,36.0664401 19.0987603,37.2108753"/>
      <path fill="#ED748E" d="M58.9803469,48.3190825 C59.0441727,46.6619617 58.9342505,45.318594 58.9094293,45.066149 C58.8243282,44.114071 58.7516377,43.2900185 58.476832,41.7987902 C58.1452923,39.9883993 57.7056033,38.5115964 57.6985115,38.488155 C57.1435814,36.675961 56.9769251,36.129598 56.6187913,35.2550566 L56.4255409,34.7754112 C56.2783869,34.4075628 56.1188223,34.0126668 55.982306,33.6971106 C55.8457896,33.3833576 55.6684957,33.0064934 55.5036123,32.6530705 L55.278449,32.1662123 C55.1171115,31.818199 54.8919481,31.3926489 54.6880601,31.008572 L54.4930367,30.6407236 C54.3352451,30.3395928 52.8902993,27.618597 50.6954001,24.9823505 C50.1440158,24.3205841 49.4419317,23.5109571 48.4083079,22.5156027 C47.7434556,21.8754745 46.8144352,21.1235492 46.0485253,20.5158781 C44.9262545,19.6810066 44.0575141,19.1977549 43.7720708,19.0390752 C43.2490537,18.7469603 42.5097378,18.398947 41.5151187,17.9824128 C40.8538122,17.7029202 40.0152118,17.4901452 39.774092,17.4306403 C39.2493019,17.3044178 38.5082131,17.1691794 37.8876843,17.0898396 L37.719255,17.0700046 C36.4409655,16.9293567 34.9481504,17.0213188 34.1024582,17.1637699 C33.4181035,17.2791733 32.8259416,17.3801513 31.8969213,17.6542344 C31.2090207,17.8579935 30.7090517,18.0527367 30.1275275,18.297969 C30.0051947,18.3466548 29.8828619,18.3971438 29.762302,18.4530423 C29.762302,18.4530423 28.7322241,18.9182623 28.733997,18.9182623 C28.7269052,18.9218686 28.7198135,18.9236718 28.7127217,18.9272782 C28.5230172,19.0174371 28.2801245,19.1328405 28,19.2770947 C51.7432074,18.6081156 54.7252918,45.1923715 53.9877489,49.8499807 C54.6401907,50.2142227 55.7323215,50.8777923 56.570922,50.9823766 C56.5780137,50.9841798 56.5851055,50.9841798 56.5921972,50.985983 C57.8119797,51.1302372 58.8792893,50.1420956 58.9519799,48.8960995 C58.9626175,48.719388 58.9732551,48.526448 58.9803469,48.3190825"/>
      <path fill="#FFF" d="M53.0076962,34.2689483 C52.2631568,32.5679883 50.9049252,30.3777594 49.5743373,29.0053337 C47.4199645,26.7797786 45.8645405,28.6397068 48.0686721,30.8052073 C51.4172568,34.0940833 53.5697867,38.2537518 54.364085,42.777281 C54.4249013,43.1252448 55.0091068,43.0404617 54.9998922,42.6960306 C54.9040603,39.6208786 54.2387664,37.077387 53.0076962,34.2689483"/>
    </g>
    <g transform="translate(47 83)">
      <path fill="#FCC751" d="M34,0 C15.2218222,0 0,15.2866166 0,34.1447272 C0,51.519773 12.9237501,65.852435 29.6424958,68 L38.3575042,68 C41.7811581,67.5601823 46.771191,66.8657422 53.3276027,65.9166797 C55.3479395,65.6242292 60.2387386,66.3186693 68,68 C65.9650107,60.8711887 65.1469141,56.2515582 65.5457103,54.1411086 C67.1819034,45.4822899 68,38.8168294 68,34.1447272 C68,15.2866166 52.7781778,0 34,0 Z"/>
      <path fill="#EA607E" d="M43.9249203 55.9793491C46.4783383 57.7190537 44.3277727 59.8114258 39.1209808 60.6512832 33.9172178 61.4911406 27.6260561 60.7621735 25.0741526 59.0206509 22.522249 57.2809463 24.6728146 55.1867563 29.8780921 54.3487168 35.0833696 53.5088594 41.3715023 54.2378265 43.9249203 55.9793491M47.5166742 17.2608281C51.0406082 19.2501564 48.071053 21.6398045 40.8826602 22.6014922 33.6942673 23.561646 25.0095152 22.7272631 21.484037 20.7379348 17.9585589 18.7486064 20.9296583 16.3589583 28.1165069 15.3988045 35.3064439 14.4386506 43.9911961 15.2714998 47.5166742 17.2608281"/>
      <path fill="#E35271" d="M33.5978371,22 C28.3009245,22 23.403466,21.1050816 21.1182868,19.7192458 C20.3434965,19.2492527 19.9395203,18.7631639 20.0073521,18.3849161 C20.1309568,17.7040699 21.8267526,16.2055645 27.3558009,15.4120487 C29.2611218,15.1384226 31.2960768,15 33.4033859,15 C38.6987911,15 43.597757,15.8965279 45.8829362,17.2823638 C46.6562191,17.7507473 47.0617027,18.2368361 46.9923635,18.6150839 C46.8687588,19.2959301 45.1744703,20.7944355 39.6439147,21.5879513 C37.7401012,21.8615774 35.7051461,22 33.5978371,22"/>
      <path fill="#E35271" d="M33.4033859,18.3185841 C38.0204728,18.3185841 42.3315628,18.9639915 44.8760103,20 C46.3517295,19.401892 46.9230243,18.7915777 46.9923635,18.4269149 C47.0617027,18.0683552 46.6562191,17.6090937 45.8829362,17.1635642 C43.597757,15.8498627 38.6987911,15 33.4033859,15 C31.2960768,15 29.2611218,15.1312176 27.3558009,15.3906012 C21.8267526,16.1443393 20.1309568,17.5633201 20.0073521,18.2087275 C19.9395203,18.5672872 20.3434965,19.0280745 21.1182868,19.4736039 C21.4107174,19.6414403 21.7483692,19.8031736 22.1237054,19.9542264 C23.2632802,19.4934391 24.9455097,19.0372292 27.3558009,18.7091852 C29.2611218,18.4498016 31.2960768,18.3185841 33.4033859,18.3185841"/>
      <path fill="#9BD4F4" d="M40.4797615,22.5289788 C43.0236502,22.1333947 44.7964227,21.5850966 46,21.0275989 C43.3146075,19.7764489 38.7674064,19 33.8974495,19 C31.6747267,19 29.5283206,19.1563937 27.5202385,19.4691812 C24.9763498,19.8666053 23.2035773,20.4149034 22,20.9724011 C24.6838026,22.2217111 29.2341835,23 34.1025505,23 C36.3268632,23 38.4716794,22.8417663 40.4797615,22.5289788"/>
      <path fill="#EC7F95" d="M23.7228999,58.0457308 C22.4824482,45.0294417 21.2419965,32.0147209 20,19 C20.054067,19.5676984 20.5329463,20.1448061 21.4798913,20.6905494 C25.0066052,22.7245406 33.6944015,23.5776564 40.885314,22.5959459 C45.8919192,21.9106304 48.8532467,20.5180443 49,19.0486151 L45.1349811,58.0802318 C45.0283918,59.1670135 42.8394503,60.1942026 39.1428115,60.6991719 C33.833431,61.4236931 27.4179939,60.7948338 24.8150535,59.2924718 C24.1152719,58.8894373 23.763064,58.4660158 23.7228999,58.0457308"/>
      <path fill="#EA607E" d="M48.0864347,42.2845609 L48.9938744,33.259576 C49.0700123,32.5147355 48.4251707,31.900242 47.6839914,32.0135198 C43.8553414,32.6031853 33.0142333,33.9097598 21.3402696,32.0228303 C20.5944287,31.9017937 19.9324949,32.5069767 20.0055251,33.259576 L20.8803343,42.2907679 C20.9253956,42.751638 21.2423779,43.1457828 21.685221,43.2792334 C33.112125,46.711707 44.3059537,44.086144 47.2582405,43.2714747 C47.7135142,43.1457828 48.0382658,42.7547415 48.0864347,42.2845609"/>
      <path fill="#E35271" d="M21.511703,32.3483736 C33.0252347,33.5633736 43.7173565,32.7233736 47.4933903,32.3433736 C48.1109802,32.2803736 48.2243839,31.9363736 47.4933903,32.0103736 C43.7173565,32.3903736 33.0252347,33.2313736 21.511703,32.0153736 C20.776112,31.9373736 20.8849182,32.2823736 21.511703,32.3483736"/>
    </g>
    <g transform="translate(346 90)">
      <mask id="ci-loyalty-landing-l" fill="#fff">
        <use xlink:href="#ci-loyalty-landing-k"/>
      </mask>
      <path fill="#59509D" d="M33.9088182,0.00089544592 C15.181,0.00089544592 -9.10826969e-13,15.2666203 -9.10826969e-13,34.0989581 C-9.10826969e-13,39.0128028 1.03390092,43.6831851 2.89486483,47.9025714 C3.59041466,49.4796001 2.62545972,53.2772745 -9.10826969e-13,59.2955946 C6.3285646,58.3318559 10.0186856,58.3318559 11.070363,59.2955946 C12.6220393,60.7175233 14.3055554,61.9965443 16.1003129,63.1119898 C20.1093501,65.6036147 24.6734406,67.2790574 29.563,67.9079619 L38.2530909,67.9079619 C54.927,65.7633319 67.8176364,51.4487038 67.8176364,34.0989581 C67.8176364,15.2666203 52.6350909,0.00089544592 33.9088182,0.00089544592 Z" mask="url(#ci-loyalty-landing-l)"/>
      <path fill="#ACDAF5" d="M41.3555124,49.6794041 C44.987505,51.8648576 44.8626997,55.3467398 41.0774651,57.4563972 C37.2906507,59.5660547 31.2778782,59.5060495 27.6443058,57.3205959 C24.0123132,55.1367215 24.1371185,51.6532602 27.9239329,49.5436028 C31.7091675,47.4339453 37.7235198,47.4939505 41.3555124,49.6794041"/>
      <path fill="#ACDAF5" d="M43,53 C42.9965177,51.6880688 42.0284388,50.3761375 40.0853163,49.3569262 L40,23 C41.9431225,24.0192113 42.9112014,25.3311426 42.9146837,26.6430738 C42.9408009,34.549545 42.9738828,45.0935288 43,53"/>
      <path fill="#ACDAF5" d="M25.0000167,26.5328363 C24.9954022,25.0834526 25.9490639,23.6324884 27.8456203,22.5450555 C31.5325997,20.4334126 37.3868524,20.4934743 40.92463,22.6809846 L41,50.1481483 C37.4637607,47.960638 31.6079698,47.9005763 27.9209904,50.0122192 C26.024434,51.0980715 25.0707722,52.5490358 25.0753867,54 C25.0523142,45.7604831 25.0230891,34.7723532 25.0000167,26.5328363"/>
      <path fill="#9BD4F4" d="M29.2422609,19.2906162 C29.3566238,19.2177573 29.475623,19.1479342 29.600804,19.078111 C32.2945131,17.6042359 36.5707571,17.646737 39.1547397,19.1737384 C40.2921866,19.894738 40.9938182,21.3170047 41,23.3008922 C37.4470239,21.2001269 31.563518,21.140929 27.8590884,23.1703534 C25.9535558,24.2131466 24.9953804,25.6065733 25,27 C25.0000167,26.2456067 25.0896525,25.5018386 25.2658331,24.7929821 C25.5301041,23.7319741 25.9442831,22.932044 26.0663732,22.7119494 C26.2131904,22.4448 26.6629146,21.6296909 27.3568191,20.8798513 C28.0584507,20.1254579 28.6179015,19.6989297 29.2422609,19.2906162"/>
      <path fill="#9BD4F4" d="M44,27 C43.9965132,25.6487014 43.0271967,24.2974029 41.08159,23.2476079 C41.0746165,21.2073814 40.2848675,19.7436048 39,19 C39.055788,19.0296817 39.1098326,19.0609256 39.1621339,19.0906073 C40.3580893,19.7967194 40.9264296,20.3528608 41.3849372,20.8012107 C41.5435844,20.9574302 41.9009763,21.3604765 42.0317294,21.5307557 C42.3995816,22.0103495 42.4553696,22.0837727 42.8110181,22.663347 C42.8685495,22.7570787 43.3793584,23.6131615 43.7018828,24.787932 C43.8430962,25.300332 43.8919107,25.6658856 43.9494421,26.0908026 C43.9808229,26.3313806 43.9877964,26.5422769 44,27"/>
      <path fill="#9BD4F4" d="M40,20 C39.9356683,19.967309 39.8670479,19.9328975 39.8005718,19.9002065 C38.0550393,19.0037853 37.0085776,17.3021335 37,15 C37.0407434,15.0189264 37.0793424,15.0378527 37.1179414,15.0567791 C37.1265189,17.3589126 38.2051465,19.0777701 40,20"/>
      <path fill="#9BD4F4" d="M31.0720299,14.7410542 C31.1390708,14.6996478 31.2107889,14.6582414 31.2856252,14.6183138 C32.885251,13.7724398 35.428126,13.7975794 36.9638291,14.6745082 C36.9700655,16.6516646 37.7309012,18.1156772 39,18.8861324 C36.3947615,17.3984589 32.0792017,17.3585313 29.3617088,18.7944467 C29.2369816,18.8609927 29.1153726,18.9304964 29,19 C30.3018397,18.1999689 31.0767072,16.7196894 31.0720299,14.7410542"/>
      <path fill="#9BD4F4" d="M39.8986341,19.9449225 C38.0934579,19.0223752 37.0086269,17.302926 37,15 C37.953271,15.4870912 38.4255931,16.1015491 38.4277498,16.7142857 C38.4428469,18.4698795 39.4629763,19.6316695 40,20 C39.9676492,19.9810671 39.9331416,19.9638554 39.8986341,19.9449225"/>
      <path fill="#9BD4F4" d="M38.004 16.126C38.003 16.084 38 16.042 38 16 38.001 16.035 38.002 16.079 38.004 16.126M30.566615 16.7153159C30.5644301 16.1023352 31.0451209 15.4876374 31.9999476 15 32.0086875 17.2973901 30.9227632 19.0178571 29.0983231 19.946772 29.0655487 19.9639423 29.0305894 19.9811126 29 20 29.0152947 19.9896978 30.5403955 18.9629121 30.566615 16.7153159"/>
      <path fill="#ACDAF5" d="M25.077095,53.5224837 L25,26.05532 C25.0047201,27.4225139 25.8779389,28.7912885 27.6338168,29.8518517 C31.2509881,32.039362 37.2407972,32.1010043 41.0105852,29.9877808 C42.9521204,28.9019285 43.9260347,27.4509642 43.922888,26 L43.999983,53.4671637 C44.0047031,54.918128 43.0292154,56.3675116 41.0892535,57.4549445 C37.3178922,59.5665874 31.3296565,59.5065257 27.7109118,57.3190154 C25.9566073,56.2568716 25.0802417,54.8896777 25.077095,53.5224837"/>
      <path fill="#ACDAF5" d="M25.077095,53.5224837 L25,26.05532 C25.0047201,27.4225139 25.8779389,28.7912885 27.6338168,29.8518517 C31.2509881,32.039362 37.2407972,32.1010043 41.0105852,29.9877808 C42.9521204,28.9019285 43.9260347,27.4509642 43.922888,26 L43.999983,53.4671637 C44.0047031,54.918128 43.0292154,56.3675116 41.0892535,57.4549445 C37.3178922,59.5665874 31.3296565,59.5065257 27.7109118,57.3190154 C25.9566073,56.2568716 25.0802417,54.8896777 25.077095,53.5224837"/>
      <path fill="#9BD4F4" d="M38.011 16.174C38.007 16.116 38.002 16.058 38 16 38.002 16.055 38.006 16.114 38.011 16.174M38.019 16.153C38.021 16.164 38.024 16.181 38.026 16.195 38.018 16.13 38.005 16.066 38 16 38.005 16.052 38.011 16.104 38.019 16.153M43.922888 26.7105045C43.9181679 25.9418228 43.8237658 25.1870609 43.6396819 24.4647785 43.3580491 23.3589286 42.9017726 22.5098215 42.813664 22.3520638 42.6610474 22.078308 42.1984774 21.2493072 41.4888888 20.491452 40.7037786 19.654718 40.1531 19.2757904 39.6275954 18.9277957 39.5678074 18.8798497 39.3963104 18.7375586 39.1099575 18.2859387 38.9416072 18.0199161 38.8110178 17.6842945 38.7638167 17.5590164 38.6473876 17.2620609 38.5844529 16.9357192 38.5498388 16.7423888 38.7811238 18.5225751 39.7739185 20.1790301 41.3252586 21.4921302 41.3284054 22.5237412 40.6188167 23.5553523 39.2075063 24.3286739 36.4667005 25.8320112 32.1131934 25.7887052 29.4825233 24.232782 28.2065225 23.4780201 27.5693087 22.5051815 27.566162 21.5307963 29.33148 20.0212725 30.3824894 18.0694087 30.3761959 16 30.3761959 17.5775761 29.6382867 18.6246536 29.2480916 18.9587285 29.2701187 18.9417155 29.2952926 18.926249 29.3188931 18.9107826 28.2458566 19.6129586 27.7360857 20.1666569 27.3270102 20.6120902 27.1822604 20.7683012 26.8628668 21.1673351 26.7464377 21.3359192 26.4160305 21.8153786 26.3656828 21.8880709 26.049436 22.4634222 25.9975148 22.5562208 25.5412383 23.4068745 25.2564589 24.5730436 25.1337362 25.0803425 25.0896819 25.4438037 25.0409075 25.8660373 25.0125869 26.1026737 25.0094402 26.2960041 25 26.764637 25.0047201 28.1024835 25.8779389 29.4418765 27.6338168 30.4812208 27.6526972 30.4905006 27.6700042 30.5028738 27.690458 30.5121536 31.8063867 32.907904 34.4228965 37.1719995 34.4228965 41.873795L34.4228965 58.9997757C36.8175614 59.0121489 39.2248133 58.5125831 41.0892535 57.4902519 43.0292154 56.4261614 44.0047031 55.0078895 43.999983 53.588071L43.922888 26.7105045zM37.725 16C37.724 15.4261408 37.486 14.8522815 37.008 14.4083527L37 10C37.478 10.4454756 37.716 11.0177881 37.717 11.5916473 37.72 12.9141531 37.723 14.6774942 37.725 16M30.0000038 11.0689515C29.9986537 10.5268805 30.3577893 9.98343032 31.0706602 9.57791163 32.457248 8.78756398 34.6593168 8.81101234 35.9891989 9.6289463L36 13.5599948C34.6701179 12.7420609 32.468049 12.7186125 31.0814613 13.5089602 30.3672403 13.9144789 30.0094547 14.4579291 30.0108049 15 30.0081046 13.8206854 30.0027041 12.248266 30.0000038 11.0689515"/>
      <path fill="#9BD4F4" d="M39.1084088,15.4525615 L39.0956,11 C39.0972011,11.6139848 38.6729105,12.2295319 37.8259303,12.6888488 C36.1816041,13.584048 33.5718165,13.5574889 31.9931351,12.6310436 C31.2278109,12.1826628 30.8467499,11.6030487 30.8451488,11.0234345 L30.8579576,15.4759961 C30.864362,17.5663565 29.7948294,19.537982 28,21.0627891 C28.0016011,22.0470395 28.6500453,23.0297277 29.9485347,23.7921312 C32.6255683,25.3638073 37.0558028,25.4075517 39.8449133,23.8889939 C41.281097,23.1078428 42.0031916,22.0657871 41.9999894,21.0237315 C40.1971545,19.5082983 39.1148132,17.542922 39.1084088,15.4525615"/>
      <path fill="#ACDAF5" d="M36.8867906,9.76313331 C38.4159591,10.7564104 38.3631756,12.3392887 36.768804,13.2973907 C35.1744324,14.2571677 32.6439303,14.2303676 31.1132094,13.2370905 C29.5840409,12.2438135 29.6368244,10.6609352 31.231196,9.70115818 C32.8255676,8.74305619 35.3576221,8.76985625 36.8867906,9.76313331"/>
      <path fill="#E35271" d="M27.6445487,49.2993393 C31.2764588,51.5124547 37.2906744,51.5732194 41.0758229,49.4368594 C43.0252692,48.336698 44.0031519,46.8687501 43.9999924,45.4024012 L44,33 C44.0031519,34.4663489 43.0252692,35.9342968 41.0758229,37.0344582 C37.2906744,39.1708182 31.2764588,39.1084544 27.6445487,36.8969381 C25.8815162,35.8223618 25.0047393,34.4391647 25,33.0559675 L25.0363349,45.8981135 C25.2053712,47.1309978 26.0679301,48.3382971 27.6445487,49.2993393"/>
      <path fill="#EA607E" d="M38.924,12 C38.923,11.2642674 38.616,10.5300771 38.002,9.95938303 L38,9 C38.615,9.57069409 38.921,10.3048843 38.922,11.040617 C38.923,11.3290488 38.924,11.7115681 38.924,12"/>
      <path fill="#EA607E" d="M39 12C38.999001 11.0453636 38.6933067 10.0927285 38.0789211 9.35223482 38.0789211 9.18012008 38.047952 9.06004003 38 9 38.2217782 9.27218145 38.5274725 9.72048032 38.7262737 10.3168779 38.8621379 10.7251501 38.9010989 10.9593062 38.9450549 11.2314877 38.99001 11.5056704 38.996004 11.8138759 39 12M29.0000035 11.0241886C28.9984256 10.2319302 29.5364689 9.43810298 30.6078219 8.84351696 32.6905701 7.69042798 35.9992995 7.72337338 37.9968443 8.91882073L38 9.89306326C36.0008773 8.69918474 32.6937257 8.66467051 30.6109776 9.81932832 29.5396246 10.4139143 29.0000035 11.2061728 29.0031591 12 29.0015813 11.7081979 29.0000035 11.3175596 29.0000035 11.0241886"/>
      <path fill="#EA607E" d="M37.8737507,9.09684024 C37.5312995,8.86351647 37.2077857,8.64549261 36.5923204,8.41408133 C35.9168867,8.15972016 35.3629679,8.08704554 35.0946881,8.05262073 C34.5297225,7.97994611 33.3887445,7.91683394 32.0962674,8.33949422 C30.6791191,8.80422928 30.0021072,9.60365008 29.7795929,9.8675737 C29.4134699,10.3017089 29.238299,10.7779189 29.1641275,10.9825553 C29.0962685,11.1680669 29.0126284,11.4951027 29,12 C28.9984253,11.0322801 29.536563,10.0664727 30.6081038,9.34163896 C32.6927953,7.93404635 36.0005268,7.97420864 38,9.43152599 C37.9984219,9.26896434 37.9510784,9.15230245 37.8737507,9.09684024"/>
      <path fill="#EA607E" d="M36.746851,10.7632166 C38.4676846,11.7559805 38.409247,13.3387973 36.6145975,14.2976332 C34.8214859,15.2579442 31.9734219,15.2299167 30.2525884,14.2356776 C28.5317549,13.2429137 28.5917303,11.6600969 30.3848419,10.7012611 C32.1779535,9.74242519 35.0260175,9.7704527 36.746851,10.7632166"/>
      <path fill="#EA607E" d="M29.0000033,11.8917626 C28.9984936,11.1341438 29.5132882,10.3750247 30.5383482,9.80793578 C32.5311012,8.70376258 35.696861,8.73526752 37.6080922,9.87844684 C37.6080922,10.1394878 37.4208942,10.4545372 37.1884064,10.5835574 C35.500605,9.57389907 32.7032026,9.54539459 30.9429375,10.5205476 C29.1826723,11.4957005 29.1253052,13.105453 30.8131066,14.1151114 C32.5024176,15.12627 35.2983104,15.1547745 37.0585755,14.1781213 C38.8203503,13.2029683 38.8777174,11.5932158 37.1884064,10.5835574 C37.4208942,10.4545372 37.6080922,10.1394878 37.6080922,9.87844684 C38.5350243,10.4335339 38.9984903,11.1476459 39,11.8632582 C38.995471,12.0492874 38.9849034,12.3958417 38.7705315,12.824909 C38.5244567,13.3184864 38.15308,13.6395368 38.0821259,13.698046 C37.8556767,13.8870756 37.8013289,13.9305825 37.591486,14.0641034 C37.2835151,14.2606342 37.0147953,14.3791528 37.011776,14.3806531 C36.6751215,14.5261759 36.1663657,14.7467105 35.3481292,14.8862324 C33.0957145,15.2657919 30.7512105,14.6731989 29.643119,13.443006 C29.3275998,13.0919509 29.2038076,12.7934041 29.1570081,12.6808864 C29.0196289,12.3493344 29.0075516,12.0747914 29.0000033,11.8917626"/>
      <path fill="#E35271" d="M30.511171,13.9034537 C31.6811585,14.8196292 33.8475225,15.4087357 36.0486088,14.6570511 C36.8940191,14.3663232 37.6896106,13.8326844 38.1787409,13.2282764 C38.9622552,12.2566331 38.9879194,11.4074016 39,11 C39.0015064,11.9678179 38.4867118,12.9337231 37.4616518,13.6586302 C35.4688988,15.0663654 32.303139,15.026199 30.3903981,13.5687341 C29.463466,12.8610412 29.0015097,11.9506038 29,11.036341 C29.0120773,12.1629116 29.5208332,13.1288169 30.511171,13.9034537"/>
      <path fill="#E35271" d="M36.7474116,8.76321662 C38.4682451,9.75598053 38.4082697,11.3387973 36.6151581,12.2976332 C34.8220465,13.2579442 31.9739825,13.2299167 30.253149,12.2356776 C28.5323154,11.2429137 28.590753,9.66009695 30.3854025,8.70126107 C32.1785141,7.74242519 35.0265781,7.7704527 36.7474116,8.76321662"/>
      <path fill="#E35271" d="M29.0030184,11.0056191 L29,10.0298077 C29.0030184,10.778139 29.4648353,11.5264702 30.3914876,12.1069367 C32.3036512,13.3023841 35.4669462,13.3353295 37.4590977,12.1806717 C38.4853576,11.5860857 38.9999967,10.7938272 38.9969783,10 L38.9999967,10.9758114 C39.0015059,11.7680698 38.4868668,12.561897 37.4621161,13.156483 C35.4699647,14.309572 32.3051604,14.2766266 30.394506,13.0811793 C29.4663445,12.5007127 29.0045276,11.7539503 29.0030184,11.0056191"/>
      <path fill="#EA607E" d="M30.6576081,8.78676127 C31.0003013,8.60221776 31.4939605,8.36666223 32.289552,8.18511943 C32.8390688,8.05908972 33.4806748,7.99307415 34.0966167,8.00057592 C34.9948652,8.00957804 36.3127995,8.16561483 37.487316,8.85877824 C37.411833,8.81376763 37.304647,8.81826869 37.1868934,8.8827839 C35.4975824,7.87304586 32.7016896,7.84603949 30.9399148,8.81976905 C29.1796497,9.79649931 29.1222826,11.4063788 30.8115936,12.4161169 C32.499395,13.4273553 35.2967974,13.4543617 37.0570625,12.4791317 C38.8173277,11.5039018 38.8746948,9.8940223 37.1868934,8.8827839 C37.304647,8.81826869 37.411833,8.81376763 37.487316,8.85877824 C37.768113,9.03882069 37.8964342,9.12134014 38.1289221,9.32988931 C38.3327264,9.51293246 38.4987891,9.71698057 38.5848398,9.84601099 C38.9365909,10.3681341 38.9924484,10.7762303 38.9999967,11.1078085 C39.0015063,11.8654871 38.4882215,12.6246661 37.4616518,13.1933001 C35.4688988,14.2960601 32.303139,14.2645527 30.3919078,13.1212831 C29.463466,12.5661523 29.0015097,11.8504835 29,11.1363152 C29.009058,10.9007596 29.0271739,10.410144 29.4227052,9.84751134 C29.8137075,9.29388082 30.3647338,8.94429841 30.6576081,8.78676127"/>
    </g>
  </g>
</svg>
