<svg xmlns="http://www.w3.org/2000/svg" width="223" height="226" viewBox="0 0 223 226">
  <g fill="none">
    <g fill="#D73E5C">
      <ellipse cx="144.229" cy="180.152" rx="20.265" ry="10.146"/>
      <ellipse cx="157.078" cy="219.526" rx="14.25" ry="6.344"/>
      <path d="M210.695251,99.0244299 C217.763879,94.4531582 222.593076,85.3106149 222.593076,74.7513552 C222.593076,61.2588179 214.702514,50.070806 204.329982,47.8148537 C208.873523,43.2327881 211.323154,37.6468776 210.652133,31.9044537 C209.188822,19.3860776 193.550526,10.9343522 175.734779,13.0256955 C172.54945,13.3980896 169.520423,14.0943045 166.690816,15.0387821 C163.04736,6.34958806 151.615746,0 138.057885,0 C129.730755,0 122.20939,2.39627463 116.790018,6.25244179 C111.114634,2.42056119 102.954586,0 93.8459456,0 C81.3929789,0 70.6808943,4.50920597 65.7439033,11.0045134 C63.609571,10.3056 61.3755287,9.73891343 59.049861,9.3287403 C40.8029366,6.12561194 24.2268278,13.7138149 22.0278187,26.2834627 C21.8796012,27.1065075 21.8122296,27.9295522 21.7960604,28.752597 C21.7017402,28.752597 21.6128097,28.736406 21.5211843,28.736406 C9.63683384,28.736406 0,38.8207284 0,51.2608478 C0,59.0298507 3.75664048,65.8786627 9.47783686,69.9264239 C4.21746224,74.6623045 0.776120846,82.4421015 0.776120846,91.2581254 C0.776120846,105.697839 9.97638671,117.401266 21.3298489,117.401266 C21.7879758,117.401266 22.2380181,117.347296 22.6907553,117.314913 C21.8122296,119.511499 21.3271541,121.845707 21.3271541,124.266269 C21.3271541,137.348633 35.2164834,147.951069 52.3558187,147.951069 C56.8077341,147.951069 61.0359758,147.219773 64.8626828,145.932585 C65.9002054,155.274818 82.9640846,162.711904 103.932822,162.711904 C119.740894,162.711904 133.328399,158.477946 139.515807,152.390113 C144.565982,154.540824 150.580918,155.798328 157.059372,155.798328 C174.83739,155.798328 189.249523,146.396728 189.249523,134.790448 C189.249523,134.733779 189.233353,134.679809 189.233353,134.620442 C190.19003,134.722985 191.162876,134.790448 192.151891,134.790448 C205.539976,134.790448 216.392193,125.046137 216.392193,113.026985 C216.392193,107.689337 214.244387,102.807737 210.695251,99.0244299 Z"/>
    </g>
    <g fill="#FFF" transform="translate(65 41)">
      <path d="M69.1916667,83 L22.8083333,83 C20.8916667,83 19.55,81.3022727 19.55,79.4159091 L19.55,31.3136364 C19.55,30.5590909 19.1666667,29.9931818 18.7833333,29.8045455 C18.5916667,29.8045455 18.5916667,29.8045455 18.2083333,29.8045455 C17.25,30.5590909 16.1,30.7477273 14.95,30.7477273 C13.8,30.5590909 12.8416667,29.9931818 12.075,29.2386364 L1.15,21.8818182 C0.958333333,21.6931818 0.766666667,21.6931818 0.766666667,21.5045455 C-0.191666667,20.1840909 -0.191666667,18.1090909 0.958333333,16.7886364 L13.8,1.32045455 C14.375,0.377272727 15.3333333,0 16.2916667,0 L34.5,0 C36.0333333,0 37.375,1.32045455 37.7583333,3.01818182 L37.7583333,3.20681818 C38.7166667,7.92272727 42.7416667,9.80909091 46,9.80909091 C49.2583333,9.80909091 53.2833333,8.11136364 54.2416667,3.20681818 L54.2416667,3.01818182 C54.4333333,1.32045455 55.775,0 57.5,0 L75.7083333,0 C76.6666667,0 77.625,0.377272727 78.2,1.13181818 L91.0416667,16.6 C92.1916667,17.9204545 92.1916667,19.9954545 91.2333333,21.3159091 C91.0416667,21.5045455 91.0416667,21.6931818 90.85,21.6931818 L79.925,29.05 C79.1583333,29.9931818 78.2,30.5590909 77.05,30.5590909 C75.9,30.7477273 74.75,30.3704545 73.7916667,29.6159091 C73.6,29.4272727 73.4083333,29.4272727 73.2166667,29.6159091 C72.8333333,29.8045455 72.45,30.3704545 72.45,31.125 L72.45,79.2272727 C72.45,81.3022727 71.1083333,83 69.1916667,83 Z M23.3833333,79.2272727 L68.6166667,79.2272727 L68.6166667,31.3136364 C68.6166667,29.2386364 69.7666667,27.1636364 71.4916667,26.4090909 C73.025,25.6545455 74.75,25.8431818 76.0916667,26.975 C76.2833333,27.1636364 76.475,27.1636364 76.475,27.1636364 C76.6666667,27.1636364 76.8583333,26.975 77.05,26.7863636 C77.2416667,26.5977273 77.2416667,26.4090909 77.4333333,26.4090909 L88.1666667,19.2409091 L75.5166667,3.77272727 L58.075,3.77272727 L58.075,3.96136364 C56.7333333,10.5636364 51.175,13.5818182 46.1916667,13.5818182 C41.2083333,13.5818182 35.4583333,10.5636364 34.3083333,3.96136364 L34.3083333,3.77272727 L16.8666667,3.77272727 L3.83333333,19.0522727 L14.5666667,26.2204545 C14.7583333,26.4090909 14.95,26.4090909 14.95,26.5977273 C15.1416667,26.7863636 15.3333333,26.975 15.525,26.975 C15.525,26.975 15.7166667,26.975 15.9083333,26.7863636 C17.25,25.8431818 18.975,25.6545455 20.5083333,26.2204545 C22.2333333,26.975 23.3833333,29.05 23.3833333,31.125 L23.3833333,79.2272727 Z"/>
      <path d="M45.8083333 83C44.6583333 83 43.8916667 82.2454545 43.8916667 81.1136364L43.8916667 28.2954545C43.8916667 27.1636364 44.6583333 26.4090909 45.8083333 26.4090909 46.9583333 26.4090909 47.725 27.1636364 47.725 28.2954545L47.725 81.1136364C47.725 82.2454545 46.9583333 83 45.8083333 83zM57.5 35.8409091L53.6666667 35.8409091C52.5166667 35.8409091 51.75 35.0863636 51.75 33.9545455 51.75 32.8227273 52.5166667 32.0681818 53.6666667 32.0681818L57.5 32.0681818C58.65 32.0681818 59.4166667 32.8227273 59.4166667 33.9545455 59.4166667 35.0863636 58.65 35.8409091 57.5 35.8409091zM57.5 54.7045455L53.6666667 54.7045455C52.5166667 54.7045455 51.75 53.95 51.75 52.8181818 51.75 51.6863636 52.5166667 50.9318182 53.6666667 50.9318182L57.5 50.9318182C58.65 50.9318182 59.4166667 51.6863636 59.4166667 52.8181818 59.4166667 53.95 58.65 54.7045455 57.5 54.7045455zM57.5 73.5681818L53.6666667 73.5681818C52.5166667 73.5681818 51.75 72.8136364 51.75 71.6818182 51.75 70.55 52.5166667 69.7954545 53.6666667 69.7954545L57.5 69.7954545C58.65 69.7954545 59.4166667 70.55 59.4166667 71.6818182 59.4166667 72.8136364 58.65 73.5681818 57.5 73.5681818z"/>
    </g>
  </g>
</svg>
