<svg xmlns="http://www.w3.org/2000/svg" width="230" height="194" viewBox="0 0 230 194">
  <g fill="none">
    <g fill="#3792C2">
      <ellipse cx="45.99" cy="164.533" rx="19.74" ry="9.857"/>
      <ellipse cx="13.881" cy="187.055" rx="13.881" ry="6.163"/>
      <path d="M218.358,96.203027 C225.243375,91.762 229.947375,82.8799459 229.947375,72.6215405 C229.947375,59.5134324 222.261375,48.6441892 212.15775,46.4525135 C216.5835,42.001 218.969625,36.5742432 218.316,30.9954324 C216.890625,18.8337297 201.65775,10.6228108 184.303875,12.6545676 C181.201125,13.0163514 178.250625,13.6927297 175.494375,14.6102973 C171.945375,6.16867568 160.810125,0 147.60375,0 C139.4925,0 132.166125,2.328 126.88725,6.0742973 C121.359,2.35159459 113.4105,0 104.538,0 C92.407875,0 81.9735,4.38072973 77.1645,10.690973 C75.0855,10.011973 72.909375,9.46143243 70.644,9.06294595 C52.870125,5.95108108 36.72375,13.3230811 34.58175,25.5345946 C34.437375,26.3341892 34.37175,27.1337838 34.356,27.9333784 C34.264125,27.9333784 34.1775,27.9176486 34.08825,27.9176486 C22.512,27.9176486 13.125,37.7146486 13.125,49.8003243 C13.125,57.347973 16.78425,64.0016486 22.357125,67.9340811 C17.233125,72.535027 13.881,80.0931622 13.881,88.658 C13.881,102.686297 22.84275,114.05627 33.901875,114.05627 C34.348125,114.05627 34.7865,114.003838 35.2275,113.972378 C34.37175,116.106378 33.89925,118.374081 33.89925,120.725676 C33.89925,133.435297 47.4285,143.735649 64.1235,143.735649 C68.46,143.735649 72.578625,143.025189 76.306125,141.774676 C77.31675,150.85073 93.93825,158.075919 114.363375,158.075919 C129.761625,158.075919 142.996875,153.962595 149.023875,148.048216 C153.943125,150.137649 159.802125,151.359324 166.112625,151.359324 C183.42975,151.359324 197.46825,142.225595 197.46825,130.95 C197.46825,130.894946 197.4525,130.842514 197.4525,130.784838 C198.384375,130.884459 199.332,130.95 200.295375,130.95 C213.336375,130.95 223.90725,121.483324 223.90725,109.806622 C223.90725,104.621054 221.815125,99.8785405 218.358,96.203027 Z"/>
    </g>
    <g fill="#FFF" transform="translate(77 39)">
      <path d="M80,49.9329114 C80,52.7012658 78.8721519,55.3670886 76.9240506,57.3151899 L56.3151899,77.9240506 C52.2139241,82.0253165 45.5493671,82.0253165 41.4481013,77.9240506 L3.10126582,39.5772152 C0.84556962,37.321519 -0.179746835,34.2455696 0.0253164557,31.1696203 L1.87088608,12.3037975 C2.3835443,7.27974684 6.27974684,3.3835443 11.3037975,2.87088608 L30.0670886,1.02531646 C33.143038,0.717721519 36.321519,1.84556962 38.4746835,4.10126582 L76.9240506,42.4481013 C78.8721519,44.3962025 80,47.164557 80,49.9329114 Z M2.3835443,32.0924051 C2.3835443,34.2455696 3.20379747,36.2962025 4.74177215,37.8341772 L43.0886076,76.2835443 C46.2670886,79.4620253 51.4962025,79.4620253 54.6746835,76.2835443 L75.2835443,55.6746835 C78.4620253,52.4962025 78.4620253,47.2670886 75.2835443,44.0886076 L36.9367089,5.74177215 C35.1936709,3.99873418 32.835443,3.17848101 30.3746835,3.3835443 L11.6113924,5.22911392 C7.71518987,5.63924051 4.63924051,8.71518987 4.22911392,12.6113924 L2.3835443,31.3746835 C2.3835443,31.5797468 2.3835443,31.8873418 2.3835443,32.0924051 Z"/>
      <path d="M34.3734177,26.6582278 C34.3734177,31.4772152 30.4772152,35.2708861 25.6582278,35.2708861 C20.8392405,35.2708861 17.0455696,31.3746835 17.0455696,26.5556962 C17.0455696,21.7367089 20.9417722,17.943038 25.7607595,17.943038 C28.0164557,17.943038 30.2721519,18.8658228 31.8101266,20.5063291 C33.4506329,22.1468354 34.3734177,24.4025316 34.3734177,26.6582278 Z M19.4037975,26.6582278 C19.4037975,30.1443038 22.2746835,33.0151899 25.7607595,33.0151899 C29.2468354,33.0151899 32.1177215,30.1443038 32.1177215,26.6582278 C32.1177215,25.0177215 31.5025316,23.3772152 30.2721519,22.1468354 C27.8113924,19.6860759 23.8126582,19.6860759 21.3518987,22.1468354 C20.0189873,23.3772152 19.4037975,25.0177215 19.4037975,26.6582278 Z"/>
    </g>
  </g>
</svg>
