<svg xmlns="http://www.w3.org/2000/svg" xmlns:xlink="http://www.w3.org/1999/xlink" width="302" height="324" viewBox="0 0 302 324">
  <defs>
    <polygon id="ci-segmentation-svg-a" points="0 22.172 0 .999 36.554 .999 36.554 22.172"/>
    <linearGradient id="ci-segmentation-svg-c" x1="2.366%" x2="99.404%" y1="50%" y2="50%">
      <stop offset="0%" stop-color="#24C6DC"/>
      <stop offset="100%" stop-color="#514A9D"/>
    </linearGradient>
    <polygon id="ci-segmentation-svg-d" points="37.175 .862 37.175 22.035 .621 22.035 .621 .862 37.175 .862"/>
  </defs>
  <g fill="none" fill-rule="evenodd">
    <path fill="#9B9B9B" d="M179.8838,92.1789 C187.0458,96.3139 187.0828,103.0159 179.9678,107.1509 C172.8578,111.2829 161.2818,111.2859 154.1198,107.1509 C146.9578,103.0159 146.9248,96.3109 154.0358,92.1789 C161.1518,88.0439 172.7218,88.0439 179.8838,92.1789"/>
    <path fill="#D0A083" d="M157.3896,54.5027 C157.3896,54.5027 156.2786,57.5897 157.1436,58.5787 C157.6366,58.8257 158.0076,57.9607 158.0076,57.9607 C158.0076,57.9607 158.3776,60.6777 158.9956,61.4187 C159.6136,62.1597 161.4656,60.1837 161.4656,57.5897 C161.4656,54.9967 159.4896,52.4027 157.3896,54.5027"/>
    <path fill="#808488" d="M160.8066,22.8445 C160.8066,22.8445 158.8306,27.2905 158.1716,33.7135 C157.5136,40.1355 156.5256,54.4615 156.5256,54.4615 C156.5256,54.4615 158.5016,56.6025 160.9716,54.2965 C160.9716,54.2965 162.2886,41.4525 163.1126,35.8535 C163.9356,30.2545 166.2416,27.6195 165.0886,25.1505 C163.9356,22.6795 161.3006,21.8565 160.8066,22.8445"/>
    <path fill="#575B5E" d="M173.9375 95.135C173.9375 95.135 174.0605 96.988 172.3325 98.84 170.6025 100.693 169.4915 102.792 170.3555 104.398 171.2205 106.003 175.0485 105.51 176.5315 104.274 178.0125 103.039 177.7655 101.804 179.1245 100.075 180.4835 98.346 180.7305 97.358 180.2365 95.506 179.7425 93.653 176.1605 94.147 173.9375 95.135M160.9697 91.4299C160.9697 91.4299 160.7227 93.2829 158.8697 94.6409 157.0177 95.9999 156.0297 97.3579 156.2767 99.4579 156.5237 101.5569 159.9817 101.3099 161.7107 100.4459 163.4397 99.5809 163.0697 98.7169 164.3037 97.3579 165.5387 95.9999 166.4037 95.8759 166.6507 94.3939 166.8977 92.9119 166.5277 91.3059 165.7857 91.0589 165.0447 90.8119 163.4397 89.7009 160.9697 91.4299"/>
    <path fill="#616568" d="M159.9814,51.6618 C159.9814,51.6618 160.3934,85.9958 160.8864,92.0888 C161.0514,93.5708 164.6744,95.0528 166.1564,92.9118 C167.6384,90.1128 166.7334,61.3778 168.5444,56.1078 C168.0504,52.3208 161.7934,51.0028 159.9814,51.6618"/>
    <path fill="#474B4D" d="M160.3105,52.9792 C160.4665,53.5522 162.4515,58.5782 167.7205,61.5422 C172.1665,63.8482 172.8265,67.7992 173.1555,71.2582 C173.4845,74.7162 173.4845,95.2992 173.8135,95.9582 C174.1435,96.6172 176.9425,99.2512 180.4005,95.9582 C180.7305,86.4072 180.8945,55.4492 180.2365,51.4972 C179.5775,47.5452 159.8165,51.1682 160.3105,52.9792"/>
    <path fill="#E6B698" d="M182.0908,59.1135 C182.0908,59.1135 181.6788,61.2545 181.6788,62.4885 C181.6788,63.7245 182.9138,62.5715 182.9138,62.5715 C182.9138,62.5715 183.2428,65.7825 183.9028,66.2765 C184.5608,66.7705 186.1248,65.7005 186.4538,63.1475 C186.7838,60.5955 185.9598,57.7135 184.8078,57.1375 C183.6548,56.5605 182.0908,59.1135 182.0908,59.1135"/>
    <path fill="#8F959B" d="M173.4844,20.2097 C173.4844,20.2097 181.3884,25.4797 182.2124,27.2907 C183.0354,29.1027 183.3644,34.2067 181.8824,37.6647 C180.4004,41.1237 181.3884,53.6377 180.8944,56.1077 C180.4004,58.5787 173.8134,59.5657 169.6974,58.9077 C165.5804,58.2487 159.3234,55.4497 159.3234,50.6737 C159.3234,45.8987 160.1464,37.0057 159.8164,34.8657 C159.4874,32.7247 159.5644,27.3107 160.4754,23.6677 C160.8864,22.0217 162.8744,21.7927 162.8744,21.7927 C162.8744,21.7927 165.8604,20.1337 173.4844,20.2097"/>
    <path fill="#90959B" d="M180.7305,25.6443 C180.7305,25.6443 186.4815,28.7583 186.6585,47.5453 C186.6585,57.9193 186.4935,59.2373 186.4935,59.2373 C186.4935,59.2373 183.3645,62.2013 181.7175,59.0723 C181.7175,55.2853 182.3765,44.9103 180.7305,38.3233 C179.0835,31.7373 177.7655,31.0783 177.7655,31.0783 C177.7655,31.0783 176.7785,26.1383 180.7305,25.6443"/>
    <path fill="#D0A083" d="M166.7334,19.3864 C166.7334,19.3864 166.7554,19.4814 166.7384,19.6354 C166.6714,20.2044 166.4364,21.6614 166.4034,22.2684 C166.3724,22.8494 167.0624,23.8324 168.6274,23.7504 C170.1914,23.6684 172.8264,22.9274 173.6494,21.0334 C173.5664,20.7034 173.5664,17.2454 173.7314,15.5164 L166.7334,19.3864 Z"/>
    <path fill="#E6B698" d="M175.79,15.2287 C174.58,18.9027 171.221,20.1687 169.368,20.7867 C167.516,21.4037 165.292,21.1567 164.057,19.9217 C162.822,18.6867 161.711,13.1287 162.451,8.3117 C163.192,3.4957 166.897,0.6557 171.221,1.5197 C175.543,2.3847 179.124,5.1017 175.79,15.2287"/>
    <path fill="#575A5D" d="M163.6484,6.865 C163.6484,6.865 164.7534,10.182 169.8404,10.845 C172.2734,11.619 173.4894,13.057 173.5994,13.72 C173.5994,13.72 174.4844,11.509 175.1484,11.951 C175.8114,12.393 175.8114,13.72 175.1484,14.826 L174.4844,15.932 C174.4844,15.932 174.2084,17.646 173.7114,18.365 C174.4294,18.309 176.6404,15.49 177.3034,12.559 C177.9674,9.629 178.4644,4.985 176.2534,3.548 C176.2534,3.548 175.9214,1.668 173.4344,0.783 C170.9464,-0.101 168.4034,-0.709 165.4724,1.668 C162.5434,4.045 161.5474,7.86 162.2114,11.011 C162.5434,10.348 163.8694,8.524 163.6484,6.865"/>
    <path fill="#9B9B9B" d="M139.4277,116.1237 C146.5897,120.2587 146.6267,126.9607 139.5117,131.0957 C132.4017,135.2277 120.8257,135.2307 113.6637,131.0957 C106.5017,126.9607 106.4687,120.2557 113.5797,116.1237 C120.6957,111.9887 132.2657,111.9887 139.4277,116.1237"/>
    <path fill="#9A5B2B" d="M125.6992 124.1447C125.6992 124.1447 125.8552 127.4277 125.5432 128.2877 125.2302 129.1467 122.4952 130.3187 120.5412 129.6157 118.5872 128.9127 117.4142 127.8957 116.7892 126.9577 116.1642 126.0207 113.9602 124.8887 113.4282 123.8327 112.6052 122.1977 114.2102 120.8617 115.6172 120.5497 117.0232 120.2367 118.7432 120.6277 120.0722 121.8777 121.4002 123.1287 125.6992 124.1447 125.6992 124.1447M140.6738 119.7292C140.6738 119.7292 140.8298 123.0122 140.5178 123.8722 140.2048 124.7312 137.4698 125.9042 135.5158 125.2002 133.5618 124.4972 132.3898 123.4812 131.7638 122.5432 131.1388 121.6052 128.9348 120.4732 128.4028 119.4172 127.5808 117.7822 129.1848 116.4472 130.5918 116.1342 131.9978 115.8212 133.7178 116.2122 135.0468 117.4622 136.3748 118.7132 140.6738 119.7292 140.6738 119.7292"/>
    <path fill="#474A4D" d="M140.9297,78.0661 C140.9297,78.0661 141.3817,82.7591 140.3947,87.8231 C139.4067,92.8861 140.3527,116.8461 140.6827,119.9751 C140.6827,119.9751 137.8827,123.4331 133.9307,119.9751 C133.9307,110.7531 131.6247,94.7801 132.7787,84.7351 C133.9307,74.6901 140.9297,78.0661 140.9297,78.0661"/>
    <path fill="#575B5E" d="M140.6406,79.5481 C140.4846,80.1211 139.9006,85.4761 131.7896,88.6871 C127.3436,90.9931 126.6856,94.9451 126.3566,98.4031 C126.0266,101.8611 126.0266,124.0911 125.6976,124.7501 C125.3686,125.4091 122.5686,128.0441 119.1106,124.7501 C118.7816,115.1991 118.6166,82.5941 119.2756,78.6421 C119.9336,74.6901 141.1346,77.7361 140.6406,79.5481"/>
    <path fill="#E6B698" d="M117.6699,87.5759 C117.6699,87.5759 118.7809,90.6629 117.9159,91.6519 C117.4229,91.8989 117.0519,91.0339 117.0519,91.0339 C117.0519,91.0339 116.6819,93.7509 116.0639,94.4919 C115.4459,95.2329 113.5939,93.2569 113.5939,90.6629 C113.5939,88.0699 115.5699,85.4759 117.6699,87.5759"/>
    <path fill="#8F959B" d="M127.6729,48.343 C127.6729,48.343 120.7569,50.319 118.0399,54.683 C116.9879,56.372 116.8879,61.599 118.3689,65.057 C119.8519,68.515 118.4099,80.783 118.9039,83.253 C119.3989,85.723 126.4389,86.958 130.5559,86.3 C134.6719,85.641 141.0759,82.839 140.9299,78.066 C140.5139,64.525 140.5139,57.879 139.9419,54.683 C139.3899,51.603 137.2249,49.496 137.2249,49.496 C137.2249,49.496 134.9189,46.861 127.6729,48.343"/>
    <path fill="#575B5E" d="M118.0401,54.6828 C118.0401,54.6828 115.8171,55.5888 115.4871,63.1628 C115.1581,70.7378 113.8411,86.7108 113.8411,88.0288 C113.8411,89.3458 116.8051,91.1578 118.2871,88.6868 C120.0251,85.7898 120.2631,74.0318 120.5931,72.5498 C120.9221,71.0678 122.4031,61.6818 121.4161,58.7178 C120.4281,55.7528 118.0401,54.6828 118.0401,54.6828"/>
    <path fill="#D0A083" d="M131.667,28.2121 C131.667,28.2121 127.838,27.1001 124.627,29.0761 C121.416,31.0521 120.922,33.2751 121.045,36.3631 C121.169,39.4511 120.922,44.0201 122.527,47.4791 C124.133,50.9371 131.049,48.0961 133.148,46.7371 C135.248,45.3791 137.471,39.9451 137.225,35.7461 C136.978,31.5461 135.495,28.9531 131.667,28.2121"/>
    <path fill="#D0A083" d="M134.5898,44.9387 C134.5898,44.9387 132.9738,48.1697 132.9738,49.3447 C132.9738,50.5197 130.4778,51.9887 127.2458,51.4007 C124.0148,50.8137 123.7208,50.0787 123.7208,50.0787 C123.7208,50.0787 125.3368,47.7297 125.7778,45.8197 C126.2178,43.9107 134.5898,44.9387 134.5898,44.9387"/>
    <path fill="#575A5D" d="M123.7783,28.156 C123.7783,28.156 120.2393,29.262 119.7973,33.464 C119.7973,34.348 120.6813,38.771 125.3263,38.108 C125.5473,38.329 125.5473,39.656 125.5473,39.656 C125.5473,39.656 127.0943,38.108 127.9793,39.656 C128.8643,41.204 127.3163,43.857 125.7683,43.415 C125.7683,43.415 125.7683,45.184 126.6523,46.29 C127.5373,47.396 130.4123,48.944 132.1813,48.281 C133.9503,47.617 138.5943,42.973 139.0373,36.339 C139.4793,29.704 136.6043,30.81 136.6043,30.81 C136.6043,30.81 135.7193,27.935 131.9603,26.829 C128.2013,25.723 123.7783,28.156 123.7783,28.156"/>
    <g transform="translate(0 172.112)">
      <mask id="ci-segmentation-svg-b" fill="#fff">
        <use xlink:href="#ci-segmentation-svg-a"/>
      </mask>
      <path fill="#9B9B9B" d="M31.1582,4.1006 C38.3202,8.2356 38.3572,14.9376 31.2422,19.0726 C24.1322,23.2046 12.5562,23.2066 5.3942,19.0726 C-1.7678,14.9376 -1.8008,8.2326 5.3102,4.1006 C12.4262,-0.0344 23.9962,-0.0354 31.1582,4.1006" mask="url(#ci-segmentation-svg-b)"/>
    </g>
    <path fill="#575B5E" d="M21.3867 183.864C21.3867 183.864 21.2307 187.146 21.5427 188.007 21.8567 188.866 24.5917 190.039 26.5457 189.335 28.4997 188.632 29.6717 187.616 30.2967 186.677 30.9227 185.74 33.1257 184.608 33.6577 183.552 34.4807 181.917 32.8767 180.581 31.4697 180.268 30.0627 179.956 28.3427 180.346 27.0147 181.597 25.6857 182.847 21.3867 183.864 21.3867 183.864M6.4121 179.4489C6.4121 179.4489 6.2561 182.7309 6.5681 183.5919 6.8811 184.4509 9.6171 185.6229 11.5711 184.9199 13.5241 184.2169 14.6971 183.1999 15.3221 182.2619 15.9481 181.3249 18.1511 180.1919 18.6831 179.1369 19.5061 177.5019 17.9011 176.1659 16.4951 175.8529 15.0881 175.5409 13.3681 175.9309 12.0401 177.1819 10.7111 178.4319 6.4121 179.4489 6.4121 179.4489"/>
    <path fill="#9A7260" d="M6.1572,137.7854 C6.1572,137.7854 5.7042,142.4784 6.6922,147.5424 C7.6802,152.6054 6.7332,176.5654 6.4042,179.6944 C6.4042,179.6944 8.0292,183.4774 11.9812,180.0194 C11.9812,170.7974 15.4612,154.4994 14.3082,144.4544 C13.1552,134.4094 6.1572,137.7854 6.1572,137.7854"/>
    <path fill="#9A7260" d="M6.4453,139.2673 C6.6013,139.8403 7.1863,145.1953 15.2963,148.4063 C19.7423,150.7123 20.4013,154.6643 20.7303,158.1213 C21.0593,161.5793 21.0593,183.8113 21.3883,184.4693 C21.7183,185.1273 23.1193,187.7363 26.5773,184.4423 C26.9063,174.8913 28.4693,142.3133 27.8113,138.3613 C27.1523,134.4093 5.9513,137.4553 6.4453,139.2673"/>
    <path fill="#575B5E" d="M6.1572,137.7854 L5.3472,158.7894 C5.3472,158.7894 11.9812,163.2124 16.1832,159.2324 C15.9622,157.9054 16.4042,150.1654 16.4042,150.1654 L17.5112,160.7804 C17.5112,160.7804 24.5872,165.4234 29.2312,160.3374 C28.7892,153.9244 28.1812,142.9724 28.1812,142.9724 C28.1812,142.9724 9.3992,146.4144 6.1572,137.7854"/>
    <path fill="#9A7260" d="M9.623,110.7278 C9.623,110.7278 5.643,110.8748 5.348,114.7078 C5.053,118.5408 8.591,120.6048 12.719,120.0158 C16.847,119.4258 9.623,110.7278 9.623,110.7278"/>
    <path fill="#8F959B" d="M19.4131,108.0622 C19.4131,108.0622 26.3291,110.0382 29.0461,114.4022 C30.0981,116.0912 30.1991,121.3182 28.7171,124.7762 C27.2341,128.2342 28.6761,140.5022 28.1821,142.9722 C27.6871,145.4422 20.6481,146.6772 16.5311,146.0192 C12.4141,145.3602 6.0111,142.5582 6.1571,137.7852 C6.5731,124.2442 6.5731,117.5982 7.1451,114.4022 C7.6971,111.3222 9.8621,109.2152 9.8621,109.2152 C9.8621,109.2152 12.1681,106.5802 19.4131,108.0622"/>
    <path fill="#9A7260" d="M15.4199,87.9314 C15.4199,87.9314 19.2479,86.8194 22.4599,88.7954 C25.6709,90.7714 26.1649,92.9944 26.0409,96.0824 C25.9179,99.1704 26.1649,103.7394 24.5599,107.1984 C22.9529,110.6564 16.0369,107.8154 13.9379,106.4564 C11.8379,105.0984 9.6149,99.6644 9.8619,95.4654 C10.1089,91.2654 11.5909,88.6724 15.4199,87.9314"/>
    <path fill="#9A7260" d="M12.4971,104.6579 C12.4971,104.6579 14.1121,107.8889 14.1121,109.0639 C14.1121,110.2389 16.6091,111.7079 19.8411,111.1199 C23.0711,110.5329 23.3651,109.7979 23.3651,109.7979 C23.3651,109.7979 21.7501,107.4489 21.3101,105.5389 C20.8681,103.6299 12.4971,104.6579 12.4971,104.6579"/>
    <path fill="#575A5D" d="M25.8399,93.7732 C25.8399,93.7732 25.1029,88.3182 23.9239,86.4012 C20.6799,85.2222 13.8989,85.8122 11.3919,88.3182 C9.6229,89.9402 8.7379,94.6582 8.7379,94.6582 C8.7379,94.6582 8.2959,98.1962 11.2439,103.0612 C11.2439,103.0612 12.8659,105.2732 13.1609,106.4522 C13.7509,106.3052 16.8469,108.2212 19.7959,106.4522 L21.1219,102.4712 C21.1219,102.4712 18.6159,98.6382 20.2379,97.3122 C21.8599,95.9842 22.4489,98.6382 22.4489,98.6382 L23.0389,97.3122 L22.0069,93.6262 L25.8399,93.7732 Z"/>
    <path fill="#9A7260" d="M28.6416,115.593 C28.6416,115.593 26.5776,113.529 23.9236,116.182 C21.2696,118.836 23.3336,122.964 26.8716,124.144 C30.4106,125.323 38.0776,124.439 41.3206,121.785 C44.5636,119.131 40.1406,107.337 36.8976,104.978 C36.8976,104.978 35.7176,101.882 34.9806,100.702 C34.2436,99.523 31.7376,98.196 31.5896,98.933 C31.4426,99.671 31.5896,102.766 32.0326,103.504 C31.5896,103.356 29.8206,103.356 29.8206,103.799 C29.8206,104.241 30.7046,104.978 32.1796,105.125 C33.6546,105.273 34.3906,106.305 34.3906,106.305 C34.3906,106.305 38.0776,114.266 37.3396,116.92 C36.1606,118.099 33.0646,118.394 28.6416,115.593"/>
    <path fill="#9B9B9B" d="M114.9785,210.3532 C122.1405,214.4882 122.1785,221.1902 115.0625,225.3252 C107.9525,229.4572 96.3765,229.4592 89.2145,225.3252 C82.0525,221.1902 82.0195,214.4852 89.1305,210.3532 C96.2465,206.2172 107.8165,206.2172 114.9785,210.3532"/>
    <path fill="#65493C" d="M98.0918 213.3093C98.0918 213.3093 97.9688 215.1623 99.6968 217.0143 101.4268 218.8673 102.5378 220.9663 101.6738 222.5723 100.8088 224.1773 96.9808 223.6833 95.4978 222.4483 94.0168 221.2133 94.2638 219.9783 92.9048 218.2493 91.5458 216.5203 91.2988 215.5323 91.7928 213.6793 92.2868 211.8273 95.8688 212.3213 98.0918 213.3093M111.0596 209.6042C111.0596 209.6042 111.3066 211.4572 113.1596 212.8152 115.0116 214.1732 115.9996 215.5322 115.7526 217.6312 115.5056 219.7312 112.0476 219.4842 110.3186 218.6202 108.5896 217.7552 108.9596 216.8902 107.7256 215.5322 106.4906 214.1732 105.6256 214.0502 105.3786 212.5682 105.1316 211.0852 105.5016 209.4802 106.2436 209.2332 106.9846 208.9872 108.5896 207.8752 111.0596 209.6042"/>
    <path fill="#D0D8E7" d="M112.0479,169.8357 C112.0479,169.8357 111.6359,204.1697 111.1419,210.2627 C110.9779,211.7447 107.3549,213.2277 105.8729,211.0857 C104.3909,208.2867 105.2959,179.5517 103.4849,174.2817 C103.9789,170.4947 110.2359,169.1777 112.0479,169.8357"/>
    <path fill="#D0D8E7" d="M111.7188,171.153 C111.5628,171.726 109.5778,176.753 104.3088,179.716 C99.8628,182.022 99.2028,185.973 98.8738,189.432 C98.5448,192.89 98.5448,213.473 98.2158,214.132 C97.8858,214.791 95.0868,217.425 91.6288,214.132 C91.2988,204.582 91.1348,173.624 91.7928,169.672 C92.4518,165.719 112.2128,169.342 111.7188,171.153"/>
    <path fill="#D0A083" d="M109.9307,142.0344 C109.9307,142.0344 113.2477,143.1394 114.5747,148.6684 C115.9017,154.1974 116.3437,155.7444 116.3437,155.7444 C116.3437,155.7444 118.5557,153.9754 121.6517,153.0914 C124.7467,152.2064 125.6317,150.2164 125.6317,150.2164 C125.6317,150.2164 124.9687,148.4474 125.6317,147.7844 C126.2947,147.1204 125.1897,144.0244 126.0747,144.4674 C126.9587,144.9094 127.6217,146.6784 127.6217,147.7844 L127.6217,148.8894 C127.6217,148.8894 129.8337,147.1204 131.1597,148.0054 C132.4877,148.8894 131.1597,149.9954 131.1597,149.9954 C131.1597,149.9954 131.8247,150.8804 131.6027,152.4284 C131.3817,153.9754 129.1697,154.4184 128.0647,154.4184 C126.9587,154.4184 122.5357,158.6194 119.6607,159.9474 C116.7857,161.2744 116.1227,163.4854 115.0167,162.8224 C113.9107,162.1584 109.2677,158.3994 107.9407,155.3034 C106.6137,152.2064 103.9597,146.2364 109.9307,142.0344"/>
    <path fill="#8F959B" d="M98.5449,138.384 C98.5449,138.384 90.6409,143.654 89.8169,145.465 C88.9939,147.276 88.6639,152.381 90.1469,155.84 C91.6289,159.298 90.6409,171.812 91.1349,174.282 C91.6289,176.753 98.2159,177.74 102.3319,177.082 C106.4489,176.423 112.7059,173.624 112.7059,168.848 C112.7059,164.073 111.8829,155.18 112.2129,153.04 C112.5419,150.899 112.4999,146.893 111.5889,143.251 C111.1779,141.604 108.8249,140.486 108.8249,140.486 C108.8249,140.486 106.3929,139.159 98.5449,138.384"/>
    <path fill="#D0A083" d="M93.9346 155.3767C94.6716 149.4797 93.9346 146.3837 92.3126 145.6467 90.6916 144.9087 89.8176 145.4647 89.8176 145.4647 89.8176 145.4647 85.9736 149.4797 86.5626 155.3767 86.5626 158.0297 85.0886 164.3697 85.3836 167.0227 85.6666 169.5737 85.6806 174.1587 86.4656 176.0827 85.7436 177.2447 85.3246 179.3777 85.5756 181.3217 85.9046 183.8747 87.4686 184.9447 88.1266 184.4507 88.7866 183.9567 89.1156 180.7457 89.1156 180.7457 89.1156 180.7457 90.3506 181.8977 90.3506 180.6627 90.3506 179.4287 89.9386 177.2877 89.9386 177.2877 89.9386 177.2877 89.4606 176.5107 88.8396 175.9107 89.5376 174.7897 89.9546 169.5917 89.9546 166.8757 89.9546 164.0747 93.1976 161.2737 93.9346 155.3767M96.2393 133.4026C97.4493 137.0766 100.8083 138.3426 102.6613 138.9606 104.5133 139.5776 106.7373 139.3306 107.9713 138.0956 109.2073 136.8606 110.3183 131.3026 109.5783 126.4866 108.8373 121.6706 105.1323 118.8296 100.8083 119.6946 96.4863 120.5586 92.9053 123.2756 96.2393 133.4026"/>
    <path fill="#D0A083" d="M105.2959,137.5608 C105.2959,137.5608 105.2739,137.6558 105.2909,137.8098 C105.3579,138.3778 105.5929,139.8358 105.6259,140.4428 C105.6569,141.0238 104.9669,142.0068 103.4019,141.9248 C101.8379,141.8418 99.2029,141.1018 98.3799,139.2068 C98.4629,138.8778 98.4629,135.4198 98.2979,133.6908 L105.2959,137.5608 Z"/>
    <path fill="#855F4C" d="M106.6133,134.4045 C106.6133,134.4045 105.8403,134.1835 105.2863,134.1835 C104.7333,134.1835 103.4073,135.5105 103.4073,135.5105 L101.5273,135.2895 C101.5273,135.2895 102.7433,136.1745 103.8483,136.2845 C104.9553,136.3955 106.6133,135.3995 106.6133,135.3995 C106.6133,135.3995 107.8303,136.0635 108.1613,136.0635 C108.4933,136.0635 109.9303,134.5155 109.9303,134.5155 L108.6033,134.9575 L107.2763,133.7415 L106.6133,134.4045 Z"/>
    <path fill="#D0D8E7" d="M94.2295,126.9963 C94.2295,126.9963 105.4335,129.7243 110.2985,127.3653 C110.0785,124.8583 109.8565,123.8273 109.8565,123.8273 C109.8565,123.8273 102.0425,124.1213 96.5875,123.1633 L94.2295,126.9963 Z"/>
    <path fill="#855F4C" d="M105.0654,124.3425 C105.0654,124.3425 104.0704,129.2075 102.5224,130.7555 C101.7484,131.6405 98.6524,132.3035 98.6524,132.3035 C98.6524,132.3035 100.4204,130.0925 100.4204,129.7605 C99.2054,131.0875 98.4304,131.9715 97.2144,132.1935 C95.9984,132.4145 94.4504,132.1935 94.4504,132.1935 L95.2244,131.1975 L93.1244,131.9715 C93.1244,131.9715 94.1194,131.1975 94.1194,129.3185 C94.1194,127.4385 94.6714,124.0105 95.5564,121.6885 C96.4404,119.3665 99.2054,118.4825 99.2054,118.4825 L103.5174,119.0355 C103.5174,119.0355 105.3974,118.7035 107.3874,119.0355 C109.3774,119.3665 111.4784,122.0575 111.6264,123.3845 C111.7734,124.7115 111.4784,128.8395 111.6264,129.4285 C111.7734,130.0185 112.5104,130.6085 112.5104,130.6085 C112.5104,130.6085 110.1514,130.1665 109.7094,129.5765 C109.2674,128.9865 107.6454,123.5315 107.6454,123.5315 L106.3184,123.9735 L105.2864,122.9425 L105.0654,124.3425 Z"/>
    <path fill="#9B9B9B" d="M156.5957,228.4245 C163.7577,232.5595 163.7957,239.2615 156.6797,243.3965 C149.5697,247.5285 137.9937,247.5315 130.8317,243.3975 C123.6697,239.2615 123.6367,232.5575 130.7477,228.4245 C137.8637,224.2895 149.4337,224.2895 156.5957,228.4245"/>
    <path fill="#5EA4D5" d="M137.5547,236.1062 C137.5547,236.1062 135.9337,236.6962 134.3117,236.4012 C132.6897,236.1062 130.9207,235.6642 130.1837,236.4012 C129.4467,237.1382 130.0357,238.0222 132.1007,238.9072 C134.1637,239.7922 135.9337,240.0862 136.3757,240.2342 C136.8187,240.3812 138.7347,241.1192 139.7667,240.6762 C140.7987,240.2342 140.7987,238.6122 140.6517,238.1692 C140.5037,237.7272 140.3567,236.4012 140.3567,236.4012 L137.5547,236.1062 Z"/>
    <path fill="#575B5E" d="M154.1406,230.5769 C154.1406,230.5769 152.5196,231.1669 150.8976,230.8719 C149.2756,230.5769 147.5066,230.1359 146.7696,230.8719 C146.0326,231.6089 146.6216,232.4939 148.6866,233.3789 C150.7496,234.2639 152.5196,234.5579 152.9616,234.7059 C153.4036,234.8529 155.3206,235.5899 156.3526,235.1469 C157.3846,234.7059 157.3846,233.0839 157.2376,232.6409 C157.0896,232.1989 156.9426,230.8719 156.9426,230.8719 L154.1406,230.5769 Z"/>
    <path fill="#474B4D" d="M158.0977,190.3669 C158.0977,190.3669 158.5497,195.0599 157.5627,200.1239 C156.5747,205.1869 156.6867,228.8489 157.0157,231.9779 C157.0157,231.9779 155.9837,234.7789 152.7407,231.8309 C152.7407,222.6089 148.7937,207.0809 149.9467,197.0359 C151.0987,186.9909 158.0977,190.3669 158.0977,190.3669"/>
    <path fill="#575B5E" d="M157.8096,191.8493 C157.6536,192.4213 157.0686,197.7773 148.9576,200.9883 C144.6316,203.5243 144.5186,207.1423 144.1896,210.6003 C143.8606,214.0583 140.6856,235.7423 140.3566,236.4013 C140.0276,237.0593 139.7366,240.3443 136.2786,237.0513 C135.9496,227.4993 135.7856,194.8953 136.4436,190.9433 C137.1026,186.9913 158.3026,190.0373 157.8096,191.8493"/>
    <path fill="#D0A083" d="M152.4453,161.2116 C152.4453,161.2116 156.4253,162.3166 159.0803,165.1916 C161.7333,168.0666 165.4933,173.1526 166.5983,175.8076 C167.7043,178.4606 158.8583,187.3066 157.0903,188.4126 C155.0993,189.2966 154.4353,186.6436 155.5423,185.5376 C156.6473,184.4316 160.6283,177.7976 160.6283,177.1346 C160.6283,176.4706 152.2243,170.4996 151.1183,168.2876 C150.0123,166.0766 150.0123,162.3166 152.4453,161.2116"/>
    <path fill="url(#ci-segmentation-svg-c)" d="M144.8418,160.6443 C144.8418,160.6443 137.9248,162.6203 135.2078,166.9843 C134.1568,168.6723 133.7278,174.0593 135.5378,177.3583 C139.1768,183.9903 134.7538,189.2963 136.0718,195.5543 C136.5918,198.0193 143.6068,199.2593 147.7238,198.6003 C151.8398,197.9423 159.1358,195.0283 158.0978,190.3673 C154.0678,172.2693 157.6818,170.1793 157.1098,166.9843 C156.5578,163.9043 154.3928,161.7963 154.3928,161.7963 C154.3928,161.7963 152.0868,159.1623 144.8418,160.6443"/>
    <path fill="#D0A083" d="M148.835,140.5129 C148.835,140.5129 145.006,139.4009 141.795,141.3769 C138.584,143.3529 138.09,145.5759 138.214,148.6639 C138.337,151.7519 138.09,156.3209 139.695,159.7789 C141.301,163.2369 148.217,160.3969 150.316,159.0379 C152.416,157.6799 154.64,152.2459 154.393,148.0469 C154.146,143.8469 152.663,141.2539 148.835,140.5129"/>
    <path fill="#D0A083" d="M151.7578,157.239 C151.7578,157.239 150.1418,160.47 150.1418,161.645 C150.1418,162.82 147.6458,164.289 144.4138,163.702 C141.1828,163.114 140.8898,162.38 140.8898,162.38 C140.8898,162.38 142.5048,160.03 142.9448,158.121 C143.3858,156.212 151.7578,157.239 151.7578,157.239"/>
    <path fill="#855F4C" d="M140.2822,141.53 C140.2822,141.53 137.6292,143.741 137.8492,147.722 C138.0712,151.702 141.8312,151.039 142.7152,153.03 C143.3792,152.145 142.7152,150.155 142.7152,150.155 C142.7152,150.155 144.2622,151.702 144.4842,152.808 C144.7052,153.914 144.7052,155.904 145.8112,157.231 C146.9172,158.558 150.9342,159.074 150.9342,159.074 C150.9342,159.074 155.3202,154.799 155.7622,149.491 C156.2052,144.183 154.2052,139.397 150.4552,138.876 C142.4942,137.77 140.2822,141.53 140.2822,141.53"/>
    <path fill="#78543F" d="M152.2246,143.7414 C152.2246,143.7414 153.7726,139.9814 156.6476,141.0874 C159.5226,142.1934 161.5126,143.7414 161.5126,148.3854 C161.5126,153.0294 161.0706,156.5684 163.9456,159.4424 C163.0606,160.3264 158.6376,159.6634 157.0896,156.3464 C155.5416,153.0294 155.5416,150.5964 155.5416,150.5964 L155.5416,154.3564 C155.5416,154.3564 152.5006,152.9184 153.5506,146.1744 C153.7246,145.0594 150.6766,146.6164 152.2246,143.7414"/>
    <path fill="#D0A083" d="M139.8398,167.1823 C139.8398,167.1823 132.7638,161.2113 130.3308,156.5683 C127.9628,152.0463 131.2448,143.3483 131.6248,139.4213 C132.2198,139.0243 133.3018,138.2523 133.7218,137.6223 C134.3118,136.7383 136.2288,135.8533 135.6388,135.5583 C135.0488,135.2643 133.1318,136.0013 133.1318,136.0013 C133.1318,136.0013 136.2288,132.1683 136.3758,131.1363 C136.5238,130.1033 133.8688,130.6933 132.2478,131.8733 C130.6258,133.0523 129.0038,137.9173 129.2258,139.5393 C128.5618,140.4243 124.5808,146.3943 124.1388,152.1443 C123.6958,157.8943 125.2448,159.8843 125.2448,159.8843 C125.2448,159.8843 130.5518,172.4903 135.4168,175.3653 C140.2818,178.2403 142.0518,170.2793 139.8398,167.1823"/>
    <path fill="#9B9B9B" d="M193.6426,305.0398 C200.8046,309.1748 200.8426,315.8768 193.7276,320.0118 C186.6166,324.1438 175.0406,324.1468 167.8786,320.0118 C160.7166,315.8768 160.6846,309.1718 167.7946,305.0398 C174.9106,300.9048 186.4806,300.9048 193.6426,305.0398"/>
    <path fill="#575B5E" d="M179.9141 313.0603C179.9141 313.0603 180.0701 316.3433 179.7581 317.2033 179.4451 318.0623 176.7101 319.2353 174.7561 318.5323 172.8021 317.8283 171.6301 316.8123 171.0041 315.8733 170.3791 314.9363 168.1751 313.8043 167.6431 312.7483 166.8211 311.1143 168.4251 309.7783 169.8321 309.4653 171.2391 309.1523 172.9581 309.5433 174.2871 310.7933 175.6151 312.0443 179.9141 313.0603 179.9141 313.0603M194.8896 308.6452C194.8896 308.6452 195.0456 311.9272 194.7326 312.7882 194.4196 313.6472 191.6846 314.8202 189.7306 314.1162 187.7766 313.4132 186.6046 312.3972 185.9796 311.4582 185.3536 310.5212 183.1506 309.3892 182.6186 308.3332 181.7956 306.6982 183.3996 305.3632 184.8066 305.0492 186.2136 304.7372 187.9326 305.1272 189.2616 306.3782 190.5906 307.6292 194.8896 308.6452 194.8896 308.6452"/>
    <path fill="#464A4D" d="M195.1445,266.9821 C195.1445,266.9821 195.5975,271.6751 194.6095,276.7391 C193.6215,281.8021 194.5685,305.7611 194.8975,308.8901 C194.8975,308.8901 192.0975,312.3481 188.1455,308.8901 C188.1455,299.6691 185.8405,283.6961 186.9935,273.6511 C188.1455,263.6061 195.1445,266.9821 195.1445,266.9821"/>
    <path fill="#575B5E" d="M194.8564,268.4636 C194.7004,269.0366 194.1154,274.3926 186.0054,277.6036 C181.5594,279.9086 180.9004,283.8606 180.5714,287.3186 C180.2424,290.7766 180.2424,313.0076 179.9124,313.6656 C179.5834,314.3246 176.7844,316.9596 173.3264,313.6656 C172.9964,304.1146 172.8324,271.5106 173.4904,267.5586 C174.1494,263.6066 195.3504,266.6526 194.8564,268.4636"/>
    <path fill="#80665A" d="M171.8848,276.4919 C171.8848,276.4919 172.9958,279.5789 172.1318,280.5669 C171.6378,280.8139 171.2678,279.9499 171.2678,279.9499 C171.2678,279.9499 170.8968,282.6669 170.2798,283.4079 C169.6608,284.1489 167.8088,282.1729 167.8088,279.5789 C167.8088,276.9859 169.7848,274.3919 171.8848,276.4919"/>
    <path fill="#8F959B" d="M181.8887,237.2585 C181.8887,237.2585 174.9727,239.2355 172.2557,243.5985 C171.2037,245.2875 171.1027,250.5145 172.5847,253.9735 C174.0667,257.4315 172.6257,269.6985 173.1197,272.1685 C173.6137,274.6395 180.6537,275.8735 184.7707,275.2155 C188.8867,274.5565 195.2907,271.7555 195.1447,266.9825 C194.7287,253.4415 194.7287,246.7945 194.1567,243.5985 C193.6047,240.5195 191.4397,238.4115 191.4397,238.4115 C191.4397,238.4115 189.1337,235.7775 181.8887,237.2585"/>
    <path fill="#D0D8E7" d="M172.2559,243.5984 C172.2559,243.5984 170.0319,244.5044 169.7029,252.0784 C169.3729,259.6544 168.0559,275.6264 168.0559,276.9444 C168.0559,278.2614 171.0209,280.0734 172.5019,277.6034 C174.2399,274.7054 174.4789,262.9484 174.8079,261.4654 C175.1369,259.9834 176.6189,250.5974 175.6309,247.6334 C174.6429,244.6684 172.2559,243.5984 172.2559,243.5984"/>
    <path fill="#80665A" d="M185.8818,217.1277 C185.8818,217.1277 182.0528,216.0167 178.8418,217.9917 C175.6308,219.9687 175.1368,222.1907 175.2608,225.2787 C175.3838,228.3667 175.1368,232.9367 176.7418,236.3947 C178.3478,239.8527 185.2638,237.0117 187.3628,235.6527 C189.4628,234.2947 191.6868,228.8607 191.4398,224.6617 C191.1928,220.4627 189.7098,217.8687 185.8818,217.1277"/>
    <path fill="#80665A" d="M188.8047,233.8542 C188.8047,233.8542 187.1897,237.0852 187.1897,238.2602 C187.1897,239.4352 184.6927,240.9042 181.4607,240.3172 C178.2307,239.7292 177.9367,238.9952 177.9367,238.9952 C177.9367,238.9952 179.5517,236.6452 179.9917,234.7362 C180.4327,232.8262 188.8047,233.8542 188.8047,233.8542"/>
    <path fill="#464A4D" d="M175.1914,223.0993 C175.1914,223.0993 176.2234,225.6063 179.6144,224.5743 C183.0054,223.5413 183.6884,224.5883 183.3004,226.7863 C183.1894,227.4113 182.4164,228.8493 182.4164,228.8493 C182.4164,228.8493 184.6274,227.0793 185.2164,228.5543 C185.8064,230.0293 185.5114,231.0613 184.0384,231.6503 C182.5634,232.2403 182.2684,233.4193 182.2684,233.4193 C182.2684,233.4193 183.5954,235.1893 185.3644,235.3363 C187.1334,235.4843 188.3134,234.8943 188.3134,234.8943 C188.3134,234.8943 191.7044,231.6503 191.8514,225.6063 C191.9994,219.5613 188.1664,217.0553 185.9544,216.6133 C183.7434,216.1703 175.0444,215.5803 175.1914,223.0993"/>
    <path fill="#9B9B9B" d="M95.9678,95.6545 C103.1298,99.7895 103.1668,106.4915 96.0518,110.6265 C88.9418,114.7585 77.3658,114.7615 70.2038,110.6265 C63.0418,106.4915 63.0088,99.7865 70.1188,95.6545 C77.2358,91.5195 88.8058,91.5195 95.9678,95.6545"/>
    <path fill="#575B5E" d="M79.0811 98.6106C79.0811 98.6106 78.9571 100.4636 80.6861 102.3156 82.4151 104.1686 83.5261 106.2676 82.6621 107.8736 81.7981 109.4796 77.9691 108.9856 76.4871 107.7506 75.0051 106.5146 75.2521 105.2796 73.8941 103.5506 72.5351 101.8216 72.2881 100.8336 72.7821 98.9816 73.2761 97.1286 76.8571 97.6226 79.0811 98.6106M92.0488 94.9055C92.0488 94.9055 92.2958 96.7585 94.1488 98.1165 96.0008 99.4755 96.9878 100.8335 96.7408 102.9335 96.4938 105.0325 93.0358 104.7855 91.3078 103.9215 89.5778 103.0565 89.9488 102.1925 88.7138 100.8335 87.4788 99.4755 86.6138 99.3515 86.3668 97.8695 86.1198 96.3875 86.4908 94.7815 87.2318 94.5355 87.9728 94.2885 89.5778 93.1765 92.0488 94.9055"/>
    <path fill="#575B5E" d="M93.0361,55.1379 C93.0361,55.1379 92.6251,89.4709 92.1311,95.5639 C91.9661,97.0469 88.3441,98.5289 86.8611,96.3879 C85.3791,93.5879 86.2851,64.8529 84.4731,59.5839 C84.9681,55.7969 91.2251,54.4789 93.0361,55.1379"/>
    <path fill="#575B5E" d="M92.707,56.4553 C92.551,57.0283 90.566,62.0543 85.297,65.0183 C80.851,67.3233 80.192,71.2753 79.863,74.7333 C79.533,78.1913 79.533,98.7753 79.204,99.4343 C78.875,100.0933 76.075,102.7273 72.617,99.4343 C72.288,89.8833 72.123,58.9253 72.782,54.9733 C73.44,51.0203 93.201,54.6433 92.707,56.4553"/>
    <path fill="#D0A083" d="M91.1406,27.9582 C91.1406,27.9582 93.9416,29.2852 94.5316,34.1502 C95.1206,39.0162 96.0056,43.4382 96.3006,44.1752 C96.3006,44.1752 99.5436,45.5022 102.0506,46.6822 C104.5566,47.8612 105.5886,47.7142 105.5886,47.7142 C105.5886,47.7142 107.0626,46.0922 108.2426,45.6502 L109.1266,45.2082 C109.1266,45.2082 109.2746,45.9442 108.6846,46.9772 L108.0946,48.0092 C108.0946,48.0092 111.3376,48.0092 112.0756,48.4512 C112.8126,48.8932 110.6016,50.2202 110.6016,50.2202 C110.6016,50.2202 109.1266,51.3992 107.9476,51.6942 C106.7676,51.9892 104.1146,50.5152 104.1146,50.5152 C104.1146,50.5152 97.4796,49.9252 95.4156,48.5982 C93.3516,47.2712 91.4356,45.2082 90.8456,42.8492 C90.2556,40.4902 85.3906,29.4332 91.1406,27.9582"/>
    <path fill="#575B5E" d="M91.8779,26.9265 C91.8779,26.9265 94.3839,26.9265 96.0059,34.1505 C96.8909,39.4575 96.8909,40.4895 96.8909,40.4895 C96.8909,40.4895 94.6789,43.7335 90.1079,41.6695 C90.1079,41.6695 88.9289,37.5415 88.7809,34.1505 C88.6339,30.7595 91.2879,27.0735 91.8779,26.9265"/>
    <path fill="#8F959B" d="M79.5332,23.6858 C79.5332,23.6858 71.6292,28.9558 70.8052,30.7668 C69.9822,32.5778 69.6532,37.6828 71.1362,41.1408 C72.6172,44.5988 71.6292,57.1138 72.1232,59.5838 C72.6172,62.0538 79.2042,63.0418 83.3212,62.3828 C87.4372,61.7248 93.6952,58.9248 93.6952,54.1498 C93.6952,49.3738 92.8722,40.4818 93.2012,38.3418 C93.5302,36.2008 93.4232,30.7938 92.5432,27.1438 C92.3562,26.3738 89.8132,25.4888 89.8132,25.4888 C89.8132,25.4888 87.1602,23.6088 79.5332,23.6858"/>
    <path fill="#D0A083" d="M70.7949,33.8923 C70.7949,33.8923 66.0409,43.1803 67.5889,50.5883 C68.9149,53.2423 75.2179,52.1373 78.0929,50.1463 C78.3149,50.0363 80.0829,50.6993 80.9679,48.8193 L81.2999,48.4883 C81.2999,48.4883 83.2899,48.1563 83.7329,47.3823 C84.0639,46.6083 82.2949,44.9493 81.0779,45.0603 C79.8619,45.1703 77.7619,47.6033 77.7619,47.6033 C77.7619,47.6033 72.7849,48.3773 71.3479,47.8243 C71.3479,47.2713 73.8919,38.5363 75.1069,36.4353 C76.3239,34.3343 76.7659,32.5653 74.9969,31.6813 C73.2279,30.7963 71.7899,31.9023 70.7949,33.8923"/>
    <path fill="#575B5E" d="M72.2881,29.1198 C72.2881,29.1198 67.1091,32.0868 66.3721,44.6178 C66.3721,45.3548 71.2371,48.0088 74.3341,45.0598 C75.3651,40.7848 75.8081,38.2788 76.6921,36.3618 C77.5771,34.4448 78.0191,32.8238 76.1021,30.9068 C74.1861,28.9908 73.0441,28.5118 72.2881,29.1198"/>
    <path fill="#D0A083" d="M86.2852,22.862 C86.2852,22.862 86.2622,22.958 86.2802,23.112 C86.3472,23.68 86.5812,25.137 86.6142,25.744 C86.6462,26.325 85.9562,27.308 84.3912,27.226 C82.8272,27.144 80.1922,26.403 79.3692,24.509 C79.4512,24.179 79.4512,20.721 79.2862,18.992 L86.2852,22.862 Z"/>
    <path fill="#E6B698" d="M77.2285,18.7043 C78.4375,22.3783 81.7975,23.6443 83.6505,24.2623 C85.5025,24.8793 87.7255,24.6323 88.9605,23.3973 C90.1965,22.1623 91.3075,16.6043 90.5665,11.7883 C89.8255,6.9713 86.1205,4.1313 81.7975,4.9953 C77.4755,5.8603 73.8935,8.5773 77.2285,18.7043"/>
    <path fill="#855F4C" d="M78.8672,5.4753 C78.8672,5.4753 81.4102,1.7163 86.1652,4.0383 C90.9192,6.3603 91.3612,8.3503 93.4632,8.0183 C93.3512,8.7923 93.1312,11.5573 88.4862,12.1093 C83.8432,12.6623 80.3042,10.7833 80.3042,10.7833 C80.3042,10.7833 81.1892,11.8883 81.1892,14.1003 C81.1892,16.3113 80.6362,16.3113 80.6362,16.3113 C80.6362,16.3113 79.9722,13.3263 78.8672,13.5473 C77.7622,13.7683 77.7622,16.5323 78.6452,17.5273 C79.5302,18.5223 80.0832,18.0803 80.0832,18.0803 C80.0832,18.0803 80.0382,18.6883 79.2862,18.9923 C78.5352,19.2973 78.2032,18.7443 78.2032,18.7443 C78.2032,18.7443 78.8672,19.8503 79.5302,20.1813 C79.5302,20.5133 78.4252,20.5133 78.4252,20.5133 C78.4252,20.5133 79.3092,21.6193 79.7522,21.8403 C79.5302,22.0613 77.9822,22.2823 76.4342,20.0713 C74.8872,17.8593 74.1122,15.4273 74.4442,12.2203 C74.7752,9.0143 75.9922,8.1293 75.9922,8.1293 C75.9922,8.1293 76.4342,5.8073 78.8672,5.4753"/>
    <path fill="#9B9B9B" d="M258.668,132.278 C265.83,136.413 265.868,143.115 258.753,147.25 C251.642,151.382 240.066,151.385 232.905,147.25 C225.743,143.115 225.71,136.411 232.82,132.278 C239.936,128.143 251.507,128.143 258.668,132.278"/>
    <path fill="#575B5E" d="M252.7227 135.2346C252.7227 135.2346 252.8457 137.0876 251.1167 138.9396 249.3877 140.7926 248.2767 142.8916 249.1407 144.4976 250.0047 146.1026 253.8337 145.6086 255.3157 144.3736 256.7977 143.1386 256.5507 141.9036 257.9097 140.1746 259.2677 138.4456 259.5147 137.4576 259.0207 135.6056 258.5267 133.7526 254.9457 134.2466 252.7227 135.2346M239.7539 131.5295C239.7539 131.5295 239.5079 133.3825 237.6549 134.7405 235.8029 136.0985 234.8149 137.4575 235.0619 139.5575 235.3089 141.6565 238.7669 141.4095 240.4949 140.5455 242.2249 139.6805 241.8539 138.8165 243.0889 137.4575 244.3239 136.0985 245.1889 135.9755 245.4359 134.4935 245.6829 133.0115 245.3119 131.4055 244.5709 131.1585 243.8299 130.9115 242.2249 129.8005 239.7539 131.5295"/>
    <path fill="#616568" d="M238.7666,91.7614 C238.7666,91.7614 239.1776,126.0954 239.6716,132.1884 C239.8366,133.6704 243.4586,135.1524 244.9416,133.0114 C246.4236,130.2124 245.5176,101.4764 247.3296,96.2074 C246.8346,92.4204 240.5786,91.1024 238.7666,91.7614"/>
    <path fill="#6E7276" d="M239.0957 93.0788C239.2517 93.6518 241.2367 98.6778 246.5057 101.6418 250.9517 103.9468 251.6107 107.8988 251.9407 111.3568 252.2697 114.8148 252.2697 135.3988 252.5987 136.0578 252.9277 136.7168 255.7277 139.3508 259.1857 136.0578 259.5147 126.5068 259.6797 95.5488 259.0207 91.5968 258.3627 87.6448 238.6017 91.2668 239.0957 93.0788M239.6689 63.55C239.6689 63.55 236.1309 71.733 234.5829 78.588 233.9189 79.694 228.3909 78.146 225.0729 76.819 225.0729 76.819 222.1979 78.146 223.7469 81.684 224.8529 82.569 233.2559 85.444 236.5729 85.665 236.5729 85.665 241.8809 79.251 243.8709 69.3 244.7549 63.771 242.3219 62.002 239.6689 63.55"/>
    <path fill="#E6B698" d="M260.876,99.2126 C260.876,99.2126 260.464,101.3536 260.464,102.5886 C260.464,103.8236 261.699,102.6706 261.699,102.6706 C261.699,102.6706 262.028,105.8816 262.687,106.3766 C263.346,106.8696 264.91,105.7996 265.239,103.2476 C265.568,100.6946 264.745,97.8136 263.593,97.2366 C262.439,96.6606 260.876,99.2126 260.876,99.2126"/>
    <path fill="#6E7276" d="M252.2695,60.3093 C252.2695,60.3093 260.1735,65.5793 260.9975,67.3903 C261.8205,69.2013 262.1495,74.3063 260.6675,77.7643 C259.1855,81.2223 260.1735,93.7373 259.6795,96.2073 C259.1855,98.6773 252.5985,99.6653 248.4815,99.0073 C244.3655,98.3483 238.7845,97.6643 238.7845,92.8883 C238.7845,88.1133 238.9305,77.1053 238.6015,74.9653 C238.2725,72.8243 238.4265,67.9673 239.3365,64.3243 C239.7485,62.6773 244.6445,60.0123 252.2695,60.3093"/>
    <path fill="#6E7276" d="M259.5146,65.7434 C259.5146,65.7434 264.9496,69.8604 265.4436,87.6444 C265.4436,98.0184 265.2786,99.3364 265.2786,99.3364 C265.2786,99.3364 262.1496,102.3004 260.5026,99.1714 C260.5026,95.3844 261.1606,85.0104 259.5146,78.4234 C257.8686,71.8364 256.5506,71.1774 256.5506,71.1774 C256.5506,71.1774 255.5626,66.2374 259.5146,65.7434"/>
    <path fill="#D0A083" d="M224.9258,77.7033 C224.9258,77.7033 223.0098,74.3123 221.9778,73.5753 C221.2398,73.5753 221.6828,76.5243 221.6828,76.5243 C221.6828,76.5243 216.6698,73.7233 216.5228,74.3123 C216.3748,74.9023 219.6178,77.1133 219.6178,77.1133 C219.6178,77.1133 215.3428,76.0813 215.6378,76.6713 C215.9328,77.2613 219.6178,78.5883 219.6178,78.5883 C219.6178,78.5883 216.6698,78.1453 216.5228,78.8833 C216.3748,79.6203 220.3558,79.7673 220.3558,79.7673 C220.3558,79.7673 217.5548,80.7993 218.1448,81.2413 C218.7348,81.6833 220.6508,80.9473 220.6508,80.9473 C220.6508,80.9473 222.8628,81.8313 224.3358,81.3893 C225.8108,80.9473 225.8108,79.0303 224.9258,77.7033"/>
    <path fill="#D0D8E7" d="M243.6494,61.4494 C243.6494,61.4494 242.4694,73.4284 245.7134,81.6834 C245.7134,81.6834 252.9374,65.6144 255.0024,62.2234 C253.9694,61.3384 251.8694,59.7174 250.2474,59.2744 C248.6254,58.8324 243.6494,61.4494 243.6494,61.4494"/>
    <polygon fill="#B22350" points="246.377 65.282 245.492 66.83 246.819 68.157 248.035 66.719 247.372 65.392"/>
    <path fill="#B22350" d="M246.1924,67.4201 L244.4234,77.1501 C244.4234,77.1501 244.7924,80.5781 245.7134,81.6841 C246.8564,80.7991 248.7364,75.6021 248.7364,75.6021 L247.0774,67.1991 L246.1924,67.4201 Z"/>
    <path fill="#575A5D" d="M245.7139 81.6838C245.7139 81.6838 252.9749 64.6558 255.0019 62.2238 255.8129 63.7708 255.8129 72.5068 255.8129 72.5068L250.6149 74.3858 251.6099 76.5978 245.7139 81.6838zM243.6494 61.4494C243.6494 61.4494 240.7744 66.7564 240.2214 71.6214L242.6544 73.1704 241.6594 75.1604C241.6594 75.1604 243.3544 79.9144 245.7134 81.6834 244.6444 77.5934 243.0964 65.4294 243.6494 61.4494"/>
    <path fill="#575B5E" d="M245.9717 84.8352C245.9717 85.1102 245.7487 85.3332 245.4737 85.3332 245.1997 85.3332 244.9767 85.1102 244.9767 84.8352 244.9767 84.5602 245.1997 84.3372 245.4737 84.3372 245.7487 84.3372 245.9717 84.5602 245.9717 84.8352M245.6396 91.4143C245.6396 91.6893 245.4166 91.9123 245.1426 91.9123 244.8676 91.9123 244.6446 91.6893 244.6446 91.4143 244.6446 91.1393 244.8676 90.9163 245.1426 90.9163 245.4166 90.9163 245.6396 91.1393 245.6396 91.4143"/>
    <path fill="#D0A083" d="M245.5176,59.4861 C245.5176,59.4861 245.5406,59.5811 245.5236,59.7351 C245.4556,60.3031 245.2216,61.7611 245.1886,62.3681 C245.1576,62.9491 245.8476,63.9321 247.4116,63.8501 C248.9756,63.7671 251.6106,63.0271 252.4336,61.1321 C252.3516,60.8031 252.3516,57.3451 252.5166,55.6161 L245.5176,59.4861 Z"/>
    <path fill="#E6B698" d="M254.5752,55.3279 C253.3652,59.0019 250.0052,60.2679 248.1522,60.8859 C246.3002,61.5029 244.0772,61.2559 242.8422,60.0209 C241.6062,58.7859 240.4952,53.2289 241.2362,48.4119 C241.9772,43.5959 245.6822,40.7549 250.0052,41.6199 C254.3282,42.4839 257.9092,45.2009 254.5752,55.3279"/>
    <path fill="#575A5D" d="M251.5,47.2961 C251.5,47.2961 247.299,51.2761 240.996,49.9501 C240.996,49.9501 240.554,37.7871 253.27,42.0991 C253.27,42.0991 256.145,43.3151 256.808,46.3011 C257.471,49.2861 255.536,55.0361 253.988,56.5841 C253.878,55.9761 253.602,55.5331 253.49,53.9301 C253.602,53.7641 255.038,52.7141 254.651,50.7791 C254.265,48.8441 253.048,50.1711 252.993,51.6081 C252.827,51.7741 252.606,52.4381 252.606,52.4381 L252.385,51.0001 C252.385,51.0001 250.892,50.0601 251.5,47.2961"/>
    <path fill="#616568" d="M240.2588,96.427 C240.2588,96.427 244.9768,100.555 259.2778,98.344 C259.2778,97.901 259.4248,96.869 259.4248,96.869 C259.4248,96.869 247.6298,99.523 240.2588,96.427"/>
    <path fill="#9B9B9B" d="M210.3154,133.8064 C217.4774,137.9414 217.5144,144.6434 210.3994,148.7784 C203.2894,152.9104 191.7134,152.9134 184.5514,148.7784 C177.3894,144.6434 177.3564,137.9384 184.4664,133.8064 C191.5834,129.6714 203.1534,129.6714 210.3154,133.8064"/>
    <path fill="#575B5E" d="M203.7461,135.0237 C203.7461,135.0237 203.7191,136.5787 205.1331,137.6517 C206.5471,138.7247 211.1161,140.4407 209.9071,142.0127 C210.1231,142.8837 207.1601,142.8177 205.1581,141.7907 C203.1561,140.7627 202.1601,139.3607 201.4251,139.4187 C200.6901,139.4747 200.3961,139.4977 200.0571,138.9327 C199.7171,138.3677 200.4371,134.3187 200.4371,134.3187 C200.4371,134.3187 203.3451,135.5727 203.7461,135.0237"/>
    <path fill="#D0A083" d="M206.5937,91.967 C206.5937,92.631 206.3727,101.255 205.9307,110.322 C205.4887,119.389 205.0457,122.927 205.0457,122.927 C205.0457,122.927 204.1607,133.542 203.7187,135.091 C203.2767,136.638 201.2857,135.975 200.6227,135.091 C200.1807,133.763 201.2857,122.043 200.1807,114.524 C199.0747,107.005 197.3057,100.592 196.8637,97.496 C196.4207,94.4 206.5937,91.967 206.5937,91.967"/>
    <path fill="#575B5E" d="M191.1143,136.6384 C191.1143,136.6384 190.6723,138.6284 192.8833,140.6184 C195.0943,142.6094 197.3053,143.4934 197.7483,144.8204 C198.1903,146.1474 194.6523,146.8114 192.2193,145.2634 C189.7873,143.7154 188.9023,141.7244 188.2393,141.7244 C187.5753,141.7244 188.2393,141.9464 187.5753,141.7244 C187.5753,141.7244 186.5433,141.4304 186.3223,140.6924 C186.2493,139.7344 187.0593,136.2694 187.0593,136.2694 C187.0593,136.2694 190.9673,136.8594 191.1143,136.6384"/>
    <path fill="#D0A083" d="M205.9307,95.2844 C205.7747,95.8574 204.9137,100.2054 199.6447,103.1694 C195.1987,105.4754 194.8917,109.4794 194.2107,112.8854 C193.6997,115.4434 189.3997,126.8414 191.0397,137.2284 C191.1557,137.9554 190.4227,140.8794 186.9647,137.5864 C186.6357,128.0344 186.4707,97.0764 187.1297,93.1244 C187.7877,89.1724 206.4247,93.4724 205.9307,95.2844"/>
    <path fill="#575B5E" d="M186.6904,91.7458 C186.6904,91.7458 184.2574,97.4958 185.1424,103.4668 C186.0274,109.4378 185.3644,112.7548 185.3644,112.7548 C185.3644,112.7548 191.5554,116.7358 196.6424,114.3028 C201.7284,111.8708 206.3734,111.4278 207.0364,108.9958 C207.6994,104.1298 208.3634,93.9568 205.9304,90.4188 C203.4984,86.8808 203.0554,95.7268 186.6904,91.7458"/>
    <path fill="#D0A083" d="M205.3408,63.3659 C205.3408,63.3659 208.2888,64.3979 209.6158,67.6409 C210.9438,70.8849 209.4688,77.2239 209.4688,77.2239 C209.4688,77.2239 211.3858,72.8019 214.1868,70.5899 C216.9868,68.3789 217.2818,67.4939 217.2818,67.4939 C217.2818,67.4939 217.2818,65.1349 218.0198,64.3979 C218.4618,64.5449 218.6098,66.6089 218.6098,66.6089 C218.6098,66.6089 220.5268,64.6929 221.8528,64.6929 C223.0318,64.9879 221.7048,68.0839 220.5268,69.1159 C219.3468,70.1479 217.8718,70.1479 217.8718,70.1479 C217.8718,70.1479 213.7438,76.4869 212.8598,78.1089 C211.9748,79.7309 209.1738,81.2049 207.6988,81.3519 C206.2258,81.4999 204.1608,68.5259 205.3408,63.3659"/>
    <path fill="url(#ci-segmentation-svg-c)" d="M193.8809,61.8376 C193.8809,61.8376 185.9769,67.1066 185.1529,68.9186 C184.3299,70.7296 183.8979,75.9526 186.4699,78.6986 C192.5429,85.1816 183.8149,88.3366 185.5849,97.4216 C186.0679,99.8946 193.5519,101.1936 197.6689,100.5346 C201.7849,99.8766 206.8159,97.8486 206.8159,93.0726 C206.8159,88.2976 203.5089,83.8376 207.6989,78.0346 C210.5739,74.0546 206.5939,70.5166 206.8909,65.2956 C206.9859,63.6006 204.0909,62.4966 204.0909,62.4966 C204.0909,62.4966 201.1269,60.3556 193.8809,61.8376"/>
    <path fill="#D0D8E7" d="M198.8535,66.3142 C198.8535,66.3142 198.4115,72.7282 199.2955,76.0442 C200.1805,76.7082 201.2865,75.3812 201.5075,74.4972 L201.7285,73.3912 C201.7285,73.3912 204.6035,75.1602 204.6035,74.0542 C204.6035,72.9492 199.9595,66.3142 199.9595,66.3142 L198.8535,66.3142 Z"/>
    <path fill="#D0A083" d="M185.1533,68.9182 C185.1533,68.9182 182.0473,73.1702 185.3643,77.5932 C188.6813,82.0162 193.3253,84.8902 194.8733,85.3332 C196.4213,85.7752 204.6033,84.4482 207.0363,81.3522 C207.4783,81.5732 209.2483,80.9102 209.4683,80.0252 C209.6893,79.1412 207.6993,78.0352 206.3733,78.4772 C205.0463,78.9192 204.6033,80.0252 204.6033,80.0252 C204.6033,80.0252 197.7483,80.6892 196.2003,80.6892 C194.6523,80.6892 190.4503,74.4972 190.0073,72.5062 C189.5653,70.5162 187.3763,68.2052 185.1533,68.9182"/>
    <path fill="#B28771" d="M200.6328,61.0139 C200.6328,61.0139 200.6098,61.1099 200.6278,61.2629 C200.6948,61.8319 200.9288,63.2889 200.9618,63.8959 C200.9938,64.4769 200.3038,65.4599 198.7388,65.3779 C197.1748,65.2959 194.5398,64.5549 193.7168,62.6609 C193.7988,62.3309 193.7988,58.8729 193.6338,57.1439 L200.6328,61.0139 Z"/>
    <path fill="#D0A083" d="M191.5762,56.8562 C192.7852,60.5302 196.1452,61.7962 197.9982,62.4142 C199.8502,63.0312 202.0732,62.7842 203.3082,61.5492 C204.5442,60.3142 205.6552,54.7562 204.9142,49.9402 C204.1732,45.1232 200.4682,42.2832 196.1452,43.1472 C191.8232,44.0122 188.2412,46.7292 191.5762,56.8562"/>
    <path fill="#855F4C" d="M194.4307,47.2961 C194.4307,47.2961 195.5367,49.9501 198.6327,50.6131 C201.7287,51.2761 204.1607,50.8341 205.4887,52.8241 C205.2667,50.6131 205.9307,45.0851 200.8437,43.0941 C195.7577,41.1041 193.3257,43.7571 193.3257,43.7571 C193.3257,43.7571 189.5657,44.4211 189.3447,47.5171 C189.1227,50.6131 188.6817,53.9301 190.2297,57.2471 C191.7777,60.5651 190.4507,62.3341 189.3447,62.9971 C189.3447,63.6611 192.6617,66.0931 194.8727,63.8821 C197.0847,61.6711 195.9787,56.3631 195.3157,55.0361 C194.6527,53.7091 194.4307,47.2961 194.4307,47.2961"/>
    <path fill="#D0A083" d="M49.8633,117.5578 C49.8633,117.5578 48.7523,120.6458 49.6163,121.6338 C50.1103,121.8808 50.4803,121.0158 50.4803,121.0158 C50.4803,121.0158 50.8513,123.7328 51.4683,124.4748 C52.0863,125.2148 53.9383,123.2388 53.9383,120.6458 C53.9383,118.0518 51.9633,115.4578 49.8633,117.5578"/>
    <path fill="url(#ci-segmentation-svg-c)" d="M53.2803,85.9001 C53.2803,85.9001 51.3043,90.3461 50.6453,96.7681 C49.9873,103.1911 48.9993,117.5171 48.9993,117.5171 C48.9993,117.5171 50.9743,119.6571 53.4453,117.3521 C53.4453,117.3521 54.7623,104.5081 55.5863,98.9091 C56.4093,93.3101 58.7153,90.6751 57.5613,88.2051 C56.4093,85.7351 53.7743,84.9121 53.2803,85.9001"/>
    <path fill="#9B9B9B" d="M72.3565,155.2341 C79.5185,159.3691 79.5565,166.0711 72.4415,170.2061 C65.3305,174.3381 53.7545,174.3411 46.5925,170.2071 C39.4315,166.0711 39.3985,159.3671 46.5085,155.2341 C53.6245,151.0991 65.1955,151.0991 72.3565,155.2341"/>
    <path fill="#90969C" d="M66.4102 158.1902C66.4102 158.1902 66.5342 160.0432 64.8052 161.8952 63.0762 163.7482 61.9652 165.8472 62.8292 167.4532 63.6932 169.0582 67.5222 168.5652 69.0042 167.3302 70.4862 166.0942 70.2392 164.8602 71.5972 163.1302 72.9562 161.4012 73.2032 160.4142 72.7092 158.5612 72.2152 156.7092 68.6342 157.2032 66.4102 158.1902M53.4424 154.4856C53.4424 154.4856 53.1954 156.3376 51.3424 157.6956 49.4904 159.0556 48.5034 160.4136 48.7504 162.5136 48.9974 164.6126 52.4554 164.3656 54.1834 163.5006 55.9134 162.6366 55.5424 161.7726 56.7774 160.4136 58.0124 159.0556 58.8774 158.9316 59.1244 157.4486 59.3714 155.9676 59.0004 154.3616 58.2594 154.1146 57.5184 153.8676 55.9134 152.7566 53.4424 154.4856"/>
    <path fill="#464A4D" d="M52.4551,114.7175 C52.4551,114.7175 52.8661,149.0505 53.3601,155.1445 C53.5251,156.6255 57.1471,158.1085 58.6301,155.9675 C60.1121,153.1685 59.2061,124.4325 61.0181,119.1635 C60.5231,115.3765 54.2671,114.0585 52.4551,114.7175"/>
    <path fill="#575B5E" d="M52.7842,116.0349 C52.9402,116.6079 54.9252,121.6339 60.1942,124.5979 C64.6402,126.9029 65.2992,130.8549 65.6292,134.3129 C65.9582,137.7709 65.9582,158.3549 66.2872,159.0139 C66.6162,159.6729 69.4162,162.3069 72.8742,159.0139 C73.2032,149.4629 73.3682,118.5049 72.7092,114.5529 C72.0512,110.6009 52.2902,114.2229 52.7842,116.0349"/>
    <path fill="#E6B698" d="M74.5635,122.1687 C74.5635,122.1687 74.1525,124.3097 74.1525,125.5447 C74.1525,126.7797 75.3875,125.6267 75.3875,125.6267 C75.3875,125.6267 75.7165,128.8377 76.3755,129.3317 C77.0345,129.8257 78.5985,128.7557 78.9275,126.2037 C79.2565,123.6507 78.4335,120.7697 77.2815,120.1927 C76.1275,119.6167 74.5635,122.1687 74.5635,122.1687"/>
    <path fill="url(#ci-segmentation-svg-c)" d="M74.8535806,90.7808656 C76.4962322,93.4852235 78.817313,99.2680681 79.1321,110.6004 C79.1321,120.9744 78.9671,122.2924 78.9671,122.2924 C78.9671,122.2924 75.8381,125.2564 74.1911,122.1274 C74.1911,118.804168 74.6978067,110.408478 73.7096022,103.950724 C73.2257374,109.024551 73.75748,117.216 73.368,119.1634 C72.874,121.6334 66.287,122.6214 62.17,121.9634 C58.054,121.3044 51.796,118.5044 51.796,113.7294 C51.796,108.9534 52.619,100.0614 52.29,97.9214 C51.961,95.7804 52.038,90.3664 52.949,86.7234 C53.36,85.0774 55.748,83.9244 55.748,83.9244 C55.748,83.9244 58.712,81.7834 65.958,83.2654 C65.958,83.2654 73.862,88.5354 74.686,90.3464 C74.7445153,90.475162 74.8005332,90.6205758 74.8535806,90.7808656 Z"/>
    <path fill="#D0A083" d="M59.2061,82.4421 C59.2061,82.4421 59.2291,82.5371 59.2111,82.6911 C59.1441,83.2591 58.9101,84.7171 58.8771,85.3231 C58.8461,85.9051 59.5351,86.8881 61.1001,86.8061 C62.6641,86.7231 65.2991,85.9821 66.1221,84.0881 C66.0401,83.7591 66.0401,80.3011 66.2051,78.5721 L59.2061,82.4421 Z"/>
    <path fill="#E6B698" d="M68.2627,78.2839 C67.0537,81.9579 63.6937,83.2239 61.8407,83.8419 C59.9887,84.4589 57.7657,84.2119 56.5307,82.9769 C55.2947,81.7419 54.1837,76.1839 54.9247,71.3679 C55.6657,66.5509 59.3707,63.7109 63.6937,64.5749 C68.0167,65.4399 71.5977,68.1569 68.2627,78.2839"/>
    <path fill="#855F4C" d="M57.7803,71.4353 C57.7803,71.4353 54.9053,72.9833 53.5783,69.6663 C52.2523,66.3493 55.1273,66.3493 55.1273,66.3493 C55.1273,66.3493 54.2423,63.9163 56.2323,62.3683 C58.2223,60.8203 61.0973,62.3683 61.0973,62.3683 C61.0973,62.3683 62.8663,59.2723 65.9633,61.2633 C69.0583,63.2533 68.8383,65.2433 68.8383,65.2433 C68.8383,65.2433 71.2703,64.5803 72.1543,67.6763 C73.0393,70.7713 70.8283,72.0993 70.8283,72.0993 C70.8283,72.0993 72.1543,72.0993 71.7133,74.5313 C71.2703,76.9643 68.8383,78.9543 67.9533,78.9543 C67.0683,78.9543 66.8473,76.9643 66.8473,76.9643 C66.8473,76.9643 68.6163,76.5213 68.6163,74.3103 C68.6163,72.0993 66.1833,74.0893 66.1833,74.0893 C66.1833,74.0893 63.5303,75.4153 63.3083,72.9833 L63.0883,70.5513 C63.0883,70.5513 61.3183,75.4153 57.7803,71.4353"/>
    <path fill="#9B9B9B" d="M76.208,246.3064 C83.37,250.4414 83.407,257.1434 76.292,261.2794 C69.182,265.4104 57.606,265.4134 50.444,261.2794 C43.282,257.1434 43.249,250.4394 50.36,246.3064 C57.476,242.1714 69.046,242.1714 76.208,246.3064"/>
    <path fill="#575B5E" d="M39.1807,244.1257 C39.1807,244.1257 37.7057,243.3887 36.3797,241.9147 C35.0527,240.4397 32.6937,238.0817 30.9247,239.1127 C29.1557,240.1457 29.1557,242.6517 29.8927,243.9787 C30.6297,245.3057 33.5777,246.7797 34.9057,248.4007 C36.2327,250.0227 37.8537,251.9397 39.6227,251.6457 C41.3927,251.3507 42.5717,249.1387 43.3087,247.6647 C44.0457,246.1897 39.1807,244.1257 39.1807,244.1257"/>
    <path fill="#D0D8E7" d="M76.6279,211.3962 C76.6279,211.3962 77.2179,226.7292 78.9859,231.1522 C78.9859,231.1522 91.9609,226.1392 92.8449,227.0242 C93.7299,227.9092 96.0889,229.9722 94.0239,232.9212 C94.0239,232.9212 78.1029,241.4722 73.9739,239.9982 C69.8459,238.5242 66.3079,216.1142 65.7179,214.3452 C65.1279,212.5762 73.3849,209.0382 76.6279,211.3962"/>
    <path fill="#D0D8E7" d="M55.6846,213.4362 C55.6846,213.4362 41.6866,238.5242 38.4436,244.4202 C38.4436,244.4202 38.1486,247.6652 41.6866,248.5482 C45.2256,249.4332 61.2946,223.7812 63.9496,222.3062 C66.6026,220.8322 74.5636,218.7682 76.0386,210.2172 C72.7946,207.2682 55.6846,213.4362 55.6846,213.4362"/>
    <path fill="#575B5E" d="M92.5137,226.6921 C92.5137,226.6921 89.9337,226.6921 90.1547,230.6731 C90.3757,234.6541 92.3667,234.4321 93.0297,235.9801 C93.6927,237.5291 94.1347,241.0671 97.4517,242.6151 C100.7697,244.1631 102.0967,241.9521 102.3177,240.1821 C102.5377,238.4131 98.9997,233.7691 98.1157,231.3371 C97.2317,228.9041 95.5357,225.3661 92.5137,226.6921"/>
    <path fill="#737676" d="M93.582,226.2497 C93.582,226.2497 92.034,226.9137 92.366,228.7937 C92.697,230.6737 93.361,233.1047 95.13,234.7647 C96.899,236.4227 96.789,239.7397 98.447,240.9567 C100.106,242.1727 101.543,242.0627 102.207,240.4027 C102.87,238.7447 100.327,235.4277 99.222,233.6587 C98.115,231.8897 97.12,226.3607 93.582,226.2497"/>
    <path fill="#D0A083" d="M74.0039,179.6784 C74.0039,179.6784 79.2079,183.9584 78.3229,191.2564 C77.4389,198.5544 68.3719,191.9194 68.1499,187.0544 C67.9299,182.1894 72.5609,178.7154 74.0039,179.6784"/>
    <path fill="#8F959B" d="M64.4531,178.5261 C64.4531,178.5261 57.5371,180.5021 54.8201,184.8661 C53.7681,186.5541 53.6681,191.7821 55.1491,195.2401 C56.6321,198.6981 55.1901,210.9651 55.6841,213.4361 C56.1791,215.9061 63.2191,217.1411 67.3351,216.4821 C71.4521,215.8241 77.8561,213.0221 77.7101,208.2491 C77.2941,194.7081 77.2941,188.0611 76.7211,184.8661 C76.1691,181.7861 74.0041,179.6781 74.0041,179.6781 C74.0041,179.6781 71.6991,177.0441 64.4531,178.5261"/>
    <path fill="#D0A083" d="M71.9102 214.9353C73.0902 209.9223 70.1402 197.2443 69.2562 195.4743 68.3722 193.7053 60.4342 183.3973 54.8202 184.8663 54.8202 184.8663 51.2692 189.8723 54.5142 193.4103 57.1672 195.7693 61.8852 198.7173 63.3592 200.7823 64.8332 202.8453 67.4782 214.1973 67.3352 217.3673 67.3352 217.3673 67.3882 217.4073 67.4802 217.4663 66.9822 218.2543 66.0522 219.8073 66.1602 220.2433 66.3072 220.8313 66.1602 222.8963 67.1922 223.7813 68.2242 224.6653 69.5512 223.1913 69.6982 222.0113 69.8462 220.8313 69.9932 219.9483 69.9932 219.9483 69.9932 219.9483 72.3522 218.4733 72.2052 216.9983 72.0572 215.5253 71.9102 214.9353 71.9102 214.9353M68.4463 158.3952C68.4463 158.3952 64.6183 157.2832 61.4073 159.2592 58.1963 161.2352 57.7023 163.4582 57.8253 166.5452 57.9493 169.6332 57.7023 174.2032 59.3073 177.6612 60.9133 181.1192 67.8293 178.2792 69.9283 176.9202 72.0283 175.5612 74.2513 170.1272 74.0043 165.9282 73.7573 161.7292 72.2753 159.1352 68.4463 158.3952"/>
    <path fill="#D0A083" d="M71.3692,175.1218 C71.3692,175.1218 69.7542,178.3518 69.7542,179.5268 C69.7542,180.7018 67.2572,182.1708 64.0262,181.5838 C60.7952,180.9958 60.5012,180.2618 60.5012,180.2618 C60.5012,180.2618 62.1172,177.9118 62.5572,176.0028 C62.9982,174.0938 71.3692,175.1218 71.3692,175.1218"/>
    <path fill="#474B4D" d="M57.8252,166.5456 C57.8252,166.5456 56.4292,157.3636 63.0642,156.4796 C69.6982,155.5946 73.9002,156.9216 75.4482,162.0076 C76.9962,167.0946 73.6792,172.6226 72.1312,174.6126 C72.1312,174.6126 67.0452,174.6126 64.6122,170.6326 C62.6222,167.7576 61.2952,165.1046 61.2952,165.1046 L57.8252,166.5456 Z"/>
    <path fill="#8F959B" d="M57.4619,163.7771 C57.4619,163.7771 65.7179,169.8211 75.3009,168.3471 C75.5959,166.8731 75.8909,165.8401 75.8909,165.8401 C75.8909,165.8401 60.9999,163.6301 58.3469,160.8281 C57.4619,162.0071 57.4619,163.7771 57.4619,163.7771"/>
    <path fill="#9B9B9B" d="M272.0059,204.657 C279.1679,208.792 279.2059,215.494 272.0909,219.629 C264.9799,223.761 253.4039,223.764 246.2419,219.629 C239.0809,215.494 239.0479,208.79 246.1579,204.657 C253.2739,200.522 264.8449,200.522 272.0059,204.657"/>
    <path fill="#64493D" d="M266.0596 207.613C266.0596 207.613 266.1836 209.466 264.4546 211.318 262.7256 213.171 261.6146 215.27 262.4786 216.876 263.3426 218.481 267.1716 217.987 268.6536 216.753 270.1356 215.517 269.8886 214.282 271.2466 212.553 272.6056 210.824 272.8526 209.837 272.3586 207.984 271.8646 206.132 268.2836 206.625 266.0596 207.613M253.0918 203.9079C253.0918 203.9079 252.8448 205.7609 250.9918 207.1189 249.1398 208.4769 248.1528 209.8369 248.3998 211.9349 248.6468 214.0349 252.1048 213.7879 253.8328 212.9239 255.5628 212.0589 255.1918 211.1949 256.4268 209.8369 257.6618 208.4769 258.5268 208.3539 258.7738 206.8719 259.0208 205.3899 258.6498 203.7849 257.9088 203.5379 257.1678 203.2909 255.5628 202.1789 253.0918 203.9079"/>
    <path fill="#464A4D" d="M252.1045,164.1404 C252.1045,164.1404 252.5155,198.4744 253.0095,204.5674 C253.1745,206.0484 256.7965,207.5314 258.2795,205.3904 C259.7615,202.5904 258.8555,173.8554 260.6675,168.5864 C260.1725,164.7984 253.9165,163.4814 252.1045,164.1404"/>
    <path fill="#575B5E" d="M252.4336,165.4577 C252.5896,166.0297 254.5746,171.0567 259.8436,174.0207 C264.2896,176.3257 264.9486,180.2777 265.2786,183.7357 C265.6076,187.1937 265.6076,207.7777 265.9366,208.4367 C266.2656,209.0957 269.0656,211.7297 272.5236,208.4367 C272.8526,198.8857 273.0176,167.9277 272.3586,163.9757 C271.7006,160.0227 251.9396,163.6457 252.4336,165.4577"/>
    <path fill="url(#ci-segmentation-svg-c)" d="M252.8965,135.3957 C252.8965,135.3957 249.3585,144.2417 247.8095,151.0967 C247.1465,152.2027 241.6185,150.6547 238.3005,149.3277 C238.3005,149.3277 235.4255,150.6547 236.9735,154.1927 C238.0805,155.0777 246.4835,157.9527 249.7995,158.1737 C249.7995,158.1737 255.1075,151.7607 257.0975,141.8087 C257.9825,136.2807 255.5495,133.8477 252.8965,135.3957"/>
    <path fill="#E6B698" d="M238.4111,150.5813 C238.4111,150.5813 236.9371,147.3373 235.7581,147.0423 C234.5781,146.7483 235.3151,148.9593 235.3151,148.9593 C235.3151,148.9593 230.8921,150.4343 230.7451,152.0553 C230.5981,153.6773 233.6931,154.1193 234.7251,154.2673 C235.7581,154.4143 239.2961,153.5293 238.4111,150.5813"/>
    <path fill="url(#ci-segmentation-svg-c)" d="M274.335308,139.768998 C275.982161,140.826495 285.29389,154.415007 283.524,157.7308 C282.025173,160.543644 276.552017,163.991806 273.168571,164.168054 C273.180414,166.200824 273.16557,167.845352 273.0174,168.5862 C272.5234,171.0562 265.9364,172.0442 261.8194,171.3852 C257.7034,170.7272 251.4454,167.9272 251.4454,163.1522 C251.4454,158.3762 252.2684,149.4842 251.9394,147.3432 C251.6104,145.2032 251.6874,139.7892 252.5984,136.1462 C253.0094,134.4992 255.3974,133.3472 255.3974,133.3472 C255.3974,133.3472 258.3614,131.2062 265.6074,132.6882 C265.6074,132.6882 273.510812,137.956808 274.335308,139.768998 Z M273.695359,151.136209 C273.278273,152.929853 273.164017,155.782104 273.144282,158.686098 C274.878234,158.077124 276.772129,157.146688 276.891,155.9628 C276.670056,154.418684 275.184232,152.599453 273.695359,151.136209 Z"/>
    <path fill="#E6B698" d="M271.1406,161.196 C271.1406,161.196 269.9606,159.132 269.2236,158.838 C268.4876,158.543 268.9296,160.459 268.9296,160.459 L267.1606,159.426 C267.1606,159.426 264.9486,159.574 265.0956,160.164 C265.2436,160.754 266.1276,163.26 267.4546,163.997 C268.7826,164.734 272.0256,165.029 272.4676,163.997 C272.9106,162.966 271.1406,161.196 271.1406,161.196"/>
    <path fill="#D0A083" d="M258.8555,131.8645 C258.8555,131.8645 258.8785,131.9605 258.8605,132.1135 C258.7935,132.6825 258.5595,134.1395 258.5265,134.7465 C258.4955,135.3275 259.1845,136.3105 260.7495,136.2285 C262.3135,136.1465 264.9485,135.4055 265.7715,133.5115 C265.6895,133.1815 265.6895,129.7235 265.8545,127.9945 L258.8555,131.8645 Z"/>
    <path fill="#E6B698" d="M267.9121,127.7068 C266.7031,131.3808 263.3431,132.6468 261.4901,133.2648 C259.6381,133.8818 257.4151,133.6348 256.1801,132.3998 C254.9441,131.1648 253.8331,125.6068 254.5741,120.7908 C255.3151,115.9738 259.0201,113.1338 263.3431,113.9978 C267.6661,114.8628 271.2471,117.5798 267.9121,127.7068"/>
    <path fill="#855F4C" d="M257.0977,131.1941 C255.7717,131.1941 255.6607,130.4201 255.6607,130.4201 C255.6607,130.4201 256.1027,129.6461 256.2137,128.8721 C256.2137,128.8721 257.3197,128.5401 258.3147,129.0931 C259.3097,129.6461 259.8627,130.8621 259.8627,130.8621 C259.8627,130.8621 258.4247,131.1941 257.0977,131.1941 M265.6127,114.6081 C260.0827,112.4701 256.2497,114.3131 255.2187,118.4421 C255.2187,118.4421 257.8717,120.8001 260.5257,119.4731 C263.1797,118.1471 265.5377,117.5571 266.2757,118.7361 C267.0127,119.9161 265.6127,124.0071 265.6127,124.0071 C265.6127,124.0071 265.5017,126.9921 263.8427,128.5401 C262.1847,130.0891 260.5257,126.8821 258.5347,126.6611 C256.5447,126.4401 254.7767,126.9921 254.7767,128.2091 C254.7767,129.4251 254.8867,131.3051 255.6607,132.6311 C256.4347,133.9581 258.5847,134.3401 261.8227,133.3751 C265.0597,132.4101 266.9387,130.0891 267.4927,128.7611 C267.0497,128.5401 265.8747,128.1131 265.9647,127.4421 C266.0547,126.7711 266.4967,124.5601 266.7177,124.0071 C266.7177,124.0071 267.0127,123.0121 268.1927,123.4541 L268.8557,123.9701 C268.8557,123.9701 271.1407,116.7461 265.6127,114.6081"/>
    <path fill="#9B9B9B" d="M223.6221,232.9421 C230.7841,237.0781 230.8211,243.7801 223.7061,247.9151 C216.5961,252.0461 205.0201,252.0491 197.8581,247.9151 C190.6961,243.7801 190.6631,237.0751 197.7741,232.9431 C204.8901,228.8071 216.4601,228.8071 223.6221,232.9421"/>
    <path fill="#65493C" d="M213.8506 240.5945C213.8506 240.5945 213.6946 243.8765 214.0066 244.7375 214.3206 245.5965 217.0556 246.7685 219.0096 246.0655 220.9626 245.3625 222.1356 244.3455 222.7606 243.4075 223.3866 242.4705 225.5896 241.3375 226.1216 240.2825 226.9446 238.6475 225.3396 237.3115 223.9336 236.9985 222.5266 236.6865 220.8066 237.0765 219.4786 238.3275 218.1496 239.5775 213.8506 240.5945 213.8506 240.5945M198.876 236.1794C198.876 236.1794 198.72 239.4614 199.032 240.3214 199.345 241.1814 202.081 242.3534 204.034 241.6504 205.988 240.9474 207.161 239.9304 207.786 238.9924 208.411 238.0544 210.615 236.9224 211.147 235.8664 211.97 234.2324 210.365 232.8964 208.959 232.5834 207.552 232.2714 205.832 232.6614 204.504 233.9114 203.175 235.1624 198.876 236.1794 198.876 236.1794"/>
    <path fill="#464A4D" d="M198.6211,194.5154 C198.6211,194.5154 198.1681,199.2084 199.1561,204.2724 C200.1441,209.3354 199.1971,233.2954 198.8681,236.4244 C198.8681,236.4244 201.6671,239.8824 205.6191,236.4244 C205.6191,227.2034 207.9251,211.2294 206.7721,201.1844 C205.6191,191.1394 198.6211,194.5154 198.6211,194.5154"/>
    <path fill="#575B5E" d="M198.9092,195.9978 C199.0652,196.5698 199.6502,201.9258 207.7602,205.1368 C212.2062,207.4418 212.8642,211.3938 213.1942,214.8518 C213.5232,218.3098 213.5232,240.5408 213.8522,241.1998 C214.1812,241.8578 216.9812,244.4928 220.4392,241.1998 C220.7682,231.6488 220.9332,199.0438 220.2752,195.0918 C219.6162,191.1398 198.4152,194.1858 198.9092,195.9978"/>
    <path fill="#E6B698" d="M233.3047,177.1189 C233.3047,177.1189 234.4097,175.4599 234.8527,175.1289 C235.2947,174.7969 238.5017,174.1339 238.6127,174.6859 C238.7227,175.2389 236.9537,176.0129 236.9537,176.0129 C236.9537,176.0129 240.3817,176.7869 241.0447,177.7819 C241.7077,178.7769 237.8377,179.3299 236.8427,179.3299 C235.8477,179.3299 234.7417,179.9939 234.7417,179.9939 C234.7417,179.9939 232.1997,179.3299 233.3047,177.1189"/>
    <path fill="#8F959B" d="M211.877,164.7927 C211.877,164.7927 218.793,166.7687 221.51,171.1327 C222.562,172.8207 222.663,178.0487 221.181,181.5067 C219.698,184.9647 221.14,197.2327 220.646,199.7027 C220.151,202.1727 213.111,203.4077 208.995,202.7487 C204.878,202.0907 198.474,199.2887 198.621,194.5157 C199.037,180.9747 199.037,174.3287 199.609,171.1327 C200.161,168.0527 202.326,165.9447 202.326,165.9447 C202.326,165.9447 204.632,163.3107 211.877,164.7927"/>
    <path fill="#8F959B" d="M220.3203,170.6804 C220.3203,170.6804 222.6793,171.7814 223.3083,175.2404 C223.9373,178.7004 226.4533,184.0454 226.4533,184.0454 L232.6243,176.4984 C232.6243,176.4984 235.2983,177.1664 235.4553,180.1544 C235.4553,180.1544 229.0083,190.7674 226.0203,191.7104 C223.0333,192.6544 217.3333,179.9574 216.3893,177.2844 C215.4463,174.6114 217.4903,169.4224 220.3203,170.6804"/>
    <path fill="#F0D3C3" d="M207.8838,144.6613 C207.8838,144.6613 211.7118,143.5503 214.9238,145.5263 C218.1348,147.5023 218.6288,149.7253 218.5048,152.8123 C218.3508,156.6783 218.3798,161.0043 217.0228,163.9283 C215.4168,167.3863 208.5008,164.5453 206.4018,163.1873 C204.3018,161.8283 202.0788,156.3943 202.3258,152.1953 C202.5728,147.9963 204.0548,145.4023 207.8838,144.6613"/>
    <path fill="#F0D3C3" d="M204.9609,161.3884 C204.9609,161.3884 206.5759,164.6184 206.5759,165.7934 C206.5759,166.9694 209.0729,168.4384 212.3039,167.8504 C215.5349,167.2624 215.8289,166.5284 215.8289,166.5284 C215.8289,166.5284 214.2139,164.1784 213.7729,162.2694 C213.3319,160.3604 204.9609,161.3884 204.9609,161.3884"/>
    <path fill="#D69D59" d="M214.6182,142.9519 C214.6182,142.9519 215.7232,143.3939 217.9352,144.4999 L220.1462,145.6049 L218.3782,147.1539 C218.3782,147.1539 220.1462,148.0379 220.5892,149.5859 C220.8102,150.4709 219.0412,150.0289 219.0412,150.0289 C219.0412,150.0289 219.2632,150.6919 219.2632,152.4609 C219.2632,154.2299 217.7142,152.4609 215.5032,152.0189 C216.1662,152.4609 216.3882,154.2299 216.3882,154.2299 C216.3882,154.2299 213.0702,153.7879 211.5222,153.3459 C211.9652,154.0089 212.6282,157.1049 212.6282,157.1049 C212.6282,157.1049 210.6382,154.6729 210.1952,156.2209 C209.7532,157.7679 210.8582,160.4229 212.1852,160.2009 L213.0702,159.9799 C213.0702,159.9799 212.6282,161.9709 211.0802,162.8539 C209.5322,163.7389 206.6572,164.1809 206.6572,164.1809 C206.6572,164.1809 202.4552,159.7589 202.0132,158.8739 C201.5702,157.9899 200.0222,154.8929 200.0222,151.7979 C200.0222,148.7019 202.2342,146.2689 202.2342,146.2689 C202.2342,146.2689 202.4552,145.1629 203.3402,143.8359 C204.2242,142.5099 208.2052,142.9519 208.8682,142.7309 C209.5322,142.5099 211.9652,140.7409 211.9652,140.7409 L212.1852,142.9519 L215.5032,141.6249 L214.6182,142.9519 Z"/>
    <g transform="translate(264 237.112)">
      <mask id="ci-segmentation-svg-e" fill="#fff">
        <use xlink:href="#ci-segmentation-svg-d"/>
      </mask>
      <path fill="#9B9B9B" d="M31.7793,3.9629 C38.9413,8.0979 38.9783,14.7999 31.8633,18.9349 C24.7533,23.0669 13.1773,23.0699 6.0153,18.9349 C-1.1467,14.7999 -1.1797,8.0959 5.9313,3.9629 C13.0473,-0.1721 24.6173,-0.1721 31.7793,3.9629" mask="url(#ci-segmentation-svg-e)"/>
    </g>
    <path fill="#474B4D" d="M282.0508 249.0954C282.0508 249.0954 282.2068 252.3784 281.8948 253.2384 281.5818 254.0974 278.8468 255.2704 276.8928 254.5674 274.9388 253.8634 273.7658 252.8474 273.1408 251.9094 272.5158 250.9714 270.3118 249.8394 269.7798 248.7834 268.9568 247.1494 270.5618 245.8134 271.9678 245.5004 273.3748 245.1884 275.0948 245.5784 276.4228 246.8284 277.7518 248.0794 282.0508 249.0954 282.0508 249.0954M297.0254 244.6804C297.0254 244.6804 297.1814 247.9634 296.8694 248.8234 296.5564 249.6824 293.8214 250.8554 291.8674 250.1514 289.9134 249.4484 288.7404 248.4324 288.1154 247.4934 287.4904 246.5564 285.2864 245.4244 284.7544 244.3684 283.9314 242.7334 285.5364 241.3984 286.9434 241.0844 288.3494 240.7724 290.0694 241.1624 291.3984 242.4134 292.7264 243.6644 297.0254 244.6804 297.0254 244.6804"/>
    <path fill="#474B4D" d="M297.2812,203.0173 C297.2812,203.0173 297.7332,207.7103 296.7452,212.7743 C295.7582,217.8373 296.7042,241.7963 297.0342,244.9253 C297.0342,244.9253 294.2342,248.3833 290.2822,244.9253 C290.2822,235.7043 287.9762,219.7313 289.1302,209.6863 C290.2822,199.6413 297.2812,203.0173 297.2812,203.0173"/>
    <path fill="#474B4D" d="M296.9922,204.4987 C296.8362,205.0717 296.2522,210.4277 288.1412,213.6387 C283.6952,215.9437 283.0372,219.8957 282.7082,223.3537 C282.3782,226.8117 282.3782,249.0427 282.0492,249.7007 C281.7202,250.3597 278.9202,252.9947 275.4622,249.7007 C275.1332,240.1497 274.9682,207.5457 275.6272,203.5937 C276.2852,199.6417 297.4862,202.6877 296.9922,204.4987"/>
    <path fill="#D0A083" d="M293.5752,174.447 C293.5752,174.447 298.7792,178.727 297.8942,186.025 C297.0102,193.323 287.9432,186.688 287.7212,181.823 C287.5012,176.958 292.1322,173.483 293.5752,174.447"/>
    <path fill="#8F959B" d="M284.0244,173.2937 C284.0244,173.2937 277.1084,175.2707 274.3914,179.6337 C273.3394,181.3227 273.2394,186.5507 274.7204,190.0087 C276.2034,193.4667 274.7614,205.7337 275.2554,208.2037 C275.7504,210.6747 282.7904,211.9087 286.9064,211.2507 C291.0234,210.5917 297.4274,207.7907 297.2814,203.0177 C296.8654,189.4767 296.8654,182.8297 296.2924,179.6337 C295.7414,176.5547 293.5754,174.4467 293.5754,174.4467 C293.5754,174.4467 291.2704,171.8127 284.0244,173.2937"/>
    <path fill="#D0A083" d="M274.4531 179.612C274.4531 179.612 265.3871 191.996 268.7031 196.861 272.0201 201.726 276.6651 193.323 278.4331 190.006 280.2031 186.688 281.5301 181.602 278.6551 180.275 275.7801 178.948 274.4531 179.612 274.4531 179.612M288.0176 153.1628C288.0176 153.1628 284.1896 152.0518 280.9786 154.0278 277.7676 156.0038 277.2736 158.2258 277.3966 161.3138 277.5206 164.4018 277.2736 168.9718 278.8786 172.4298 280.4846 175.8878 287.4006 173.0468 289.4996 171.6878 291.5996 170.3298 293.8226 164.8958 293.5756 160.6968 293.3296 156.4978 291.8466 153.9038 288.0176 153.1628"/>
    <path fill="#D0A083" d="M290.9404,169.8894 C290.9404,169.8894 289.3254,173.1204 289.3254,174.2954 C289.3254,175.4704 286.8284,176.9394 283.5974,176.3524 C280.3664,175.7644 280.0724,175.0304 280.0724,175.0304 C280.0724,175.0304 281.6884,172.6804 282.1284,170.7714 C282.5694,168.8614 290.9404,169.8894 290.9404,169.8894"/>
    <path fill="#D0D8E7" d="M277.3281,159.7087 C277.3281,159.7087 278.2131,161.4777 281.0881,159.7087 C283.2991,160.3717 283.2991,161.4777 283.0781,163.2467 C282.8561,165.0167 284.4051,162.3617 285.5111,163.6887 C286.6161,165.0167 286.3951,166.5637 284.6261,167.6697 C282.8561,168.7747 284.8471,170.9867 284.8471,170.9867 C284.8471,170.9867 288.1641,173.4197 290.3761,170.9867 C292.5871,168.5547 296.1251,163.0257 293.4721,156.6127 C290.8181,150.1997 278.2131,149.0937 277.3281,159.7087"/>
    <path fill="#9B9B9B" d="M146.8174,302.3288 C153.9794,306.4638 154.0164,313.1658 146.9014,317.3008 C139.7914,321.4328 128.2154,321.4358 121.0534,317.3018 C113.8914,313.1658 113.8584,306.4618 120.9684,302.3288 C128.0854,298.1938 139.6554,298.1938 146.8174,302.3288"/>
    <path fill="#575B5E" d="M137.0459 309.9802C137.0459 309.9802 136.8899 313.2632 137.2019 314.1232 137.5149 314.9832 140.2509 316.1552 142.2049 315.4522 144.1579 314.7482 145.3309 313.7322 145.9559 312.7942 146.5809 311.8562 148.7849 310.7242 149.3169 309.6682 150.1399 308.0342 148.5349 306.6982 147.1289 306.3852 145.7219 306.0732 144.0019 306.4632 142.6739 307.7132 141.3449 308.9642 137.0459 309.9802 137.0459 309.9802M122.0713 305.5652C122.0713 305.5652 121.9153 308.8482 122.2273 309.7082 122.5403 310.5672 125.2753 311.7402 127.2293 311.0372 129.1833 310.3332 130.3563 309.3172 130.9813 308.3782 131.6063 307.4412 133.8103 306.3092 134.3423 305.2532 135.1653 303.6192 133.5603 302.2832 132.1543 301.9702 130.7473 301.6572 129.0273 302.0482 127.6993 303.2982 126.3703 304.5492 122.0713 305.5652 122.0713 305.5652"/>
    <path fill="#D0D8E7" d="M121.8164,263.9021 C121.8164,263.9021 121.3634,268.5951 122.3514,273.6591 C123.3384,278.7221 122.3924,302.6821 122.0634,305.8101 C122.0634,305.8101 124.8624,309.2681 128.8144,305.8101 C128.8144,296.5891 131.1204,280.6161 129.9674,270.5711 C128.8144,260.5261 121.8164,263.9021 121.8164,263.9021"/>
    <path fill="#D0D8E7" d="M122.1045,265.3835 C122.2605,265.9565 122.8455,271.3125 130.9555,274.5235 C135.4015,276.8285 136.0595,280.7805 136.3895,284.2385 C136.7185,287.6965 136.7185,309.9275 137.0475,310.5855 C137.3765,311.2445 140.1765,313.8795 143.6345,310.5855 C143.9635,301.0345 144.1285,268.4305 143.4695,264.4785 C142.8115,260.5265 121.6105,263.5725 122.1045,265.3835"/>
    <path fill="#D0A083" d="M158.748,238.2282 C158.748,238.2282 156.39,234.8362 157.274,234.8362 C158.158,234.8362 159.043,235.9432 159.043,235.9432 C159.043,235.9432 157.495,230.8562 158.158,231.0782 C158.822,231.2982 160.812,231.5202 162.582,233.2892 C164.351,235.0582 162.803,240.5862 161.697,241.0292 C160.591,241.4712 158.748,238.2282 158.748,238.2282"/>
    <path fill="#8F959B" d="M135.0723,234.1784 C135.0723,234.1784 141.9883,236.1554 144.7053,240.5184 C145.7573,242.2074 145.8573,247.4354 144.3763,250.8934 C142.8933,254.3514 144.3353,266.6184 143.8413,269.0884 C143.3463,271.5594 136.3063,272.7934 132.1903,272.1354 C128.0733,271.4764 121.6693,268.6754 121.8163,263.9024 C122.2313,250.3614 122.2313,243.7144 122.8043,240.5184 C123.3563,237.4394 125.5213,235.3314 125.5213,235.3314 C125.5213,235.3314 127.8263,232.6974 135.0723,234.1784"/>
    <path fill="#D0D8E7" d="M143.1211,239.407 C143.1211,239.407 137.2241,241.177 138.9931,246.484 C140.7621,251.792 155.8001,250.612 155.8001,250.612 C155.8001,250.612 161.4021,244.125 161.9921,240.292 C162.5821,239.997 159.9281,237.638 158.7481,238.228 C157.5691,238.818 153.4411,245.599 153.4411,245.599 C153.4411,245.599 144.3001,238.818 143.1211,239.407"/>
    <path fill="#D0A083" d="M131.0791,214.0476 C131.0791,214.0476 134.9071,212.9366 138.1181,214.9126 C141.3301,216.8886 141.8231,219.1106 141.7001,222.1986 C141.5761,225.2866 141.8231,229.8566 140.2181,233.3146 C138.6121,236.7726 131.6961,233.9316 129.5971,232.5726 C127.4971,231.2146 125.2741,225.7806 125.5211,221.5816 C125.7681,217.3826 127.2501,214.7886 131.0791,214.0476"/>
    <path fill="#D0A083" d="M128.1562,230.7741 C128.1562,230.7741 129.7712,234.0051 129.7712,235.1801 C129.7712,236.3551 132.2682,237.8241 135.4992,237.2371 C138.7302,236.6491 139.0242,235.9151 139.0242,235.9151 C139.0242,235.9151 137.4082,233.5651 136.9682,231.6561 C136.5272,229.7471 128.1562,230.7741 128.1562,230.7741"/>
    <path fill="#855F4C" d="M142.0146,217.3669 C142.0146,217.3669 143.5636,219.1359 140.6886,222.2319 L137.8136,225.3279 C137.8136,225.3279 137.1506,222.8949 135.8236,223.7799 C134.4956,224.6649 134.9386,228.4239 136.2656,229.0879 C137.3706,229.7509 137.5916,228.6449 137.5916,228.6449 C137.5916,228.6449 136.7076,231.2989 134.9386,232.4039 C133.1686,233.5109 132.6586,233.4059 129.5966,232.5729 C126.5356,231.7409 124.5446,226.4329 124.3236,221.1259 C124.1026,215.8189 127.6406,211.8379 132.2856,212.5019 C136.9286,213.1649 140.2456,215.5969 140.2456,215.5969 L139.5826,213.3869 C139.5826,213.3869 141.1306,213.8279 142.0146,217.3669"/>
  </g>
</svg>
