<svg xmlns="http://www.w3.org/2000/svg" width="155" height="209" viewBox="0 0 155 209">
  <defs>
    <linearGradient id="ci-shopper-ans-a" x1="2.366%" x2="99.404%" y1="50%" y2="50%">
      <stop offset="0%" stop-color="#24C6DC"/>
      <stop offset="100%" stop-color="#514A9D"/>
    </linearGradient>
  </defs>
  <g fill="none" fill-rule="evenodd">
    <path fill="#9B9B9B" d="M147.61137,133.224688 L28.7352595,139.83428 L5,158.86241 C12.3123135,170.914695 20.4876501,182.698677 31.3540881,191.663363 C50.9782969,207.859419 78.9606501,213.255265 103.180563,205.521361 C127.404727,197.787456 147.10546,177.162292 153.750312,152.576483 C156.041787,144.101555 155.756947,132.994715 147.951478,129"/>
    <polygon fill="#78779D" points="106.717 160 127.453 138.488 147 134.267 134.285 48 120.431 63.209 106 62.895"/>
    <polygon fill="url(#ci-shopper-ans-a)" points="27.175 17 107.276 61.751 108 159 20 106.812"/>
    <polygon fill="#313131" points="54.24 0 45.55 13.079 26 17.439 59 36"/>
    <polygon fill="#222" points="134 47.642 83.347 17.478 54 0 54 33.547 105.528 62.687 120.055 63"/>
    <polygon fill="#4F4E9F" points="83.8 6.392 104.442 17.949 104.442 29.303 109 32 109 19.196 104.442 10.938 83.8 0 79 2.172 79 14.25 84.172 17.313"/>
    <polygon fill="#446DAF" points="60.54 23.38 79.852 34.385 79.852 48.083 85 51 85 37.19 81.643 29.355 58.774 16 54 20.235 54 33.448 60.612 37.19"/>
    <polygon fill="#4F4E9F" points="120.796 62.309 128 137.515 106.735 159 106 62"/>
    <polygon fill="#78779D" points="87.717 206 108.453 184.488 128 180.266 115.285 94 101.431 109.205 87 108.891"/>
    <polygon fill="url(#ci-shopper-ans-a)" points="7.175 65 87.276 109.752 88 207 0 154.814"/>
    <polygon fill="#222" points="116 95.642 65.347 65.478 36 48 36 81.547 87.528 110.687 102.055 111"/>
    <polygon fill="#357604" points="64.796 54.392 85.441 65.949 85.441 77.303 90 80 90 67.196 85.441 58.938 64.796 48 60 50.172 60 62.25 65.173 65.313"/>
    <polygon fill="#446DAF" points="42.54 71.379 61.852 82.387 61.852 96.084 67 99 67 85.187 63.643 77.353 40.774 64 36 68.235 36 81.451 42.608 85.192"/>
    <polygon fill="#4F4E9F" points="101.796 109.309 109 184.515 87.735 206 87 109"/>
  </g>
</svg>
