<svg xmlns="http://www.w3.org/2000/svg" width="205" height="256" viewBox="0 0 205 256">
  <g fill="none" fill-rule="evenodd">
    <path fill="#9B9B9B" d="M205,204.5 C205,232.942815 160.900165,256 106.500762,256 C52.1013599,256 8,232.942815 8,204.5 C8,176.057185 52.1013599,153 106.500762,153 C160.900165,153 205,176.057185 205,204.5"/>
    <path fill="#EFC0BE" d="M121.982411,42 C121.982411,42 108.491901,77.2435666 108.033507,78.4962111 C107.578032,79.7473555 111.916718,81 111.916718,81 C111.916718,81 128.667082,60.1880986 128.972191,58.6234181 C129.275841,57.0587375 126.992629,44.6178021 126.992629,44.6178021 L121.982411,42 Z"/>
    <path fill="#3A3079" d="M145.328764 181C145.328764 181 147.072729 185.149715 146.997643 187.565094 146.921141 189.980473 146.049867 190.650237 146.049867 190.650237 146.049867 190.650237 141.159401 192.094106 139.793697 192.170248 138.427993 192.246389 136.161264 194.400913 132.901426 194.626518 129.64017 194.853532 125.467973 195.834912 125.013211 193.26866 124.739786 191.720449 128.749062 190.242738 133.480858 187.057483 136.590526 184.963591 138.882755 181.905238 138.882755 181.905238L145.328764 181zM167.467627 188.134617C167.467627 188.134617 167.197462 190.551812 165.042081 190.417194 162.885216 190.282577 161 188 161 188L161.538845 196.596277C161.538845 196.596277 162.750134 209.488472 166.523535 210.831687 169.226667 211.79176 170.406783 208.41893 170.861016 206.42334 171.046569 205.608239 171.0436 204.763553 170.868438 203.945494L167.467627 188.134617z"/>
    <path fill="#EFC0BE" d="M162.135258,143.164808 C162.135258,143.164808 159.880354,109.258996 160.630944,106.707289 C161.384668,104.154063 162.135258,90.3004182 162.135258,90.3004182 L130.541528,79 L126.583302,82.7789571 C126.583302,82.7789571 126.780743,112.904292 126.027019,117.644696 C125.276429,122.383581 140.413589,182.666149 140.413589,182.666149 C140.413589,182.666149 141.391394,185.337847 144.55202,185.192035 C147.714214,185.044704 147.510504,182.783102 147.510504,182.783102 C147.510504,182.783102 142.577608,139.153463 142.577608,136.967804 C142.577608,134.779107 142.953686,108.165407 142.953686,108.165407 C142.953686,108.165407 147.466629,130.040222 148.97251,139.519511 C150.476824,148.9988 162.885848,188.82518 162.885848,188.82518 C162.885848,188.82518 163.73986,192.547939 166.58552,192.961073 C169.429614,193.375725 170,190.341016 170,190.341016 L162.135258,143.164808 Z"/>
    <path fill="#3A3079" d="M122,115.775578 C122,115.775578 124.189614,132.546583 142.262982,131.986266 C160.333333,131.429029 168,121.366426 168,121.366426 C168,121.366426 160.615329,87.4657524 160.615329,85.2306447 C160.615329,82.9939976 158.691122,85.590848 158.691122,85.590848 L128.737739,80 L125.03711,88.4262946 L122,115.775578 Z"/>
    <path fill="#EFC0BE" d="M146.06839 181L140.5655 181.83672C140.5655 181.83672 138.281095 185.136437 135.183955 187.39558 134.074911 188.204916 133.008197 188.909282 132.024732 189.539104 132.002156 189.642553 131.99369 189.747523 132.004978 189.854015 132.083994 190.622275 132.9701 190.920452 133.686887 190.970655 137.190394 191.215585 140.606419 189.884441 143.901098 188.574594 144.740641 188.239906 145.619693 187.876314 146.193969 187.136958 146.730148 186.449326 146.924865 185.524371 146.984127 184.62832 147.070198 183.354985 146.811986 181.924955 146.06839 181M162.603458 194.543943C163.058475 196.224525 163.514922 197.910931 164.165967 199.523066 164.414938 200.139085 164.771224 200.814812 165.407961 200.969181 165.957414 201.103162 166.5269 200.782773 166.894633 200.347337 167.504183 199.625007 167.691627 198.637629 167.806096 197.693941 168.146643 194.881807 168.037897 192.01579 167.485582 189.238608 167.232318 187.962881 166.722929 186.521134 165.508122 186.108998 164.459295 185.753659 163.346079 186.33327 162.387397 186.896862 161.942397 187.156085 161.35431 187.48958 161.115355 187.981813 160.827751 188.577443 161.148265 189.170161 161.315677 189.781811 161.743507 191.369189 162.174198 192.956566 162.603458 194.543943"/>
    <path fill="#504C9E" d="M147.921039,35.5728565 C147.921039,35.5728565 137.682207,33.1194597 132.731696,34.3409254 C127.779671,35.5623911 126.130005,38.8201313 125.717968,40.4497489 C125.6498,40.71886 124.074362,48.4333801 124.006194,50.9032226 C123.825928,57.6265166 127.640305,65.1122921 127.640305,65.1122921 L125.464989,89.4877835 C125.464989,89.4877835 149.911544,96.2499491 156.060296,93.2179633 C159.424765,91.5554543 161.422844,84.4882961 161.422844,84.4882961 C161.422844,84.4882961 158.646135,70.1641068 158.664313,69.6348548 L162,51.2874535 C161.910624,47.6469775 160.103415,44.2576719 157.111598,42.1257134 L147.921039,35.5728565 Z"/>
    <path fill="#3A3079" d="M135,8.99928972 C135,13.9698524 139.028727,18 144.00071,18 C148.971273,18 153,13.9698524 153,8.99928972 C153,4.02872701 148.971273,0 144.00071,0 C139.028727,0 135,4.02872701 135,8.99928972"/>
    <path fill="#8581C5" d="M157.258765,60.7566581 C157.938063,58.6802254 159.116439,56.6837134 160.951007,55.447203 C162.084712,54.6856935 163.937765,56.5329194 165.240909,56.1076805 C165.841649,55.9086325 165.647564,56.3263317 166.257547,56.1076805 C166.428527,56.4891892 166.855206,53.9377555 167,54.3192642 C164.940539,48.810761 159.577006,43.0413843 155.173118,41.3419364 C150.458076,39.5203455 139.070196,45.5701989 139.070196,45.5701989 C137.833287,48.4533793 153.352412,60.7717375 153.352412,60.7717375 C153.352412,60.7717375 154.680202,62.4968204 156.457778,65 C156.570224,63.5629336 156.805899,62.1424546 157.258765,60.7566581"/>
    <path fill="#B5E7FE" d="M176,113.229 C176.13,113.099 176.2,113 176.2,113 C176.2,113 176.125,113.092 176,113.229"/>
    <path fill="#8581C5" d="M132.748049,34.0485793 C132.748049,34.0485793 127.469544,33.203824 123.950541,38.5596347 C123.284672,39.5736516 122.627108,40.9106632 122,42.4122778 L125.013718,61 L125.099547,60.9658371 C129.26227,52.1083294 133,42.2259348 133,42.2259348 L132.748049,34.0485793 Z"/>
    <path fill="#EFC0BE" d="M143.462628 35.3419644C143.462628 35.3419644 147.589541 36.5479971 147.972815 37.554012 148.357503 38.5585453 144.574263 42.1559006 142.022875 45.6969547 139.055684 49.8173192 135.616118 55 135.616118 55 135.616118 55 132.906329 44.1886731 133.002501 37.6547616 133.098673 31.1193686 143.462628 35.3419644 143.462628 35.3419644M125 18.9992446C125 25.6273843 130.372616 31 136.999245 31 143.627384 31 149 25.6273843 149 18.9992446 149 12.3726157 143.627384 7 136.999245 7 130.372616 7 125 12.3726157 125 18.9992446"/>
    <path fill="#EFC0BE" d="M132,24.8201801 L136.178424,36.3139566 C138.647773,38.2089525 142.137004,38.5367432 144.98031,37.1439845 C145.763764,36.7599207 146.159355,35.9397406 145.939926,35.1547311 L142.826196,24 L132,24.8201801 Z"/>
    <path fill="#3A3079" d="M126.487372,16.4426936 C125.931745,16.2130275 125.357596,15.9212894 125.034192,15.3766081 C125.02137,15.3517793 125.014247,15.323847 125,15.2990182 C126.532962,10.4713732 130.731511,7 135.685144,7 C141.935242,7 147,12.5181953 147,19.3243834 C147,19.87372 146.957259,20.4121941 146.893149,20.9413574 C146.370289,21.0298099 145.851703,21.0220509 145.368735,20.8916998 C144.244657,20.5859955 141.14739,17.6437857 141.990804,16.1478519 C141.57907,16.878749 141.165911,17.6111979 140.755602,18.3436468 C140.063204,17.7012022 139.705608,16.6583936 139.840953,15.6792088 C135.746406,17.9355238 130.775677,18.2210547 126.487372,16.4426936"/>
    <path fill="#EFC0BE" d="M145,18.5 C145,20.4323821 146.56617,22 148.5,22 C150.432382,22 152,20.4323821 152,18.5 C152,16.5676179 150.432382,15 148.5,15 C146.56617,15 145,16.5676179 145,18.5"/>
    <polygon fill="#68C1E0" points="165.587 72.236 145.852 85.817 145 103.327 156.412 109 180 91.351 177.233 72.819 168.976 70"/>
    <path stroke="#3A3079" stroke-linecap="round" d="M163,46 L167,76"/>
    <path fill="#3A3079" d="M66.1266939,192.311624 C65.5772108,196.157568 66.8661725,199.584315 69.0039625,199.965404 C71.1444864,200.346492 73.3246495,197.535584 73.8727658,193.688115 C74.4236158,189.840646 73.1346541,186.413899 70.9954972,186.034335 C68.8563402,185.654771 66.6761771,188.465679 66.1266939,192.311624"/>
    <path fill="#DCDFE7" d="M67.0632296,192.705472 C66.7890173,194.353664 67.431998,195.821068 68.5020566,195.985284 C69.5721152,196.147994 70.661085,194.942735 70.9368733,193.296049 C71.2110856,191.646351 70.566529,190.177441 69.4964704,190.014731 C68.4279877,189.852021 67.337442,191.055774 67.0632296,192.705472"/>
    <path fill="#3A3079" d="M24.1267011,220.311624 C23.5771867,224.157568 24.8662218,227.584315 27.0041338,227.965404 C29.1434127,228.346492 31.3237001,225.535584 31.8732146,221.688115 C32.422729,217.840646 31.1350608,214.413899 28.9957819,214.034335 C26.856503,213.654771 24.6762156,216.465679 24.1267011,220.311624"/>
    <path fill="#DCDFE7" d="M28.0632446,219.705472 C27.7889673,221.353664 28.4321003,222.821068 29.5024124,222.985284 C30.5711481,223.147994 31.6619522,221.942735 31.9362295,220.296049 C32.2120831,218.646351 31.5673738,217.177441 30.4970617,217.014731 C29.428326,216.852021 28.3375219,218.055774 28.0632446,219.705472"/>
    <path fill="#C4C3EF" d="M42.1607856,235 C42.2749849,235 42.3876615,234.975728 42.4942476,234.927184 L118.528153,200.45784 C118.867705,200.304623 119.056515,199.937508 118.98495,199.57191 L117.395295,191.653154 L117.791186,183.333909 L116.184783,183.258059 L115.781278,191.674392 C115.778233,191.739623 115.784324,191.806371 115.798028,191.870086 L117.281096,199.262442 L42.1881934,233.305508 L16.3791478,219.691922 L72.3748795,182.761999 C72.5865289,182.623952 72.7190001,182.39185 72.7342266,182.140028 L73.8381534,163.094054 L72.2317497,163 L71.1506628,181.647002 L14.3616266,219.101808 C14.124092,219.258059 13.9885755,219.526569 14.0007567,219.808731 C14.0159833,220.090894 14.177385,220.34575 14.4286235,220.47773 L41.7846891,234.905946 C41.9019338,234.968143 42.0313597,235 42.1607856,235"/>
    <path fill="#D66556" d="M80.639836,87.1242706 L71.4639291,96.5756086 C70.9879411,97.0647457 70.642587,97.6797518 70.4654054,98.3568959 L67.1440004,110.942216 C66.3226583,114.053892 69.1575646,116.851692 72.0240033,115.758702 L73.4084225,115.229733 C74.4790201,114.82026 75.316879,113.91687 75.6847562,112.776081 L79.6112816,100.62732 C79.7764509,100.112691 80.0392203,99.6410797 80.3830728,99.2395731 L86.0243561,92.6561394 C87.087446,91.4133809 87.3036677,89.600228 86.5649103,88.1168842 C85.3952112,85.773169 82.432674,85.2776589 80.639836,87.1242706"/>
    <path fill="#8581C5" d="M109.072958,182 C112.418319,162.419725 118.797912,125.156673 119,124.280312 L117.943035,124 C117.698784,125.034999 108.395453,179.477189 108,181.793616 L109.072958,182 Z"/>
    <polygon fill="#8581C5" points="94.045 173 103 117.196 101.955 117 93 172.804"/>
    <polygon fill="#8581C5" points="84.062 169 90 111.128 88.938 111 83 168.872"/>
    <path fill="#E37965" d="M82.6397071,87.1243074 L73.4638869,96.5759543 C72.9879034,97.063514 72.6440541,97.6801335 72.4653726,98.3572997 L69.143999,110.941438 C68.3226647,114.054809 71.1575442,116.852701 74.0239558,115.758081 L75.408362,115.229095 C76.4789494,114.821202 77.3168004,113.917783 77.6846741,112.776957 L81.6111624,100.626205 C81.7763301,100.113152 82.039097,99.6399322 82.3829463,99.2400058 L88.0256778,92.6547636 C89.0887577,91.4135578 89.3034758,89.6003457 88.5632239,88.1169534 C87.3950373,85.7731616 84.4325281,85.2776353 82.6397071,87.1243074"/>
    <polygon fill="#8581C5" points="114.325 186 115 184.604 73.675 163 73 164.396"/>
    <path fill="#3A3079" d="M111.126784,210.311624 C110.577275,214.157568 111.86493,217.584315 114.004186,217.965404 C116.143443,218.346492 118.323707,215.535584 118.873216,211.688115 C119.422725,207.842171 118.13507,204.415423 115.995814,204.034335 C113.85519,203.654771 111.674926,206.465679 111.126784,210.311624"/>
    <path fill="#DCDFE7" d="M114.063228,209.704787 C113.789023,211.353322 114.431987,212.82103 115.502018,212.985281 C116.572049,213.148025 117.660991,211.942515 117.936772,210.295487 C118.210977,208.645446 117.568013,207.176231 116.497982,207.014994 C115.427951,206.850743 114.339009,208.054746 114.063228,209.704787"/>
    <path fill="#3A3079" d="M49.1267011,238.31093 C48.5771867,242.157222 49.8662218,245.584278 52.0041338,245.965401 C54.1434127,246.346523 56.3237001,243.535362 56.8732146,239.687546 C57.422729,235.841254 56.1350608,232.414198 53.9957819,232.0346 C51.856503,231.653477 49.6762156,234.464639 49.1267011,238.31093"/>
    <path fill="#DCDFE7" d="M51.0632446,238.704772 C50.7889673,240.354813 51.4321003,241.822522 52.5024124,241.985265 C53.5711481,242.148009 54.6619522,240.944006 54.9362295,239.295471 C55.2120831,237.646937 54.5673738,236.177722 53.4970617,236.014978 C52.428326,235.850727 51.3375219,237.056237 51.0632446,238.704772"/>
    <polygon fill="#8581C5" points="104.235 188 67 168.239 67.765 167 105 186.761"/>
    <polygon fill="#8581C5" points="90.235 194 53 174.239 53.765 173 91 192.761"/>
    <polygon fill="#8581C5" points="78.235 201 41 181.239 41.767 180 79 199.761"/>
    <path fill="#8581C5" d="M44.6238138 178C44.6394266 178 44.6550394 177.998482 44.6706522 177.996963 44.8764573 177.968116 45.0226499 177.769217 44.9971017 177.549062L39.7469427 132.35509C39.7213945 132.133417 39.5326215 131.970958 39.3282358 132.004361 39.1224307 132.033209 38.9762381 132.232107 39.0032057 132.452262L44.2519453 177.649271C44.2760742 177.851206 44.4378795 178 44.6238138 178M57.5248355 170C57.5391768 170 57.5535181 169.998496 57.5678594 169.998496 57.8277953 169.978948 58.0214027 169.786469 57.9980981 169.568427L52.9463784 121.361553C52.9230738 121.14351 52.6846498 120.988625 52.4336772 121.000655 52.1719487 121.020204 51.9801339 121.214186 52.0016458 121.432228L57.0551582 169.637599C57.0766702 169.843611 57.2828262 170 57.5248355 170M18.5897283 192C18.6067557 192 18.6237831 191.998469 18.6423585 191.995406 18.8652629 191.967841 19.0247014 191.765701 18.9968384 191.543653L13.8158591 151.354486C13.7864481 151.130907 13.5774752 150.973176 13.3576667 151.003804 13.1332144 151.0329 12.9753237 151.23504 13.0031868 151.455557L18.1841661 191.646254C18.2104812 191.849926 18.3869472 192 18.5897283 192M69.7492786 163L69.7530627 163C69.8911828 162.996991 70.0018682 162.816453 69.9999761 162.595294L69.4995271 110.391166C69.497635 110.17452 69.3860037 110 69.2497756 110L69.2459915 110C69.1078713 110.003009 68.998132 110.185052 69.0000241 110.404706L69.4995271 162.608834C69.5014191 162.826984 69.6130505 163 69.7492786 163"/>
    <polygon fill="#8581C5" points="66.235 207 29 187.239 29.767 186 67 205.761"/>
    <path fill="#C4C3EF" d="M78.5958564,106.58396 L3.42205845,158.996977 L3.42670378,159 L0,158.797464 C0.0743252514,158.537492 0.204394441,158.295658 0.435112409,158.133931 L77.7566005,104.223055 C78.1204845,103.97064 78.5974049,103.928319 79,104.117252 L78.9643858,106.754756 L78.5958564,106.58396 Z"/>
    <path fill="#8581C5" d="M30.637672,186 C30.6568592,186 30.6760464,185.998458 30.6966042,185.993832 C30.8939584,185.958367 31.0268984,185.750203 30.9953766,185.526619 C30.7500543,183.807335 24.9555139,143.398762 24.7129327,142.308597 C24.6649646,142.091181 24.4676104,141.957031 24.2743676,142.012541 C24.0797544,142.068052 23.9618901,142.288552 24.0112286,142.50751 C24.1989893,143.352503 28.1940425,171.103136 30.2813379,185.656143 C30.3101187,185.856598 30.4636165,186 30.637672,186"/>
    <path fill="#C4C3EF" d="M8.2296661,198 C8.38710119,198 8.54453627,197.969154 8.69425395,197.907461 L75.0022078,166.515199 C75.4312955,166.339375 75.7230135,165.936831 75.7569701,165.47568 L80,105.183535 L77.5582127,105 L73.3753785,164.539495 L9.18199402,195.066519 L3.31985229,160.308927 L1,159.494585 L7.02266378,196.98053 C7.08440302,197.347601 7.30975128,197.665318 7.63542582,197.844226 C7.81910009,197.949104 8.0243831,198 8.2296661,198"/>
    <polygon fill="#C4C3EF" points="42.778 219 44 216.875 8.222 196 7 198.125"/>
    <path fill="#C4C3EF" d="M132.200509,121 L133.354251,120.280734 C135.094565,119.197185 136.082634,117.29206 135.994573,115.186967 C135.908005,113.083424 134.769189,111.272858 132.945292,110.345873 L93.3091119,90.2219262 C88.9508635,88.0098732 83.6612634,88.8547007 80.1463062,92.3223689 C78.2716624,94.1701384 77.0537409,96.6581167 76.7179169,99.3228112 L76,105.042836 L78.3462899,105.360615 L79.0642068,99.6421405 C79.3298809,97.5323969 80.2925762,95.5668166 81.7746792,94.1034823 C84.5791822,91.3380286 88.7956382,90.666817 92.268804,92.4277786 L131.906476,112.554825 C132.937829,113.077223 133.582611,114.101867 133.631865,115.292376 C133.681119,116.482886 133.121413,117.560234 132.137822,118.174091 L130.985572,118.893357 L132.200509,121 Z"/>
    <path fill="#E37965" d="M126.107384,108 C127.183543,108 128.215969,107.451616 128.71422,106.51497 C129.404586,105.209901 128.801687,103.645519 127.363163,103.016365 L98.1428631,90.2589958 C96.7043397,89.632676 94.9784239,90.18106 94.2864957,91.4861291 C93.5945675,92.7911982 94.1990285,94.3555807 95.63599,94.9833175 L124.857852,107.73927 C125.260826,107.916396 125.687229,108 126.107384,108"/>
    <polygon fill="#B5E7FE" points="45 143.492 75.021 162 105 143.494 75 125"/>
    <polygon fill="#B5E7FE" points="45 180.324 45 145 76 162.676 76 198"/>
    <polygon fill="#88D6F2" points="105 180.348 105 145 74 162.674 74.002 198"/>
    <polygon fill="#E37965" points="58 136.395 89.12 153 92 151.489 60.853 135"/>
    <polygon fill="#E37965" points="92 135.587 61.034 154 58 152.269 89.22 134"/>
    <polygon fill="#E37965" points="61 153.739 61 190 58 188.259 58 152"/>
    <polygon fill="#E37965" points="88 154.669 88 191 91 189.334 91 153"/>
    <polygon fill="#3A3079" points="31.277 145.325 56.409 159.502 60 199.936 45.158 209 15 190.408 17.153 146.951 22.891 148.105 26.967 143"/>
    <polygon fill="#EEFBFF" points="55.718 160 51.781 168.38 45 164.091 45.437 211 59 201.66"/>
    <polygon fill="#B5E7FE" points="43.54 164.507 17.07 148 15 191.423 44 210"/>
    <path fill="#3A3079" d="M34.0519241 165.172776C34.2671786 166.273645 35.0890595 167.088595 35.889415 166.992268 36.6897705 166.897471 37.1633305 165.926565 36.9480759 164.825696 36.7328214 163.726355 35.9109405 162.911406 35.110585 163.007732 34.3102295 163.102529 33.8366695 164.071906 34.0519241 165.172776M24.0519241 161.173368C24.2671786 162.273881 25.0910164 163.088566 25.889415 162.992271 26.6897705 162.897505 27.1633305 161.926913 26.9480759 160.8264 26.7328214 159.727416 25.9109405 158.912731 25.110585 159.007497 24.3102295 159.103792 23.8366695 160.072855 24.0519241 161.173368"/>
    <polygon fill="#B5E7FE" points="60 200.581 52.78 198 46 209"/>
    <path fill="#3A3079" d="M31.8996159,175 C32.4508836,175 32.9728121,174.850648 33.4561364,174.551944 C36.473439,172.687864 36.9799258,165.440071 37,165.131505 L36.2294606,165.090644 C36.2248281,165.162502 35.7276063,172.298986 33.0237696,173.968627 C32.4524277,174.320872 31.8347609,174.387094 31.1275323,174.172929 C27.3504994,173.02461 27.5836687,163.60558 27.9913288,160.074676 L27.2238777,160 C27.1605669,160.541048 25.7507423,173.279636 30.8835539,174.842194 C31.2325357,174.947868 31.5722524,175 31.8996159,175"/>
    <polygon fill="#C4C3EF" points="105.545 190 115 141.316 113.455 141 104 189.685"/>
    <polygon fill="#C4C3EF" points="92.672 197 98 151.181 96.327 151 91 196.819"/>
    <polygon fill="#C4C3EF" points="80.795 202 85 158.142 83.205 158 79 201.858"/>
    <polygon fill="#C4C3EF" points="67.75 207 68 166.022 67.25 166 67 206.977"/>
    <polygon fill="#C4C3EF" points="53.999 211 56 210.967 54.999 173 53 173.033"/>
    <path fill="#C4C3EF" d="M.088 159C.051 159.066.02 159.136 0 159.21.021 159.134.046 159.066.088 159M.076447429 159.686908L3.4370461 159.893173 3.43097181 159.890095 40.5266358 181.377049 128.189211 131.220811 77.1560983 106.512122 77.5175183 106.686062 77.5524454 104 91.3592973 110.685138 131.31595 130.027861C131.71989 130.223351 131.984121 130.632802 131.999307 131.088432 132.014493 131.542523 131.779114 131.967367 131.388841 132.192103L41.1143229 183.841453C40.9305758 183.947664 40.7270872 184 40.5220801 184 40.3170729 184 40.1105472 183.946125 39.9252815 183.838375L.606428873 161.064573C.249564577 160.858308.021778856 160.481182.000518855352 160.067113-.00555543054 159.933195.0430388566 159.811591.076447429 159.686908"/>
    <polygon fill="#E37965" points="36.769 179.199 38 210 11.332 195.599 6 162"/>
    <path fill="#C4C3EF" d="M43.0246541,220 C43.192348,220 43.3615665,219.966124 43.5185889,219.893752 L117.226165,186.533573 C117.561553,186.382671 117.808521,186.087026 117.901515,185.729788 L132,131.620547 L129.662957,131 L115.712347,184.544127 L44.0933217,216.957318 L41.4086945,182.882662 L39,183.07514 L41.8187824,218.877472 C41.8507967,219.270126 42.0703233,219.627364 42.4087601,219.82908 C42.5977969,219.943027 42.809701,220 43.0246541,220"/>
    <path fill="#D66556" d="M134.639137,111.124307 L125.464472,120.574361 C124.986969,121.063514 124.643107,121.67854 124.464419,122.3573 L121.144422,134.941438 C120.321555,138.054809 123.158043,140.852701 126.024562,139.758081 L127.409021,139.229095 C128.478147,138.819609 129.31603,137.917783 129.683917,136.776957 L133.610553,124.626205 C133.777229,124.111559 134.040006,123.639932 134.382366,123.240006 L140.025311,116.654764 C141.08843,115.413558 141.303157,113.598752 140.564378,112.116953 C139.394646,109.773162 136.432025,109.277635 134.639137,111.124307"/>
    <path fill="#E37965" d="M137.639998,112.123701 L128.463982,121.575195 C127.987989,122.06434 127.644132,122.679356 127.465447,123.356512 L124.144002,135.94204 C123.32265,139.055361 126.15759,141.851614 129.024063,140.758605 L130.41,140.229628 C131.477608,139.820148 132.316978,138.916743 132.68486,137.775936 L136.60993,125.626973 C136.776603,125.112335 137.040877,124.640717 137.383232,124.239203 L143.026084,117.655661 C144.087685,116.412882 144.303909,114.599699 143.563642,113.117924 C142.39543,110.77417 139.432858,110.277058 137.639998,112.123701"/>
    <polygon fill="#C4C3EF" points="56 121.496 76.515 133 97 121.497 76.499 110"/>
    <polygon fill="#3A3079" points="56 144.328 56 121 76 132.672 76 156"/>
    <polygon fill="#8581C5" points="96 144.344 96 121 76 132.671 76 156"/>
    <polygon fill="#E37965" points="65 116.007 84.222 128 86 126.909 66.762 115"/>
    <polygon fill="#E37965" points="86 115.033 66.873 127 65 125.875 84.281 114"/>
    <polygon fill="#E37965" points="66 126.098 66 149 65 147.902 65 125"/>
    <polygon fill="#E37965" points="86 128.053 86 151 87 149.947 87 127"/>
    <path fill="#EFC0BE" d="M95,93.9993185 C95,96.2088942 96.7900477,98 99.0013633,98 C101.209952,98 103,96.2088942 103,93.9993185 C103,91.7911058 101.209952,90 99.0013633,90 C96.7900477,90 95,91.7911058 95,93.9993185"/>
    <path fill="#EFC0BE" d="M112.162548,66 C112.162548,66 107.442693,71.9763155 106.465914,74.7071836 C105.487644,77.4396157 98,91.6100994 98,91.6100994 L100.767789,94 C100.767789,94 113.626971,81.8784493 116.232211,76.4151491 C117.477418,73.8015864 119,68.5619484 119,68.5619484 C119,68.5619484 117.371538,67.3669981 116.883894,67.1965144 C116.396251,67.0244665 112.162548,66 112.162548,66"/>
    <path stroke="#3A3079" stroke-linecap="round" d="M153 55L156 86M153.033977 55C153.033977 55 152.26736 45.8793746 158.016989 45.0938662 160.456364 44.7597994 162.28398 45.3015293 163 46.9748729"/>
    <polygon fill="#B5E7FE" points="156 89.081 177.271 73 180 91.951 156.724 110"/>
    <polygon fill="#EEFBFF" points="145.823 87 155.293 89.706 156 110 145 104.372"/>
    <path fill="#8581C5" d="M157.334636,45.8921 L158.964933,45 C160.940289,46.3312641 162.409932,46.7275829 163.414374,49.0182753 L164.541752,51.5905224 L164.972028,52.7519355 C164.972028,52.7519355 165.33385,55.0870033 163.454887,59.3700013 C161.578718,63.651469 158.955154,61.4173936 158.955154,61.4173936 L156.137408,59.2843107 L154,53.9959789 L157.334636,45.8921 Z"/>
    <path fill="#EFC0BE" d="M118,105.000682 C118,107.208894 119.790048,109 122,109 C124.209952,109 126,107.208894 126,105.000682 C126,102.791106 124.209952,101 122,101 C119.790048,101 118,102.791106 118,105.000682"/>
    <path fill="#EFC0BE" d="M124.799175,105.999964 C124.799175,105.999964 143.358659,89.2664238 144.659348,88.9996572 C145.956956,88.7313749 160.509576,65.7515557 164.057192,60.7542294 C164.061815,60.7481665 164.064897,60.7421036 164.06952,60.7360407 C164.924832,59.5280125 165.165243,58.0047147 164.89401,56.5587185 C164.581166,54.9126475 163.833732,52.6936345 161.277045,51.459839 C159.275154,50.4943259 156.809392,51.2264183 154.738151,52.0342966 C153.355783,52.572377 145.144795,73.7045345 142.444786,76.8178218 C135.247842,85.1148689 124.395406,98.1379285 121.271593,103.50509 C119.7983,106.039373 124.799175,105.999964 124.799175,105.999964"/>
  </g>
</svg>
