
<svg width="60px" height="61px" viewBox="0 0 60 61" version="1.1" xmlns="http://www.w3.org/2000/svg" xmlns:xlink="http://www.w3.org/1999/xlink">
    <!-- Generator: Sketch 47.1 (45422) - http://www.bohemiancoding.com/sketch -->
    <desc>Created with Sketch.</desc>
    <defs>
        <polygon id="path-1" points="53.8961039 0.00468509985 0 0.00468509985 0 58.0952381 53.8961039 58.0952381"></polygon>
        <linearGradient x1="2.36567283%" y1="50%" x2="99.4040976%" y2="50%" id="linearGradient-3">
            <stop stop-color="#24C6DC" offset="0%"></stop>
            <stop stop-color="#514A9D" offset="100%"></stop>
        </linearGradient>
    </defs>
    <g id="Page-1" stroke="none" stroke-width="1" fill="none" fill-rule="evenodd">
        <g id="2.0-ConsumerInsights_CopyNotReady" transform="translate(-247.000000, -1557.000000)">
            <g id="Group-14" transform="translate(247.000000, 1557.000000)">
                <g id="shopping-bag" transform="translate(2.142857, 1.952381)">
                    <g id="Group-3" transform="translate(0.909091, 0.000000)">
                        <mask id="mask-2" fill="white">
                            <use xlink:href="#path-1"></use>
                        </mask>
                        <g id="Clip-2"></g>
                        <path d="M51.8231768,54.8962519 L48.7137862,52.085192 L48.7137862,29.984639 L51.8231768,29.984639 L51.8231768,54.8962519 Z M41.4585415,56.2211982 L2.07292707,56.2211982 L2.07292707,29.984639 L8.43059441,29.984639 L7.29773976,33.4684793 L9.28567682,33.9969585 L10.5916209,29.984639 L34.919493,29.984639 L34.2198801,33.5696774 L36.2606768,33.8957604 L37.023514,29.984639 L41.4585415,29.984639 L41.4585415,56.2211982 Z M13.9528721,19.6511828 L16.2932068,28.1105991 L11.2010614,28.1105991 L13.9528721,19.6511828 Z M18.1381119,21.5514593 C18.9216783,21.5514593 19.6482393,21.3256375 20.2421329,20.9423963 C20.8826673,21.8700461 22.0238137,22.4884793 23.3204296,22.4884793 C24.3351274,22.4884793 25.2523976,22.1108602 25.9115884,21.5017972 C26.5707792,22.1108602 27.4880495,22.4884793 28.5027473,22.4884793 C29.2863137,22.4884793 30.0128746,22.2626575 30.6067682,21.8794163 C31.2473027,22.8070661 32.3884491,23.4254992 33.6850649,23.4254992 C34.7837163,23.4254992 35.757992,22.9719816 36.4244381,22.2720276 L35.2843282,28.1105991 L18.4283217,28.1105991 L16.51501,21.1888326 C17.0052572,21.4127803 17.5514735,21.5514593 18.1381119,21.5514593 Z M46.6408591,52.085192 L43.5314685,54.8962519 L43.5314685,29.984639 L46.6408591,29.984639 L46.6408591,52.085192 Z M47.6773227,53.7980645 L50.3576174,56.2211982 L44.997028,56.2211982 L47.6773227,53.7980645 Z M39.0176698,19.7692473 L42.0938936,28.1105991 L37.3893856,28.1105991 L39.0176698,19.7692473 Z M43.5314685,13.1182796 L43.5314685,10.8741167 C43.5314685,8.44442396 42.1965035,6.1890169 39.9608516,4.84158218 C38.30251,3.84365591 37.3126873,2.17107527 37.3126873,0.370122888 L37.3126873,0 L35.2397602,0 L35.2397602,0.370122888 C35.2397602,2.79981567 36.5747253,5.05522273 38.8103771,6.40265745 C40.4687188,7.40058372 41.4585415,9.07316436 41.4585415,10.8741167 L41.4585415,13.1182796 C41.4585415,14.6681106 40.0634615,15.9293395 38.3491508,15.9293395 L37.3126873,15.9293395 L37.3126873,11.2442396 L35.2397602,11.2442396 L35.2397602,20.1459293 C35.2397602,20.9208449 34.5422203,21.5514593 33.6850649,21.5514593 C32.8279096,21.5514593 32.1303696,20.9208449 32.1303696,20.1459293 L32.1303696,17.8033794 L30.0574426,17.8033794 L30.0574426,19.2089094 C30.0574426,19.9838249 29.3599026,20.6144393 28.5027473,20.6144393 C27.6455919,20.6144393 26.9480519,19.9838249 26.9480519,19.2089094 L26.9480519,17.8033794 L24.8751249,17.8033794 L24.8751249,19.2089094 C24.8751249,19.9838249 24.1775849,20.6144393 23.3204296,20.6144393 C22.4632742,20.6144393 21.7657343,19.9838249 21.7657343,19.2089094 L21.7657343,17.8033794 L19.6928072,17.8033794 L19.6928072,18.2718894 C19.6928072,19.0468049 18.9952672,19.6774194 18.1381119,19.6774194 C17.2809565,19.6774194 16.5834166,19.0468049 16.5834166,18.2718894 L16.5834166,11.1645929 C16.5834166,9.54729647 17.0705544,7.95998464 17.9898976,6.57319508 C19.1040959,4.89499232 19.6928072,2.97316436 19.6928072,1.01666667 L19.6928072,0 L17.6198801,0 L17.6198801,1.01666667 C17.6198801,2.63396313 17.1327423,4.22127496 16.2133991,5.60806452 C15.0992008,7.28626728 14.5104895,9.20809524 14.5104895,11.1645929 L14.5104895,16.8663594 L12.6987512,16.8663594 L9.04107143,28.1105991 L0,28.1105991 L0,58.0952381 L53.8961039,58.0952381 L53.8961039,28.1105991 L44.2777223,28.1105991 L40.3443432,17.4398157 C42.2141234,16.7323656 43.5314685,15.062596 43.5314685,13.1182796 Z" id="Fill-1" fill="#333333" mask="url(#mask-2)"></path>
                    </g>
                    <polygon id="Fill-4" fill="#333333" points="38.5714286 54.5743146 40.5194805 54.5743146 40.5194805 52.8138528 38.5714286 52.8138528"></polygon>
                    <polygon id="Fill-5" fill="#333333" points="34.025974 54.5743146 35.974026 54.5743146 35.974026 52.8138528 34.025974 52.8138528"></polygon>
                    <polygon id="Fill-6" fill="#333333" points="30.1298701 54.5743146 32.0779221 54.5743146 32.0779221 52.8138528 30.1298701 52.8138528"></polygon>
                    <polygon id="Fill-7" fill="#333333" points="38.5714286 50.4665705 40.5194805 50.4665705 40.5194805 48.7061087 38.5714286 48.7061087"></polygon>
                    <polygon id="Fill-8" fill="#333333" points="34.025974 50.4665705 35.974026 50.4665705 35.974026 48.7061087 34.025974 48.7061087"></polygon>
                    <polygon id="Fill-9" fill="#333333" points="38.5714286 46.9456469 40.5194805 46.9456469 40.5194805 45.1851852 38.5714286 45.1851852"></polygon>
                </g>
                <path d="M48.3866778,2.46533281 L49.9382067,0.913803953 L52.6964802,3.67207747 L51.1449513,5.22360632 L48.3866778,2.46533281 Z M55.5178055,8.80411301 L57.0693344,7.25258415 L59.8276079,10.0108577 L58.2760791,11.5623865 L55.5178055,8.80411301 Z M48.3004818,10.2694458 L51.4035395,7.16638811 L52.7826762,8.54552486 L49.6796185,11.6485826 L48.3004818,10.2694458 Z M55.4316095,3.93066561 L58.5346672,0.827607905 L59.913804,2.20674466 L56.8107462,5.30980237 L55.4316095,3.93066561 Z M52.7357721,5.50669752 L54.9299653,5.50669752 L54.9299653,7.45709143 L52.7357721,7.45709143 L52.7357721,5.50669752 Z" id="Combined-Shape-Copy" fill="url(#linearGradient-3)" fill-rule="nonzero"></path>
                <path d="M0.172392095,12.9415233 L1.72392095,11.3899944 L4.48219446,14.1482679 L2.93066561,15.6997968 L0.172392095,12.9415233 Z M7.30351982,19.2803035 L8.85504867,17.7287746 L11.6133222,20.4870481 L10.0617933,22.038577 L7.30351982,19.2803035 Z M0.0861960474,20.7456363 L3.18925375,17.6425786 L4.56839051,19.0217153 L1.46533281,22.124773 L0.0861960474,20.7456363 Z M7.21732377,14.4068561 L10.3203815,11.3037984 L11.6995182,12.6829351 L8.59646053,15.7859928 L7.21732377,14.4068561 Z M4.52148643,15.982888 L6.71567957,15.982888 L6.71567957,17.9332819 L4.52148643,17.9332819 L4.52148643,15.982888 Z" id="Combined-Shape-Copy-2" fill="url(#linearGradient-3)" fill-rule="nonzero"></path>
            </g>
        </g>
    </g>
</svg>