<svg xmlns="http://www.w3.org/2000/svg" width="154" height="260" viewBox="0 0 154 260">
  <defs>
    <linearGradient id="ci-segmentation-ans-a" x1="2.366%" x2="99.404%" y1="50%" y2="50%">
      <stop offset="0%" stop-color="#24C6DC"/>
      <stop offset="100%" stop-color="#514A9D"/>
    </linearGradient>
  </defs>
  <g fill="none" fill-rule="evenodd">
    <path fill="#E6B698" d="M144.762984,122.970857 C144.762984,122.970857 144,127.096537 144,129.476367 C144,131.856196 146.292665,129.634379 146.292665,129.634379 C146.292665,129.634379 146.903423,135.821936 148.126797,136.773868 C149.35017,137.7258 152.253593,135.663923 152.864352,130.746251 C153.47511,125.826652 151.947286,120.275001 149.808703,119.16313 C147.666407,118.053185 144.762984,122.970857 144.762984,122.970857"/>
    <path fill="#9B9B9B" d="M60.5193582,225.005969 C74.4301733,233.012958 74.5020387,245.990672 60.6825121,253.997662 C46.8726971,261.998843 24.3885313,262.002716 10.4777163,253.997662 C-3.43309882,245.990672 -3.497195,233.007149 10.3145623,225.005969 C24.1360312,216.998979 46.6085431,216.997042 60.5193582,225.005969"/>
    <path fill="#575B5E" d="M41.0746753 242.093294C41.0746753 242.093294 40.7759742 248.388099 41.3733763 250.039478 41.9746079 251.687021 47.2114497 253.93681 50.9528717 252.586553 54.6942936 251.238215 56.9383809 249.289549 58.1350998 247.488567 59.3337334 245.691421 63.5519282 243.52027 64.5705753 241.494884 66.1464148 238.35899 63.0751554 235.796571 60.3811018 235.196243 57.6870482 234.597834 54.3936779 235.345846 51.8508895 237.745237 49.3061865 240.14271 41.0746753 242.093294 41.0746753 242.093294M12.0746758 232.093594C12.0746758 232.093594 11.7759727 238.388665 12.3733789 240.040114 12.9726998 241.687727 18.2114927 243.935693 21.9529406 242.587297 25.6924736 241.238901 27.9384912 239.288235 29.1352184 237.489095 30.3338603 235.691873 34.5520843 233.518712 35.5707384 231.495159 37.1465888 228.359132 34.0733934 225.796604 31.3812359 225.196252 28.6871637 224.597817 25.3937705 225.34586 22.8509646 227.745353 20.306244 230.142927 12.0746758 232.093594 12.0746758 232.093594"/>
    <path fill="#9A7260" d="M12.2075855,152.060528 C12.2075855,152.060528 11.3003906,161.184182 13.2789967,171.029097 C15.2576027,180.872068 13.3611048,227.452669 12.702237,233.535753 C12.702237,233.535753 15.9565233,240.890277 23.8709474,234.167585 C23.8709474,216.239108 30.8401265,184.554191 28.5310853,165.025721 C26.222044,145.497251 12.2075855,152.060528 12.2075855,152.060528"/>
    <path fill="#9A7260" d="M12.0165776,154.54438 C12.3208336,155.66401 13.4617936,166.127569 29.2792052,172.401796 C37.9505014,176.907672 39.235788,184.629798 39.8774561,191.384704 C40.5191242,198.141565 40.5191242,241.58243 41.1607923,242.868149 C41.8044108,244.153867 44.5368638,249.251799 51.2812052,242.815391 C51.9228733,224.152936 54.9712845,160.496201 53.6879482,152.774075 C52.4026616,145.051949 11.0531002,151.00377 12.0165776,154.54438"/>
    <path fill="#575B5E" d="M11.5939541,151 L10,192.277965 C10,192.277965 23.054681,200.970235 31.3235639,193.148568 C30.8886702,190.54069 31.7584575,175.329709 31.7584575,175.329709 L33.9368615,196.190764 C33.9368615,196.190764 47.8613298,205.315387 57,195.320161 C56.1302127,182.717058 54.9337632,161.193716 54.9337632,161.193716 C54.9337632,161.193716 17.9737062,167.958082 11.5939541,151"/>
    <path fill="#9A7260" d="M18.4236022,98 C18.4236022,98 10.6127361,98.2818696 10.03379,105.631573 C9.4548439,112.981275 16.3982721,116.938955 24.4995925,115.809559 C32.6009129,114.678246 18.4236022,98 18.4236022,98"/>
    <path fill="#8F959B" d="M37.7563837,92.8790387 C37.7563837,92.8790387 51.1916723,96.7199704 56.4698215,105.202676 C58.5134773,108.485739 58.7096838,118.645936 55.8306933,125.367567 C52.9497603,132.089197 55.7510452,155.935629 54.7913817,160.736794 C53.8297756,165.537958 40.1555424,167.938541 32.1576992,166.659526 C24.1598561,165.378567 11.7211411,159.932064 12.0047663,150.654348 C12.812904,124.33347 12.812904,111.415033 13.9240932,105.202676 C14.9964297,99.2157984 19.2022423,95.1202301 19.2022423,95.1202301 C19.2022423,95.1202301 23.681967,89.99834 37.7563837,92.8790387"/>
    <path fill="#9A7260" d="M31.005962,53.6168893 C31.005962,53.6168893 38.5605363,51.4168206 44.899432,55.3262951 C51.2363541,59.2357697 52.2112652,63.6339285 51.9665507,69.7434717 C51.7238097,75.8530149 52.2112652,84.8926855 49.0437909,91.7362444 C45.8723696,98.5778248 32.2236142,92.956966 28.0812287,90.268213 C23.9368698,87.5814385 19.5497699,76.8303835 20.0372254,68.5227502 C20.524681,60.2131383 23.4494143,55.0829422 31.005962,53.6168893"/>
    <path fill="#9A7260" d="M23,86.522867 C23,86.522867 26.1206294,92.6347531 26.1206294,94.8574292 C26.1206294,97.0801052 30.9455282,99.8589231 37.1906515,98.7466393 C43.4319102,97.6362471 44,96.2458923 44,96.2458923 C44,96.2458923 40.8793706,91.8024319 40.0291682,88.1894011 C39.1751012,84.578262 23,86.522867 23,86.522867"/>
    <path fill="#575A5D" d="M52,64.7380778 C52,64.7380778 50.4507334,53.2616859 47.9723272,49.228644 C41.1530314,46.7482286 26.8985171,47.9894882 21.628488,53.2616859 C17.9098276,56.6740979 16.0494464,66.5999673 16.0494464,66.5999673 C16.0494464,66.5999673 15.1203068,74.0433174 21.3173734,84.2784497 C21.3173734,84.2784497 24.7270212,88.9321214 25.3471483,91.4125368 C26.5874025,91.1032738 33.0955836,95.1342119 39.2947523,91.4125368 L42.082171,83.0371901 C42.082171,83.0371901 36.814244,74.9732102 40.2238919,72.1835318 C43.6335397,69.3896457 44.8716918,74.9732102 44.8716918,74.9732102 L46.1119459,72.1835318 L43.9425522,64.4288148 L52,64.7380778 Z"/>
    <path fill="#9A7260" d="M56.4046448,107.177658 C56.4046448,107.177658 52.4304421,103.118993 47.3202027,108.335873 C42.2099632,113.554719 46.184166,121.672051 52.9965349,123.992412 C59.8108293,126.310807 74.5735292,124.572503 80.8178798,119.353656 C87.0622304,114.13481 78.5458065,90.942995 72.3014559,86.3042388 C72.3014559,86.3042388 70.0293826,80.2162401 68.6102996,77.8958788 C67.1912165,75.5774839 62.365949,72.9680606 62.0809771,74.4173032 C61.7979307,75.8685122 62.0809771,81.9545446 62.9339673,83.4057536 C62.0809771,83.1147253 58.6747926,83.1147253 58.6747926,83.985844 C58.6747926,84.8549962 60.3769221,86.3042388 63.2170137,86.5933008 C66.0571054,86.8843292 67.4742629,88.9136621 67.4742629,88.9136621 C67.4742629,88.9136621 74.5735292,104.568235 73.1525207,109.787082 C70.8823729,112.105477 64.9210687,112.685567 56.4046448,107.177658"/>
    <path fill="#D0A083" d="M97.1145717,110.470185 C97.1145717,110.470185 94.964704,116.376337 96.6366083,118.266 C97.5925351,118.738416 98.3085126,117.084004 98.3085126,117.084004 C98.3085126,117.084004 99.0264252,122.280577 100.220366,123.699736 C101.416242,125.115071 105,121.335745 105,116.376337 C105,111.415016 101.178228,106.453695 97.1145717,110.470185"/>
    <path fill="url(#ci-segmentation-ans-a)" d="M104.196477,49.7923023 C104.196477,49.7923023 100.413193,58.43352 99.1514601,70.9152789 C97.8916419,83.3989814 96,111.242905 96,111.242905 C96,111.242905 99.7813692,115.402196 104.512389,110.922212 C104.512389,110.922212 107.03394,85.9586943 108.611584,75.076513 C110.187314,64.1943318 114.602422,59.0729623 112.392954,54.2722858 C110.187314,49.4716093 105.142298,47.8720317 104.196477,49.7923023"/>
    <path fill="#9B9B9B" d="M140.51831,186.005207 C154.429219,194.01215 154.503027,206.989787 140.683407,214.996729 C126.871557,222.997863 104.387239,223.003672 90.4763303,214.998665 C76.5673636,206.989787 76.503267,194.008277 90.3131752,186.005207 C104.134737,177.998264 126.609343,177.998264 140.51831,186.005207"/>
    <path fill="#575B5E" d="M128.452387,191.734265 C128.452387,191.734265 128.690521,195.387643 125.370091,199.039049 C122.049661,202.692427 119.916058,206.830819 121.575313,209.997212 C123.234568,213.161633 130.58791,212.189633 133.433993,209.754705 C136.280076,207.317805 135.805729,204.884848 138.413678,201.473977 C141.023548,198.065078 141.497895,196.119107 140.549201,192.465729 C139.600506,188.814323 132.723432,189.788294 128.452387,191.734265"/>
    <path fill="#90969C" d="M105.019137,183.882012 C105.019137,183.882012 104.548105,187.55079 101.014411,190.240963 C97.4826232,192.935098 95.6004017,195.625271 96.0714338,199.785332 C96.5424659,203.943412 103.136916,203.45411 106.432234,201.740561 C109.731366,200.028993 109.023864,198.317425 111.379025,195.625271 C113.734185,192.935098 115.383751,192.689456 115.854783,189.75166 C116.325815,186.817826 115.618314,183.63637 114.205217,183.147068 C112.792121,182.657765 109.731366,180.456895 105.019137,183.882012"/>
    <path fill="#464A4D" d="M101,106.317544 C101,106.317544 101.815952,173.391571 102.796683,185.297 C103.124256,188.190329 110.31496,191.087564 113.259138,186.904839 C116.201331,181.436625 114.402663,125.297073 118,115.003389 C117.017284,107.604987 104.597337,105.030101 101,106.317544"/>
    <path fill="#575B5E" d="M103.017872,108.398025 C103.323947,109.523487 107.218565,119.395338 117.556471,125.217098 C126.27963,129.744478 127.572604,137.506825 128.220072,144.298878 C128.865578,151.090932 128.865578,191.521129 129.511084,192.815508 C130.15659,194.109888 135.650258,199.283476 142.434937,192.815508 C143.080443,174.05585 143.404177,113.249492 142.111203,105.487146 C140.820191,97.724799 102.048632,104.838974 103.017872,108.398025"/>
    <path fill="url(#ci-segmentation-ans-a)" d="M145.704686,58.7533969 C148.889505,64.0535459 153.389682,75.3870819 154,97.5968076 C154,117.928342 153.680093,120.511431 153.680093,120.511431 C153.680093,120.511431 147.6135,126.32044 144.42025,120.188055 C144.42025,113.675002 145.402667,97.2206687 143.486709,84.5644082 C142.548578,94.5083719 143.579535,110.562424 142.824401,114.379045 C141.86662,119.219886 129.095559,121.156223 121.113403,119.866638 C113.133187,118.575094 101,113.0875 101,103.729193 C101,94.3689267 102.595656,76.9418973 101.957781,72.7478079 C101.319907,68.5517587 101.469196,57.9411045 103.235469,50.8013533 C104.032327,47.5754322 108.662249,45.3157195 108.662249,45.3157195 C108.662249,45.3157195 114.408935,41.1196703 128.457684,44.0241752 C128.457684,44.0241752 143.782182,54.3526103 145.379776,57.9019074 C145.493227,58.1542622 145.601836,58.4392522 145.704686,58.7533969 Z"/>
    <path fill="#D0A083" d="M115.630372,42.5156372 C115.630372,42.5156372 115.674307,42.7001296 115.639923,42.9992015 C115.511938,44.1022717 115.064947,46.9337444 115.001909,48.1106116 C114.942692,49.2408702 116.258834,51.1498809 119.248328,50.9906348 C122.235912,50.8294468 127.269341,49.3904061 128.841452,45.7122106 C128.684814,45.0732843 128.684814,38.3577614 129,35 L115.630372,42.5156372 Z"/>
    <path fill="#E6B698" d="M133.446781,35.3805612 C131.091685,42.6370063 124.546507,45.137458 120.936919,46.3580576 C117.329279,47.5766822 112.998942,47.0888374 110.593199,44.6496132 C108.185509,42.210389 106.021314,31.2328925 107.46476,21.7209057 C108.908205,12.2069437 116.125433,6.5977156 124.546507,8.304185 C132.96758,10.0126295 139.94326,15.3789227 133.446781,35.3805612"/>
    <path fill="#855F4C" d="M111.801031,21.255827 C111.801031,21.255827 106.241705,24.2913343 103.675713,17.7869558 C101.111655,11.2825773 106.670981,11.2825773 106.670981,11.2825773 C106.670981,11.2825773 104.959676,6.51165393 108.807696,3.47614656 C112.655717,0.440639202 118.215043,3.47614656 118.215043,3.47614656 C118.215043,3.47614656 121.63572,-2.59486816 127.624323,1.30932768 C133.609058,5.2115626 133.183649,9.11379751 133.183649,9.11379751 C133.183649,9.11379751 137.886355,7.81370618 139.595727,13.8847209 C141.307032,19.9537747 137.031669,22.5578792 137.031669,22.5578792 C137.031669,22.5578792 139.595727,22.5578792 138.742975,27.3268417 C137.886355,32.0977651 133.183649,36 131.472343,36 C129.761037,36 129.333694,32.0977651 129.333694,32.0977651 C129.333694,32.0977651 132.754372,31.2290766 132.754372,26.8934779 C132.754372,22.5578792 128.049732,26.4601141 128.049732,26.4601141 C128.049732,26.4601141 122.919683,29.0602968 122.490406,24.2913343 L122.064997,19.5223719 C122.064997,19.5223719 118.642386,29.0602968 111.801031,21.255827"/>
  </g>
</svg>
