<svg xmlns="http://www.w3.org/2000/svg" width="200" height="266" viewBox="0 0 200 266">
  <defs>
    <linearGradient id="ci-segmentation-adv-a" x1="2.366%" x2="99.404%" y1="50%" y2="50%">
      <stop offset="0%" stop-color="#24C6DC"/>
      <stop offset="100%" stop-color="#514A9D"/>
    </linearGradient>
  </defs>
  <g fill="none" fill-rule="evenodd">
    <path fill="#9B9B9B" d="M147.108828,166.712304 C160.236024,174.328709 160.305674,186.673363 147.264624,194.289768 C134.230906,201.900647 113.01331,201.906173 99.8861145,194.289768 C86.7607516,186.673363 86.700266,174.325025 99.7321513,166.712304 C112.775034,159.095899 133.983465,159.095899 147.108828,166.712304"/>
    <path fill="#64493D" d="M135.079768 171.577257C135.079768 171.577257 135.305995 174.898499 132.151586 178.217949 128.997177 181.539191 126.970255 185.301354 128.546548 188.179883 130.12284 191.056621 137.108514 190.171195 139.812293 187.959423 142.516072 185.744067 142.065442 183.530503 144.542994 180.431513 147.02237 177.332523 147.473 175.563464 146.571741 172.242222 145.670481 168.922772 139.137261 169.806406 135.079768 171.577257M110.56818 164.702138C110.56818 164.702138 110.1207 168.023389 106.76369 170.45742 103.408492 172.89145 101.620382 175.329066 102.067862 179.089446 102.515343 182.85341 108.78007 182.410696 111.910622 180.862094 115.044797 179.311699 114.372671 177.763096 116.610073 175.329066 118.847476 172.89145 120.414564 172.670989 120.862044 170.014706 121.309525 167.358422 120.637398 164.481677 119.294956 164.038963 117.952515 163.59625 115.044797 161.603141 110.56818 164.702138"/>
    <path fill="#464A4D" d="M110,91.2985372 C110,91.2985372 110.767955,154.333697 111.690996,165.520078 C111.999299,168.239105 118.767021,170.961804 121.538012,167.031057 C124.307135,161.890425 122.614271,109.134693 126,99.4611258 C125.075091,92.5065856 113.385729,90.0886528 110,91.2985372"/>
    <path fill="#575B5E" d="M110.016531,95.9904023 C110.299651,97.0421774 113.902173,106.285663 123.464735,111.735771 C131.533658,115.97413 132.729659,123.24094 133.328567,129.599399 C133.92566,135.957858 133.92566,173.807054 134.522753,175.018802 C135.119846,176.230549 140.201488,181.073864 146.477317,175.018802 C147.07441,157.456731 147.373864,100.532159 146.177863,93.2653485 C144.983677,85.9966995 109.119984,92.6585551 110.016531,95.9904023"/>
    <path fill="url(#ci-segmentation-adv-a)" d="M109.974015,38.8281791 C109.974015,38.8281791 103.500052,54.8175516 100.665634,67.2081405 C99.4524524,69.2072639 89.3371136,66.4092141 83.2657145,64.0106274 C83.2657145,64.0106274 78.0049332,66.4092141 80.8375209,72.8042401 C82.8631504,74.4039004 98.2392705,79.6005368 104.30701,80 C104.30701,80 114.019784,68.4083375 117.66116,50.4198415 C119.280566,40.4278393 114.828572,36.0301292 109.974015,38.8281791"/>
    <path fill="#E6B698" d="M84.7478067,66.3788692 C84.7478067,66.3788692 82.1061561,60.5758659 79.9931941,60.0481575 C77.8784399,59.522238 79.1992652,63.4773676 79.1992652,63.4773676 C79.1992652,63.4773676 71.2725212,66.1159095 71.009073,69.0156223 C70.7456248,71.9171239 76.2923742,72.7077921 78.1418881,72.9725407 C79.9931941,73.2355005 86.3338724,71.6523753 84.7478067,66.3788692"/>
    <path fill="url(#ci-segmentation-adv-a)" d="M149.809634,48.887908 C152.817699,50.819474 169.826066,75.6395063 166.593269,81.6959527 C163.855581,86.8337401 153.858571,93.1319639 147.678528,93.4538883 C147.700159,97.166835 147.673045,100.170639 147.402405,101.523832 C146.500088,106.035399 134.468582,107.840025 126.948663,106.636332 C119.43057,105.434465 108,100.320139 108,91.5983851 C108,82.874805 109.503253,66.6331646 108.902317,62.7225313 C108.301381,58.8137244 108.442026,48.9248084 110.106016,42.2707041 C110.856729,39.2623841 115.218538,37.158204 115.218538,37.158204 C115.218538,37.158204 120.632442,33.2475706 133.867646,35.9545106 C133.867646,35.9545106 148.303648,45.5778612 149.809634,48.887908 Z M148.640733,69.6506334 C147.878904,72.9268053 147.67021,78.1365708 147.634161,83.4408473 C150.801317,82.3285284 154.260618,80.6290454 154.477742,78.4666207 C154.074175,75.6462222 151.360239,72.3233148 148.640733,69.6506334 Z"/>
    <path fill="#E6B698" d="M144.372636,86.4859223 C144.372636,86.4859223 142.15524,82.6100653 140.770308,82.057981 C139.387254,81.5040189 140.217838,85.1019559 140.217838,85.1019559 L136.893624,83.1621496 C136.893624,83.1621496 132.736948,83.4400695 133.013182,84.5479938 C133.291296,85.655918 134.952464,90.3617793 137.446094,91.7457457 C139.941603,93.1297121 146.035682,93.6836742 146.866266,91.7457457 C147.698729,89.809695 144.372636,86.4859223 144.372636,86.4859223"/>
    <path fill="#D0A083" d="M121.585345,33.0459098 C121.585345,33.0459098 121.626142,33.2206921 121.594214,33.4992513 C121.475371,34.5352003 121.060307,37.1878853 121.001773,38.2930189 C120.946786,39.3508157 122.168917,41.1405132 124.944876,40.9912201 C127.719061,40.8419269 132.392959,39.4928263 133.852777,36.044518 C133.707327,35.443704 133.707327,29.1479013 134,26 L121.585345,33.0459098 Z"/>
    <path fill="#E6B698" d="M137.622865,25.2743642 C135.43019,31.9726212 129.336403,34.2807305 125.975752,35.4074378 C122.616915,36.532322 118.585222,36.0820037 116.345392,33.8304121 C114.103749,31.5788206 112.08881,21.4457469 113.432707,12.6654514 C114.776605,3.88333267 121.496093,-1.29441637 129.336403,0.280786154 C137.176712,1.85781183 143.671311,6.81131329 137.622865,25.2743642"/>
    <path fill="#855F4C" d="M119.307898,32.0191757 C116.846772,32.0191757 116.64075,30.6016498 116.64075,30.6016498 C116.64075,30.6016498 117.461126,29.1841239 117.667147,27.766598 C117.667147,27.766598 119.719942,27.1585636 121.566714,28.1713437 C123.413486,29.1841239 124.439883,31.4111414 124.439883,31.4111414 C124.439883,31.4111414 121.77088,32.0191757 119.307898,32.0191757 M135.112185,1.64309692 C124.848215,-2.27249795 117.733965,1.10282541 115.820375,8.66479511 C115.820375,8.66479511 120.744483,12.9833043 125.670446,10.5529982 C130.596409,8.1245236 134.972981,7.04398058 136.342748,9.20323519 C137.710659,11.3643212 135.112185,18.8566966 135.112185,18.8566966 C135.112185,18.8566966 134.906163,24.3235117 131.826972,27.1585636 C128.749637,29.9954469 125.670446,24.1220546 121.975045,23.7173088 C118.281501,23.312563 115,24.3235117 115,26.5523606 C115,28.7793781 115.204166,32.2224643 116.64075,34.650939 C118.077335,37.0812451 122.067848,37.7808509 128.077746,36.013522 C134.085788,34.2461932 137.573311,29.9954469 138.601564,27.5633094 C137.779333,27.1585636 135.598471,26.3765435 135.765516,25.1476547 C135.93256,23.918766 136.752935,19.8694768 137.163123,18.8566966 C137.163123,18.8566966 137.710659,17.0344249 139.900801,17.8439165 L141.131363,18.7889338 C141.131363,18.7889338 145.372443,5.55869179 135.112185,1.64309692"/>
    <path fill="#9B9B9B" d="M57.1098169,217.71204 C70.2369241,225.330242 70.3047407,237.674823 57.263779,245.291183 C44.2319818,252.900176 23.0145296,252.905702 9.88742238,245.291183 C-3.2396848,237.674823 -3.30016993,225.324716 9.73346022,217.713882 C22.7762548,210.09568 43.9827097,210.09568 57.1098169,217.71204"/>
    <path fill="#65493C" d="M40.0715643 231.699505C40.0715643 231.699505 39.7853071 237.64485 40.3578214 239.204552 40.9340057 240.760631 45.9526805 242.88371 49.5382347 241.610225 53.1219539 240.33674 55.2743874 238.494444 56.4212509 236.795256 57.5699495 235.09788 61.6124141 233.04545 62.5886243 231.134317 64.0988142 228.172513 61.1536687 225.752349 58.5736844 225.185349 55.9918652 224.620161 52.8356968 225.326646 50.3988411 227.592833 47.9601505 229.857209 40.0715643 231.699505 40.0715643 231.699505M13.0715643 224.699523C13.0715643 224.699523 12.7853071 230.644868 13.3578214 232.202759 13.9321707 233.760649 18.9526805 235.883728 22.5363997 234.610243 26.1219539 233.336758 28.2743874 231.494462 29.4212509 229.795274 30.5681145 228.096087 34.6124141 226.045468 35.5886243 224.132524 37.0988142 221.172532 34.1536687 218.752367 31.5736844 218.185367 28.9918652 217.620179 25.8356968 218.326664 23.3988411 220.59104 20.9601505 222.857227 13.0715643 224.699523 13.0715643 224.699523"/>
    <path fill="#464A4D" d="M11.1933544,146.992033 C11.1933544,146.992033 10.3483526,155.526428 12.1913147,164.735501 C14.0342767,173.942755 12.2677939,217.514907 11.6540949,223.20511 C11.6540949,223.20511 16.8751991,229.493612 24.2470474,223.20511 C24.2470474,206.436378 28.5485358,177.387064 26.3977916,159.119858 C24.2470474,140.852651 11.1933544,146.992033 11.1933544,146.992033"/>
    <path fill="#575B5E" d="M13.0155769,151.199519 C13.3014662,152.247675 14.3735514,162.062231 29.2361333,167.9462 C37.3839803,172.169977 38.589847,179.411785 39.194613,185.748367 C39.7975463,192.084948 39.7975463,232.821951 40.4004797,234.029529 C41.003413,235.235276 46.1347607,240.063758 52.471975,234.029529 C53.0749083,216.527883 53.3772913,156.781135 52.1714246,149.539327 C50.9637253,142.297519 12.1102605,147.879135 13.0155769,151.199519"/>
    <path fill="#E6B698" d="M75.5157777,116.791572 C75.5157777,116.791572 77.5635294,113.786082 78.3844832,113.186433 C79.2035838,112.584973 85.1466965,111.383864 85.3523982,112.383882 C85.5562468,113.385712 82.277991,114.787912 82.277991,114.787912 C82.277991,114.787912 88.630654,116.190111 89.859305,117.99268 C91.0879559,119.79525 83.9161923,120.797079 82.0722893,120.797079 C80.2283862,120.797079 78.1787814,122 78.1787814,122 C78.1787814,122 73.4680261,120.797079 75.5157777,116.791572"/>
    <path fill="#8F959B" d="M36.19649,93.832393 C36.19649,93.832393 49.3396888,97.4685154 54.5030883,105.498899 C56.502314,108.60506 56.6942549,118.225327 53.8778552,124.588542 C51.059555,130.951756 53.7999386,153.526629 52.8611386,158.071782 C51.9204383,162.616935 38.5415893,164.889511 30.7195237,163.676857 C22.8955576,162.466043 10.725366,157.309963 11.0047255,148.526961 C11.7952938,123.609586 11.7952938,111.379996 12.8823253,105.498899 C13.9313487,99.8312589 18.0457248,95.9522376 18.0457248,95.9522376 C18.0457248,95.9522376 22.428058,91.1053012 36.19649,93.832393"/>
    <path fill="#8F959B" d="M51.5513932,104.354578 C51.5513932,104.354578 55.8296399,106.37301 56.9703848,112.714299 C58.1111296,119.057421 62.6741091,128.856262 62.6741091,128.856262 L73.8657413,115.020556 C73.8657413,115.020556 78.7152672,116.245182 79,121.722999 C79,121.722999 67.3078184,141.179518 61.8888269,142.908294 C56.4716489,144.638903 46.1342152,121.361845 44.4221911,116.461508 C42.7119806,111.561171 46.4189481,102.048321 51.5513932,104.354578"/>
    <path fill="#F0D3C3" d="M28.3180894,57.5718397 C28.3180894,57.5718397 35.4005028,55.5307078 41.3432175,59.1610198 C47.284082,62.7913319 48.1980611,66.8754329 47.9686413,72.5468769 C47.6837166,79.6495016 47.7373712,87.5972394 45.2267038,92.9692193 C42.2553465,99.3222654 29.4596383,94.1027732 25.5761519,91.6078523 C21.6908155,89.1110942 17.5779093,79.1277361 18.0348988,71.413323 C18.4918884,63.6989099 21.2338259,58.9332067 28.3180894,57.5718397"/>
    <path fill="#F0D3C3" d="M24,88.5228673 C24,88.5228673 26.972028,94.6328652 26.972028,96.8555425 C26.972028,99.0801114 31.5671697,101.858931 37.5130659,100.746646 C43.4589621,99.634362 44,98.2458981 44,98.2458981 C44,98.2458981 41.027972,93.8005435 40.2164152,90.1894023 C39.4048583,86.5782612 24,88.5228673 24,88.5228673"/>
    <path fill="#D69D59" d="M41.94283,53.0560154 C41.94283,53.0560154 43.9825551,53.8668515 48.0656971,55.8957765 L52.1469931,57.9228669 L48.883433,60.7644625 C48.883433,60.7644625 52.1469931,62.3861348 52.964729,65.2258959 C53.3726741,66.8494027 50.107268,66.0385666 50.107268,66.0385666 C50.107268,66.0385666 50.517059,67.2548208 50.517059,70.5 C50.517059,73.7451792 47.657752,70.5 43.576456,69.6891638 C44.800291,70.5 45.2100819,73.7451792 45.2100819,73.7451792 C45.2100819,73.7451792 39.085369,72.934343 36.227908,72.1235068 C37.0456439,73.3397611 38.269479,79.0192833 38.269479,79.0192833 C38.269479,79.0192833 34.5961279,74.5578498 33.778392,77.3976109 C32.962502,80.2355375 35.0022271,85.106058 37.451743,84.6988055 L39.085369,84.2933874 C39.085369,84.2933874 38.269479,87.9458191 35.412018,89.565657 C32.554557,91.1891638 27.24758,92 27.24758,92 C27.24758,92 19.491087,83.8879693 18.6751969,82.2644625 C17.857461,80.6427901 15,74.9614334 15,69.2837457 C15,63.6042235 19.083142,59.1409556 19.083142,59.1409556 C19.083142,59.1409556 19.491087,57.1120307 21.1247129,54.6776877 C22.756493,52.2451792 30.105041,53.0560154 31.328876,52.6505973 C32.554557,52.2451792 37.0456439,49 37.0456439,49 L37.451743,53.0560154 L43.576456,50.6216724 L41.94283,53.0560154 Z"/>
    <path fill="#9B9B9B" d="M190.109817,232.712304 C203.236924,240.328709 203.304741,252.673363 190.263779,260.289768 C177.231982,267.900647 156.01453,267.906173 142.887422,260.289768 C129.760315,252.673363 129.69983,240.325025 142.73346,232.712304 C155.776255,225.095899 176.98271,225.095899 190.109817,232.712304"/>
    <path fill="#474B4D" d="M165.928436 247.697789C165.928436 247.697789 166.214693 253.645014 165.642179 255.202922 165.067829 256.759019 160.049154 258.883934 156.4636 257.610434 152.878046 256.335123 150.725613 254.494617 149.578749 252.79541 148.431886 251.096203 144.387586 249.045561 143.411376 247.132594 141.901186 244.172568 144.846331 241.752376 147.426316 241.18537 150.008135 240.620175 153.164303 241.326668 155.601159 243.59107 158.03985 245.857283 165.928436 247.697789 165.928436 247.697789M190.928436 238.699222C190.928436 238.699222 191.214693 244.646127 190.642178 246.203951 190.067829 247.759965 185.049151 249.884765 181.463595 248.609523 177.878039 247.336091 175.725604 245.495685 174.57874 243.794758 173.431876 242.097453 169.387574 240.046921 168.411364 238.134058 166.901173 235.172379 169.84632 232.754128 172.428141 232.185341 175.008126 231.620177 178.164296 232.326632 180.602988 234.592724 183.039845 236.858815 190.928436 238.699222 190.928436 238.699222"/>
    <path fill="#474B4D" d="M192.807517,163.992055 C192.807517,163.992055 193.650652,172.526645 191.807694,181.735927 C189.966602,190.94339 191.731215,234.514714 192.346778,240.205047 C192.346778,240.205047 187.123821,246.493692 179.751991,240.205047 C179.751991,223.435934 175.450513,194.387778 177.603117,176.120156 C179.751991,157.852534 192.807517,163.992055 192.807517,163.992055"/>
    <path fill="#474B4D" d="M191.984423,166.197797 C191.698532,167.247791 190.628273,177.062397 175.763774,182.946397 C167.61588,187.170196 166.410006,194.412041 165.80707,200.748656 C165.2023,207.08527 165.2023,247.822483 164.599363,249.028235 C163.996426,250.23582 158.865049,255.064328 152.527799,249.028235 C151.924862,231.526498 151.622477,171.781274 152.830184,164.539429 C154.036057,157.297584 192.889745,162.879229 191.984423,166.197797"/>
    <path fill="#D0A083" d="M185.831663,112.290467 C185.831663,112.290467 195.448179,120.004969 193.81278,133.159277 C192.179228,146.313585 175.424242,134.354304 175.014006,125.585366 C174.607466,116.816428 183.165131,110.552901 185.831663,112.290467"/>
    <path fill="#8F959B" d="M168.922218,108.831425 C168.922218,108.831425 156.363485,112.469378 151.429697,120.497899 C149.519375,123.605892 149.337785,133.226132 152.027126,139.589329 C154.720099,145.952525 152.101578,168.525496 152.99863,173.070636 C153.897499,177.617617 166.681403,179.888347 174.155629,178.677536 C181.631671,177.464885 193.260666,172.310659 192.995545,163.527681 C192.240133,138.610375 192.240133,126.37898 191.199625,120.497899 C190.199066,114.832115 186.265837,110.953104 186.265837,110.953104 C186.265837,110.953104 182.080197,106.106181 168.922218,108.831425"/>
    <path fill="#D0A083" d="M151.058369 121.307712C151.058369 121.307712 134.186206 144.246477 140.357406 153.25787 146.530466 162.269263 155.174984 146.704467 158.465297 140.560419 161.759333 134.414519 164.22893 124.99377 158.878448 122.53578 153.527966 120.077791 151.058369 121.307712 151.058369 121.307712M174.681758 71.5718409C174.681758 71.5718409 167.59924 69.5307048 161.658288 73.1610242 155.717336 76.7913436 154.803344 80.8736157 155.030917 86.5469084 155.26034 92.220201 154.803344 100.616233 157.772895 106.969292 160.744296 113.322351 173.540193 108.102848 177.423736 105.606085 181.30913 103.111159 185.422097 93.1277809 184.965101 85.4133522 184.509955 77.6989234 181.766126 72.9332106 174.681758 71.5718409"/>
    <path fill="#D0A083" d="M181,102.522568 C181,102.522568 178.027972,108.634046 178.027972,110.856573 C178.027972,113.0791 173.43283,115.857732 167.486934,114.747414 C161.541038,113.635205 161,112.246835 161,112.246835 C161,112.246835 163.973868,107.80178 164.783585,104.190883 C165.595142,100.578093 181,102.522568 181,102.522568"/>
    <path fill="#D0D8E7" d="M155,83.4895466 C155,83.4895466 156.605274,86.7114835 161.820149,83.4895466 C165.830614,84.6970899 165.830614,86.7114835 165.429748,89.9334204 C165.027069,93.1571786 167.836753,88.3215413 169.842892,90.7384493 C171.847218,93.1571786 171.446353,95.9747797 168.237618,97.9891733 C165.027069,100.001746 168.638483,104.030533 168.638483,104.030533 C168.638483,104.030533 174.655088,108.461834 178.667367,104.030533 C182.677832,99.6010524 189.095301,89.5309059 184.283106,77.8507017 C179.469097,66.1704975 156.605274,64.1561039 155,83.4895466"/>
  </g>
</svg>
