<svg xmlns="http://www.w3.org/2000/svg" xmlns:xlink="http://www.w3.org/1999/xlink" width="282" height="361" viewBox="0 0 282 361">
  <defs>
    <polygon id="ci-touchpoint-adv-a" points="0 72.886 0 .889 55.979 .889 55.979 72.886 0 72.886"/>
  </defs>
  <g fill="none" fill-rule="evenodd" transform="translate(0 -21)">
    <polygon fill="#5B383B" points="221.666 274.062 161.885 308.802 101.714 274.063 161.495 239.322"/>
    <polygon fill="#DFE5F3" points="103.483 274.06 161.496 240.346 219.898 274.064 161.884 307.779"/>
    <polygon fill="#F0B7CF" points="221.666 274.062 221.655 277.674 161.875 312.415 161.885 308.802"/>
    <polygon fill="#65B1FC" points="161.885 308.802 161.875 312.414 101.704 277.675 101.714 274.063"/>
    <polygon fill="#5B383B" points="281.848 308.802 222.068 343.542 161.896 308.803 221.676 274.063"/>
    <polygon fill="#DFE5F3" points="163.664 308.8 221.678 275.086 280.079 308.805 222.065 342.519"/>
    <polygon fill="#5B383B" points="281.848 308.802 281.837 312.414 222.057 347.156 222.068 343.542"/>
    <polygon fill="#65B1FC" points="222.067 343.543 222.056 347.156 161.885 312.416 161.895 308.803"/>
    <polygon fill="#5B383B" points="161.885 308.802 102.105 343.542 41.934 308.803 101.714 274.063"/>
    <polygon fill="#DFE5F3" points="43.703 308.8 101.716 275.086 160.118 308.805 102.104 342.519"/>
    <polygon fill="#F0B7CF" points="161.885 308.802 161.875 312.414 102.095 347.156 102.105 343.542"/>
    <polygon fill="#5B383B" points="102.105 343.543 102.095 347.156 41.924 312.416 41.934 308.803"/>
    <polygon fill="#5B383B" points="222.067 343.543 162.286 378.284 102.115 343.543 161.895 308.803"/>
    <polygon fill="#DFE5F3" points="103.884 343.542 161.897 309.827 220.299 343.546 162.285 377.26"/>
    <polygon fill="#5B383B" points="162.286 378.283 162.276 381.896 222.057 347.156 222.067 343.542"/>
    <polygon fill="#5B383B" points="102.105 347.156 162.276 381.896 162.286 378.283 102.116 343.543"/>
    <g transform="translate(0 .896)">
      <path fill="#DFE5F3" d="M205.8681,281.7989 C229.3411,295.3509 229.4651,317.3199 206.1581,330.8639 C182.8501,344.4089 144.9231,344.4089 121.4501,330.8579 C97.9911,317.3139 97.8671,295.3439 121.1741,281.7989 C144.4811,268.2549 182.4091,268.2549 205.8681,281.7989"/>
      <path fill="#F0B7CF" d="M248.1455 149.6929C246.0185 148.4029 243.1525 148.2499 240.7905 147.4749 238.3465 146.6729 235.7235 145.7959 233.1895 145.5629 230.3135 145.2969 226.7235 145.3769 223.9615 144.1329 223.9035 144.1069 223.8395 144.0959 223.7805 144.0719L214.2455 137.0799C212.2985 136.0469 210.8195 134.3109 210.1055 132.2269L205.1495 117.7559 195.6855 128.6759 199.9655 138.5659C202.0385 143.3529 205.9665 147.0929 210.8495 148.9269L218.8535 151.9339C220.0395 153.2729 222.5595 154.0789 223.7415 155.3059 225.8015 157.4469 226.4695 159.0289 229.9525 159.4729 232.4195 159.7869 236.0235 158.6799 237.9295 157.0819 240.3855 155.0229 242.2195 153.4599 245.8365 153.3989 247.3285 153.3739 248.6715 154.2439 249.4975 152.6009 250.2085 151.1889 249.2725 150.3769 248.1455 149.6929M109.7817 84.0259L101.6427 91.6669C98.4397 94.6739 94.2627 96.4309 89.8727 96.6169L56.6557 98.0249C54.1557 97.3739 51.6677 96.2159 49.4647 95.3989 46.7077 94.3769 43.5377 93.9809 40.5917 93.5959 37.7437 93.2229 34.6807 91.9509 31.8217 92.2339 30.3047 92.3829 28.9257 92.7609 28.9607 94.5879 29.0007 96.7109 30.8347 96.4759 32.3757 97.2469 36.3847 99.2529 37.3927 102.0329 39.1137 105.7769 40.4077 108.5959 43.1047 110.6199 46.0477 111.5579 49.7817 112.7479 51.2697 111.4529 54.4417 110.2679 54.4787 110.2539 54.5247 110.2469 54.5637 110.2339L94.8597 110.2339C100.8497 110.2339 106.6057 107.9019 110.9067 103.7329L119.9737 94.9459 109.7817 84.0259z"/>
      <path fill="#5B383B" d="M155.2524 286.6837C155.2524 286.6837 148.2954 288.7877 142.3104 292.9937 138.2254 295.8637 133.2364 295.8717 130.4794 299.3917 127.9924 302.5677 130.3304 306.3307 134.3644 306.3307L138.6554 306.3307C141.3144 306.3307 143.8854 305.3647 145.8684 303.5927 147.7784 301.8847 150.1434 300.8597 151.3704 300.5967 152.8194 300.2867 159.8324 300.2417 164.6954 300.2477 167.9814 300.2527 170.4754 297.3187 169.9774 294.0717 169.3404 289.9107 166.2224 285.4047 155.2524 286.6837M184.373 298.7335C184.373 298.7335 192.745 298.6125 190.682 307.9555 188.619 317.2975 186.799 311.5955 184.373 322.5155 181.946 333.4355 168.477 334.1635 168.963 327.6115 169.448 321.0595 173.574 315.2355 174.787 309.7755 176.001 304.3155 174.949 299.3405 178.023 298.7335 181.097 298.1275 184.373 298.7335 184.373 298.7335"/>
      <path fill="#5B383B" d="M155.2524 284.4161C155.2524 284.4161 148.2954 286.5201 142.3104 290.7261 138.2254 293.5961 133.2364 293.6041 130.4794 297.1231 127.9924 300.3001 130.3304 304.9621 134.3644 304.9621L138.6554 304.9621C141.3144 304.9621 143.8854 303.9951 145.8684 302.2231 147.7784 300.5151 150.1434 298.5921 151.3704 298.3291 152.8194 298.0191 159.8324 297.9731 164.6954 297.9801 167.9814 297.9851 170.4754 295.0511 169.9774 291.8041 169.3404 287.6421 166.2224 283.1371 155.2524 284.4161M183.5234 297.1163C183.5234 297.1163 191.8954 296.9943 189.8334 306.3373 187.7694 315.6793 185.9504 309.9773 183.5234 320.8973 181.0964 331.8173 167.6284 332.5453 168.1144 325.9933 168.5994 319.4413 172.7244 313.6173 173.9374 308.1573 175.1514 302.6973 174.1004 297.7223 177.1734 297.1153 180.2474 296.5093 183.5234 297.1163 183.5234 297.1163"/>
      <path fill="#F0B7CF" d="M188.1738 299.7764C184.6158 301.0374 180.7328 301.0374 177.1738 299.7764L177.1738 290.7254 188.1738 290.7254 188.1738 299.7764zM164.6357 287.6426C161.0777 288.9046 157.1937 288.9046 153.6357 287.6426L153.6357 278.5916 164.6357 278.5916 164.6357 287.6426z"/>
      <path fill="#E37965" d="M130.3388,150.7877 L130.3388,203.6487 C130.3388,220.4297 133.7798,237.0337 140.4498,252.4327 L152.3398,279.8867 L154.0508,280.6347 C157.9268,282.3297 162.3178,282.4107 166.2538,280.8577 L156.6148,232.0987 C155.7088,227.5137 155.2528,222.8517 155.2528,218.1787 L154.9148,201.4587 C154.9148,197.7877 158.4438,195.1467 161.9668,196.1827 C164.2738,196.8607 165.7978,199.0517 165.6318,201.4497 L164.4138,210.3847 C163.2738,226.8617 164.5778,243.4157 168.2858,259.5097 L175.9598,292.8297 C175.9598,292.8297 182.7548,295.7407 189.8728,292.8297 L186.9718,246.4047 C186.5338,239.4047 186.7198,232.3777 187.5268,225.4107 L193.4328,174.4077 L130.3388,144.9637 L130.3388,150.7877 Z"/>
      <path fill="#4862A9" d="M191.4912,91.9 C191.4912,91.9 177.5782,79.281 165.2832,73.458 C152.9882,67.633 141.3402,57.603 125.8092,70.222 C110.2782,82.84 107.3662,85.106 107.3662,85.106 C107.3662,85.106 111.8962,95.46 118.6912,96.43 L134.2212,85.753 L133.5742,121.02 L126.1332,159.847 C126.1332,159.847 134.5452,182.496 196.9912,178.29 L190.8442,135.904 L190.5202,119.079 L196.9912,132.992 C196.9912,132.992 203.4632,130.347 207.0212,121.478 C207.0212,121.478 199.4162,98.491 191.4912,91.9"/>
      <path fill="#D8A0BA" d="M151.4677,82.5157 L151.6777,83.7737 C152.6757,89.7467 159.2877,92.9307 164.5797,89.9867 C169.3337,87.3417 171.9517,82.0277 171.1517,76.6467 L172.4827,62.2947 L158.4077,58.6547 L157.1947,69.0137 C152.8257,72.0207 150.5937,77.2847 151.4677,82.5157"/>
      <path fill="#F0B7CF" d="M179.4834,52.7618 C178.9364,52.1318 180.4264,36.7638 172.6294,35.8348 C153.5324,33.5578 141.7274,36.2638 141.7334,38.1638 C141.7474,42.4938 141.6394,48.7098 142.0494,53.0288 C142.6794,59.8588 144.2124,65.5438 146.6444,70.0618 C147.6494,71.9268 148.7104,73.4758 149.8764,74.7038 C150.9194,75.8258 152.0434,76.7058 153.2324,77.3208 C154.3574,77.8728 155.5614,78.1568 156.9534,78.1568 C159.1394,78.1568 161.1664,77.7298 163.0444,76.8878 C163.5154,76.6888 163.9454,76.4398 164.3764,76.1788 C167.6894,74.1728 170.5304,70.7158 172.9024,65.8098 C173.4944,64.6428 174.0234,63.4158 174.5144,62.1258 C174.8244,62.5968 175.2724,62.8638 175.8264,62.9268 L176.0484,62.9268 C176.9714,62.9268 177.9514,61.8848 178.9754,59.7968 C179.8324,58.0198 180.3254,56.5468 180.4264,55.3398 L180.4264,54.9898 C180.4264,54.1908 180.1184,53.4598 179.4834,52.7618"/>
      <path fill="#5B383B" d="M141.456,37.0186 C141.466,36.7716 141.488,36.5226 141.522,36.2706 C142.317,30.3566 147.684,25.2576 153.04,23.2206 C162.331,19.6876 178.458,21.9956 181.592,32.9546 C183.486,39.5816 181.304,46.7036 179.438,53.0766 C177.443,51.4266 175.729,53.6636 174.848,55.4616 C174.455,56.2656 174.493,57.7756 174.073,58.4126 C173.68,59.0096 172.405,59.3266 171.741,59.6936 C171.636,58.2796 171.296,56.7286 171.519,55.3176 C171.83,53.3656 172.551,51.3516 173.004,49.4196 C173.408,47.6946 174.377,45.9446 174.124,44.1416 C173.609,40.4676 170.471,39.6966 167.366,40.8296 C159.889,43.5596 151.479,47.7956 144.072,42.5006 C142.212,41.1716 141.366,39.2086 141.456,37.0186"/>
      <path fill="#5B383B" d="M169.8925,39.3819 C170.9505,39.3819 171.9205,39.6249 172.7215,40.1059 C173.6265,40.6479 174.7705,41.7669 175.0845,44.0069 C175.2905,45.4789 174.8425,46.8209 174.4095,48.1199 C174.2385,48.6299 174.0675,49.1359 173.9495,49.6419 C173.7715,50.3949 173.5555,51.1589 173.3385,51.9259 C173.0045,53.1039 172.6615,54.3209 172.4775,55.4699 C172.3425,56.3249 172.4545,57.3129 172.5685,58.2719 C172.8675,58.1409 173.1785,57.9869 173.2645,57.8759 C173.3695,57.7179 173.4625,57.1439 173.5255,56.7649 C173.6235,56.1659 173.7265,55.5479 173.9775,55.0359 C174.5285,53.9099 175.7105,51.9649 177.4395,51.5909 C177.8085,51.5109 178.2935,51.4829 178.8425,51.6529 C180.5635,45.7669 182.3635,39.1849 180.6585,33.2219 C179.6775,29.7929 177.1915,26.9939 173.4685,25.1289 C167.6965,22.2379 159.4385,21.8279 153.3845,24.1299 C148.5395,25.9709 143.2405,30.7769 142.4845,36.3999 C142.4545,36.6229 142.4355,36.8409 142.4255,37.0589 C142.3455,39.0119 143.1095,40.6199 144.6355,41.7099 C150.7955,46.1159 157.7545,43.4499 164.4855,40.8779 C165.3445,40.5489 166.1945,40.2249 167.0335,39.9179 C168.0135,39.5599 168.9855,39.3819 169.8925,39.3819 Z M170.8865,61.2769 L170.7735,59.7659 C170.7445,59.3769 170.6965,58.9789 170.6485,58.5749 C170.5165,57.4609 170.3785,56.3079 170.5615,55.1669 C170.7605,53.9019 171.1215,52.6299 171.4695,51.3999 C171.6795,50.6579 171.8895,49.9229 172.0585,49.1979 C172.1905,48.6369 172.3775,48.0719 172.5685,47.5039 C172.9475,46.3679 173.3055,45.2969 173.1625,44.2769 C172.9955,43.0859 172.5105,42.2429 171.7225,41.7689 C170.7375,41.1789 169.2705,41.1679 167.6985,41.7419 C166.8695,42.0459 166.0285,42.3659 165.1785,42.6919 C158.3035,45.3179 150.5135,48.2979 143.5075,43.2909 C141.4515,41.8219 140.3785,39.5789 140.4865,36.9779 L140.4865,36.9759 C140.4975,36.7009 140.5225,36.4229 140.5605,36.1399 C141.4565,29.4699 147.4795,24.2969 152.6945,22.3139 C159.2175,19.8359 168.1185,20.2759 174.3385,23.3939 C178.5605,25.5079 181.3905,28.7229 182.5255,32.6879 C184.4525,39.4239 182.3555,46.5739 180.5055,52.8839 L179.9555,54.7629 L178.8195,53.8239 C178.3535,53.4379 178.0445,53.4569 177.8485,53.4889 C177.1905,53.6309 176.3755,54.5499 175.7205,55.8889 C175.5955,56.1449 175.5125,56.6409 175.4415,57.0809 C175.3255,57.7809 175.2175,58.4429 174.8825,58.9469 C174.4515,59.6029 173.6185,59.9439 172.8835,60.2439 C172.6335,60.3459 172.3955,60.4409 172.2115,60.5429 L170.8865,61.2769 Z"/>
      <g transform="translate(0 64)">
        <mask id="ci-touchpoint-adv-b" fill="#fff">
          <use xlink:href="#ci-touchpoint-adv-a"/>
        </mask>
        <path fill="#DFE5F3" d="M28.0805,4.7256 C43.5335,13.6476 56.0295,35.2906 55.9785,53.0466 C55.9285,70.8036 43.3515,77.9706 27.8985,69.0486 C12.4455,60.1276 -0.0505,38.4846 -0.0005,20.7276 C0.0505,2.9716 12.6275,-4.1964 28.0805,4.7256" mask="url(#ci-touchpoint-adv-b)"/>
      </g>
      <path fill="#DFE5F3" d="M243.9033,121.5933 C228.4503,130.5153 215.9553,152.1583 216.0053,169.9153 C216.0553,187.6713 228.6323,194.8393 244.0863,185.9163 C259.5393,176.9953 272.0343,155.3523 271.9833,137.5953 C271.9333,119.8393 259.3563,112.6723 243.9033,121.5933"/>
      <path fill="#4863A9" d="M252.9013,134.7906 C255.8313,135.1956 258.0363,137.2556 258.9473,140.6616 C258.2673,141.8276 256.7843,143.6626 254.5573,145.7396 C254.4423,141.6306 253.9043,137.7236 252.9013,134.7906 M252.9773,161.4856 C253.6763,158.5736 254.1383,155.4506 254.3853,152.3616 C256.1093,150.9046 257.7173,149.3526 259.1263,147.7826 C258.3633,152.4986 256.0933,157.4466 252.9773,161.4856 M249.1483,150.0566 C248.0873,150.7796 246.9543,151.5096 245.7333,152.2146 C244.5123,152.9186 243.3853,153.4946 242.3233,153.9966 C242.3393,144.4576 244.6443,137.9156 245.6893,136.6246 C246.7373,136.7076 249.0783,140.5676 249.1483,150.0566 M238.5663,169.8066 C235.4423,169.3696 233.1433,167.0596 232.3563,163.2386 C233.7783,163.1736 235.3803,162.8726 237.1163,162.3326 C237.3743,165.1296 237.8583,167.7136 238.5663,169.8066 M238.4903,143.1106 C237.5063,147.1906 236.9893,151.7076 236.9023,155.9336 C234.6673,156.4316 233.1883,156.3076 232.4983,155.9316 C233.3863,151.4866 235.5693,146.8936 238.4903,143.1106 M242.6713,160.0926 C243.6963,159.5946 244.7263,159.0426 245.7513,158.4506 C246.7823,157.8556 247.8123,157.2106 248.8303,156.5366 C248.1523,162.7986 246.5893,166.9656 245.7783,167.9726 C244.9693,167.9006 243.3813,165.5526 242.6713,160.0926 M264.8373,141.2676 C264.8023,129.1656 256.2023,124.2656 245.6723,130.3456 C235.1373,136.4276 226.5923,151.2266 226.6273,163.3276 C226.6613,175.4326 235.2613,180.3326 245.7963,174.2516 C256.3273,168.1716 264.8713,153.3716 264.8373,141.2676"/>
    </g>
  </g>
</svg>
