
<svg width="38px" height="60px" viewBox="0 0 38 60" version="1.1" xmlns="http://www.w3.org/2000/svg" xmlns:xlink="http://www.w3.org/1999/xlink">
    <!-- Generator: Sketch 47.1 (45422) - http://www.bohemiancoding.com/sketch -->
    <desc>Created with Sketch.</desc>
    <defs>
        <linearGradient x1="2.36567283%" y1="50%" x2="99.4040976%" y2="50%" id="linearGradient-1">
            <stop stop-color="#24C6DC" offset="0%"></stop>
            <stop stop-color="#514A9D" offset="100%"></stop>
        </linearGradient>
    </defs>
    <g id="Page-1" stroke="none" stroke-width="1" fill="none" fill-rule="evenodd">
        <g id="2.0-ConsumerInsights_CopyNotReady" transform="translate(-945.000000, -1558.000000)">
            <g id="Group-15" transform="translate(945.000000, 1558.000000)">
                <polygon id="Shape" fill="#000000" fill-rule="nonzero" points="11.1119333 12.7062689 13.3341556 11.4222222 15.5555556 12.7048422 15.5548067 31.1111111 17.7778511 31.1111111 17.7762044 26.6042089 20 25.31874 22.2198267 26.6027822 22.2214733 31.1111111 24.4445178 31.1111111 24.5893556 27.9521356 26.8131511 26.6666667 29.0329778 27.9507111 28.88814 31.1111111 31.1111844 31.1111111 31.1111844 28.8860133 33.3334067 27.6019667 35.5548067 28.8845889 35.5549067 42.39284 31.1111111 54.2429622 31.1111111 60 33.3333333 60 33.3333333 54.6459267 37.7777778 42.7940756 37.7770289 27.6313133 33.3342289 25.0686333 31.1100978 26.3525 26.8131489 24.1333333 24.5889156 25.4222222 19.9999978 22.7854044 17.7752644 24.0742933 17.7769111 11.4544156 13.3349778 8.88888889 8.89053333 11.4544156 8.88945111 28.79288 0 35.1424889 0 45.8742178 8.82861333 60 11.4491644 60 2.22222222 45.2368933 2.22222222 36.2860844 8.88928 31.5239 8.88928 42.2222222 11.1112644 42.2222222"></polygon>
                <polygon id="Path" fill="url(#linearGradient-1)" points="22.2189333 15.3817689 22.2222222 5.12535778 13.3366222 0 4.44773422 5.13105111 4.44444444 15.3874622 6.66666667 16.6692756 6.66913333 6.38547111 13.3358 2.53333333 20 6.38119556 20 16.6626333"></polygon>
            </g>
        </g>
    </g>
</svg>