<svg xmlns="http://www.w3.org/2000/svg" xmlns:xlink="http://www.w3.org/1999/xlink" width="149" height="269" viewBox="0 0 149 269">
  <defs>
    <polygon id="ci-touchpoint-ans-a" points="148.528 0 0 0 0 102.992 148.528 102.992 148.528 0"/>
  </defs>
  <g fill="none" fill-rule="evenodd">
    <path fill="#3A3079" d="M65.9697174,181.469542 L79.567046,173.597035 L79.6121674,189.267374 L66.0148387,197.142144 L65.9697174,181.469542 Z M74.3171731,87.5063425 C88.0295613,79.5659498 95.1158744,84.9402538 95.1609958,101.49311 C95.1925808,112.583411 92.6522469,122.0535 85.7554436,136.70555 C80.2619153,148.467921 78.6059605,154.464513 78.621753,161.121861 C78.6285212,163.047559 78.7638854,164.88048 79.1586975,166.582154 L66.5969046,173.855002 C66.0734965,172.379614 65.8095364,170.603265 65.8027682,167.948925 C65.7779515,159.680416 67.5625022,152.561444 73.0537744,140.353288 C79.305342,126.373309 81.0853805,118.539271 81.0560516,108.630186 C81.0380031,101.241932 78.4502918,99.9294705 73.9719946,102.522714 C69.4779049,105.125008 66.9217785,109.4154 66.9420832,116.803654 L66.9736681,128.043303 L53.6357874,135.766461 L53.619995,130.896776 L53.6064585,125.556415 C53.5590811,109.005821 60.5912486,95.4557867 74.3171731,87.5063425 Z M11.1991271,267.198176 L138.256428,193.618863 C144.17861,190.190623 148.956964,181.885909 148.938916,175.076949 L148.553128,38.8615372 L148.492214,17 L0,102.988864 L0.446701687,261.068075 C0.46475024,267.874773 5.27920176,270.626416 11.1991271,267.198176 Z"/>
    <polygon fill="#FFF" points="79.597 174 66 181.873 66.043 197.545 79.642 189.67"/>
    <polygon fill="#FFF" points="79.597 174 66 181.873 66.043 197.545 79.642 189.67"/>
    <path fill="#FFF" d="M54.0160083,131.000719 L54.0318007,135.870404 L67.3696814,128.147246 L67.3358404,116.907597 C67.3177918,109.519343 69.8716621,105.228951 74.3680078,102.626657 C78.8463051,100.033414 81.4317603,101.345875 81.4520649,108.734129 C81.4813938,118.645477 79.7013553,126.477252 73.4475316,140.457231 C67.9585155,152.665387 66.1739648,159.78436 66.1965255,168.052868 C66.2032937,170.707208 66.4695098,172.48582 66.9929179,173.958945 L79.5524547,166.68836 C79.1598987,164.986686 79.0245345,163.151503 79.0177663,161.225805 C78.9997178,154.570719 80.6579286,148.571864 86.1492008,136.809493 C93.0482602,122.157443 95.5885941,112.687354 95.5570091,101.597053 C95.5118877,85.0441971 88.4255746,79.6698931 74.7131864,87.6102858 C60.9872619,95.5597299 53.9550944,109.109765 54.0002158,125.660358 L54.0160083,131.000719 Z"/>
    <path fill="#FFF" d="M54.0160083,131.000719 L54.0318007,135.870404 L67.3696814,128.147246 L67.3358404,116.907597 C67.3177918,109.519343 69.8716621,105.228951 74.3680078,102.626657 C78.8463051,100.033414 81.4317603,101.345875 81.4520649,108.734129 C81.4813938,118.645477 79.7013553,126.477252 73.4475316,140.457231 C67.9585155,152.665387 66.1739648,159.78436 66.1965255,168.052868 C66.2032937,170.707208 66.4695098,172.48582 66.9929179,173.958945 L79.5524547,166.68836 C79.1598987,164.986686 79.0245345,163.151503 79.0177663,161.225805 C78.9997178,154.570719 80.6579286,148.571864 86.1492008,136.809493 C93.0482602,122.157443 95.5885941,112.687354 95.5570091,101.597053 C95.5118877,85.0441971 88.4255746,79.6698931 74.7131864,87.6102858 C60.9872619,95.5597299 53.9550944,109.109765 54.0002158,125.660358 L54.0160083,131.000719 Z"/>
    <mask id="ci-touchpoint-ans-b" fill="#fff">
      <use xlink:href="#ci-touchpoint-ans-a"/>
    </mask>
    <path fill="#3A3079" d="M31.9211561,77.7754472 C30.4073337,78.6511759 29.1800321,77.9496878 29.1732639,76.223122 C29.1687517,74.4784532 30.3892851,72.3581488 31.9031075,71.484683 C33.4146738,70.6089543 34.6442315,71.3104424 34.6487437,73.0528483 C34.6532558,74.7794142 33.4327224,76.8997185 31.9211561,77.7754472 Z M21.3334237,83.9055481 C19.8218573,84.7835396 18.5922997,84.0797887 18.5877875,82.3532228 C18.5832754,80.6108169 19.8038088,78.4905125 21.3153751,77.6147838 C22.813405,76.7481066 24.0429627,77.4495947 24.0474748,79.1920006 C24.051987,80.9185665 22.8314536,83.0388708 21.3334237,83.9055481 Z M10.7298988,90.0447004 C9.21833245,90.9226919 7.99103084,90.2212038 7.98651871,88.4923751 C7.98200657,86.7499692 9.20253997,84.6296648 10.7141063,83.7539361 C12.2279287,82.8782074 13.4529742,83.5796955 13.4597424,85.3221015 C13.4642545,87.0509302 12.2437211,89.1712345 10.7298988,90.0447004 Z M148.521577,14.7320329 L148.492248,4.46767806 C148.480968,0.464670168 145.663137,-1.14422673 142.191047,0.865197244 L74.2247083,40.2232053 L6.25836975,79.5834762 C2.78627937,81.5929002 -0.0112463514,86.4557967 3.3994245e-05,90.4565418 L0.0338750312,102.992813 L148.528345,17.0016864 L148.521577,14.7320329 Z" mask="url(#ci-touchpoint-ans-b)"/>
    <polygon fill="#FFF" points=".036 103.534 .036 103.534 0 91" mask="url(#ci-touchpoint-ans-b)"/>
    <polygon fill="#FFF" points=".036 103.534 .036 103.534 0 91" mask="url(#ci-touchpoint-ans-b)"/>
    <path fill="#FFF" d="M10.7276 84.3770512C9.21603373 85.2527799 7.99550033 87.3730843 8.00001247 89.1154902 8.00452461 90.8420561 9.23408228 91.5435442 10.7456486 90.6678155 12.259471 89.7943497 13.4800044 87.6740453 13.4754922 85.9452166 13.468724 84.2028107 12.2414224 83.5013226 10.7276 84.3770512M21.7276 78.3712213C20.2160337 79.24695 18.9955003 81.3672543 19.0000125 83.1096602 19.0045246 84.8362261 20.2340823 85.5377142 21.7456486 84.6619855 23.2436785 83.7953083 24.4642119 81.6750039 24.4596998 79.9484381 24.4551876 78.2060322 23.2256299 77.5045441 21.7276 78.3712213M31.7298561 72.3770512C30.2160337 73.2527799 28.9955003 75.3730843 29.0000125 77.1154902 29.0067807 78.8420561 30.2340823 79.5435442 31.7479047 78.6678155 33.259471 77.7943497 34.4800044 75.6740453 34.4754922 73.9452166 34.4709801 72.2028107 33.2414224 71.5013226 31.7298561 72.3770512" mask="url(#ci-touchpoint-ans-b)"/>
  </g>
</svg>
