<svg xmlns="http://www.w3.org/2000/svg" xmlns:xlink="http://www.w3.org/1999/xlink" width="370" height="315" viewBox="0 0 370 315">
  <defs>
    <linearGradient id="ci-usage-landing-a" x1="2.366%" x2="99.404%" y1="50%" y2="50%">
      <stop offset="0%" stop-color="#24C6DC"/>
      <stop offset="100%" stop-color="#514A9D"/>
    </linearGradient>
    <polygon id="ci-usage-landing-b" points="0 0 0 76 146.999 76 146.999 0"/>
    <polygon id="ci-usage-landing-d" points=".902 .951 112.38 .951 112.38 111.452 .902 111.452"/>
  </defs>
  <g fill="none" fill-rule="evenodd">
    <g transform="translate(232 70)">
      <g transform="translate(2)">
        <path fill="#9B9B9B" d="M76.9884203,112.531128 C76.9884203,120.854004 59.7983186,127.602049 38.5947254,127.602049 C17.3897085,127.602049 0.19960678,120.854004 0.19960678,112.531128 C0.19960678,104.208252 17.3897085,97.4602067 38.5947254,97.4602067 C59.7983186,97.4602067 76.9884203,104.208252 76.9884203,112.531128"/>
        <path fill="#54A5F8" d="M16.9596,73.7116045 C16.7004814,73.7000989 3.23912542,71.4349303 0.986786441,75.8243236 C-1.26697627,80.2137169 16.5951254,99.7430652 37.3530915,104.445987 C58.1110576,109.14747 83.3737017,108.497402 83.3737017,108.497402 C83.3737017,108.497402 83.5345831,104.108009 79.3516678,100.207604 C75.1673288,96.3057618 59.8807525,85.7407281 59.8807525,85.7407281 C59.8807525,85.7407281 27.4766847,74.1790202 16.9596,73.7116045"/>
        <polygon fill="#4D4D4D" points="9.788 37.498 11.581 36.375 23.466 40.734 25.404 64.562 24.131 65.809"/>
        <path fill="url(#ci-usage-landing-a)" d="M9.78813559,37.4981034 C9.78813559,37.9971596 12.920339,62.8119011 12.920339,62.8119011 L24.1307797,65.8091146 L21.8229153,41.9939236 L9.78813559,37.4981034"/>
        <path fill="#F2C15B" d="M25.9184136,50.3436944 C25.9184136,50.3436944 25.1823458,33.4793348 29.1303458,31.1667056 C29.1702102,31.1436944 29.2100746,31.1206831 29.2485153,31.0976719 C34.1575322,28.2140764 39.9464136,27.2878742 45.4904136,28.5247281 C55.9021424,30.8445483 71.6044475,35.4769978 74.1073627,42.6737618 C77.9044475,53.5882787 78.4881763,63.0300764 78.4881763,63.0300764 C78.4881763,63.0300764 72.6466169,69.2244135 67.973939,67.4539865 C67.973939,67.4539865 71.1858712,85.156818 65.0538712,90.1718292 C65.0538712,90.1718292 45.194278,99.9070202 29.7154983,81.3211326 L31.6346847,74.5356944 L31.6346847,53.2934472 C31.6346847,53.2934472 28.5466169,53.8831101 25.9184136,50.3436944"/>
        <path fill="#F4C4A4" d="M76.5393763,64.7805124 C77.4519864,68.6967371 79.1932068,81.8893663 76.6504271,89.5262202 C73.4228339,99.2139506 66.1504271,101.667524 66.1703593,101.61431 L53.8052746,104.44613 C53.8052746,104.44613 67.1057492,93.364782 68.4782237,87.7917483 C71.0323932,77.4194337 68.8868339,67.7000629 68.8868339,67.7000629 C71.9264949,67.6871191 74.3866983,66.5351191 76.5393763,64.7805124"/>
        <path fill="#54A5F8" d="M3.38477288,74.410427 C4.04680678,74.4406292 14.9910102,77.8621124 22.0712136,90.823191 C29.1514169,103.782831 38.323078,114.836854 38.323078,114.836854 L28.6687729,121.338966 L3.88877288,89.6409888 C3.88877288,89.6409888 -4.01719322,74.0853933 3.38477288,74.410427"/>
        <path fill="#54A5F8" d="M83.3742712,108.497402 C83.3742712,108.497402 85.538339,98.9549303 70.3400339,101.182706 C55.1417288,103.410481 22.1852542,114.287604 22.1852542,114.287604 L22.1852542,123.126796 C22.1852542,123.126796 81.1205085,116.299649 83.3742712,108.497402"/>
        <path fill="#417ED6" d="M31.6341153,29.6590382 C31.6341153,29.6590382 33.3126915,38.4622742 42.723539,35.4909483 L45.5154712,34.6007011 L48.4070644,38.247982 L56.0410983,31.3230382 L36.1402169,26.742364 L31.6341153,29.6590382 Z"/>
        <path fill="#F4C4A4" d="M32.0512678,6.3850427 C32.0512678,6.3850427 30.0067932,27.9221213 34.9713356,32.0526382 C39.9373017,36.1817169 46.3625898,32.0526382 46.3625898,32.0526382 L48.4070644,38.2469753 C48.4070644,38.2469753 54.2472,40.6070652 56.8768271,35.2972225 L54.8309288,25.5605933 C54.8309288,25.5605933 58.9213017,19.0714247 56.8768271,17.5958292 C54.8309288,16.1216719 51.3271322,19.6610876 51.3271322,19.6610876 L52.2027254,6.3850427 L32.0512678,6.3850427 Z"/>
        <path fill="#222" d="M31.6341153,12.5550742 C31.6341153,12.5550742 19.2362847,9.72037753 26.5699119,4.14302921 C33.9021153,-1.4357573 47.9329627,1.33422022 49.0192678,2.6012764 C49.0192678,2.6012764 57.911878,0.118939326 57.4477424,8.34977079 C56.9850305,16.579164 56.8754034,17.595973 56.8754034,17.595973 C55.055878,17.1256809 53.6136407,17.7498607 51.1192678,19.9618157 L50.6480136,9.08037753 C50.6480136,9.08037753 37.5141153,14.2924225 31.6341153,12.5550742"/>
        <polygon fill="#4C4C91" points="10.942 47.323 17.918 51.122 17.918 61.485 16.376 61.964 17.204 63.956 13.768 62.863"/>
        <path fill="#F4C4A4" d="M14.7336,60.6464 C14.7336,60.8132315 20.009939,74.8011865 23.1421424,72.6366921 C26.2743458,70.4721978 25.9184136,50.3431191 25.9184136,50.3431191 L34.6814644,51.3210966 C34.6814644,51.3210966 37.6485153,81.4629393 23.8013288,81.7966022 C9.95271864,82.1302652 8.96322712,61.6459506 8.96322712,61.6459506 L6.54573559,53.7502202 C5.93780339,51.7669393 6.79346441,49.6254562 8.59448136,48.6273438 L10.9422102,47.3228944 L16.2171254,50.4883775 L16.382278,59.7317034 L14.7336,60.6464 Z"/>
      </g>
      <polygon points="15 35.417 27.103 39.837 29.077 64 58 38.539 58 15.173 34.443 11"/>
      <g transform="translate(0 45)">
        <path fill="#3D82C1" d="M32.5269797 58.4692708C32.4425359 58.5322917 31.3404728 57.2432292 29.6759281 55.071875 28.0056585 52.9033854 25.7872198 49.846875 23.2896872 46.5167969 20.7892921 43.1852865 18.4234345 40.2591146 16.6214898 38.2152344 14.8281326 36.165625 13.6444882 34.9582031 13.7275007 34.869401 13.791907 34.800651 15.1143827 35.8691406 17.027965 37.839974 18.9472723 39.8036458 21.4047299 42.7011719 23.9137125 46.0455729 26.4212639 49.389974 28.5695713 52.4980469 30.1224784 54.7453125 31.6710917 56.9983073 32.6157172 58.4019531 32.5269797 58.4692708zM12.2729206 33.4803646C12.144108 33.6565365 11.4614014 33.3686458 10.6899572 32.937526 9.91851303 32.5021094 9.31881895 32.0695573 9.4018315 31.8676042 9.48055029 31.6685156 10.2534257 31.793125 11.0721012 32.2557552 11.8922078 32.7140885 12.4017331 33.3084896 12.2729206 33.4803646M76.4471997 56.4984375C76.4457685 56.6158854 75.015949 56.6717448 72.7202227 56.8221354 70.4244965 56.972526 67.260001 57.2532552 63.7963741 57.7960938 60.3327472 58.3432292 57.2355206 59.0464844 55.0042006 59.609375 52.7714494 60.1708333 51.3960174 60.5561198 51.3573736 60.4458333 51.3258861 60.3527344 52.6426368 59.7798177 54.8539193 59.0779948 57.0623392 58.3747396 60.1753097 57.5755208 63.6747178 57.0226562 67.174126 56.4740885 70.3829902 56.2778646 72.7001852 56.2692708 75.0202427 56.2592448 76.448631 56.3996094 76.4471997 56.4984375"/>
        <path fill="#3D82C1" d="M72.4441344 54.5843229C72.538597 54.7819792 71.659809 55.3978646 70.5620397 56.1011198 69.4628391 56.8000781 68.5339573 57.3400521 68.395126 57.1710417 68.2591572 57.0077604 68.9962513 56.1698698 70.1412519 55.4408333 71.2833901 54.7089323 72.3539656 54.3923958 72.4441344 54.5843229M26.1876837 75.3804818C26.2206025 75.5938932 25.8327335 75.8316536 25.321777 75.911862 24.8093892 75.990638 24.368564 75.8817839 24.3356452 75.6683724 24.3027265 75.4549609 24.6905954 75.2172005 25.2015519 75.1384245 25.7125085 75.0582161 26.154765 75.1670703 26.1876837 75.3804818M34.0665761 74.1076042C34.1009261 74.3210156 33.2479007 74.6389844 32.1601501 74.8165885 31.0723995 74.9941927 30.1635553 74.9655469 30.1292052 74.7521354 30.093424 74.538724 30.9464494 74.2221875 32.0342 74.0445833 33.1219506 73.8655469 34.0322261 73.8941927 34.0665761 74.1076042M41.9370241 72.7698438C41.9742367 72.9832552 41.1226425 73.3069531 40.0363231 73.4945833 38.9500038 73.6807813 38.038297 73.6607292 38.0025158 73.4473177 37.9667345 73.2339063 38.8168975 72.9102083 39.9032168 72.7225781 40.9895361 72.5363802 41.9012429 72.5578646 41.9370241 72.7698438M49.7984553 71.3626172C49.8370991 71.5745964 48.9897986 71.906888 47.9034793 72.1045443 46.8171599 72.3007682 45.9068844 72.2878776 45.8682407 72.0758984 45.8310281 71.8639193 46.6797598 71.5316276 47.7646479 71.3339714 48.8481048 71.1377474 49.7598115 71.150638 49.7984553 71.3626172M57.6438564 69.8694531C57.6853627 70.0814323 56.8409247 70.42375 55.7574679 70.6328646 54.6740111 70.8434115 53.7637356 70.8405469 53.7236605 70.6285677 53.6821543 70.4151562 54.5280235 70.0742708 55.6100491 69.8651563 56.6906434 69.6560417 57.6023501 69.657474 57.6438564 69.8694531M65.4639244 68.2588411C65.5097244 68.469388 64.6710115 68.8260286 63.5918484 69.053763 62.5112541 69.2814974 61.6009786 69.294388 61.558041 69.0824089 61.5136723 68.8704297 62.3523852 68.5152214 63.4301171 68.287487 64.5078489 68.0611849 65.4181244 68.0482943 65.4639244 68.2588411M73.2456349 66.4628906C73.2985912 66.6720052 72.469897 67.0501302 71.3950276 67.3079427 70.3201583 67.5643229 69.4084515 67.6015625 69.3612203 67.3910156 69.3125577 67.1804687 70.1426832 66.8023437 71.2132588 66.5459635 72.2824031 66.2895833 73.1926786 66.253776 73.2456349 66.4628906M80.9288753 64.2809375C80.9990066 64.4857552 80.1946436 64.9140104 79.1355181 65.2377083 78.07353 65.5614063 77.1675483 65.6530729 77.1102982 65.4453906 77.0530482 65.236276 77.8559799 64.8094531 78.9036554 64.4900521 79.951331 64.1692188 80.858744 64.0761198 80.9288753 64.2809375M86.0633443 61.6094271C86.2794632 61.6982292 86.1191631 62.2697135 85.6439879 62.5919792 85.1831251 62.9242708 84.7136748 62.9586458 84.6149185 62.7710156 84.5118685 62.5776562 84.7995499 62.2382031 85.1802626 61.9617708 85.5695628 61.6910677 85.867263 61.5277865 86.0633443 61.6094271"/>
        <path fill="#C1636C" d="M24.3336415,77.386263 C24.3336415,77.386263 2.91067985,84.5462891 1.27762272,82.5740234 C-0.355434418,80.6017578 2.56145466,77.9835286 6.63479437,75.220638 C10.7081341,72.4591797 22.3957279,66.7156901 22.3957279,66.7156901 L24.3336415,68.5833984 L24.3336415,77.386263 Z"/>
        <path fill="#A04A57" d="M23.5928261 67.8958984C23.6300386 68.0090495 22.2016503 68.5461589 19.9646054 69.5530599 17.7275604 70.5585286 14.6875837 72.0652995 11.5416945 74.0819661 9.96016243 75.0774089 8.52318665 76.1272786 7.21788594 77.0983724 5.91974149 78.0508464 4.74039085 78.9145182 3.7270653 79.6593099 2.73091476 80.3854818 1.8922018 80.9412109 1.35262026 81.3465495.813038716 81.7533203.568294833 82.0426432.521063557 82.0097005.479557285 81.982487.649876127 81.6172526 1.15224515 81.1159505 1.65747667 80.6189453 2.4360771 80.0030599 3.39072136 79.2195964 4.34965938 78.4432943 5.49322875 77.5251953 6.7827857 76.5225911 8.0680489 75.5171224 9.51790594 74.4314453 11.1209068 73.4216797 14.312596 71.3749349 17.4384477 69.9254557 19.751349 69.0417318 22.068544 68.1551432 23.5627698 67.8027995 23.5928261 67.8958984M14.9228814 80.1759375C14.8842376 80.2804948 14.5779499 80.2260677 14.3403623 79.9138281 14.1142247 79.6259375 13.8981058 79.2377865 13.7091807 78.7579688 13.3384868 77.8069271 13.305568 76.9590104 13.5130994 76.9074479 13.7234932 76.8544531 14.0855997 77.5734635 14.4391186 78.474375 14.6123 78.92125 14.7568563 79.358099 14.8255563 79.6502865 14.8871001 79.928151 14.9686814 80.0756771 14.9228814 80.1759375M17.2634058 79.6732031C17.2777183 79.6932552 17.2863058 79.7333594 17.2276245 79.7663021 17.1646495 79.7963802 17.0701869 79.7720312 17.0029181 79.7261979 16.8512055 79.5944271 16.7925243 79.495599 16.6708679 79.3208594 16.4533178 78.9885677 16.2128677 78.498724 16.0182176 77.9301042 15.6289174 76.7885677 15.5931361 75.7959896 15.8020987 75.7515885 16.0153551 75.7043229 16.3846178 76.5851823 16.7596055 77.6765885 16.9456681 78.2251562 17.0973807 78.7278906 17.1803932 79.1060156 17.219037 79.2821875 17.253387 79.4898698 17.2347807 79.5285417 17.2390745 79.5600521 17.2204682 79.5886979 17.2204682 79.6144792 17.2176057 79.6302344 17.2490933 79.6545833 17.2634058 79.6732031M19.9064966 78.9408724C19.726159 79.0525911 19.0620586 78.290612 18.6183709 77.1519401 18.1718206 76.0132682 18.1431956 75.0020703 18.3521582 74.9619661 18.5668458 74.9175651 18.9260898 75.7984245 19.3468775 76.8669141 19.7619402 77.9368359 20.0954217 78.8277214 19.9064966 78.9408724M20.5688794 79.3039583C20.5288044 79.2896354 20.5846232 78.973099 20.9610421 78.560599 21.3245798 78.1667187 22.0688302 77.6639844 23.1207996 77.735599 23.3755622 77.7642448 23.6503624 77.8086458 23.9294563 77.9561719 24.1870814 78.1022656 24.4933691 78.319974 24.5821066 78.766849 24.6178879 78.9845573 24.5620691 79.2194531 24.4261003 79.405651 24.2872689 79.5904167 24.1012063 79.7007031 23.9194375 79.7651562 23.5630561 79.9040885 23.1394058 79.8510937 22.8431369 79.7766146 22.6885618 79.7422396 22.5454368 79.7064323 22.4151929 79.6892448 22.3507866 79.680651 22.2878116 79.6734896 22.2305616 79.6749219 22.153274 79.6763542 22.1661553 79.6777865 22.0130115 79.6921094 21.9414489 79.7007031 21.7739926 79.6820833 21.65663 79.5875521 21.5435612 79.4973177 21.5006237 79.405651 21.4705674 79.3454948L21.3732424 79.096276C21.3145611 78.9430208 21.2544486 78.786901 21.194336 78.6307812 20.9581796 78.0020052 20.7220233 77.3402865 20.5316669 76.6398958 20.3384481 75.9323437 20.1996167 75.2161979 20.1581105 74.5129427 20.1237604 73.8354687 20.0922729 73.0648958 20.5416857 72.4017448L20.8651483 71.9247917 21.1456735 72.4189323C22.118924 74.1233594 22.1232178 75.8607292 21.8899239 76.955 21.650905 78.0736198 21.245861 78.6193229 21.1914735 78.5878125 21.102736 78.5505729 21.3574986 77.951875 21.4591174 76.8905469 21.559305 75.8478385 21.4433737 74.2708854 20.5302357 72.7913281L21.1356547 72.8085156C20.8765983 73.1938021 20.8694421 73.8139844 20.9223984 74.4585156 20.9710609 75.09875 21.1041672 75.761901 21.2859361 76.4336458 21.4677049 77.0982292 21.6895488 77.7413281 21.9142552 78.3658073 21.9700739 78.5219271 22.027324 78.6766146 22.0817115 78.8298698L22.1575678 79.0361198C22.1504115 79.0432812 22.1776053 79.0318229 22.141824 79.0504427L22.0516552 79.1034375C22.0058552 79.1349479 21.9843864 79.1564323 21.9743677 79.1693229 21.9528989 79.1908073 21.9944052 79.1922396 21.9829552 78.958776 21.9901115 78.9315625 22.1618615 78.9329948 22.2434428 78.9329948 22.3450616 78.9358594 22.4395242 78.9473177 22.529693 78.9630729 22.7100306 78.993151 22.8660369 79.0375521 23.009162 79.0747917 23.5444498 79.2652865 23.9981563 79.0590365 23.939475 78.8570833 23.939475 78.7510937 23.8020749 78.5820833 23.6317561 78.4818229 23.4685935 78.3772656 23.2567684 78.3242708 23.0563933 78.285599 22.2305616 78.1609896 21.5435612 78.4990104 21.165711 78.786901 20.7735483 79.0819531 20.6246982 79.3354687 20.5688794 79.3039583"/>
        <path fill="#A04A57" d="M19.9029184,71.1934635 C19.9415622,71.4211979 17.8318986,71.8909896 15.4817848,73.0611719 C13.120221,74.2098698 11.4614014,75.5963281 11.305395,75.4258854 C11.1551137,75.29125 12.6507708,73.5725 15.1368534,72.359349 C17.6129172,71.1304427 19.8886059,70.9929427 19.9029184,71.1934635"/>
        <path fill="#C1636C" d="M32.5269797,76.3288021 C32.5269797,76.3288021 44.6010112,92.2730729 48.2793257,89.5116146 C51.9590715,86.7501562 42.5385788,74.9165625 42.5385788,74.9165625 L32.5269797,76.3288021 Z"/>
        <path fill="#A04A57" d="M44.9798633 81.1404427C45.0943634 81.3295052 44.2155754 82.059974 43.1449998 82.9422656 42.3248931 83.6125781 41.6149927 84.1840625 41.2528863 84.3530729L40.4399358 84.7311979 41.0167299 84.1869271C41.1126237 84.098125 41.1856175 84.0623177 41.2314175 84.0852344 41.2772175 84.108151 41.29153 84.1869271 41.2786488 84.3172656L41.0424924 84.1511198C41.19993 83.7801562 41.7938991 83.0353646 42.649787 82.3364063 43.7704564 81.4140104 44.8725195 80.9585417 44.9798633 81.1404427M43.8491752 78.9612109C43.950794 79.1588672 43.0419497 79.8076953 42.0214679 80.689987 41.6064052 81.0494922 41.2070863 81.3975391 40.7061485 81.8329557 40.5386921 81.9804818 40.3640795 82.1007943 40.3182795 82.1280078 40.2853608 82.1580859 40.2653232 82.1609505 40.2424232 82.1738411 40.2209545 82.1910286 40.2324045 82.2268359 40.223817 82.2511849 40.218092 82.2741016 40.1880357 82.3070443 40.1207669 82.2741016 40.0520669 82.236862 40.0191481 82.1280078 40.0277356 82.0363411 40.0606544 81.8157682 40.1722919 81.6782682 40.2882233 81.4705859 40.5401234 81.0695443 40.9623424 80.562513 41.5133739 80.0941536 42.6168683 79.1445443 43.7604376 78.7707161 43.8491752 78.9612109M41.9244291 77.4848047C42.037498 77.6838932 41.1200662 78.3298568 40.0394719 79.0732161 38.9517213 79.8065495 38.2246459 80.5627995 38.0414458 80.4482161 37.8482269 80.3422266 38.4006897 79.2364974 39.5886279 78.4329818 40.753666 77.633763 41.8271041 77.3072005 41.9244291 77.4848047M38.5748729 77.5051432C38.6020667 77.5166016 38.5290729 77.6283203 38.3659103 77.5652995 38.1827102 77.4850911 38.1612415 77.2330078 38.1254602 77.0382161 38.0481727 76.5985026 37.9780414 75.9554036 37.9637289 75.1561849 37.9565726 74.7565755 37.9651601 74.3182943 37.9937851 73.8485026 38.0080976 73.6136068 38.0281352 73.3701172 38.0538977 73.1194661 38.0653477 73.0149089 38.0782289 72.8258464 38.1569477 72.6539714 38.1970227 72.5666016 38.2428228 72.4735026 38.3515978 72.3746745 38.4489229 72.2729818 38.6807855 72.1942057 38.8539668 72.2472005 39.0443232 72.2930339 39.1602545 72.4291016 39.2175045 72.5150391 39.2819108 72.6110026 39.3062421 72.6740234 39.3377296 72.7399089 39.4035671 72.873112 39.4593859 73.0091797 39.5066172 73.1524089 39.6039423 73.4360026 39.6755048 73.7367839 39.7055611 74.0461589 39.7728298 74.6634766 39.7069923 75.3180339 39.4880109 75.9396484 39.2747546 76.5641276 38.9155106 77.1227214 38.4560791 77.5595703 38.2242165 77.7772786 37.9365351 77.9806641 37.5916037 78.0751953 37.2481035 78.166862 36.9017408 78.1353516 36.6097656 78.0551432 36.3177905 77.9735026 36.0644591 77.8517578 35.8368902 77.7242839 35.7195276 77.6583984 35.6207713 77.5982422 35.5034088 77.5251953 35.441865 77.4836589 35.35599 77.4263672 35.2801337 77.3232422 35.2042774 77.2186849 35.1613398 77.0740234 35.1699274 76.9537109 35.1971211 76.4681641 35.6694339 76.2561849 35.9413715 76.2705078 36.2319154 76.2690755 36.4194093 76.3263672 36.6255094 76.3693359 38.2428228 76.7804036 38.9598794 77.5796224 38.8983356 77.6354818 38.8324981 77.7457682 38.0166851 77.1470703 36.5195968 76.9121745 36.3392592 76.8892578 36.1202779 76.8563151 35.9800153 76.8735026 35.8154215 76.8835286 35.8454777 76.9651693 35.7867964 76.9708984 35.7510152 76.963737 35.7123714 76.9966797 35.7753464 76.9551432 35.8368902 76.8978516 35.8025402 76.9465495 35.8569277 76.9565755L36.1574904 77.1155599C36.3650217 77.2186849 36.5782781 77.3060547 36.788672 77.3576172 37.222341 77.4621745 37.5715662 77.3619141 37.9279476 77.0038411 38.2828978 76.6529297 38.5748729 76.1960286 38.7494855 75.6832682 38.9298231 75.1719401 38.9899357 74.6305339 38.9427044 74.1220703 38.9240981 73.8671224 38.8697106 73.6207682 38.7981481 73.3873047 38.7623668 73.2698568 38.7208605 73.1567057 38.6707667 73.0478516 38.6478667 72.9919922 38.6221042 72.9318359 38.6120855 72.9189453L38.6077917 72.9117839C38.6407105 72.883138 38.6636105 72.8616536 38.6807855 72.8416016 38.7108418 72.814388 38.7251543 72.7570964 38.7108418 72.8086589 38.7265855 72.7327474 38.695098 72.7728516 38.7723856 72.8573568 38.7824043 72.8673828 38.8239106 72.9132161 38.8239106 72.9089193L38.8181856 72.9132161C38.8138918 72.9203776 38.8053043 72.9318359 38.7981481 72.9447266 38.7666606 73.0048828 38.7566418 73.0707682 38.7366043 73.2082682 38.7036855 73.4474609 38.6707667 73.6809245 38.6392792 73.9072266 38.5848917 74.3598307 38.5448167 74.7837891 38.5161917 75.1719401 38.4603729 75.9468099 38.4460604 76.5784505 38.4288854 77.0181641 38.4188666 77.2516276 38.4031229 77.386263 38.4503541 77.4320964 38.5004479 77.4951172 38.5576979 77.4850911 38.5748729 77.5051432"/>
        <path fill="#A04A57" d="M44.8695139,78.6128776 C44.9253326,78.5913932 45.058439,78.8191276 45.3117704,79.2115755 C45.560808,79.6083203 45.954402,80.156888 46.4424585,80.8544141 C46.91334,81.5548047 47.5359341,82.4213411 47.815028,83.6101432 C48.0969844,84.7903516 47.8808655,86.2383984 46.9863338,87.375638 C46.5354898,87.9285026 45.9114644,88.3782422 45.1758015,88.4885286 C44.4172386,88.5973828 43.774607,88.2837109 43.277963,88.0316276 C42.2388749,87.4988151 41.4244932,86.8184766 40.8348179,86.1768099 C39.6497423,84.8762891 39.3248484,83.8120964 39.4049984,83.7820182 C39.516636,83.7189974 40.01328,84.6628776 41.2255494,85.784362 C41.8295372,86.3415234 42.6224501,86.9273307 43.5971319,87.3842318 C44.0880509,87.6176953 44.59042,87.8153516 45.0613015,87.7294141 C45.5422017,87.6535026 46.0188082,87.3255078 46.3780522,86.8814974 C47.0965401,85.9748568 47.3169527,84.7545443 47.1094213,83.7591016 C46.91334,82.7407422 46.3866397,81.8813672 45.9744395,81.1508984 C45.5507892,80.4204297 45.2144453,79.8045443 45.0398327,79.3519401 C44.8637889,78.8993359 44.8237138,78.6300651 44.8695139,78.6128776"/>
        <path fill="#D89F3A" d="M70.3643839 22.4116146C70.0495088 22.4860938 69.177877 19.7403906 68.4193141 16.279974 67.6578887 12.818125 67.300076 9.96070313 67.619245 9.89625 67.9355514 9.83179687 68.8071831 12.5760677 69.5643148 16.0278906 70.3214464 19.4782812 70.6792591 22.3371354 70.3643839 22.4116146M52.4764686 36.7527214C52.3848686 37.0492057 48.3158226 35.9864453 43.6914513 33.6876172 39.0570613 31.4045443 35.745147 28.8135286 35.9240534 28.560013 36.1129785 28.2792839 39.6596179 30.3947786 44.2109954 32.6348828 48.7509228 34.8936068 52.5852437 36.431888 52.4764686 36.7527214M59.6823869 25.7951172C59.7396369 25.8251953 59.6723681 26.1761068 59.3302992 26.6988932 58.9968178 27.223112 58.3684987 27.9163411 57.4109919 28.5021484 56.4635039 29.1022786 55.2154532 29.5849609 53.809965 29.9215495 52.4001829 30.2552734 50.8544321 30.4858724 49.2013375 30.6147786 45.8980107 30.8912109 42.8480153 30.4600911 40.7841516 29.7468099 38.7045443 29.0478516 37.6239499 28.195638 37.6955125 28.0796224 37.7813875 27.9134766 38.9736194 28.4849609 41.0102893 28.9475911 43.0383716 29.4274089 45.9223419 29.708138 49.1125999 29.4431641 52.3028579 29.1867839 55.1954157 28.7098307 57.0059479 27.7788411 58.8565552 26.8879557 59.5163618 25.6848307 59.6823869 25.7951172"/>
        <path fill="#9B9B9B" d="M135.20949,45.1989453 L95.1888562,47.421862 L87.1981831,53.8213411 C89.6599344,57.8747266 92.4122296,61.8378776 96.0705066,64.8528516 C102.67716,70.2998568 112.097653,72.1145703 120.251488,69.5135286 C128.406755,66.912487 135.039172,59.9758984 137.276216,51.7072786 C138.047661,48.8570182 137.951767,45.1216016 135.32399,43.778112"/>
        <polygon fill="#78779D" points="121.538 53.895 128.575 46.626 135.209 45.199 130.894 16.049 126.192 21.188 121.294 21.082"/>
        <polygon fill="url(#ci-usage-landing-a)" points="94.387 5.984 121.294 21.083 121.537 53.895 91.976 36.287"/>
        <polygon fill="#313131" points="103.922 .112 100.988 4.516 94.387 5.984 105.529 12.235"/>
        <polygon fill="#222" points="130.893 16.05 113.816 5.959 103.921 .112 103.921 11.334 121.294 21.083 126.192 21.187"/>
        <polygon fill="#4F4E9F" points="113.69 2.271 120.67 6.174 120.67 10.008 122.211 10.919 122.211 6.595 120.67 3.806 113.69 .112 112.067 .846 112.067 4.925 113.816 5.959"/>
        <polygon fill="#446DAF" points="106.122 7.976 112.618 11.646 112.618 16.213 114.35 17.186 114.35 12.581 113.221 9.968 105.528 5.515 103.922 6.928 103.922 11.333 106.146 12.581"/>
        <polygon fill="#4F4E9F" points="126.192 21.188 128.577 46.627 121.538 53.894 121.294 21.083"/>
        <polygon fill="#78779D" points="115.038 69.979 122.076 62.71 128.71 61.283 124.395 32.135 119.693 37.272 114.795 37.166"/>
        <polygon fill="url(#ci-usage-landing-a)" points="87.887 22.068 114.795 37.167 115.038 69.978 85.477 52.371"/>
        <polygon fill="#313131" points="97.422 16.196 94.488 20.601 87.887 22.069 99.03 28.319"/>
        <polygon fill="#222" points="124.394 32.134 107.316 22.044 97.422 16.197 97.422 27.419 114.795 37.167 119.692 37.272"/>
        <polygon fill="#357604" points="107.19 18.355 114.17 22.258 114.17 26.093 115.711 27.004 115.711 22.679 114.17 19.891 107.19 16.197 105.568 16.93 105.568 21.009 107.317 22.044"/>
        <polygon fill="#446DAF" points="99.622 24.06 106.119 27.731 106.119 32.299 107.851 33.271 107.851 28.665 106.721 26.052 99.028 21.599 97.423 23.012 97.423 27.419 99.645 28.666"/>
        <polygon fill="#4F4E9F" points="119.693 37.272 122.077 62.711 115.038 69.978 114.795 37.167"/>
      </g>
    </g>
    <g transform="translate(0 239)">
      <mask id="ci-usage-landing-c" fill="#fff">
        <use xlink:href="#ci-usage-landing-b"/>
      </mask>
      <path fill="#9B9B9B" d="M146.999412,38.0001949 C146.999412,58.9859385 114.092972,76.0001949 73.499412,76.0001949 C32.907812,76.0001949 -0.000588,58.9859385 -0.000588,38.0001949 C-0.000588,17.0125026 32.907812,0.000194871795 73.499412,0.000194871795 C114.092972,0.000194871795 146.999412,17.0125026 146.999412,38.0001949" mask="url(#ci-usage-landing-c)"/>
    </g>
    <path fill="#3A3079" d="M73.140034,261 C73.140034,261 70.9061961,266.394893 71.0030616,269.532433 C71.0999271,272.669973 72.6537294,273.847549 72.6537294,273.847549 C72.6537294,273.847549 78.4814764,275.416319 80.2309866,275.514117 C81.97852,275.611916 87.7094015,280.220428 91.8845038,280.515819 C96.0635598,280.809215 101.405002,282.08459 101.988172,278.751452 C102.571342,275.416319 81.3953499,262.177576 81.3953499,262.177576 L73.140034,261 Z"/>
    <path fill="#68C1E0" d="M96.7689379,88 L101.072747,92.8670007 C101.072747,92.8670007 112.335537,133.942625 111.992312,137.422656 C111.64523,140.902688 107.14667,141.599082 104.379661,140.555461 C101.612651,139.511839 94,114.104117 94,114.104117 L96.7689379,88 Z"/>
    <path fill="#EEBCC5" d="M73.8827746 251.745043L73.0031034 263.11865C73.0031034 263.11865 72.763559 265.819412 76.4936065 265.993145 80.2196281 266.166879 81.3730642 262.980453 81.3730642 262.980453L84 246 73.8827746 251.745043zM50.0963995 261.492699L48 271.796521C48 271.796521 48.6445993 275.451815 51.8714673 274.953275 55.0963995 274.454735 56.0642664 269.967877 56.0642664 269.967877L58 259 50.0963995 261.492699z"/>
    <path fill="#3A3079" d="M48.32,270.16285 C48.32,270.16285 48.64064,273.10592 51.2,272.94307 C53.76128,272.778258 56,270 56,270 L55.36064,280.463594 C55.36064,280.463594 53.92064,296.159967 49.44128,297.794352 C44.96,299.430699 44,290.764339 44,290.764339 L48.32,270.16285 Z"/>
    <path fill="#54A5F8" d="M56.6782542,153.333308 C56.6782542,153.333308 57.5453576,169.67686 58.4124611,172.689055 C59.2775983,175.699298 56.6782542,215.699223 56.6782542,215.699223 C56.6782542,215.699223 47.58055,263.011969 48.0150848,265.592735 C48.4476534,268.173501 55.813117,266.88507 57.5453576,264.302352 C59.2775983,261.721586 70.1095094,222.582567 71.84175,211.398596 C73.5739907,200.216577 78.7726788,174.408915 78.7726788,174.408915 C78.7726788,174.408915 79.2052474,205.807587 79.2052474,208.388353 C79.2052474,210.969119 73.5739907,257.852388 73.5739907,257.852388 C73.5739907,257.852388 73.7863425,259.226715 78.1572517,259.868978 C79.5866943,260.079812 82.093626,259.597627 83.1317906,257.907049 C85.7154049,253.704031 86.570711,244.517128 86.570711,244.517128 C86.570711,244.517128 99.1348628,191.183895 98.2657931,185.590934 C97.4006559,179.999924 100,142.580766 100,142.580766 L93.0690712,140 L56.6782542,153.333308 Z"/>
    <path fill="#B5E7FE" d="M73.1402583,89.4566965 C73.1402583,89.4566965 87.6036757,84.8136569 93.5337361,86.2898246 C99.4637965,87.7659924 101.440483,91.7024397 101.934655,93.6706634 C102.428827,95.6388871 99.9579682,143.368311 99.9579682,143.368311 C99.9579682,143.368311 74.2610397,164.526716 63.3892623,159.114101 C55.539839,155.205208 54.9033459,150.78261 55.1563618,148.627405 C55.3105434,147.322473 55.4410047,146.015572 55.3975176,144.702767 L54,102.52767 L73.1402583,89.4566965 Z"/>
    <path fill="#68C1E0" d="M97.4290737,125.192364 L67.4541409,131.15605 L61.2022828,99.6196695 L60.5087296,98 L54,102.440332 L55.3989619,144.559602 C55.4404566,145.870669 55.3120208,147.17584 55.1559219,148.479045 C54.9464728,150.277585 55.3712988,153.658449 60.0937833,157 C70.0524953,151.907083 90.0805717,140.927139 98.1206509,132.76196 C102.720627,128.089686 97.4290737,125.192364 97.4290737,125.192364"/>
    <path fill="#B5E7FE" d="M68.0639085,117.214777 C68.0639085,117.214777 76.2051901,91.4693746 72.7992033,90 C72.7992033,90 52.9802527,96.6435325 50.547405,102.031239 C48.1145573,107.418946 48.6400524,112.197353 46.4504894,120.523809 C46.4504894,120.523809 41.3415092,138.4012 42.0713635,143.05422 C42.8012178,147.70724 47.6669133,150.156197 59.1012975,145.503178 C70.5356818,140.850158 99,129.584953 99,129.584953 L98.7567152,124.442141 L65.1834168,128.115578 L68.0639085,117.214777 Z"/>
    <path fill="#F7F7FB" d="M77.7538909,89.6196261 C77.7538909,89.6196261 72.5270156,91.0749234 72.041203,92.2886452 C71.5553904,93.502367 75.4438422,99.0839287 79.5761759,102.117259 C83.7085096,105.15059 86.3814544,106 86.3814544,106 C86.3814544,106 91.1205661,100.297651 90.9976497,92.4113811 C90.8786353,84.5231635 77.7538909,89.6196261 77.7538909,89.6196261"/>
    <path fill="#EEBCC5" d="M102.204589,79.2266105 C99.5958749,86.7959489 91.3422372,90.8142396 83.7725917,88.203643 C76.2049344,85.5930464 72.1844923,77.3417319 74.7971832,69.7743818 C77.4058974,62.2050434 85.6595351,58.1867527 93.2271923,60.795361 C100.79485,63.4059576 104.813303,71.6572721 102.204589,79.2266105"/>
    <path fill="#EEBCC5" d="M91,78.0542541 L86.2249309,92.8335166 C83.4025995,95.2671685 79.416321,95.6908407 76.1649645,93.8995941 C75.2703605,93.406952 74.8182488,92.3507274 75.0683531,91.3417964 L78.6256065,77 L91,78.0542541 Z"/>
    <path fill="#4C57A4" d="M102.577688,75.989442 C103.400887,75.9642367 104.273521,75.8760182 104.920474,75.378214 C104.950565,75.3572096 104.972059,75.325703 105,75.3025982 C104.993552,68.9550694 100.935589,63.0255282 94.4531651,60.8410709 C86.2706094,58.0831936 77.3508285,62.3302826 74.5287388,70.3245561 C74.3009083,70.9693911 74.1375581,71.618427 74,72.2695633 C74.6491021,72.6056336 75.3304444,72.8261798 76.0182348,72.8849921 C77.6151979,73.0215207 82.8875407,70.9315832 82.4060875,68.8038378 C82.6425154,69.8435554 82.876794,70.8853735 83.1132219,71.9271916 C84.2846149,71.4776975 85.183041,70.4106742 85.4130209,69.2029213 C89.8363725,73.6600544 96.2285239,76.1847829 102.577688,75.989442"/>
    <path fill="#68C1E0" d="M109,146 C105.151448,146 102,142.850483 102,139 C102,135.149517 105.151448,132 109,132 C112.850483,132 116,135.149517 116,139 C116,142.850483 112.850483,146 109,146"/>
    <path fill="#EEBCC5" d="M80.7525003 71.966487C79.9437337 74.315704 77.3836528 75.5622686 75.0343783 74.7535218 72.6851039 73.942748 71.4364817 71.380703 72.2472753 69.033513 73.0580689 66.684296 75.6181497 65.4377314 77.9674242 66.2464782 80.3166987 67.057252 81.5632939 69.6172701 80.7525003 71.966487M119 140.5C119 143.53899 116.537405 146 113.501021 146 110.462595 146 108 143.53899 108 140.5 108 137.463052 110.462595 135 113.501021 135 116.537405 135 119 137.463052 119 140.5M109 126.5C109 129.536948 106.537405 132 103.501021 132 100.462595 132 98 129.536948 98 126.5 98 123.463052 100.462595 121 103.501021 121 106.537405 121 109 123.463052 109 126.5"/>
    <path fill="#EEBCC5" d="M111.749815,130.649248 L107.818816,124.688048 C107.354557,123.986849 106.403738,123.787941 105.696198,124.248041 C104.986632,124.706131 104.785926,125.64843 105.250185,126.351639 L109.181184,132.312839 C109.645443,133.014038 110.596262,133.210936 111.303802,132.752846 C112.013368,132.292747 112.214074,131.352457 111.749815,130.649248"/>
    <polygon fill="#E0E4ED" points="121 128 103.554 138.647 99 144 116.639 133.646"/>
    <polygon fill="#252551" points="120.235 128 121 129.022 117.009 134.843 99.512 145 99 143.94 116.026 133.624"/>
    <g transform="translate(119)">
      <mask id="ci-usage-landing-e" fill="#fff">
        <use xlink:href="#ci-usage-landing-d"/>
      </mask>
      <path fill="#4D55A2" d="M56.6405069,0.949589655 C25.8565759,0.949589655 0.902368966,25.6868483 0.902368966,56.2007448 C0.902368966,86.7146414 25.8565759,111.4519 56.6405069,111.4519 C87.4244379,111.4519 112.38061,86.7146414 112.38061,56.2007448 C112.38061,25.6868483 87.4244379,0.949589655 56.6405069,0.949589655" mask="url(#ci-usage-landing-e)"/>
    </g>
    <path fill="url(#ci-usage-landing-a)" d="M175.499023,5 C147.056522,5 124,28.0569596 124,56.5 L124,56.5019543 C124,84.9430404 147.056522,108 175.499023,108 C203.941524,108 227,84.9430404 227,56.5019543 L227,56.5 C227,28.0569596 203.941524,5 175.499023,5"/>
    <path fill="#F3F1F8" d="M177.687106 55.2565378C175.111282 52.7293083 173.689253 49.3757948 173.665586 45.8055509L162.261746 45.8055509 160.47287 38.2644994 150.784932 35 149 40.1009012 155.80838 42.3959197 160.648405 62.8169403 162.305137 70 191.130303 70 194 57.5515564C192.041506 58.6061812 189.795056 59.2079947 187.406601 59.2079947 183.734178 59.2079947 180.282653 57.8031183 177.687106 55.2565378M173 78.5010016C173 81.5379712 170.537523 84 167.5 84 164.460474 84 162 81.5379712 162 78.5010016 162 75.4620288 164.460474 73 167.5 73 170.537523 73 173 75.4620288 173 78.5010016M191 78.5010016C191 81.5379712 188.537971 84 185.501002 84 182.462029 84 180 81.5379712 180 78.5010016 180 75.4620288 182.462029 73 185.501002 73 188.537971 73 191 75.4620288 191 78.5010016"/>
    <path fill="#F3F1F8" d="M183.396654,45.0640797 L185.486204,47.1532574 L190.603347,42.0389818 L192.473563,43.9108224 L185.486204,50.8949804 L181.524481,46.9339623 L183.396654,45.0640797 Z M186.996084,57 L187.000001,57 C193.072815,57 197.998041,52.0776077 197.999999,46.001958 C198.001958,39.9282663 193.076731,35 187.001959,35 L187.000001,35 C180.92327,35 176.000002,39.9243503 176.000002,45.998042 C175.996086,52.0717337 180.919354,57 186.996084,57 Z"/>
    <path stroke="#8581C5" stroke-width=".75" d="M123,124 L148,98"/>
  </g>
</svg>
