
<svg width="50px" height="60px" viewBox="0 0 50 60" version="1.1" xmlns="http://www.w3.org/2000/svg" xmlns:xlink="http://www.w3.org/1999/xlink">
    <!-- Generator: Sketch 47.1 (45422) - http://www.bohemiancoding.com/sketch -->
    <desc>Created with Sketch.</desc>
    <defs></defs>
    <g id="Page-1" stroke="none" stroke-width="1" fill="none" fill-rule="evenodd">
        <g id="2.0-ConsumerInsights_CopyNotReady" transform="translate(-595.000000, -1064.000000)" fill="#000000">
            <path d="M629.562583,1103.4105 L629.150931,1103.28786 L628.811041,1103.55083 C626.104703,1105.64767 622.90389,1106.80251 619.798679,1106.80251 C616.692977,1106.80251 613.49241,1105.64792 610.786072,1103.55083 L610.446428,1103.28786 L610.034775,1103.4105 C602.644201,1105.61695 595,1110.30586 595,1114.33416 L595,1124 L644.597359,1124 L644.597359,1114.33416 C644.597359,1110.30586 636.952912,1105.61695 629.562583,1103.4105 Z M610.109733,1105.13624 C613.033325,1107.29232 616.457782,1108.47517 619.798679,1108.47517 C623.139331,1108.47517 626.563542,1107.29232 629.487626,1105.136 C630.230812,1105.36701 630.962693,1105.62015 631.679583,1105.88975 C628.03738,1108.65728 623.861627,1110.17241 619.798679,1110.17241 C615.735486,1110.17241 611.559487,1108.65728 607.918022,1105.88975 C608.634666,1105.62015 609.366547,1105.36701 610.109733,1105.13624 Z M642.924453,1122.32734 L633.477828,1122.32734 L633.477828,1117.93212 L631.804922,1117.93212 L631.804922,1122.32734 L607.792191,1122.32734 L607.792191,1117.93212 L606.119531,1117.93212 L606.119531,1122.32734 L596.672906,1122.32734 L596.672906,1114.33416 C596.672906,1112.13777 600.75699,1108.93696 606.133539,1106.61008 C610.238021,1109.98588 615.077088,1111.84507 619.798679,1111.84507 C624.520026,1111.84507 629.359338,1109.98563 633.46382,1106.61008 C638.840615,1108.93672 642.924453,1112.13753 642.924453,1114.33416 L642.924453,1122.32734 Z M607.483268,1094.79897 C609.110462,1100.20428 614.429011,1104.37413 619.798679,1104.37413 C625.168347,1104.37413 630.486897,1100.20428 632.114091,1094.79897 C633.84426,1094.09265 635.560912,1091.57678 635.752361,1089.30077 C635.942582,1087.04074 634.973785,1085.95865 634.033252,1085.44033 C634.344141,1083.71434 634.588429,1082.21838 634.677887,1080.85588 C636.990514,1079.45945 637.833971,1077.78335 638.413233,1077.00109 C638.413233,1077.02788 637.318607,1075.83839 635.109201,1074.47416 C636.085616,1074.10822 637.161564,1073.87966 638.413233,1074.00475 C636.730988,1071.86858 633.745955,1070.28366 630.37827,1069.49427 C631.298159,1068.63041 632.446854,1068.06 633.920447,1068.17059 C629.147982,1065.68741 624.672398,1065.39274 620.306425,1066.7174 C620.7139,1065.77244 621.393187,1064.8383 622.494696,1064 C618.735264,1064.52519 614.440562,1066.06662 612.372224,1068.57094 C612.294071,1068.61272 612.217148,1068.65646 612.139732,1068.69947 C611.901834,1067.95973 611.777478,1066.9349 612.480851,1066.15436 C606.904988,1067.57314 605.323997,1074.08757 605.123455,1078.37564 C604.890718,1080.54081 605.173836,1082.87703 605.580573,1085.43149 C604.634879,1085.94611 603.653057,1087.02722 603.844752,1089.30102 C604.036447,1091.57678 605.753099,1094.09265 607.483268,1094.79897 Z M606.846742,1086.71265 L607.528242,1086.52144 L607.452056,1085.81782 C607.450335,1085.80283 607.449844,1085.78833 607.448124,1085.77334 L607.452793,1085.7726 C607.452793,1085.7726 607.051954,1079.87061 610.838911,1077.95489 C610.98686,1077.87846 611.147589,1077.82169 611.316919,1077.77819 C615.73696,1080.64747 619.018875,1083.69665 627.28166,1082.9714 C629.264228,1082.79765 630.870286,1082.44547 632.188557,1081.99449 C632.300134,1083.20512 632.289566,1084.48137 632.145303,1085.81782 L632.069117,1086.52144 L632.750616,1086.71265 C633.396972,1086.89426 634.238709,1087.34524 634.085845,1089.1602 C633.93126,1090.99457 632.324218,1093.12164 631.281939,1093.31162 L630.756498,1093.40722 L630.622312,1093.92455 C629.367448,1098.76411 624.511915,1102.70147 619.798679,1102.70147 C615.085443,1102.70147 610.229665,1098.76411 608.975047,1093.92455 L608.84086,1093.40722 L608.315174,1093.31162 C607.273141,1093.12164 605.666099,1090.99457 605.511268,1089.1602 C605.358404,1087.34524 606.200141,1086.89426 606.846742,1086.71265 Z M619.832103,1097.63188 C618.559544,1097.63188 617.276172,1097.38489 616.260926,1096.89066 L616.777765,1095.82946 C618.456324,1096.64662 621.21845,1096.64932 622.80878,1095.83486 L623.347,1096.88525 C622.375501,1097.38292 621.109332,1097.63188 619.832103,1097.63188 L619.832103,1097.63188 Z" id="Fill-4"></path>
        </g>
    </g>
</svg>