<svg xmlns="http://www.w3.org/2000/svg" xmlns:xlink="http://www.w3.org/1999/xlink" width="152" height="321" viewBox="0 0 152 321">
  <defs>
    <path id="ci-usage-ans-a" d="M4.47238854,0.119490741 L19.5502031,0.119490741 C19.9286397,0.74777066 20.0484337,1.4140913 19.91904,2.06728395 C19.95024,1.90679012 20.00432,1.74429012 20.00432,1.58179012 C20.00224,2.0712963 20.00224,2.5587963 20.00016,3.0462963 C20.93824,3.86481481 21.7224,4.8257716 22.3152,5.89104938 C22.31312,5.88503086 22.31312,5.87901235 22.31312,5.875 C22.34224,5.92515432 22.36096,5.97932099 22.388,6.02746914 C22.52944,6.29228395 22.66048,6.56111111 22.77904,6.83395062 C22.8248,6.94228395 22.86848,7.05061728 22.91008,7.16095679 C23.00576,7.4117284 23.09104,7.66651235 23.16592,7.92731481 C23.20336,8.04768519 23.2408,8.1720679 23.26992,8.29645062 C23.33856,8.5632716 23.38848,8.83209877 23.43216,9.10493827 C23.45088,9.2212963 23.47584,9.33564815 23.4904,9.45601852 C23.54032,9.84521605 23.56944,10.2384259 23.56944,10.6396605 C23.56944,11.7972222 23.35728,12.9026235 22.97872,13.9438272 L10.98336,20.6665123 L1.86672,15.5888889 C1.62336,15.1756173 1.39664,14.7523148 1.21776,14.3069444 C1.18864,14.2347222 1.15952,14.1665123 1.13248,14.0942901 C0.9328,13.570679 0.7768,13.0290123 0.66864,12.4733025 C0.6624,12.445216 0.64784,12.4171296 0.64576,12.3890432 C0.64784,12.3970679 0.65408,12.4030864 0.65824,12.4111111 C0.55008,11.8333333 0.48144,11.2455247 0.48144,10.6396605 C0.48144,7.65246914 1.85424,4.96219136 4.04864,3.04830247 C4.05072,2.54475309 4.05072,2.04320988 4.0528,1.53966049 C4.0528,1.54166667 4.05488,1.54567901 4.05488,1.54969136 C4.05399507,1.06574557 4.19316458,0.582162916 4.47238854,0.119490741 Z M19.85872,2.42037037 C19.81712,2.53873457 19.73184,2.65509259 19.6736,2.77345679 C19.73392,2.65509259 19.81712,2.53873457 19.85872,2.42037037 Z"/>
    <path id="ci-usage-ans-c" d="M1.73729393,0.781604938 C1.21655238,1.70951564 0.842754491,2.71709058 0.644512,3.77944109 L0.644512,7.24394608 C0.649013419,7.26882252 0.65359019,7.29367979 0.65824,7.31851852 C0.65408,7.31049383 0.64784,7.30447531 0.64576,7.29645062 C0.64784,7.32453704 0.6624,7.35262346 0.66864,7.38070988 C0.7768,7.93641975 0.9328,8.47808642 1.13248,9.00169753 C1.15952,9.07391975 1.18864,9.14212963 1.21776,9.21435185 C1.39664,9.65972222 1.62336,10.0830247 1.86672,10.4962963 L10.98336,15.5739198 L22.97872,8.85123457 C23.35728,7.81003086 23.56944,6.70462963 23.56944,5.5470679 C23.56944,5.14583333 23.54032,4.75262346 23.4904,4.36342593 C23.47584,4.24305556 23.45088,4.1287037 23.43216,4.01234568 C23.38848,3.73950617 23.33856,3.47067901 23.26992,3.20385802 C23.2408,3.07947531 23.20336,2.95509259 23.16592,2.83472222 C23.09104,2.57391975 23.00576,2.3191358 22.91008,2.0683642 C22.86848,1.95802469 22.8248,1.84969136 22.77904,1.74135802 C22.66048,1.46851852 22.52944,1.19969136 22.388,0.934876543 C22.36096,0.886728395 22.34224,0.832561728 22.31312,0.782407407 C22.31312,0.786419753 22.31312,0.792438272 22.3152,0.79845679 C22.3120725,0.792836601 22.3089397,0.787219315 22.3058015,0.781604938 L1.73729393,0.781604938 Z"/>
  </defs>
  <g fill="none" fill-rule="evenodd">
    <path fill="#E6BBA1" d="M90.0708904,99.9939692 C95.0393836,99.9198923 94.0797945,109.080738 98.6969178,117.445258 C101.061986,121.733488 101.709247,126.943565 105.701712,124.581335 C109.301712,122.451623 122.655822,111.770142 122.838699,110.848296 C123.019521,109.936738 123.658562,108.171238 124.22774,105.932469 C124.521575,104.765758 124.961301,102.430277 126.02363,101.088662 C127.001712,99.8519885 128.57774,99.5412769 129.405822,99.8952 C130.634589,100.419912 130.353082,101.907623 130.104452,102.701892 C131.047603,107.595085 140.853082,105.553854 142.946918,105.907777 C146.238699,106.471585 147.822945,108.549854 148.065411,108.831758 C151.240068,112.537662 146.719521,114.731162 144.522945,116.206527 C142.332534,117.68395 132.716096,119.216931 128.598288,119.068777 C124.564726,118.920623 108.650342,140.359719 99.7407534,138.230008 C90.8332192,136.092065 77.164726,107.537469 76.9325342,104.821315 C76.7085616,102.109277 83.7523973,100.084508 90.0708904,99.9939692"/>
    <path fill="#BBB4A7" d="M49.0391096,270.452788 C78.2192466,267.228385 107.308973,275.778096 114.007603,289.544058 C120.704178,303.324423 102.48637,317.100673 73.2980137,320.316846 C44.1219863,323.547423 15.0260959,315.003885 8.32952055,301.223519 C1.63294521,287.449327 19.854863,273.67925 49.0391096,270.452788"/>
    <path fill="#5E6A8B" d="M73.1609589,281.535108 C73.1609589,281.535108 78.2486301,286.533242 81.1952055,288.844031 C84.1376712,291.148646 87.5609589,294.004723 86.410274,296.434858 C85.2575342,298.875281 81.8958904,301.241627 73.3520548,296.434858 C64.5267123,291.471704 62.2458904,288.590935 62.1184932,285.895358 C61.9828767,283.008415 63.2712329,280.378685 63.2712329,280.378685 L73.1609589,281.535108 Z"/>
    <path fill="#6B3357" d="M80.5522603,168.85135 C80.5522603,168.85135 80.5522603,191.926312 78.6330822,214.237869 C76.7118493,236.543254 73.6378767,283.841369 73.6378767,283.841369 C73.6378767,283.841369 73.1303425,287.049312 67.755,285.514273 C62.3776027,283.973062 63.1440411,278.84735 63.1440411,276.540677 C63.1440411,274.234004 60.9022603,241.813004 61.8618493,236.804581 C63.1440411,230.133542 64.9378767,224.750619 63.6536301,220.651696 C62.3776027,216.5466 60.8406164,171.164196 60.8406164,171.164196 L80.5522603,168.85135 Z"/>
    <path fill="#5E6A8B" d="M49.8659589,287.42875 C49.8659589,287.42875 54.9474658,292.428942 57.8960959,294.737673 C60.8406164,297.044346 64.2659589,299.898365 63.115274,302.330558 C61.9625342,304.770981 58.6029452,307.137327 50.0570548,302.330558 C41.2255479,297.365346 38.9508904,294.484577 38.8234932,291.793115 C38.6878767,288.9 39.9762329,286.274385 39.9762329,286.274385 L49.8659589,287.42875 Z"/>
    <path fill="#6B3357" d="M57.2593151,174.746021 C57.2593151,174.746021 57.2593151,197.820983 55.3380822,220.134598 C53.4168493,242.437925 50.3449315,289.73604 50.3449315,289.73604 C50.3449315,289.73604 49.8312329,292.94604 44.4517808,291.406887 C39.0764384,289.86979 39.8449315,284.744079 39.8449315,282.437406 C39.8449315,280.128675 37.6010959,247.709733 38.5647945,242.697194 C39.8449315,236.026156 41.6387671,230.643233 40.3606849,226.546367 C39.0764384,222.441271 37.5394521,177.060925 37.5394521,177.060925 L57.2593151,174.746021 Z"/>
    <path fill="#2EADD0" d="M72.5679452,63.8658308 C72.5679452,63.8658308 82.0405479,63.5592346 88.8583562,73.2715423 C95.2138356,82.3151 95.9843836,100.8261 94.0179452,103.540196 C92.0556164,106.246062 84.0809589,106.964196 81.9830137,106.733735 C79.8809589,106.509446 71.610411,75.7839846 72.5679452,63.8658308"/>
    <path fill="#4863AA" d="M63.4869863,62.1204962 C71.2294521,62.1204962 79.5863014,63.1061308 82.039726,70.2422077 C84.5013699,77.3741692 88.4321918,93.6217077 85.4794521,98.2947269 C82.5349315,102.969804 80.8171233,126.349304 81.3020548,133.728188 C81.7952055,141.111188 86.0239726,165.517477 86.2684932,179.057092 C86.5150685,192.580246 83.9650685,200.845996 83.9650685,200.845996 C83.9650685,200.845996 81.9143836,207.768073 61.1773973,207.768073 C33.1130137,207.768073 31.8842466,199.8439 29.4328767,194.179073 C26.9712329,188.518362 28.4732877,161.046112 31.419863,149.230842 C34.3705479,137.417631 34.2452055,115.519669 34.7383562,105.675669 C35.2294521,95.8337269 30.6821918,78.3618615 39.5321918,70.6125923 C50.4554795,61.03815 55.7445205,62.1204962 63.4869863,62.1204962"/>
    <path fill="#CE5E1E" d="M43.3884247,32.5452846 C43.3884247,32.5452846 25.0000685,37.3952654 27.9486986,51.1262462 C30.8993836,64.8572269 29.095274,68.6598423 24.5356849,73.2670154 C24.5356849,73.2670154 36.3713014,73.02215 41.2267808,67.13715 C46.0822603,61.25215 49.5630822,56.54415 49.0637671,47.7660346 C48.5644521,38.9899769 43.3884247,32.5452846 43.3884247,32.5452846"/>
    <path fill="#CBA68F" d="M70.2322603,46.0921019 C70.2322603,46.0921019 68.7158219,66.5332173 66.4391096,68.1505635 C64.1706164,69.7679096 53.1795205,67.6073327 53.1795205,60.5926596 C53.1795205,53.588275 54.0897945,44.3410058 54.0897945,44.3410058 L70.2322603,46.0921019 Z"/>
    <path fill="#E6BBA1" d="M83.2832877,16.2796385 C83.2832877,16.2796385 85.1510959,57.3264846 71.8956164,59.2915808 C61.940137,60.7710615 48.9949315,52.5258885 48.5654795,38.9903885 C48.1257534,25.4569462 43.1983562,9.20735 52.5867123,9.18265769 C61.9689041,9.16413846 84.370274,7.14965769 83.2832877,16.2796385"/>
    <path fill="#CE5E1E" d="M65.7503425,1.37145192 C65.7503425,1.37145192 79.6119863,1.41466346 84.5496575,9.94585577 C89.1174658,17.8391635 86.8428082,25.7324712 83.384589,26.2242596 C79.5215753,26.7716058 56.8695205,31.7717981 51.6256849,26.8209904 C46.3797945,21.8763558 37.3017123,20.9750865 43.0900685,8.47460577 C48.8866438,-4.01970192 65.7503425,1.37145192 65.7503425,1.37145192"/>
    <path fill="#CE5E1E" d="M41.3336301,16.5026923 C41.3336301,16.5026923 39.2233562,32.4600962 44.2144521,38.6167115 C49.2096575,44.7712692 54.5870548,39.5776538 54.3918493,36.8861923 C54.2007534,34.1926731 54.3918493,29.0011154 53.8185616,23.6181923 C53.2391096,18.2311538 42.1041781,13.0395962 41.3336301,16.5026923"/>
    <path fill="#E6BBA1" d="M54.5905479,37.0715904 C54.5905479,37.0715904 47.7234247,28.7976096 46.1453425,34.6229365 C44.5672603,40.4462058 49.2480822,45.1336288 52.2090411,44.3126096 C55.17,43.4957058 54.5905479,37.0715904 54.5905479,37.0715904"/>
    <polygon fill="#A97E11" points="58.239 134.283 58.193 150.043 55.952 151.348 55.997 135.588"/>
    <polygon fill="#75570C" points="55.996 135.589 55.951 151.348 52.854 149.558 52.899 133.798"/>
    <polygon fill="#BD8C13" points="58.239 134.283 55.997 135.588 52.9 133.8 55.142 132.493"/>
    <polygon fill="#A0A0A0" points="68.116 160.526 66.111 186.793 42.762 200.694 40.905 176.36"/>
    <polygon fill="#8B8B8B" points="40.905 176.361 42.763 200.695 9.391 182.217 5.604 155.952"/>
    <polygon fill="#787878" points="68.116 160.526 40.905 176.36 5.605 155.952 32.815 140.116"/>
    <polygon fill="#C59214" points="33.098 138.924 33.086 144.178 7.985 158.785 7.999 153.532"/>
    <polygon fill="#89650E" points="65.666 157.753 65.652 163.004 33.085 144.176 33.098 138.925"/>
    <polygon fill="#89650E" points="41.595 176.989 41.581 182.242 0 158.204 .015 152.951"/>
    <polygon fill="#C59214" points="73.647 158.337 73.632 163.59 41.581 182.241 41.596 176.988"/>
    <path fill="#DCA316" d="M40.565137,172.358892 L65.6665068,157.753392 L33.0980137,138.92345 L7.99869863,153.531008 L40.565137,172.358892 Z M32.0665068,134.297758 L73.6473288,158.337777 L41.594589,176.9887 L0.0158219178,152.950738 L32.0665068,134.297758 Z"/>
    <g transform="translate(29 148)">
      <g transform="translate(0 2.932)">
        <mask id="ci-usage-ans-b" fill="#fff">
          <use xlink:href="#ci-usage-ans-a"/>
        </mask>
        <path fill="#BF5351" d="M23.56944,10.6398611 C23.56944,16.4477315 18.40064,21.1582253 12.02544,21.1582253 C5.65024,21.1582253 0.48144,16.4477315 0.48144,10.6398611 C0.48144,4.82998457 5.65024,0.119490741 12.02544,0.119490741 C18.40064,0.119490741 23.56944,4.82998457 23.56944,10.6398611" mask="url(#ci-usage-ans-b)"/>
      </g>
      <g transform="translate(0 8.025)">
        <mask id="ci-usage-ans-d" fill="#fff">
          <use xlink:href="#ci-usage-ans-c"/>
        </mask>
        <path fill="#A64846" d="M22.313952,0.781604938 C22.417952,1.3533642 22.476192,1.93515432 22.476192,2.53098765 C22.476192,8.3408642 17.309472,13.051358 10.934272,13.051358 C6.441472,13.051358 2.551872,10.7121605 0.644512,7.29765432 C1.557632,12.2749691 6.304192,16.0666358 12.024192,16.0666358 C18.401472,16.0666358 23.570272,11.356142 23.570272,5.54626543 C23.570272,3.83098765 23.114752,2.21200617 22.313952,0.781604938" mask="url(#ci-usage-ans-d)"/>
      </g>
      <path fill="#B8B8B8" d="M20.004528,4.51489198 C20.002448,5.17492284 20.000368,5.8349537 19.998288,6.49498457 C19.994128,7.62646605 19.224528,8.75794753 17.681168,9.62260802 C14.575728,11.3619599 9.525488,11.363966 6.401328,9.62260802 C4.828848,8.74791667 4.044688,7.59837963 4.046768,6.45084877 C4.050928,5.7908179 4.050928,5.13078704 4.053008,4.47075617 C4.050928,5.61828704 4.835088,6.76782407 6.407568,7.6445216 C9.531728,9.38387346 14.584048,9.38186728 17.685328,7.64251543 C19.226608,6.77986111 20.000368,5.64637346 20.004528,4.51489198"/>
      <path fill="#DCDCDC" d="M17.649344,1.3429321 C20.773504,3.08228395 20.790144,5.90296296 17.686784,7.64231481 C14.583424,9.38166667 9.533184,9.38367284 6.406944,7.64432099 C3.280704,5.90296296 3.266144,3.08228395 6.369504,1.3429321 C9.474944,-0.398425926 14.525184,-0.398425926 17.649344,1.3429321"/>
    </g>
    <g transform="translate(14 70)">
      <polygon fill="#A97E11" points="7.601 85.506 7.558 101.284 5.323 102.581 5.366 86.804"/>
      <polygon fill="#75570C" points="5.367 86.805 5.323 102.582 2.219 100.79 2.263 85.012"/>
      <polygon fill="#BD8C13" points="7.601 85.506 5.366 86.804 2.262 85.012 4.497 83.714"/>
      <path fill="#E6BBA1" d="M8.68534925,39.34909 C8.68534925,39.34909 4.97994627,61.00381 6.49588657,63.97845 C8.01182687,66.94897 18.332991,73.86027 26.5512,76.82667 C34.7611701,79.78689 41.2039164,80.44609 44.3902746,81.74389 C47.5766328,83.03551 51.8546328,85.01517 56.2582746,82.09615 C60.6598567,79.17919 64.9275582,71.12253 60.0604836,68.15819 C55.193409,65.19179 50.4107821,66.59259 47.2058866,68.39303 C44.000991,70.18523 42.0813493,69.42715 39.5129015,68.72881 C37.0268418,68.06137 30.2092299,61.08827 21.9374687,57.35967 L25.9724239,43.14155 L8.68534925,39.34909 Z"/>
      <path fill="#2EADD0" d="M18.0143552,3.2136 C22.045191,-1.1845 31.050206,-1.98172 34.0450119,7.22854 C37.0356985,16.4388 29.9791612,44.39506 26.0863254,45.7114 C23.5734896,46.57248 20.1873403,46.45918 15.7280866,45.53218 C10.2987134,44.39712 8.67360896,39.85276 7.59844478,37.83396 C5.91360896,34.6801 11.198803,10.65432 18.0143552,3.2136"/>
      <polygon fill="#AE8112" points="4.92 88.022 .613 85.517 .597 79.539 4.904 82.044"/>
      <polygon fill="#FFBE1A" points="4.903 82.043 .598 79.54 40.066 56.748 44.373 59.251"/>
      <polygon fill="#EBAE18" points="44.373 59.25 44.389 65.228 4.919 88.022 4.903 82.042"/>
      <path fill="#BF5351" d="M137.107943,32.337262 C137.107943,38.303022 131.989585,43.139902 125.6766,43.139902 C119.363615,43.139902 114.245257,38.303022 114.245257,32.337262 C114.245257,26.371502 119.363615,21.534622 125.6766,21.534622 C131.989585,21.534622 137.107943,26.371502 137.107943,32.337262"/>
      <path fill="#A64846" d="M135.865943,27.443732 C135.968928,28.028772 136.0266,28.628232 136.0266,29.240052 C136.0266,35.205812 130.908242,40.042692 124.597316,40.042692 C120.148361,40.042692 116.296719,37.640732 114.407973,34.134612 C115.312182,39.243412 120.012421,43.138872 125.6766,43.138872 C131.989585,43.138872 137.107943,38.301992 137.107943,32.336232 C137.107943,30.574932 136.658928,28.912512 135.865943,27.443732"/>
      <path fill="#B8B8B8" d="M133.577821,23.037186 C133.575761,23.714926 133.573701,24.392666 133.571642,25.070406 C133.569582,26.232246 132.805433,27.394086 131.277134,28.281946 C128.20406,30.067966 123.203104,30.070026 120.107373,28.281946 C118.550239,27.383786 117.773731,26.203406 117.775791,25.025086 C117.77991,24.347346 117.77991,23.669606 117.78197,22.991866 C117.77991,24.170186 118.556418,25.350566 120.113552,26.250786 C123.207224,28.036806 128.212299,28.036806 131.283313,26.250786 C132.809552,25.362926 133.573701,24.199026 133.577821,23.037186"/>
      <path fill="#DCDCDC" d="M131.246651,19.78012 C134.340322,21.56614 134.3568,24.4625 131.283725,26.25058 C128.210651,28.0366 123.207636,28.0366 120.113964,26.25058 C117.018233,24.4625 117.003815,21.56614 120.07689,19.78012 C123.149964,17.99204 128.152979,17.99204 131.246651,19.78012"/>
    </g>
  </g>
</svg>
