
<svg width="61px" height="60px" viewBox="0 0 61 60" version="1.1" xmlns="http://www.w3.org/2000/svg" xmlns:xlink="http://www.w3.org/1999/xlink">
    <!-- Generator: Sketch 46.2 (44496) - http://www.bohemiancoding.com/sketch -->
    <desc>Created with Sketch.</desc>
    <defs>
        <linearGradient x1="2.36567283%" y1="50%" x2="99.4040976%" y2="50%" id="linearGradient-1">
            <stop stop-color="#24C6DC" offset="0%"></stop>
            <stop stop-color="#514A9D" offset="100%"></stop>
        </linearGradient>
    </defs>
    <g id="Page-1" stroke="none" stroke-width="1" fill="none" fill-rule="evenodd">
        <g id="consumer-insights" transform="translate(-595.000000, -1558.000000)" fill-rule="nonzero">
            <g id="original" transform="translate(245.000000, 1064.000000)">
                <g id="loyalty" transform="translate(350.000000, 494.000000)">
                    <path d="M1,1.4480936 L2.4480936,-2.37365683e-13 L5.34428079,2.89618719 L3.89618719,4.34428079 L1,1.4480936 Z M7.65571921,8.10381281 L9.10381281,6.65571921 L12,9.5519064 L10.5519064,11 L7.65571921,8.10381281 Z M1,9.5519064 L3.89618719,6.65571921 L5.34428079,8.10381281 L2.4480936,11 L1,9.5519064 Z M7.65571921,2.89618719 L10.5519064,-7.14983628e-14 L12,1.4480936 L9.10381281,4.34428079 L7.65571921,2.89618719 Z M5.220054,4.7320324 L7.2679676,4.7320324 L7.2679676,6.779946 L5.220054,6.779946 L5.220054,4.7320324 Z" id="Combined-Shape" fill="url(#linearGradient-1)"></path>
                    <path d="M50,9.4480936 L51.4480936,8 L54.3442808,10.8961872 L52.8961872,12.3442808 L50,9.4480936 Z M56.1437408,16.1038128 L57.5918344,14.6557192 L60.4880216,17.5519064 L59.039928,19 L56.1437408,16.1038128 Z M50,17.5519064 L52.8961872,14.6557192 L54.3442808,16.1038128 L51.4480936,19 L50,17.5519064 Z M56.6557192,10.8961872 L59.5519064,8 L61,9.4480936 L58.1038128,12.3442808 L56.6557192,10.8961872 Z M54.220054,12.7320324 L56.2679676,12.7320324 L56.2679676,14.779946 L54.220054,14.779946 L54.220054,12.7320324 Z" id="Combined-Shape" fill="url(#linearGradient-1)"></path>
                    <path d="M48.5548327,31.3405489 L51.4446595,28.0426881 L47.7853841,24.5880525 L48.1459679,24.1874323 L44.5600514,20.7946502 L45.1203216,20.1931252 L39.949805,15.2986121 L39.5314481,15.7477634 L38.4144234,14.6955407 C39.0805132,14.503438 39.7203532,14.2055898 40.3120294,13.8029474 C41.7917473,12.7956874 42.7963899,11.2637433 43.1410363,9.48961909 L43.3181056,8.57763717 L29.635842,5.26217193 L28.1763974,6.52005751 L20.6347228,3 L20.2194128,3.82847973 C19.4115269,5.44023857 19.2700824,7.27490781 19.8216807,8.99455339 C20.2034754,10.1851138 20.8860886,11.2213975 21.7967473,12.0188315 L20.6412853,13.0147914 L16.620137,11.3432012 L14.9953418,16.5132002 L15.0058886,18.6542821 L11.3918473,35.2871575 L12.9959004,36.0393909 L0,54.7108141 L1.55647526,55.8269125 L14.755226,36.8641832 L30.9102486,44.4392118 L34.760187,43.9800687 L35.328543,44.844709 L26.0055117,46.2837539 L17.8457939,58.9333844 L19.4401205,59.992982 L27.133552,48.0662045 L36.4960752,46.6209743 L45.2904768,60 L46.87578,58.9263664 L35.6974471,41.9205859 L31.2216139,42.45431 L13.5832407,34.1835487 L14.1081205,31.7679326 L18.1707529,33.210427 L18.8000461,31.38456 L14.5215555,29.8654624 L15.2566684,26.4825531 L19.3142618,27.9232633 L19.943555,26.0973963 L15.6699863,24.5800829 L16.6586915,20.0300461 L21.0929233,21.604455 L21.7222165,19.7785879 L16.9090025,18.0696478 L16.9029088,16.8096211 L17.8087628,13.9272491 L29.4388509,18.7619309 L26.9998418,21.6293153 L30.7528667,25.1737573 L29.4983818,26.5206168 L34.6688984,31.4150109 L35.3110822,30.7254636 L39.0660992,34.2781132 L41.0317908,32.0938528 L44.7879798,35.6399602 L47.2541762,32.825627 L58.4407123,48.9867508 L60,47.8746966 L48.5548327,31.3405489 Z M21.6337404,8.39564521 C21.3357344,7.46629674 21.3209688,6.48972552 21.5813579,5.57096351 L26.5739849,7.90117426 L23.2752933,10.7442931 C22.5092431,10.1539492 21.937723,9.34354973 21.6337404,8.39564521 Z M22.6273674,13.8400595 L30.1329484,7.3712565 L41.0101113,10.0069283 C40.6562071,10.8930982 40.0505856,11.6519928 39.25102,12.1964223 C38.4641106,12.7322876 37.5590768,13.0119366 36.6328322,13.0169325 L36.517872,12.90857 L35.5613932,12.90857 L31.5709478,12.3491529 L29.5504128,16.7179114 L22.6273674,13.8400595 Z M33.0555876,14.5093855 L32.2262565,15.4844104 L32.70016,14.4595459 L33.0555876,14.5093855 Z M29.6419357,21.4826512 L35.2894026,14.8431564 L35.4227612,14.8431564 C35.5601041,14.8681357 35.6974471,14.888357 35.8349072,14.904653 L38.1747763,17.1087778 L32.0542262,23.7608812 L29.6419357,21.4826512 Z M34.5491335,28.6569407 L32.2016473,26.4348546 L32.3218809,26.3041296 L40.034531,18.0238524 L42.2395181,20.1110504 L34.5491335,28.6569407 Z M39.6360959,30.7763738 L38.9571155,31.5308673 L36.6200589,29.3197245 L43.2511919,22.2005084 L45.3576249,24.1933798 L39.610432,30.7519893 L39.6360959,30.7763738 Z M44.6587227,32.8764183 L42.3168614,30.6653944 L46.5004307,26.016511 L48.7822923,28.1707961 L44.6587227,32.8764183 Z" id="Shape" fill="#333333"></path>
                </g>
            </g>
        </g>
    </g>
</svg>