<?xml version="1.0" encoding="UTF-8"?>
<svg width="19px" height="18px" viewBox="0 0 19 18" version="1.1" xmlns="http://www.w3.org/2000/svg" xmlns:xlink="http://www.w3.org/1999/xlink">
    <!-- Generator: Sketch 47.1 (45422) - http://www.bohemiancoding.com/sketch -->
    <title>outline-brush-24px</title>
    <desc>Created with Sketch.</desc>
    <defs>
        <linearGradient x1="2.21420599%" y1="58.5698485%" x2="100%" y2="58.5698485%" id="linearGradient-1">
            <stop stop-color="#4BAD00" offset="0%"></stop>
            <stop stop-color="#71DF55" offset="100%"></stop>
        </linearGradient>
    </defs>
    <g id="Page-1" stroke="none" stroke-width="1" fill="none" fill-rule="evenodd">
        <g id="Careers-Page" transform="translate(-169.000000, -1409.000000)" fill-rule="nonzero" fill="url(#linearGradient-1)">
            <g id="outline-brush-24px" transform="translate(169.000000, 1409.000000)">
                <g id="Outline_1_">
                    <path d="M5,13 C5.55,13 6,13.45 6,14 C6,15.1 5.1,16 4,16 C3.83,16 3.67,15.98 3.5,15.95 C3.81,15.4 4,14.74 4,14 C4,13.45 4.45,13 5,13 L5,13 Z M16.67,0 C16.41,0 16.16,0.1 15.96,0.29 L7,9.25 L9.75,12 L18.71,3.04 C19.1,2.65 19.1,2.02 18.71,1.63 L17.37,0.29 C17.17,0.09 16.92,0 16.67,0 L16.67,0 Z M5,11 C3.34,11 2,12.34 2,14 C2,15.31 0.84,16 0,16 C0.92,17.22 2.49,18 4,18 C6.21,18 8,16.21 8,14 C8,12.34 6.66,11 5,11 L5,11 Z" id="Shape"></path>
                </g>
            </g>
        </g>
    </g>
</svg>