<?xml version="1.0" encoding="UTF-8"?>
<svg width="60px" height="25px" viewBox="0 0 60 19" version="1.1" xmlns="http://www.w3.org/2000/svg" xmlns:xlink="http://www.w3.org/1999/xlink">
    <!-- Generator: Sketch 53.2 (72643) - https://sketchapp.com -->
    <title>EVERY</title>
    <desc>Created with Sketch.</desc>
    <defs>
        <linearGradient x1="2.21420599%" y1="58.5698485%" x2="100%" y2="58.5698485%" id="linearGradient-1">
            <stop stop-color="#4BAD00" offset="0%"></stop>
            <stop stop-color="#71DF55" offset="100%"></stop>
        </linearGradient>
    </defs>
    <g id="Page-1" stroke="none" stroke-width="1" fill="none" fill-rule="evenodd">
        <g id="Landing_Dropdown_product" transform="translate(-794.000000, -268.000000)" fill="url(#linearGradient-1)" fill-rule="nonzero">
            <g id="Group-65" transform="translate(469.000000, 74.000000)">
                <g id="Group-64" transform="translate(267.000000, 194.000000)">
                    <g id="EVERY" transform="translate(58.000000, 0.000000)">
                        <g id="path-1-link">
                            <path d="M11.4665922,2.88149802 C11.4487,2.96961768 11.4084432,3.04451825 11.3458206,3.106202 C11.2831979,3.16788576 11.2071574,3.19872717 11.1176965,3.19872717 L5.66955557,3.19872717 C5.58009468,3.19872717 5.53536491,3.24278633 5.53536491,3.33090598 L4.99860226,7.50775632 C4.99860226,7.59587598 5.03438607,7.63993514 5.10595479,7.63993514 L8.24601629,7.63993514 C8.33547717,7.63993514 8.40704482,7.67077655 8.46072135,7.7324603 C8.51439788,7.79414406 8.53228979,7.86904463 8.51439762,7.95716428 L8.19234003,10.5214332 C8.17444785,10.6095528 8.13419105,10.6844534 8.07156843,10.7461371 C8.00894581,10.8078209 7.93290519,10.8386623 7.8434443,10.8386623 L4.73022093,10.8386623 C4.62286786,10.8386623 4.56919214,10.8827215 4.56919214,10.9708411 L4.05926762,15.1741272 C4.02348326,15.2622469 4.05926708,15.306306 4.16662015,15.306306 L9.58792295,15.306306 C9.67738377,15.306306 9.75342442,15.3371474 9.81604704,15.3988312 C9.87866966,15.4605149 9.90103456,15.5354155 9.8831424,15.6235352 L9.56108475,18.1878041 C9.54319259,18.2759237 9.5029358,18.3508243 9.44031318,18.412508 C9.37769056,18.4741918 9.30164992,18.5050332 9.2121891,18.5050332 L0.275090934,18.5050332 C0.185630044,18.5050332 0.114062407,18.4741918 0.0603858734,18.412508 C0.00670933989,18.3508243 -0.011182569,18.2759237 0.00670960854,18.1878041 L2.2342746,0.317229141 C2.25216679,0.229109494 2.29242358,0.154208918 2.3550462,0.092525166 C2.41766882,0.0308414136 2.49370944,0 2.58317033,0 L11.5202684,0 C11.6097294,0 11.681297,0.0308414136 11.7349735,0.092525166 C11.7886501,0.154208918 11.8065419,0.229109494 11.7886498,0.317229141 L11.4665922,2.88149802 Z M14.875035,18.5050332 C14.678221,18.5050332 14.5798156,18.408103 14.5798156,18.2142398 L13.0768802,0.343664902 L13.0768802,0.290793379 C13.0768802,0.0969301568 13.1842316,0 13.3989377,0 L16.7537043,0 C16.9505182,0 17.0489237,0.0969301568 17.0489237,0.290793379 L17.3978195,11.9225285 C17.3978195,11.9930242 17.4201844,12.0282716 17.4649148,12.0282716 C17.5096452,12.0282716 17.5409561,11.9930242 17.5588482,11.9225285 L20.752586,0.290793379 C20.8062626,0.0969301568 20.9315059,0 21.1283199,0 L24.3757339,0 C24.5904401,0 24.6620077,0.114553822 24.590439,0.343664902 L18.6055355,18.2142398 C18.5518589,18.408103 18.4266155,18.5050332 18.2298016,18.5050332 L14.875035,18.5050332 Z M35.5940733,2.88149802 C35.5761811,2.96961768 35.5359243,3.04451825 35.4733017,3.106202 C35.4106791,3.16788576 35.3346384,3.19872717 35.2451776,3.19872717 L29.7970367,3.19872717 C29.7075758,3.19872717 29.662846,3.24278633 29.662846,3.33090598 L29.1260834,7.50775632 C29.1260834,7.59587598 29.1618672,7.63993514 29.2334359,7.63993514 L32.3734974,7.63993514 C32.4629583,7.63993514 32.5345259,7.67077655 32.5882024,7.7324603 C32.641879,7.79414406 32.6597709,7.86904463 32.6418787,7.95716428 L32.3198212,10.5214332 C32.3019289,10.6095528 32.2616721,10.6844534 32.1990495,10.7461371 C32.1364269,10.8078209 32.0603864,10.8386623 31.9709254,10.8386623 L28.8577021,10.8386623 C28.750349,10.8386623 28.6966733,10.8827215 28.6966733,10.9708411 L28.1867488,15.1741272 C28.1509644,15.2622469 28.1867482,15.306306 28.2941013,15.306306 L33.715404,15.306306 C33.8048649,15.306306 33.8809056,15.3371474 33.9435282,15.3988312 C34.0061508,15.4605149 34.0285157,15.5354155 34.0106235,15.6235352 L33.6885659,18.1878041 C33.6706737,18.2759237 33.6304169,18.3508243 33.5677943,18.412508 C33.5051717,18.4741918 33.4291311,18.5050332 33.3396701,18.5050332 L24.402572,18.5050332 C24.3131112,18.5050332 24.2415435,18.4741918 24.187867,18.412508 C24.1341905,18.3508243 24.1162985,18.2759237 24.1341907,18.1878041 L26.3617557,0.317229141 C26.3796479,0.229109494 26.4199047,0.154208918 26.4825273,0.092525166 C26.5451499,0.0308414136 26.6211906,0 26.7106515,0 L35.6477496,0 C35.7372105,0 35.8087781,0.0308414136 35.8624546,0.092525166 C35.9161312,0.154208918 35.9340231,0.229109494 35.9161309,0.317229141 L35.5940733,2.88149802 Z M42.6793403,18.5050332 C42.5004185,18.5050332 42.3930671,18.4169149 42.3572827,18.2406756 L41.2569193,10.9444053 C41.2211349,10.8739097 41.1764052,10.8386623 41.1227286,10.8386623 L40.2639084,10.8386623 C40.1565553,10.8386623 40.1028795,10.8827215 40.1028795,10.9708411 L39.2172212,18.1878041 C39.199329,18.2759237 39.1545992,18.3508243 39.0830306,18.412508 C39.0114618,18.4741918 38.9309483,18.5050332 38.8414874,18.5050332 L35.8087784,18.5050332 C35.7193175,18.5050332 35.6477499,18.4741918 35.5940733,18.412508 C35.5403968,18.3508243 35.5225049,18.2759237 35.5403971,18.1878041 L37.7679621,0.317229141 C37.7858543,0.229109494 37.826111,0.154208918 37.8887337,0.092525166 C37.9513563,0.0308414136 38.0273969,0 38.1168577,0 L43.3771317,0 C44.6653686,0 45.6941533,0.418562042 46.463517,1.25569868 C47.2328806,2.09283533 47.6175566,3.20753212 47.6175566,4.59982254 C47.6175566,5.02279684 47.5996648,5.34883464 47.5638804,5.57794572 C47.4386352,6.60013362 47.1299997,7.51215828 46.6379648,8.31404706 C46.14593,9.11593585 45.5241861,9.73716999 44.7727146,10.1777683 C44.7369303,10.1953922 44.7100924,10.2174218 44.6922002,10.2438577 C44.674308,10.2702935 44.674308,10.3011349 44.6922002,10.3363829 L46.1146212,18.1349325 L46.1146212,18.1878041 C46.1146212,18.2759237 46.0833104,18.3508243 46.0206878,18.412508 C45.9580651,18.4741918 45.8820246,18.5050332 45.7925637,18.5050332 L42.6793403,18.5050332 Z M41.203243,3.19872717 C41.1137821,3.19872717 41.0690524,3.24278633 41.0690524,3.33090598 L40.5054516,7.85142123 C40.4696672,7.93954088 40.505451,7.98360004 40.6128041,7.98360004 L41.7668438,7.98360004 C42.3751778,7.98360004 42.8850972,7.71924506 43.2966173,7.19052718 C43.7081375,6.6618093 43.9138944,5.96567454 43.9138944,5.10210201 C43.9138944,4.52051234 43.7752321,4.05789114 43.4979034,3.71422452 C43.2205746,3.3705579 42.8493174,3.19872717 42.3841209,3.19872717 L41.203243,3.19872717 Z M50.4892369,18.4785975 C50.3997759,18.4785975 50.3282083,18.447756 50.2745318,18.3860723 C50.2208552,18.3243885 50.2029634,18.2494879 50.2208555,18.1613683 L51.0796757,11.2880703 C51.0796757,11.2704463 51.0841488,11.2484167 51.0930948,11.2219808 C51.1020409,11.195545 51.0975679,11.1647036 51.0796757,11.1294557 L48.7715964,0.370100664 L48.7715964,0.290793379 C48.7715964,0.202673733 48.7984342,0.132179073 48.8521108,0.0793072854 C48.9057873,0.0264354975 48.9773549,0 49.0668159,0 L52.2873917,0 C52.4842057,0 52.5915571,0.0881183246 52.6094494,0.264357617 L53.4414314,6.58250466 C53.4414314,6.63537646 53.4637963,6.66181195 53.5085268,6.66181195 C53.5532572,6.66181195 53.5845681,6.63537646 53.6024602,6.58250466 L55.9910541,0.264357617 C56.0626227,0.0881183246 56.196812,0 56.393626,0 L59.5873638,0 C59.6947169,0 59.7707574,0.0308414136 59.8154879,0.092525166 C59.8602183,0.154208918 59.8557454,0.246733159 59.8020688,0.370100664 L54.8101762,11.1294557 C54.7743919,11.1823275 54.7564999,11.2351985 54.7564999,11.2880703 L53.8976797,18.1613683 C53.8797875,18.2494879 53.8395307,18.3243885 53.7769081,18.3860723 C53.7142855,18.447756 53.6382448,18.4785975 53.548784,18.4785975 L50.4892369,18.4785975 Z" id="path-1"></path>
                        </g>
                    </g>
                </g>
            </g>
        </g>
    </g>
</svg>