<?xml version="1.0" encoding="UTF-8"?>
<svg width="75px" height="75px" viewBox="0 0 75 75" version="1.1" xmlns="http://www.w3.org/2000/svg" xmlns:xlink="http://www.w3.org/1999/xlink">
    <!-- Generator: Sketch 46.2 (44496) - http://www.bohemiancoding.com/sketch -->
    <title>insights-bi</title>
    <desc>Created with Sketch.</desc>
    <defs>
        <linearGradient x1="0%" y1="50%" x2="100%" y2="50%" id="linearGradient-1">
            <stop stop-color="#C33764" offset="0%"></stop>
            <stop stop-color="#1D2671" offset="100%"></stop>
        </linearGradient>
    </defs>
    <g id="Page-1" stroke="none" stroke-width="1" fill="none" fill-rule="evenodd">
        <g id="1.0-Landing-Page_hover_consumer-insight" transform="translate(-934.000000, -440.000000)">
            <g id="Group-12" transform="translate(355.000000, 440.000000)">
                <g id="Group-5" transform="translate(479.000000, 0.000000)">
                    <g id="insights-bi" transform="translate(100.000000, 0.000000)">
                        <path d="M1,1 L1,72.5857864 L72.5857864,1 L1,1 Z" id="Rectangle-2" stroke="url(#linearGradient-1)" stroke-width="2"></path>
                        <path d="M68.2412109,65.5096436 C68.2412109,66.3214152 68.094728,67.0980798 67.8017578,67.8396606 C67.5087876,68.5812415 67.1212182,69.2205784 66.6390381,69.7576904 C66.1446508,70.3070096 65.5861848,70.738829 64.963623,71.0531616 C64.3410613,71.3674942 63.6818882,71.5246582 62.986084,71.5246582 C62.461179,71.5246582 61.9988423,71.4804082 61.5990601,71.3919067 C61.1992778,71.3034053 60.8590102,71.1828621 60.5782471,71.0302734 C60.2913804,70.8715812 60.0533457,70.6930552 59.8641357,70.4946899 C59.6749258,70.2963247 59.5040291,70.0750745 59.3514404,69.8309326 L61.713501,59.4671631 C61.7440187,59.3267815 61.7699584,59.2062383 61.7913208,59.1055298 C61.8126832,59.0048213 61.8233643,58.9025884 61.8233643,58.7988281 C61.8233643,58.5791005 61.7867435,58.4097296 61.713501,58.2907104 C61.6402584,58.1716913 61.5364997,58.0816653 61.4022217,58.0206299 C61.2740472,57.965698 61.1123057,57.9290772 60.9169922,57.9107666 C60.7216787,57.892456 60.5233164,57.8710939 60.3218994,57.8466797 L60.4500732,57.288208 L63.8466797,57.0776367 L63.9382324,57.2149658 L62.5466309,63.3032227 L62.583252,63.3032227 C63.1325711,62.814939 63.6162699,62.4777231 64.0343628,62.2915649 C64.4524557,62.1054068 64.8598613,62.0123291 65.2565918,62.0123291 C66.1843308,62.0123291 66.9136936,62.3281829 67.4447021,62.9598999 C67.9757107,63.5916169 68.2412109,64.441523 68.2412109,65.5096436 Z M66.3552246,65.5554199 C66.3552246,65.231932 66.3262332,64.906923 66.2682495,64.5803833 C66.2102658,64.2538436 66.1141364,63.980714 65.9798584,63.7609863 C65.8394768,63.5290516 65.647218,63.3459479 65.4030762,63.2116699 C65.1589343,63.0773919 64.8568133,63.0102539 64.4967041,63.0102539 C64.28308,63.0102539 64.081666,63.0468746 63.8924561,63.1201172 C63.7032461,63.1933597 63.5079356,63.291015 63.3065186,63.4130859 C63.1295157,63.5229498 62.9570931,63.6556999 62.7892456,63.8113403 C62.6213981,63.9669808 62.4672859,64.1058344 62.3269043,64.2279053 L61.1092529,69.6569824 C61.1275636,69.7790533 61.1824947,69.9133293 61.2740479,70.0598145 C61.365601,70.2062996 61.4815667,70.3344721 61.6219482,70.4443359 C61.7928475,70.5847175 61.9851064,70.691528 62.1987305,70.7647705 C62.4123546,70.8380131 62.6473376,70.8746338 62.9036865,70.8746338 C63.3858667,70.8746338 63.8390482,70.7327285 64.2632446,70.4489136 C64.6874411,70.1650987 65.0521225,69.7821069 65.3572998,69.2999268 C65.6929948,68.7750218 65.9432365,68.1890901 66.1080322,67.5421143 C66.272828,66.8951384 66.3552246,66.2329135 66.3552246,65.5554199 Z M73.9266357,70.2520752 L73.7893066,70.8380127 C73.2277804,71.0638439 72.7791765,71.2210079 72.4434814,71.3095093 C72.1077864,71.3980107 71.820924,71.4422607 71.5828857,71.4422607 C71.0946021,71.4422607 70.7283948,71.3156141 70.4842529,71.0623169 C70.2401111,70.8090197 70.118042,70.4962177 70.118042,70.1239014 C70.118042,69.9835198 70.1302489,69.8370369 70.1546631,69.6844482 C70.1790773,69.5318596 70.2187497,69.3396008 70.2736816,69.107666 L71.2441406,65.2166748 C71.292969,65.0030507 71.3402708,64.7741711 71.3860474,64.5300293 C71.431824,64.2858875 71.4547119,64.07837 71.4547119,63.9074707 C71.4547119,63.5656721 71.398255,63.3383184 71.2853394,63.2254028 C71.1724238,63.1124872 70.9420183,63.0560303 70.5941162,63.0560303 C70.4598382,63.0560303 70.2813121,63.0773924 70.0585327,63.1201172 C69.8357533,63.162842 69.6663824,63.1994627 69.550415,63.2299805 L69.6877441,62.644043 C70.1638207,62.4304189 70.5910626,62.271729 70.9694824,62.1679688 C71.3479023,62.0642085 71.6469716,62.0123291 71.8666992,62.0123291 C72.36719,62.0123291 72.7303456,62.1313465 72.9561768,62.3693848 C73.182008,62.6074231 73.2949219,62.9278544 73.2949219,63.3306885 C73.2949219,63.4405523 73.282715,63.5900869 73.2583008,63.7792969 C73.2338866,63.9685068 73.1972659,64.1577139 73.1484375,64.3469238 L72.1688232,68.237915 C72.1077878,68.4759533 72.0543826,68.7094105 72.008606,68.9382935 C71.9628294,69.1671764 71.9399414,69.3548577 71.9399414,69.5013428 C71.9399414,69.8492449 72.0177605,70.0872796 72.1734009,70.2154541 C72.3290413,70.3436286 72.5808088,70.4077148 72.9287109,70.4077148 C73.0446783,70.4077148 73.2109975,70.3924562 73.4276733,70.3619385 C73.6443492,70.3314207 73.8106684,70.2948 73.9266357,70.2520752 Z M74.5766602,58.5516357 C74.5766602,58.8995379 74.4637462,59.2031847 74.237915,59.4625854 C74.0120838,59.7219862 73.7313249,59.8516846 73.3956299,59.8516846 C73.084349,59.8516846 72.815797,59.7280896 72.5899658,59.480896 C72.3641346,59.2337024 72.2512207,58.9514176 72.2512207,58.6340332 C72.2512207,58.2983382 72.3641346,58.0053723 72.5899658,57.755127 C72.815797,57.5048816 73.084349,57.3797607 73.3956299,57.3797607 C73.743532,57.3797607 74.0273427,57.4972522 74.2470703,57.7322388 C74.466798,57.9672253 74.5766602,58.2403549 74.5766602,58.5516357 Z" id="bi" fill="#000000"></path>
                    </g>
                </g>
            </g>
        </g>
    </g>
</svg>