
<svg width="34px" height="33px" viewBox="0 0 34 33" version="1.1" xmlns="http://www.w3.org/2000/svg" xmlns:xlink="http://www.w3.org/1999/xlink">
    <!-- Generator: Sketch 47.1 (45422) - http://www.bohemiancoding.com/sketch -->
    <desc>Created with Sketch.</desc>
    <defs></defs>
    <g id="Page-1" stroke="none" stroke-width="1" fill="none" fill-rule="evenodd">
        <g id="Landing_Dropdown_Solutions_productinsight_hover" transform="translate(-895.000000, -269.000000)">
            <g id="Group-8" transform="translate(557.000000, 73.000000)">
                <g id="Group-62" transform="translate(338.000000, 196.000000)">
                    <path d="M0.5,0.5 L0.5,30.7957093 L30.8960262,0.5 L0.5,0.5 Z" id="Rectangle-2" stroke="#DDE5ED"></path>
                    <path d="M30.7859242,29.5791231 C30.7859242,29.9236947 30.7235409,30.2533645 30.5987725,30.5681424 C30.474004,30.8829203 30.3089482,31.1542988 30.1036001,31.382286 C29.8930533,31.6154548 29.655217,31.7987487 29.390084,31.932173 C29.124951,32.0655974 28.8442262,32.1323086 28.547901,32.1323086 C28.3243575,32.1323086 28.1274603,32.1135258 27.9572033,32.0759597 C27.7869463,32.0383937 27.6420351,31.9872268 27.5224653,31.9224577 C27.4002962,31.8550978 27.2989234,31.7793191 27.2183437,31.6951193 C27.1377641,31.6109194 27.0649836,31.5170056 27,31.4133751 L28.0059407,27.0142792 C28.0189374,26.9546916 28.0299845,26.9035248 28.0390822,26.8607772 C28.0481799,26.8180295 28.0527287,26.7746349 28.0527287,26.7305919 C28.0527287,26.6373244 28.0371328,26.5654317 28.0059407,26.5149118 C27.9747486,26.4643919 27.9305604,26.4261787 27.8733749,26.4002711 C27.8187887,26.3769542 27.7499071,26.3614099 27.6667282,26.3536376 C27.5835492,26.3458653 27.4990718,26.3367977 27.4132935,26.3264347 L27.4678794,26.0893809 L28.9144066,26 L28.9533965,26.0582919 L28.3607493,28.6425664 L28.3763453,28.6425664 C28.6102861,28.4353053 28.816281,28.2921677 28.994336,28.2131494 C29.172391,28.1341311 29.3458945,28.0946225 29.5148518,28.0946225 C29.909952,28.0946225 30.2205688,28.2286926 30.4467117,28.4968367 C30.6728545,28.7649808 30.7859242,29.1257393 30.7859242,29.5791231 Z M29.9827312,29.5985537 C29.9827312,29.4612432 29.9703845,29.3232871 29.9456908,29.1846812 C29.920997,29.0460753 29.880058,28.9301403 29.8228724,28.8368728 C29.7630875,28.7384237 29.6812095,28.660702 29.5772357,28.6037052 C29.473262,28.5467083 29.3445965,28.5182104 29.1912352,28.5182104 C29.1002582,28.5182104 29.0144812,28.5337547 28.9339016,28.5648439 C28.8533219,28.5959331 28.7701442,28.6373847 28.6843659,28.6892 C28.6089849,28.7358337 28.5355546,28.792182 28.4640727,28.8582465 C28.3925907,28.924311 28.3269583,28.98325 28.2671734,29.0350653 L27.7486071,31.3395387 C27.7564051,31.3913539 27.7797988,31.4483499 27.818789,31.5105282 C27.8577791,31.5727066 27.9071659,31.6271118 27.9669508,31.6737456 C28.0397324,31.7333332 28.1216105,31.7786709 28.2125875,31.80976 C28.3035645,31.8408492 28.4036377,31.8563936 28.5128101,31.8563936 C28.7181582,31.8563936 28.9111565,31.7961592 29.0918109,31.6756886 C29.2724652,31.5552181 29.4277736,31.3926501 29.5577408,31.1879797 C29.7007046,30.965174 29.8072761,30.7164643 29.8774584,30.4418433 C29.9476406,30.1672223 29.9827312,29.8861285 29.9827312,29.5985537 Z M33.2072002,31.5921369 L33.1487152,31.840849 C32.9095757,31.9367073 32.7185268,32.0034185 32.575563,32.0409846 C32.4325991,32.0785507 32.3104318,32.0973334 32.2090574,32.0973334 C32.00111,32.0973334 31.8451517,32.0435759 31.741178,31.9360592 C31.6372043,31.8285424 31.5852182,31.6957678 31.5852182,31.5377311 C31.5852182,31.4781436 31.5904168,31.4159661 31.6008142,31.351197 C31.6112116,31.2864279 31.628107,31.2048201 31.6515011,31.106371 L32.0647946,29.454767 C32.0855894,29.3640902 32.105734,29.266938 32.125229,29.1633075 C32.1447241,29.0596769 32.1544715,28.9715922 32.1544715,28.8990508 C32.1544715,28.753968 32.1304279,28.6574635 32.0823401,28.6095344 C32.0342522,28.5616052 31.9361285,28.537641 31.787966,28.537641 C31.7307804,28.537641 31.6547508,28.5467085 31.5598747,28.5648439 C31.4649987,28.5829792 31.392868,28.5985236 31.3434805,28.6114774 L31.4019654,28.3627653 C31.6047142,28.2720885 31.7866655,28.2047297 31.9478248,28.1606867 C32.108984,28.1166437 32.2363499,28.0946225 32.3299263,28.0946225 C32.5430724,28.0946225 32.697731,28.1451417 32.7939067,28.2461815 C32.8900824,28.3472213 32.9381695,28.4832344 32.9381695,28.6542248 C32.9381695,28.7008586 32.9329709,28.7643313 32.9225735,28.844645 C32.9121762,28.9249587 32.8965803,29.0052712 32.8757856,29.0855849 L32.4585931,30.7371889 C32.4325997,30.8382288 32.4098558,30.937324 32.3903607,31.0344777 C32.3708656,31.1316313 32.3611182,31.2112961 32.3611182,31.2734745 C32.3611182,31.4211481 32.3942594,31.5221864 32.4605426,31.5765924 C32.5268259,31.6309985 32.6340472,31.6582011 32.7822097,31.6582011 C32.8315972,31.6582011 32.9024283,31.6517243 32.9947049,31.6387704 C33.0869816,31.6258166 33.1578127,31.6102723 33.2072002,31.5921369 Z M33.4840288,26.6256665 C33.4840288,26.77334 33.4359417,26.9022286 33.339766,27.0123361 C33.2435903,27.1224436 33.1240223,27.1774965 32.9810585,27.1774965 C32.848492,27.1774965 32.7341226,27.1250343 32.6379469,27.0201084 C32.5417712,26.9151824 32.4936841,26.7953614 32.4936841,26.6606416 C32.4936841,26.5181496 32.5417712,26.3937947 32.6379469,26.2875734 C32.7341226,26.1813521 32.848492,26.1282422 32.9810585,26.1282422 C33.129221,26.1282422 33.2500886,26.1781137 33.343665,26.2778581 C33.4372413,26.3776025 33.4840288,26.4935375 33.4840288,26.6256665 Z" id="bi" fill="#DDE5ED"></path>
                </g>
            </g>
        </g>
    </g>
</svg>