
<svg width="34px" height="33px" viewBox="0 0 34 33" version="1.1" xmlns="http://www.w3.org/2000/svg" xmlns:xlink="http://www.w3.org/1999/xlink">
    <!-- Generator: Sketch 47.1 (45422) - http://www.bohemiancoding.com/sketch -->
    <desc>Created with Sketch.</desc>
    <defs></defs>
    <g id="Page-1" stroke="none" stroke-width="1" fill="none" fill-rule="evenodd">
        <g id="Landing_Dropdown_Solutions_brandinsight_hover" transform="translate(-658.000000, -112.000000)">
            <g id="Group-8" transform="translate(557.000000, 73.000000)">
                <g id="Group-62" transform="translate(102.000000, 40.000000)">
                    <path d="M-2.24265051e-14,26.509668 C3.36974288,29.9018758 8.02499934,32 13.1670536,32 C23.4511622,32 31.7880795,23.6075033 31.7880795,13.254834 C31.7880795,8.07849934 29.7038502,3.39220784 26.3341073,-2.6423308e-14 L-2.15383267e-14,26.509668 Z" id="Combined-Shape" stroke="#DDE5ED" transform="translate(15.894040, 16.000000) rotate(-180.000000) translate(-15.894040, -16.000000) "></path>
                    <path d="M27.4667839,32.0273438 C27.0140706,32.0273438 26.6564324,31.8945326 26.3938587,31.6289063 C26.1312849,31.3632799 26,30.9856795 26,30.4960938 C26,30.1705713 26.0497977,29.8587254 26.1493947,29.5605469 C26.2489916,29.2623683 26.3880372,28.997397 26.5665356,28.765625 C26.745034,28.533853 26.9707406,28.3444018 27.243662,28.1972656 C27.5165835,28.0501295 27.8198969,27.9765625 28.1536113,27.9765625 C28.5235428,27.9765625 28.8048676,28.0553378 28.9975942,28.2128906 C29.1903207,28.3704435 29.2866825,28.5690092 29.2866825,28.8085938 C29.2866825,28.9882821 29.2446455,29.1458327 29.1605702,29.28125 C29.0764948,29.4166673 28.9503837,29.484375 28.782233,29.484375 C28.6425386,29.484375 28.5377694,29.4492191 28.4679222,29.3789063 C28.398075,29.3085934 28.3631519,29.2304692 28.3631519,29.1445312 C28.3631519,29.0611975 28.3916077,28.9472663 28.4485203,28.8027344 C28.5054328,28.6582024 28.5507035,28.5416671 28.5843336,28.453125 C28.5558773,28.3828121 28.4924984,28.3313804 28.394195,28.2988281 C28.2958915,28.2662759 28.1937091,28.25 28.0876449,28.25 C27.7358219,28.25 27.4325085,28.4563781 27.1776956,28.8691406 C26.9228826,29.2819031 26.7954781,29.7877574 26.7954781,30.3867188 C26.7954781,30.7565123 26.877612,31.0501291 27.0418822,31.2675781 C27.2061525,31.4850271 27.4279787,31.59375 27.7073675,31.59375 C27.9583001,31.59375 28.1814198,31.5260423 28.3767332,31.390625 C28.5720467,31.2552077 28.7589499,31.0638033 28.9374483,30.8164063 L29.15863,30.9804688 C28.9801316,31.2643243 28.7376102,31.5097646 28.4310586,31.7167969 C28.124507,31.9238292 27.8030853,32.0273438 27.4667839,32.0273438 Z M31.4829781,31.4921875 L31.4247724,31.7421875 C31.1867745,31.8385421 30.9966377,31.9055988 30.8543564,31.9433594 C30.712075,31.98112 30.590491,32 30.4896006,32 C30.2826459,32 30.1274322,31.9459641 30.0239549,31.8378906 C29.9204775,31.7298172 29.8687397,31.596355 29.8687397,31.4375 C29.8687397,31.3776039 29.8739134,31.3151045 29.8842612,31.25 C29.8946089,31.1848955 29.9114237,31.1028651 29.9347061,31.0039063 L30.3460265,29.34375 C30.366722,29.2526037 30.3867704,29.1549484 30.4061724,29.0507813 C30.4255744,28.9466141 30.4352752,28.8580733 30.4352752,28.7851563 C30.4352752,28.6393222 30.4113465,28.5423179 30.3634882,28.4941406 C30.3156299,28.4459633 30.2179747,28.421875 30.0705195,28.421875 C30.0136069,28.421875 29.9379402,28.4309895 29.8435172,28.4492188 C29.7490941,28.467448 29.6773078,28.4830729 29.628156,28.4960938 L29.6863618,28.2460938 C29.8881426,28.1549475 30.0692252,28.0872398 30.2296151,28.0429688 C30.3900049,27.9986977 30.5167628,27.9765625 30.6098924,27.9765625 C30.8220209,27.9765625 30.9759412,28.0273432 31.0716577,28.1289062 C31.1673742,28.2304693 31.2152318,28.3671866 31.2152318,28.5390625 C31.2152318,28.5859377 31.210058,28.6497392 31.1997103,28.7304688 C31.1893625,28.8111983 31.1738412,28.8919267 31.1531457,28.9726563 L30.737945,30.6328125 C30.7120756,30.7343755 30.6894403,30.8339839 30.6700383,30.9316406 C30.6506363,31.0292974 30.6409354,31.1093747 30.6409354,31.171875 C30.6409354,31.3203132 30.6739183,31.4218747 30.7398851,31.4765625 C30.8058519,31.5312503 30.9125613,31.5585938 31.0600166,31.5585938 C31.1091683,31.5585938 31.1796612,31.5520834 31.2714973,31.5390625 C31.3633334,31.5260416 31.4338263,31.5104168 31.4829781,31.4921875 Z M31.7584851,26.5 C31.7584851,26.6484382 31.7106275,26.7779942 31.614911,26.8886719 C31.5191945,26.9993495 31.4001973,27.0546875 31.257916,27.0546875 C31.1259824,27.0546875 31.012159,27.0019537 30.9164425,26.8964844 C30.8207259,26.7910151 30.7728684,26.6705736 30.7728684,26.5351562 C30.7728684,26.3919264 30.8207259,26.2669276 30.9164425,26.1601562 C31.012159,26.0533849 31.1259824,26 31.257916,26 C31.4053712,26 31.5256618,26.0501297 31.6187914,26.1503906 C31.711921,26.2506515 31.7584851,26.3671868 31.7584851,26.5 Z" id="ci" fill="#DDE5ED"></path>
                </g>
            </g>
        </g>
    </g>
</svg>