<?xml version="1.0" encoding="UTF-8"?>
<svg width="75px" height="47px" viewBox="0 0 75 47" version="1.1" xmlns="http://www.w3.org/2000/svg" xmlns:xlink="http://www.w3.org/1999/xlink">
    <!-- Generator: Sketch 47.1 (45422) - http://www.bohemiancoding.com/sketch -->
    <title>Group 11</title>
    <desc>Created with Sketch.</desc>
    <defs>
        <linearGradient x1="0%" y1="50%" x2="100%" y2="50%" id="linearGradient-1">
            <stop stop-color="#FC4A1A" offset="0%"></stop>
            <stop stop-color="#F7B733" offset="100%"></stop>
        </linearGradient>
    </defs>
    <g id="Page-1" stroke="none" stroke-width="1" fill="none" fill-rule="evenodd">
        <g id="Artboard" transform="translate(-478.000000, -463.000000)">
            <g id="border_gradient" transform="translate(167.000000, 186.000000)">
                <g id="Group-12" transform="translate(203.000000, 249.000000)">
                    <g id="Group-6" transform="translate(0.000000, 28.000000)">
                        <g id="Group-11" transform="translate(108.000000, 0.000000)">
                            <rect id="Rectangle-5" stroke="url(#linearGradient-1)" stroke-width="2" x="1" y="25" width="73" height="20.5"></rect>
                            <path d="M64.8720703,13.0415039 L64.8079834,13.0415039 C64.6737054,13.1513677 64.5134897,13.2902213 64.3273315,13.4580688 C64.1411734,13.6259164 63.9229749,13.786132 63.6727295,13.9387207 C63.4346912,14.0913094 63.1752944,14.2240595 62.8945312,14.3369751 C62.6137681,14.4498907 62.3085954,14.5063477 61.9790039,14.5063477 C61.0939897,14.5063477 60.3997218,14.188968 59.8961792,13.5541992 C59.3926366,12.9194304 59.1408691,12.0527399 59.1408691,10.9541016 C59.1408691,10.1972618 59.2812486,9.46179556 59.5620117,8.74768066 C59.8427748,8.03356577 60.2303442,7.39270303 60.7247314,6.82507324 C61.1947045,6.28185764 61.7531706,5.84393477 62.4001465,5.5112915 C63.0471224,5.17864824 63.7123989,5.0123291 64.3959961,5.0123291 C64.8293479,5.0123291 65.2428569,5.07031192 65.6365356,5.1862793 C66.0302144,5.30224667 66.3399647,5.43347095 66.5657959,5.57995605 L68.2412109,5.1496582 L68.3510742,5.2869873 L66.9594727,11.1921387 C66.9106443,11.3813486 66.8602908,11.611754 66.8084106,11.8833618 C66.7565305,12.1549696 66.7305908,12.3548578 66.7305908,12.4830322 C66.7305908,12.8309344 66.8038323,13.0659174 66.9503174,13.1879883 C67.0968025,13.3100592 67.3439924,13.3710938 67.6918945,13.3710938 C67.8078619,13.3710938 67.9726552,13.3527834 68.1862793,13.3161621 C68.3999034,13.2795408 68.5646967,13.2398684 68.6806641,13.1971436 L68.543335,13.7830811 C67.9940158,14.0028087 67.5850844,14.1614985 67.3165283,14.2591553 C67.0479723,14.356812 66.7214375,14.4056396 66.3369141,14.4056396 C65.8974587,14.4056396 65.5495618,14.2774671 65.2932129,14.0211182 C65.036864,13.7647692 64.8964845,13.4382344 64.8720703,13.0415039 Z M66.1812744,7.25537109 C66.1812744,7.05395407 66.1599123,6.86169525 66.1171875,6.67858887 C66.0744627,6.49548248 65.9859626,6.32458575 65.8516846,6.16589355 C65.7296136,6.0133049 65.5617686,5.89123581 65.3481445,5.79968262 C65.1345204,5.70812943 64.8659684,5.66235352 64.5424805,5.66235352 C64.0969216,5.66235352 63.6635763,5.80883643 63.2424316,6.10180664 C62.821287,6.39477686 62.4428728,6.78844968 62.1071777,7.28283691 C61.7897933,7.74670642 61.5303965,8.30822424 61.3289795,8.96740723 C61.1275625,9.62659021 61.0268555,10.2949185 61.0268555,10.9724121 C61.0268555,11.3447284 61.0482176,11.674315 61.0909424,11.9611816 C61.1336672,12.2480483 61.2160638,12.5104969 61.3381348,12.7485352 C61.4541021,12.9804699 61.6219471,13.1605218 61.8416748,13.2886963 C62.0614025,13.4168708 62.3391096,13.480957 62.6748047,13.480957 C63.0166033,13.480957 63.3751812,13.3848276 63.7505493,13.1925659 C64.1259174,13.0003042 64.5485816,12.6630883 65.0185547,12.1809082 L66.1812744,7.25537109 Z M74.2836914,13.2520752 L74.1463623,13.8380127 C73.5848361,14.0638439 73.1362321,14.2210079 72.8005371,14.3095093 C72.4648421,14.3980107 72.1779797,14.4422607 71.9399414,14.4422607 C71.4516577,14.4422607 71.0854504,14.3156141 70.8413086,14.0623169 C70.5971667,13.8090197 70.4750977,13.4962177 70.4750977,13.1239014 C70.4750977,12.9835198 70.4873046,12.8370369 70.5117188,12.6844482 C70.5361329,12.5318596 70.5758054,12.3396008 70.6307373,12.107666 L71.6011963,8.2166748 C71.6500247,8.00305069 71.6973264,7.77417114 71.743103,7.5300293 C71.7888796,7.28588745 71.8117676,7.07837 71.8117676,6.9074707 C71.8117676,6.56567212 71.7553106,6.33831844 71.642395,6.22540283 C71.5294794,6.11248723 71.299074,6.05603027 70.9511719,6.05603027 C70.8168939,6.05603027 70.6383678,6.07739236 70.4155884,6.12011719 C70.1928089,6.16284201 70.0234381,6.19946274 69.9074707,6.22998047 L70.0447998,5.64404297 C70.5208764,5.43041885 70.9481182,5.27172903 71.3265381,5.16796875 C71.7049579,5.06420847 72.0040272,5.0123291 72.2237549,5.0123291 C72.7242457,5.0123291 73.0874012,5.13134647 73.3132324,5.36938477 C73.5390636,5.60742307 73.6519775,5.92785443 73.6519775,6.33068848 C73.6519775,6.44055231 73.6397706,6.59008694 73.6153564,6.77929688 C73.5909423,6.96850681 73.5543215,7.1577139 73.5054932,7.34692383 L72.5258789,11.237915 C72.4648434,11.4759533 72.4114382,11.7094105 72.3656616,11.9382935 C72.319885,12.1671764 72.2969971,12.3548577 72.2969971,12.5013428 C72.2969971,12.8492449 72.3748161,13.0872796 72.5304565,13.2154541 C72.686097,13.3436286 72.9378645,13.4077148 73.2857666,13.4077148 C73.401734,13.4077148 73.5680531,13.3924562 73.784729,13.3619385 C74.0014049,13.3314207 74.167724,13.2948 74.2836914,13.2520752 Z M74.9337158,1.55163574 C74.9337158,1.89953787 74.8208019,2.20318474 74.5949707,2.46258545 C74.3691395,2.72198616 74.0883806,2.85168457 73.7526855,2.85168457 C73.4414047,2.85168457 73.1728527,2.72808961 72.9470215,2.480896 C72.7211903,2.23370238 72.6082764,1.9514176 72.6082764,1.6340332 C72.6082764,1.29833817 72.7211903,1.00537234 72.9470215,0.755126953 C73.1728527,0.504881561 73.4414047,0.379760742 73.7526855,0.379760742 C74.1005877,0.379760742 74.3843983,0.497252243 74.604126,0.73223877 C74.8238536,0.967225296 74.9337158,1.24035489 74.9337158,1.55163574 Z" id="ai" fill="#000000"></path>
                        </g>
                    </g>
                </g>
            </g>
        </g>
    </g>
</svg>