
<svg width="33px" height="32px" viewBox="0 0 33 32" version="1.1" xmlns="http://www.w3.org/2000/svg" xmlns:xlink="http://www.w3.org/1999/xlink">
    <!-- Generator: Sketch 47.1 (45422) - http://www.bohemiancoding.com/sketch -->
    <desc>Created with Sketch.</desc>
    <defs></defs>
    <g id="Page-1" stroke="none" stroke-width="1" fill="none" fill-rule="evenodd">
        <g id="Landing_Dropdown_Solutions_brandinsight_hover" transform="translate(-895.000000, -113.000000)">
            <g id="Group-8" transform="translate(557.000000, 73.000000)">
                <g id="Group-63" transform="translate(338.000000, 40.000000)">
                    <path d="M0.5,0.5 L0.5,30.7957093 L30.8960262,0.5 L0.5,0.5 Z" id="Rectangle-2" stroke="#DDE5ED" transform="translate(16.052980, 16.000000) rotate(-180.000000) translate(-16.052980, -16.000000) "></path>
                    <path d="M7.42445093,5.32727576 L7.36653821,5.57046096 C7.12973836,5.66418906 6.9405587,5.72941777 6.79899357,5.76614905 C6.65742844,5.80288033 6.53645641,5.8212457 6.43607387,5.8212457 C6.23016095,5.8212457 6.07572858,5.76868275 5.97277212,5.66355529 C5.86981566,5.55842783 5.8183382,5.4286037 5.8183382,5.274079 C5.8183382,5.21834878 5.82348595,5.1569198 5.83378159,5.08979021 C5.84407724,5.02266063 5.86080741,4.94349957 5.88397261,4.85230467 L6.26233571,3.43499093 C6.29064874,3.32606368 6.31317012,3.22727069 6.32990055,3.13860897 C6.34663097,3.04994726 6.35499606,2.97901895 6.35499606,2.92582192 C6.35499606,2.75609807 6.3176749,2.62184092 6.24303147,2.52304644 C6.16838804,2.42425196 6.04998989,2.37485546 5.88783346,2.37485546 C5.71538139,2.37485546 5.54614925,2.41475263 5.38013196,2.49454817 C5.21411467,2.57434371 5.02686542,2.7231665 4.81837859,2.941021 L4.14659105,5.75664963 L3.42847334,5.75664963 L4.03462646,3.21840411 C4.04749602,3.16267389 4.05972192,3.10377807 4.07130452,3.04171487 C4.08288712,2.97965167 4.08867833,2.93342161 4.08867833,2.90302331 C4.08867833,2.73836584 4.0468529,2.609175 3.96320078,2.5154469 C3.87954865,2.4217188 3.75664622,2.37485546 3.5944898,2.37485546 C3.44777685,2.37485546 3.28562285,2.4109529 3.10802296,2.48314887 C2.93042307,2.55534483 2.72451324,2.71683339 2.4902873,2.96761938 L1.837804,5.75664963 L1.11968629,5.75664963 L1.69495262,3.29439949 C1.71554392,3.20573778 1.73549143,3.11074451 1.75479577,3.00941683 C1.7741001,2.90808916 1.78375213,2.82196193 1.78375213,2.75103256 C1.78375213,2.60410744 1.75930033,2.5072143 1.71039602,2.46035025 C1.6614917,2.4134862 1.5662584,2.39005453 1.42469327,2.39005453 C1.36806722,2.39005453 1.29535531,2.40018715 1.20655536,2.42045268 C1.11775542,2.44071822 1.04890432,2.45718372 1,2.46984967 L1.05791272,2.22666448 C1.25867781,2.13800276 1.43627504,2.07214076 1.59070973,2.0290765 C1.74514442,1.98601224 1.87769887,1.96448043 1.98837707,1.96448043 C2.19428999,1.96448043 2.34035727,2.01957653 2.42658331,2.12977037 C2.51280934,2.23996422 2.55849558,2.39005358 2.56364341,2.58004297 L2.58680849,2.58004297 C2.89053005,2.34445613 3.14019572,2.1760014 3.33581299,2.07467373 C3.53143026,1.97334605 3.76436576,1.92268298 4.03462646,1.92268298 C4.26370458,1.92268298 4.4496669,1.98791169 4.59251899,2.11837107 C4.73537107,2.24883045 4.8158046,2.41285216 4.83382198,2.61044112 L4.84926537,2.61044112 C5.1246739,2.38498705 5.36983529,2.21399916 5.5847569,2.09747234 C5.79967851,1.98094552 6.04998765,1.92268298 6.33569182,1.92268298 C6.58278732,1.92268298 6.77261045,1.992978 6.90516689,2.13357014 C7.03772333,2.27416229 7.10400056,2.45844923 7.10400056,2.68643649 C7.10400056,2.73203395 7.09692241,2.81309487 7.08276589,2.92962169 C7.06860938,3.04614851 7.04608799,3.16140701 7.01520105,3.27540065 L6.69088983,4.49512641 C6.66772463,4.57618855 6.64584671,4.66928195 6.62525541,4.77440941 C6.60466412,4.87953687 6.59436863,4.96123108 6.59436863,5.01949449 C6.59436863,5.16388643 6.62525511,5.26204614 6.68702898,5.31397657 C6.74880286,5.365907 6.85304471,5.39187183 6.99975766,5.39187183 C7.04866198,5.39187183 7.11944348,5.38553894 7.2121043,5.37287298 C7.30476511,5.36020703 7.37554662,5.3450081 7.42445093,5.32727576 Z M9.77570731,5.34247484 L9.7177946,5.58566003 C9.48099474,5.67938813 9.29181508,5.74461684 9.15024995,5.78134812 C9.00868482,5.8180794 8.8877128,5.83644477 8.78733025,5.83644477 C8.58141733,5.83644477 8.42698496,5.78388183 8.3240285,5.67875437 C8.22107204,5.57362691 8.16959458,5.44380277 8.16959458,5.28927807 C8.16959458,5.23101466 8.17474233,5.17021897 8.18503797,5.10688917 C8.19533362,5.04355938 8.21206379,4.96376503 8.235229,4.86750374 L8.64447887,3.25260203 C8.66507017,3.16394032 8.68501768,3.06894705 8.70432202,2.96761938 C8.72362635,2.86629171 8.73327838,2.78016448 8.73327838,2.7092351 C8.73327838,2.56737636 8.70947005,2.47301638 8.66185269,2.42615233 C8.61423533,2.37928829 8.51707163,2.35585661 8.37035867,2.35585661 C8.31373262,2.35585661 8.23844684,2.36472265 8.14449907,2.38245499 C8.0505513,2.40018734 7.97912633,2.41538626 7.93022201,2.42805222 L7.98813473,2.18486702 C8.18889982,2.09620531 8.36907093,2.03034331 8.52865344,1.98727905 C8.68823595,1.94421479 8.81435572,1.92268298 8.90701653,1.92268298 C9.11807727,1.92268298 9.27122271,1.97207948 9.36645744,2.07087396 C9.46169216,2.16966844 9.50930881,2.30265901 9.50930881,2.46984967 C9.50930881,2.51544713 9.50416106,2.5775094 9.49386542,2.65603834 C9.48356977,2.73456729 9.46812653,2.81309506 9.44753524,2.891624 L9.03442451,4.50652571 C9.0086854,4.6053202 8.98616401,4.70221333 8.96685968,4.79720802 C8.94755534,4.89220272 8.93790332,4.9700972 8.93790332,5.0308938 C8.93790332,5.17528573 8.9707202,5.27407873 9.03635494,5.32727576 C9.10198968,5.38047279 9.20816194,5.4070709 9.35487489,5.4070709 C9.40377921,5.4070709 9.47391725,5.40073802 9.5652911,5.38807206 C9.65666496,5.3754061 9.726803,5.36020718 9.77570731,5.34247484 Z M10.0498275,0.486370397 C10.0498275,0.630762331 10.0022109,0.756786734 9.90697614,0.864447386 C9.81174142,0.972108039 9.69334327,1.02593756 9.55177814,1.02593756 C9.42050865,1.02593756 9.30725824,0.974641192 9.21202352,0.872046924 C9.11678879,0.769452655 9.06917215,0.652294291 9.06917215,0.520568316 C9.06917215,0.381242766 9.11678879,0.259651383 9.21202352,0.155790518 C9.30725824,0.0519296533 9.42050865,0 9.55177814,0 C9.69849109,0 9.81817618,0.0487632111 9.91083699,0.146291096 C10.0034978,0.243818981 10.0498275,0.357177615 10.0498275,0.486370397 Z" id="mi" fill="#DDE5ED"></path>
                </g>
            </g>
        </g>
    </g>
</svg>