
<svg width="33px" height="33px" viewBox="0 0 33 33" version="1.1" xmlns="http://www.w3.org/2000/svg" xmlns:xlink="http://www.w3.org/1999/xlink">
    <!-- Generator: Sketch 47.1 (45422) - http://www.bohemiancoding.com/sketch -->
    <desc>Created with Sketch.</desc>
    <defs></defs>
    <g id="Page-1" stroke="none" stroke-width="1" fill="none" fill-rule="evenodd">
        <g id="Landing_Dropdown_Solutions_brandinsight_hover" transform="translate(-1132.000000, -113.000000)">
            <g id="Group-8" transform="translate(557.000000, 73.000000)">
                <g id="Group-6" transform="translate(576.000000, 40.000000)">
                    <g id="Group-64">
                        <path d="M-1.39888101e-14,26.509668 C3.29243702,29.9018758 7.84089642,32 12.8649859,32 C22.913165,32 31.0588235,23.6075033 31.0588235,13.254834 C31.0588235,8.07849934 29.0224089,3.39220784 25.7299719,-2.13162821e-14 L-1.66533454e-14,26.509668 Z" id="Combined-Shape" stroke="#DDE5ED"></path>
                        <path d="M4.87106843,3.51645088 C4.87106843,3.87020972 4.81088496,4.20548359 4.69051621,4.52228255 C4.57014746,4.83908151 4.41008503,5.11363649 4.21032413,5.34595573 C3.98751389,5.60203489 3.74613976,5.79211141 3.48619448,5.91619101 C3.2262492,6.0402706 2.95926508,6.10230947 2.68523409,6.10230947 C2.46498489,6.10230947 2.28443448,6.07458997 2.14357743,6.01915015 C2.00272038,5.96371034 1.87723144,5.89507159 1.76710684,5.81323186 L1.54429772,6.85074327 C1.5289315,6.91674305 1.51676675,6.97878192 1.50780312,7.03686173 C1.49883949,7.09494154 1.49435774,7.14114069 1.49435774,7.17546058 C1.49435774,7.24674034 1.51932748,7.30349931 1.56926771,7.34573917 C1.61920793,7.38797903 1.67619016,7.41833847 1.74021609,7.43681841 C1.80424202,7.45793834 1.87594998,7.47377805 1.95534214,7.48433802 C2.03473429,7.49489799 2.10644226,7.50281784 2.17046819,7.50809782 L2.11668667,7.75757576 L0,7.75757576 L0.0537815126,7.50809782 C0.135734703,7.50281784 0.212564667,7.49621796 0.284273709,7.48829799 C0.355982752,7.48037801 0.42384922,7.46717825 0.48787515,7.44869832 C0.567267304,7.42493839 0.630652024,7.3807192 0.678031212,7.31603941 C0.725410401,7.25135963 0.759343635,7.17150109 0.779831933,7.0764614 L1.58271309,3.43329157 C1.60320138,3.3329719 1.62240887,3.23199374 1.64033613,3.13035408 C1.65826339,3.02871441 1.66722689,2.94093601 1.66722689,2.86701626 C1.66722689,2.71917674 1.64481815,2.62017855 1.6,2.57001872 C1.55518185,2.51985888 1.45850414,2.49477934 1.30996399,2.49477934 C1.25362117,2.49477934 1.1819132,2.50599913 1.09483794,2.52843906 C1.00776267,2.55087899 0.939896202,2.56869866 0.891236495,2.58189862 L0.948859544,2.32846072 C1.14349837,2.23870101 1.31892679,2.16940228 1.47515006,2.12056244 C1.63137333,2.0717226 1.76454527,2.04730305 1.87466987,2.04730305 C2.05394247,2.04730305 2.18967541,2.09416219 2.28187275,2.18788188 C2.37407009,2.28160157 2.43169256,2.4116192 2.4547419,2.57793865 L2.48547419,2.57793865 C2.65962472,2.4116192 2.84593738,2.27434171 3.04441777,2.16610206 C3.24289815,2.05786242 3.44073531,2.00374341 3.63793517,2.00374341 C4.02721283,2.00374341 4.33005094,2.14036091 4.54645858,2.41360001 C4.76286623,2.68683912 4.87106843,3.0544524 4.87106843,3.51645088 Z M3.672509,5.15191734 C3.8031219,4.93543805 3.9036411,4.68926255 3.97406963,4.41338345 C4.04449815,4.13750436 4.07971188,3.8451297 4.07971188,3.53625072 C4.07971188,3.39633117 4.06754714,3.25575374 4.04321729,3.11451421 C4.01888743,2.97327467 3.9798322,2.85645681 3.92605042,2.76405711 C3.8697076,2.66109745 3.79287764,2.58123891 3.69555822,2.52447909 C3.59823881,2.46771928 3.47018887,2.4393398 3.31140456,2.4393398 C3.19359685,2.4393398 3.06362616,2.47629912 2.9214886,2.55021888 C2.77935103,2.62413864 2.60584336,2.7627361 2.40096038,2.96601544 L1.9092437,5.21131684 C1.92717096,5.36179635 2.00592167,5.50237378 2.1454982,5.63305335 C2.28507473,5.76373292 2.4534604,5.82907173 2.65066026,5.82907173 C2.8529822,5.82907173 3.04249612,5.76835284 3.21920768,5.64691324 C3.39591925,5.52547363 3.54701818,5.36047665 3.672509,5.15191734 Z M7.25666267,5.56771389 L7.19903962,5.82115179 C6.96342419,5.91883147 6.77519078,5.98681023 6.63433373,6.0250901 C6.49347669,6.06336998 6.37310974,6.08250963 6.27322929,6.08250963 C6.06834631,6.08250963 5.91468639,6.02773063 5.8122449,5.91817099 C5.70980341,5.80861135 5.65858343,5.67331382 5.65858343,5.51227435 C5.65858343,5.45155455 5.66370543,5.38819571 5.67394958,5.32219593 C5.68419373,5.25619614 5.70084022,5.17303766 5.72388956,5.07271799 L6.13109244,3.38973193 C6.15158073,3.29733223 6.17142848,3.19833404 6.19063625,3.09273439 C6.20984403,2.98713473 6.21944778,2.89737638 6.21944778,2.82345662 C6.21944778,2.6756171 6.19575854,2.5772789 6.14837935,2.52843906 C6.10100016,2.47959922 6.00432246,2.45517967 5.85834334,2.45517967 C5.80200052,2.45517967 5.7270913,2.4644195 5.63361345,2.48289944 C5.54013559,2.50137938 5.46906787,2.51721909 5.42040816,2.53041904 L5.47803121,2.27698114 C5.67779212,2.18458145 5.85706203,2.1159427 6.01584634,2.07106285 C6.17463065,2.026183 6.30011959,2.00374341 6.39231693,2.00374341 C6.60232198,2.00374341 6.75470141,2.05522247 6.84945978,2.15818213 C6.94421816,2.26114179 6.99159664,2.39973926 6.99159664,2.57397868 C6.99159664,2.62149853 6.98647464,2.68617735 6.97623049,2.76801708 C6.96598634,2.84985681 6.95062035,2.93169531 6.93013205,3.01353504 L6.51908764,4.69652111 C6.49347726,4.79948077 6.47106852,4.90045892 6.45186074,4.9994586 C6.43265297,5.09845827 6.42304922,5.17963679 6.42304922,5.24299658 C6.42304922,5.39347609 6.45570195,5.49643421 6.5210084,5.55187402 C6.58631485,5.60731384 6.69195605,5.63503333 6.83793517,5.63503333 C6.88659488,5.63503333 6.9563821,5.62843346 7.04729892,5.6152335 C7.13821574,5.60203354 7.20800296,5.58619383 7.25666267,5.56771389 Z M7.52941176,0.506875802 C7.52941176,0.657355309 7.48203329,0.788692908 7.38727491,0.900892539 C7.29251653,1.01309217 7.17471059,1.06919115 7.03385354,1.06919115 C6.90324064,1.06919115 6.7905567,1.01573212 6.69579832,0.908812474 C6.60103994,0.801892825 6.55366146,0.679795057 6.55366146,0.542515507 C6.55366146,0.397315984 6.60103994,0.2705983 6.69579832,0.162358655 C6.7905567,0.0541190106 6.90324064,0 7.03385354,0 C7.17983266,0 7.29891911,0.050819071 7.39111645,0.152458737 C7.48331379,0.254098404 7.52941176,0.372236244 7.52941176,0.506875802 Z" id="pi" fill="#DDE5ED"></path>
                    </g>
                </g>
            </g>
        </g>
    </g>
</svg>