<?xml version="1.0" encoding="UTF-8"?>
<svg width="26px" height="25px" viewBox="0 0 26 25" version="1.1" xmlns="http://www.w3.org/2000/svg" xmlns:xlink="http://www.w3.org/1999/xlink">
    <!-- Generator: Sketch 46.2 (44496) - http://www.bohemiancoding.com/sketch -->
    <title>Group 55</title>
    <desc>Created with Sketch.</desc>
    <defs>
        <linearGradient x1="0%" y1="50%" x2="100%" y2="50%" id="linearGradient-1">
            <stop stop-color="#C33764" offset="0%"></stop>
            <stop stop-color="#1D2671" offset="100%"></stop>
        </linearGradient>
    </defs>
    <g id="Page-1" stroke="none" stroke-width="1" fill="none" fill-rule="evenodd">
        <g id="2.0-Mobile_ConsumerInsights_Dropdown_Solution" transform="translate(-76.000000, -457.000000)">
            <g id="Group-59" transform="translate(31.000000, 252.000000)">
                <g id="Group-55" transform="translate(45.000000, 205.000000)">
                    <path d="M0.5,0.5 L0.5,23.7928932 L23.7928932,0.5 L0.5,0.5 Z" id="Rectangle-2" stroke="url(#linearGradient-1)"></path>
                    <path d="M22.9632568,22.8106689 C22.9632568,23.0812595 22.9144292,23.3401477 22.8167725,23.5873413 C22.7191157,23.8345349 22.5899259,24.0476472 22.4291992,24.2266846 C22.2644035,24.409791 22.0782481,24.5537308 21.8707275,24.6585083 C21.663207,24.7632858 21.4434826,24.8156738 21.2115479,24.8156738 C21.0365795,24.8156738 20.8824673,24.8009238 20.7492065,24.7714233 C20.6159458,24.7419229 20.5025233,24.7017418 20.4089355,24.6508789 C20.3133133,24.5979815 20.2339684,24.5384728 20.1708984,24.4723511 C20.1078285,24.4062293 20.0508629,24.3324792 20,24.2510986 L20.7873535,20.7965088 C20.7975261,20.7497149 20.8061727,20.7095339 20.8132935,20.6759644 C20.8204143,20.6423949 20.8239746,20.6083172 20.8239746,20.5737305 C20.8239746,20.5004879 20.8117677,20.444031 20.7873535,20.4043579 C20.7629393,20.3646849 20.7283531,20.3346762 20.6835938,20.3143311 C20.6408689,20.2960204 20.5869551,20.2838135 20.5218506,20.27771 C20.4567461,20.2716064 20.3906253,20.2644857 20.3234863,20.2563477 L20.3662109,20.0701904 L21.4984131,20 L21.5289307,20.0457764 L21.0650635,22.0751953 L21.0772705,22.0751953 C21.2603769,21.9124341 21.4216098,21.8000288 21.5609741,21.7379761 C21.7003384,21.6759234 21.8361403,21.6448975 21.9683838,21.6448975 C22.2776301,21.6448975 22.5207511,21.7501821 22.6977539,21.9607544 C22.8747567,22.1713267 22.9632568,22.4546288 22.9632568,22.8106689 Z M22.3345947,22.8259277 C22.3345947,22.7180984 22.3249309,22.6097621 22.305603,22.5009155 C22.2862751,22.392069 22.254232,22.3010258 22.2094727,22.2277832 C22.1626788,22.1504716 22.0985925,22.0894371 22.0172119,22.0446777 C21.9358313,21.9999184 21.8351243,21.9775391 21.7150879,21.9775391 C21.6438799,21.9775391 21.5767419,21.989746 21.5136719,22.0141602 C21.4506019,22.0385743 21.3854984,22.0711261 21.3183594,22.1118164 C21.2593584,22.1484377 21.2018842,22.1926877 21.1459351,22.2445679 C21.0899859,22.296448 21.0386151,22.3427325 20.9918213,22.3834229 L20.5859375,24.1931152 C20.592041,24.2338055 20.6103514,24.2785642 20.6408691,24.3273926 C20.6713869,24.3762209 20.7100421,24.4189451 20.7568359,24.4555664 C20.8138024,24.5023603 20.8778886,24.5379637 20.9490967,24.5623779 C21.0203047,24.5867921 21.0986324,24.598999 21.184082,24.598999 C21.3448087,24.598999 21.4958692,24.5516973 21.6372681,24.4570923 C21.7786669,24.3624873 21.9002274,24.2348234 22.0019531,24.0740967 C22.1138515,23.8991284 22.1972654,23.7038178 22.2521973,23.4881592 C22.3071292,23.2725005 22.3345947,23.0517589 22.3345947,22.8259277 Z M24.8583984,24.3914795 L24.8126221,24.586792 C24.6254467,24.6620691 24.475912,24.714457 24.3640137,24.7439575 C24.2521153,24.773458 24.1564945,24.788208 24.0771484,24.788208 C23.9143872,24.788208 23.7923181,24.7459924 23.7109375,24.6615601 C23.6295569,24.5771277 23.5888672,24.4728603 23.5888672,24.3487549 C23.5888672,24.301961 23.5929362,24.2531334 23.6010742,24.2022705 C23.6092123,24.1514076 23.6224364,24.0873214 23.6407471,24.0100098 L23.9642334,22.7130127 C23.9805095,22.6418047 23.9962768,22.5655115 24.0115356,22.4841309 C24.0267945,22.4027502 24.0344238,22.3335778 24.0344238,22.2766113 C24.0344238,22.1626785 24.0156048,22.0868939 23.9779663,22.0492554 C23.9403278,22.0116168 23.863526,21.9927979 23.7475586,21.9927979 C23.7027993,21.9927979 23.6432906,21.9999185 23.5690308,22.0141602 C23.494771,22.0284018 23.438314,22.0406087 23.3996582,22.0507812 L23.4454346,21.8554688 C23.6041268,21.7842607 23.7465407,21.7313641 23.8726807,21.6967773 C23.9988206,21.6621906 24.0985104,21.6448975 24.1717529,21.6448975 C24.3385832,21.6448975 24.459635,21.6845699 24.5349121,21.763916 C24.6101892,21.8432621 24.6478271,21.9500726 24.6478271,22.0843506 C24.6478271,22.1209719 24.6437582,22.1708167 24.6356201,22.2338867 C24.6274821,22.2969567 24.6152751,22.3600257 24.598999,22.4230957 L24.2724609,23.7200928 C24.2521158,23.7994389 24.234314,23.8772579 24.2190552,23.9535522 C24.2037963,24.0298466 24.196167,24.092407 24.196167,24.1412354 C24.196167,24.2572027 24.2221067,24.3365476 24.2739868,24.3792725 C24.325867,24.4219973 24.4097895,24.4433594 24.5257568,24.4433594 C24.5644126,24.4433594 24.6198523,24.4382732 24.6920776,24.4281006 C24.7643029,24.417928 24.8197426,24.4057211 24.8583984,24.3914795 Z M25.0750732,20.491333 C25.0750732,20.6073004 25.0374353,20.708516 24.9621582,20.7949829 C24.8868811,20.8814498 24.7932948,20.9246826 24.6813965,20.9246826 C24.5776362,20.9246826 24.4881189,20.8834843 24.4128418,20.8010864 C24.3375647,20.7186886 24.2999268,20.6245936 24.2999268,20.5187988 C24.2999268,20.4069005 24.3375647,20.3092452 24.4128418,20.2258301 C24.4881189,20.1424149 24.5776362,20.100708 24.6813965,20.100708 C24.7973639,20.100708 24.8919674,20.1398718 24.96521,20.2182007 C25.0384525,20.2965295 25.0750732,20.3875727 25.0750732,20.491333 Z" id="bi" fill="#000000"></path>
                </g>
            </g>
        </g>
    </g>
</svg>