<?xml version="1.0" encoding="UTF-8"?>
<svg width="25px" height="25px" viewBox="0 0 25 25" version="1.1" xmlns="http://www.w3.org/2000/svg" xmlns:xlink="http://www.w3.org/1999/xlink">
    <!-- Generator: Sketch 46.2 (44496) - http://www.bohemiancoding.com/sketch -->
    <title>Group 57</title>
    <desc>Created with Sketch.</desc>
    <defs>
        <linearGradient x1="1.30141901%" y1="50%" x2="100%" y2="50%" id="linearGradient-1">
            <stop stop-color="#EC008C" offset="0%"></stop>
            <stop stop-color="#FC6767" offset="100%"></stop>
        </linearGradient>
    </defs>
    <g id="Page-1" stroke="none" stroke-width="1" fill="none" fill-rule="evenodd">
        <g id="2.0-Mobile_ConsumerInsights_Dropdown_Solution" transform="translate(-221.000000, -252.000000)">
            <g id="Group-59" transform="translate(31.000000, 252.000000)">
                <g id="Group-57" transform="translate(190.000000, 0.000000)">
                    <path d="M0.5,0.5 L0.5,23.7928932 L23.7928932,0.5 L0.5,0.5 Z" id="Rectangle-2" stroke="url(#linearGradient-1)" transform="translate(12.500000, 12.500000) rotate(-180.000000) translate(-12.500000, -12.500000) "></path>
                    <path d="M5.078125,4.27856445 L5.03234863,4.47387695 C4.84517322,4.54915402 4.69563858,4.60154201 4.58374023,4.63104248 C4.47184189,4.66054295 4.3762211,4.67529297 4.296875,4.67529297 C4.13411377,4.67529297 4.01204468,4.63307741 3.93066406,4.54864502 C3.84928345,4.46421263 3.80859375,4.35994528 3.80859375,4.23583984 C3.80859375,4.19108051 3.81266272,4.14174425 3.82080078,4.08782959 C3.82893884,4.03391493 3.84216299,3.97033728 3.86047363,3.89709473 L4.1595459,2.75878906 C4.18192557,2.6713049 4.19972731,2.59195999 4.21295166,2.52075195 C4.22617601,2.44954391 4.23278809,2.39257834 4.23278809,2.34985352 C4.23278809,2.21354099 4.20328806,2.10571329 4.14428711,2.02636719 C4.08528616,1.94702109 3.99169986,1.90734863 3.86352539,1.90734863 C3.72721286,1.90734863 3.59344548,1.93939177 3.46221924,2.003479 C3.330993,2.06756624 3.18298422,2.18709222 3.01818848,2.36206055 L2.48718262,4.62341309 L1.91955566,4.62341309 L2.39868164,2.58483887 C2.40885422,2.54007953 2.41851802,2.49277776 2.42767334,2.44293213 C2.43682866,2.3930865 2.44140625,2.35595715 2.44140625,2.33154297 C2.44140625,2.19929947 2.40834587,2.09554074 2.34222412,2.02026367 C2.27610237,1.9449866 2.17895572,1.90734863 2.05078125,1.90734863 C1.93481387,1.90734863 1.80664133,1.93634004 1.66625977,1.99432373 C1.5258782,2.05230742 1.36311942,2.18200583 1.17797852,2.38342285 L0.662231445,4.62341309 L0.0946044922,4.62341309 L0.549316406,2.64587402 C0.565592529,2.57466599 0.581359787,2.4983728 0.596618652,2.41699219 C0.611877518,2.33561157 0.619506836,2.26643909 0.619506836,2.20947266 C0.619506836,2.09147076 0.60017923,2.01365172 0.561523438,1.97601318 C0.522867645,1.93837465 0.447591705,1.91955566 0.335693359,1.91955566 C0.290934021,1.91955566 0.233459824,1.9276936 0.163269043,1.94396973 C0.0930782623,1.96024585 0.0386557922,1.97347 0,1.98364258 L0.0457763672,1.78833008 C0.204468567,1.71712204 0.344848022,1.66422543 0.466918945,1.62963867 C0.588989868,1.59505191 0.693765839,1.57775879 0.78125,1.57775879 C0.94401123,1.57775879 1.05946825,1.62200883 1.12762451,1.71051025 C1.19578078,1.79901167 1.23189288,1.9195549 1.23596191,2.07214355 L1.25427246,2.07214355 C1.49434528,1.88293362 1.69169031,1.74764038 1.84631348,1.66625977 C2.00093665,1.58487915 2.18505753,1.54418945 2.39868164,1.54418945 C2.57975351,1.54418945 2.72674504,1.59657744 2.83966064,1.70135498 C2.95257625,1.80613252 3.0161539,1.93786542 3.03039551,2.09655762 L3.04260254,2.09655762 C3.26029568,1.91548575 3.45408037,1.77815802 3.6239624,1.68457031 C3.79384444,1.5909826 3.99169809,1.54418945 4.2175293,1.54418945 C4.41284277,1.54418945 4.56288603,1.60064641 4.66766357,1.71356201 C4.77244112,1.82647762 4.8248291,1.97448639 4.8248291,2.15759277 C4.8248291,2.19421405 4.81923427,2.25931757 4.80804443,2.35290527 C4.7968546,2.44649298 4.77905286,2.53906204 4.75463867,2.63061523 L4.49829102,3.61022949 C4.47998038,3.67533398 4.46268726,3.7501013 4.44641113,3.83453369 C4.43013501,3.91896608 4.42199707,3.98457822 4.42199707,4.03137207 C4.42199707,4.14733945 4.44641089,4.22617574 4.49523926,4.2678833 C4.54406763,4.30959087 4.62646426,4.33044434 4.74243164,4.33044434 C4.78108743,4.33044434 4.83703577,4.32535812 4.91027832,4.31518555 C4.98352087,4.30501297 5.03946921,4.29280606 5.078125,4.27856445 Z M6.93664551,4.29077148 L6.89086914,4.48608398 C6.70369373,4.56136105 6.55415909,4.61374904 6.44226074,4.64324951 C6.3303624,4.67274998 6.23474161,4.6875 6.15539551,4.6875 C5.99263428,4.6875 5.87056519,4.64528444 5.78918457,4.56085205 C5.70780396,4.47641966 5.66711426,4.37215231 5.66711426,4.24804688 C5.66711426,4.20125302 5.67118323,4.15242538 5.67932129,4.1015625 C5.68745935,4.05069962 5.7006835,3.98661334 5.71899414,3.90930176 L6.04248047,2.61230469 C6.05875659,2.54109665 6.07452385,2.46480347 6.08978271,2.38342285 C6.10504158,2.30204224 6.1126709,2.23286975 6.1126709,2.17590332 C6.1126709,2.06197046 6.09385191,1.9861859 6.05621338,1.94854736 C6.01857484,1.91090883 5.94177304,1.89208984 5.82580566,1.89208984 C5.78104633,1.89208984 5.72153764,1.89921054 5.64727783,1.91345215 C5.57301802,1.92769376 5.51656107,1.93990067 5.47790527,1.95007324 L5.52368164,1.75476074 C5.68237384,1.6835527 5.82478778,1.6306561 5.95092773,1.59606934 C6.07706769,1.56148257 6.17675745,1.54418945 6.25,1.54418945 C6.41683026,1.54418945 6.53788211,1.58386191 6.61315918,1.66320801 C6.68843625,1.74255411 6.72607422,1.84936456 6.72607422,1.98364258 C6.72607422,2.02026385 6.72200525,2.07010873 6.71386719,2.13317871 C6.70572913,2.19624869 6.69352222,2.25931772 6.67724609,2.3223877 L6.35070801,3.61938477 C6.33036285,3.69873087 6.31256111,3.77654991 6.29730225,3.85284424 C6.28204338,3.92913857 6.27441406,3.99169897 6.27441406,4.04052734 C6.27441406,4.15649472 6.30035374,4.23583963 6.35223389,4.27856445 C6.40411403,4.32128928 6.48803653,4.34265137 6.60400391,4.34265137 C6.6426597,4.34265137 6.69809941,4.33756516 6.77032471,4.32739258 C6.84255,4.31722 6.89798972,4.30501309 6.93664551,4.29077148 Z M7.15332031,0.390625 C7.15332031,0.506592377 7.11568234,0.607807999 7.04040527,0.694274902 C6.9651282,0.780741806 6.8715419,0.823974609 6.75964355,0.823974609 C6.65588327,0.823974609 6.56636594,0.782776291 6.49108887,0.700378418 C6.4158118,0.617980545 6.37817383,0.52388562 6.37817383,0.41809082 C6.37817383,0.306192474 6.4158118,0.208537201 6.49108887,0.12512207 C6.56636594,0.0417069397 6.65588327,0 6.75964355,0 C6.87561093,0 6.97021448,0.0391638336 7.04345703,0.117492676 C7.11669958,0.195821518 7.15332031,0.286864716 7.15332031,0.390625 Z" id="mi" fill="#000000"></path>
                </g>
            </g>
        </g>
    </g>
</svg>