<?xml version="1.0" encoding="UTF-8"?>
<svg width="27px" height="27px" viewBox="0 0 27 27" version="1.1" xmlns="http://www.w3.org/2000/svg" xmlns:xlink="http://www.w3.org/1999/xlink">
    <!-- Generator: Sketch 46.2 (44496) - http://www.bohemiancoding.com/sketch -->
    <title>Group 54</title>
    <desc>Created with Sketch.</desc>
    <defs>
        <linearGradient x1="1.30141901%" y1="50%" x2="98.7603635%" y2="50%" id="linearGradient-1">
            <stop stop-color="#43CEA2" offset="0%"></stop>
            <stop stop-color="#185A9D" offset="100%"></stop>
        </linearGradient>
    </defs>
    <g id="Page-1" stroke="none" stroke-width="1" fill="none" fill-rule="evenodd">
        <g id="2.0-Mobile_ConsumerInsights_Dropdown_Solution" transform="translate(-75.000000, -357.000000)">
            <g id="Group-59" transform="translate(31.000000, 252.000000)">
                <g id="Group-54" transform="translate(45.000000, 106.000000)">
                    <path d="M-8.8817842e-16,20.7106781 C2.65016237,23.3608405 6.31132761,25 10.3553391,25 C18.443362,25 25,18.443362 25,10.3553391 C25,6.31132761 23.3608405,2.65016237 20.7106781,-1.02140518e-14 L-2.44249065e-15,20.7106781 Z" id="Combined-Shape" stroke="url(#linearGradient-1)"></path>
                    <path d="M3.86962891,2.70996094 C3.86962891,2.982586 3.82181851,3.24096558 3.72619629,3.48510742 C3.63057407,3.72924927 3.50341876,3.94083569 3.34472656,4.11987305 C3.16772372,4.31722104 2.97597353,4.46370395 2.76947021,4.55932617 C2.5629669,4.65494839 2.35087186,4.70275879 2.13317871,4.70275879 C1.95821039,4.70275879 1.81477921,4.6813967 1.70288086,4.63867188 C1.59098251,4.59594705 1.49129276,4.54305045 1.40380859,4.47998047 L1.22680664,5.27954102 C1.21459955,5.3304039 1.20493575,5.37821429 1.19781494,5.42297363 C1.19069414,5.46773297 1.18713379,5.50333646 1.18713379,5.52978516 C1.18713379,5.58471707 1.20697002,5.6284585 1.24664307,5.66101074 C1.28631612,5.69356299 1.3315834,5.71695956 1.38244629,5.73120117 C1.43330917,5.74747729 1.49027475,5.7596842 1.55334473,5.76782227 C1.6164147,5.77596033 1.67338028,5.78206378 1.72424316,5.78613281 L1.68151855,5.97839355 L0,5.97839355 L0.0427246094,5.78613281 C0.107829102,5.78206378 0.168863647,5.77697757 0.225830078,5.77087402 C0.282796509,5.76477048 0.336710358,5.75459805 0.387573242,5.74035645 C0.450643219,5.72204581 0.500996719,5.68796819 0.538635254,5.63812256 C0.576273788,5.58827693 0.603230713,5.52673376 0.619506836,5.45349121 L1.25732422,2.64587402 C1.27360034,2.56856244 1.28885898,2.49074339 1.30310059,2.41241455 C1.31734219,2.33408571 1.32446289,2.26643909 1.32446289,2.20947266 C1.32446289,2.09553979 1.30666115,2.01924661 1.27105713,1.98059082 C1.23545311,1.94193503 1.15865131,1.92260742 1.04064941,1.92260742 C0.995890076,1.92260742 0.9389245,1.93125398 0.869750977,1.94854736 C0.800577454,1.96584074 0.746663605,1.97957352 0.708007812,1.98974609 L0.75378418,1.79443359 C0.908407349,1.72526007 1.04776956,1.67185484 1.171875,1.63421631 C1.29598044,1.59657777 1.40177365,1.57775879 1.48925781,1.57775879 C1.63167389,1.57775879 1.73950159,1.6138709 1.81274414,1.68609619 C1.88598669,1.75832149 1.9317626,1.85851987 1.95007324,1.98669434 L1.9744873,1.98669434 C2.11283435,1.85851987 2.26084312,1.75272665 2.41851807,1.66931152 C2.57619301,1.58589639 2.73335696,1.54418945 2.89001465,1.54418945 C3.19926099,1.54418945 3.43983882,1.64947404 3.61175537,1.86004639 C3.78367192,2.07061873 3.86962891,2.35392075 3.86962891,2.70996094 Z M2.91748047,3.97033691 C3.02124075,3.80350665 3.10109428,3.61379094 3.15704346,3.40118408 C3.21299263,3.18857722 3.2409668,2.96325803 3.2409668,2.72521973 C3.2409668,2.61739041 3.23130299,2.50905409 3.2119751,2.40020752 C3.1926472,2.29136095 3.16162131,2.20133499 3.11889648,2.13012695 C3.07413715,2.05078085 3.0131026,1.98923769 2.93579102,1.94549561 C2.85847943,1.90175352 2.75675519,1.87988281 2.63061523,1.87988281 C2.53702753,1.87988281 2.43377742,1.9083656 2.32086182,1.96533203 C2.20794621,2.02229846 2.07010986,2.12910892 1.90734863,2.2857666 L1.51672363,4.01611328 C1.53096524,4.13208066 1.59352565,4.24041698 1.70440674,4.34112549 C1.81528783,4.441834 1.94905521,4.4921875 2.10571289,4.4921875 C2.26643961,4.4921875 2.41699149,4.44539435 2.55737305,4.35180664 C2.69775461,4.25821893 2.81778922,4.13106363 2.91748047,3.97033691 Z M5.76477051,4.29077148 L5.71899414,4.48608398 C5.53181873,4.56136105 5.38228409,4.61374904 5.27038574,4.64324951 C5.1584874,4.67274998 5.06286661,4.6875 4.98352051,4.6875 C4.82075928,4.6875 4.69869019,4.64528444 4.61730957,4.56085205 C4.53592896,4.47641966 4.49523926,4.37215231 4.49523926,4.24804688 C4.49523926,4.20125302 4.49930823,4.15242538 4.50744629,4.1015625 C4.51558435,4.05069962 4.5288085,3.98661334 4.54711914,3.90930176 L4.87060547,2.61230469 C4.88688159,2.54109665 4.90264885,2.46480347 4.91790771,2.38342285 C4.93316658,2.30204224 4.9407959,2.23286975 4.9407959,2.17590332 C4.9407959,2.06197046 4.92197691,1.9861859 4.88433838,1.94854736 C4.84669984,1.91090883 4.76989804,1.89208984 4.65393066,1.89208984 C4.60917133,1.89208984 4.54966264,1.89921054 4.47540283,1.91345215 C4.40114302,1.92769376 4.34468607,1.93990067 4.30603027,1.95007324 L4.35180664,1.75476074 C4.51049884,1.6835527 4.65291278,1.6306561 4.77905273,1.59606934 C4.90519269,1.56148257 5.00488245,1.54418945 5.078125,1.54418945 C5.24495526,1.54418945 5.36600711,1.58386191 5.44128418,1.66320801 C5.51656125,1.74255411 5.55419922,1.84936456 5.55419922,1.98364258 C5.55419922,2.02026385 5.55013025,2.07010873 5.54199219,2.13317871 C5.53385413,2.19624869 5.52164722,2.25931772 5.50537109,2.3223877 L5.17883301,3.61938477 C5.15848785,3.69873087 5.14068611,3.77654991 5.12542725,3.85284424 C5.11016838,3.92913857 5.10253906,3.99169897 5.10253906,4.04052734 C5.10253906,4.15649472 5.12847874,4.23583963 5.18035889,4.27856445 C5.23223903,4.32128928 5.31616153,4.34265137 5.43212891,4.34265137 C5.4707847,4.34265137 5.52622441,4.33756516 5.59844971,4.32739258 C5.670675,4.31722 5.72611472,4.30501309 5.76477051,4.29077148 Z M5.98144531,0.390625 C5.98144531,0.506592377 5.94380734,0.607807999 5.86853027,0.694274902 C5.7932532,0.780741806 5.6996669,0.823974609 5.58776855,0.823974609 C5.48400827,0.823974609 5.39449094,0.782776291 5.31921387,0.700378418 C5.2439368,0.617980545 5.20629883,0.52388562 5.20629883,0.41809082 C5.20629883,0.306192474 5.2439368,0.208537201 5.31921387,0.12512207 C5.39449094,0.0417069397 5.48400827,0 5.58776855,0 C5.70373593,0 5.79833948,0.0391638336 5.87158203,0.117492676 C5.94482458,0.195821518 5.98144531,0.286864716 5.98144531,0.390625 Z" id="pi" fill="#000000"></path>
                </g>
            </g>
        </g>
    </g>
</svg>