<?xml version="1.0" encoding="UTF-8"?>
<svg width="41px" height="24px" viewBox="0 0 41 24" version="1.1" xmlns="http://www.w3.org/2000/svg" xmlns:xlink="http://www.w3.org/1999/xlink">
    <!-- Generator: Sketch 46.2 (44496) - http://www.bohemiancoding.com/sketch -->
    <title>Group 58</title>
    <desc>Created with Sketch.</desc>
    <defs>
        <linearGradient x1="0%" y1="50%" x2="100%" y2="50%" id="linearGradient-1">
            <stop stop-color="#FC4A1A" offset="0%"></stop>
            <stop stop-color="#F7B733" offset="100%"></stop>
        </linearGradient>
    </defs>
    <g id="Page-1" stroke="none" stroke-width="1" fill="none" fill-rule="evenodd">
        <g id="2.0-Mobile_ConsumerInsights_Dropdown_Solution" transform="translate(-213.000000, -358.000000)">
            <g id="Group-59" transform="translate(31.000000, 252.000000)">
                <g id="Group-58" transform="translate(182.000000, 106.000000)">
                    <rect id="Rectangle-5" stroke="url(#linearGradient-1)" x="0.5" y="12.5" width="38.893617" height="10.9680851"></rect>
                    <path d="M36.2354246,4.9386457 L36.2104278,4.9386457 C36.1580534,4.9814975 36.0955621,5.03565661 36.0229521,5.10112464 C35.9503421,5.16659268 35.865235,5.22908396 35.7676281,5.28860035 C35.6747825,5.34811674 35.5736061,5.39989523 35.464096,5.44393736 C35.3545858,5.48797949 35.2355548,5.51000023 35.1069994,5.51000023 C34.7618043,5.51000023 34.4910088,5.38620799 34.2946047,5.13861979 C34.0982006,4.89103159 34,4.55298354 34,4.1244655 C34,3.82926418 34.0547543,3.54239947 34.1642644,3.26386274 C34.2737746,2.98532602 34.424944,2.73536091 34.6177771,2.51395992 C34.8010876,2.30208156 35.0189143,2.13127207 35.2712638,2.00152633 C35.5236133,1.87178059 35.7831009,1.80690869 36.0497344,1.80690869 C36.2187609,1.80690869 36.3800479,1.82952459 36.5336002,1.87475704 C36.6871525,1.9199895 36.807969,1.97117284 36.8960533,2.02830857 L37.54954,1.86047318 L37.5923916,1.91403767 L37.0496048,4.21731061 C37.0305595,4.29111094 37.0109194,4.38097935 36.9906839,4.48691853 C36.9704483,4.59285771 36.9603306,4.67082302 36.9603306,4.72081679 C36.9603306,4.85651417 36.9888981,4.94816804 37.0460338,4.99578115 C37.1031696,5.04339427 37.1995847,5.06720047 37.3352821,5.06720047 C37.3805145,5.06720047 37.4447913,5.06005861 37.5281142,5.04577467 C37.6114372,5.03149074 37.6757139,5.01601671 37.7209464,4.99935212 L37.6673819,5.22789393 C37.4531229,5.31359754 37.2936213,5.37549366 37.1888725,5.41358415 C37.0841236,5.45167464 36.9567604,5.47071961 36.8067791,5.47071961 C36.6353719,5.47071961 36.4996766,5.42072658 36.399689,5.32073904 C36.2997015,5.2207515 36.2449472,5.09338833 36.2354246,4.9386457 Z M36.7460727,2.68179532 C36.7460727,2.60323368 36.7377405,2.52824414 36.7210759,2.45682447 C36.7044113,2.3854048 36.6698924,2.31874744 36.6175179,2.25685039 C36.5699048,2.19733399 36.5044378,2.14972159 36.4211148,2.11401175 C36.3377919,2.07830192 36.2330446,2.06044727 36.1068698,2.06044727 C35.933082,2.06044727 35.7640579,2.11758215 35.5997927,2.23185362 C35.4355274,2.3461251 35.287929,2.4996751 35.1569929,2.69250821 C35.0331988,2.87343805 34.9320225,3.0924551 34.8534608,3.34956592 C34.7748992,3.60667674 34.735619,3.86735464 34.735619,4.13160743 C34.735619,4.27682743 34.7439511,4.40538092 34.7606157,4.51727174 C34.7772803,4.62916256 34.8094187,4.73152922 34.8570318,4.8243748 C34.9022643,4.91483971 34.9677313,4.98506801 35.0534349,5.03506178 C35.1391385,5.08505555 35.2474567,5.11005206 35.3783928,5.11005206 C35.5117095,5.11005206 35.651571,5.07255729 35.7979813,4.99756664 C35.9443916,4.92257598 36.1092495,4.79104672 36.29256,4.60297492 L36.7460727,2.68179532 Z M39.9063774,5.02077791 L39.8528129,5.24931973 C39.6337926,5.33740399 39.458817,5.39870496 39.327881,5.43322446 C39.1969449,5.46774397 39.0850558,5.48500347 38.9922102,5.48500347 C38.8017577,5.48500347 38.6589205,5.4356056 38.5636943,5.33680839 C38.4684681,5.23801117 38.4208557,5.1160044 38.4208557,4.97078439 C38.4208557,4.91602931 38.4256169,4.85889443 38.4351395,4.79937803 C38.4446621,4.73986164 38.4601362,4.66487211 38.4815621,4.57440719 L38.8600845,3.05674672 C38.8791297,2.97342377 38.8975795,2.88415052 38.9154344,2.78892429 C38.9332893,2.69369806 38.9422167,2.61275698 38.9422167,2.54609862 C38.9422167,2.41278189 38.9201959,2.32410379 38.8761538,2.28006166 C38.8321117,2.23601953 38.7422433,2.2139988 38.6065459,2.2139988 C38.5541715,2.2139988 38.4845383,2.22233097 38.3976444,2.23899556 C38.3107504,2.25566015 38.2446882,2.26994387 38.1994558,2.28184715 L38.2530203,2.05330533 C38.4387114,1.96998238 38.6053548,1.90808626 38.7529555,1.86761511 C38.9005561,1.82714397 39.0172065,1.80690869 39.1029101,1.80690869 C39.2981239,1.80690869 39.4397708,1.85333079 39.5278551,1.94617636 C39.6159393,2.03902194 39.6599808,2.16400449 39.6599808,2.32112777 C39.6599808,2.36397957 39.6552196,2.42230477 39.6456969,2.49610509 C39.6361743,2.56990542 39.6218906,2.64370464 39.6028453,2.71750497 L39.220752,4.23516544 C39.1969454,4.32801101 39.176115,4.41906973 39.1582601,4.50834432 C39.1404052,4.59761891 39.1314779,4.67082298 39.1314779,4.72795872 C39.1314779,4.8636561 39.1618308,4.95650028 39.2225375,5.00649405 C39.2832442,5.05648782 39.3814448,5.08148433 39.5171422,5.08148433 C39.5623746,5.08148433 39.6272465,5.07553278 39.7117598,5.0636295 C39.7962731,5.05172623 39.861145,5.0374425 39.9063774,5.02077791 Z M40.159916,0.457083622 C40.159916,0.592781001 40.1158745,0.711216849 40.0277903,0.812394719 C39.939706,0.91357259 39.8301975,0.964160766 39.6992614,0.964160766 C39.577848,0.964160766 39.4731007,0.91595321 39.3850164,0.819536651 C39.2969322,0.723120092 39.2528907,0.613016415 39.2528907,0.489222315 C39.2528907,0.358286247 39.2969322,0.244016484 39.3850164,0.146409598 C39.4731007,0.0488027112 39.577848,0 39.6992614,0 C39.8349588,0 39.9456576,0.0458269362 40.0313612,0.137482183 C40.1170648,0.22913743 40.159916,0.335670178 40.159916,0.457083622 Z" id="ai" fill="#000000"></path>
                </g>
            </g>
        </g>
    </g>
</svg>