<?xml version="1.0" encoding="UTF-8"?>
<svg width="77px" height="78px" viewBox="0 0 77 78" version="1.1" xmlns="http://www.w3.org/2000/svg" xmlns:xlink="http://www.w3.org/1999/xlink">
    <!-- Generator: Sketch 47.1 (45422) - http://www.bohemiancoding.com/sketch -->
    <title>Group 7</title>
    <desc>Created with Sketch.</desc>
    <defs>
        <linearGradient x1="2.36567283%" y1="50%" x2="99.4040976%" y2="50%" id="linearGradient-1">
            <stop stop-color="#24C6DC" offset="0%"></stop>
            <stop stop-color="#514A9D" offset="100%"></stop>
        </linearGradient>
    </defs>
    <g id="Page-1" stroke="none" stroke-width="1" fill="none" fill-rule="evenodd">
        <g id="Artboard" transform="translate(-272.000000, -185.000000)">
            <g id="border_gradient" transform="translate(167.000000, 186.000000)">
                <g id="Group-3">
                    <g id="Group">
                        <g id="Group-7" transform="translate(106.000000, 0.000000)">
                            <path d="M-6.08402217e-14,62.1320344 C7.87176942,70.0825215 18.7465176,75 30.7584328,75 C54.7822633,75 74.2574257,55.3300859 74.2574257,31.0660172 C74.2574257,18.9339828 69.3886351,7.95048712 61.5168657,-5.19584376e-14 L-4.92939023e-14,62.1320344 Z" id="Combined-Shape" stroke="url(#linearGradient-1)" stroke-width="2" transform="translate(37.128713, 37.500000) rotate(-180.000000) translate(-37.128713, -37.500000) "></path>
                            <path d="M64.4056398,72.0819306 C63.3050053,72.0819306 62.4355172,71.7579715 61.7971492,71.1100438 C61.1587812,70.462116 60.839602,69.541056 60.839602,68.3468362 C60.839602,67.5528071 60.96067,66.7921386 61.2028096,66.0648079 C61.4449491,65.3374772 61.7829961,64.6911472 62.2169605,64.1257985 C62.650925,63.5604497 63.1996616,63.0983317 63.8631869,62.7394306 C64.5267123,62.3805294 65.2641263,62.2010815 66.0754511,62.2010815 C66.9748266,62.2010815 67.6587821,62.3932337 68.1273379,62.7775438 C68.5958937,63.1618539 68.8301681,63.6462044 68.8301681,64.2306098 C68.8301681,64.6689139 68.7279678,65.0532182 68.5235643,65.3835343 C68.3191608,65.7138504 68.01256,65.879006 67.603753,65.879006 C67.2641286,65.879006 67.0094142,65.7932522 66.839602,65.6217419 C66.6697899,65.4502316 66.584885,65.2596675 66.584885,65.0500438 C66.584885,64.8467723 66.6540667,64.5688663 66.7924322,64.2163173 C66.9307977,63.8637684 67.0408595,63.5795102 67.1226209,63.3635343 C67.0534382,63.192024 66.8993516,63.0665693 66.6603567,62.9871664 C66.4213618,62.9077635 66.1729366,62.8680626 65.9150737,62.8680626 C65.0597235,62.8680626 64.3223095,63.3714695 63.7028096,64.3782985 C63.0833096,65.3851274 62.7735643,66.6190302 62.7735643,68.0800438 C62.7735643,68.9820608 62.9732478,69.6982644 63.3726209,70.2286758 C63.771994,70.7590873 64.3112967,71.024289 64.9905454,71.024289 C65.6006114,71.024289 66.1430588,70.8591335 66.6179039,70.5288173 C67.0927491,70.1985012 67.547147,69.7316191 67.9811115,69.128157 L68.5188473,69.5283456 C68.0848829,70.220739 67.4952661,70.819428 66.7499794,71.3244306 C66.0046926,71.8294331 65.2232539,72.0819306 64.4056398,72.0819306 Z M74.1697907,70.7765532 L74.0282813,71.3863645 C73.449662,71.6213971 72.9874025,71.7849647 72.6414888,71.8770721 C72.2955751,71.9691794 71.9999806,72.0152324 71.7546964,72.0152324 C71.2515492,72.0152324 70.8741945,71.8834256 70.6226209,71.6198079 C70.3710473,71.3561902 70.2452624,71.0306432 70.2452624,70.643157 C70.2452624,70.4970556 70.2578409,70.3446043 70.2829983,70.1857985 C70.3081556,70.0269927 70.3490357,69.8269003 70.4056398,69.5855155 L71.4056398,65.5359872 C71.4559545,65.313659 71.5046961,65.0754538 71.5518662,64.8213645 C71.5990362,64.5672752 71.6226209,64.3513025 71.6226209,64.17344 C71.6226209,63.8177149 71.5644454,63.5810978 71.4480926,63.4635815 C71.3317398,63.3460652 71.0943208,63.2873079 70.7358284,63.2873079 C70.597463,63.2873079 70.4135025,63.3095404 70.1839416,63.354006 C69.9543808,63.3984717 69.7798542,63.4365845 69.6603567,63.4683456 L69.8018662,62.8585343 C70.2924347,62.6362062 70.7326818,62.4710506 71.1226209,62.3630626 C71.51256,62.2550747 71.820733,62.2010815 72.0471492,62.2010815 C72.562875,62.2010815 72.9370851,62.3249482 73.1697907,62.5726853 C73.4024963,62.8204224 73.5188473,63.1539096 73.5188473,63.573157 C73.5188473,63.6874972 73.5062688,63.8431245 73.4811115,64.0400438 C73.4559541,64.236963 73.4182186,64.4338793 73.3679039,64.6307985 L72.35847,68.6803268 C72.2955766,68.9280639 72.2405457,69.1710331 72.1933756,69.4092419 C72.1462056,69.6474506 72.1226209,69.8427788 72.1226209,69.9952324 C72.1226209,70.3573097 72.2028088,70.6050431 72.3631869,70.73844 C72.5235651,70.8718369 72.7829965,70.9385343 73.1414888,70.9385343 C73.2609863,70.9385343 73.4323682,70.922654 73.6556398,70.8908928 C73.8789113,70.8591317 74.0502933,70.8210188 74.1697907,70.7765532 Z M74.839602,58.5993834 C74.839602,58.9614607 74.723251,59.2774795 74.4905454,59.5474494 C74.2578399,59.8174193 73.9685346,59.9524023 73.6226209,59.9524023 C73.3018646,59.9524023 73.0251378,59.8237715 72.7924322,59.566506 C72.5597266,59.3092406 72.4433756,59.0154542 72.4433756,58.6851381 C72.4433756,58.3357653 72.5597266,58.0308627 72.7924322,57.7704211 C73.0251378,57.5099796 73.3018646,57.3797607 73.6226209,57.3797607 C73.9811133,57.3797607 74.2735632,57.5020394 74.4999794,57.7466004 C74.7263956,57.9911613 74.839602,58.2754195 74.839602,58.5993834 Z" id="ci" fill="#000000"></path>
                        </g>
                    </g>
                </g>
            </g>
        </g>
    </g>
</svg>