<?xml version="1.0" encoding="UTF-8"?>
<svg width="27px" height="27px" viewBox="0 0 27 27" version="1.1" xmlns="http://www.w3.org/2000/svg" xmlns:xlink="http://www.w3.org/1999/xlink">
    <!-- Generator: Sketch 46.2 (44496) - http://www.bohemiancoding.com/sketch -->
    <title>Group 7</title>
    <desc>Created with Sketch.</desc>
    <defs>
        <linearGradient x1="2.36567283%" y1="50%" x2="99.4040976%" y2="50%" id="linearGradient-1">
            <stop stop-color="#24C6DC" offset="0%"></stop>
            <stop stop-color="#514A9D" offset="100%"></stop>
        </linearGradient>
    </defs>
    <g id="Page-1" stroke="none" stroke-width="1" fill="none" fill-rule="evenodd">
        <g id="2.0-Mobile_ConsumerInsights_Dropdown_Solution" transform="translate(-75.000000, -251.000000)">
            <g id="Group-59" transform="translate(31.000000, 252.000000)">
                <g id="Group-7" transform="translate(45.000000, 0.000000)">
                    <path d="M-1.59872116e-14,20.7106781 C2.62392314,23.3608405 6.24883922,25 10.2528109,25 C18.2607544,25 24.7524752,18.443362 24.7524752,10.3553391 C24.7524752,6.31132761 23.129545,2.65016237 20.5056219,-8.8817842e-15 L-1.22124533e-14,20.7106781 Z" id="Combined-Shape" stroke="url(#linearGradient-1)" transform="translate(12.376238, 12.500000) rotate(-180.000000) translate(-12.376238, -12.500000) "></path>
                    <path d="M21.4220104,23.8354492 C21.0694953,23.8354492 20.7910126,23.7316905 20.5865539,23.5241699 C20.3820952,23.3166494 20.2798673,23.021649 20.2798673,22.6391602 C20.2798673,22.3848457 20.3186434,22.1412162 20.3961967,21.9082642 C20.47375,21.6753121 20.5820209,21.4683033 20.7210125,21.2872314 C20.8600042,21.1061596 21.0357555,20.9581508 21.2482717,20.8432007 C21.4607879,20.7282506 21.6969694,20.6707764 21.9568234,20.6707764 C22.2448785,20.6707764 22.4639381,20.7323195 22.6140088,20.8554077 C22.7640795,20.9784959 22.8391137,21.1336254 22.8391137,21.3208008 C22.8391137,21.4611823 22.8063807,21.5842687 22.7409136,21.6900635 C22.6754465,21.7958583 22.5772474,21.8487549 22.4463132,21.8487549 C22.3375372,21.8487549 22.2559563,21.8212893 22.2015683,21.7663574 C22.1471803,21.7114255 22.1199867,21.650391 22.1199867,21.583252 C22.1199867,21.5181475 22.1421444,21.4291387 22.1864606,21.3162231 C22.2307768,21.2033075 22.2660277,21.1122643 22.2922146,21.0430908 C22.2700565,20.9881589 22.2207051,20.9479778 22.144159,20.9225464 C22.0676129,20.8971149 21.9880464,20.8843994 21.9054571,20.8843994 C21.6315026,20.8843994 21.3953211,21.0456323 21.1969055,21.368103 C20.9984898,21.6905737 20.8992835,22.0857724 20.8992835,22.5537109 C20.8992835,22.8426121 20.9632389,23.0720003 21.0911515,23.2418823 C21.2190641,23.4117644 21.3917939,23.4967041 21.609346,23.4967041 C21.80474,23.4967041 21.978477,23.4438075 22.1305621,23.3380127 C22.2826471,23.2322179 22.4281833,23.0826833 22.5671749,22.8894043 L22.7394028,23.0175781 C22.6004112,23.2393403 22.4115667,23.4310905 22.1728636,23.5928345 C21.9341606,23.7545784 21.6838787,23.8354492 21.4220104,23.8354492 Z M24.5493067,23.4173584 L24.5039836,23.6126709 C24.3186614,23.687948 24.1706073,23.740336 24.0598169,23.7698364 C23.9490264,23.7993369 23.8543524,23.8140869 23.7757919,23.8140869 C23.6146422,23.8140869 23.4937817,23.7718714 23.4132068,23.687439 C23.3326319,23.6030066 23.2923451,23.4987392 23.2923451,23.3746338 C23.2923451,23.3278399 23.2963738,23.2790123 23.3044313,23.2281494 C23.3124888,23.1772865 23.325582,23.1132003 23.3437113,23.0358887 L23.6639948,21.7388916 C23.6801098,21.6676836 23.6957209,21.5913904 23.7108287,21.5100098 C23.7259365,21.4286292 23.7334903,21.3594567 23.7334903,21.3024902 C23.7334903,21.1885574 23.7148576,21.1127728 23.6775918,21.0751343 C23.6403259,21.0374957 23.5642845,21.0186768 23.4494653,21.0186768 C23.4051491,21.0186768 23.3462296,21.0257975 23.2727051,21.0400391 C23.1991805,21.0542807 23.1432825,21.0664876 23.1050095,21.0766602 L23.1503326,20.8813477 C23.3074536,20.8101396 23.4484575,20.757243 23.5733485,20.7226563 C23.6982396,20.6880695 23.7969423,20.6707764 23.8694597,20.6707764 C24.0346382,20.6707764 24.1544915,20.7104488 24.2290232,20.7897949 C24.303555,20.869141 24.3408203,20.9759515 24.3408203,21.1102295 C24.3408203,21.1468508 24.3367916,21.1966956 24.3287341,21.2597656 C24.3206767,21.3228356 24.3085906,21.3859046 24.2924756,21.4489746 L23.9691706,22.7459717 C23.9490269,22.8253178 23.9314014,22.9031368 23.9162936,22.9794312 C23.9011858,23.0557255 23.893632,23.1182859 23.893632,23.1671143 C23.893632,23.2830816 23.9193149,23.3624265 23.9706814,23.4051514 C24.0220478,23.4478762 24.1051394,23.4692383 24.2199586,23.4692383 C24.2582317,23.4692383 24.3131225,23.4641521 24.3846327,23.4539795 C24.4561429,23.4438069 24.5110337,23.4316 24.5493067,23.4173584 Z M24.7638362,19.5172119 C24.7638362,19.6331793 24.7265709,19.7343949 24.6520392,19.8208618 C24.5775074,19.9073287 24.4848477,19.9505615 24.3740573,19.9505615 C24.2713243,19.9505615 24.1826933,19.9093632 24.1081615,19.8269653 C24.0336298,19.7445675 23.9963645,19.6504725 23.9963645,19.5446777 C23.9963645,19.4327794 24.0336298,19.3351241 24.1081615,19.251709 C24.1826933,19.1682939 24.2713243,19.1265869 24.3740573,19.1265869 C24.4888765,19.1265869 24.5825433,19.1657507 24.6550607,19.2440796 C24.7275781,19.3224084 24.7638362,19.4134516 24.7638362,19.5172119 Z" id="ci" fill="#000000"></path>
                </g>
            </g>
        </g>
    </g>
</svg>