<svg width="75px" height="75px" viewBox="0 0 75 75" version="1.1" xmlns="http://www.w3.org/2000/svg" xmlns:xlink="http://www.w3.org/1999/xlink">
    <!-- Generator: Sketch 46.2 (44496) - http://www.bohemiancoding.com/sketch -->
    <desc>Created with Sketch.</desc>
    <defs>
        <linearGradient x1="1.30141901%" y1="50%" x2="100%" y2="50%" id="linearGradient-1">
            <stop stop-color="#EC008C" offset="0%"></stop>
            <stop stop-color="#FC6767" offset="100%"></stop>
        </linearGradient>
    </defs>
    <g id="Page-1" stroke="none" stroke-width="1" fill="none" fill-rule="evenodd">
        <g id="LANDING" transform="translate(-701.000000, -1155.000000)">
            <g id="use-cases" transform="translate(152.000000, 1025.000000)">
                <g id="border_gradient" transform="translate(0.000000, 120.000000)">
                    <g id="Group-3">
                        <g id="Group-2" transform="translate(465.000000, 10.000000)">
                            <g id="Group-8" transform="translate(84.000000, 0.000000)">
                                <path d="M1,1 L1,72.5857864 L72.5857864,1 L1,1 Z" id="Rectangle-2" stroke="url(#linearGradient-1)" stroke-width="2" transform="translate(37.500000, 37.500000) rotate(-180.000000) translate(-37.500000, -37.500000) "></path>
                                <path d="M16.1755371,16.2154541 L16.038208,16.8013916 C15.4766818,17.0272228 15.0280779,17.1843868 14.6923828,17.2728882 C14.3566878,17.3613896 14.0698254,17.4056396 13.8317871,17.4056396 C13.3435034,17.4056396 12.9772961,17.278993 12.7331543,17.0256958 C12.4890125,16.7723986 12.3669434,16.4595966 12.3669434,16.0872803 C12.3669434,15.9530023 12.3791503,15.8049935 12.4035645,15.6432495 C12.4279786,15.4815055 12.4676511,15.2907726 12.522583,15.0710449 L13.4197998,11.6561279 C13.4869388,11.3936754 13.540344,11.1556407 13.5800171,10.9420166 C13.6196901,10.7283925 13.6395264,10.5574958 13.6395264,10.4293213 C13.6395264,10.0203837 13.5510263,9.6969006 13.3740234,9.4588623 C13.1970206,9.22082401 12.9162617,9.10180664 12.5317383,9.10180664 C12.1228007,9.10180664 11.7214986,9.19793605 11.3278198,9.39019775 C10.9341411,9.58245946 10.4901148,9.94103741 9.99572754,10.4659424 L8.40270996,17.25 L6.6998291,17.25 L8.13720703,11.1342773 C8.16772476,10.9999993 8.19671617,10.858094 8.22418213,10.7085571 C8.25164809,10.5590202 8.26538086,10.4476322 8.26538086,10.3743896 C8.26538086,9.97765915 8.16619972,9.66638297 7.96783447,9.44055176 C7.76946922,9.21472055 7.47802927,9.10180664 7.09350586,9.10180664 C6.74560373,9.10180664 6.36108609,9.18878087 5.93994141,9.36273193 C5.51879672,9.536683 5.03052036,9.92577823 4.47509766,10.5300293 L2.92785645,17.25 L1.22497559,17.25 L2.58911133,11.3173828 C2.6379397,11.1037587 2.68524147,10.8748792 2.73101807,10.6307373 C2.77679466,10.3865955 2.79968262,10.179078 2.79968262,10.0081787 C2.79968262,9.65417303 2.7416998,9.4207159 2.62573242,9.30780029 C2.50976505,9.19488469 2.28393723,9.13842773 1.94824219,9.13842773 C1.81396417,9.13842773 1.64154158,9.16284155 1.43096924,9.21166992 C1.2203969,9.26049829 1.05712949,9.30017075 0.941162109,9.33068848 L1.07849121,8.74475098 C1.55456781,8.53112686 1.97570618,8.37243704 2.34191895,8.26867676 C2.70813171,8.16491647 3.02245963,8.11303711 3.28491211,8.11303711 C3.7731958,8.11303711 4.11956685,8.24578725 4.32403564,8.5112915 C4.52850444,8.77679576 4.63684076,9.13842545 4.64904785,9.59619141 L4.70397949,9.59619141 C5.42419794,9.02856161 6.01623303,8.62268188 6.48010254,8.37854004 C6.94397205,8.13439819 7.49633469,8.0123291 8.13720703,8.0123291 C8.68042264,8.0123291 9.12139723,8.16949306 9.46014404,8.48382568 C9.79889085,8.79815831 9.98962381,9.19335699 10.0323486,9.66943359 L10.0689697,9.66943359 C10.7220492,9.12621799 11.3034032,8.7142348 11.8130493,8.43347168 C12.3226954,8.15270856 12.9162564,8.0123291 13.59375,8.0123291 C14.1796904,8.0123291 14.6298202,8.18169997 14.9441528,8.52044678 C15.2584855,8.85919359 15.4156494,9.30321991 15.4156494,9.85253906 C15.4156494,9.96240289 15.3988649,10.1577134 15.3652954,10.4384766 C15.3317259,10.7192397 15.2783207,10.9969469 15.2050781,11.2716064 L14.4360352,14.2104492 C14.3811032,14.4057627 14.3292239,14.6300647 14.2803955,14.8833618 C14.2315671,15.136659 14.2071533,15.3334954 14.2071533,15.473877 C14.2071533,15.8217791 14.2803948,16.0582879 14.4268799,16.1834106 C14.573365,16.3085333 14.8205549,16.3710938 15.168457,16.3710938 C15.2844244,16.3710938 15.4522694,16.3558351 15.6719971,16.3253174 C15.8917247,16.2947997 16.0595697,16.2581789 16.1755371,16.2154541 Z M21.7510986,16.2520752 L21.6137695,16.8380127 C21.0522433,17.0638439 20.6036394,17.2210079 20.2679443,17.3095093 C19.9322493,17.3980107 19.6453869,17.4422607 19.4073486,17.4422607 C18.9190649,17.4422607 18.5528577,17.3156141 18.3087158,17.0623169 C18.064574,16.8090197 17.9425049,16.4962177 17.9425049,16.1239014 C17.9425049,15.9835198 17.9547118,15.8370369 17.979126,15.6844482 C18.0035402,15.5318596 18.0432126,15.3396008 18.0981445,15.107666 L19.0686035,11.2166748 C19.1174319,11.0030507 19.1647337,10.7741711 19.2105103,10.5300293 C19.2562868,10.2858875 19.2791748,10.07837 19.2791748,9.9074707 C19.2791748,9.56567212 19.2227178,9.33831844 19.1098022,9.22540283 C18.9968866,9.11248723 18.7664812,9.05603027 18.4185791,9.05603027 C18.2843011,9.05603027 18.105775,9.07739236 17.8829956,9.12011719 C17.6602162,9.16284201 17.4908453,9.19946274 17.3748779,9.22998047 L17.512207,8.64404297 C17.9882836,8.43041885 18.4155255,8.27172903 18.7939453,8.16796875 C19.1723652,8.06420847 19.4714344,8.0123291 19.6911621,8.0123291 C20.1916529,8.0123291 20.5548084,8.13134647 20.7806396,8.36938477 C21.0064709,8.60742307 21.1193848,8.92785443 21.1193848,9.33068848 C21.1193848,9.44055231 21.1071779,9.59008694 21.0827637,9.77929688 C21.0583495,9.96850681 21.0217288,10.1577139 20.9729004,10.3469238 L19.9932861,14.237915 C19.9322507,14.4759533 19.8788454,14.7094105 19.8330688,14.9382935 C19.7872923,15.1671764 19.7644043,15.3548577 19.7644043,15.5013428 C19.7644043,15.8492449 19.8422233,16.0872796 19.9978638,16.2154541 C20.1535042,16.3436286 20.4052717,16.4077148 20.7531738,16.4077148 C20.8691412,16.4077148 21.0354603,16.3924562 21.2521362,16.3619385 C21.4688121,16.3314207 21.6351313,16.2948 21.7510986,16.2520752 Z M22.401123,4.55163574 C22.401123,4.89953787 22.2882091,5.20318474 22.0623779,5.46258545 C21.8365467,5.72198616 21.5557878,5.85168457 21.2200928,5.85168457 C20.9088119,5.85168457 20.6402599,5.72808961 20.4144287,5.480896 C20.1885975,5.23370238 20.0756836,4.9514176 20.0756836,4.6340332 C20.0756836,4.29833817 20.1885975,4.00537234 20.4144287,3.75512695 C20.6402599,3.50488156 20.9088119,3.37976074 21.2200928,3.37976074 C21.5679949,3.37976074 21.8518055,3.49725224 22.0715332,3.73223877 C22.2912609,3.9672253 22.401123,4.24035489 22.401123,4.55163574 Z" id="mi" fill="#000000"></path>
                            </g>
                        </g>
                    </g>
                </g>
            </g>
        </g>
    </g>
</svg>