<?xml version="1.0" encoding="UTF-8"?>
<svg width="60px" height="38px" viewBox="0 0 60 38" version="1.1" xmlns="http://www.w3.org/2000/svg" xmlns:xlink="http://www.w3.org/1999/xlink">
    <!-- Generator: Sketch 46.2 (44496) - http://www.bohemiancoding.com/sketch -->
    <title>Group 11</title>
    <desc>Created with Sketch.</desc>
    <defs>
        <linearGradient x1="0%" y1="50%" x2="100%" y2="50%" id="linearGradient-1">
            <stop stop-color="#FC4A1A" offset="0%"></stop>
            <stop stop-color="#F7B733" offset="100%"></stop>
        </linearGradient>
    </defs>
    <g id="Page-1" stroke="none" stroke-width="1" fill="none" fill-rule="evenodd">
        <g id="1.-Mobile_Landing-Page" transform="translate(-131.000000, -6044.000000)">
            <g id="Group-6" transform="translate(41.000000, 6044.000000)">
                <g id="Group-11" transform="translate(90.000000, 0.000000)">
                    <rect id="Rectangle-5" stroke="url(#linearGradient-1)" stroke-width="2" x="1" y="20.2" width="58" height="16"></rect>
                    <path d="M51.8976562,10.4332031 L51.8463867,10.4332031 C51.7389643,10.5210942 51.6107918,10.6321771 51.4618652,10.7664551 C51.3129387,10.9007331 51.1383799,11.0289056 50.9381836,11.1509766 C50.747753,11.2730475 50.5402355,11.3792476 50.315625,11.4695801 C50.0910145,11.5599126 49.8468763,11.6050781 49.5832031,11.6050781 C48.8751918,11.6050781 48.3197774,11.3511744 47.9169434,10.8433594 C47.5141093,10.3355443 47.3126953,9.64219189 47.3126953,8.76328125 C47.3126953,8.15780947 47.4249989,7.56943645 47.6496094,6.99814453 C47.8742199,6.42685261 48.1842754,5.91416243 48.5797852,5.46005859 C48.9557636,5.02548611 49.4025365,4.67514781 49.9201172,4.4090332 C50.4376979,4.14291859 50.9699191,4.00986328 51.5167969,4.00986328 C51.8634783,4.00986328 52.1942855,4.05624954 52.5092285,4.14902344 C52.8241715,4.24179734 53.0719718,4.34677676 53.2526367,4.46396484 L54.5929687,4.11972656 L54.6808594,4.22958984 L53.5675781,8.95371094 C53.5285154,9.10507888 53.4882326,9.28940321 53.4467285,9.50668945 C53.4052244,9.7239757 53.3844727,9.88388621 53.3844727,9.98642578 C53.3844727,10.2647475 53.4430658,10.4527339 53.5602539,10.5503906 C53.677442,10.6480474 53.8751939,10.696875 54.1535156,10.696875 C54.2462895,10.696875 54.3781241,10.6822267 54.5490234,10.6529297 C54.7199227,10.6236327 54.8517573,10.5918947 54.9445312,10.5577148 L54.834668,11.0264648 C54.3952126,11.202247 54.0680675,11.3291988 53.8532227,11.4073242 C53.6383778,11.4854496 53.37715,11.5245117 53.0695312,11.5245117 C52.717967,11.5245117 52.4396495,11.4219737 52.2345703,11.2168945 C52.0294912,11.0118154 51.9171876,10.7505875 51.8976562,10.4332031 Z M52.9450195,5.80429688 C52.9450195,5.64316326 52.9279299,5.4893562 52.89375,5.34287109 C52.8595701,5.19638599 52.7887701,5.0596686 52.6813477,4.93271484 C52.5836909,4.81064392 52.4494149,4.71298865 52.2785156,4.63974609 C52.1076163,4.56650354 51.8927747,4.52988281 51.6339844,4.52988281 C51.2775373,4.52988281 50.9308611,4.64706914 50.5939453,4.88144531 C50.2570296,5.11582148 49.9542982,5.43075974 49.6857422,5.82626953 C49.4318347,6.19736514 49.2243172,6.64657939 49.0631836,7.17392578 C48.90205,7.70127217 48.8214844,8.23593479 48.8214844,8.77792969 C48.8214844,9.07578274 48.838574,9.33945198 48.8727539,9.56894531 C48.9069338,9.79843865 48.9728511,10.0083975 49.0705078,10.1988281 C49.1632817,10.3843759 49.2975577,10.5284175 49.4733398,10.630957 C49.649122,10.7334966 49.8712877,10.7847656 50.1398437,10.7847656 C50.4132826,10.7847656 50.700145,10.7078621 51.0004395,10.5540527 C51.3007339,10.4002434 51.6388653,10.1304707 52.0148437,9.74472656 L52.9450195,5.80429688 Z M59.4269531,10.6016602 L59.3170898,11.0704102 C58.8678688,11.2510751 58.5089857,11.3768063 58.2404297,11.4476074 C57.9718737,11.5184086 57.7423838,11.5538086 57.5519531,11.5538086 C57.1613262,11.5538086 56.8683604,11.4524912 56.6730469,11.2498535 C56.4777334,11.0472158 56.3800781,10.7969741 56.3800781,10.4991211 C56.3800781,10.3868158 56.3898437,10.2696295 56.409375,10.1475586 C56.4289063,10.0254877 56.4606443,9.87168062 56.5045898,9.68613281 L57.280957,6.57333984 C57.3200197,6.40244055 57.3578611,6.21933691 57.3944824,6.02402344 C57.4311037,5.82870996 57.4494141,5.662696 57.4494141,5.52597656 C57.4494141,5.2525377 57.4042485,5.07065475 57.313916,4.98032227 C57.2235835,4.88998978 57.0392592,4.84482422 56.7609375,4.84482422 C56.6535151,4.84482422 56.5106943,4.86191389 56.3324707,4.89609375 C56.1542472,4.93027361 56.0187505,4.95957019 55.9259766,4.98398438 L56.0358398,4.51523438 C56.4167011,4.34433508 56.7584946,4.21738323 57.0612305,4.134375 C57.3639664,4.05136677 57.6032218,4.00986328 57.7790039,4.00986328 C58.1793965,4.00986328 58.469921,4.10507717 58.6505859,4.29550781 C58.8312509,4.48593845 58.921582,4.74228354 58.921582,5.06455078 C58.921582,5.15244185 58.9118165,5.27206956 58.8922852,5.4234375 C58.8727538,5.57480544 58.8434572,5.72617112 58.8043945,5.87753906 L58.0207031,8.99033203 C57.9718748,9.18076267 57.9291506,9.36752838 57.8925293,9.55063477 C57.855908,9.73374115 57.8375977,9.88388613 57.8375977,10.0010742 C57.8375977,10.2793959 57.8998529,10.4698237 58.0243652,10.5723633 C58.1488776,10.6749029 58.3502916,10.7261719 58.6286133,10.7261719 C58.7213872,10.7261719 58.8544425,10.713965 59.0277832,10.6895508 C59.2011239,10.6651366 59.3341792,10.63584 59.4269531,10.6016602 Z M59.9469727,1.24130859 C59.9469727,1.5196303 59.8566415,1.76254779 59.6759766,1.97006836 C59.4953116,2.17758893 59.2707045,2.28134766 59.0021484,2.28134766 C58.7531238,2.28134766 58.5382822,2.18247169 58.3576172,1.9847168 C58.1769522,1.7869619 58.0866211,1.56113408 58.0866211,1.30722656 C58.0866211,1.03867053 58.1769522,0.804297876 58.3576172,0.604101563 C58.5382822,0.403905249 58.7531238,0.303808594 59.0021484,0.303808594 C59.2804701,0.303808594 59.5075187,0.397801794 59.6833008,0.585791016 C59.8590829,0.773780237 59.9469727,0.992283911 59.9469727,1.24130859 Z" id="ai" fill="#000000"></path>
                </g>
            </g>
        </g>
    </g>
</svg>