
<svg width="49px" height="32px" viewBox="0 0 49 32" version="1.1" xmlns="http://www.w3.org/2000/svg" xmlns:xlink="http://www.w3.org/1999/xlink">
    <!-- Generator: Sketch 47.1 (45422) - http://www.bohemiancoding.com/sketch -->
    <desc>Created with Sketch.</desc>
    <defs></defs>
    <g id="Page-1" stroke="none" stroke-width="1" fill="none" fill-rule="evenodd">
        <g id="Landing_Dropdown_Solutions_brandinsight_hover" transform="translate(-650.000000, -269.000000)">
            <g id="Group-8" transform="translate(557.000000, 73.000000)">
                <g id="Group-65" transform="translate(93.000000, 196.000000)">
                    <rect id="Rectangle-5" stroke="#DDE5ED" x="0.5" y="17.5" width="47.9130435" height="13.5454545"></rect>
                    <path d="M43.7082601,5.67551777 L43.6779761,5.67551777 C43.6145234,5.72476329 43.538814,5.78700322 43.4508456,5.86223943 C43.3628772,5.93747564 43.2597682,6.00929095 43.1415156,6.0776875 C43.0290314,6.14608406 42.9064543,6.20558817 42.7737806,6.25620162 C42.6411069,6.30681507 42.4968985,6.33212142 42.3411512,6.33212142 C41.9229407,6.33212142 41.5948666,6.18985871 41.3569193,5.90532905 C41.1189719,5.62079938 41,5.23231277 41,4.73985757 C41,4.40061066 41.0663358,4.07094421 41.1990095,3.75084833 C41.3316832,3.43075245 41.5148278,3.14349123 41.7484489,2.88905604 C41.9705331,2.64556431 42.2344344,2.44926914 42.5401607,2.30016465 C42.845887,2.15106016 43.1602613,2.07650903 43.4832928,2.07650903 C43.6880718,2.07650903 43.8834741,2.10249933 44.0695057,2.15448071 C44.2555373,2.2064621 44.4019088,2.26528225 44.5086245,2.33094294 L45.3003364,2.13806562 L45.3522519,2.19962222 L44.6946552,4.84655567 C44.6715815,4.93136739 44.6477871,5.03464464 44.6232713,5.15639051 C44.5987555,5.27813638 44.5864978,5.36773452 44.5864978,5.42518763 C44.5864978,5.58113177 44.6211078,5.68646089 44.6903289,5.74117813 C44.7595499,5.79589538 44.8763587,5.82325359 45.0407587,5.82325359 C45.0955587,5.82325359 45.1734312,5.81504613 45.2743786,5.79863095 C45.375326,5.78221578 45.4531985,5.76443294 45.5079985,5.74528191 L45.4431041,6.00792337 C45.1835251,6.1064144 44.9902859,6.17754575 44.8633807,6.22131955 C44.7364754,6.26509335 44.5821725,6.28697991 44.4004672,6.28697991 C44.192804,6.28697991 44.0284065,6.22952767 43.9072697,6.11462146 C43.7861328,5.99971525 43.719797,5.85334881 43.7082601,5.67551777 Z M44.3269202,3.08193337 C44.3269202,2.99164991 44.3168256,2.90547155 44.2966361,2.82339568 C44.2764467,2.74131981 44.2346262,2.66471682 44.1711736,2.5935844 C44.1134894,2.52518785 44.0341748,2.47047143 43.9332274,2.42943349 C43.8322801,2.38839556 43.7053767,2.3678769 43.5525135,2.3678769 C43.3419662,2.3678769 43.1371903,2.43353661 42.9381798,2.56485799 C42.7391692,2.69617938 42.5603509,2.87263985 42.4017193,3.09424468 C42.2517404,3.30217021 42.1291632,3.55386576 42.0339843,3.84933888 C41.9388054,4.144812 41.8912166,4.44438441 41.8912166,4.74806512 C41.8912166,4.91495271 41.9013112,5.06268706 41.9215007,5.19127258 C41.9416901,5.3198581 41.9806264,5.43749841 42.0383106,5.54419704 C42.0931106,5.6481598 42.1724252,5.72886653 42.2762568,5.78631963 C42.3800883,5.84377274 42.511318,5.87249886 42.6699495,5.87249886 C42.8314653,5.87249886 43.0009102,5.82940968 43.1782891,5.74323002 C43.355668,5.65705036 43.5553966,5.50589624 43.7774808,5.28976313 L44.3269202,3.08193337 Z M48.1556905,5.76990454 L48.0907961,6.032546 C47.8254487,6.1337729 47.6134624,6.2042203 47.4548308,6.2438903 C47.2961993,6.2835603 47.1606434,6.30339501 47.0481592,6.30339501 C46.8174224,6.30339501 46.6443723,6.24662672 46.5290039,6.13308844 C46.4136355,6.01955015 46.3559521,5.87933932 46.3559521,5.71245172 C46.3559521,5.64952689 46.3617205,5.58386719 46.3732573,5.51547063 C46.3847942,5.44707408 46.4035412,5.36089571 46.4294991,5.25693294 L46.8880863,3.51282951 C46.91116,3.41707433 46.9335123,3.31448104 46.9551439,3.20504655 C46.9767755,3.09561206 46.9875911,3.00259414 46.9875911,2.92599 C46.9875911,2.77278172 46.9609125,2.67087238 46.9075546,2.62025893 C46.8541967,2.56964548 46.7453194,2.54433913 46.5809194,2.54433913 C46.5174668,2.54433913 46.4331049,2.5539145 46.3278312,2.57306554 C46.2225575,2.59221658 46.1425219,2.6086315 46.0877219,2.62231081 L46.1526163,2.35966935 C46.3775847,2.26391418 46.5794764,2.19278283 46.7582975,2.14627317 C46.9371185,2.09976351 47.0784427,2.07650903 47.1822743,2.07650903 C47.4187796,2.07650903 47.5903875,2.12985754 47.6971033,2.23655617 C47.8038191,2.3432548 47.8571762,2.48688541 47.8571762,2.66745231 C47.8571762,2.71669783 47.8514079,2.78372545 47.839871,2.86853718 C47.8283342,2.95334891 47.8110292,3.03815937 47.7879555,3.12297109 L47.325042,4.86707453 C47.2961999,4.97377316 47.2709635,5.07841832 47.2493319,5.18101315 C47.2277003,5.28360798 47.2168847,5.36773448 47.2168847,5.43339517 C47.2168847,5.58933932 47.2536578,5.69603635 47.3272052,5.75348945 C47.4007525,5.81094256 47.5197244,5.83966868 47.6841244,5.83966868 C47.7389244,5.83966868 47.817518,5.83282913 47.9199075,5.81914982 C48.0222969,5.80547051 48.1008905,5.78905558 48.1556905,5.76990454 Z M48.4628574,0.525282917 C48.4628574,0.681227063 48.4095003,0.817334166 48.3027845,0.93360831 C48.1960687,1.04988245 48.063397,1.10801865 47.9047654,1.10801865 C47.7576707,1.10801865 47.6307673,1.05261827 47.5240516,0.941815855 C47.4173358,0.831013436 47.3639787,0.704481707 47.3639787,0.562216872 C47.3639787,0.411744451 47.4173358,0.280425035 47.5240516,0.168254684 C47.6307673,0.056084334 47.7576707,0 47.9047654,0 C48.0691654,0 48.2032792,0.0526645575 48.3071108,0.157995252 C48.4109424,0.263325947 48.4628574,0.385753945 48.4628574,0.525282917 Z" id="ai" fill="#DDE5ED"></path>
                </g>
            </g>
        </g>
    </g>
</svg>