<?xml version="1.0" encoding="UTF-8"?>
<svg width="78px" height="78px" viewBox="0 0 78 78" version="1.1" xmlns="http://www.w3.org/2000/svg" xmlns:xlink="http://www.w3.org/1999/xlink">
    <!-- Generator: Sketch 46.2 (44496) - http://www.bohemiancoding.com/sketch -->
    <title>Group 9</title>
    <desc>Created with Sketch.</desc>
    <defs>
        <linearGradient x1="1.30141901%" y1="50%" x2="98.7603635%" y2="50%" id="linearGradient-1">
            <stop stop-color="#43CEA2" offset="0%"></stop>
            <stop stop-color="#185A9D" offset="100%"></stop>
        </linearGradient>
    </defs>
    <g id="Page-1" stroke="none" stroke-width="1" fill="none" fill-rule="evenodd">
        <g id="1.0-Landing-Page_hover_market-insight" transform="translate(-1124.000000, -199.000000)">
            <g id="Group-4" transform="translate(1038.000000, 201.000000)">
                <g id="Group-9" transform="translate(86.000000, 0.000000)">
                    <path d="M2,62.1320344 C9.95048712,70.0825215 20.9339828,75 33.0660172,75 C57.3300859,75 77,55.3300859 77,31.0660172 C77,18.9339828 72.0825215,7.95048712 64.1320344,-1.42108547e-14 L2,62.1320344 Z" id="Combined-Shape" stroke="url(#linearGradient-1)" stroke-width="2"></path>
                    <path d="M12.1989746,11.5096436 C12.1989746,12.3275187 12.0555434,13.1026575 11.7686768,13.835083 C11.4818101,14.5675085 11.1003442,15.2022678 10.6242676,15.7393799 C10.0932591,16.3314239 9.51800847,16.7708726 8.89849854,17.0577393 C8.2789886,17.3446059 7.64270346,17.4880371 6.98962402,17.4880371 C6.46471906,17.4880371 6.03442551,17.4239508 5.69873047,17.2957764 C5.36303543,17.1676019 5.06396616,17.0089121 4.80151367,16.8197021 L4.27050781,19.2183838 C4.23388654,19.3709724 4.20489513,19.5144036 4.18353271,19.6486816 C4.1621703,19.7829597 4.15148926,19.8897701 4.15148926,19.9691162 C4.15148926,20.133912 4.21099794,20.2651362 4.33001709,20.362793 C4.44903624,20.4604497 4.5848381,20.5306394 4.73742676,20.5733643 C4.89001541,20.6221926 5.06091214,20.6588134 5.25012207,20.6832275 C5.439332,20.7076417 5.61022873,20.7259521 5.76281738,20.7381592 L5.63464355,21.3149414 L0.590087891,21.3149414 L0.718261719,20.7381592 C0.913575195,20.7259521 1.09667883,20.7106935 1.26757812,20.6923828 C1.43847742,20.6740722 1.60021896,20.6435549 1.75280762,20.6008301 C1.94201755,20.5458982 2.09307805,20.4436653 2.20599365,20.2941284 C2.31890926,20.1445915 2.39978003,19.959962 2.4486084,19.7402344 L4.36206055,11.3173828 C4.41088892,11.0854481 4.45666483,10.8519909 4.49938965,10.6170044 C4.54211447,10.3820179 4.56347656,10.179078 4.56347656,10.0081787 C4.56347656,9.66638013 4.51007133,9.43750058 4.40325928,9.3215332 C4.29644722,9.20556583 4.06604181,9.14758301 3.71203613,9.14758301 C3.57775812,9.14758301 3.40686139,9.17352269 3.19934082,9.22540283 C2.99182025,9.27728297 2.8300787,9.31848129 2.71411133,9.34899902 L2.85144043,8.76306152 C3.31530994,8.55554095 3.73339658,8.39532527 4.10571289,8.28240967 C4.47802921,8.16949406 4.79540884,8.11303711 5.05786133,8.11303711 C5.48510956,8.11303711 5.80859265,8.22137343 6.02832031,8.43804932 C6.24804797,8.6547252 6.3853757,8.95532034 6.44030762,9.33984375 L6.5135498,9.33984375 C6.92859094,8.95532034 7.37261726,8.6379407 7.84564209,8.38769531 C8.31866692,8.13744992 8.79015878,8.0123291 9.26013184,8.0123291 C10.1878708,8.0123291 10.9096044,8.32818288 11.425354,8.9598999 C11.9411037,9.59161693 12.1989746,10.441523 12.1989746,11.5096436 Z M9.3425293,15.2907715 C9.65381015,14.7902807 9.89337074,14.2211336 10.0612183,13.583313 C10.2290658,12.9454924 10.3129883,12.2695348 10.3129883,11.5554199 C10.3129883,11.231932 10.2839969,10.906923 10.2260132,10.5803833 C10.1680295,10.2538436 10.0749518,9.98376572 9.94677734,9.7701416 C9.81249933,9.5321033 9.62939569,9.3474738 9.39746094,9.21624756 C9.16552618,9.08502132 8.86035345,9.01940918 8.48193359,9.01940918 C8.20117047,9.01940918 7.89142015,9.10485754 7.55267334,9.27575684 C7.21392653,9.44665613 6.80041748,9.76708749 6.31213379,10.2370605 L5.14025879,15.4281006 C5.18298361,15.7760027 5.37066484,16.1010117 5.70330811,16.4031372 C6.03595137,16.7052627 6.43725351,16.8563232 6.90722656,16.8563232 C7.38940671,16.8563232 7.84106235,16.7159438 8.26220703,16.4351807 C8.68335172,16.1544175 9.04345554,15.7729516 9.3425293,15.2907715 Z M17.8843994,16.2520752 L17.7470703,16.8380127 C17.1855441,17.0638439 16.7369402,17.2210079 16.4012451,17.3095093 C16.0655501,17.3980107 15.7786877,17.4422607 15.5406494,17.4422607 C15.0523657,17.4422607 14.6861584,17.3156141 14.4420166,17.0623169 C14.1978748,16.8090197 14.0758057,16.4962177 14.0758057,16.1239014 C14.0758057,15.9835198 14.0880126,15.8370369 14.1124268,15.6844482 C14.1368409,15.5318596 14.1765134,15.3396008 14.2314453,15.107666 L15.2019043,11.2166748 C15.2507327,11.0030507 15.2980344,10.7741711 15.343811,10.5300293 C15.3895876,10.2858875 15.4124756,10.07837 15.4124756,9.9074707 C15.4124756,9.56567212 15.3560186,9.33831844 15.243103,9.22540283 C15.1301874,9.11248723 14.899782,9.05603027 14.5518799,9.05603027 C14.4176019,9.05603027 14.2390758,9.07739236 14.0162964,9.12011719 C13.793517,9.16284201 13.6241461,9.19946274 13.5081787,9.22998047 L13.6455078,8.64404297 C14.1215844,8.43041885 14.5488262,8.27172903 14.9272461,8.16796875 C15.305666,8.06420847 15.6047352,8.0123291 15.8244629,8.0123291 C16.3249537,8.0123291 16.6881092,8.13134647 16.9139404,8.36938477 C17.1397716,8.60742307 17.2526855,8.92785443 17.2526855,9.33068848 C17.2526855,9.44055231 17.2404786,9.59008694 17.2160645,9.77929688 C17.1916503,9.96850681 17.1550295,10.1577139 17.1062012,10.3469238 L16.1265869,14.237915 C16.0655515,14.4759533 16.0121462,14.7094105 15.9663696,14.9382935 C15.920593,15.1671764 15.8977051,15.3548577 15.8977051,15.5013428 C15.8977051,15.8492449 15.9755241,16.0872796 16.1311646,16.2154541 C16.286805,16.3436286 16.5385725,16.4077148 16.8864746,16.4077148 C17.002442,16.4077148 17.1687611,16.3924562 17.385437,16.3619385 C17.6021129,16.3314207 17.768432,16.2948 17.8843994,16.2520752 Z M18.5344238,4.55163574 C18.5344238,4.89953787 18.4215099,5.20318474 18.1956787,5.46258545 C17.9698475,5.72198616 17.6890886,5.85168457 17.3533936,5.85168457 C17.0421127,5.85168457 16.7735607,5.72808961 16.5477295,5.480896 C16.3218983,5.23370238 16.2089844,4.9514176 16.2089844,4.6340332 C16.2089844,4.29833817 16.3218983,4.00537234 16.5477295,3.75512695 C16.7735607,3.50488156 17.0421127,3.37976074 17.3533936,3.37976074 C17.7012957,3.37976074 17.9851063,3.49725224 18.204834,3.73223877 C18.4245616,3.9672253 18.5344238,4.24035489 18.5344238,4.55163574 Z" id="pi" fill="#000000"></path>
                </g>
            </g>
        </g>
    </g>
</svg>