<?xml version="1.0" encoding="UTF-8"?>
<svg width="114px" height="136px" viewBox="0 0 114 136" version="1.1" xmlns="http://www.w3.org/2000/svg" xmlns:xlink="http://www.w3.org/1999/xlink">
    <!-- Generator: Sketch 47.1 (45422) - http://www.bohemiancoding.com/sketch -->
    <title>Group 23</title>
    <desc>Created with Sketch.</desc>
    <defs></defs>
    <g id="Page-1" stroke="none" stroke-width="1" fill="none" fill-rule="evenodd">
        <g id="Careers-Page" transform="translate(-592.000000, -200.000000)" fill="#000000">
            <g id="Group-9" transform="translate(570.000000, 200.000000)">
                <g id="Group-17" transform="translate(22.000000, 0.000000)">
                    <g id="Group-23">
                        <path d="M19.0497764,81.4 C19.0162946,81.4002975 18.9330359,81.4669641 18.8,81.6 L18.6,81.8 C18.733334,81.666666 18.866666,81.466668 19,81.2 L19.2,81.2 L19,81.4 L19.4,81.2 L19.2,81.2 L19.2,81 L19.8,81 L20.4,80.6 C20.133332,80.733334 19.933334,80.8 19.8,80.8 C20.066668,80.666666 20.399998,80.466668 20.8,80.2 L20.6,80.2 L21.6,79.2 L21.6,79.4 L23.2,77.8 C23.600002,77.533332 23.866666,77.333334 24,77.2 L24.4,77 C24.533334,77 24.733332,76.933334 25,76.8 L24.6,77 L24.8,77 L25.4,76.4 L25.6,76.4 L26,76.2 L26.2,76 L26,76 L26.4,75.8 L26.2,76 C26.466668,75.733332 26.733332,75.533334 27,75.4 L27.2,75.4 C29.466678,74.06666 31.26666,73.4 32.6,73.4 L34.8,75.2 L34.6,76.2 C34.066664,76.2 33.533336,76.399998 33,76.8 L33,77.2 L32.8,77.8 L32.6,78 L31.8,78 L31.6,78.2 C31.333332,78.2 31.2,78.266666 31.2,78.4 L30.8,78.4 C30.533332,78.666668 30.333334,78.8 30.2,78.8 L30,79 L30.4,78.8 C30.266666,78.933334 30.133334,79 30,79 L29.6,79.2 L29.4,79.4 L29.6,79.4 L29.2,79.6 C29.066666,79.6 28.933334,79.666666 28.8,79.8 L28.4,80 C28.133332,80.133334 27.866668,80.333332 27.6,80.6 L27.2,80.8 L26.6,81.4 C26.333332,81.533334 26.066668,81.733332 25.8,82 C25.533332,82.266668 25.266668,82.466666 25,82.6 L24.4,83.2 L24.4,83 L24.2,83.2 L24.2,83.4 C23.933332,83.4 23.666668,83.666664 23.4,84.2 C22.466662,85.133338 21.600004,86.066662 20.8,87 L18.4,89.4 L18.8,89.2 L18.4,89.6 L18.4,89.4 L18.2,89.6 C18.2,89.733334 18.133334,89.866666 18,90 C16.533326,91.866676 15.266672,93.666658 14.2,95.4 C13.133328,97.133342 12.333336,98.533328 11.8,99.6 C11.666666,99.6 11.466668,99.466668 11.2,99.2 L11,99.2 L11,99 L10.8,99 L10.6,99.4 L10.8,99.2 L11,99.2 L10.6,99.6 L10.6,99.8 L10.4,100 L10.4,100.2 L10.2,100.4 L10.2,100.2 L10,100.6 L9.4,100.4 C9.533334,100.266666 9.6,100.066668 9.6,99.8 L10,99.2 L10.2,98.8 L10.4,98.6 C9.333328,97.93333 8.266672,97.200004 7.2,96.4 C6.133328,95.599996 5.26667,94.666672 4.6,93.6 C3.93333,92.93333 3.533334,92.333336 3.4,91.8 L3.4,91.6 L3.2,91.6 C3.2,91.466666 3.166667,91.333334 3.1,91.2 C3.033333,91.066666 3,90.933334 3,90.8 C2.866666,90.13333 2.833333,89.566669 2.9,89.1 C2.966667,88.633331 3.066666,88.133336 3.2,87.6 L4,84.6 L4.2,84.2 L4.6,83 L4.6,82.8 L4.8,81.2 C4.933334,81.2 5,81.066668 5,80.8 L6.6,77.8 L7,77.4 C7.66667,75.666658 8.866658,73.066684 10.6,69.6 C12.333342,66.133316 14.333322,62.300021 16.6,58.1 C18.866678,53.899979 21.33332,49.46669 24,44.8 C26.66668,40.13331 29.199988,35.733354 31.6,31.6 C34.000012,27.466646 36.133324,23.73335 38,20.4 C39.866676,17.06665 41.266662,14.600008 42.2,13 L42.2,13.2 L42.8,12 L43,11.8 L43,11.4 C43.533336,10.866664 43.933332,10.26667 44.2,9.6 L44.4,9.6 L44.6,9.2 L44.2,9.6 L44.6,9 L44.8,8.8 L44.8,8.6 C44.933334,8.199998 45.066666,7.866668 45.2,7.6 C45.333334,7.333332 45.533332,7.066668 45.8,6.8 C46.333336,5.599994 46.866664,4.600004 47.4,3.8 L47.6,3.8 C48.26667,2.46666 49.333326,1.666668 50.8,1.4 C53.066678,0.999998 55.466654,0.866666 58,1 C60.533346,1.133334 62.666658,1.733328 64.4,2.8 C63.466662,3.733338 62.200008,5.133324 60.6,7 C58.999992,8.866676 57.733338,10.46666 56.8,11.8 C55.46666,14.333346 53.933342,17.066652 52.2,20 C50.733326,22.66668 48.933344,25.699983 46.8,29.1 C44.666656,32.500017 42.333346,36.333312 39.8,40.6 C39.533332,40.866668 39.4,41.066666 39.4,41.2 C39.4,41.333334 39.333334,41.533332 39.2,41.8 C38.666664,42.866672 37.666674,44.633321 36.2,47.1 C34.733326,49.566679 33.00001,52.399984 31,55.6 C28.99999,58.800016 26.900011,62.166649 24.7,65.7 C22.499989,69.233351 20.466676,72.533318 18.6,75.6 L18.6,75.8 L18.2,76.4 C17.933332,76.933336 17.666668,77.333332 17.4,77.6 L17.2,77.8 L16.6,79 L16.6,79.2 L16.4,79.2 L13.8,84.2 C13.13333,85.666674 12.666668,86.799996 12.4,87.6 C12.4,87.733334 12.266668,88.066664 12,88.6 L13,87.6 C13,87.733334 12.933334,87.866666 12.8,88 L13,87.8 C13.133334,87.666666 13.2,87.533334 13.2,87.4 L13.2,87.6 L14,86.8 L14.4,86.6 L14.8,86.2 C15.200002,85.799998 15.599998,85.333336 16,84.8 L16.2,84.4 L16.4,84.2 L16.2,84.2 C16.466668,83.799998 16.733332,83.466668 17,83.2 L17,83.4 L18.6,81.8 L18.6,82 L19.2,81.4 L19,81.4 L19,81.6 C19.0665179,81.4669641 19.0832592,81.4002975 19.0502236,81.4 C19.0500755,81.3999987 19.0499265,81.3999987 19.0497764,81.4 Z M11.1777782,65.3333327 C11.1481488,65.4222217 11.0888896,65.5111104 11,65.6 L11.1777782,65.3333327 L11.1777782,65.3333327 Z M11.1777782,65.3333327 L11.4,65 L11.4,65.2 C11.4,65.066666 11.466666,64.866668 11.6,64.6 L11.8,64.6 L12,64.2 L11.8,64.4 C11.8,64.266666 11.866666,64.066668 12,63.8 C12.133334,63.533332 12.266666,63.4 12.4,63.4 L13,62.8 L12.8,62.8 C13.066668,62.399998 13.366665,61.900003 13.7,61.3 C14.033335,60.699997 14.2,60.533332 14.2,60.8 C14.466668,60.399998 14.666666,60.066668 14.8,59.8 C15.066668,59.533332 15.2,59.333334 15.2,59.2 L14.8,59.6 L15.2,59 L15.4,58.8 L15.4,58.6 L15.2,58.8 L15.6,58 L15.4,58.2 C15.533334,58.066666 15.666666,57.866668 15.8,57.6 L16.2,57 L16.2,57.2 L16.4,56.8 L16.2,57 L16.2,56.8 L16.6,56.4 L16.4,56.4 L16.8,56 L16.8,56.4 L16.6,56.8 L16.2,57.2 C16.066666,57.600002 15.933334,57.866666 15.8,58 L15.6,58.2 L15.6,58.6 L15.4,59.2 C15.266666,59.466668 15.066668,59.799998 14.8,60.2 L15.2,59.8 L14.8,60.4 L14.6,60.6 L14.6,60.8 L14.4,61 C14.4,61.133334 14.266668,61.466664 14,62 C13.866666,62.133334 13.733334,62.333332 13.6,62.6 C13.333332,63.133336 13.133334,63.466666 13,63.6 L13,63.4 C12.866666,63.666668 12.666668,64.033331 12.4,64.5 C12.133332,64.966669 11.866668,65.466664 11.6,66 C11.333332,66.66667 11.066668,67.266664 10.8,67.8 L9.6,70.2 L9.2,70.8 L9,71 C9,71.266668 8.933334,71.466666 8.8,71.6 C8.8,71.733334 8.733334,71.866666 8.6,72 L8.8,71.8 L8.2,73 L8,73.2 L8,73.4 C7.866666,74.06667 7.733334,74.466666 7.6,74.6 L7.4,74.8 L7.4,75 C7.133332,75.266668 6.900001,75.599998 6.7,76 C6.499999,76.400002 6.266668,76.733332 6,77 C5.866666,77.266668 5.733334,77.566665 5.6,77.9 C5.466666,78.233335 5.333334,78.466666 5.2,78.6 L5.2,78.8 C5.2,78.933334 5.133334,79.133332 5,79.4 L4.8,79.6 L4.8,79.8 L4.6,80 L4.6,80.6 C4.333332,80.866668 4.133334,81.133332 4,81.4 C3.866666,81.666668 3.733334,81.999998 3.6,82.4 L3.4,82.6 L3.4,83 C3.4,83.400002 3.266668,83.866664 3,84.4 L3,84.8 L2.6,85 L2.8,85 C2.266664,85.400002 1.933334,85.666666 1.8,85.8 C2.066668,84.733328 2.333332,83.800004 2.6,83 L2.6,82.8 L2.8,82.6 L2.8,82.4 C2.933334,82.266666 3.033333,82.100001 3.1,81.9 C3.166667,81.699999 3.266666,81.466668 3.4,81.2 C3.533334,81.066666 3.6,80.866668 3.6,80.6 L3,81.8 L3,81.6 L3.4,80.8 C3.533334,80.666666 3.6,80.533334 3.6,80.4 C3.6,80.266666 3.666666,80.133334 3.8,80 L4,79.8 L4.4,79 L4.4,78.8 C4.4,78.666666 4.466666,78.400002 4.6,78 L4.6,78.2 L5,77.4 L4.6,77.8 L4.8,77.4 L4.8,77.6 L5,77.2 L5.2,77 C5.333334,76.599998 5.333334,76.466666 5.2,76.6 L5.6,76.2 L5.6,76 L5.8,75.8 C5.933334,75.666666 6,75.466668 6,75.2 L5.8,75.6 C5.8,75.733334 5.733334,75.866666 5.6,76 C5.733334,75.733332 5.8,75.566667 5.8,75.5 C5.8,75.433333 5.866666,75.266668 6,75 L6.2,74.8 L6.2,75 L6.6,74.2 C6.866668,73.933332 7.066666,73.666668 7.2,73.4 L7.2,73.6 C7.333334,73.333332 7.466666,73.000002 7.6,72.6 L7.6,72.8 C7.733334,72.666666 7.8,72.466668 7.8,72.2 L7.6,72.6 L7.6,72.2 L7.8,72 L7.8,71.4 C7.933334,71.133332 8.066666,70.933334 8.2,70.8 L8.2,71 L8,71.4 L8.2,71.2 L8.4,70.8 C8.533334,70.666666 8.666666,70.466668 8.8,70.2 L8.6,70.4 L8.8,70 L8.6,70 L8.8,69.8 L9,69.8 L9,69.4 L9.2,69 L9,69.2 L9.2,68.8 L9.2,69 L9.6,68.6 C9.6,68.733334 9.666666,68.600002 9.8,68.2 L9.6,68.4 L9.4,68.4 L9.8,68 L10,67.6 L9.8,67.8 L10,67.4 L10.4,66.8 L10.4,66.6 L10.8,66.2 C10.8,66.066666 10.866666,65.933334 11,65.8 L10.8,66 L10.8,65.8 L11,65.4 L11.2,65.2 C11.2,65.2444444 11.1925927,65.2888886 11.1777782,65.3333327 L11.1777782,65.3333327 Z M4.6,98.2 L4.4,97.8 L4.2,97.6 L4,97.6 L4.6,98.2 L4.2,98 L4,97.8 C3.733332,97.533332 3.533334,97.4 3.4,97.4 L3.8,97.4 C3.533332,97.4 3.4,97.266668 3.4,97 L3.2,97 L3,96.6 C2.866666,96.466666 2.8,96.333334 2.8,96.2 L2.4,95.8 C2.4,95.666666 2.333334,95.533334 2.2,95.4 L2,95.2 L1.8,95.2 L1.8,95 C1.8,94.866666 1.733334,94.733334 1.6,94.6 L1.6,94.4 L1.8,94.2 C1.8,94.066666 1.866666,93.933334 2,93.8 L2,94 L2.8,94.8 C2.933334,94.933334 3,95.066666 3,95.2 L3,95 L3.4,95.4 L3.4,95.6 L3.6,95.8 C3.733334,96.066668 3.866666,96.266666 4,96.4 C4.133334,96.533334 4.266666,96.733332 4.4,97 C4.533334,97 4.666666,97.066666 4.8,97.2 L5.6,98 C5.866668,98.266668 6.33333,98.466666 7,98.6 L7.2,98.8 C7.600002,99.200002 7.999998,99.499999 8.4,99.7 C8.800002,99.900001 9.133332,100.133332 9.4,100.4 L9.2,101 C9.333334,101 9.466666,100.966667 9.6,100.9 C9.733334,100.833333 9.866666,100.8 10,100.8 L10.2,100.4 L10.2,100.8 C10.066666,100.933334 10,101.133332 10,101.4 C10,101.533334 9.866668,101.6 9.6,101.6 L9.2,101.2 L9,101.2 L8.8,101 C8.666666,100.866666 8.466668,100.733334 8.2,100.6 L8,100.4 L8.6,100.8 C8.466666,100.666666 8.333334,100.566667 8.2,100.5 C8.066666,100.433333 7.933334,100.333334 7.8,100.2 L8,100.4 L7.6,100.2 C7.333332,100.2 7.133334,100.133334 7,100 L6.6,99.8 L6.2,99.4 C5.933332,99.266666 5.8,99.133334 5.8,99 L5.6,98.8 L5.6,99 C5.466666,98.866666 5.333334,98.8 5.2,98.8 L5.2,98.6 L4.8,98.4 L5,98.6 L4.8,98.6 C4.666666,98.466666 4.6,98.333334 4.6,98.2 Z M1.6,89.2 C1.466666,89.86667 1.4,90.666662 1.4,91.6 L1.4,92.6 L1.6,92.6 L1.2,93 L1.2,92.8 L0.8,93.2 L0.8,93 C0.533332,92.466664 0.4,92.000002 0.4,91.6 L0.4,91.2 C0.4,90.799998 0.433333,90.400002 0.5,90 C0.566667,89.599998 0.6,89.266668 0.6,89 C0.733334,88.866666 0.8,88.733334 0.8,88.6 L0.8,89 L1,88.6 C1,88.466666 1.133332,88.000004 1.4,87.2 L1.4,87.4 L1.6,87.2 L1.8,86.8 L2.2,86.6 C2.2,86.333332 2.333332,86.2 2.6,86.2 L2.4,86.6 L2.2,86.8 C2.066666,87.066668 2,87.299999 2,87.5 C2,87.700001 1.933334,87.933332 1.8,88.2 C1.8,88.600002 1.733334,88.933332 1.6,89.2 Z M34.4,24.8 L34.6,24.8 L34.6,24.6 L34.8,24.4 L34.8,24.2 C35.066668,23.799998 35.333332,23.366669 35.6,22.9 C35.866668,22.433331 36.133332,22.066668 36.4,21.8 L36.6,21.4 L36.6,21.2 L36.8,21.2 L37,20.8 L37,20.6 L37.2,20.4 L37.2,20.6 L37.4,20.2 L37.6,20 L37.4,20 L37.6,19.8 L37.6,20 L37.4,20.4 L37.6,20.2 L37.4,20.6 L37.2,20.6 L36.8,21.4 L36.6,21.6 L36.6,22 C36.466666,22.266668 36.366667,22.433333 36.3,22.5 C36.233333,22.566667 36.133334,22.733332 36,23 L35.8,23.4 L35.2,24 L35.2,24.2 L35,24.4 C34.866666,24.533334 34.8,24.666666 34.8,24.8 L34.2,25.4 C34.2,25.666668 34.000002,26.066664 33.6,26.6 L33.4,26.8 L33.6,26.4 L33.6,26.2 C33.6,26.066666 33.666666,25.933334 33.8,25.8 L34,25.6 L34,25.4 L34.2,25.2 L34.4,24.8 Z M31,30.8 L31.4,30.8 L31,31.2 L31,30.8 L30.8,31.2 L30.8,31.4 L31,31.2 L31,31.4 L30.8,31.6 L30.8,31.8 L30.6,32 L30.6,31.8 L30.4,32.2 L30.2,32.4 L30.2,32.6 L30,33 L29.8,33.2 L29.8,33.4 L29.6,33.4 C29.466666,33.666668 29.333334,33.866666 29.2,34 L29.2,33.8 L29.6,33.4 L29.2,33.6 L29.8,33 C29.933334,32.466664 30.066666,32.066668 30.2,31.8 C30.333334,31.533332 30.466666,31.333334 30.6,31.2 L30.6,31 L30.8,30.8 L31,30.4 L31,30.6 L31.2,30.4 C31.2,30.533334 31.133334,30.666666 31,30.8 Z M38,19.2 L38.2,19 L38.2,19.2 L37.8,19.6 C37.8,19.466666 37.866666,19.333334 38,19.2 L37.8,19.2 L38.2,18.6 L39,17 L39.4,16.6 L39.4,16.8 L39,17.6 L39,17.8 L38.6,18.2 L38.8,18.2 L38.4,18.6 L38.2,19 L38.2,18.8 L38,19.2 Z M23.8,43.2 L23.8,43.4 C23.399998,44.06667 23.000002,44.666664 22.6,45.2 L22.2,46 L22.4,45.4 L22.4,45.2 C22.666668,44.933332 22.899999,44.600002 23.1,44.2 C23.300001,43.799998 23.533332,43.466668 23.8,43.2 Z M27.6,37.2 L27.4,37.6 C27.266666,37.866668 27.133334,38.066666 27,38.2 L27,37.8 L26.8,38.4 L26.6,38.8 C26.333332,39.200002 26.133334,39.4 26,39.4 C26.266668,38.999998 26.666664,38.333338 27.2,37.4 L27.4,37.2 L27,38 L27.2,37.8 C27.2,37.733333 27.2166665,37.65 27.2499998,37.5500003 L27.3249999,37.4750001 L27.2249999,37.5750001 L27.2499998,37.5500003 L27.6,37.2 Z M21.4,47 L20.8,48.2 L20,49 L20.8,47.8 C20.933334,47.399998 21.133332,47.000002 21.4,46.6 L21.2,47 L21.2,47.2 L21.4,47 Z M28.4,35.4 L28.4,35 L28.8,34.6 L28.6,35 L28.6,35.2 L29,34.8 L28.6,35.4 L28.6,35.2 L27.8,36.8 L27.8,36.6 L27.6,36.8 L28,36 C28.133334,35.733332 28.266666,35.533334 28.4,35.4 Z M40.4,15 L40.4,14.6 L40.6,14.4 C40.733334,14.266666 40.8,14.133334 40.8,14 L41.4,13.4 L41.2,13.8 C41.333334,13.666666 41.4,13.533334 41.4,13.4 L41.4,13.6 C41.266666,13.866668 41.133334,14.066666 41,14.2 L40.8,14.4 C40.666666,14.533334 40.533334,14.733332 40.4,15 Z M31.4,30.8 L31.4,30.6 L31.2,30.8 L31.2,30.6 L31.6,30.2 L31.8,29.8 L31.8,30.2 C31.666666,30.466668 31.533334,30.666666 31.4,30.8 Z M20,80.4 L20.6,80.2 C20.333332,80.466668 19.933336,80.666666 19.4,80.8 C19.533334,80.666666 19.733332,80.533334 20,80.4 Z M42.4,11.6 L42.2,12 L42.2,12.4 L41.8,12.8 C41.933334,12.399998 42.133332,12.000002 42.4,11.6 Z M25.2,82.2 L25,82.6 C25.133334,82.466666 25.466664,82.200002 26,81.8 C25.733332,81.8 25.533334,81.866666 25.4,82 L25.2,82.2 Z M22,79.2 L21.6,79.6 C21.333332,79.733334 21.133334,79.866666 21,80 L21,80.2 L21.4,79.8 L21.6,79.8 L21.8,79.6 L22,79.2 Z M32.4,77 L32.6,77.2 L32.2,77.2 L31.8,77.6 L32,77.2 L31.8,77.2 L32,77 L32,77.2 L32.2,77.2 L32,77 L32.4,77 Z M32.8,28.4 L32.8,28.8 L32.4,29.2 L32.6,28.8 L32.2,29 L32.8,28.4 Z M33.2,27.4 L33.4,27.2 L33.2,27.6 C33.2,27.733334 33.133334,27.866666 33,28 L33,27.8 L32.8,28 L33.2,27.2 L33.4,27 L33.2,27.4 Z M6.8,99.6 C6.933334,99.733334 7.133332,99.866666 7.4,100 L6.6,99.6 L7,100 C6.733332,99.866666 6.6,99.733334 6.6,99.6 L6.4,99.6 C6.266666,99.466666 6.2,99.333334 6.2,99.2 C6.466668,99.466668 6.666666,99.6 6.8,99.6 Z M39.6,16 L39.4,16.2 L39.6,15.8 L39.6,16 L40,15.6 C39.866666,15.866668 39.733334,16.066666 39.6,16.2 C39.6,16.333334 39.533334,16.466666 39.4,16.6 C39.4,16.333332 39.466666,16.133334 39.6,16 Z M29.4,34.2 L29,34.8 L29,34.6 C29.133334,34.333332 29.333332,34.066668 29.6,33.8 L29.4,34.2 Z M29.2,34 L28.6,34.6 C28.733334,34.333332 28.933332,34.000002 29.2,33.6 L29,34 L29.2,34 Z M25.6,40 L24.8,41.6 C24.933334,41.199998 25.066666,40.866668 25.2,40.6 L25.6,40 Z M21.6,46.2 L21.6,46 L21.8,45.8 L21.6,46 L22,45.2 L22.2,45.2 L21.8,45.8 C21.8,45.933334 21.733334,46.066666 21.6,46.2 Z M8,73.4 C7.866666,73.933336 7.666668,74.399998 7.4,74.8 L7.8,73.8 L7.6,74 L7.8,73.6 L7.8,73.8 C7.933334,73.666666 8,73.533334 8,73.4 Z M33.2,27.6 L33.4,27.2 L33.6,27 L33.6,27.4 L33.2,27.6 Z M9,69.2 L9,69.4 L8.8,69.6 L8.6,70 L8.4,70.2 L8.8,69.4 L9,69.2 Z M31.4,30.2 L31.8,29.4 L32.2,29 L31.8,29.6 C31.666666,29.866668 31.533334,30.066666 31.4,30.2 Z M7.2,73.8 L6.6,74.4 L6.6,74.6 L6.8,74.4 C6.933334,74.266666 7.066666,74.066668 7.2,73.8 Z M34.2,26 L34,26.2 C34.266668,25.666664 34.333334,25.466666 34.2,25.6 L34.6,25.4 C34.466666,25.533334 34.333334,25.733332 34.2,26 Z M0.6,90 L0.6,90.4 C0.733334,90.266666 0.8,90.000002 0.8,89.6 C0.8,89.733334 0.733334,89.866666 0.6,90 Z M6.4,76 L6.8,75.6 L7,75.2 L6.6,75.6 L6.4,76 Z M13.8,87.6 L14.4,87 C14.266666,87 14.066668,87.133332 13.8,87.4 L13.8,87.6 Z M30.2,32.8 L30.2,32.4 L30.6,32 L30.2,32.8 Z M17,56 L17,55.6 L17.4,55.2 C17.266666,55.600002 17.133334,55.866666 17,56 Z M40,15.6 L40,15.4 C40.133334,15.4 40.2,15.266668 40.2,15 L40.4,15 C40.4,15.133334 40.333334,15.266666 40.2,15.4 L40,15.6 Z M32.6,28.2 L32.6,28.4 C32.466666,28.666668 32.333334,28.8 32.2,28.8 C32.333334,28.533332 32.466666,28.333334 32.6,28.2 Z M18.6,51.4 L19,50.8 L19.2,50.6 L18.8,51.2 L19,51.2 C18.866666,51.2 18.733334,51.266666 18.6,51.4 Z M10.8,65.8 L10.6,66.2 L10.4,66.4 C10.4,66.266666 10.466666,66.133334 10.6,66 L10.8,65.8 Z M46.6,4.2 L46.8,4 L47.2,3.8 L46.8,4.2 L46.6,4.2 Z M41.8,12.8 L41.8,13.2 L41.6,13.4 L41.6,13.2 C41.733334,13.066666 41.8,12.933334 41.8,12.8 Z M5.2,74.6 L5.4,74.4 L5.2,74.8 L5,75 C5,74.866666 5.066666,74.733334 5.2,74.6 Z M15.2,85.8 L14.8,86.2 L14.6,86.2 L14.8,86 L15.2,85.8 Z M24.2,83.4 C23.933332,83.533334 23.8,83.733332 23.8,84 L24.2,83.4 Z M13.8,86.8 C13.666666,86.8 13.400002,87.066664 13,87.6 L13.8,86.8 Z M12.6,88.2 L12.6,88 C12.333332,88.400002 12.133334,88.6 12,88.6 L12.2,88.6 L12.6,88.2 Z M6.6,74.2 L6.4,74.6 L6.2,74.8 C6.2,74.666666 6.333332,74.466668 6.6,74.2 Z M2.2,84.8 L2,85.4 C2.133334,85.133332 2.266666,84.800002 2.4,84.4 C2.266666,84.533334 2.2,84.666666 2.2,84.8 Z M14.2,60.4 C14.2,60.266666 14.266666,60.133334 14.4,60 L14.6,59.8 C14.466666,60.066668 14.333334,60.266666 14.2,60.4 Z M16.2,84.4 L16,84.8 C16,84.533332 16.066666,84.333334 16.2,84.2 L16.2,84.4 Z M15.2,85.8 L14.8,86 L15.2,85.6 L15.2,85.8 Z M32.2,29.4 L32,29.8 L31.8,29.8 L32.2,29.4 Z M28.6,35.2 L28.8,34.8 L29,34.6 L28.8,35 L28.6,35.2 Z M11.8,64.4 L11.4,64.8 L11.8,64.2 L11.8,64.4 Z M13,88.4 L12.6,88.6 L12.4,88.8 C12.666668,88.666666 12.866666,88.533334 13,88.4 Z M22.8,78.6 L22.6,78.6 L22.4,78.8 C22.533334,78.8 22.666666,78.733334 22.8,78.6 Z M8.4,70.6 L8.4,70.8 L8.2,71 C8.2,70.866666 8.266666,70.733334 8.4,70.6 Z M12.4,89 L12.4,89.2 L12.8,88.8 L12.4,89 Z M27.4,37 L27.6,36.8 L27.6,37 L27.4,37.2 L27.4,37 Z M10.4,100.4 L10.2,100.6 L10.2,100.4 L10.4,100.2 L10.4,100.4 Z M45,6.2 L45,6.4 L44.8,6.8 L44.8,6.6 C44.933334,6.466666 45,6.333334 45,6.2 Z M28,80 L27.6,80.2 L27.6,80.4 L28,80 Z M11,99.2 L10.8,99.6 L10.6,99.6 L11,99.2 Z M19.6,49.8 L19.4,50.2 L19.2,50.4 C19.2,50.266666 19.333332,50.066668 19.6,49.8 Z M4.6,98.2 L4.4,98 L4.2,97.6 L4.4,97.8 L4.6,98.2 Z M21.6,46.4 L21.4,47 C21.533334,46.866666 21.6,46.666668 21.6,46.4 Z M6.2,99.4 L6,99.4 L5.6,99 C5.733334,99.133334 5.933332,99.266666 6.2,99.4 Z M28.2666673,35.2444437 L28,35.6 C28.0888896,35.5111104 28.1777783,35.3925922 28.2666673,35.2444437 L28.2666673,35.2444437 Z M5.2,76.8 C5.2,76.666666 5.066668,76.799998 4.8,77.2 L5.2,76.8 Z M44.4,7.8 L44.8,7.4 C44.8,7.266666 44.666668,7.399998 44.4,7.8 Z M20,49.4 L19.6,49.8 C19.733334,49.533332 19.866666,49.333334 20,49.2 L20,49.4 Z M26.8,38.4 L27,38.2 C26.866666,38.466668 26.733334,38.666666 26.6,38.8 L26.8,38.4 Z M15.2,86.2 L15.6,85.8 C15.466666,85.8 15.333334,85.933332 15.2,86.2 Z M0.8,93.4 L1.2,93 C1.066666,93 0.933334,93.133332 0.8,93.4 Z M32.2,29.4 C32.066666,29.4 31.933334,29.533332 31.8,29.8 L32.2,29.4 Z M16.2,57.2 L15.8,58 C15.933334,57.599998 16.066666,57.333334 16.2,57.2 Z M12.6,63.2 L12.4,63.2 L12.6,63 L12.6,63.2 Z M14.4,86.4 L14.4,86.6 L14.2,86.6 L14.4,86.4 Z M31.6,29.8 L31.4,29.8 L31.6,29.6 L31.6,29.8 Z M19,89 L18.8,89.2 L18.8,89 L19,89 Z M39,17 L39.2,16.6 L39.2,16.8 L39,17 Z M10,101.4 L10.2,100.8 L10.2,101 L10,101.4 Z M35.8,23.2 L35.6,23.2 L35.4,23.4 L35.8,23.2 Z M8.8,69.8 L8.8,69.6 L9,69.6 L8.8,69.8 Z M5.2,77 L5,77.2 L5.2,76.8 L5.2,77 Z M39.8,15.6 L39.8,15.8 L39.6,15.8 L39.8,15.6 Z M7.6,72.8 L7.4,73.2 L7.4,73.4 L7.6,72.8 Z M32.8,77 L32.8,76.8 L33,77 L32.8,77 Z M33.6,26.8 L33.4,27 L33.4,26.8 L33.6,26.8 Z M12.4,63.4 L12.4,63.2 L12.6,63.2 L12.4,63.4 Z M0.6,89.6 L0.8,89.4 L0.8,89.2 L0.6,89.6 Z M33.6,27 L33.6,26.8 L33.8,26.6 L33.6,27 Z M8.4,70.2 L8.6,70 L8.4,70.4 L8.4,70.2 Z M10.4,100 L10.6,99.8 L10.6,100 L10.4,100 Z M24.2,83.4 L24.2,83.2 L24.4,83.2 L24.2,83.4 Z M9,71.4 L8.8,71.8 L8.8,71.6 L9,71.4 Z M6.8,75.6 L6.6,75.6 L6.8,75.4 L6.8,75.6 Z M27.6,36.6 L27.6,36.8 L27.4,37 L27.6,36.6 Z M28.8,34.8 L28.8,34.6 L29,34.4 L28.8,34.8 Z M13.6,88 L13.4,88 L13.4,88.2 L13.6,88 Z M26,76 L26,76.2 L25.8,76.2 L26,76 Z M19.1111109,50.8666673 C19.1703705,50.7777783 19.2,50.6888896 19.2,50.6 L19.1111109,50.8666673 L19.1111109,50.8666673 Z M19.1111109,50.8666673 L19,51.2 L19,51 C19.0444444,50.9555556 19.0814814,50.9111114 19.1111109,50.8666673 L19.1111109,50.8666673 Z M37.6,19.6 L37.6,19.8 L37.4,20 L37.6,19.6 Z M5,79.6 L4.8,79.8 L4.8,79.6 L5,79.6 Z M46,4.6 L46.2,4.6 L46,4.8 L46,4.6 Z M37.2,20.4 L37.4,20 L37.4,20.2 L37.2,20.4 Z M8.4,72.2888891 L8.4,72.2 C8.48888958,72.1111104 8.48888978,72.1407397 8.4,72.2888891 L8.4,72.2888891 Z M8.4,72.2888891 C8.35555548,72.3629632 8.28888884,72.4666667 8.2,72.6 L8.4,72.4 L8.4,72.2888891 L8.4,72.2888891 Z M13.2,87.8 L12.8,88 C12.933334,88 13.066666,87.933334 13.2,87.8 Z M31.2,30.2 L31.4,29.8 L31.4,30 L31.2,30.2 Z M17.4,82.8 L17.4,83 L17.2,83 L17.4,82.8 Z M9.6,101.6 L9.2,101.2 C9.2,101.333334 9.333332,101.466666 9.6,101.6 Z M10.8,99 L11,99 L10.8,99.2 L10.8,99 Z M8,73.4 L8,73.2 L8.2,73.2 L8,73.4 Z M24.6,83 L24.8,82.8 L24.6,82.8 L24.6,83 Z M11.4,65 L11.4,64.8 L11.6,64.6 L11.4,65 Z M7.4,72.6 C7.533334,72.466666 7.6,72.333334 7.6,72.2 C7.466666,72.333334 7.4,72.466666 7.4,72.6 Z M11.2,65.2 L11,65.4 L11.2,65 L11.2,65.2 Z M31,31.2 L30.8,31.4 L30.8,31.2 L31,31.2 Z M10.4,66.6 L10.4,66.8 L10.2,67 C10.333334,66.866666 10.4,66.733334 10.4,66.6 Z M32.2,29.6 L32.2,29.4 L32.4,29.2 L32.2,29.6 Z M37.8,19.4 L37.6,19.8 L37.6,19.6 L37.8,19.4 Z M31.2,30.6 L31.2,30.8 L31,30.8 L31.2,30.6 Z M13,63.4 L13.2,63 C13.066666,63.133334 13,63.266666 13,63.4 Z M30,32.4 L30,32.6 C30,32.466666 30.066666,32.333334 30.2,32.2 L30,32.4 Z M16.8,55.8 L17,55.6 L16.8,56 L16.8,55.8 Z M34,26.4 L33.8,26.6 L34,26.2 L34,26.4 Z M9.8,69.6 C9.933334,69.466666 10,69.333334 10,69.2 C9.866666,69.2 9.8,69.333332 9.8,69.6 Z M36.8,21.6 L36.6,21.8 L36.6,21.6 L36.8,21.6 Z M6.2,75 L6.4,74.8 L6.6,74.4 L6.2,75 Z M8.4,70.2 L8.4,70.4 L8.2,70.6 L8.4,70.2 Z M23.8,43.2 L23.8,43 L24,43 L23.8,43.2 Z M36.2,22.2 L36.2,22.4 L36.4,22.2 L36.2,22.2 Z M28.8,79.6 L29.4,79.2 L29,79.4 L28.8,79.6 Z M16.2,56.8 L16.2,57 L16,57.2 L16.2,56.8 Z M37.4,83.6 C37.533334,83.6 37.666666,83.533334 37.8,83.4 L38,83.4 L38.2,83 L38.4,82.8 L39.4,82 L39.6,81.8 C39.733334,81.8 39.933332,81.666668 40.2,81.4 C40.333334,81.4 40.466666,81.333334 40.6,81.2 L40.4,81.2 L40.6,81 L41,80.8 L41.2,80.8 L41.4,80.6 L42,80.2 L41.6,80.6 C41.866668,80.466666 42.133332,80.266668 42.4,80 L42.8,79.6 L43,79.6 C43.133334,79.466666 43.466664,79.266668 44,79 L44.4,78.8 C46.266676,77.733328 48.166657,76.833337 50.1,76.1 C52.033343,75.366663 53.933324,75.066666 55.8,75.2 L58.2,77.4 L58,78.2 C57.733332,78.333334 57.400002,78.4 57,78.4 C56.599998,78.4 56.200002,78.466666 55.8,78.6 L55.8,78.8 L55.4,78.8 L55.2,79 L55,79 C54.199996,79.266668 53.400004,79.599998 52.6,80 L50.2,81.2 L49.8,81.6 L49.6,81.6 C49.466666,81.6 49.333334,81.666666 49.2,81.8 L48.8,82.2 L48.6,82.2 L48.2,82.4 C47.933332,82.533334 47.733334,82.666666 47.6,82.8 L47.4,83 C47.266666,83.133334 47.133334,83.2 47,83.2 L46.4,83.8 L46.2,83.8 C46.066666,83.933334 45.933334,84.033333 45.8,84.1 C45.666666,84.166667 45.533334,84.333332 45.4,84.6 L45.2,84.6 L45,84.8 C44.866666,84.933334 44.733334,85 44.6,85 L44.6,85.2 C43.133326,86.53334 41.800006,87.933326 40.6,89.4 C39.399994,90.866674 38.46667,92.399992 37.8,94 C37.533332,93.733332 37.266668,93.566667 37,93.5 C36.733332,93.433333 36.466668,93.266668 36.2,93 C34.733326,92.066662 33.33334,91.033339 32,89.9 C30.66666,88.766661 29.66667,87.53334 29,86.2 L29,86 L28.8,86 L28.8,85.8 C28.399998,85.13333 28.2,84.366671 28.2,83.5 C28.2,82.633329 28.333332,81.800004 28.6,81 L28.6,80.8 L29,79.6 L29.2,79.6 L29.2,79.2 L30.8,75.2 C34.266684,67.466628 38.133312,59.93337 42.4,52.6 L42.8,52.2 L42.8,52 L43,52 L43,51.8 L43.2,51.4 L43.4,51.2 L43.6,50.8 L43.8,50.8 L44.2,50.4 C45.133338,49.73333 46.499991,48.966671 48.3,48.1 C50.100009,47.233329 51.66666,46.933332 53,47.2 C53.266668,48.000004 53.466666,48.666664 53.6,49.2 C53.866668,50.53334 54.066666,51.2 54.2,51.2 C54.333334,51.333334 53.866672,52.266658 52.8,54 C51.733328,55.733342 50.433341,57.833321 48.9,60.3 C47.366659,62.766679 45.833341,65.33332 44.3,68 C42.766659,70.66668 41.533338,72.933324 40.6,74.8 C40.466666,75.200002 40.333334,75.566665 40.2,75.9 C40.066666,76.233335 39.933334,76.599998 39.8,77 L39.8,77.2 L39.6,77.2 C39.6,77.466668 39.533334,77.666666 39.4,77.8 L38.6,80.2 C38.6,80.333334 38.566667,80.466666 38.5,80.6 C38.433333,80.733334 38.4,80.866666 38.4,81 L38.4,81.2 C38.266666,81.466668 38.066668,81.999996 37.8,82.8 L37.6,83 L37.6,83.2 C37.6,83.333334 37.533334,83.466666 37.4,83.6 Z M53.8,25 L53.6,25.4 L53.6,25.6 L53.8,25 L54,24.8 L54,24.6 L54.2,24.4 L54.2,24.2 L54,24.4 L54.2,24 L54.2,24.2 L54.6,23.8 L54.4,23.8 L54.6,23.6 L54.6,23.4 L54.2,23.8 L54.6,23 L54.8,23 L54.6,23.2 L54.8,23.2 L55,22.8 C55,22.666666 55.133332,22.466668 55.4,22.2 L56,21 L55.8,21.2 L56,20.6 L56,21 L56.2,20.6 L56.4,20 L57,20 L57.6,20.4 L57.4,20.4 C57.533334,20.4 57.666666,20.466666 57.8,20.6 L57.8,20.4 C58.066668,20.133332 58.233333,19.866668 58.3,19.6 C58.366667,19.333332 58.466666,19.066668 58.6,18.8 C58.733334,18.533332 58.866666,18.333334 59,18.2 C59.800004,18.600002 60.666662,19.166663 61.6,19.9 C62.533338,20.633337 63.399996,21.399996 64.2,22.2 C65.000004,23.000004 65.666664,23.73333 66.2,24.4 C66.733336,25.06667 67.133332,25.466666 67.4,25.6 C65.533324,28.26668 63.800008,30.799988 62.2,33.2 C60.733326,35.20001 59.266674,37.233323 57.8,39.3 C56.333326,41.366677 55.200004,42.933328 54.4,44 L53,44.4 L53,44.6 L52.6,44.8 C52.6,44.933334 52.533334,45.066666 52.4,45.2 L52.2,45.4 C52.2,45.533334 52.133334,45.666666 52,45.8 L52.2,45.8 L52,46 C51.866666,46 51.733334,46.066666 51.6,46.2 L51.2,46.2 L51.2,46.4 L51,46.4 L50.8,46.6 L50.6,46.6 L50.2,46.8 L50,46.8 L49.4,47 L48.8,47.4 L49,47.2 L48.6,47.4 L48.8,47.4 L48.6,47.6 L48,47.6 L48,47.4 L47.8,47.4 L47.8,45.4 C47.666666,45.4 47.6,45.266668 47.6,45 L47.6,44.8 L47.8,44.8 L47.8,44.4 C47.8,44.533334 47.733334,44.666666 47.6,44.8 L47.6,44.2 L47.8,44 L47.8,42.2 L48,42 L48,41 L48.2,40.8 L48.2,40.4 L48.4,40.2 L48.4,39.6 L48.6,39.4 L48.6,38.2 L48.8,38 L48.8,37.8 L49,37.6 L49,37.2 L48.8,37.4 L48.8,37.2 L49,37 L49,36.8 C49.133334,36.666666 49.2,36.533334 49.2,36.4 L49.2,36.6 L49.4,36 L49.4,35.4 L49.6,35 L49.6,35.2 L49.8,35 L49.8,34.4 L50,33.8 L50,34.2 L50.2,33.6 L50,33.8 L50,33.6 L50.2,33.4 L50.2,33.2 L50.4,33 C50.533334,32.866666 50.6,32.733334 50.6,32.6 L50.8,32.4 L50.6,32.4 L50.6,32.2 L51,31.8 L51,31.4 L50.8,31.6 C50.933334,31.466666 51,31.333334 51,31.2 L51,31.4 C51.133334,31.266666 51.2,31.133334 51.2,31 L51.2,30.8 L51,31 L51.4,30.2 L51.4,30 L51.6,29.8 L51.6,30 L51.8,29.8 L51.6,29.8 L51.8,29.4 L51.8,29.2 L52,29 L52,28.8 L52.2,28.6 L52.2,28.4 L52.4,28.4 L52.4,28.2 L52.2,28.4 L52.2,28.2 L52.8,27 L52.6,27.2 L53.2,26 L53.2,26.2 C53.333334,26.066666 53.4,25.933334 53.4,25.8 L53.2,26 L53.2,25.8 L53.4,25.6 L53.6,25.2 L53.8,25 Z M51,45.6 L51.2,45.6 C51.2,45.466666 51.333332,45.4 51.6,45.4 L51.8,45.2 L51.6,45.2 L51.8,45 L50.6,45.6 C50.199998,43.866658 50.233331,41.866678 50.7,39.6 C51.166669,37.333322 51.766663,35.066678 52.5,32.8 C53.233337,30.533322 54.066662,28.366677 55,26.3 C55.933338,24.233323 56.73333,22.466674 57.4,21 L57.2,20.8 L56.8,20.8 C56.666666,20.933334 56.6,21.066666 56.6,21.2 C56.466666,21.333334 56.4,21.466666 56.4,21.6 C56.266666,21.866668 56.133334,22.066666 56,22.2 L55.8,22.4 L55.8,22.6 C55.8,22.733334 55.733334,22.933332 55.6,23.2 L55.4,23.4 L55.4,23.6 L55,24.4 C54.866666,24.666668 54.733334,24.866666 54.6,25 L54.6,25.2 L54.4,25.2 L54.4,25.6 L54.6,25.4 L54.4,25.8 L54.4,25.6 L54.2,25.8 L54.2,26 C54.2,26.266668 54.066668,26.533332 53.8,26.8 L53.8,27 L53.6,27.4 C53.6,27.666668 53.533334,27.899999 53.4,28.1 C53.266666,28.300001 53.133334,28.533332 53,28.8 C53,28.933334 52.933334,29.066666 52.8,29.2 L52.8,29.4 L52.6,29.8 L52.6,29.6 L52.4,29.8 L52.4,30 L52.2,30.4 C52.333334,30.266666 52.466666,30.066668 52.6,29.8 L52.6,30 C52.333332,30.533336 52.2,30.866666 52.2,31 L52,31 L52,31.4 L51.8,31.6 L51.8,31.8 L51.6,32.2 L51.8,32 L51.4,32.8 L51.4,33 L50.8,34.2 L50.8,34.6 L50.6,34.8 L50.8,34.8 C50.533332,35.066668 50.4,35.266666 50.4,35.4 L50.4,36 C50.133332,36.533336 50,36.933332 50,37.2 C50,37.333334 49.933334,37.466666 49.8,37.6 C49.8,37.866668 49.733334,38.066666 49.6,38.2 L49.6,38.6 C49.6,38.733334 49.566667,38.866666 49.5,39 C49.433333,39.133334 49.4,39.266666 49.4,39.4 L49.4,39.6 L49.2,39.8 L49.2,40.4 C49.066666,40.4 49,40.666664 49,41.2 L49,41.8 C48.866666,41.666666 48.8,41.866664 48.8,42.4 L48.8,42.6 L48.6,43 L48.6,44.2 L48.4,44.4 L48.4,44.6 L48.6,44.8 L48.6,46.8 C48.733334,46.666666 48.866666,46.6 49,46.6 L49.4,46.4 L49.6,46.4 L49.6,46.2 L49.4,46.2 L49.8,46 L50.2,46 C50.600002,45.733332 50.866666,45.6 51,45.6 Z M31.3500003,70 L31,70 C30.866666,70 30.999998,69.800002 31.4,69.4 L31.4,69.8 L31.6,69.2 L31.8,69 L32.2,68.2 L32.2,68.4 C32.333334,68.133332 32.4,67.933334 32.4,67.8 L32.4,67.6 C32.533334,67.333332 32.6,67.133334 32.6,67 C32.6,66.866666 32.666666,66.733334 32.8,66.6 C32.933334,66.466666 33.033333,66.333334 33.1,66.2 C33.166667,66.066666 33.266666,65.933334 33.4,65.8 L33.2,66 L33.4,65.6 C33.4,65.466666 33.466666,65.333334 33.6,65.2 L33.6,65 L33.8,64.8 L33.8,65 L34.2,64.4 L34,64.4 L34.4,63.8 L34.6,63.4 L34.6,63.6 L34.8,63.2 C34.8,63.066666 34.866666,62.933334 35,62.8 L35.2,62.8 L35.2,62.4 L35.4,62.2 L35.4,62.4 L35.8,61.8 L36,61.2 L36.4,60.6 L36.6,60.4 L36.8,60 C36.933334,59.866666 37,59.733334 37,59.6 L37,59.4 C37.133334,59.133332 37.399998,58.66667 37.8,58 L37.8,58.2 L38,57.8 L38,57.6 L38.2,57.2 L38.4,57.2 C38.4,57.066666 38.466666,56.933334 38.6,56.8 C38.6,56.666666 38.666666,56.533334 38.8,56.4 C38.8,56.266666 38.866666,56.133334 39,56 L38.8,56.2 C38.933334,56.066666 39,55.933334 39,55.8 L39.8,54.6 L39.4,55.4 L39.6,55.2 C39.733334,54.799998 39.933332,54.466668 40.2,54.2 C40.2,54.066666 40.333332,53.800002 40.6,53.4 C40.733334,53.266666 40.8,53.066668 40.8,52.8 L41.2,52.6 C41.333334,52.466666 41.466666,52.4 41.6,52.4 L41.6,52.2 L41.8,52.2 L42,52 L42,51.8 C41.599998,52.066668 41.333334,52.2 41.2,52.2 L41.6,52 L41.8,51.8 C41.933334,51.666666 42.133332,51.533334 42.4,51.4 L42.6,51.4 L42.8,51.2 L43,51.2 L43.4,50.8 L44.2,50.4 L44,50.6 L43.6,50.8 L43.4,51.2 L43.2,51.4 L43,51.8 L43,52 L42.6,52 L42.8,51.8 L42.4,52 L42.6,52 L42.4,52.2 L42.6,52.2 L42.4,52.4 L42.4,52.6 L42,52.8 L42.4,52.4 L42.2,52.4 L42.4,52.2 L42,52.4 L41.8,52.6 L42,52.6 L41.8,52.8 L41.6,53.2 L41.4,53.2 L41.4,53.4 L41.2,53.6 L40.8,54.4 L41,54.2 L40.4,55.4 L40,55.8 C40,56.066668 39.800002,56.399998 39.4,56.8 C39.4,56.933334 39.333334,57.066666 39.2,57.2 L39.4,56.6 L39,57.4 C38.866666,57.533334 38.8,57.666666 38.8,57.8 L38.8,58 L38.4,58.4 L38.4,58.6 L37.8,59.2 L38.2,59 L37.4,60.6 L37.2,60.6 L36.6,61.8 L36.4,61.8 C36.4,62.066668 36.366667,62.233333 36.3,62.3 C36.233333,62.366667 36.133334,62.533332 36,62.8 L36,63.4 C35.733332,63.533334 35.533334,63.733332 35.4,64 C35.4,64.133334 35.333334,64.333332 35.2,64.6 L35,64.8 L35,64.6 L34.8,64.8 L34.8,65 L34.6,65.4 L34.4,65.6 C34.4,65.733334 34.333334,65.866666 34.2,66 C34.066666,66.133334 34,66.266666 34,66.4 C34,66.533334 33.933334,66.666666 33.8,66.8 L33.6,67.2 L33.6,67.4 C33.6,67.666668 33.533334,67.866666 33.4,68 L33.4,67.6 L33.2,67.8 C33.2,67.933334 33.133334,68.066666 33,68.2 C33,68.333334 32.933334,68.466666 32.8,68.6 C32.666666,68.733334 32.6,68.933332 32.6,69.2 L32.8,69 L32.4,69.8 C32.4,69.666666 32.466666,69.466668 32.6,69.2 C32.466666,69.333334 32.333334,69.533332 32.2,69.8 L32,70.2 L32,70.8 L31.8,70.8 C31.8,70.933334 31.666668,71.133332 31.4,71.4 L31.2,71.8 L31,72.4 L30.8,72.6 C30.666666,72.733334 30.6,72.866666 30.6,73 C30.6,73.133334 30.533334,73.266666 30.4,73.4 L30.4,73.6 L30.6,73.4 L30.2,74.2 C30.2,74.333334 30.133334,74.466666 30,74.6 L30,74.2 C30.133334,73.933332 30.266666,73.733334 30.4,73.6 L29.8,74.2 C29.8,74.333334 29.733334,74.599998 29.6,75 L29.8,75 L29.6,75.2 C29.066664,75.2 28.8,75.133334 28.8,75 L29,75 L29,74.6 L29.4,73.8 L29.8,73.4 L29.8,73.2 C29.933334,72.933332 30,72.733334 30,72.6 L30.2,72.4 L30.4,71.8 C30.533334,71.533332 30.666666,71.333334 30.8,71.2 L30.8,70.8 L31,70.6 L31.2,70.6 L31.2,70.2 C31.266667,70.133333 31.316667,70.0666665 31.3500003,70 L31.3500003,70 Z M26.8,83.2 L26.6,83.2 L26.6,83.4 L26.4,83.8 L26.6,83.8 L26.6,84 L26.4,84.2 C26.266666,84.333334 26.2,84.466666 26.2,84.6 L26.2,84.8 L26.4,84.4 L26.6,84.2 C26.466666,84.466668 26.4,84.666666 26.4,84.8 L26.4,85.8 L26.6,85.8 L26.6,86 C26.6,86.266668 26.733332,86.666664 27,87.2 L27,87.4 L26.8,87.2 L26.8,86.8 L26.6,86.6 L26.6,86.2 L26.4,86 C26.4,86.133334 26.433333,86.266666 26.5,86.4 C26.566667,86.533334 26.6,86.666666 26.6,86.8 L26.8,87.2 L26.6,87 C26.466666,86.866666 26.4,86.733334 26.4,86.6 L26.4,86.4 L26.2,86.4 L26.2,84.8 L26,84.6 C26,84.466666 26.066666,84.333334 26.2,84.2 L26.2,83 L26.8,83 L26.8,83.2 Z M27.8,89 C27.533332,88.733332 27.333334,88.466668 27.2,88.2 L27.2,88 L27,87.8 L27,87.6 L27.2,87.8 L27.4,88.2 L27.4,88 L27.6,88.2 C27.6,88.333334 27.666666,88.466666 27.8,88.6 L27.8,88.8 L28.2,89.2 C28.2,89.333334 28.266666,89.466666 28.4,89.6 L28.6,89.8 C28.866668,90.066668 29.066666,90.2 29.2,90.2 C29.333334,90.466668 29.466666,90.666666 29.6,90.8 L30.4,91.6 L30.2,91.6 L30.6,91.8 L31,92.2 C31.266668,92.333334 31.533332,92.533332 31.8,92.8 C31.666666,92.666666 31.466668,92.533334 31.2,92.4 L30.6,92 L29.6,91 C29.466666,91 29.333334,90.933334 29.2,90.8 L29.2,90.6 C28.933332,90.466666 28.8,90.333334 28.8,90.2 L27.8,89.2 L28,89.2 L27.8,89 Z M39.8,81.6 C39.533332,81.866668 39.333334,82 39.2,82 L39.4,82 L38.4,82.8 L38.2,83 L38,83.4 L37.8,83.4 C37.666666,83.533334 37.533334,83.6 37.4,83.6 C37.533334,83.466666 37.6,83.333334 37.6,83.2 L37.6,83 L38.8,82.2 L38.6,82.4 L39,82.2 L38.8,82.2 L39.2,82 L39.8,81.6 Z M48.8,82.2 L48.6,82.2 L48.4,82.4 L48.2,82.4 L47.8,82.8 L49.2,82.2 L49.4,82 L49.2,82 L48.8,82.2 Z M30,92 C29.866666,91.866666 29.8,91.733334 29.8,91.6 L30.4,92.2 L30.2,92.2 C29.933332,92.066666 29.666668,91.866668 29.4,91.6 L29,91.2 L29.4,91.4 L30,92 Z M33,93.6 C33.266668,93.733334 33.466666,93.8 33.6,93.8 L34,94.2 L33.6,94.2 L33.4,94 L33,93.8 L33,93.6 Z M26.8,88.2 L26.6,88 L26.6,87.8 C26.733334,87.933334 26.8,88.066666 26.8,88.2 Z M26.8,88.2 C26.8,88.333334 26.933332,88.533332 27.2,88.8 L27.6,89.2 L27.8,89.6 L27.2,89 L26.8,88.4 L26.8,88.2 Z M26.6,87.8 L26.4,87.8 L26.2,87.4 L26.4,87.4 L26.2,87.2 L26.2,87 L26,86.8 L26,86.6 L26.2,86.8 L26.4,87.2 L26.4,87.6 L26.6,87.8 Z M56.6,20.8 L56.6,20.6 L56.8,20.6 L57,20.4 L57,20.2 L56.8,20.4 L56.8,20.2 L56.6,20.2 L56.6,20.4 L56.4,20.4 L56.6,20.6 C56.6,20.733334 56.533334,20.866666 56.4,21 L56.6,20.8 Z M28.4,90.4 C28.266666,90.266666 28.066668,90.000002 27.8,89.6 L27.8,89.4 C27.933334,89.666668 28.133332,89.933332 28.4,90.2 L28.8,90.6 C28.666666,90.466666 28.533334,90.4 28.4,90.4 Z M31.8,93.4 C32.066668,93.533334 32.333332,93.733332 32.6,94 L32.4,94 L31.8,93.4 Z M55.8,22 L55.6,22.2 L55.6,22.6 C55.733334,22.466666 55.8,22.266668 55.8,22 Z M55.8,22.4 L56,22.2 L56.2,22.2 L55.8,22.6 L55.8,22.4 Z M34.6,63.2 L34.8,63 L34.8,63.2 L34.4,63.6 L34.6,63.2 Z M34.2,94.6 L34,94.4 L34,94.2 L34.4,94.6 L34.2,94.6 Z M27.8,90 L27.6,90 L27.6,89.8 C27.866668,89.8 28,89.933332 28,90.2 L27.8,90 Z M55.4,21.6 L55.6,21.2 L55.6,21.6 L55.4,21.8 L55.4,21.6 Z M49.4,82 L49.2,82.2 L49.4,82.2 L49.6,82 L49.4,82 Z M51.8,45.8 L51.6,46 L51.8,46 L52,45.8 L51.8,45.8 Z M40.8,53 L40.6,53.4 L40.4,53.4 L40.8,53 Z M38,57.8 L37.8,58 C37.8,57.866666 37.866666,57.733334 38,57.6 L38,57.8 Z M47.6,83.2 L47.4,83.2 L47.2,83.4 L47.4,83.4 L47.6,83.2 Z M26.6,87.2 L26.6,87 L26.8,87.2 L26.8,87.4 L26.6,87.2 Z M41.2,54 L41,54.2 L41.2,53.6 L41.2,54 Z M28.6,90.6 C28.6,90.733334 28.666666,90.866666 28.8,91 L28.4,90.6 L28.6,90.6 Z M54,24.4 L54,24.6 L53.8,24.8 L53.8,24.6 L54,24.4 Z M32.4,93 L32.6,93.2 L32.4,93.2 L32.2,93 L32.4,93 Z M31,92.8 L30.8,92.8 L30.6,92.4 L31,92.8 Z M30.4,71.8 L30.6,71.2 L30.6,71.4 L30.8,71.2 L30.4,71.8 Z M31,92.8 C31.266668,92.933334 31.4,93.033333 31.4,93.1 C31.4,93.166667 31.533332,93.266666 31.8,93.4 C31.533332,93.266666 31.266668,93.066668 31,92.8 Z M26.2,85.8 C26.333334,86.066668 26.4,86.266666 26.4,86.4 L26.4,86 L26.2,85.8 Z M39.4,56.6 L39.4,56.8 C39.666668,56.399998 39.733334,56.2 39.6,56.2 L39.4,56.6 Z M52.6,29.8 L52.4,30 L52.4,29.8 L52.6,29.8 Z M48.4,40 L48.2,40.2 L48.4,39.8 L48.4,40 Z M33,68.6 L33,68.4 L33.2,68.2 L33,68.6 Z M48.6,82.6 L48.8,82.4 C48.666666,82.4 48.533334,82.466666 48.4,82.6 L48.6,82.6 Z M30,74 L29.8,74.6 L30,74.2 L30,74 Z M41.4,52.2 L41.6,52.2 L41.4,52.4 L41.4,52.2 Z M29.6,73.2 L29.8,73 L29.8,73.2 L29.6,73.2 Z M32.4,69.8 L32.2,70.2 L32.2,70 L32.4,69.8 Z M54.2,24 L54.2,23.8 L54.4,23.8 L54.2,24 Z M39,57.6 L39,57.4 L39.2,57.2 L39,57.6 Z M36.4,60.6 L36.6,60.2 L36.6,60.4 L36.4,60.6 Z M40.4,53.4 L40.6,53.4 L40.4,53.6 L40.4,53.4 Z M48,82.8 L47.8,83 L48,83 L48,82.8 Z M27.2,87.6 L27.2,87.8 L27,87.6 L27.2,87.6 Z M40.2,81.4 L40,81.4 L40.4,81.2 L40.2,81.4 Z M29.8,72.6 L30,72.6 L29.8,72.8 L29.8,72.6 Z M26.2,87.2 L26.2,87.4 L26,87 L26.2,87.2 Z M42.4,52.4 L42.6,52.2 L42.8,52.2 L42.4,52.4 Z M50.6,32 L50.8,31.8 L50.6,32.2 L50.6,32 Z M53.6,25 L53.8,24.8 L53.6,25.2 L53.6,25 Z M41.8,52 L41.8,52.2 L41.6,52.2 L41.8,52 Z M42.6,52 L42.8,52 L42.6,52.2 L42.6,52 Z M49,82.4 L49.2,82.2 C49.066666,82.2 48.933334,82.266666 48.8,82.4 L49,82.4 Z M26,86.4 C26,86.266666 25.933334,86.133334 25.8,86 L26,86 L26,86.4 Z M31,70.4 L31.2,70.2 C31.066666,70.333334 31,70.466666 31,70.6 L31,70.4 Z M48.4,46.6 L48.6,46.6 L48.4,46.4 L48.4,46.6 Z M37.4,60 L37.8,59.6 C37.666666,59.866668 37.533334,60 37.4,60 Z M55.2,23.6 L55.2,23.4 L55,23.8 L55.2,23.6 Z M32.4,67.8 L32.2,68.2 L32.2,68 L32.4,67.8 Z M49.6,34.8 L49.8,34.6 L49.8,34.8 L49.6,34.8 Z M34.4,64.2 L34.4,64.4 L34.6,64 L34.4,64.2 Z M43.6,50.6 L44,50.4 L43.8,50.6 L43.6,50.6 Z M52.2,45.6 L52.2,45.4 L52.4,45.4 L52.2,45.6 Z M32.2,67.8 L32.4,67.8 L32.2,68 L32.2,67.8 Z M54.4,23.8 C54.4,23.666666 54.466666,23.533334 54.6,23.4 L54.4,23.8 Z M30.2,72.2 L30.2,72.4 L30,72.6 L30.2,72.2 Z M54.8,23 C54.933334,22.866666 55,22.733334 55,22.6 L55,22.8 L54.8,23 Z M33.2,68 L33.4,68 L33.2,68.2 L33.2,68 Z M30.6,71 C30.6,70.866666 30.666666,70.733334 30.8,70.6 L30.8,70.8 L30.6,71 Z M55.2,23.6 L55,24 L55.2,23.8 L55.2,23.6 Z M49.4,39 C49.4,38.866666 49.466666,38.733334 49.6,38.6 L49.4,39 Z M48,47.8 L47.8,47.6 L48,47.6 L48,47.8 Z M51.2,46.2 L50.6,46.4 L50.8,46.4 L51.2,46.2 Z M39.2,81.8 L39.4,81.8 L39,82 L39.2,81.8 Z M55.2,22.4 L55,22.6 L55,22.4 L55.2,22.4 Z M48.4,39.4 L48.6,39.2 L48.4,39.6 L48.4,39.4 Z M27.4,89.6 L27.2,89.2 C27.333334,89.466668 27.466666,89.666666 27.6,89.8 L27.4,89.6 Z M94,2 L104.6,8.8 C104.333332,9.866672 104.066668,10.866662 103.8,11.8 C103.533332,12.733338 103.266668,13.733328 103,14.8 C101.933328,19.333356 100.533342,23.866644 98.8,28.4 C97.066658,32.933356 95.000012,36.933316 92.6,40.4 C90.999992,42.666678 89.266676,44.866656 87.4,47 C85.533324,49.133344 83.466678,51.133324 81.2,53 L81,53.2 C80.733332,53.466668 80.466668,53.699999 80.2,53.9 C79.933332,54.100001 79.666668,54.333332 79.4,54.6 L79.2,54.6 L78.8,55 L77,56.2 L76.6,56.6 L76.4,56.6 L75.8,57.2 L75.2,57.4 C75.066666,57.533334 74.933334,57.6 74.8,57.6 C74.533332,57.866668 74.266668,58.066666 74,58.2 C73.866666,58.2 73.666668,58.333332 73.4,58.6 C72.999998,58.733334 72.400004,59.066664 71.6,59.6 L71.4,59.6 L71,59.8 L70.8,60 L70.8,60.2 L70.6,60.4 L70.6,60.6 L70.4,60.6 L70.2,60.8 L66,67.4 C68.266678,67.4 70.73332,67.433333 73.4,67.5 C76.06668,67.566667 78.533322,67.733332 80.8,68 L84,72.2 L82.4,72.8 C82.133332,72.666666 81.733336,72.6 81.2,72.6 L80,72.6 C78.133324,72.466666 76.333342,72.433333 74.6,72.5 C72.866658,72.566667 71.066676,72.733332 69.2,73 C69.333334,73.266668 69.4,73.599998 69.4,74 L69.4,74.6 C69.800002,77.800016 70.099999,80.599988 70.3,83 C70.500001,85.400012 70.466668,87.733322 70.2,90 C69.933332,92.266678 69.433337,94.599988 68.7,97 C67.966663,99.400012 67.000006,102.133318 65.8,105.2 C64.599994,107.86668 63.100009,110.399988 61.3,112.8 C59.499991,115.200012 57.533344,117.533322 55.4,119.8 C55.266666,119.8 55.066668,119.933332 54.8,120.2 C54.666666,120.466668 54.533334,120.633333 54.4,120.7 C54.266666,120.766667 54.066668,120.933332 53.8,121.2 L53.4,121.6 C53.266666,121.733334 53.133334,121.8 53,121.8 L53,122 L52.6,122.2 L51.2,123.6 L50.8,123.6 L50.2,124.2 L50,124.2 L49.8,124.6 L49.4,125 L49,125.2 L48.4,125.8 C48.133332,126.066668 47.866668,126.266666 47.6,126.4 L46.6,127.4 L45.4,128.4 L45.2,128.4 C44.933332,128.666668 44.666668,128.866666 44.4,129 L44.2,129.2 C44.066666,129.333334 43.933334,129.4 43.8,129.4 L43.2,130 C42.799998,130.400002 42.400002,130.733332 42,131 L38.8,133.8 L38.8,133.6 L38.6,133 C38.199998,132.599998 37.866668,132.333334 37.6,132.2 C36.666662,131.666664 35.900003,130.900005 35.3,129.9 C34.699997,128.899995 34.200002,127.866672 33.8,126.8 L33.8,126.6 C33.266664,125.399994 32.900001,124.300005 32.7,123.3 C32.499999,122.299995 32.4,121.666668 32.4,121.4 C32.266666,120.73333 32.399998,119.266678 32.8,117 C33.066668,116.466664 33.233333,115.966669 33.3,115.5 C33.366667,115.033331 33.533332,114.533336 33.8,114 L33.8,113.8 C34.733338,110.866652 35.599996,108.133346 36.4,105.6 C37.200004,103.066654 38.033329,100.666678 38.9,98.4 C39.766671,96.133322 40.666662,93.933344 41.6,91.8 C42.533338,89.666656 43.533328,87.466678 44.6,85.2 L44.8,85 L44.8,84.8 C45.46667,83.333326 46.199996,81.800008 47,80.2 L49.6,75 L51.4,71 C51.666668,70.733332 51.833333,70.433335 51.9,70.1 C51.966667,69.766665 52.133332,69.466668 52.4,69.2 C53.06667,67.733326 53.73333,66.33334 54.4,65 C55.06667,63.66666 55.73333,62.266674 56.4,60.8 L56.6,60.6 C57.93334,57.399984 59.399992,54.266682 61,51.2 L61,51 L61.2,50.8 L61.2,50.6 C62.266672,48.333322 63.366661,46.100011 64.5,43.9 C65.633339,41.699989 66.86666,39.466678 68.2,37.2 L68.2,37 C68.333334,37 68.4,36.866668 68.4,36.6 L68.6,36.4 C68.733334,36.266666 68.8,36.133334 68.8,36 L70.4,33.6 L70.6,33.2 L70.6,33 C70.733334,32.733332 70.866666,32.566667 71,32.5 C71.133334,32.433333 71.266666,32.266668 71.4,32 L71.4,31.6 C71.666668,31.6 71.8,31.466668 71.8,31.2 L72,31 L72.2,30.6 L72.2,30.4 L72.6,30 L72.6,29.8 L72.8,29.6 C72.8,29.466666 72.866666,29.333334 73,29.2 L73,29 L73.2,29 L73.2,28.8 L73.4,28.6 C73.4,28.466666 73.466666,28.333334 73.6,28.2 C75.200008,25.133318 76.766659,22.233347 78.3,19.5 C79.833341,16.766653 81.333326,14.466676 82.8,12.6 L83.2,12 L81,12 C81.533336,11.33333 82.066664,10.633337 82.6,9.9 C83.133336,9.166663 83.73333,8.46667 84.4,7.8 L84.6,7.8 L84.6,7.6 L85,7.2 C85.800004,6.399996 86.599996,5.566671 87.4,4.7 C88.200004,3.833329 89.066662,3.06667 90,2.4 L90.2,2.4 L90.2,2.2 L90.4,2.2 L90.4,2 L92.2,0.8 L92.4,0.6 C92.666668,1.000002 93.199996,1.466664 94,2 Z M49.2,113 L49.6,112.6 L49.6,112.8 L49.8,112.6 L50.2,112.4 L50,112.4 L50.4,112 L50.8,111.8 L51,111.6 C51.266668,111.333332 51.466666,111.2 51.6,111.2 C52.666672,110.266662 53.599996,109.233339 54.4,108.1 C55.200004,106.966661 56.066662,105.266678 57,103 C58.733342,98.33331 59.999996,93.800022 60.8,89.4 C61.600004,84.999978 62.133332,80.266692 62.4,75.2 C61.999998,75.86667 61.633335,76.499997 61.3,77.1 C60.966665,77.700003 60.666668,78.33333 60.4,79 L60.4,78.6 L60.2,79 L60.4,79 L60.2,79.2 L60.2,79.4 L60,79.6 L60,79.8 C60,79.933334 59.866668,80.133332 59.6,80.4 L59.6,80.8 L59.4,81 L59.4,81.6 L59.6,81.4 L59.6,81.8 L59.4,82.2 C59.533334,81.933332 59.533334,81.8 59.4,81.8 L59.4,82 L59.2,82.4 L59.2,82.2 C59.2,82.333334 59.133334,82.466666 59,82.6 L59,82.2 L59.2,82 L59.2,81.4 L54,91.8 L53.8,92 L53.8,92.2 L53.6,92.2 C51.999992,95.53335 50.53334,98.86665 49.2,102.2 C47.86666,105.53335 46.600006,109.53331 45.4,114.2 L45.2,114.2 L45.2,114.8 L45,115 L45,115.6 L45.2,115.4 L45,115.8 L45.2,115.6 L45.6,115.4 L45.4,115.6 L45.8,115.4 L46,115.2 L46.4,115 L46.2,115.2 L46.8,114.8 L46.4,115 L47,114.6 L47.2,114.2 L46.6,114.6 L46.4,114.6 L46.6,114.4 C46.733334,114.266666 46.933332,114.133334 47.2,114 L47.2,114.2 L47.4,114 L47.2,114 L47.4,113.8 L47.8,113.6 L47.8,113.8 C48.200002,113.399998 48.533332,113.133334 48.8,113 L49,112.8 L48.6,113 L49,112.6 L49,112.8 L49.2,112.6 L49,112.6 L49.2,112.4 L49.2,112.6 L49.4,112.4 L49.4,112.2 L49.2,112.4 L49.2,112.2 L49.8,111.6 L49.6,112 L50.4,111.2 L50.2,111.2 L50.4,111 L50.4,111.2 L50.6,111 L50.4,111 L51.8,109.6 L51.8,109.8 L50.8,110.8 L50.6,111.2 L50,111.8 L50.4,111.6 L50.2,111.8 C50.066666,111.933334 49.866668,112.066666 49.6,112.2 L49.4,112.6 L49.2,112.6 C49.2,112.866668 49.133334,113 49,113 L49,113.2 L49.2,113 L49.2,113.2 L49.4,113 L49.2,113 Z M86.8,33.8 L87.2,33.8 L87.2,34 L87.4,33.6 L87.4,33.8 L87,34.6 L87,34.8 C86.866666,34.933334 86.8,35.066666 86.8,35.2 C86.666666,35.466668 86.6,35.666666 86.6,35.8 L86.4,35.8 L86.2,36.2 L86.2,36.6 C86.066666,36.733334 86,36.866666 86,37 L85.8,37.2 C85.8,37.466668 85.733334,37.6 85.6,37.6 L85.8,37.6 L85.6,37.8 L85.4,38.2 L85.4,38.4 C85.266666,38.533334 85.2,38.666666 85.2,38.8 L84.8,39.2 L85,39.2 L84.8,39.4 L84.8,39.8 L84.4,40.2 L83.8,41.4 L83.8,41.2 C83.8,41.333334 83.733334,41.466666 83.6,41.6 L83.6,41.8 L83.2,42.2 L83.2,42.4 C83.066666,42.666668 82.933334,42.866666 82.8,43 L82.8,42.8 L82.6,43 C82.733334,43 82.733334,43.133332 82.6,43.4 L82.4,43.6 C82.266666,43.866668 82.133334,44.099999 82,44.3 C81.866666,44.500001 81.733334,44.733332 81.6,45 L81.2,45.4 L81.2,45.6 L80.6,46.2 C80.466666,46.466668 80.266668,46.733332 80,47 L80,47.2 C82.933348,43.86665 85.333324,40.266686 87.2,36.4 C89.20001,32.266646 90.86666,27.86669 92.2,23.2 L89,28 L88.6,28.4 L88.6,28.6 L88.2,29 L88.2,29.2 L87.8,29.6 L87.8,29.8 L87.6,30 L87.6,30.2 C85.333322,33.666684 83.20001,37.06665 81.2,40.4 C79.19999,43.73335 77.133344,47.199982 75,50.8 L75.2,50.8 L75.4,50.6 C75.533334,50.6 75.6,50.466668 75.6,50.2 L75.8,50.2 L76.6,49.4 L76.8,49 L77.4,48.4 C77.666668,48.4 77.8,48.266668 77.8,48 C77.8,47.866666 77.866666,47.733334 78,47.6 L78,47.8 L78.2,47.6 L78,47.6 L78.6,47 C78.733334,46.733332 78.866666,46.533334 79,46.4 L79.2,46.2 L79.2,46 L80,45.2 L80,45 L80.2,44.6 L80.6,44.2 L80.8,43.8 L81,43.6 L81.2,43.2 L81.2,43.4 L81.8,42.2 L82.2,41.8 L82.2,41.6 L82.4,41.4 L82.4,41.2 L82.8,40.6 L82.6,41 L82.8,40.8 L83,40.4 L83.2,40.2 L83.4,39.8 L83.6,39.6 L83.6,39.4 L83.8,39 L83.8,38.8 L84.2,38.4 L84,38.8 L84.2,38.6 C84.2,38.466666 84.266666,38.333334 84.4,38.2 L84.4,38 C84.533334,37.866666 84.6,37.733334 84.6,37.6 L84.6,37.4 L84.8,37.4 L85,37.2 L85,36.8 L85.2,36.6 L85.2,36.2 L85.4,36 L85.4,35.8 L85.6,35.6 L85.6,35.8 L85.8,35.6 L85.8,35.4 L85.6,35.6 L85.8,35.2 L85.8,35.4 C85.933334,35.266666 86,35.133334 86,35 L86.2,34.8 L86.2,34.6 L86.4,34.4 L86.6,34 L86.6,33.8 L87,33.4 L87,32.8 L87.4,32.4 L87.6,32.4 L87.4,32.8 L87.4,32.6 L87.2,32.8 L87.4,32.8 L87.2,33 L87.2,33.4 L87.4,33.2 L87.2,33.6 L87.2,33.4 C87.2,33.533334 87.133334,33.666666 87,33.8 L87,33.6 L86.8,33.8 Z M38.2222218,97.4666673 C38.2518512,97.3777783 38.3111104,97.2888896 38.4,97.2 L38.2222218,97.4666673 L38.2222218,97.4666673 Z M38.2222218,97.4666673 L38,97.8 L38,98 L37,100.6 L36.6,101.8 C36.6,101.666666 36.666666,101.466668 36.8,101.2 L36.4,101.8 L36.2,102.4 L36.2,102.6 L36.6,101.8 L36.6,102 C36.6,102.133334 36.533334,102.266666 36.4,102.4 L36.2,102.6 C36.2,102.866668 36.133334,103.066666 36,103.2 L36,103 C35.866666,103.133334 35.8,103.266666 35.8,103.4 L36,103.2 L36,103.4 L35.8,103.8 L35.6,103.8 L35.6,104.2 L35.8,104 L35.8,104.2 L35.4,104.6 L35.4,105 L35.2,105.2 L35.2,105.6 L35,106 L35.2,105.8 C35.066666,105.933334 35,106.066666 35,106.2 L35,106.4 C35,106.533334 34.933334,106.733332 34.8,107 L35,106.4 C34.866666,106.533334 34.8,106.666666 34.8,106.8 L34.6,107 L34.4,107.4 C34.4,107.666668 34.466666,107.600002 34.6,107.2 L34.6,107.4 L34.8,107.2 L34.6,107.6 L34.4,108.4 L34.2,108.4 C33.933332,109.06667 33.766667,109.633331 33.7,110.1 C33.633333,110.566669 33.533334,110.999998 33.4,111.4 C33.4,111.533334 33.333334,111.666666 33.2,111.8 L33.2,112 C33.2,112.133334 33.133334,112.333332 33,112.6 C32.733332,113.133336 32.6,113.666664 32.6,114.2 C32.466666,114.333334 32.4,114.466666 32.4,114.6 L32.2,114.8 L32.2,115 L32,115 L31.8,115.2 C31.666666,115.333334 31.533334,115.533332 31.4,115.8 L31.4,115.2 L31.6,114.6 C31.733334,114.199998 31.866666,113.866668 32,113.6 L32,113.4 C32.133334,112.999998 32.266666,112.666668 32.4,112.4 C32.533334,111.999998 32.633333,111.666668 32.7,111.4 C32.766667,111.133332 32.933332,110.66667 33.2,110 L33.2,109.8 L32.8,110.6 L32.8,110.4 C33.066668,109.599996 33.266666,109.066668 33.4,108.8 L33.8,107.6 L33.8,107.8 L34,107.4 L34,107.2 L34.2,106.8 L34.2,106.6 L34,107 L34,106.6 L34.2,106.4 L34.2,106.2 L34.4,105.6 C34.4,105.466666 34.466666,105.333334 34.6,105.2 L34.4,105.8 L34.6,105.6 C34.733334,105.333332 34.8,105.133334 34.8,105 L34.8,104.2 L35.2,103.4 L35.2,103.2 L35.4,102.8 L35.6,102.6 L35.6,102.2 C35.6,102.066666 35.666666,101.933334 35.8,101.8 L35.8,101.6 L36,101.4 C36.133334,101.266666 36.2,101.066668 36.2,100.8 C36.333334,100.666666 36.4,100.533334 36.4,100.4 L36.6,100 L36.4,100.2 C36.533334,100.066666 36.6,99.866668 36.6,99.6 L36.6,99.4 L36.8,99.2 L36.8,99.6 L37,99 L37,98.4 L37.2,98.2 L37.2,98.4 L37.4,98 C37.533334,97.866666 37.666666,97.46667 37.8,96.8 C37.8,96.666666 37.866666,96.533334 38,96.4 C38.133334,96.133332 38.2,95.933334 38.2,95.8 L38.2,96 L38.4,95.8 L38.2,95.6 C38.2,95.466666 38.266666,95.333334 38.4,95.2 L38.4,95.4 L38.6,95.2 L38.4,95.2 L38.6,94.8 L38.6,95 L38.8,94.6 C38.933334,94.333332 39,94.133334 39,94 C39.133334,93.599998 39.266666,93.266668 39.4,93 L39.4,93.2 L39.6,92.8 L39.8,92.2 L40,91.8 C40,91.666666 40.133332,91.333336 40.4,90.8 L40.6,90.6 L40.2,90.8 L40.8,89.8 C40.933334,89.666666 41.066666,89.466668 41.2,89.2 L41.2,89 L41.8,88.4 L41.6,88.4 L41.8,88.2 L41.8,88 L42,87.8 C42.133334,87.399998 42.2,87.266666 42.2,87.4 L42.2,87 C42.066666,87.133334 42,87.266666 42,87.4 L42,87.2 L41.8,87.8 L41.8,87.6 L41.4,88.2 L41.4,88 L41.6,87.8 L41.6,87.6 L42.2,86.4 L42.2,86.2 L42.6,85.8 L42.6,86 L42.8,85.8 L43,85.4 L43,85.2 C43,84.933332 43.066666,84.600002 43.2,84.2 L43.2,84.4 L43.4,84 L43.6,84.2 L44,84.4 L44,84.6 C43.866666,84.733334 43.766667,84.933332 43.7,85.2 C43.633333,85.466668 43.533334,85.733332 43.4,86 L43,87 L43,86.6 L42.4,87.8 L42.6,87.8 L42.4,88 L42.4,87.8 L42.2,88.2 C42.066666,88.466668 42,88.733332 42,89 L41.8,89.6 L41.6,90 L41.6,89.8 C41.466666,89.933334 41.4,90.066666 41.4,90.2 L41.2,90.4 C41.066666,90.533334 41,90.733332 41,91 L40.6,91.6 L40.8,91.4 C40.666666,91.800002 40.533334,92 40.4,92 C40.266666,92.266668 40.133334,92.666664 40,93.2 C39.866666,93.733336 39.666668,94.199998 39.4,94.6 L39.4,94.8 L39.6,94.6 L39.2,95.4 L39.2,95.2 C39.2,95.066666 39.266666,94.933334 39.4,94.8 L39.2,95 L38.8,95.8 L38.8,96 L39,95.8 L39,96 L38.8,96.2 C38.666666,96.466668 38.6,96.699999 38.6,96.9 C38.6,97.100001 38.466668,97.399998 38.2,97.8 L38.2,97.6 C38.2,97.5555556 38.2074073,97.5111114 38.2222218,97.4666673 L38.2222218,97.4666673 Z M39.8,133.4 C39.666666,133.4 39.466668,133.533332 39.2,133.8 C38.933332,133.933334 38.733334,134.066666 38.6,134.2 C38.466666,134.333334 38.266668,134.466666 38,134.6 L37.8,134.8 L37.4,135 L37.4,135.2 L37,135.6 L37,135 L36.8,134.4 L37,134.2 C36.733332,134.466668 37.133328,134.200004 38.2,133.4 L38.6,133.2 L38.6,133 L38.8,133.6 L38.8,133.8 L42,131 C42.400002,130.733332 42.799998,130.400002 43.2,130 L43.8,129.4 C43.933334,129.4 44.066666,129.333334 44.2,129.2 L44.4,129 C44.666668,128.866666 44.933332,128.666668 45.2,128.4 L45.4,128.4 L46.6,127.4 L47.6,126.4 C47.866668,126.266666 48.133332,126.066668 48.4,125.8 L49,125.2 L49.4,125 L49.8,124.6 L50,124.2 L50.2,124.2 L50.8,123.6 L51.2,123.6 L52.6,122.2 L53,122 L52.6,122.4 L53,122.2 C52.866666,122.333334 52.666668,122.499999 52.4,122.7 C52.133332,122.900001 51.866668,123.133332 51.6,123.4 L51.4,123.6 L51,123.8 L48.6,126.2 L48.6,126 L48,126.6 C47.866666,126.6 47.733334,126.666666 47.6,126.8 L47.2,127.2 L47.2,127.4 C46.799998,127.666668 46.533334,127.866666 46.4,128 L45.8,128.6 C45.533332,128.866668 45.333334,129 45.2,129 L44.8,129.4 L44.6,129.4 L43.8,130 L42.8,131 L42.2,131.4 L42,131.6 C41.33333,132.133336 40.733336,132.599998 40.2,133 L40,133 L39.8,133.4 Z M51.8719991,66.3920014 L51.6,66.8 C52.000002,65.866662 52.399998,65.06667 52.8,64.4 L52.8,64.6 L53,64.4 L53,64.6 L53.2,64 L53.2,63.8 L53.4,63.6 L53.4,63.8 L53.6,63.8 L53.6,63.6 C53.866668,62.93333 54.066666,62.400002 54.2,62 L54.6,61.6 C54.866668,61.333332 55.133332,61.2 55.4,61.2 C55.133332,61.600002 54.733336,62.333328 54.2,63.4 C54.2,63.933336 54.066668,64.2 53.8,64.2 C53.8,64.333334 53.733334,64.533332 53.6,64.8 C53.333332,65.200002 53.133334,65.666664 53,66.2 L52.8,66.6 L52.4,67 L52.2,67.6 L52.4,67.4 C52.266666,67.800002 52.133334,68.066666 52,68.2 C52,68.466668 51.933334,68.666666 51.8,68.8 L51.4,69.2 L50.6,69.2 L50.8,68.6 L51.2,68.6 C51.333334,68.466666 51.4,68.266668 51.4,68 L51,68.4 L51.2,68 L51.2,67.8 C51.333334,67.533332 51.466666,67.333334 51.6,67.2 L51.6,67 L51.8,66.8 C51.8,66.6399999 51.8239995,66.5040008 51.8719991,66.3920014 Z M34.1000005,132.000001 C34.166667,132.066667 34.2666667,132.133333 34.4,132.2 L34.4,132.6 L34.6,132.8 L34.4,132.8 L35,133.2 L34.8,132.8 C34.933334,132.933334 35.199998,133.133332 35.6,133.4 C35.733334,133.533334 35.866666,133.6 36,133.6 L36.2,133.8 C36.2,133.933334 36.266666,134.066666 36.4,134.2 L36.6,134.4 L36.4,134 L36.8,134.4 L36.6,134.4 C36.6,134.666668 36.466668,134.8 36.2,134.8 L36,135 L35.8,134.6 L35.4,134.6 L35,134.4 L35,134.2 C34.866666,134.2 34.733334,134.133334 34.6,134 L34.4,133.8 L34,133.6 C34.133334,133.6 34.333332,133.666666 34.6,133.8 L34.8,134 L34.8,133.8 L34.6,133.6 C34.466666,133.466666 34.266668,133.4 34,133.4 C33.866666,133.266666 33.733334,133.066668 33.6,132.8 L33.4,132.6 L33.4,132.4 L33.2,132 L33,131.8 L33,132 L33.2,132.2 L33,132.2 L33,132 L32.8,131.8 L32.6,131.8 L32.4,131.4 L32.2,131.2 L32.2,130.8 L32,130.2 L32.2,130.6 L32.2,130.8 L32.6,131.6 C32.466666,131.333332 32.333334,131.000002 32.2,130.6 C32.2,130.466666 32.133334,130.333334 32,130.2 C32,130.066666 31.933334,129.933334 31.8,129.8 L31.6,129.4 L31.6,129.2 C31.6,129.066666 31.533334,128.933334 31.4,128.8 L31.8,128.4 C32.066668,128.800002 32.333332,129.399996 32.6,130.2 L32.6,130 L32.8,130.4 C32.933334,130.533334 33,130.666666 33,130.8 C33,130.933334 33.066666,131.066666 33.2,131.2 C33.333334,131.466668 33.466666,131.666666 33.6,131.8 L34.2,132.4 L34.2,132.2 L34.1000005,132.000001 L34.1000005,132.000001 Z M34.1000005,132.000001 L34,131.8 C34,131.866667 34.0333333,131.933334 34.1000005,132.000001 L34.1000005,132.000001 Z M59.2,88.6 L59,88.8 L59,88.4 L59.2,88 L59.2,87.4 L59.4,86.8 L59.2,87 L59.2,86.4 C59.333334,86.266666 59.4,86.066668 59.4,85.8 L59.4,85.4 C59.4,85.266666 59.466666,85.133334 59.6,85 L59.6,84.8 L59.8,84.6 L59.8,84.2 L59.6,84.4 L59.8,84 L59.8,83.8 L59.6,84.2 L59.6,83.8 C59.6,83.666666 59.666666,83.533334 59.8,83.4 L59.6,83.4 L59.8,83.2 L59.8,82.6 L60,82.4 L60,81.4 L60.2,81.2 C60.333334,81.2 60.333334,81.333332 60.2,81.6 L60.4,81.2 L60.4,81.8 C60.4,81.933334 60.333334,82.066666 60.2,82.2 L60.2,83 L60,83.4 L60,84.6 C59.866666,84.866668 59.8,85.066666 59.8,85.2 L59.8,85.4 L59.6,85.6 L59.6,85.8 L59.8,85.6 L59.8,86 C59.666666,86.266668 59.6,86.466666 59.6,86.6 L59.6,87.4 L59.4,87.6 L59.4,88.4 L59.2,88.4 L59.2,89.2 L59,89.6 L59,89.8 L59.2,89.4 L59.2,89.6 L59,89.8 L59,90 L58.8,90 L58.8,89.8 C58.8,89.533332 58.866666,89.266668 59,89 L59,89.2 L59.2,88.6 Z M61.4,48.4 L61.2,48.4 L61.2,48.2 C61.333334,48.066666 61.466666,47.866668 61.6,47.6 L61.8,47 L62,46.8 L62.2,46.8 L62.2,46.6 L62.4,46.6 L62.2,47.2 C61.799998,47.86667 61.466668,48.466664 61.2,49 C61.066666,49.266668 61,49.466666 61,49.6 L60.8,50 L60.4,50.4 L59.6,52 L59.6,52.2 L58.8,53 L59,53 L58.6,53.2 L58.8,53 L58.6,53 L58.8,52.8 L58.8,52.6 L59,52.4 L59,52.2 C59.133334,52.2 59.2,52.066668 59.2,51.8 L59.4,51.6 L59.4,51.4 L59.6,51.2 L59.8,51.2 L59.8,51 L60,50.8 L59.8,50.8 L60,50.6 L60.2,50.6 L60.4,50 L60.6,49.8 L60.6,49.6 L60.4,50 L60.4,49.8 C60.266666,49.8 60.399998,49.600002 60.8,49.2 L60.8,49 L61.2,48.6 L61,48.6 L61.2,48.4 L61.2,48.6 L61.4,48.4 Z M57.6,94.8 L57.6,94.6 L57.8,94.2 L57.6,94.2 L57.8,93.8 L57.6,94 L57.6,93.4 L57.8,93.2 L58,92.8 L58,92.6 L58.2,92.2 L58.4,92 C58.4,92.266668 58.333334,92.466666 58.2,92.6 L58.4,92.6 L58.2,92.8 L58.2,93.2 L58.4,93 L58.4,93.4 L58.2,93.6 L58.2,93.2 L58,93.6 L58,93.8 L57.8,94 L57.8,94.4 L57.6,94.8 Z M60.2,80.4 L60.2,79.4 L60.4,79 L60.4,79.2 L60.6,79 C60.6,79.400002 60.533334,79.733332 60.4,80 L60.4,80.8 L60.2,81 L60.2,80.8 L60,81 L60,80.4 L60.2,80.4 Z M58.2,90.2 L58.2,91 C58.066666,91.133334 58,91.266666 58,91.4 L58.2,91.2 L58,92 L58,91.6 L57.8,92 L57.8,91.6 L58,91 L58,90.2 L58.2,89.8 L58.4,89.6 L58.4,89.8 L58.2,90.2 Z M50.6,111.2 C50.733334,111.066666 50.8,110.933334 50.8,110.8 C50.933334,110.8 51.066666,110.733334 51.2,110.6 C51.2,110.733334 51.133334,110.866666 51,111 L50.8,111.2 L50.8,111.4 L51,111.2 L50.8,111.6 L51.2,111.2 L51,111.6 L50.8,111.8 L50.6,111.8 L50.4,112 L50.2,112 L50.2,111.8 L50.4,111.8 L50.6,111.6 L50.6,111.8 L50.8,111.6 L50.6,111.6 L50.6,111.2 Z M57.8,95.2 L57.8,94.8 L58,94.8 L58.2,94.6 L58.2,95.2 L58,95.2 L58,95.6 L57.8,95.6 C57.666666,95.733334 57.6,95.866666 57.6,96 L57.8,96 L57.6,96.2 L57.6,96 L57.4,96 L57.4,95.8 L57.6,95.6 C57.733334,95.466666 57.8,95.333334 57.8,95.2 L57.8,95.6 L58,95.4 L57.8,95.2 Z M56.6,100.4 L56.8,99.8 L56.8,100.2 L56.4,101 L56.4,101.2 L56.2,101.4 L56.2,101 C56.333334,100.866666 56.4,100.733334 56.4,100.6 L56.4,100.2 L56.6,100.2 L56.6,100.4 Z M52.6,108.4 L52.2,109.2 L52.4,109 L52.2,109.6 L52.2,109.4 L52,109.6 L52,109.4 L52.2,109 L52.2,108.6 L52.4,108.4 L52.6,108 L52.6,108.4 Z M56.2,98.6 C56.333334,98.466666 56.4,98.333334 56.4,98.2 L56.4,98.4 L56.8,98 L57,97.4 L57.2,97.2 C57.066666,97.466668 57,97.633333 57,97.7 C57,97.766667 56.933334,97.933332 56.8,98.2 C56.8,98.333334 56.766667,98.499999 56.7,98.7 C56.633333,98.900001 56.6,98.866668 56.6,98.6 L56.6,98.4 L56.4,98.4 L56.4,98.6 L56,99 L56.2,98.6 Z M58.4,78.6 L58.4,78.8 L59,78.2 L59,78.4 L59.2,78.2 L59.2,77.6 L58.8,78.2 L58.4,78.6 Z M41.4,88.8 L41.2,89 L41,89 L41,88.8 L41.4,88.4 L41.4,88.2 L41.6,88.2 L41.6,88.4 L41.4,88.8 Z M58,94 L58,93.6 L58.2,93.4 L58.2,94.2 L58,94.2 L58,94.6 L57.8,94.8 L57.8,94.6 L58,94 Z M48.6,113 L48.4,113.2 C48.266666,113.2 48.133334,113.266666 48,113.4 L47.8,113.6 L47.8,113.4 L47.6,113.6 L47.4,113.6 L47.8,113.2 L47.8,113.4 L48.2,113 L48.6,113 Z M74,74 L72.8,74 C72.933334,73.866666 73.133332,73.8 73.4,73.8 L73.8,73.8 L74,74 Z M47.4,114.4 L47.8,114 L48.2,113.8 L48.6,113.4 L48.2,113.6 L48,113.8 L47.6,114 L47.2,114.4 L47.4,114.4 Z M58.8,84.2 L59,84 L59,84.4 L59.2,84.4 L59,84.6 L59,84.8 L58.8,85 L58.8,84.2 Z M36,135 L36.2,135.2 L36.2,135.4 L36.4,135.6 L36.6,135.4 L36.8,135.4 C36.666666,135.533334 36.6,135.666666 36.6,135.8 L36.2,135.6 L36.2,135.4 L36,135.4 L36,135 Z M43.8,115.2 L43.6,115.6 C43.466666,115.733334 43.4,115.866666 43.4,116 L43.4,116.6 L43.6,116.4 L43.6,115.8 L43.8,115.2 Z M52.6,108.6 L52.8,108.2 L52.6,108.4 L52.8,107.8 L53,107.4 L53,107.6 C52.866666,107.733334 52.8,107.866666 52.8,108 L53,107.8 L53,108 L52.8,108.2 L53,108.2 L52.6,108.6 Z M33.4,111 L33.4,110.8 L33.6,110.4 L33.6,110.8 L33.2,111.8 C33.2,111.533332 33.266666,111.266668 33.4,111 Z M43,130.8 L43.8,130 L44.2,129.8 L43.6,130.4 C43.466666,130.533334 43.266668,130.666666 43,130.8 Z M46.8,115 L46.2,115.6 L46,115.6 L46,115.8 C46.266668,115.666666 46.466666,115.533334 46.6,115.4 L47,115 L46.8,115 Z M40.4,90.8 L40.2,91.2 L39.8,92.2 C39.8,91.933332 39.899999,91.600002 40.1,91.2 C40.300001,90.799998 40.4,90.666666 40.4,90.8 Z M32.4,112.2 C32.133332,112.86667 32,113.266666 32,113.4 L32,113.6 L31.8,113.8 C32.066668,112.866662 32.266666,112.200002 32.4,111.8 L32.4,112.2 Z M52.4,91.2 L52.8,90.8 L52.8,90.2 L52.6,90.4 L52.6,90.8 L52.4,91.2 Z M58.6,86.6 L58.6,86 C58.6,85.866666 58.666666,85.733334 58.8,85.6 L58.8,86.2 L58.6,86.6 Z M53.2,65.8 L53.6,64.8 C53.6,65.066668 53.500001,65.366665 53.3,65.7 C53.099999,66.033335 52.933334,66.399998 52.8,66.8 L52.8,66.6 L53.2,65.8 Z M52.2,66 L52.2,66.2 C52.2,66.333334 52.133334,66.466666 52,66.6 C52.266668,66.466666 52.4,66.266668 52.4,66 L52.4,65.6 L52.2,66 Z M37.2,135.4 L37.8,134.8 L38,134.8 L37.6,135.2 C37.066664,135.600002 36.933332,135.666668 37.2,135.4 Z M51.6,110.2 C51.6,110.066666 51.666666,109.933334 51.8,109.8 L51.8,109.6 L52,109.4 L52,109.6 L52.2,109.4 L52.2,109.6 L52,109.6 L52,109.8 L51.6,110.2 Z M38.4,134 C38.133332,134.133334 37.866668,134.333332 37.6,134.6 L37.8,134.6 L38,134.4 L38.2,134.4 L38.2,134.2 L38.4,134 Z M41,91.2 L41.6,90 C41.466666,90.533336 41.266668,90.933332 41,91.2 Z M58.2,89.2 L58.4,88.6 L58.4,88.4 L58.6,88.4 L58.4,88.8 L58.4,89.2 L58.2,89.4 L58.2,89.2 Z M56.6,99.6 C56.6,99.466666 56.666666,99.333334 56.8,99.2 L57,99.2 L57,99.4 L56.8,99.4 L56.6,100 L56.6,99.6 Z M40.4,92.6 L40.2,92.8 L40.8,91.6 C40.666666,92.000002 40.533334,92.333332 40.4,92.6 Z M50.2,97.6 L49.8,98.4 L49.8,98.6 C50.066668,98.199998 50.2,97.866668 50.2,97.6 Z M71,74 C71.266668,73.866666 71.533332,73.8 71.8,73.8 L72,73.8 C71.733332,73.933334 71.466668,74 71.2,74 L71,74 Z M57.2,98 L57.4,97.8 C57.4,98.066668 57.333334,98.333332 57.2,98.6 L57.2,98.4 L57,98.6 L57.2,98.2 L57.2,98 Z M78.2,74.2 C77.933332,74.066666 77.666668,74 77.4,74 L77.2,74 C77.600002,74.133334 77.933332,74.2 78.2,74.2 Z M37.5500003,97.2999995 C37.516667,97.4333325 37.466667,97.599999 37.4,97.8 L37.4,97.6 L37.5500003,97.2999995 L37.5500003,97.2999995 Z M37.5656856,97.2343144 L37.4,97.4 C37.4,97.133332 37.533332,96.866668 37.8,96.6 C37.666666,96.733334 37.6,96.866666 37.6,97 C37.6,97.0552288 37.5885619,97.1333334 37.5656856,97.2343144 L37.5656856,97.2343144 Z M37.5656856,97.2343144 L37.6,97.2 L37.5500003,97.2999995 C37.5557193,97.2771232 37.5609478,97.2552282 37.5656856,97.2343144 L37.5656856,97.2343144 Z M57,96.6 L56.8,96.8 L56.8,96.4 L57.2,96.2 L57,96.4 L57,96.6 L57.2,96.4 L57,96.8 L57,96.6 Z M53.2,89.4 L53,89.8 C52.866666,89.933334 52.8,90.066666 52.8,90.2 L53.2,89.8 L53.2,89.6 L53.4,89.4 L53.2,89.4 Z M58.6,92.4 L58.6,92.2 C58.6,91.933332 58.666666,91.666668 58.8,91.4 L58.8,91.8 L58.6,92.4 Z M58.6,91 L58.6,90.6 C58.733334,90.466666 58.8,90.333334 58.8,90.2 L58.8,90.8 L58.6,91 Z M57.4,97 L57.6,96.8 L57.8,97 L57.6,97.4 L57.6,97.2 L57.4,97.4 L57.6,97 L57.4,97 Z M57.6,94.8 L57.8,94.8 L57.8,95 L57.4,95 L57.2,95.2 C57.2,95.066666 57.266666,94.933334 57.4,94.8 L57.4,95 L57.6,94.8 Z M58.4,87.8 C58.4,87.533332 58.466666,87.266668 58.6,87 L58.6,87.2 L58.8,87 L58.4,87.8 Z M33,132.4 L33,132.2 L33.2,132.2 L33.4,132.4 L33.4,132.6 L33.2,132.4 L33,132.4 Z M57,95.8 L57,96 L56.8,96.4 L56.8,95.8 L57,95.8 Z M57.2,95.6 L56.8,95.6 L57.2,95.2 L57.2,95.6 Z M57.4,94.4 L57.4,94.2 L57.6,93.6 L57.6,94.2 L57.4,94.4 Z M50.8,68.6 L51.2,68.2 L51.2,68.6 L50.8,68.6 Z M53,107 L53.2,106.6 L53.4,106.4 C53.4,106.533334 53.333334,106.666666 53.2,106.8 L53,107.2 L53,107 Z M48.4,113.8 L48.8,113.8 L49,113.4 L48.4,113.8 Z M57.8,92.4 L57.6,92.6 C57.6,92.333332 57.666666,92.133334 57.8,92 L57.8,92.2 L58,92 L57.8,92.4 Z M53,108.4 L53,108.6 L53.2,108.4 C53.066666,108.533334 53,108.666666 53,108.8 L52.8,109 L52.8,108.8 L53,108.4 Z M56.6,97.8 L56.8,97.4 L56.8,97.2 L57,97.2 L56.6,98 L56.6,97.8 Z M59.2,82.4 L59.2,82.8 L59,83 L59,82.6 L59.2,82.4 Z M43,85.4 L43,85.2 L42.8,85.2 L42.8,85.8 L43,85.4 Z M69.4,74.2 C69.533334,74.066666 69.733332,74 70,74 L69.8,74.2 L69.4,74.2 Z M58.8,91.2 L58.8,90.8 L59,90.6 C59,90.866668 58.933334,91.066666 58.8,91.2 Z M58.6,87.4 L58.8,87.2 L58.8,87.4 L58.6,87.8 L58.4,87.8 C58.533334,87.8 58.6,87.666668 58.6,87.4 Z M41,91 L41.2,90.4 L41.4,90.4 L41.2,90.6 C41.066666,91.000002 40.933334,91.266666 40.8,91.4 C40.8,91.266666 40.866666,91.133334 41,91 Z M47.4,114.6 L47.6,114.4 L47.8,114.4 L48,114.2 C47.866666,114.333334 47.733334,114.4 47.6,114.4 L47.8,114.2 L47.4,114.4 L47.4,114.6 Z M57.6,94.8 L57.4,95 L57.4,94.8 L57.6,94.4 L57.6,94.8 Z M59,84 L59.2,83.8 L59.2,83.6 L59.4,83.4 L59.2,84 L59,84 Z M59.4,82.4 L59.4,82.6 L59.2,82.8 L59.2,82.4 L59.4,82.4 Z M53.2,89.4 L53.2,89.8 L53,90 L53,89.8 L53.2,89.4 Z M57.6,80.4 L57.6,80.8 L57.8,80.6 L57.8,80.4 L57.6,80.4 Z M33.6,110.4 L33.4,110.8 L33.4,111 L33.6,110.8 L33.6,110.4 Z M35.8,101.2 L36,100.8 L36.2,100.6 L36.2,100.8 L35.8,101.2 Z M50.8,93.4 L51,93.2 L51,93.4 L51.2,93 L51,93 L50.8,93.4 Z M51.4,110.8 L51.6,110.6 L51.6,111 L51.4,111 L51.4,110.8 Z M48.6,112.8 L48.4,112.8 L48.6,112.6 C48.733334,112.6 48.866666,112.533334 49,112.4 L48.6,112.8 Z M52,109 L51.8,109.2 L52,108.8 L52,109 L52.2,108.8 L52.2,109 L52,109.2 L52,109 Z M58.4,91.4 L58.6,91.2 L58.6,91.6 L58.4,91.6 L58.4,91.4 Z M39.4,92.6 L39.6,92.4 L39.6,92.6 L39.4,93 L39.4,92.6 Z M52.4,108.2 L52.6,107.8 L52.8,107.6 L52.4,108.4 L52.4,108.2 Z M87.8,32 L87.8,32.2 L87.6,32.6 L87.6,32.2 L87.8,32 Z M53.6,105.8 L53.6,106 L53.8,106 L53.4,106.4 L53.6,105.8 Z M55.8,101 L55.4,101.4 L55.6,101 L55.8,100.8 L55.8,101 Z M45.8,115.2 L46,114.8 L46.4,114.6 L45.8,115.2 Z M35.4,105.2 L35.4,104.8 L35.6,104.6 L35.6,104.8 L35.4,105.2 Z M47.4,102 L47.4,101.8 C47.266666,101.933334 47.2,102.066666 47.2,102.2 L47.2,102.4 C47.333334,102.266666 47.4,102.133334 47.4,102 Z M48.8,100.6 L49,100.2 L49,100 L48.8,100.4 C48.666666,100.533334 48.6,100.666666 48.6,100.8 L48.8,100.6 Z M53.8,88.6 L54,88.4 L54,88.2 L53.6,88.6 L53.8,88.6 Z M58.6,89 C58.6,89.133334 58.533334,89.333332 58.4,89.6 L58.4,89.2 L58.6,89 Z M52.2,110 L52,110.2 L51.8,110.2 L52.2,109.8 L52.2,110 Z M57.6,96.2 L57.8,96.2 L57.8,96.4 L57.6,96.6 L57.6,96.2 Z M57.6,93.4 L57.6,93.2 L57.8,92.6 L57.8,93 L57.6,93.4 Z M42.2,88.4 C42.2,88.533334 42.133334,88.733332 42,89 L42.2,88.2 L42.4,88 C42.266666,88.133334 42.2,88.266666 42.2,88.4 Z M77,74.2 L76.6,74 L76.4,74 C76.533334,74.133334 76.733332,74.2 77,74.2 Z M35,106.2 L35,106.4 C35.133334,105.999998 35.266666,105.666668 35.4,105.4 L35.2,105.6 L35.2,105.8 C35.066666,105.933334 35,106.066666 35,106.2 Z M50,111.8 C49.866666,111.8 49.666668,111.933332 49.4,112.2 C49.533334,112.2 49.666666,112.133334 49.8,112 L50,111.8 Z M48.6,98.8 L48.4,99.2 C48.666668,98.933332 48.8,98.733334 48.8,98.6 L48.6,98.8 Z M56.2,83.8 L56,83.8 L56,84.2 L56.2,83.8 Z M53.8,90.4 L53.8,90.6 C53.933334,90.466666 54,90.333334 54,90.2 L53.8,90.4 Z M45.8,106 L46,105.8 L46,105.6 L45.8,105.8 L45.8,106 Z M56,99.8 C56,99.666666 56.066666,99.466668 56.2,99.2 C56.2,99.466668 56.133334,99.666666 56,99.8 Z M85.4,36.2 L85.4,36.4 L85.6,36 L85.6,35.8 L85.4,36.2 Z M58,79.6 L58,79.8 C58.133334,79.533332 58.2,79.333334 58.2,79.2 L58,79.6 Z M57.4,96.8 L57.2,97.2 L57.2,96.8 L57.4,96.8 Z M58,93.4 L58,93 L57.8,93.6 L58,93.4 Z M62.6,46.2 L62.4,46.4 L62.6,46 L62.8,45.8 L62.6,46.2 Z M44.6,116 L44.6,116.2 L45,115.8 L44.6,116 Z M55.6,103.4 C55.466666,103.533334 55.4,103.666666 55.4,103.8 L55.2,104.2 L55.4,103.6 L55.6,103.4 Z M53.8,107 C53.8,107.133334 53.733334,107.266666 53.6,107.4 L53.6,107.2 L53.8,107 Z M87.6,32.6 L87.6,32.8 L87.4,33 L87.4,32.8 L87.6,32.6 Z M53.8,105.6 L53.8,105.8 L54.2,105.2 L54,105.6 L53.6,106 C53.6,105.866666 53.666666,105.733334 53.8,105.6 Z M53.2,107.6 L53.4,107.4 L53.4,107.6 L53.2,107.8 L53.2,107.6 Z M46.8,114 C46.933334,113.866666 47.066666,113.8 47.2,113.8 L47,114 L46.8,114 Z M51.6,109.4 L51.8,109.4 L51.4,109.8 L51.6,109.4 Z M46.8,103.2 L47.2,102.8 L47,102.8 L46.8,103.2 Z M57,81.8 L57,82 C57.133334,81.866666 57.2,81.733334 57.2,81.6 L57.2,81.4 L57,81.8 Z M44.8,129.4 L44.6,129.4 L44.4,129.6 L44.6,129.6 L44.8,129.4 Z M55.8,102.6 C55.8,102.733334 55.733334,102.866666 55.6,103 L55.6,102.8 L55.8,102.6 Z M59.8,82.2 C59.8,82.066666 59.866666,81.933334 60,81.8 L59.8,82.4 L59.8,82.2 Z M44.2,110.4 L44.4,110.4 L44.4,110 L44.2,110.4 Z M59.2,81.8 L59.2,81.4 L59,82 L59.2,81.8 Z M36.2,134.8 L36,134.4 L36,134.8 L36.2,134.8 Z M57.2,94.6 C57.2,94.466666 57.266666,94.333334 57.4,94.2 L57.4,94.4 L57.2,94.6 Z M41.8,118.4 C41.666666,118.666668 41.666666,118.8 41.8,118.8 L41.8,118.6 L42,118.6 L41.8,118.4 Z M35.8,101.4 C35.8,101.266666 35.866666,101.133334 36,101 C36,101.266668 35.933334,101.466666 35.8,101.6 L35.8,101.4 Z M58.2,94.4 L58,94.6 L58,94.2 L58.2,94.4 Z M59.4,83 L59.2,83 L59.4,82.6 L59.4,83 Z M51.8,67.2 C51.933334,67.066666 52,66.933334 52,66.8 L51.8,67 L51.8,67.2 Z M36.8,99.2 L36.8,99 L37,98.8 L37,99 L36.8,99.2 Z M58,92.4 L57.8,92.6 C57.933334,92.466666 58,92.333334 58,92.2 L58.2,92 L58,92.4 Z M54.4,104 C54.4,104.133334 54.333334,104.266666 54.2,104.4 L54.2,104.2 L54.4,104 Z M50.2,95 L50,95.2 L50,95.4 L50.2,95.2 L50.2,95 Z M52.4,109.4 L52.6,109 L52.8,108.8 L52.6,109.2 L52.4,109.4 Z M49.8,112.6 L49.6,112.6 L49.6,112.4 L49.8,112.4 L49.8,112.6 Z M51.8,109.6 L51.8,109.4 L52,109.2 L52,109.4 L51.8,109.6 Z M35.8,135 L35.8,134.8 L36,135 L36,135.2 L35.8,135 Z M48.2,102.2 C48.333334,102.066666 48.4,101.933334 48.4,101.8 L48.2,102 L48.2,102.2 Z M45.8,106.4 L45.6,106.4 L45.4,106.8 L45.8,106.4 Z M44.8,109.4 L44.6,109.6 L44.6,109.8 L44.8,109.6 L44.8,109.4 Z M46.4,106.8 C46.533334,106.666666 46.6,106.533334 46.6,106.4 L46.4,106.6 L46.4,106.8 Z M51.2,110.6 L51.6,110.2 C51.333332,110.2 51.2,110.333332 51.2,110.6 Z M37.4,97.4 L37.4,97.6 L37.2,98.2 C37.2,98.066666 37.266666,97.800002 37.4,97.4 Z M45,129 C44.733332,129.133334 44.533334,129.266666 44.4,129.4 C44.533334,129.4 44.666666,129.333334 44.8,129.2 L45,129 Z M57.6,80.4 L57.6,80.2 C57.6,80.333334 57.533334,80.466666 57.4,80.6 L57.4,80.8 C57.533334,80.666666 57.6,80.533334 57.6,80.4 Z M87.8,31.8 L87.8,32 L87.6,32.2 C87.6,32.066666 87.666666,31.933334 87.8,31.8 Z M48.6,126 L48.6,126.2 L48.2,126.4 L48.6,126 Z M52.4,91.2 L52.4,91 L52.2,91.4 L52.2,91.6 C52.2,91.466666 52.266666,91.333334 52.4,91.2 Z M56.6,100.2 L56.4,100.2 L56.8,99.8 L56.6,100.2 Z M56.6,98 L56.4,98.4 L56.4,98 L56.6,98 Z M52.8,90.4 L52.8,90.8 L52.6,90.8 L52.8,90.4 Z M57,98.8 L57.2,98.8 L57,99.2 L57,98.8 Z M40.8,89.8 L41,89.2 L41,89.6 L40.8,89.8 Z M59.2,78 L59,78.2 L59,78 L59.2,77.8 L59.2,78 Z M45.6,115 C45.733334,115 45.866666,114.933334 46,114.8 L45.6,115.2 L45.6,115 Z M42.4,115.8 L42.6,115.6 L42.4,116 L42.6,115.8 L42.6,115.4 L42.4,115.8 Z M53.6,106.8 C53.6,106.533332 53.666666,106.333334 53.8,106.2 L53.6,106.8 Z M57.2,94.2 C57.2,94.066666 57.266666,93.933334 57.4,93.8 L57.2,94.4 L57.2,94.2 Z M51.2,93.4 L51.4,92.8 C51.4,93.066668 51.333334,93.266666 51.2,93.4 Z M50.4,95.2 L50.6,94.8 C50.466666,94.933334 50.333334,95.133332 50.2,95.4 L50.4,95.2 Z M62.8,46 C62.933334,45.599998 63.066666,45.333334 63.2,45.2 L62.8,46 Z M37.6,98.8 C37.466666,98.933334 37.333334,99.133332 37.2,99.4 L37.4,99.2 L37.6,98.8 Z M49.8,111.6 L50,111.4 L50.2,111.4 L49.8,111.6 Z M36,103.4 L35.8,103.4 L35.8,103.6 L36,103.4 Z M49,112.6 L49,112.4 L49.2,112.4 L49,112.6 Z M52.2,110.2 L52,110.4 L52,110.2 L52.2,110.2 Z M52.2,109.8 L52,110 C52,109.866666 52.066666,109.733334 52.2,109.6 L52.2,109.8 Z M74.8,51.2 L75,51.2 L75,51 L74.8,51.2 Z M51.6,110.4 L51.6,110.6 L51.4,110.6 L51.6,110.4 Z M53.6,107.4 L53.6,107.6 L53.4,107.8 L53.6,107.4 Z M59.2,52.6 L59.4,52.6 L59.2,52.8 L59.2,52.6 Z M59.6,84.8 L59.6,84.6 L59.8,84.4 L59.6,84.8 Z M51.2,123.8 L50.8,124 L51,123.8 L51.2,123.8 Z M51.8,110.4 L52,110.2 L51.8,110.6 L51.8,110.4 Z M84,39 L84,38.8 L83.8,39.2 L84,39 Z M62.2,46.6 L62.4,46.4 L62.4,46.6 L62.2,46.6 Z M57.6,95.6 L57.4,95.8 L57.4,95.6 L57.6,95.6 Z M33.8,109.6 L34,109.4 C33.866666,109.533334 33.8,109.666666 33.8,109.8 L33.8,109.6 Z M46,115.2 L45.8,115.4 L45.6,115.4 L46,115.2 Z M51.6,110.2 L51.8,110 L51.6,110.4 L51.6,110.2 Z M51.2,111 L51.2,111.2 L51,111.4 L51.2,111 Z M38,97.6 L38.2,97.2 L38,97.4 L38,97.6 Z M57.4,95.4 L57.6,95 L57.6,95.2 L57.4,95.4 Z M87.4,33.8 L87.4,33.6 L87.6,33.4 L87.4,33.8 Z M84.2,38 L84.4,37.8 L84.2,38.2 L84.2,38 Z M59,85.4 L58.8,85.4 L59,85.2 L59,85.4 Z M44,112 L43.8,112 L43.8,112.2 L44,112 Z M57.6,93.4 L57.4,93.8 L57.4,93.6 L57.6,93.4 Z M51.8,91.8 L52,91.2 C51.866666,91.333334 51.8,91.466666 51.8,91.6 L51.8,91.8 Z M34.6,133.8 L34.4,133.6 L34.6,133.6 L34.6,133.8 Z M47.8,103.2 L47.6,103.4 L47.8,103.4 L47.8,103.2 Z M58.2,90.8 L58.4,90.4 L58.4,90.2 L58.2,90.8 Z M51,124 L50.8,124.2 L50.6,124.2 L51,124 Z M57.8,92.6 L58,92.4 L58,92.6 L57.8,92.6 Z M57.4,93.4 L57.6,93 L57.4,93.6 L57.4,93.4 Z M47.4,114.4 L47.2,114.4 L47.4,114.2 L47.4,114.4 Z M59,83.8 L59.2,83.6 C59.2,83.733334 59.133334,83.866666 59,84 L59,83.8 Z M57.8,92.4 L58,92 L58,92.2 L57.8,92.4 Z M47.2,114.6 L47.2,114.8 L47.4,114.6 L47.2,114.6 Z M59,52.8 L59.2,52.8 L58.8,53 L59,52.8 Z M38,134.4 L38.2,134.2 L37.8,134.4 L38,134.4 Z M51.4,110.8 L51.2,111.2 L51.2,111 L51.4,110.8 Z M84.6,39.8 C84.6,39.666666 84.666666,39.533334 84.8,39.4 L84.6,39.8 Z M52.6,107.8 C52.6,107.666666 52.666666,107.533334 52.8,107.4 C52.8,107.533334 52.733334,107.666666 52.6,107.8 Z M52.2,108.6 L52.2,108.4 L52.4,108.2 L52.2,108.6 Z M58.6,86.6 L58.8,86.4 C58.8,86.533334 58.733334,86.666666 58.6,86.8 L58.6,86.6 Z M45.2,115.4 L45.4,115.2 L45.4,115.4 L45.2,115.4 Z M52.2,66.2 L52.4,65.8 L52.4,66 L52.2,66.2 Z M49.2,113 L49.4,112.8 L49,113 L49.2,113 Z M36.4,103 C36.266666,103 36.266666,102.866668 36.4,102.6 L36.4,103 Z M58.4,89.2 L58.6,88.8 L58.4,89 L58.4,89.2 Z M41.6,89.4 L41.8,89 L41.6,89.2 L41.6,89.4 Z M58.2,94.4 L58.4,94 L58.4,94.2 L58.2,94.4 Z M44.8,108.4 L45,108.2 L44.8,108.2 L44.8,108.4 Z M50.4,111.6 L50.2,111.6 L50.4,111.4 L50.4,111.6 Z M53,121.8 L53.2,121.8 L53,122 L53,121.8 Z M43.6,112.6 L43.6,112.4 L43.4,112.8 L43.6,112.6 Z M56,100 L56.2,99.8 C56.066666,99.933334 56,100.066666 56,100.2 L56,100 Z M58.2,91.2 L58.4,90.6 L58.4,90.8 C58.4,90.933334 58.333334,91.066666 58.2,91.2 Z M79.4,46 L79.4,46.2 L79.6,46 L79.4,46 Z M47.2,104.6 L47.2,104.8 L47.4,104.4 L47.2,104.6 Z M37.8,98.2 L37.6,98.4 L37.6,98.6 L37.8,98.2 Z M79,48.4 C79,48.266666 79.066666,48.133334 79.2,48 L79,48.4 Z M32.2,115 L32,115.2 L31.8,115.2 L32.2,115 Z M34.8,106.4 L34.8,106.2 C34.666666,106.333334 34.6,106.466666 34.6,106.6 L34.8,106.4 Z M46.6,114.8 L46.4,115 L46.2,115 L46.6,114.8 Z M44,111.4 C43.866666,111.533334 43.8,111.666666 43.8,111.8 L44,111.6 L44,111.4 Z M56.2,101.8 C56.066666,101.933334 56,102.066666 56,102.2 L56,102 L56.2,101.8 Z M48.2,113 L48.4,112.8 L48.4,113 L48.2,113 Z M53,107 L53,107.2 L52.8,107.4 L53,107 Z M54.6,86.8 L54.8,86.2 L54.6,86.6 L54.6,86.8 Z M58.4,92.8 C58.4,92.933334 58.333334,93.066666 58.2,93.2 L58.4,92.6 L58.4,92.8 Z M43.4,113 L43.2,113 L43.2,113.2 L43.4,113 Z M53.8,106.8 L54,106.8 L53.8,107 L53.8,106.8 Z M45.4,115.4 L45.2,115.6 L45.2,115.4 L45.4,115.4 Z M48.6,113.2 L48.6,113.4 L48.8,113.2 L48.6,113.2 Z M57.2,81.6 L57,81.8 C57.133334,81.666666 57.2,81.533334 57.2,81.4 L57.2,81.6 Z M58.4,88.2 L58.6,88.2 L58.4,88.4 L58.4,88.2 Z M50.6,93.8 L50.8,93.4 L50.6,93.6 L50.6,93.8 Z M45.8,115.6 L46.2,115.4 L45.6,115.6 L45.8,115.6 Z M82.4,41.2 L82.4,41.4 L82.2,41.6 C82.333334,41.466666 82.4,41.333334 82.4,41.2 Z M54,105.6 C54,105.466666 54.066666,105.333334 54.2,105.2 C54.2,105.333334 54.133334,105.466666 54,105.6 Z M57.4,96.6 L57.4,96.4 L57.6,96.2 L57.4,96.6 Z M51.8,92.2 L52,92 L52,91.8 C51.866666,91.933334 51.8,92.066666 51.8,92.2 Z M34,107 L34.2,106.8 L34,107.2 L34,107 Z M51.4,110 L51.2,110.2 L51.4,109.8 L51.4,110 Z M59.4,76.8 L59.2,77 L59.2,77.2 L59.4,76.8 Z M36.8,100.8 C36.8,100.666666 36.866666,100.533334 37,100.4 L36.8,100.6 L36.8,100.8 Z M45.2,108.4 L45.2,108.2 L45,108.6 L45.2,108.4 Z M62.8,45.6 L63,45.4 L62.8,45.8 L62.8,45.6 Z M46.6,115.2 L47,115 L46.8,115.2 L46.6,115.2 Z M43.8,83.6 L43.6,84 C43.733334,83.866666 43.8,83.733334 43.8,83.6 Z M59.4,77.4 L59.4,77.2 L59.2,77.6 L59.4,77.4 Z M59.6,76.8 L59.4,77 L59.6,77 L59.6,76.8 Z M53.4,107.8 L53.4,108 L53.2,108.2 L53.4,107.8 Z M32.6,131.4 L32.8,131.4 L32.6,131.2 L32.6,131.4 Z M54.6,103.8 L54.4,103.8 L54.6,103.6 L54.6,103.8 Z M53.2,107.4 C53.2,107.533334 53.133334,107.666666 53,107.8 L53.2,107.4 Z M57.2,96.2 L57.4,96 L57.2,96.4 L57.2,96.2 Z M36,103.4 C36.133334,103.133332 36.266666,103 36.4,103 L36,103.4 Z M75.4,50.6 L75.2,50.6 L75.4,50.4 L75.4,50.6 Z M84,38.6 L84.2,38.2 L84.4,38 L84,38.6 Z M53.4,106.4 L53.6,106.4 L53.6,106.2 L53.4,106.4 Z M58.2,89.4 L58.4,89.4 L58.2,89.6 L58.2,89.4 Z M58.8,78.6 L58.6,79.2 L58.8,78.8 L58.8,78.6 Z M77.4,48.4 L77.4,48.2 L77.6,48.2 L77.4,48.4 Z M56.2,83.6 L56.2,83.8 L56.4,83.6 L56.2,83.6 Z M35.4,134.2 L35.2,134 L35.2,134.2 L35.4,134.2 Z M58.8,90.8 L58.8,90.6 L59,90.4 L58.8,90.8 Z M59,86 L59,86.2 L58.8,86.4 C58.933334,86.266666 59,86.133334 59,86 Z M36.2888891,100.533333 L36.4,100.2 L36.4,100.4 C36.3555556,100.444444 36.3185186,100.488889 36.2888891,100.533333 L36.2888891,100.533333 Z M36.2888891,100.533333 L36.2,100.8 C36.2,100.71111 36.2296295,100.622222 36.2888891,100.533333 L36.2888891,100.533333 Z M46,114.8 L46,114.6 L46.2,114.6 L46,114.8 Z M43.6,112.6 C43.6,112.733334 43.533334,112.866666 43.4,113 L43.6,112.6 Z M51,110.4 L50.8,110.4 L51,110.2 L51,110.4 Z M57.2,98 C57.2,98.266668 57.133334,98.4 57,98.4 L57.2,98 Z M83.8,94.6 L83.8,95 C83.933334,95 84.066666,94.866668 84.2,94.6 L84,94.6 L84,94.4 L84.2,94.2 L84,94.2 L83.8,94.4 L83.8,94.2 C83.533332,94.066666 83.200002,93.933334 82.8,93.8 C79.999986,92.199992 77.60001,90.000014 75.6,87.2 L75.2,86.4 C74.666664,85.466662 74.4,84.566671 74.4,83.7 C74.4,82.833329 74.533332,81.866672 74.8,80.8 L74.8,80.6 C74.933334,80.333332 75,79.800004 75,79 L75.2,79 L75.2,78.6 L76.2,74.4 C76.86667,72.799992 77.466664,71.233341 78,69.7 C78.533336,68.166659 79.13333,66.600008 79.8,65 L80,64.8 L80,64.6 C80.533336,63.533328 81.566659,61.833345 83.1,59.5 C84.633341,57.166655 85.633331,55.66667 86.1,55 C86.566669,54.33333 87.13333,53.66667 87.8,53 L88,53 C88.66667,52.066662 89.466662,51.333336 90.4,50.8 L90.4,50.6 L90.6,50.6 L90.8,50.4 C93.600014,48.266656 96.799982,46.86667 100.4,46.2 C101.866674,47.800008 103.299993,49.466658 104.7,51.2 C106.100007,52.933342 107.533326,54.666658 109,56.4 L109.2,56.8 L109.6,57.2 C108.666662,60.133348 107.266676,62.799988 105.4,65.2 C105.4,65.466668 105.333334,65.666666 105.2,65.8 L105.2,66 L105,66 L104.8,66.2 L104.8,66.4 C104.533332,66.666668 104.366667,66.866666 104.3,67 C104.233333,67.133334 104.133334,67.266666 104,67.4 L103.6,67.6 C103.066664,68.26667 102.533336,68.866664 102,69.4 L99.4,72 L99.2,72 L99.2,72.4 L98.6,73 L98.4,73 C97.199994,73.933338 96.033339,74.73333 94.9,75.4 C93.766661,76.06667 92.53334,76.666664 91.2,77.2 L91,77.2 C89.933328,77.600002 88.966671,77.899999 88.1,78.1 C87.233329,78.300001 86.266672,78.533332 85.2,78.8 C84.933332,79.46667 84.766667,80.13333 84.7,80.8 C84.633333,81.46667 84.466668,82.13333 84.2,82.8 L84.2,83.6 L84.8,83.2 L85.2,83 L85.6,82.6 L85.8,82.6 L86.4,82.2 L86.6,82 C86.733334,82 86.866666,81.933334 87,81.8 C87.400002,81.533332 88.399992,81.100003 90,80.5 C91.600008,79.899997 93.233325,79.26667 94.9,78.6 C96.566675,77.93333 98.099993,77.366669 99.5,76.9 C100.900007,76.433331 101.666666,76.2 101.8,76.2 L102,76.2 C103.33334,75.799998 104.933324,75.500001 106.8,75.3 C108.666676,75.099999 110.26666,75 111.6,75 C112.000002,75.400002 112.399998,75.766665 112.8,76.1 C113.200002,76.433335 113.599998,76.799998 114,77.2 L113.8,78 C111.79999,78.533336 109.300015,79.233329 106.3,80.1 C103.299985,80.966671 100.80001,81.933328 98.8,83 L98.4,83.2 C98.133332,83.333334 97.966667,83.433333 97.9,83.5 C97.833333,83.566667 97.666668,83.666666 97.4,83.8 L97.2,83.8 L96.8,84 L96.6,84 C96.333332,84.133334 96.133334,84.266666 96,84.4 C95.866666,84.533334 95.666668,84.666666 95.4,84.8 L95.2,85 C95.066666,85 94.866668,85.133332 94.6,85.4 L94.4,85.6 L94.2,85.6 L94.2,85.8 L93.6,86.2 L93.6,86.4 C92.133326,87.466672 90.40001,88.66666 88.4,90 C86.533324,91.200006 85.200004,92.533326 84.4,94 L84.4,94.2 L84.2,94.2 L84.2,94.6 L83.8,95.4 L83.8,95 L83.6,95.2 L83.6,96.2 L83.4,96.2 L83.2,96 L83.4,96 L83.4,95.8 L83,95.8 L83,95.6 L82.8,95.6 L82.8,95.8 L83,95.8 L83,96 L82.8,96 L82.6,95.8 L82.8,95.8 C82.666666,95.8 82.533334,95.733334 82.4,95.6 L82.6,95.8 L82.2,95.6 L82.4,95.6 L81.6,95.2 C81.466666,95.2 81.333334,95.133334 81.2,95 C81.066666,95 80.933334,94.933334 80.8,94.8 L80.6,94.4 L80.8,94.6 L81,94.6 L80.8,94.4 C81.066668,94.533334 81.233333,94.633333 81.3,94.7 C81.366667,94.766667 81.533332,94.866666 81.8,95 L82,95 L82.6,95.4 L82.8,95.4 C82.666666,95.4 82.533334,95.333334 82.4,95.2 L82.2,95 L83,95.4 L83,95.6 L83.6,95.6 L83.4,95.4 L83.4,95.2 C83.4,95.066666 83.466666,94.933334 83.6,94.8 L83.8,94.6 Z M87.6,72.6 C90.800016,70.333322 93.633321,67.700015 96.1,64.7 C98.566679,61.699985 100.533326,58.400018 102,54.8 C98.533316,56.80001 95.700011,59.399984 93.5,62.6 C91.299989,65.800016 89.333342,69.133316 87.6,72.6 Z M78.2,92.8 L77.6,92.4 L77.8,92.6 C78.066668,93.000002 78.266666,93.266666 78.4,93.4 L78.2,93.4 L78,93.2 C77.733332,93.2 77.533334,93.000002 77.4,92.6 L77.4,92.4 L77.2,92.2 L77.6,92.4 C77.333332,92.133332 77.133334,92 77,92 L76.8,91.8 C76.666666,91.533332 76.533334,91.4 76.4,91.4 L76.6,91.6 L76.2,91.4 L75.2,90.4 C75.066666,90.133332 74.866668,89.866668 74.6,89.6 L74.6,89.4 C74.866668,89.4 75,89.333334 75,89.2 L75.2,89 L75.2,89.2 L75.4,89.6 L75.2,89.4 L75.4,89.8 L75.4,89.6 L75.6,90 L76,90.2 L75.8,90.2 L76,90.4 C76,90.666668 76.199998,90.866666 76.6,91 L77,91.4 L77,91.6 L77.8,92.4 L77.8,92.2 L78,92.4 L78,92.6 L78.2,92.8 Z M76,91.6 L76,91.8 L75.2,91 L75,90.6 L74.8,90.4 L74.6,90 C74.866668,90.133334 75,90.266666 75,90.4 L75.6,91.2 L76,91.6 Z M74.6,90.2 C74.466666,90.066666 74.4,89.933334 74.4,89.8 L74.2,89.4 L74.2,89.6 L73.8,89.2 C73.666666,89.066666 73.6,88.933334 73.6,88.8 L73.8,88.8 L73.8,89 L74,89.2 L73.8,88.8 L73.8,88.6 C73.8,88.733334 73.933332,88.933332 74.2,89.2 C74.333334,89.333334 74.4,89.466666 74.4,89.6 C74.4,89.733334 74.466666,89.866666 74.6,90 L74.6,90.2 Z M88.6,51.6 L88.8,51.4 C89.066668,51.133332 89.333332,51 89.6,51 C89.333332,51.133334 88.933336,51.466664 88.4,52 L88.6,51.6 Z M79.2666673,93.8888891 L79,93.8 C79.0888896,93.8 79.1777783,93.8296295 79.2666673,93.8888891 L79.2666673,93.8888891 Z M79.2666673,93.8888891 C79.3111114,93.9185186 79.3555556,93.9555556 79.4,94 L79.6,94.2 L79,93.8 L78.6,93.6 L79,93.6 C79.133334,93.6 79.333332,93.733332 79.6,94 L79.2666673,93.8888891 L79.2666673,93.8888891 Z M77.6,92 L77.4,91.8 C77.266666,91.8 77.133334,91.666668 77,91.4 L77.2,91.6 L77.2,91.4 L77.8,92 L77.6,92 Z M78.6,93 L78.2,92.2 L78.4,92.4 C78.4,92.533334 78.533332,92.733332 78.8,93 L79.2,93.4 L78.6,93 Z M79,94.2 C79.533336,94.466668 79.733334,94.6 79.6,94.6 L79.8,94.8 L79.4,94.6 L79,94.2 Z M76.8,92.2 L77,92.4 L77,92.6 L77.2,92.8 L77.2,93 C77.066666,92.866666 77,92.733334 77,92.6 L76.4,92 C76.533334,92 76.666666,92.066666 76.8,92.2 Z M76.4,90.8 C76.666668,90.933334 76.866666,91.066666 77,91.2 L77.2,91.4 L77,91.4 L76.4,90.8 Z M80.4,94.4 L80.4,94.2 L80.2,94.2 L80,94 L80.2,94 C80.333334,94.133334 80.466666,94.2 80.6,94.2 L80.4,94.2 L80.6,94.4 L80.4,94.4 Z M84.4,94 L84.6,93.8 C84.6,93.933334 84.533334,94.133332 84.4,94.4 L84.4,94 Z M88,52.2 L88.4,51.8 C88.4,51.933334 88.333334,52.066666 88.2,52.2 L88,52.4 L88,52.2 Z M75.6,90.4 L75.2,90.2 L75.8,90.8 C75.666666,90.666666 75.6,90.533334 75.6,90.4 Z M80.2,95 L80.4,95 L80.8,95.4 L80.4,95.2 L80.2,95 Z M78.4,93.2 L78.8,93.4 L78.8,93.6 L78.6,93.4 L78.6,93.6 L78.4,93.2 Z M79,94.2 L78.6,94 C78.466666,93.866666 78.333334,93.8 78.2,93.8 C78.466668,93.8 78.733332,93.933332 79,94.2 Z M79.4,93.6 C79.666668,93.733334 79.866666,93.866666 80,94 L79.8,94 L79.4,93.6 Z M82.8,96 L83.2,96.2 L83,96.2 C82.866666,96.2 82.733334,96.133334 82.6,96 L82.8,96 Z M83.8,94.8 L83.8,94.6 L84,94.6 L84,94.8 L83.8,94.8 Z M84.2,94.2 L84.4,94.4 L84.2,94.6 L84.2,94.2 Z M79.4,94.2 L79,94 L78.8,93.8 C79.066668,93.933334 79.266666,94.066666 79.4,94.2 Z M80,94.4 L80.4,94.6 C80.266666,94.6 80.066668,94.533334 79.8,94.4 L80,94.4 Z M76.4,92.2 L76.2,92 C76.466668,92.133334 76.666666,92.266666 76.8,92.4 L76.4,92.2 Z M76.6,91.2 L77,91.6 C76.733332,91.466666 76.6,91.333334 76.6,91.2 Z M78,92 C77.866666,92 77.733334,91.866668 77.6,91.6 L78,92 Z M75,89 L75.2,89 L75,89.2 L75,89 Z M77.6,92.6 L77.6,92.8 L77.8,93 L77.6,92.6 Z M76,91.4 C75.866666,91.266666 75.8,91.133334 75.8,91 L76,91.2 L76,91.4 Z M87.6,52.6 C87.733334,52.466666 87.866666,52.4 88,52.4 L87.8,52.6 L87.6,52.6 Z M80.8,95 L80.4,94.8 L80.2,94.6 L80.8,95 Z M83.2,95.2 L83,95.4 L83,95.2 L83.2,95.2 Z M76.8,91.6 L76.8,91.8 L77,91.8 L76.8,91.6 Z M83.8,94.4 L84,94.4 L83.8,94.6 L83.8,94.4 Z M76.2,90.8 L76.2,90.6 L76.4,90.8 L76.2,90.8 Z M81.2,95.2 L81.4,95.4 L80.8,95 L81.2,95.2 Z M83.2,95 L83.4,94.8 L83.4,95 L83.2,95 Z M78,92.4 L77.8,92.4 L77.8,92.2 L78,92.4 Z M77.6,92 L77.8,92.2 L77.6,92.2 L77.6,92 Z M77.6,93.2 L77.4,93 L77.6,93 L77.6,93.2 Z M76.2,91.8 C76.2,91.666666 76.333332,91.733332 76.6,92 L76.2,91.8 Z" id="Life"></path>
                        <path d="M29,74.5 C29.3333333,74.1666667 30.1666667,73.8333333 31.5,73.5 C32.8333333,73.1666667 34.1666667,73.8333333 35.5,75.5 L32,80 L29,79.5 L29,74.5 Z" id="Path-2"></path>
                        <polygon id="Path-3" points="50 74.5 54 72.5 59 75 59.5 78 51 82 44.5 85 47.5 78.5"></polygon>
                        <polygon id="Path-4" points="78 68 80.5 67 84 69 86 73 80 73.5 77.5 73 76.5 72"></polygon>
                    </g>
                </g>
            </g>
        </g>
    </g>
</svg>