<svg xmlns="http://www.w3.org/2000/svg" xmlns:xlink="http://www.w3.org/1999/xlink" width="374" height="324" viewBox="0 0 374 324">
  <defs>
    <polygon id="mi-competition-landing-a" points=".172 .127 154.627 .127 154.627 19.003 .172 19.003"/>
    <path id="mi-competition-landing-c" d="M43.3427412,16.6955648 C40.7481613,7.44672872 32.2344798,0.660146377 22.1291325,0.655359375 C9.95984188,0.64959375 0.0898803419,10.4838281 0.0821709402,22.6185469 C0.0763888889,34.7571094 9.93864103,44.5990312 22.109859,44.602875 C32.2223824,44.6092622 40.7463005,37.8202386 43.3427412,28.5634523 L43.3427412,16.6955648 Z"/>
    <linearGradient id="mi-competition-landing-e" x1="1.301%" y1="50%" y2="50%">
      <stop offset="0%" stop-color="#EC008C"/>
      <stop offset="100%" stop-color="#FC6767"/>
    </linearGradient>
  </defs>
  <g fill="none" fill-rule="evenodd">
    <g transform="translate(0 92)">
      <g transform="translate(144)">
        <path fill="#FFF" stroke="#979797" d="M74.239598,122.373823 L74.239598,19.0025404 L228.694344,19.0025404 L228.694344,95.8850288 C228.694344,99.8425877 225.48214,103.051051 221.517564,103.051051 L96.2338353,103.051051 L74.239598,122.373823 Z"/>
        <g transform="translate(74.068)">
          <mask id="mi-competition-landing-b" fill="#fff">
            <use xlink:href="#mi-competition-landing-a"/>
          </mask>
          <path fill="#9B9B9B" d="M147.964929,0.126113074 L6.83458953,0.126113074 C3.15458953,0.126113074 0.172386139,3.10303789 0.172386139,6.7765242 L0.172386139,19.0033187 L154.627132,19.0033187 L154.627132,6.7765242 C154.627132,3.10303789 151.644929,0.126113074 147.964929,0.126113074" mask="url(#mi-competition-landing-b)"/>
        </g>
        <path fill="#FFF" d="M112.36814 10.0056121C112.36814 12.3443465 114.268564 14.2414064 116.611445 14.2414064 118.954327 14.2414064 120.852801 12.3443465 120.852801 10.0056121 120.852801 7.66687767 118.954327 5.77176344 116.611445 5.77176344 114.268564 5.77176344 112.36814 7.66687767 112.36814 10.0056121M98.8382929 10.0056121C98.8382929 12.3443465 100.738717 14.2414064 103.081598 14.2414064 105.424479 14.2414064 107.324903 12.3443465 107.324903 10.0056121 107.324903 7.66687767 105.424479 5.77176344 103.081598 5.77176344 100.738717 5.77176344 98.8382929 7.66687767 98.8382929 10.0056121M85.3084455 10.0056121C85.3084455 12.3443465 87.2088692 14.2414064 89.5517505 14.2414064 91.8946319 14.2414064 93.7950556 12.3443465 93.7950556 10.0056121 93.7950556 7.66687767 91.8946319 5.77176344 89.5517505 5.77176344 87.2088692 5.77176344 85.3084455 7.66687767 85.3084455 10.0056121"/>
        <path fill="#F4C669" d="M67.9810641,208.65347 C69.8873353,208.65347 71.8150472,208.147588 73.5556404,207.083288 C78.6078438,204.005187 80.2041997,197.42093 77.1186912,192.377669 L45.0551319,139.958498 C41.9657251,134.911346 35.3717421,133.325598 30.323437,136.401754 C25.2692844,139.479855 23.6748777,146.066058 26.7603861,151.109319 L58.8219963,203.526544 C60.8432675,206.830347 64.3692844,208.65347 67.9810641,208.65347"/>
        <polygon fill="#FFBDA1" points="24.26 118.482 22.05 146.806 2.237 144.683 10.528 104.543"/>
        <path fill="#FFBDA1" d="M0.162445461,99.4900264 C1.17600478,111.732387 11.9411743,120.84022 24.2071912,119.828455 C36.4751573,118.814744 45.5971912,108.070574 44.5816827,95.8243229 C43.5681234,83.5800171 32.8029539,74.4741294 20.5349878,75.4858947 C8.26897088,76.49766 -0.853063014,87.2457206 0.162445461,99.4900264"/>
      </g>
      <g transform="translate(144 74)">
        <mask id="mi-competition-landing-d" fill="#fff">
          <use xlink:href="#mi-competition-landing-c"/>
        </mask>
        <path fill="#072042" d="M43.2939457,10.0835016 C43.2939457,10.0835016 45.2887534,20.6672672 13.2812449,13.8830484 L10.3728731,28.5507984 C10.3728731,28.5507984 6.51431752,50.7599859 6.28881752,48.0328453 C6.06139017,45.3037828 -17.9919432,6.24359531 14.9734585,-3.15821719 C45.7956466,-11.9488734 43.2939457,10.0835016 43.2939457,10.0835016" mask="url(#mi-competition-landing-d)"/>
      </g>
      <g transform="translate(0 1)">
        <path fill="#FFBDA1" d="M160.298775,99.7837474 C160.045581,102.9583 157.26045,105.326586 154.079948,105.075963 C150.897497,104.823398 148.523319,102.045179 148.776513,98.8706265 C149.027759,95.6960742 151.81289,93.3277882 154.993393,93.5803536 C158.175843,93.832919 160.551969,96.6091951 160.298775,99.7837474 Z"/>
        <path fill="#FFD474" d="M174.350831,130.8726 L136.981386,130.8726 C125.677261,130.8726 120.595858,141.763996 120.981491,148.664858 L129.566706,218.973226 C129.938706,222.260461 132.741365,224.737545 136.058203,224.716174 L181.724612,224.389782 C185.113512,224.364525 187.914224,221.739788 188.149889,218.365126 L192.859292,150.66401 C193.60524,139.96301 185.103774,130.8726 174.350831,130.8726"/>
        <path fill="#FFBDA1" d="M142.208863,130.8726 L174.563125,130.8998 C174.563125,130.8998 172.93879,142.93551 158.296402,142.93551 C143.652067,142.93551 142.208863,130.8726 142.208863,130.8726"/>
        <path fill="#CADFEF" d="M8.7058534,230.999417 L337.828471,230.999417 C340.169539,230.999417 342.07044,229.105177 342.07044,226.767976 C342.07044,224.430775 340.169539,222.536535 337.828471,222.536535 L8.7058534,222.536535 C6.3628377,222.536535 4.46388482,224.430775 4.46388482,226.767976 C4.46388482,229.105177 6.3628377,230.999417 8.7058534,230.999417"/>
        <path fill="#FFBDA1" d="M176.753055,206.786365 C174.151003,201.476664 167.727673,199.275459 162.402815,201.869111 C160.65383,202.720062 159.253474,203.988718 158.236804,205.486625 L142.244699,206.110267 L136.608218,216.690812 L159.101558,218.590881 C162.221684,222.091825 167.398521,223.257512 171.823569,221.099049 C177.14648,218.505397 179.35316,212.096066 176.753055,206.786365"/>
        <polygon fill="#CFD1D3" points="147.155 222.547 195.468 222.547 195.468 216.361 147.155 216.361"/>
        <path fill="url(#mi-competition-landing-e)" d="M188.235391,222.547026 L261.063642,222.547026 C265.258867,222.547026 268.939914,219.75715 270.065652,215.725818 L284.265925,164.831956 C285.520207,160.332407 282.129359,155.879485 277.447223,155.879485 L210.557338,155.879485 C207.754679,155.879485 205.308438,157.760126 204.5956,160.462575 L188.235391,222.547026 Z"/>
        <path fill="#FFF" d="M231.298383,193.336482 C231.298383,197.132734 234.383451,200.210146 238.189148,200.210146 C241.992896,200.210146 245.077964,197.132734 245.077964,193.336482 C245.077964,189.540231 241.992896,186.462819 238.189148,186.462819 C234.383451,186.462819 231.298383,189.540231 231.298383,193.336482"/>
        <path fill="#FFD474" d="M148.103213,222.547026 L103.400888,222.323603 C100.736511,222.292518 98.0857675,221.435738 96.1050136,219.658067 C92.6421026,216.553456 91.6682806,211.729457 93.4036314,207.653441 L122.480008,140.531283 C124.688637,135.464433 130.523778,133.051462 135.677244,135.071985 C141.07027,137.18382 143.650898,143.31533 141.389684,148.632802 L119.034626,201.399534 L148.333035,201.725926 L148.103213,222.547026 Z"/>
        <path fill="#9B9B9B" d="M161.268896,28.6710562 L118.738195,28.6710562 C115.62586,28.6710562 113.103661,26.1531739 113.103661,23.0485627 L113.103661,6.62015752 C113.103661,3.51554641 115.62586,0.997664052 118.738195,0.997664052 L161.268896,0.997664052 C164.383179,0.997664052 166.907326,3.51554641 166.907326,6.62015752 L166.907326,23.0485627 C166.907326,26.1531739 164.383179,28.6710562 161.268896,28.6710562"/>
        <polygon fill="#9B9B9B" points="123.659 24.948 123.659 35.204 135.378 24.948"/>
        <path fill="#FFF" stroke="#979797" d="M88.8940565,172.045417 L88.8940565,69.1347467 L1.00077906,69.1347467 L1.00077906,145.67565 C1.00077906,149.613727 4.20270576,152.80965 8.1505801,152.80965 L66.9830618,152.80965 L88.8940565,172.045417 Z"/>
        <path fill="#9B9B9B" d="M7.63698639,50.3436897 L82.2570702,50.3436897 C85.9205885,50.3436897 88.8946408,53.3064757 88.8946408,56.9647877 L88.8946408,69.1345525 L0.999415707,69.1345525 L0.999415707,56.9647877 C0.999415707,53.3064757 3.97152042,50.3436897 7.63698639,50.3436897"/>
        <path fill="#FFF" d="M24.0702325 60.1791676C24.0702325 62.5066546 22.1790702 64.3950663 19.843845 64.3950663 17.5105675 64.3950663 15.6174576 62.5066546 15.6174576 60.1791676 15.6174576 57.8497379 17.5105675 55.963269 19.843845 55.963269 22.1790702 55.963269 24.0702325 57.8497379 24.0702325 60.1791676M37.5496817 60.1791676C37.5496817 62.5066546 35.6565717 64.3950663 33.3232942 64.3950663 30.9900168 64.3950663 29.0969068 62.5066546 29.0969068 60.1791676 29.0969068 57.8497379 30.9900168 55.963269 33.3232942 55.963269 35.6565717 55.963269 37.5496817 57.8497379 37.5496817 60.1791676M51.0291309 60.1791676C51.0291309 62.5066546 49.1360209 64.3950663 46.8027435 64.3950663 44.4675183 64.3950663 42.5744084 62.5066546 42.5744084 60.1791676 42.5744084 57.8497379 44.4675183 55.963269 46.8027435 55.963269 49.1360209 55.963269 51.0291309 57.8497379 51.0291309 60.1791676"/>
        <path fill="#F11D82" d="M66.2318555,106.706952 C66.2318555,120.415423 55.0913319,131.526356 41.3526513,131.526356 C27.6100754,131.526356 16.4695518,120.415423 16.4695518,106.706952 C16.4695518,93.0004247 27.6100754,81.8894917 41.3526513,81.8894917 C55.0913319,81.8894917 66.2318555,93.0004247 66.2318555,106.706952"/>
        <path fill="#FFF" d="M48.6288545,192.156419 L74.2014199,192.156419 C74.6532733,192.156419 75.021378,192.519725 75.021378,192.9724 L75.021378,212.32862 C75.021378,217.960828 70.442467,222.526432 64.7981948,222.526432 L58.0320796,222.526432 C52.3878073,222.526432 47.8088963,217.960828 47.8088963,212.32862 L47.8088963,192.9724 C47.8088963,192.519725 48.177001,192.156419 48.6288545,192.156419"/>
        <path fill="#FFF" d="M51.6948356 219.188878C45.9239665 215.938556 36.0221445 206.346901 37.6737466 199.595635 38.1119665 197.790764 39.2201759 196.432739 40.8698304 195.669215 44.6950031 193.895429 50.1698304 196.036406 50.7813906 196.287028L48.9603435 200.075509C47.6378932 199.541236 44.4106471 198.665028 42.8895372 199.372211 42.5818094 199.514037 42.2429194 199.762716 42.0637361 200.50487 41.1016 204.437118 48.8493277 212.729033 54.0417466 215.652963L51.6948356 219.188878zM57.256333 115.920148L54.3913487 115.920148 54.3913487 108.675408C54.3913487 107.095903 53.103956 105.811705 51.5224691 105.811705 49.9390346 105.811705 48.6516419 107.095903 48.6516419 108.675408L48.6516419 115.922091 44.8011497 115.922091 44.8011497 105.27549C44.8011497 103.697928 43.5157047 102.415673 41.9342178 102.415673 40.3507832 102.415673 39.0633906 103.697928 39.0633906 105.27549L39.0633906 115.922091 35.2167937 115.922091 35.2167937 95.3360714C35.2167937 93.7565665 33.9274534 92.4743116 32.3459665 92.4743116 30.7625319 92.4743116 29.4770869 93.7565665 29.4770869 95.3360714L29.4770869 115.920148 26.6140503 115.920148C26.1914115 115.920148 25.8505738 116.264026 25.8505738 116.683673 25.8505738 117.10332 26.1914115 117.445254 26.6140503 117.445254L57.256333 117.445254C57.6770241 117.445254 58.0198094 117.10332 58.0198094 116.683673 58.0198094 116.264026 57.6770241 115.920148 57.256333 115.920148"/>
        <path fill="#EE0A89" d="M293.084662,58.4147072 C293.080766,58.3972219 293.088557,58.3797366 293.086609,58.3641941 C293.080766,58.3214523 293.072976,58.2806533 293.071028,58.2398542 C293.071028,58.2204261 293.063238,58.2048837 293.063238,58.1854556 L293.063238,25.5889817 C275.588976,26.2573085 261.626316,40.5913641 261.626316,58.1854556 C261.626316,76.2069654 276.270651,90.8149572 294.336997,90.8149572 C295.914588,90.8149572 297.466861,90.6964458 298.986023,90.4807938 C298.481583,87.7608592 297.947929,84.8699572 297.414274,81.9751696 C295.240704,70.1959098 293.084662,58.4147072 293.084662,58.4147072"/>
        <path fill="#CA1560" d="M295.606861,53.6476332 L310.200557,29.6519812 C305.84952,27.2390106 300.890819,25.7916168 295.606861,25.5895645 L295.606861,53.6476332 Z"/>
        <path fill="#FB6069" d="M312.37666,30.9715381 L295.609393,58.2019694 C296.994168,65.7595021 299.609853,79.8876198 301.48933,90.0232619 C315.712974,86.8564809 326.436702,74.4574645 327.013204,59.4550822 L327.013204,56.9158289 C326.598356,46.0768894 320.883969,36.5940315 312.37666,30.9715381"/>
        <path fill="#FFF" d="M130.58396 14.9651113C130.58396 16.5349021 129.308253 17.807443 127.734557 17.807443 126.160861 17.807443 124.883206 16.5349021 124.883206 14.9651113 124.883206 13.3953204 126.160861 12.1227796 127.734557 12.1227796 129.308253 12.1227796 130.58396 13.3953204 130.58396 14.9651113M142.41804 14.9651113C142.41804 16.5349021 141.142333 17.807443 139.568637 17.807443 137.99494 17.807443 136.717286 16.5349021 136.717286 14.9651113 136.717286 13.3953204 137.99494 12.1227796 139.568637 12.1227796 141.142333 12.1227796 142.41804 13.3953204 142.41804 14.9651113M154.252314 14.9651113C154.252314 16.5349021 152.976607 17.807443 151.402911 17.807443 149.829215 17.807443 148.55156 16.5349021 148.55156 14.9651113 148.55156 13.3953204 149.829215 12.1227796 151.402911 12.1227796 152.976607 12.1227796 154.252314 13.3953204 154.252314 14.9651113"/>
      </g>
    </g>
    <rect width="373" height="91" x=".5" y=".5" fill="#FFF" stroke="#FFF"/>
  </g>
</svg>
