<svg xmlns="http://www.w3.org/2000/svg" width="249" height="197" viewBox="0 0 249 197">
  <g fill="none" fill-rule="evenodd" transform="translate(1)">
    <path fill="#FFF" stroke="#979797" d="M0,196 L0,30 L247,30 L247,153.462656 C247,159.817949 241.863128,164.970298 235.523081,164.970298 L35.1726105,164.970298 L0,196 Z"/>
    <path fill="#9B9B9B" d="M236.345978,0 L10.6540219,0 C4.76906186,0 0,4.7309833 0,10.5689549 L0,30 L247,30 L247,10.5689549 C247,4.7309833 242.230938,0 236.345978,0"/>
    <path fill="#FFF" d="M52 14.9986216C52 18.3121985 54.6878015 21 58.0013784 21 61.3149552 21 64 18.3121985 64 14.9986216 64 11.6850448 61.3149552 9 58.0013784 9 54.6878015 9 52 11.6850448 52 14.9986216M32 14.9986216C32 18.3121985 34.6871842 21 38 21 41.3128158 21 44 18.3121985 44 14.9986216 44 11.6850448 41.3128158 9 38 9 34.6871842 9 32 11.6850448 32 14.9986216M12 14.9986216C12 18.3121985 14.6871842 21 18 21 21.3128158 21 24 18.3121985 24 14.9986216 24 11.6850448 21.3128158 9 18 9 14.6871842 9 12 11.6850448 12 14.9986216"/>
    <path fill="#EE0A89" d="M120.522365,94.3392011 C120.516109,94.3113216 120.528621,94.2834421 120.525493,94.2586602 C120.516109,94.1905102 120.503597,94.125458 120.500469,94.0604057 C120.500469,94.0294284 120.487957,94.0046466 120.487957,93.9736693 L120.487957,42 C92.4241476,43.0656182 70,65.9206505 70,93.9736693 C70,122.708188 93.518924,146 122.533625,146 C125.067251,146 127.560213,145.811039 130,145.467191 C129.189865,141.130373 128.332812,136.520954 127.475759,131.905341 C123.984986,113.12382 120.522365,94.3392011 120.522365,94.3392011"/>
    <path fill="#CA1560" d="M125,87 L148,48.5153718 C141.142666,44.6454092 133.327639,42.3240548 125,42 L125,87 Z"/>
    <path fill="#FB6069" d="M151.696229,51 L125,94.8072051 C127.204788,106.965455 131.369387,129.694193 134.361821,146 C157.008187,140.905412 174.082114,120.958381 175,96.8231617 L175,92.7381148 C174.339494,75.3008719 165.241255,60.0452377 151.696229,51"/>
  </g>
</svg>
