
<svg width="60px" height="60px" viewBox="0 0 60 60" version="1.1" xmlns="http://www.w3.org/2000/svg" xmlns:xlink="http://www.w3.org/1999/xlink">
    <!-- Generator: Sketch 47.1 (45422) - http://www.bohemiancoding.com/sketch -->
    <desc>Created with Sketch.</desc>
    <defs>
        <polygon id="path-1" points="0.00725806452 60 60 60 60 0.00483870968 0.00725806452 0.00483870968"></polygon>
        <linearGradient x1="1.30141901%" y1="50%" x2="100%" y2="50%" id="linearGradient-3">
            <stop stop-color="#EC008C" offset="0%"></stop>
            <stop stop-color="#FC6767" offset="100%"></stop>
        </linearGradient>
    </defs>
    <g id="Page-1" stroke="none" stroke-width="1" fill="none" fill-rule="evenodd">
        <g id="3.0-Market-Insights_CopyNotReady" transform="translate(-945.000000, -1064.000000)">
            <g id="marketing" transform="translate(945.000000, 1064.000000)">
                <g id="Group-3">
                    <mask id="mask-2" fill="white">
                        <use xlink:href="#path-1"></use>
                    </mask>
                    <g id="Clip-2"></g>
                    <path d="M58.0480645,29.0322581 L45.453871,29.0322581 C44.9729032,21.2641935 38.7358065,15.0270968 30.9677419,14.546129 L30.9677419,1.95193548 C35.0041935,2.08935484 38.823871,3.08806452 42.2564516,4.76225806 L38.0254839,8.99322581 L39.393871,10.3616129 L44.0409677,5.71451613 C52.1545161,10.4245161 57.7083871,19.076129 58.0480645,29.0322581 Z M48.4596774,47.0903226 L42.9677419,41.5993548 C45.6193548,38.6429032 47.1551613,34.9335484 47.3719355,30.9677419 L55.1370968,30.9677419 C54.9106452,37.0025806 52.5667742,42.6619355 48.4596774,47.0903226 Z M30,58.0645161 C25.6770968,58.0645161 21.5070968,57.0880645 17.7319355,55.2493548 L21.9745161,51.0067742 L20.606129,49.6383871 L15.9445161,54.3 C14.1280645,53.2451613 12.4180645,51.9832258 10.8512903,50.5170968 L19.7564516,41.6119355 C22.586129,44.1154839 26.1870968,45.483871 30,45.483871 C33.8119355,45.483871 37.413871,44.1154839 40.2435484,41.6119355 L49.1487097,50.5170968 C43.9345161,55.3916129 37.1729032,58.0645161 30,58.0645161 Z M4.83870968,30 C4.83870968,16.4496774 15.6048387,5.37387097 29.0322581,4.86290323 L29.0322581,12.6290323 C19.8783871,13.136129 12.5806452,20.7222581 12.5806452,30 C12.5806452,34.3277419 14.1648387,38.4029032 17.0322581,41.5993548 L11.5412903,47.0903226 C7.21354839,42.4258065 4.83870968,36.3967742 4.83870968,30 Z M45.4364516,30.9677419 C45.2245161,34.4167742 43.8880645,37.6432258 41.5993548,40.2309677 L40.263871,38.8954839 L39.5796774,39.5796774 C37.0219355,42.1393548 33.6193548,43.5483871 30,43.5483871 C26.3806452,43.5483871 22.9780645,42.1393548 20.4203226,39.5796774 L19.736129,38.8954839 L18.4006452,40.2309677 C15.8980645,37.4012903 14.516129,33.8109677 14.516129,30 C14.516129,21.7887097 20.9458065,15.0687097 29.0322581,14.5654839 L29.0322581,16.4516129 L30,16.4516129 C37.4709677,16.4516129 43.5483871,22.5290323 43.5483871,30 L43.5483871,30.9677419 L45.4364516,30.9677419 Z M47.0187097,0 L43.6964516,3.32225806 C39.5864516,1.20387097 34.9325806,0 30,0 L29.0322581,0 L29.0322581,2.92741935 C14.5383871,3.44032258 2.90322581,15.3832258 2.90322581,30 C2.90322581,36.9135484 5.48032258,43.4283871 10.1719355,48.4596774 L8.10290323,50.5287097 L8.78709677,51.2129032 C10.5367742,52.9625806 12.4645161,54.4674194 14.5296774,55.7148387 L12.18,58.0645161 L0,58.0645161 L0,60 L12.9812903,60 L16.2890323,56.6922581 C20.4793548,58.8503226 25.1496774,60 30,60 C38.013871,60 45.5467742,56.8790323 51.2129032,51.2129032 L51.8970968,50.5287097 L49.8280645,48.4596774 C54.3,43.6645161 56.8441935,37.5203226 57.0735484,30.9677419 L60,30.9677419 L60,30 C60,19.1080645 54.1645161,9.55548387 45.4567742,4.29870968 L47.82,1.93548387 L60,1.93548387 L60,0 L47.0187097,0 L47.0187097,0 Z" id="Fill-1" fill="#0A0B09" mask="url(#mask-2)"></path>
                </g>
                <g id="Group-6" transform="translate(0.000000, 3.000000)" fill="url(#linearGradient-3)">
                    <polygon id="Fill-4" points="58.0645161 2.80645161 60 2.80645161 60 0.870967742 58.0645161 0.870967742"></polygon>
                    <polygon id="Fill-5" points="50.3225806 2.80645161 56.1290323 2.80645161 56.1290323 0.870967742 50.3225806 0.870967742"></polygon>
                    <polygon id="Fill-7" points="0.00725806452 53.1290323 5.80645161 53.1290323 5.80645161 51.1935484 0.00725806452 51.1935484"></polygon>
                    <polygon id="Fill-9" points="7.74193548 53.1290323 9.67741935 53.1290323 9.67741935 51.1935484 7.74193548 51.1935484"></polygon>
                </g>
                <path d="M38.5809677,26.1290323 L37.8551613,31.9354839 L25.9006452,31.9354839 L24.3164516,26.1290323 L38.5809677,26.1290323 Z M22.9974194,21.2903226 L18.3870968,21.2903226 L18.3870968,23.2258065 L21.5187097,23.2258065 L24.4219355,33.8709677 L39.5641935,33.8709677 L40.773871,24.1935484 L23.7890323,24.1935484 L22.9974194,21.2903226 L22.9974194,21.2903226 Z" id="Fill-10" fill="#0A0B09"></path>
                <path d="M27.0967742,35.8064516 C27.6309677,35.8064516 28.0645161,36.24 28.0645161,36.7741935 C28.0645161,37.3083871 27.6309677,37.7419355 27.0967742,37.7419355 C26.5625806,37.7419355 26.1290323,37.3083871 26.1290323,36.7741935 C26.1290323,36.24 26.5625806,35.8064516 27.0967742,35.8064516 Z M24.1935484,36.7741935 C24.1935484,38.3748387 25.496129,39.6774194 27.0967742,39.6774194 C28.6974194,39.6774194 30,38.3748387 30,36.7741935 C30,35.1735484 28.6974194,33.8709677 27.0967742,33.8709677 C25.496129,33.8709677 24.1935484,35.1735484 24.1935484,36.7741935 L24.1935484,36.7741935 Z" id="Fill-11" fill="#0A0B09"></path>
                <path d="M35.8064516,35.8064516 C36.3406452,35.8064516 36.7741935,36.24 36.7741935,36.7741935 C36.7741935,37.3083871 36.3406452,37.7419355 35.8064516,37.7419355 C35.2722581,37.7419355 34.8387097,37.3083871 34.8387097,36.7741935 C34.8387097,36.24 35.2722581,35.8064516 35.8064516,35.8064516 Z M32.9032258,36.7741935 C32.9032258,38.3748387 34.2058065,39.6774194 35.8064516,39.6774194 C37.4070968,39.6774194 38.7096774,38.3748387 38.7096774,36.7741935 C38.7096774,35.1735484 37.4070968,33.8709677 35.8064516,33.8709677 C34.2058065,33.8709677 32.9032258,35.1735484 32.9032258,36.7741935 L32.9032258,36.7741935 Z" id="Fill-12" fill="#0A0B09"></path>
                <polygon id="Fill-13" fill="url(#linearGradient-3)" points="54.1935484 27.0967742 56.1290323 27.0967742 56.1290323 25.1612903 54.1935484 25.1612903"></polygon>
                <polygon id="Fill-14" fill="url(#linearGradient-3)" points="50.3225806 27.0967742 52.2580645 27.0967742 52.2580645 25.1612903 50.3225806 25.1612903"></polygon>
                <polygon id="Fill-15" fill="url(#linearGradient-3)" points="46.4516129 27.0967742 48.3870968 27.0967742 48.3870968 25.1612903 46.4516129 25.1612903"></polygon>
            </g>
        </g>
    </g>
</svg>