<svg xmlns="http://www.w3.org/2000/svg" width="198" height="271" viewBox="0 0 198 271">
  <g fill="none" fill-rule="evenodd" transform="translate(1)">
    <path fill="#FFF" stroke="#979797" d="M196,270 L196,42 L0,42 L0,211.577421 C0,220.302284 7.14022336,227.382896 15.9438929,227.382896 L147.138982,227.382896 L196,270 Z"/>
    <path fill="#9B9B9B" d="M14.8013029,0 L181.198697,0 C189.368078,0 196,6.62220844 196,14.7990074 L196,42 L0,42 L0,14.7990074 C0,6.62220844 6.62757872,0 14.8013029,0"/>
    <path fill="#FFF" d="M32 21C32 24.3124424 29.3152074 27 26 27 22.6875576 27 20 24.3124424 20 21 20 17.6847926 22.6875576 15 26 15 29.3152074 15 32 17.6847926 32 21M52 21C52 24.3124424 49.3124424 27 46 27 42.6875576 27 40 24.3124424 40 21 40 17.6847926 42.6875576 15 46 15 49.3124424 15 52 17.6847926 52 21M72 21C72 24.3124424 69.3130615 27 66.0013822 27 62.6869385 27 60 24.3124424 60 21 60 17.6847926 62.6869385 15 66.0013822 15 69.3130615 15 72 17.6847926 72 21"/>
    <path fill="#F11D82" d="M145,124.997847 C145,155.377118 120.149902,180 89.5043444,180 C58.8500978,180 34,155.377118 34,124.997847 C34,94.6228815 58.8500978,70 89.5043444,70 C120.149902,70 145,94.6228815 145,124.997847"/>
    <path fill="#FFF" d="M125.291215,144.640862 L118.878913,144.640862 L118.878913,128.683887 C118.878913,125.204933 115.997518,122.37641 112.457892,122.37641 C108.913907,122.37641 106.032512,125.204933 106.032512,128.683887 L106.032512,144.645141 L97.414482,144.645141 L97.414482,121.195363 C97.414482,117.720688 94.5374463,114.896444 90.9978204,114.896444 C87.4538354,114.896444 84.5724405,117.720688 84.5724405,121.195363 L84.5724405,144.645141 L75.9631289,144.645141 L75.9631289,99.3031977 C75.9631289,95.8242434 73.0773748,93 69.537749,93 C65.993764,93 63.1167282,95.8242434 63.1167282,99.3031977 L63.1167282,144.640862 L56.7087849,144.640862 C55.7628504,144.640862 55,145.398273 55,146.322571 C55,147.246868 55.7628504,148 56.7087849,148 L125.291215,148 C126.23279,148 127,147.246868 127,146.322571 C127,145.398273 126.23279,144.640862 125.291215,144.640862"/>
  </g>
</svg>
