<svg xmlns="http://www.w3.org/2000/svg" width="218" height="332" viewBox="0 0 218 332">
  <defs>
    <linearGradient id="mi-landscape-adv-a" x1="-66.938%" x2="120.447%" y1="66.775%" y2="34.006%">
      <stop offset="0%" stop-color="#596A87"/>
      <stop offset="35.97%" stop-color="#4F607E"/>
      <stop offset="97.63%" stop-color="#334664"/>
      <stop offset="100%" stop-color="#324563"/>
    </linearGradient>
  </defs>
  <g fill="none" fill-rule="evenodd">
    <path fill="#ED078A" d="M0,58.9863101 C0,65.068874 4.64930348,70 10.3842382,70 L97.6157618,70 C103.350697,70 108,65.068874 108,58.9863101 L108,11.0136899 C108,4.93112597 103.350697,0 97.6157618,0 L10.3842382,0 C4.64930348,0 0,4.93112597 0,11.0136899 L0,58.9863101 Z"/>
    <path fill="#ED078A" d="M94.997179,64 C94.9943694,70.6649814 94.990155,82.7397203 94.9999886,86.4596434 C95.0112269,90.189574 86.7383792,73.7329887 82,64 L94.997179,64 Z"/>
    <path fill="#FFF" d="M12 18.6610644C12 20.5045752 13.4130029 22 15.1580614 22L95.8433516 22C97.5869971 22 99 20.5045752 99 18.6610644L99 17.3389356C99 15.4954248 97.5869971 14 95.8433516 14L15.1580614 14C13.4130029 14 12 15.4954248 12 17.3389356L12 18.6610644zM12 34.6604408C12 36.5042959 13.4130029 38 15.1580614 38L95.8433516 38C97.5869971 38 99 36.5042959 99 34.6604408L99 33.3395592C99 31.4942099 97.5869971 30 95.8433516 30L15.1580614 30C13.4130029 30 12 31.4942099 12 33.3395592L12 34.6604408zM12 49.661935C12 51.5057901 13.4130029 53 15.1580614 53L95.8433516 53C97.5869971 53 99 51.5057901 99 49.661935L99 48.3395592C99 46.4957041 97.5869971 45 95.8433516 45L15.1580614 45C13.4130029 45 12 46.4957041 12 48.3395592L12 49.661935z"/>
    <polygon fill="#FFC3BF" points="157 146.324 157.388 162 169 161.753 168.587 145"/>
    <path fill="#340046" d="M185.011371,332 C186.054028,323.263178 187.770324,313.654248 190.609768,305.805279 C197.744907,286.085958 197.315214,267.709924 180.785021,245 L134.017788,246.050163 C134.017788,246.050163 127.312343,283.617409 131.226639,332 L185.011371,332 Z"/>
    <path fill="#FFC3BF" d="M176.78648,170.508558 C176.231561,183.612837 192.885088,211.622388 199.587073,220.569415 C199.587073,220.569415 179.686377,246.819014 175,260.579955 L182.167401,268 C182.167401,268 207.096972,243.14943 216.723915,226.744939 C226.349666,210.339241 178.413048,132.041898 176.78648,170.508558"/>
    <path fill="url(#mi-landscape-adv-a)" d="M154.173392,156.293606 C146.290781,156.672765 130.012244,165.495504 130.000051,185.130352 C129.987858,204.767631 132.159387,270 132.159387,270 L192.48788,268.620687 C192.48788,268.620687 208.249444,162.069705 172.992897,156.596204 C168.11214,155.839101 162.786348,155.879204 154.173392,156.293606"/>
    <path fill="#FFC3BF" d="M159.459782,160.677058 C149.137428,151.745983 112.878828,174.569707 102.604211,180.197887 C102.604211,180.197887 78.3375597,155.836027 64.7604754,149 L56,155.33095 C56,155.33095 78.0670463,184.689342 93.649113,197.010102 C109.232404,209.329658 182.815745,180.886191 159.459782,160.677058"/>
    <path fill="#FFC3BF" d="M68 155.198081C68 155.198081 62.3673845 150.167772 63.4508063 138.320899L48.0626846 114C48.0626846 114 43.9138859 117.505865 52.0112858 130.438057 52.0112858 130.438057 46.4281309 139.825112 48.5243165 145.07558 50.620502 150.326047 62.3155687 163 62.3155687 163L68 155.198081zM166.30424 91.3208668C159.460866 94.4200589 143.698974 112.665596 147.616756 131.785171 151.668819 151.567558 158.012368 159.148621 176.019743 147.481432 194.02836 135.815456 198.929629 110.881102 191.964407 98.3131685 184.996698 85.7452346 177.358826 86.315787 166.30424 91.3208668"/>
    <path fill="#ED0789" d="M160.45774,115.499144 C160.344923,120.098282 153.819381,131.9234 154.135268,138.972443 C154.271835,142.008839 154.217208,144.833653 156.523414,146.937106 L195.435595,153 C207.541395,130.11938 197.741801,98.2842365 186.50053,88.6739307 C177.23533,80.7538112 159.890095,84.5301282 155.585256,88.1220836 C155.585256,88.1220836 145.796349,93.5230087 150.088125,101.139983 C154.378714,108.755721 160.571744,110.900006 160.45774,115.499144"/>
  </g>
</svg>
