<svg xmlns="http://www.w3.org/2000/svg" width="335" height="281" viewBox="0 0 335 281">
  <defs>
    <linearGradient id="mi-opportunities-landing-a" x1="1.301%" y1="50%" y2="50%">
      <stop offset="0%" stop-color="#EC008C"/>
      <stop offset="100%" stop-color="#FC6767"/>
    </linearGradient>
  </defs>
  <g fill="none" fill-rule="evenodd">
    <polygon fill="#FC6469" points="88 236 203 236 203 206 88 206"/>
    <polygon fill="#D5DDEA" points="97 236 108 236 108 206 97 206"/>
    <polygon fill="#ED0789" points="0 235 101 235 101 187 0 187"/>
    <polygon fill="#E2EBF4" points="20 176 253 176 253 65 20 65"/>
    <polygon fill="#FFF" points="28 169 246 169 246 72 28 72"/>
    <polygon fill="url(#mi-opportunities-landing-a)" points="155 164 156 164 156 94 155 94"/>
    <polygon fill="#E2EBF4" points="41 163 42 163 42 132 41 132"/>
    <polygon fill="#E2EBF4" points="79 164 80 164 80 140 79 140"/>
    <polygon fill="#E2EBF4" points="116 164 117 164 117 114 116 114"/>
    <polygon fill="#E2EBF4" points="193 163 194 163 194 107 193 107"/>
    <polygon fill="#E2EBF4" points="231 162 232 162 232 124 231 124"/>
    <path fill="#AEB8FD" d="M232,146 C222.093727,146 217.150532,134.913277 212.369459,124.1934 C207.709213,113.746738 202.892962,102.943975 193.596941,102.943975 C184.30092,102.943975 179.48314,113.746738 174.824423,124.1934 C170.04335,134.913277 165.100155,146 155.193882,146 C145.290668,146 140.345943,134.913277 135.5664,124.1934 C130.906154,113.746738 126.091433,102.943975 116.796941,102.943975 C107.50245,102.943975 102.68467,113.746738 98.0259529,124.1934 C93.2448799,134.913277 88.3016848,146 78.3969411,146 C68.4937268,146 63.5490023,134.913277 58.7694587,124.1934 C54.110742,113.746738 49.2944916,102.943975 40,102.943975 L40,102 C49.9032142,102 54.8479388,113.086723 59.6274824,123.8066 C64.2861991,134.253262 69.1024495,145.056025 78.3969411,145.056025 C87.6914327,145.056025 92.5092126,134.253262 97.1679293,123.8066 C101.949002,113.086723 106.892197,102 116.796941,102 C126.700155,102 131.64488,113.086723 136.424423,123.8066 C141.08314,134.253262 145.899391,145.056025 155.193882,145.056025 C164.489903,145.056025 169.307683,134.253262 173.9664,123.8066 C178.747473,113.086723 183.690668,102 193.596941,102 C203.501685,102 208.446409,113.086723 213.227482,123.8066 C217.886199,134.253262 222.703979,145.056025 232,145.056025 L232,146 Z"/>
    <path fill="url(#mi-opportunities-landing-a)" d="M46 83.500762C46 84.8814386 44.8814386 86 43.499238 86 42.1185614 86 41 84.8814386 41 83.500762 41 82.1200853 42.1185614 81 43.499238 81 44.8814386 81 46 82.1200853 46 83.500762M56 83.500762C56 84.8814386 54.8814386 86 53.499238 86 52.1200853 86 51 84.8814386 51 83.500762 51 82.1200853 52.1200853 81 53.499238 81 54.8814386 81 56 82.1200853 56 83.500762M64 83.500762C64 84.8814386 62.8814386 86 61.499238 86 60.1185614 86 59 84.8814386 59 83.500762 59 82.1200853 60.1185614 81 61.499238 81 62.8814386 81 64 82.1200853 64 83.500762"/>
    <path fill="#F56CBA" d="M277,8.91792074 C269.421863,3.89848257 260.407177,1 250.729939,1 C230.668638,1 213.446848,13.4451342 206,31.248307 L250.729939,51 L277,8.91792074 Z"/>
    <path fill="#ED0789" d="M249.5,49.7988039 L201.048658,48.1652428 C201.016726,48.7159334 201,49.2481133 201,49.7988039 C201,76.9615786 222.709133,99 249.5,99 C276.274141,99 298,76.9615786 298,49.7988039 C298,44.2764725 297.096783,38.9546727 295.418078,34 L249.5,49.7988039 Z"/>
    <path fill="#F5688A" d="M309,25.3560067 C305.458257,14.8009313 298.390006,5.88157944 289.211942,0 L263,41 L309,25.3560067 Z"/>
    <path fill="#920456" d="M208.021906,33 C205.594326,38.3652381 204.186737,44.2371429 204,50.4030952 L254,52 L208.021906,33 Z"/>
    <path fill="#F2F2F2" d="M188,272.500802 C188,277.19494 157.778921,281 120.500769,281 C83.2195397,281 53,277.19494 53,272.500802 C53,267.80506 83.2195397,264 120.500769,264 C157.778921,264 188,267.80506 188,272.500802"/>
    <path fill="#7083C4" d="M164.471633 273C163.356312 273 162.336221 272.302896 162.032776 271.245898L143.08684 204.980155C142.725288 203.717504 143.525866 202.420073 144.871999 202.08135 146.219747 201.742627 147.606231 202.492657 147.966169 203.755308L166.913719 270.021051C167.273656 271.283702 166.474692 272.581133 165.126945 272.919856 164.909046 272.974293 164.687919 273 164.471633 273M117.471633 273C116.356311 273 115.336219 272.302896 115.032774 271.245898L96.0868327 204.980155C95.7252812 203.717504 96.5258594 202.420073 97.873607 202.08135 99.2181265 201.742627 100.606226 202.492657 100.967777 203.755308L119.913719 270.021051C120.273656 271.283702 119.474692 272.581133 118.126945 272.919856 117.909045 272.974293 117.687918 273 117.471633 273"/>
    <path fill="#2234A4" d="M87.8236697,181.095995 C84.5294857,182.010139 84.403822,188.728397 85.9835942,194.890694 C87.5603744,201.054548 90.8814863,206.818172 94.1756703,205.904028 C97.4698543,204.989884 97.595518,198.270068 96.0187378,192.106214 C94.4389657,185.943918 91.1178537,180.181851 87.8236697,181.095995"/>
    <path fill="#112044" d="M89,136 C80.4651054,136 76,151.595055 76,167 C76,182.404945 80.4651054,198 89,198 C97.5348946,198 102,182.404945 102,167 C102,151.595055 97.5348946,136 89,136"/>
    <path fill="#C69E91" d="M164.028137,190.211281 C163.3425,188.563257 161.999983,187.155832 160.382,185.540831 C158.579365,183.744988 151.306767,183.888089 147.581925,182.512115 C142.154343,180.505551 130.954088,171.820401 128.777606,170.251004 C128.526357,170.070162 128.225161,169.983672 127.922451,170.002543 L122.267836,170.37838 C121.221975,170.447572 120.645313,171.674155 121.238624,172.572077 C122.233025,174.073854 123.714788,176.052112 125.296446,177.229946 C128.104077,179.321427 148.576326,187.313086 151.144817,188.344673 C153.713308,189.374688 155.985144,189.470613 158.037514,191.41742 C158.903264,192.236715 160.180698,192.692752 161.035853,193.096895 C162.072633,193.585956 162.829407,193.628415 163.260768,193.587529 C163.55591,193.560795 163.846511,193.636277 164.103815,193.790386 C165.81261,194.829837 164.666854,191.744509 164.028137,190.211281"/>
    <path fill="#9BA9EA" d="M114.65331,145.953068 C114.311023,142.303729 113.183393,137.613698 115.037184,133.201902 C116.99334,128.54569 120.198686,128.379671 122.505128,129.746252 C124.811569,131.112833 125.65929,132.785318 125.848028,134.276413 C126.118339,136.406988 125.982384,137.278586 125.958392,139.42607 C125.931201,142.196124 125.577717,144.943121 125.523335,147.708563 C125.467353,150.569313 125.684882,153.430063 126.015973,156.272366 C126.070355,156.728918 126.126337,157.182395 126.183918,157.63741 C126.399847,159.320656 126.646166,161.008514 127.126008,162.641032 C127.615447,164.315055 128.349606,165.924515 129.296494,167.407923 C129.477235,167.69077 131.804469,171.131048 130.70723,170.941971 C129.40046,170.716001 124.984312,175.525935 121.398292,173.501428 C116.612666,170.800548 114.941215,149.025953 114.65331,145.953068"/>
    <path fill="#8D9BE2" d="M149.938316,261.991169 L146.262775,261.055681 C146.081429,261.01092 145.968416,260.805023 146.007839,260.599126 L146.659633,257.297315 C146.699056,257.09291 146.880402,256.963105 147.061748,257.009357 L150.735975,257.943354 C150.917321,257.989606 151.031648,258.194011 150.992225,258.399908 L150.340431,261.70172 C150.299694,261.906125 150.119662,262.035929 149.938316,261.991169"/>
    <path fill="#18297C" d="M144,261.234273 C144,261.234273 144.882678,267.338108 145.860864,267.86826 C146.83751,268.398412 151.69301,267.24597 154.211647,265.885152 C156.730283,264.524334 159.105658,265.295464 164.153715,264.097661 C166.888014,263.448437 168.970703,262.339938 168.970703,262.339938 C168.970703,262.339938 169.623854,259.536086 164.762193,259.927321 C159.900531,260.318556 154.15619,259.777064 152.934613,259.113665 C151.713036,258.450267 149.454735,260.892651 144,261.234273"/>
    <path fill="#ED0789" d="M137.532252,84.1199313 C137.532252,84.1199313 145.515076,88.5660204 145.973338,91.4170999 C146.353398,93.7712726 142.554362,115.794673 141.955337,125.912248 C141.822394,128.163665 139.484165,129.617578 137.363337,128.741856 C132.261461,126.636137 124.488217,122.515184 121.801209,116.168887 C117.670598,106.419391 130.509744,82.0878279 137.532252,84.1199313"/>
    <path fill="#FED4C6" d="M111.107373,115.223962 C113.594837,119.027144 119.800907,125.49966 126.178832,123.68612 C132.555275,121.87258 142.98959,112.806423 140.669537,98.2996449 C138.352446,83.7944119 127.918131,81.9808716 120.960933,85.6079522 C114.005217,89.2334881 102.412357,101.926726 111.107373,115.223962"/>
    <path fill="#FED4C6" d="M115,107.335384 C113.083296,103.960131 106.694828,100.586603 104.779757,102.61141 C102.863053,104.636217 104.141399,114.758525 112.444939,112.733718"/>
    <path fill="#2234A4" d="M127.969137,150.43017 C127.969137,143.125922 128.462164,136.065302 125.507113,131.755075 C122.365426,127.175172 108.907499,122.858817 103.156036,129.160972 C98.9443094,133.773052 85.7056783,167.972931 89.7634307,187.757377 C93.8196279,207.54029 97.6409761,204.768445 118.638951,204.966106 C130.387614,205.074896 119.281285,186.123995 120.08226,175.765968 C121.273612,160.32699 127.969137,157.325307 127.969137,150.43017"/>
    <path fill="#FED4C6" d="M113.040331,117 C113.040331,117 113.546415,122.358655 110.526884,124.491078 C107.508896,126.622048 118.32181,132.770919 121.038925,131.919694 C123.754497,131.067015 117.568856,124.389395 123,118.705357"/>
    <path fill="#ED0789" d="M139.955482,93.5631132 C139.514004,100.620885 128.74743,95.8282086 125.759431,107.005459 C124.048511,113.403929 123.680358,120.296489 123.67883,125.021228 C123.677303,127.456167 120.939831,128.858148 118.995187,127.420654 C114.838569,124.349574 108.948116,119.65726 105.132154,115.154861 C98.8109167,107.701817 100.804444,99.4535965 104.091854,91.1467026 C107.380792,82.8398087 111.497692,78.1258779 119.632199,78.0069875 C128.00043,77.8850089 140.852188,79.2159648 139.955482,93.5631132"/>
    <path fill="#AEB8FD" d="M143.849582,261.951355 L140.191391,259.809345 C140.012559,259.704672 139.946749,259.461952 140.046895,259.270809 L141.644939,256.203427 C141.743655,256.013801 141.97256,255.944019 142.151392,256.048692 L145.808152,258.190702 C145.986984,258.296892 146.052795,258.538096 145.954079,258.727722 L144.356035,261.795104 C144.255889,261.986246 144.028414,262.056029 143.849582,261.951355"/>
    <path fill="#2234A4" d="M139.390522,259 C139.390522,259 135.723391,263.869924 136.016702,264.849093 C136.311516,265.826821 140.425381,268.002592 143.093753,268.590093 C145.760621,269.179034 147.383605,274.00144 152.27211,274 C158.521876,274 157.902164,273.641451 157.902164,273.641451 C157.902164,273.641451 159.046826,271.79111 153.505518,270.123644 C149.081796,268.791686 147.329455,264.227033 146.962441,263.003072 C146.593923,261.781991 143.346451,262.12038 139.390522,259"/>
    <path fill="#3A5ACE" d="M96.0491694,187 C96.0491694,187 94.2877292,205.861674 111.850369,205.861674 L161.045856,205.861674 L145.944969,256.761611 C145.613082,257.880806 146.458025,259 147.631811,259 L151.459175,259 C152.138175,259 152.753233,258.613342 153.045537,258.009188 L178.27204,205.774072 C180.913439,199.027187 176.061486,191.727502 168.644255,191.28949 L96.0491694,187 Z"/>
    <path fill="#455FE8" d="M90.0491694,186 C90.0491694,186 88.2877292,205.385295 105.850369,205.385295 L155.045856,205.385295 L139.940402,255.973999 C139.616127,257.095625 140.596565,257.774985 141.540466,258.464983 C142.382364,259.07899 145.451563,260 145.451563,260 C146.133608,260 146.753233,259.607887 147.044015,258.98932 L172.27204,205.294106 C174.913439,198.36069 170.061486,190.857342 162.644255,190.405956 L90.0491694,186 Z"/>
    <path fill="#FED4C6" d="M147.810037,186.470965 C147.018164,184.968429 145.591894,183.736379 143.880669,182.330445 C141.974475,180.766975 134.796629,181.42387 131.020237,180.392455 C125.517621,178.891405 113.844998,171.508022 111.583362,170.183828 C111.323904,170.030751 111.019453,169.971303 110.721001,170.012917 L105.161395,170.770873 C104.12956,170.910574 103.645138,172.108442 104.294534,172.91247 C105.381859,174.25747 106.983602,176.015631 108.628837,177.012863 C111.548868,178.782914 132.338525,184.848048 134.948105,185.635727 C137.557685,186.421921 139.808823,186.350584 141.972975,188.037408 C142.886329,188.747806 144.179121,189.086657 145.05498,189.406187 C146.11231,189.79111 146.862189,189.77922 147.286621,189.710856 C147.577574,189.661811 147.868528,189.712342 148.132485,189.84164 C149.894702,190.697685 148.546419,187.869468 147.810037,186.470965"/>
    <path fill="#AEB8FD" d="M100.502457,131.781656 C102.683067,127.327538 105.658785,127.419155 107.680671,128.955268 C109.702557,130.491381 110.350807,132.21531 110.405693,133.707141 C110.484314,135.837239 110.28702,136.690805 110.094177,138.813267 C109.843481,141.551092 109.297587,144.243107 109.02464,146.976351 C108.741308,149.804265 108.714607,152.653556 108.791744,155.493686 C108.802128,155.948718 108.818446,156.402223 108.834763,156.857254 C108.89855,158.541482 108.990521,160.23029 109.302037,161.885506 C109.62097,163.581949 110.169831,165.232583 110.924886,166.777858 C111.07026,167.071033 112.604105,169.362987 111.734827,169.937121 C110.880384,170.502093 107.289051,174.543934 103.808975,172.355812 C99.4166014,169.593557 99.1377205,147.43749 99.1184362,144.372898 C99.0961851,140.734173 98.4331014,136.00215 100.502457,131.781656 Z"/>
    <path fill="#9BA9EA" d="M148.616615,207 L91.3849083,207 C90.0690968,207 89,205.881789 89,204.501597 C89,203.119808 90.0690968,202 91.3849083,202 L148.616615,202 C149.932426,202 151,203.119808 151,204.501597 C151,205.881789 149.932426,207 148.616615,207"/>
    <path fill="#9BA9EA" d="M75.5282538 273C75.3119686 273 75.0908411 272.974293 74.8745559 272.919856 73.5268083 272.581133 72.7262301 271.283702 73.0861675 270.021051L92.0337227 203.755308C92.3936601 202.492657 93.7801453 201.742627 95.1278929 202.08135 96.4756404 202.420073 97.2746045 203.717504 96.9130531 204.980155L77.968726 271.245898C77.663667 272.302896 76.6435754 273 75.5282538 273M124.528367 273C124.312081 273 124.090954 272.974293 123.873055 272.919856 122.525308 272.581133 121.726344 271.283702 122.086281 270.021051L141.033831 203.755308C141.393769 202.492657 142.778639 201.742627 144.128001 202.08135 145.474134 202.420073 146.274712 203.717504 145.91316 204.980155L126.967224 271.245898C126.663779 272.302896 125.643688 273 124.528367 273"/>
    <path fill="url(#mi-opportunities-landing-a)" d="M202.864701,160.07192 C202.591114,159.422454 201.947648,159 201.235403,159 L178.75232,159 C178.283095,159 177.833739,159.183414 177.502071,159.509651 L149.518198,187.038312 C149.012291,187.534433 148.860977,188.280116 149.134564,188.92808 C149.406623,189.577546 150.051617,190 150.76539,190 L173.248474,190 C173.717699,190 174.167055,189.816586 174.495666,189.491853 L202.482596,161.964694 C202.986975,161.468574 203.139817,160.721387 202.864701,160.07192"/>
    <path fill="#E2EBF4" d="M150.068427,190 L131.776035,190 C130.794987,190 130,189.222717 130,188.265019 C130,187.305819 130.794987,186.527032 131.776035,186.527032 L149.331873,186.527032 L176.967286,159.508542 C177.660785,158.830486 178.786376,158.830486 179.479875,159.508542 C180.173375,160.186597 180.173375,161.284116 179.479875,161.963675 L151.323185,189.491834 C150.991043,189.816579 150.538961,190 150.068427,190"/>
    <path fill="#F2F2F2" d="M335,241.500766 C335,244.536993 313.50925,247 287.000767,247 C260.49075,247 239,244.536993 239,241.500766 C239,238.463007 260.49075,236 287.000767,236 C313.50925,236 335,238.463007 335,241.500766"/>
    <path fill="#ED0789" d="M277.385616,149.11208 C278.553051,152.213716 282.01136,153.780247 285.112997,152.614384 C288.213062,151.445378 289.781164,147.987069 288.61373,144.887003 C287.446295,141.786938 283.986415,140.218836 280.88792,141.38627 C277.786284,142.552134 276.219753,146.010443 277.385616,149.11208"/>
    <path fill="#ED0789" d="M274.254486,141.367148 C278.046745,151.442512 289.290194,156.537768 299.367028,152.745491 C309.443861,148.953215 314.537578,137.709715 310.74532,127.63435 C306.953061,117.557471 295.709611,112.462215 285.634293,116.254492 C275.557459,120.046768 270.462227,131.290268 274.254486,141.367148"/>
    <path fill="#C69E91" d="M276.968324,241.322361 C276.968324,241.322361 283.973766,243.291726 287.555974,242.727228 C291.138182,242.161135 298.010389,242.37641 298.467628,242.736796 C298.924866,243.095587 301.03089,244.356938 302.367783,243.902469 C303.70619,243.446405 302.652422,241.859751 301.66527,241.47704 C300.679633,241.092735 291.483382,237.514391 290.14346,235.731597 C288.802025,233.950398 286.446186,234.720603 283.943485,235.189424 C281.440785,235.658244 276.412673,233 276.412673,233 C276.412673,233 272.891026,239.293995 276.968324,241.322361"/>
    <path fill="#3E3E3E" d="M250.577571,222.304305 C266.408704,222.223481 279.005751,233.790509 279.005751,233.790509 C273.668045,235.191972 276.252846,241.97664 276.252846,241.97664 C274.719856,242.321287 254.650637,238.777217 247.530098,236.303688 C240.4111,233.828633 239.441029,225.735526 240.229116,222.080132 C241.017202,218.424737 245.404886,217.582944 248.728421,216.613053 C252.050414,215.641636 265.042276,215.914608 268.575556,216.803676 C272.110379,217.691219 283.472089,218.369838 286.451704,216.838751 C286.451704,216.838751 295.163839,219.220781 302.383082,218.266139 C309.600783,217.309972 291.434694,234.299854 272.067196,234.019257"/>
    <path fill="#FED4C6" d="M301.989745,142.174823 C302.365186,146.577483 292.328605,153.931146 288.824997,154.834332 C284.979389,155.826942 281.732662,152.209727 280.162499,147.975484 C278.602976,143.771048 277.377853,140.098688 276.616332,137.46514 C276.07369,135.594681 273.137044,125.945792 287.368834,121.730924 C303.824389,116.855806 301.617344,137.801972 301.989745,142.174823"/>
    <path fill="#FED4C6" d="M290.48978,147.428572 C290.48978,147.428572 291.754987,154.323933 289.326083,156.002738 C286.895709,157.683057 283.865097,159.065157 282.285059,160.000685 C280.65353,160.96649 277.742083,167.677168 279.59723,172.890697 C281.450905,178.10574 296.967345,185.897271 304.792504,181.899324 C312.616191,177.90289 315.79392,164.199968 310.10196,160.289821 C304.409999,156.379674 300.225989,155.663647 299.58603,151.058666 C298.94607,146.452171 298.222254,140.274351 300.125949,137"/>
    <path fill="#FED4C6" d="M290,157 C287.315201,157.580474 282.839502,159.073338 280.335962,162.263672 C277.830872,165.454006 275.8866,172.374227 275.455917,175.661559 C275.028332,178.93222 272.314098,188.886669 271.722295,191.498044 C271.128944,194.106388 271.161478,196.82234 269.294667,198.109083 C266.893375,199.762601 260.651565,205.67798 256.665421,207.243593 C253.616554,208.442431 249.108323,208.860736 248.270194,208.841033 C247.058704,208.810721 246.722523,209.826172 247.22447,211.159898 C247.724869,212.49514 248.152453,214.720038 253.18897,213.771274 C258.267315,212.813416 264.149705,210.145963 269.717604,208.028673 C272.315647,207.040503 276.320382,204.77923 277.13992,201.822298 C277.961007,198.863851 281.113671,185.174969 283.435952,180.187135 C285.758234,175.197786 290,157 290,157"/>
    <path fill="url(#mi-opportunities-landing-a)" d="M307.381218,157.20862 C307.381218,157.20862 300.106552,166.112616 302.038483,174.043023 C303.970414,181.971906 310.981428,178.936868 310.981428,178.936868 C310.981428,178.936868 308.961613,194.975945 308.785845,199.758567 C308.611593,204.538141 311.245079,214.568087 310.981428,216.666102 C310.434426,221.032778 300.467179,220.103374 291.304525,219.404035 C282.190358,218.707744 279.003809,218.532529 280.322068,212.585866 C281.638811,206.636157 282.450979,207.074957 282.666143,200.777864 C282.822213,196.205501 282.967676,191.098349 279.209882,186.170984 C277.394624,183.788053 277.565846,179.523459 280.105388,171.35994 C281.328187,167.432065 283.27527,160.67484 286.008762,156.938941 C286.18453,156.617458 287.817958,156.17104 288.542243,155.820608 C288.893779,155.674342 289.875654,155.046613 288.87105,156.75306 C287.213378,159.568697 285.855723,161.912014 285.528431,163.77844 C285.160228,165.88255 285.189017,167.677367 289.272588,168.34928 C293.356159,169.01967 297.21396,165.813988 298.967092,162.6144 C302.614274,155.950116 302.39608,155.886124 302.87338,155.317816 C303.352196,154.749508 303.549177,155.0329 304.290129,155.470177 C305.031081,155.907454 307.664568,156.836858 307.381218,157.20862"/>
    <path fill="#FED4C6" d="M250.764714,210.84722 C249.029215,209.327873 246.841109,207.754149 243.377606,206.884123 C239.915602,206.014096 237.499692,204.138102 237.619588,205.454337 C237.740983,206.770571 239.112297,207.850108 240.504592,208.42586 C241.899885,209.001613 242.842569,210.119533 241.937352,210.868011 C241.033634,211.61649 239.440513,212.021116 238.6462,211.323816 C237.853386,210.624916 235.013344,208.056419 232.503016,208.587391 C229.994187,209.119962 237.654059,213.01429 238.271524,214.191384 C238.887491,215.366879 240.832808,217.557938 243.737295,216.868634 C246.638784,216.177731 250.457479,215.023027 251.350707,215.06301 C252.242435,215.101393 252.36383,212.246619 250.764714,210.84722"/>
    <path fill="#3E3E3E" d="M309.370644,216.503835 C313.928777,214.963013 326.171229,216.679334 326.826966,225.536084 C327.485753,234.392834 327.09536,242.638312 310.067555,242.984848 C293.039749,243.331385 289.812914,237.652951 288.679862,234.223284 C288.089699,232.435574 286.776701,229.905712 290.842269,227.906808 C294.906311,225.907904 299.777063,219.746105 309.370644,216.503835"/>
    <path fill="#FED4C6" d="M289.590037,231.931123 C288.274821,231.941898 290.051597,230.536514 289.390902,229.44207 C288.764168,228.404579 288.066425,227.025364 282.327021,229.006447 C276.586075,230.989069 275.67376,230.068566 274.204176,229.368183 C272.734593,228.669339 267.005995,229.575989 266.126098,230.444156 C265.244656,231.315401 269.248963,232.011167 269.9359,232.811604 C270.622838,233.613581 282.907445,238.236108 289.111496,238.953424 C295.318634,239.66766 289.590037,231.931123 289.590037,231.931123"/>
    <path fill="#ED0789" d="M281.610896,127.844958 C283.459409,132.755164 288.935537,135.23592 293.844284,133.388934 C298.75454,131.540439 301.23683,126.064367 299.388316,121.154161 C297.541312,116.245464 292.063675,113.7632 287.154928,115.611694 C282.246181,117.45868 279.763891,122.936261 281.610896,127.844958"/>
    <path fill="#ED0789" d="M275.547238 127.493237C277.199625 131.885902 282.100646 134.105753 286.493357 132.453383 290.884551 130.801012 293.105942 125.898525 291.453555 121.507377 289.801167 117.114713 284.900146 114.893344 280.507435 116.547232 276.114724 118.199602 273.893333 123.100572 275.547238 127.493237M291.418575 134.788312C292.683652 138.146439 296.430467 139.845808 299.788388 138.582215 303.147871 137.31706 304.845573 133.570015 303.582058 130.210326 302.318542 126.852199 298.570165 125.154393 295.212245 126.417986 291.852762 127.681579 290.153498 131.430185 291.418575 134.788312"/>
    <path fill="#ED0789" d="M295.38627 143.112501C296.552134 146.212377 300.012014 147.780384 303.11208 146.614591 306.213716 145.445657 307.780247 141.987559 306.614384 138.887683 305.446949 135.786236 301.987069 134.2198 298.887003 135.385593 295.786938 136.552956 294.218836 140.011054 295.38627 143.112501M277.988232 126C274.822266 128.260509 274.048983 132.71346 276.261905 135.947508 278.473277 139.181556 282.834034 139.971468 286 137.710958"/>
    <path fill="#ED0789" d="M300.988232,141 C297.822266,143.260509 297.048983,147.71346 299.261905,150.947508 C301.473277,154.181556 305.834034,154.971468 309,152.710958"/>
    <path fill="#ED0789" d="M303.627011,141 C301.290978,143.699376 301.494599,147.863842 304.082353,150.302312 C306.670106,152.740782 310.663968,152.526705 313,149.825656"/>
    <path fill="#ED0789" d="M303.612085 140C302.316826 142.591124 303.144601 145.864999 305.459689 147.315429 307.776266 148.764194 310.704742 147.838317 312 145.247193M276.476756 130C274.417382 130.155996 272.865252 132.070803 273.009264 134.275316 273.154876 136.481544 274.942227 138.144357 277 137.990076"/>
    <path fill="#FED4C6" d="M283.677887,216.727116 C285.192093,215.839897 285.515063,213.991885 284.07146,212.954633 C283.419511,212.485777 280.074137,211.836593 277.610548,211.147014 C275.145457,210.454551 273.559147,212.376137 273.066429,213.417717 C272.573711,214.459298 266.525901,216.867051 268.33754,218.312568 C271.116588,220.529894 276.255575,221.082422 283.677887,216.727116"/>
    <path fill="#FED4C6" d="M313.594805,161 C310.970228,161.587151 310.0358,162.441048 307.586901,165.669609 C305.139517,168.895105 303.237342,175.89492 302.817834,179.221595 C302.39984,182.528341 300.440115,189.916012 299.863102,192.55589 C299.28306,195.197301 299.314864,197.944491 297.488413,199.242967 C295.140983,200.915503 288.34404,209.581722 284.448822,211.168408 C281.468345,212.381034 277.06275,212.802618 276.243422,212.781155 C275.059106,212.752028 274.728951,213.779158 275.218125,215.128224 C275.708814,216.477291 276.128322,218.729312 281.050351,217.768102 C286.01327,216.799227 293.30696,213.123021 298.118432,209.77335 C301.091338,207.706826 304.356536,205.992898 305.159205,202.998891 C305.96036,200.006416 308.381998,188.858222 310.617357,183.79769 C318.248773,166.528106 313.594805,161 313.594805,161"/>
    <path fill="url(#mi-opportunities-landing-a)" d="M214.117171,193.934038 C214.357309,193.367909 214.922251,193 215.550306,193 L249.871676,193 C250.282683,193 250.676757,193.159177 250.966155,193.442992 L275.546511,217.420133 C275.988305,217.852614 276.122228,218.502836 275.88209,219.067464 C275.641951,219.632091 275.077009,220 274.448954,220 L240.127584,220 C239.718117,220 239.322504,219.842325 239.033106,219.557008 L214.454289,195.581368 C214.010955,195.148888 213.878571,194.498665 214.117171,193.934038"/>
    <path fill="#920456" d="M274.703685,220 L304.475013,220 C305.318526,220 306,219.324249 306,218.48782 C306,217.654394 305.318526,216.97564 304.475013,216.97564 L275.336699,216.97564 L251.601716,193.441491 C251.008077,192.852836 250.041898,192.852836 249.44523,193.441491 C248.85159,194.033148 248.85159,194.991212 249.44523,195.579867 L273.625442,219.557008 C273.913175,219.842325 274.299344,220 274.703685,220"/>
  </g>
</svg>
