<svg xmlns="http://www.w3.org/2000/svg" width="233" height="216" viewBox="0 0 233 216">
  <defs>
    <linearGradient id="mi-opportunities-ans-a" x1="1.301%" y1="50%" y2="50%">
      <stop offset="0%" stop-color="#EC008C"/>
      <stop offset="100%" stop-color="#FC6767"/>
    </linearGradient>
  </defs>
  <g fill="none" fill-rule="evenodd">
    <polygon fill="#D5DDEA" points="77 171 88 171 88 141 77 141"/>
    <polygon fill="#E2EBF4" points="0 111 233 111 233 0 0 0"/>
    <polygon fill="#FFF" points="8 104 226 104 226 7 8 7"/>
    <polygon fill="url(#mi-opportunities-ans-a)" points="135 99 136 99 136 29 135 29"/>
    <polygon fill="#E2EBF4" points="21 98 22 98 22 67 21 67"/>
    <polygon fill="#E2EBF4" points="59 99 60 99 60 75 59 75"/>
    <polygon fill="#E2EBF4" points="96 99 97 99 97 49 96 49"/>
    <path fill="#AEB8FD" d="M212,81 C202.093727,81 197.150532,69.9132771 192.369459,59.1933998 C187.709213,48.7467383 182.892962,37.9439754 173.596941,37.9439754 C164.30092,37.9439754 159.48314,48.7467383 154.824423,59.1933998 C150.04335,69.9132771 145.100155,81 135.193882,81 C125.290668,81 120.345943,69.9132771 115.5664,59.1933998 C110.906154,48.7467383 106.091433,37.9439754 96.7969411,37.9439754 C87.5024495,37.9439754 82.6846696,48.7467383 78.0259529,59.1933998 C73.2448799,69.9132771 68.3016848,81 58.3969411,81 C48.4937268,81 43.5490023,69.9132771 38.7694587,59.1933998 C34.110742,48.7467383 29.2944916,37.9439754 20,37.9439754 L20,37 C29.9032142,37 34.8479388,48.0867229 39.6274824,58.8066002 C44.2861991,69.2532617 49.1024495,80.0560246 58.3969411,80.0560246 C67.6914327,80.0560246 72.5092126,69.2532617 77.1679293,58.8066002 C81.9490023,48.0867229 86.8921974,37 96.7969411,37 C106.700155,37 111.64488,48.0867229 116.424423,58.8066002 C121.08314,69.2532617 125.899391,80.0560246 135.193882,80.0560246 C144.489903,80.0560246 149.307683,69.2532617 153.9664,58.8066002 C158.747473,48.0867229 163.690668,37 173.596941,37 C183.501685,37 188.446409,48.0867229 193.227482,58.8066002 C197.886199,69.2532617 202.703979,80.0560246 212,80.0560246 L212,81 Z"/>
    <path fill="url(#mi-opportunities-ans-a)" d="M26 18.500762C26 19.8814386 24.8814386 21 23.499238 21 22.1185614 21 21 19.8814386 21 18.500762 21 17.1200853 22.1185614 16 23.499238 16 24.8814386 16 26 17.1200853 26 18.500762M36 18.500762C36 19.8814386 34.8814386 21 33.499238 21 32.1200853 21 31 19.8814386 31 18.500762 31 17.1200853 32.1200853 16 33.499238 16 34.8814386 16 36 17.1200853 36 18.500762M44 18.500762C44 19.8814386 42.8814386 21 41.499238 21 40.1185614 21 39 19.8814386 39 18.500762 39 17.1200853 40.1185614 16 41.499238 16 42.8814386 16 44 17.1200853 44 18.500762"/>
    <path fill="#F2F2F2" d="M168,207.500802 C168,212.19494 137.778921,216 100.500769,216 C63.2195397,216 33,212.19494 33,207.500802 C33,202.80506 63.2195397,199 100.500769,199 C137.778921,199 168,202.80506 168,207.500802"/>
    <path fill="#7083C4" d="M144.471633 208C143.356312 208 142.336221 207.302896 142.032776 206.245898L123.08684 139.980155C122.725288 138.717504 123.525866 137.420073 124.871999 137.08135 126.219747 136.742627 127.606231 137.492657 127.966169 138.755308L146.913719 205.021051C147.273656 206.283702 146.474692 207.581133 145.126945 207.919856 144.909046 207.974293 144.687919 208 144.471633 208M97.4716326 208C96.3563109 208 95.3362194 207.302896 95.0327744 206.245898L76.0868327 139.980155C75.7252812 138.717504 76.5258594 137.420073 77.873607 137.08135 79.2181265 136.742627 80.6062258 137.492657 80.9677773 138.755308L99.913719 205.021051C100.273656 206.283702 99.4746922 207.581133 98.1269446 207.919856 97.9090453 207.974293 97.6879179 208 97.4716326 208"/>
    <path fill="#2234A4" d="M67.8236697,116.095995 C64.5294857,117.010139 64.403822,123.728397 65.9835942,129.890694 C67.5603744,136.054548 70.8814863,141.818172 74.1756703,140.904028 C77.4698543,139.989884 77.595518,133.270068 76.0187378,127.106214 C74.4389657,120.943918 71.1178537,115.181851 67.8236697,116.095995"/>
    <path fill="#112044" d="M69,71 C60.4651054,71 56,86.5950547 56,102 C56,117.404945 60.4651054,133 69,133 C77.5348946,133 82,117.404945 82,102 C82,86.5950547 77.5348946,71 69,71"/>
    <path fill="#C69E91" d="M144.028137,125.211281 C143.3425,123.563257 141.999983,122.155832 140.382,120.540831 C138.579365,118.744988 131.306767,118.888089 127.581925,117.512115 C122.154343,115.505551 110.954088,106.820401 108.777606,105.251004 C108.526357,105.070162 108.225161,104.983672 107.922451,105.002543 L102.267836,105.37838 C101.221975,105.447572 100.645313,106.674155 101.238624,107.572077 C102.233025,109.073854 103.714788,111.052112 105.296446,112.229946 C108.104077,114.321427 128.576326,122.313086 131.144817,123.344673 C133.713308,124.374688 135.985144,124.470613 138.037514,126.41742 C138.903264,127.236715 140.180698,127.692752 141.035853,128.096895 C142.072633,128.585956 142.829407,128.628415 143.260768,128.587529 C143.55591,128.560795 143.846511,128.636277 144.103815,128.790386 C145.81261,129.829837 144.666854,126.744509 144.028137,125.211281"/>
    <path fill="#9BA9EA" d="M94.65331,80.9530683 C94.3110226,77.3037292 93.1833934,72.6136982 95.0371838,68.2019024 C96.9933404,63.5456901 100.198686,63.3796713 102.505128,64.7462519 C104.811569,66.1128326 105.65929,67.7853182 105.848028,69.276413 C106.118339,71.4069875 105.982384,72.2785862 105.958392,74.4260701 C105.931201,77.1961244 105.577717,79.9431206 105.523335,82.7085633 C105.467353,85.5693131 105.684882,88.4300629 106.015973,91.2723662 C106.070355,91.7289179 106.126337,92.1823951 106.183918,92.6374096 C106.399847,94.3206557 106.646166,96.0085135 107.126008,97.6410317 C107.615447,99.3150545 108.349606,100.924515 109.296494,102.407923 C109.477235,102.69077 111.804469,106.131048 110.70723,105.941971 C109.40046,105.716001 104.984312,110.525935 101.398292,108.501428 C96.6126656,105.800548 94.9412153,84.0259532 94.65331,80.9530683"/>
    <path fill="#8D9BE2" d="M129.938316,196.991169 L126.262775,196.055681 C126.081429,196.01092 125.968416,195.805023 126.007839,195.599126 L126.659633,192.297315 C126.699056,192.09291 126.880402,191.963105 127.061748,192.009357 L130.735975,192.943354 C130.917321,192.989606 131.031648,193.194011 130.992225,193.399908 L130.340431,196.70172 C130.299694,196.906125 130.119662,197.035929 129.938316,196.991169"/>
    <path fill="#18297C" d="M124,196.234273 C124,196.234273 124.882678,202.338108 125.860864,202.86826 C126.83751,203.398412 131.69301,202.24597 134.211647,200.885152 C136.730283,199.524334 139.105658,200.295464 144.153715,199.097661 C146.888014,198.448437 148.970703,197.339938 148.970703,197.339938 C148.970703,197.339938 149.623854,194.536086 144.762193,194.927321 C139.900531,195.318556 134.15619,194.777064 132.934613,194.113665 C131.713036,193.450267 129.454735,195.892651 124,196.234273"/>
    <path fill="#ED0789" d="M117.532252,19.1199313 C117.532252,19.1199313 125.515076,23.5660204 125.973338,26.4170999 C126.353398,28.7712726 122.554362,50.7946732 121.955337,60.912248 C121.822394,63.1636653 119.484165,64.6175778 117.363337,63.7418563 C112.261461,61.636137 104.488217,57.5151845 101.801209,51.168887 C97.6705977,41.4193913 110.509744,17.0878279 117.532252,19.1199313"/>
    <path fill="#FED4C6" d="M91.1073725,50.2239615 C93.5948374,54.027144 99.8009067,60.4996601 106.178832,58.6861198 C112.555275,56.8725795 122.98959,47.8064227 120.669537,33.2996449 C118.352446,18.7944119 107.918131,16.9808716 100.960933,20.6079522 C94.0052173,24.2334881 82.4123569,36.9267256 91.1073725,50.2239615"/>
    <path fill="#FED4C6" d="M95,42.3353839 C93.0832962,38.9601313 86.6948277,35.5866035 84.7797565,37.6114101 C82.8630527,39.6362167 84.1413994,49.758525 92.4449391,47.7337184"/>
    <path fill="#2234A4" d="M107.969137,85.4301704 C107.969137,78.1259222 108.462164,71.0653021 105.507113,66.7550755 C102.365426,62.1751724 88.9074991,57.8588168 83.1560356,64.1609718 C78.9443094,68.7730522 65.7056783,102.972931 69.7634307,122.757377 C73.8196279,142.54029 77.6409761,139.768445 98.6389506,139.966106 C110.387614,140.074896 99.2812855,121.123995 100.08226,110.765968 C101.273612,95.3269901 107.969137,92.3253072 107.969137,85.4301704"/>
    <path fill="#FED4C6" d="M93.0403309,52 C93.0403309,52 93.5464148,57.3586554 90.5268838,59.4910777 C87.5088957,61.6220475 98.32181,67.7709193 101.038925,66.9196935 C103.754497,66.0670151 97.5688559,59.3893955 103,53.7053568"/>
    <path fill="#ED0789" d="M119.955482,28.5631132 C119.514004,35.620885 108.74743,30.8282086 105.759431,42.0054587 C104.048511,48.4039287 103.680358,55.296489 103.67883,60.0212279 C103.677303,62.4561669 100.939831,63.8581483 98.9951874,62.4206542 C94.8385688,59.3495739 88.9481164,54.6572596 85.1321542,50.1548613 C78.8109167,42.7018173 80.8044437,34.4535965 84.0918539,26.1467026 C87.3807917,17.8398087 91.4976924,13.1258779 99.6321995,13.0069875 C108.00043,12.8850089 120.852188,14.2159648 119.955482,28.5631132"/>
    <path fill="#AEB8FD" d="M123.849582,196.951355 L120.191391,194.809345 C120.012559,194.704672 119.946749,194.461952 120.046895,194.270809 L121.644939,191.203427 C121.743655,191.013801 121.97256,190.944019 122.151392,191.048692 L125.808152,193.190702 C125.986984,193.296892 126.052795,193.538096 125.954079,193.727722 L124.356035,196.795104 C124.255889,196.986246 124.028414,197.056029 123.849582,196.951355"/>
    <path fill="#2234A4" d="M119.390522,194 C119.390522,194 115.723391,198.869924 116.016702,199.849093 C116.311516,200.826821 120.425381,203.002592 123.093753,203.590093 C125.760621,204.179034 127.383605,209.00144 132.27211,209 C138.521876,209 137.902164,208.641451 137.902164,208.641451 C137.902164,208.641451 139.046826,206.79111 133.505518,205.123644 C129.081796,203.791686 127.329455,199.227033 126.962441,198.003072 C126.593923,196.781991 123.346451,197.12038 119.390522,194"/>
    <path fill="#3A5ACE" d="M76.0491694,122 C76.0491694,122 74.2877292,140.861674 91.8503688,140.861674 L141.045856,140.861674 L125.944969,191.761611 C125.613082,192.880806 126.458025,194 127.631811,194 L131.459175,194 C132.138175,194 132.753233,193.613342 133.045537,193.009188 L158.27204,140.774072 C160.913439,134.027187 156.061486,126.727502 148.644255,126.28949 L76.0491694,122 Z"/>
    <path fill="#455FE8" d="M70.0491694,121 C70.0491694,121 68.2877292,140.385295 85.8503688,140.385295 L135.045856,140.385295 L119.940402,190.973999 C119.616127,192.095625 120.596565,192.774985 121.540466,193.464983 C122.382364,194.07899 125.451563,195 125.451563,195 C126.133608,195 126.753233,194.607887 127.044015,193.98932 L152.27204,140.294106 C154.913439,133.36069 150.061486,125.857342 142.644255,125.405956 L70.0491694,121 Z"/>
    <path fill="#FED4C6" d="M127.810037,121.470965 C127.018164,119.968429 125.591894,118.736379 123.880669,117.330445 C121.974475,115.766975 114.796629,116.42387 111.020237,115.392455 C105.517621,113.891405 93.8449983,106.508022 91.583362,105.183828 C91.3239037,105.030751 91.0194526,104.971303 90.7210006,105.012917 L85.1613946,105.770873 C84.1295605,105.910574 83.6451384,107.108442 84.294534,107.91247 C85.3818591,109.25747 86.9836016,111.015631 88.628837,112.012863 C91.5488675,113.782914 112.338525,119.848048 114.948105,120.635727 C117.557685,121.421921 119.808823,121.350584 121.972975,123.037408 C122.886329,123.747806 124.179121,124.086657 125.05498,124.406187 C126.11231,124.79111 126.862189,124.77922 127.286621,124.710856 C127.577574,124.661811 127.868528,124.712342 128.132485,124.84164 C129.894702,125.697685 128.546419,122.869468 127.810037,121.470965"/>
    <path fill="#AEB8FD" d="M80.5024565,66.7816555 C82.6830673,62.3275378 85.6587852,62.4191549 87.6806713,63.9552682 C89.7025573,65.4913814 90.3508069,67.2153098 90.4056931,68.7071414 C90.4843137,70.8372389 90.2870204,71.6908048 90.0941772,73.8132675 C89.8434812,76.5510916 89.2975868,79.2431072 89.0246396,81.9763505 C88.7413085,84.8042648 88.7146071,87.6535564 88.7917444,90.4936863 C88.8021283,90.9487179 88.8184457,91.4022225 88.8347632,91.8572541 C88.8985498,93.5414816 88.9905212,95.2302901 89.302037,96.8855056 C89.6209699,98.5819488 90.1698311,100.232583 90.9248861,101.777858 C91.0702602,102.071033 92.6041048,104.362987 91.7348273,104.937121 C90.8803839,105.502093 87.2890514,109.543934 83.8089745,107.355812 C79.4166014,104.593557 79.1377205,82.4374899 79.1184362,79.3728981 C79.0961851,75.7341725 78.4331014,71.0021496 80.5024565,66.7816555 Z"/>
    <path fill="#9BA9EA" d="M128.616615,142 L71.3849083,142 C70.0690968,142 69,140.881789 69,139.501597 C69,138.119808 70.0690968,137 71.3849083,137 L128.616615,137 C129.932426,137 131,138.119808 131,139.501597 C131,140.881789 129.932426,142 128.616615,142"/>
    <path fill="#9BA9EA" d="M55.5282538 208C55.3119686 208 55.0908411 207.974293 54.8745559 207.919856 53.5268083 207.581133 52.7262301 206.283702 53.0861675 205.021051L72.0337227 138.755308C72.3936601 137.492657 73.7801453 136.742627 75.1278929 137.08135 76.4756404 137.420073 77.2746045 138.717504 76.9130531 139.980155L57.968726 206.245898C57.663667 207.302896 56.6435754 208 55.5282538 208M104.528367 208C104.312081 208 104.090954 207.974293 103.873055 207.919856 102.525308 207.581133 101.726344 206.283702 102.086281 205.021051L121.033831 138.755308C121.393769 137.492657 122.778639 136.742627 124.128001 137.08135 125.474134 137.420073 126.274712 138.717504 125.91316 139.980155L106.967224 206.245898C106.663779 207.302896 105.643688 208 104.528367 208"/>
    <path fill="url(#mi-opportunities-ans-a)" d="M182.864701,95.0719205 C182.591114,94.4224539 181.947648,94 181.235403,94 L158.75232,94 C158.283095,94 157.833739,94.1834142 157.502071,94.5096508 L129.518198,122.038312 C129.012291,122.534433 128.860977,123.280116 129.134564,123.92808 C129.406623,124.577546 130.051617,125 130.76539,125 L153.248474,125 C153.717699,125 154.167055,124.816586 154.495666,124.491853 L182.482596,96.9646945 C182.986975,96.4685742 183.139817,95.721387 182.864701,95.0719205"/>
    <path fill="#E2EBF4" d="M130.068427,125 L111.776035,125 C110.794987,125 110,124.222717 110,123.265019 C110,122.305819 110.794987,121.527032 111.776035,121.527032 L129.331873,121.527032 L156.967286,94.5085418 C157.660785,93.8304861 158.786376,93.8304861 159.479875,94.5085418 C160.173375,95.1865975 160.173375,96.2841156 159.479875,96.9636747 L131.323185,124.491834 C130.991043,124.816579 130.538961,125 130.068427,125"/>
  </g>
</svg>
