<svg xmlns="http://www.w3.org/2000/svg" width="196" height="187" viewBox="0 0 196 187">
  <g fill="none" fill-rule="evenodd">
    <path fill="#F56CBA" d="M138,17.0440494 C124.231272,7.50711688 107.852477,2 90.2698891,2 C53.8204825,2 22.5301884,25.645755 9,59.4717833 L90.2698891,97 L138,17.0440494 Z"/>
    <path fill="#ED0789" d="M88,93.8961982 L0.0882869325,90.8049979 C0.0303486331,91.8470739 0,92.8541222 0,93.8961982 C0,145.296526 39.3897667,187 88,187 C136.579885,187 176,145.296526 176,93.8961982 C176,83.446248 174.361174,73.3757653 171.315275,64 L88,93.8961982 Z"/>
    <path fill="#F5688A" d="M196,48.2382567 C189.53247,28.1578692 176.625228,11.1893462 159.865285,0 L112,78 L196,48.2382567 Z"/>
    <path fill="#920456" d="M13.3198694,63 C8.90167279,73.1657143 6.33986128,84.2914286 6,95.9742857 L97,99 L13.3198694,63 Z"/>
  </g>
</svg>
