
<svg width="60px" height="60px" viewBox="0 0 60 60" version="1.1" xmlns="http://www.w3.org/2000/svg" xmlns:xlink="http://www.w3.org/1999/xlink">
    <!-- Generator: Sketch 47.1 (45422) - http://www.bohemiancoding.com/sketch -->
    <desc>Created with Sketch.</desc>
    <defs>
        <linearGradient x1="50%" y1="0%" x2="50%" y2="100%" id="linearGradient-1">
            <stop stop-color="#020202" offset="0%"></stop>
            <stop stop-color="#010101" offset="100%"></stop>
        </linearGradient>
        <linearGradient x1="1.30141901%" y1="50%" x2="100%" y2="50%" id="linearGradient-2">
            <stop stop-color="#EC008C" offset="0%"></stop>
            <stop stop-color="#FC6767" offset="100%"></stop>
        </linearGradient>
    </defs>
    <g id="Page-1" stroke="none" stroke-width="1" fill="none" fill-rule="evenodd">
        <g id="3.0-Market-Insights_CopyNotReady" transform="translate(-245.000000, -1064.000000)" fill-rule="nonzero">
            <g id="noun_1326820_cc" transform="translate(245.000000, 1064.000000)">
                <g id="Group">
                    <path d="M12.7272727,49.9090909 L12.6363636,49.9090909 C14.1818182,48.9090909 15.2727273,47.1818182 15.2727273,45.1818182 C15.2727273,42.0909091 12.7272727,39.5454545 9.63636364,39.5454545 C6.54545455,39.5454545 4,42.0909091 4,45.1818182 C4,47.1818182 5.09090909,48.9090909 6.63636364,49.9090909 L6.36363636,49.9090909 C2.81818182,49.9090909 0,52.8181818 0,56.2727273 L0,59.0909091 C0,59.6363636 0.363636364,60 0.909090909,60 L18.1818182,60 C18.7272727,60 19.0909091,59.6363636 19.0909091,59.0909091 L19.0909091,56.2727273 C19.0909091,52.8181818 16.2727273,49.9090909 12.7272727,49.9090909 Z M9.63636364,41.4545455 C11.7272727,41.4545455 13.4545455,43.1818182 13.4545455,45.2727273 C13.4545455,47.3636364 11.7272727,49.0909091 9.63636364,49.0909091 C7.54545455,49.0909091 5.81818182,47.2727273 5.81818182,45.1818182 C5.81818182,43.0909091 7.54545455,41.4545455 9.63636364,41.4545455 Z M17.2727273,58.1818182 L1.81818182,58.1818182 L1.81818182,56.2727273 C1.81818182,53.7272727 3.90909091,51.7272727 6.36363636,51.7272727 L12.7272727,51.7272727 C15.2727273,51.7272727 17.2727273,53.8181818 17.2727273,56.2727273 L17.2727273,58.1818182 Z" id="Shape" fill="#010101"></path>
                    <path d="M33.1818182,49.9090909 L33.0909091,49.9090909 C34.6363636,48.9090909 35.7272727,47.1818182 35.7272727,45.1818182 C35.7272727,42.0909091 33.1818182,39.5454545 30.0909091,39.5454545 C27,39.5454545 24.4545455,42.0909091 24.4545455,45.1818182 C24.4545455,47.1818182 25.5454545,48.9090909 27.0909091,49.9090909 L26.8181818,49.9090909 C23.2727273,49.9090909 20.4545455,52.8181818 20.4545455,56.2727273 L20.4545455,59.0909091 C20.4545455,59.6363636 20.8181818,60 21.3636364,60 L38.6363636,60 C39.1818182,60 39.5454545,59.6363636 39.5454545,59.0909091 L39.5454545,56.2727273 C39.5454545,52.8181818 36.7272727,49.9090909 33.1818182,49.9090909 Z M30.0909091,41.4545455 C32.1818182,41.4545455 33.9090909,43.1818182 33.9090909,45.2727273 C33.9090909,47.3636364 32.1818182,49.0909091 30.0909091,49.0909091 C28,49.0909091 26.2727273,47.3636364 26.2727273,45.2727273 C26.2727273,43.0909091 28,41.4545455 30.0909091,41.4545455 Z M37.7272727,58.1818182 L22.2727273,58.1818182 L22.2727273,56.2727273 C22.2727273,53.7272727 24.3636364,51.7272727 26.8181818,51.7272727 L33.1818182,51.7272727 C35.7272727,51.7272727 37.7272727,53.8181818 37.7272727,56.2727273 L37.7272727,58.1818182 Z" id="Shape" fill="#010101"></path>
                    <path d="M53.6363636,49.9090909 L53.5454545,49.9090909 C55.0909091,48.9090909 56.1818182,47.1818182 56.1818182,45.1818182 C56.1818182,42.0909091 53.6363636,39.5454545 50.5454545,39.5454545 C47.4545455,39.5454545 44.9090909,42.0909091 44.9090909,45.1818182 C44.9090909,47.1818182 46,48.9090909 47.5454545,49.9090909 L47.2727273,49.9090909 C43.7272727,49.9090909 40.9090909,52.8181818 40.9090909,56.2727273 L40.9090909,59.0909091 C40.9090909,59.6363636 41.2727273,60 41.8181818,60 L59.0909091,60 C59.6363636,60 60,59.6363636 60,59.0909091 L60,56.2727273 C60,52.8181818 57.0909091,49.9090909 53.6363636,49.9090909 Z M50.5454545,41.4545455 C52.6363636,41.4545455 54.3636364,43.1818182 54.3636364,45.2727273 C54.3636364,47.3636364 52.6363636,49.0909091 50.5454545,49.0909091 C48.4545455,49.0909091 46.7272727,47.3636364 46.7272727,45.2727273 C46.7272727,43.0909091 48.3636364,41.4545455 50.5454545,41.4545455 Z M58.1818182,58.1818182 L42.7272727,58.1818182 L42.7272727,56.2727273 C42.7272727,53.7272727 44.8181818,51.7272727 47.2727273,51.7272727 L53.6363636,51.7272727 C56.1818182,51.7272727 58.1818182,53.8181818 58.1818182,56.2727273 L58.1818182,58.1818182 Z" id="Shape" fill="#010101"></path>
                    <path d="M30,31.1818182 C38.6363636,31.1818182 45.6363636,24.1818182 45.6363636,15.5454545 C45.6363636,6.90909091 38.6363636,0 30,0 C21.3636364,0 14.3636364,7 14.3636364,15.6363636 C14.3636364,24.2727273 21.3636364,31.1818182 30,31.1818182 Z M30,1.81818182 C37.6363636,1.81818182 43.8181818,8 43.8181818,15.6363636 C43.8181818,23.2727273 37.6363636,29.4545455 30,29.4545455 C22.3636364,29.4545455 16.1818182,23.2727273 16.1818182,15.6363636 C16.1818182,8 22.3636364,1.81818182 30,1.81818182 Z" id="Shape" fill="url(#linearGradient-1)"></path>
                    <path d="M29.0909091,24.2727273 L29.0909091,27.2727273 C29.0909091,27.8181818 29.4545455,28.1818182 30,28.1818182 C30.5454545,28.1818182 30.9090909,27.8181818 30.9090909,27.2727273 L30.9090909,24.3636364 C35,23.9090909 38.2727273,20.6363636 38.7272727,16.5454545 L41.6363636,16.5454545 C42.1818182,16.5454545 42.5454545,16.1818182 42.5454545,15.6363636 C42.5454545,15.0909091 42.1818182,14.7272727 41.6363636,14.7272727 L38.7272727,14.7272727 C38.2727273,10.6363636 35,7.36363636 30.9090909,6.90909091 L30.9090909,4 C30.9090909,3.45454545 30.5454545,3.09090909 30,3.09090909 C29.4545455,3.09090909 29.0909091,3.45454545 29.0909091,4 L29.0909091,6.90909091 C25,7.36363636 21.7272727,10.6363636 21.2727273,14.7272727 L18.3636364,14.7272727 C17.8181818,14.7272727 17.4545455,15.0909091 17.4545455,15.6363636 C17.4545455,16.1818182 17.8181818,16.5454545 18.3636364,16.5454545 L21.2727273,16.5454545 C21.7272727,20.6363636 25,23.9090909 29.0909091,24.2727273 Z M29.0909091,8.72727273 L29.0909091,11.5454545 C29.0909091,12.0909091 29.4545455,12.4545455 30,12.4545455 C30.5454545,12.4545455 30.9090909,12.0909091 30.9090909,11.5454545 L30.9090909,8.72727273 C34,9.09090909 36.4545455,11.5454545 36.9090909,14.6363636 L34.0909091,14.6363636 C33.5454545,14.6363636 33.1818182,15 33.1818182,15.5454545 C33.1818182,16.0909091 33.5454545,16.4545455 34.0909091,16.4545455 L36.9090909,16.4545455 C36.5454545,19.5454545 34.0909091,22 30.9090909,22.3636364 L30.9090909,19.5454545 C30.9090909,19 30.5454545,18.6363636 30,18.6363636 C29.4545455,18.6363636 29.0909091,19 29.0909091,19.5454545 L29.0909091,22.3636364 C26,22 23.5454545,19.5454545 23.0909091,16.4545455 L25.9090909,16.4545455 C26.4545455,16.4545455 26.8181818,16.0909091 26.8181818,15.5454545 C26.8181818,15 26.4545455,14.6363636 25.9090909,14.6363636 L23.0909091,14.6363636 C23.5454545,11.6363636 26,9.18181818 29.0909091,8.72727273 Z" id="Shape" fill="url(#linearGradient-2)"></path>
                    <path d="M2.09090909,40.1818182 C2.63636364,40.1818182 3,39.8181818 3,39.2727273 L3,16.8181818 L9,16.8181818 L6.27272727,19.3636364 C5.90909091,19.7272727 5.90909091,20.2727273 6.18181818,20.6363636 C6.54545455,21 7.09090909,21 7.45454545,20.7272727 L11.9090909,16.6363636 C11.9090909,16.6363636 11.9090909,16.6363636 11.9090909,16.6363636 C12.2727273,16.2727273 12.1818182,15.8181818 12.1818182,16 C12.1818182,15.7272727 12.0909091,15.4545455 11.9090909,15.3636364 L7.45454545,11.3636364 C7.09090909,11 6.54545455,11.0909091 6.18181818,11.4545455 C5.81818182,11.8181818 5.90909091,12.3636364 6.27272727,12.7272727 L8.90909091,15.0909091 L2.09090909,15.0909091 C1.54545455,15.0909091 1.18181818,15.4545455 1.18181818,16 L1.18181818,39.3636364 C1.18181818,39.8181818 1.54545455,40.1818182 2.09090909,40.1818182 Z" id="Shape" fill="url(#linearGradient-2)"></path>
                    <path d="M46.9090909,15.9090909 C46.9090909,16.2727273 47.0909091,16.4545455 47.1818182,16.5454545 C47.1818182,16.5454545 47.1818182,16.5454545 47.1818182,16.5454545 L51.6363636,20.6363636 C51.8181818,20.8181818 52,20.9090909 52.2727273,20.9090909 C52.5454545,20.9090909 52.7272727,20.8181818 52.9090909,20.6363636 C53.2727273,20.2727273 53.2727273,19.7272727 52.8181818,19.3636364 L50.0909091,16.8181818 L57,16.8181818 L57,39.2727273 C57,39.8181818 57.3636364,40.1818182 57.9090909,40.1818182 C58.4545455,40.1818182 58.8181818,39.8181818 58.8181818,39.2727273 L58.8181818,15.9090909 C58.8181818,15.3636364 58.4545455,15 57.9090909,15 L50.1818182,15 L52.8181818,12.6363636 C53.1818182,12.2727273 53.1818182,11.7272727 52.9090909,11.3636364 C52.5454545,11 52,11 51.6363636,11.2727273 L47.1818182,15.2727273 C46.8181818,15.5454545 46.9090909,16.0909091 46.9090909,15.9090909 C46.9090909,15.9090909 46.9090909,15.9090909 46.9090909,15.9090909 Z" id="Shape" fill="url(#linearGradient-2)"></path>
                </g>
            </g>
        </g>
    </g>
</svg>
