<svg xmlns="http://www.w3.org/2000/svg" width="310" height="339" viewBox="0 0 310 339">
  <defs>
    <linearGradient id="mi-trends-landing-a" x1="1.301%" y1="50%" y2="50%">
      <stop offset="0%" stop-color="#EC008C"/>
      <stop offset="100%" stop-color="#FC6767"/>
    </linearGradient>
    <linearGradient id="mi-trends-landing-b" x1="41.351%" x2="63.193%" y1="9.559%" y2="142.849%">
      <stop offset="0%" stop-color="#FFF"/>
      <stop offset="31.7%" stop-color="#F5F9FF"/>
      <stop offset="86.01%" stop-color="#D9E8FF"/>
      <stop offset="100%" stop-color="#D1E3FF"/>
    </linearGradient>
    <linearGradient id="mi-trends-landing-c" x1="40.967%" x2="62.808%" y1="9.556%" y2="142.846%">
      <stop offset="0%" stop-color="#FFF"/>
      <stop offset="31.7%" stop-color="#F5F9FF"/>
      <stop offset="86.01%" stop-color="#D9E8FF"/>
      <stop offset="100%" stop-color="#D1E3FF"/>
    </linearGradient>
    <linearGradient id="mi-trends-landing-d" x1="-66.938%" x2="120.447%" y1="66.775%" y2="34.006%">
      <stop offset="0%" stop-color="#596A87"/>
      <stop offset="35.97%" stop-color="#4F607E"/>
      <stop offset="97.63%" stop-color="#334664"/>
      <stop offset="100%" stop-color="#324563"/>
    </linearGradient>
    <linearGradient id="mi-trends-landing-e" x1="72.216%" x2="30.039%" y1="85.109%" y2="-9.464%">
      <stop offset="0%" stop-color="#596A87"/>
      <stop offset="39.08%" stop-color="#4F6283"/>
      <stop offset="100%" stop-color="#36507A"/>
    </linearGradient>
    <linearGradient id="mi-trends-landing-f" x1="50.677%" x2="51.177%" y1="26.192%" y2="80.171%">
      <stop offset="0%" stop-color="#FFEFE6"/>
      <stop offset="100%" stop-color="#FFD7C2"/>
    </linearGradient>
    <linearGradient id="mi-trends-landing-g" x1="7.276%" x2="105.457%" y1="48.548%" y2="52.331%">
      <stop offset="0%" stop-color="#FFEFE6"/>
      <stop offset="100%" stop-color="#FFD7C2"/>
    </linearGradient>
    <linearGradient id="mi-trends-landing-h" x1="12.895%" x2="95.686%" y1="48.85%" y2="50.598%">
      <stop offset="0%" stop-color="#FFEFE6"/>
      <stop offset="100%" stop-color="#FFD7C2"/>
    </linearGradient>
    <linearGradient id="mi-trends-landing-i" x1="20.081%" x2="89.15%" y1="13.972%" y2="76.625%">
      <stop offset="0%" stop-color="#FFF"/>
      <stop offset="31.7%" stop-color="#F5F9FF"/>
      <stop offset="86.01%" stop-color="#D9E8FF"/>
      <stop offset="100%" stop-color="#D1E3FF"/>
    </linearGradient>
    <linearGradient id="mi-trends-landing-j" x1="3.461%" x2="35.684%" y1="103.423%" y2="60.126%">
      <stop offset="0%" stop-color="#FFEFE6"/>
      <stop offset="99.46%" stop-color="#FCC9AE"/>
    </linearGradient>
    <linearGradient id="mi-trends-landing-k" x1="9.729%" x2="101.984%" y1="48.414%" y2="52.687%">
      <stop offset="0%" stop-color="#FFEFE6"/>
      <stop offset="100%" stop-color="#FFD7C2"/>
    </linearGradient>
    <linearGradient id="mi-trends-landing-l" x1=".114%" x2="100.31%" y1="50.017%" y2="50.017%">
      <stop offset="0%" stop-color="#596A87"/>
      <stop offset="39.08%" stop-color="#4F6283"/>
      <stop offset="100%" stop-color="#36507A"/>
    </linearGradient>
    <linearGradient id="mi-trends-landing-m" x1="-301.88%" x2="121.825%" y1="35.969%" y2="52.834%">
      <stop offset="0%" stop-color="#FFEFE6"/>
      <stop offset="100%" stop-color="#FFD7C2"/>
    </linearGradient>
    <linearGradient id="mi-trends-landing-n" x1="5.696%" x2="77.456%" y1="1.67%" y2="84.547%">
      <stop offset="0%" stop-color="#FFF"/>
      <stop offset="31.7%" stop-color="#F5F9FF"/>
      <stop offset="86.01%" stop-color="#D9E8FF"/>
      <stop offset="100%" stop-color="#D1E3FF"/>
    </linearGradient>
    <linearGradient id="mi-trends-landing-o" x1="-.845%" x2="100.398%" y1="51.26%" y2="51.26%">
      <stop offset="0%" stop-color="#FA9343"/>
      <stop offset="100%" stop-color="#E01F4D"/>
    </linearGradient>
    <linearGradient id="mi-trends-landing-p" x1="34.088%" x2="67.816%" y1="19.585%" y2="78.993%">
      <stop offset="0%" stop-color="#FFF"/>
      <stop offset="31.7%" stop-color="#F5F9FF"/>
      <stop offset="86.01%" stop-color="#D9E8FF"/>
      <stop offset="100%" stop-color="#D1E3FF"/>
    </linearGradient>
    <linearGradient id="mi-trends-landing-q" x1="-5.135%" x2="62.7%" y1="9.054%" y2="79.429%">
      <stop offset="0%" stop-color="#FFF"/>
      <stop offset="31.7%" stop-color="#F5F9FF"/>
      <stop offset="86.01%" stop-color="#D9E8FF"/>
      <stop offset="100%" stop-color="#D1E3FF"/>
    </linearGradient>
    <linearGradient id="mi-trends-landing-r" x1="-.314%" x2="99.523%" y1="50.001%" y2="50.001%">
      <stop offset="0%" stop-color="#FA9343"/>
      <stop offset="100%" stop-color="#E01F4D"/>
    </linearGradient>
    <linearGradient id="mi-trends-landing-s" x1="-2.197%" x2="71.615%" y1="4.798%" y2="87.638%">
      <stop offset="0%" stop-color="#FFF"/>
      <stop offset="31.7%" stop-color="#F5F9FF"/>
      <stop offset="86.01%" stop-color="#D9E8FF"/>
      <stop offset="100%" stop-color="#D1E3FF"/>
    </linearGradient>
    <linearGradient id="mi-trends-landing-t" x1="35.063%" x2="60.714%" y1="15.827%" y2="82.884%">
      <stop offset="0%" stop-color="#FFF"/>
      <stop offset="31.7%" stop-color="#F5F9FF"/>
      <stop offset="86.01%" stop-color="#D9E8FF"/>
      <stop offset="100%" stop-color="#D1E3FF"/>
    </linearGradient>
    <linearGradient id="mi-trends-landing-u" x1="85.526%" x2="2.689%" y1="73.986%" y2="35.012%">
      <stop offset="0%" stop-color="#FFF"/>
      <stop offset="31.7%" stop-color="#F5F9FF"/>
      <stop offset="86.01%" stop-color="#D9E8FF"/>
      <stop offset="100%" stop-color="#D1E3FF"/>
    </linearGradient>
    <linearGradient id="mi-trends-landing-v" x1="50.873%" x2="47.37%" y1="19.276%" y2="108.078%">
      <stop offset="0%" stop-color="#FFEFE6"/>
      <stop offset="100%" stop-color="#FFD7C2"/>
    </linearGradient>
    <linearGradient id="mi-trends-landing-w" x1="100.126%" x2="10.54%" y1="46.031%" y2="54.675%">
      <stop offset="0%" stop-color="#FFEFE6"/>
      <stop offset="100%" stop-color="#FFD7C2"/>
    </linearGradient>
    <linearGradient id="mi-trends-landing-x" x1="22.8%" x2="67.029%" y1="-17.56%" y2="169.894%">
      <stop offset="0%" stop-color="#FA9343"/>
      <stop offset="100%" stop-color="#E01F4D"/>
    </linearGradient>
    <linearGradient id="mi-trends-landing-y" x1="-106.278%" x2="170.727%" y1="1.963%" y2="82.16%">
      <stop offset="0%" stop-color="#FFF"/>
      <stop offset="31.7%" stop-color="#F5F9FF"/>
      <stop offset="86.01%" stop-color="#D9E8FF"/>
      <stop offset="100%" stop-color="#D1E3FF"/>
    </linearGradient>
    <linearGradient id="mi-trends-landing-z" x1="16.701%" x2="77.007%" y1="80.014%" y2="5.745%">
      <stop offset="0%" stop-color="#596A87"/>
      <stop offset="35.97%" stop-color="#4F607E"/>
      <stop offset="97.63%" stop-color="#334664"/>
      <stop offset="100%" stop-color="#324563"/>
    </linearGradient>
    <linearGradient id="mi-trends-landing-A" x1="19.173%" x2="69.118%" y1="-84.039%" y2="92.73%">
      <stop offset="0%" stop-color="#FA9343"/>
      <stop offset="100%" stop-color="#E01F4D"/>
    </linearGradient>
    <linearGradient id="mi-trends-landing-B" x1="99.896%" x2="4.874%" y1="47.605%" y2="55.607%">
      <stop offset="0%" stop-color="#FFEFE6"/>
      <stop offset="100%" stop-color="#FFD7C2"/>
    </linearGradient>
    <linearGradient id="mi-trends-landing-C" x1="51.343%" x2="33.718%" y1="24.107%" y2="81.356%">
      <stop offset="0%" stop-color="#FFEFE6"/>
      <stop offset="100%" stop-color="#FFD7C2"/>
    </linearGradient>
    <linearGradient id="mi-trends-landing-D" x1="89.008%" x2="4.61%" y1="54.292%" y2="45.05%">
      <stop offset="0%" stop-color="#FFEFE6"/>
      <stop offset="100%" stop-color="#FFD7C2"/>
    </linearGradient>
    <linearGradient id="mi-trends-landing-E" x1="60.737%" x2="39.373%" y1="17.223%" y2="106.026%">
      <stop offset="0%" stop-color="#FFEFE6"/>
      <stop offset="100%" stop-color="#FFD7C2"/>
    </linearGradient>
    <linearGradient id="mi-trends-landing-F" x1="70.44%" x2="26.021%" y1="85.007%" y2="36.902%">
      <stop offset="0%" stop-color="#FFEFE6"/>
      <stop offset="99.46%" stop-color="#FCC9AE"/>
    </linearGradient>
    <linearGradient id="mi-trends-landing-G" x1="3.595%" x2="82.04%" y1="-4.966%" y2="91.288%">
      <stop offset="0%" stop-color="#FFF"/>
      <stop offset="31.7%" stop-color="#F5F9FF"/>
      <stop offset="86.01%" stop-color="#D9E8FF"/>
      <stop offset="100%" stop-color="#D1E3FF"/>
    </linearGradient>
    <linearGradient id="mi-trends-landing-H" x1="93.129%" x2="-1.027%" y1="45.552%" y2="58.224%">
      <stop offset="0%" stop-color="#FFEFE6"/>
      <stop offset="100%" stop-color="#FFD7C2"/>
    </linearGradient>
    <linearGradient id="mi-trends-landing-I" x1="332.386%" x2="-18.275%" y1="8.514%" y2="60.253%">
      <stop offset="0%" stop-color="#FFEFE6"/>
      <stop offset="100%" stop-color="#FFD7C2"/>
    </linearGradient>
    <linearGradient id="mi-trends-landing-J" x1="102.284%" x2="7.228%" y1="38.931%" y2="72.396%">
      <stop offset="0%" stop-color="#FFEFE6"/>
      <stop offset="100%" stop-color="#FFD7C2"/>
    </linearGradient>
    <linearGradient id="mi-trends-landing-K" x1="22.728%" x2="66.956%" y1="-17.562%" y2="169.894%">
      <stop offset="0%" stop-color="#FA9343"/>
      <stop offset="100%" stop-color="#E01F4D"/>
    </linearGradient>
    <linearGradient id="mi-trends-landing-L" x1="49.749%" x2="49.749%" y1="66.499%" y2="100.557%">
      <stop offset="0%" stop-color="#BA586E"/>
      <stop offset="100%" stop-color="#BA815D"/>
    </linearGradient>
    <linearGradient id="mi-trends-landing-M" x1="49.69%" x2="49.69%" y1="66.499%" y2="100.557%">
      <stop offset="0%" stop-color="#BA586E"/>
      <stop offset="100%" stop-color="#BA815D"/>
    </linearGradient>
    <linearGradient id="mi-trends-landing-N" x1="-36.534%" x2="66.872%" y1="-88.886%" y2="77.228%">
      <stop offset="0%" stop-color="#BA586E"/>
      <stop offset="100%" stop-color="#BA815D"/>
    </linearGradient>
    <linearGradient id="mi-trends-landing-O" x1="-18.812%" x2="63.461%" y1="-1396.622%" y2="333.175%">
      <stop offset="0%" stop-color="#BA586E"/>
      <stop offset="100%" stop-color="#D19C79"/>
    </linearGradient>
    <linearGradient id="mi-trends-landing-P" x1="18.453%" x2="70.53%" y1="298.171%" y2="-117.341%">
      <stop offset="0%" stop-color="#596A87"/>
      <stop offset="35.97%" stop-color="#4F607E"/>
      <stop offset="97.63%" stop-color="#334664"/>
      <stop offset="100%" stop-color="#324563"/>
    </linearGradient>
    <linearGradient id="mi-trends-landing-Q" x1="19.393%" x2="70.266%" y1="458.576%" y2="-222.906%">
      <stop offset="0%" stop-color="#596A87"/>
      <stop offset="35.97%" stop-color="#4F607E"/>
      <stop offset="97.63%" stop-color="#334664"/>
      <stop offset="100%" stop-color="#324563"/>
    </linearGradient>
    <linearGradient id="mi-trends-landing-R" x1="35.657%" x2="60.174%" y1="-27.239%" y2="105.132%">
      <stop offset="0%" stop-color="#596A87"/>
      <stop offset="39.08%" stop-color="#4F6283"/>
      <stop offset="100%" stop-color="#36507A"/>
    </linearGradient>
    <linearGradient id="mi-trends-landing-S" x1="30.495%" x2="62.515%" y1=".492%" y2="85.139%">
      <stop offset="0%" stop-color="#FFF"/>
      <stop offset="31.7%" stop-color="#F5F9FF"/>
      <stop offset="86.01%" stop-color="#D9E8FF"/>
      <stop offset="100%" stop-color="#D1E3FF"/>
    </linearGradient>
  </defs>
  <g fill="none" fill-rule="evenodd" transform="translate(0 -6)">
    <g transform="translate(50)">
      <polygon fill="#E2EBF4" points="0 81 155 81 155 6 0 6"/>
      <polygon fill="#FFF" points="5 76 150 76 150 11 5 11"/>
      <polygon fill="#FA4112" points="90 72 91 72 91 25 90 25"/>
      <polygon fill="#E2EBF4" points="13 71 14 71 14 51 13 51"/>
      <polygon fill="#E2EBF4" points="39 71 40 71 40 55 39 55"/>
      <polygon fill="#E2EBF4" points="64 72 65 72 65 39 64 39"/>
      <polygon fill="#E2EBF4" points="114 72 115 72 115 34 114 34"/>
      <polygon fill="#E2EBF4" points="140 71 141 71 141 46 140 46"/>
      <path fill="#AEB8FD" d="M141,60 C134.395818,60 131.100354,52.6928417 127.912972,45.6274681 C124.806142,38.7421684 121.595308,31.6221656 115.397961,31.6221656 C109.200613,31.6221656 105.98876,38.7421684 102.882949,45.6274681 C99.695567,52.6928417 96.4001036,60 89.7959215,60 C83.1937786,60 79.8972956,52.6928417 76.7109332,45.6274681 C73.6041024,38.7421684 70.3942884,31.6221656 64.1979607,31.6221656 C58.001633,31.6221656 54.7897797,38.7421684 51.6839686,45.6274681 C48.4965866,52.6928417 45.2011232,60 38.5979607,60 C31.9958179,60 28.6993348,52.6928417 25.5129725,45.6274681 C22.4071613,38.7421684 19.1963277,31.6221656 13,31.6221656 L13,31 C19.6021428,31 22.8986259,38.3071583 26.0849883,45.3725319 C29.1907994,52.2578316 32.401633,59.3778344 38.5979607,59.3778344 C44.7942884,59.3778344 48.0061417,52.2578316 51.1119528,45.3725319 C54.2993348,38.3071583 57.5947983,31 64.1979607,31 C70.8001036,31 74.0965866,38.3071583 77.282949,45.3725319 C80.3887601,52.2578316 83.5995937,59.3778344 89.7959215,59.3778344 C95.9932688,59.3778344 99.2051221,52.2578316 102.310933,45.3725319 C105.498315,38.3071583 108.793779,31 115.397961,31 C122.001123,31 125.297606,38.3071583 128.484988,45.3725319 C131.590799,52.2578316 134.802653,59.3778344 141,59.3778344 L141,60 Z"/>
      <path fill="url(#mi-trends-landing-a)" d="M16 17.5004572C16 18.3288632 15.3288632 19 14.4995428 19 13.6711368 19 13 18.3288632 13 17.5004572 13 16.6720512 13.6711368 16 14.4995428 16 15.3288632 16 16 16.6720512 16 17.5004572M22 17.5004572C22 18.3288632 21.3288632 19 20.4995428 19 19.6720512 19 19 18.3288632 19 17.5004572 19 16.6720512 19.6720512 16 20.4995428 16 21.3288632 16 22 16.6720512 22 17.5004572M28 17.5004572C28 18.3288632 27.3288632 19 26.4995428 19 25.6711368 19 25 18.3288632 25 17.5004572 25 16.6720512 25.6711368 16 26.4995428 16 27.3288632 16 28 16.6720512 28 17.5004572"/>
      <polygon points="116 69.771 70.368 0 25 82.154 100.152 89"/>
    </g>
    <g fill-rule="nonzero" transform="translate(179 47)">
      <path fill="url(#mi-trends-landing-b)" d="M101.105128,286.380422 C101.105128,286.380422 81.2871795,295.438471 80.9512821,295.606213 C80.6153846,295.773955 79.4397436,297.786855 79.4397436,297.786855 L115.548718,297.786855 C115.548718,297.786855 115.380769,292.083638 113.869231,286.380422 L101.105128,286.380422 Z"/>
      <path fill="url(#mi-trends-landing-c)" d="M57.4384615,286.380422 C57.4384615,286.380422 37.6205128,295.438471 37.2846154,295.606213 C36.9487179,295.773955 35.7730769,297.786855 35.7730769,297.786855 L71.8820513,297.786855 C71.8820513,297.786855 71.7141026,292.083638 70.2025641,286.380422 L57.4384615,286.380422 Z"/>
      <path fill="url(#mi-trends-landing-d)" d="M55.5910256,143.800008 C55.5910256,143.800008 48.8730769,215.928923 55.9269231,287.051388 L70.5384615,287.051388 C70.5384615,287.051388 74.7371795,214.58699 87.8371795,143.800008 L55.5910256,143.800008 Z"/>
      <path fill="url(#mi-trends-landing-e)" d="M73.0576923,145.477425 C73.0576923,145.477425 79.4397436,223.812781 99.9294872,287.051388 L114.205128,287.051388 C114.205128,287.051388 102.952564,212.57409 102.112821,142.793558 L73.0576923,145.477425 Z"/>
      <path fill="url(#mi-trends-landing-f)" d="M10.5807692,55.2324107 C10.5807692,55.2324107 6.88589744,50.3679025 5.54230769,48.8582275 C4.19871795,47.1808109 1.17564103,43.4904943 0.671794872,43.4904943 C0.167948718,43.4904943 -0.335897436,44.8324276 0.671794872,47.0130692 C1.67948718,49.1937109 3.52692308,51.7098358 3.69487179,52.2130608 C3.86282051,52.7162858 2.18333333,59.5936939 3.35897436,62.6130438 C4.7025641,65.4646521 6.38205128,65.6323938 6.38205128,65.6323938 L10.5807692,55.2324107 Z"/>
      <path fill="url(#mi-trends-landing-g)" d="M41.3153846,88.2775182 L15.7871795,64.2904605 C15.7871795,64.2904605 15.4512821,58.2517606 14.7794872,56.574344 C13.9397436,54.8969274 12.4282051,53.3872524 12.0923077,52.0453191 C11.7564103,50.7033858 11.5884615,48.0195192 11.0846154,48.0195192 C10.5807692,48.0195192 9.23717949,49.1937109 9.23717949,51.2066108 C9.23717949,53.2195107 9.57307692,54.2259607 9.90897436,54.8969274 C10.0769231,55.567894 6.88589744,59.5936939 6.21410256,61.9420772 C5.37435897,64.2904605 4.53461538,65.2969104 5.87820513,66.8065854 C7.22179487,68.1485187 8.56538462,67.8130354 9.90897436,68.987227 C11.2525641,70.3291603 39.3,106.896843 40.6435897,106.729101 C41.9871795,106.561359 46.1858974,103.877493 46.1858974,103.877493 L41.3153846,88.2775182 Z"/>
      <path fill="url(#mi-trends-landing-h)" d="M114.373077,113.941993 C114.373077,113.941993 104.128205,161.916108 103.960256,162.922558 C103.792308,163.929008 105.471795,172.483833 105.807692,172.987058 C106.14359,173.490283 112.357692,174.496733 112.861538,174.496733 C113.365385,174.496733 114.037179,173.825766 113.701282,172.483833 C113.365385,171.309641 112.861538,166.612875 112.861538,165.941908 C112.861538,165.270941 114.037179,161.245141 114.373077,159.567725 C114.708974,157.722566 113.701282,154.367733 113.701282,154.367733 C113.701282,154.367733 128.480769,116.458117 128.480769,114.948443 C128.312821,113.606509 127.305128,110.419418 127.305128,110.419418 L114.373077,113.941993 Z"/>
      <path fill="url(#mi-trends-landing-i)" d="M61.1333333,63.9549771 L42.9948718,88.4452599 L47.025641,103.542009 L60.6294872,97.1678263 C60.6294872,97.0000846 62.4769231,74.5227019 61.1333333,63.9549771 Z"/>
      <polygon fill="url(#mi-trends-landing-j)" points="93.212 42.484 89.685 59.258 76.753 68.484 73.226 61.439 74.065 52.045"/>
      <path fill="url(#mi-trends-landing-k)" d="M66.3397436,20.1744033 C66.3397436,20.1744033 62.6448718,30.4066447 62.9807692,37.7872778 C63.3166667,45.167911 66.1717949,52.8840274 68.5230769,53.5549941 C70.874359,54.2259607 81.4551282,53.5549941 86.8294872,50.0324192 C92.5397436,46.3421026 93.3794872,42.148561 93.3794872,42.148561 C93.3794872,42.148561 100.433333,38.9614694 101.944872,27.8905197 C103.45641,16.81957 93.7153846,6.08410361 83.974359,7.25829524 C74.5692308,8.26474522 68.8589744,12.9615118 66.3397436,20.1744033 Z"/>
      <path fill="url(#mi-trends-landing-l)" d="M86.325641,21.1808532 C85.15,30.9098696 89.0128205,36.4453445 95.5628205,40.4711444 C95.5628205,40.4711444 102.952564,38.7937278 105.639744,30.0711613 C108.326923,21.3485949 103.792308,14.4711867 100.769231,12.7937701 C99.0897436,6.41958693 93.7153846,0.0454037583 83.6384615,0.380887083 C73.5615385,0.716370408 69.6987179,3.73572033 66.8435897,7.76152023 C63.9884615,11.7873201 58.95,13.9679617 58.1102564,14.1357034 C57.2705128,14.3034451 57.2705128,23.1937532 65.3320513,23.1937532 C65.3320513,23.1937532 68.5230769,23.0260115 70.874359,20.8453699 C70.874359,20.8453699 69.3628205,24.2002031 71.5461538,26.5485864 C72.2179487,27.2195531 76.7525641,23.3614948 86.325641,21.1808532 Z"/>
      <path fill="url(#mi-trends-landing-m)" d="M92.2038462,39.1292111 C92.2038462,39.1292111 93.5474359,31.748578 96.9064103,32.0840613 C100.265385,32.4195446 101.608974,36.6130862 99.9294872,40.3034027 C98.25,43.9937193 92.2038462,44.8324276 92.2038462,42.8195277 C92.0358974,40.8066277 92.2038462,39.1292111 92.2038462,39.1292111 Z"/>
      <path fill="url(#mi-trends-landing-n)" d="M89.8525641,57.9162773 L77.424359,65.4646521 L73.5615385,58.4195023 L61.3012821,63.7872355 C61.3012821,63.7872355 55.9269231,107.232326 55.5910256,143.632267 C55.5910256,143.632267 69.1948718,155.877408 102.112821,142.458075 C102.112821,142.458075 104.296154,99.1807263 110.00641,67.4775521 C109.838462,67.6452937 94.2192308,59.4259523 89.8525641,57.9162773 Z"/>
      <polygon fill="url(#mi-trends-landing-o)" points="74.065 65.968 75.913 71.336 78.936 71.336 82.295 66.471 77.424 65.465"/>
      <polygon fill="url(#mi-trends-landing-p)" points="77.424 65.465 83.638 71.336 93.212 59.258 90.692 54.058"/>
      <polygon fill="url(#mi-trends-landing-q)" points="73.729 56.407 77.424 65.465 71.714 69.826 70.203 59.929"/>
      <polygon fill="url(#mi-trends-landing-r)" points="75.913 71.336 66.676 135.077 72.218 142.458 79.608 134.574 78.936 71.336"/>
      <path fill="url(#mi-trends-landing-s)" d="M113.197436,112.767801 L100.601282,92.9742847 C100.601282,92.9742847 98.5858974,72.8452853 109.838462,67.8130354 L126.633333,108.406518 C126.633333,108.406518 121.091026,110.754901 113.197436,112.767801 Z"/>
      <path fill="url(#mi-trends-landing-t)" d="M109.838462,109.077484 L113.533333,116.625859 C113.533333,116.625859 125.961538,113.941993 130.328205,111.258126 L125.625641,101.52911 C125.79359,101.361368 118.403846,102.871043 109.838462,109.077484 Z"/>
      <path fill="url(#mi-trends-landing-u)" d="M45.85,83.7484933 L40.6435897,87.9420349 L44.5064103,107.064584 L54.4153846,101.52911 C54.4153846,101.361368 50.5525641,90.4581598 45.85,83.7484933 Z"/>
      <path fill="url(#mi-trends-landing-v)" d="M3.52692308,52.3808024 C3.02307692,52.3808024 0,60.4324022 0,61.7743355 C0,63.1162688 2.01538462,65.6323938 3.02307692,65.8001354 C4.03076923,65.9678771 6.88589744,66.6388437 7.72564103,64.2904605 C8.56538462,61.9420772 9.23717949,60.0969189 8.90128205,58.2517606 C8.56538462,56.2388607 5.71025641,52.8840274 3.52692308,52.3808024 Z"/>
    </g>
    <g fill-rule="nonzero" transform="translate(25 92)">
      <path fill="url(#mi-trends-landing-w)" d="M103.904779,224.573167 L113.457316,252.785996 L140.774217,252.785996 C140.774217,252.785996 137.757627,249.59526 137.254862,249.259393 C136.752097,248.923526 120.831203,243.213786 120.831203,243.213786 L113.792492,224.069367 L103.904779,224.573167 Z"/>
      <path fill="url(#mi-trends-landing-x)" d="M107.424135,252.785996 L142.617689,252.785996 C142.617689,252.785996 139.265922,248.923526 138.260392,248.419725 C137.254862,247.915925 127.534737,244.893121 127.534737,244.893121 C127.534737,244.893121 125.020912,246.908324 122.842263,250.434927 L108.93243,251.442528 L107.424135,252.785996 Z"/>
      <polygon fill="url(#mi-trends-landing-a)" points="79.604 133.217 125.021 230.619 100.721 230.619 89.66 185.781 44.243 134.393"/>
      <polygon fill="url(#mi-trends-landing-y)" points="69.717 179.567 61.17 179.567 62.846 236.664 68.041 236.664"/>
      <polygon fill="url(#mi-trends-landing-a)" points="87.984 248.756 71.728 242.374 69.717 233.977 65.359 233.977 61.17 233.977 58.991 242.374 42.735 248.756 38.88 252.786 65.359 252.786 91.838 252.786"/>
      <polygon fill="url(#mi-trends-landing-z)" points="74.074 183.429 56.812 183.429 51.952 169.323 78.767 169.323"/>
      <path fill="url(#mi-trends-landing-A)" d="M65.6946347,154.376962 L36.1990844,154.376962 C36.1990844,156.728031 36.5342611,160.758435 38.0425563,163.613305 C39.5508515,166.468174 45.4164439,169.994778 47.0923274,169.994778 C48.768211,169.994778 65.5270463,169.994778 65.5270463,169.994778 C65.5270463,169.994778 81.7831166,169.994778 83.4590002,169.994778 C85.1348837,169.994778 91.0004761,166.468174 92.5087713,163.613305 C94.0170665,160.758435 94.3522432,156.728031 94.3522432,154.376962 L65.6946347,154.376962 Z"/>
      <path fill="url(#mi-trends-landing-B)" d="M88.8218275,224.573167 L81.6155283,252.785996 L113.792492,252.785996 C113.792492,252.785996 110.775902,249.59526 110.273137,249.259393 C109.770372,248.923526 93.8494781,243.213786 93.8494781,243.213786 L99.5474821,224.069367 L88.8218275,224.573167 Z"/>
      <path fill="url(#mi-trends-landing-a)" d="M39.0480864 132.209739C39.0480864 132.209739 35.1935543 148.667223 46.9247391 154.544895 58.6559238 160.422568 98.8771287 177.215919 98.8771287 177.215919L83.9617652 227.09217 107.591723 227.09217C107.591723 227.09217 118.149789 176.376251 118.484966 175.200717 118.820143 173.857249 118.484966 169.490977 113.792492 165.628507 109.100018 161.766036 78.4313496 134.560808 78.4313496 134.560808L39.0480864 132.209739zM12.7367149 21.7094925C13.5746567 28.7626997 10.893243 35.3121064 6.87112251 37.9990425 3.01659037 40.8539121 3.18417872 45.7239838 5.53041567 49.9223214 8.04424098 54.1206591 6.87112251 58.1510632 2.84900201 61.8456003-1.17311848 65.5401375-2.51382531 81.661754 15.9208936 79.6465519 34.3556125 77.6313499 34.0204358 61.3417998 42.7350302 57.9831297 51.617213 54.6244596 55.8069218 51.6016565 54.8013917 44.0446487 53.7958616 36.487641 52.2875664 29.2665002 45.0812672 25.9078301 38.377733 22.7170935 16.088482 16.8394208 12.7367149 21.7094925z"/>
      <path fill="url(#mi-trends-landing-C)" d="M108.094488,58.1510632 C108.094488,58.1510632 111.94902,54.6244596 113.289727,53.448925 C114.630434,52.2733905 117.647024,49.5864544 118.149789,49.5864544 C118.652554,49.5864544 118.820143,50.761989 117.647024,52.441324 C116.473906,54.1206591 114.462846,55.9679276 114.295257,56.4717281 C114.127669,56.8075952 114.462846,63.0211349 112.95455,65.2042704 C111.446255,67.5553395 109.93796,67.2194725 109.93796,67.2194725 L108.094488,58.1510632 Z"/>
      <path fill="url(#mi-trends-landing-D)" d="M77.2582311,81.325887 L102.396484,64.8684034 C102.396484,64.8684034 103.569603,59.8303983 104.407544,58.6548637 C105.245486,57.4793292 106.92137,56.3037946 107.424135,55.2961936 C107.9269,54.2885926 108.429665,51.9375235 108.93243,51.9375235 C109.267607,51.9375235 110.440725,53.2809915 109.93796,54.9603266 C109.602783,56.6396617 109.100018,57.4793292 108.93243,57.9831297 C108.597253,58.4869302 110.775902,62.3494008 111.111079,64.5325364 C111.446255,66.715672 111.94902,67.723273 110.775902,68.5629406 C109.435195,69.5705416 108.429665,68.8988076 106.92137,69.7384751 C105.580663,70.5781426 76.4202893,97.4475035 75.2471708,97.1116365 C74.0740524,96.7757695 70.8898736,93.9208999 70.8898736,93.9208999 L77.2582311,81.325887 Z"/>
      <path fill="url(#mi-trends-landing-E)" d="M114.630434,56.8075952 C114.965611,56.8075952 116.306318,64.1966694 116.138729,65.3722039 C115.971141,66.5477385 113.792492,68.395007 112.95455,68.395007 C112.116609,68.395007 109.602783,68.5629406 109.267607,66.379805 C108.93243,64.1966694 108.597253,62.6852679 109.267607,61.0059328 C109.770372,59.3265977 112.619374,56.8075952 114.630434,56.8075952 Z"/>
      <path fill="url(#mi-trends-landing-d)" d="M57.1476286,51.76959 L75.4147592,80.654153 L83.7941769,73.6009457 C83.7941769,73.6009457 87.4811207,79.8144854 86.9783556,94.5926339 L73.5712873,97.615437 L57.315217,82.5014215 L57.1476286,51.76959 Z"/>
      <polygon fill="url(#mi-trends-landing-F)" points="29.328 39.51 32.009 50.258 33.685 64.197 50.444 69.403 55.975 60.166 47.763 49.922 45.752 45.388"/>
      <path fill="url(#mi-trends-landing-G)" d="M29.830727,59.3265977 L47.9302692,65.3722039 L53.4606849,56.4717281 L81.1127632,135.736343 C81.1127632,135.736343 68.5436367,139.262946 54.96898,135.736343 L29.830727,59.3265977 Z"/>
      <path fill="url(#mi-trends-landing-a)" d="M50.9468595,24.2284951 C50.9468595,24.2284951 56.8124519,22.213293 56.6448636,14.8242188 C56.4772752,7.267211 46.9247391,3.06887336 41.226735,1.5574718 C35.528731,0.0460702538 33.0149057,19.6942904 50.9468595,24.2284951 Z"/>
      <path fill="url(#mi-trends-landing-H)" d="M41.8970884,8.27481203 C41.8970884,8.27481203 51.1144479,12.8090167 52.7903314,21.0377585 C54.466215,29.2665002 54.8013917,35.815907 54.6338033,37.831109 C54.6338033,39.8463111 50.9468595,46.7315848 48.2654459,47.2353853 C45.5840322,47.7391859 34.3556125,48.4109199 28.3224318,38.8387101 C19.1050723,38.6707766 14.7477751,26.5795641 19.1050723,16.3356203 C23.2947812,6.09167646 34.8583776,3.74060738 41.8970884,8.27481203 Z"/>
      <path fill="url(#mi-trends-landing-a)" d="M41.5619117,1.72540531 C46.7571507,4.07647439 52.2875664,21.3736255 24.3003113,35.815907 C24.3003113,35.815907 15.2505402,34.9762394 13.0718916,25.0681626 C10.893243,14.6562852 17.9319539,6.42754347 23.9651346,2.90093985 C29.6631386,-0.625663769 37.874968,0.0460702538 41.5619117,1.72540531 Z"/>
      <path fill="url(#mi-trends-landing-I)" d="M28.1548434,34.3045054 C28.1548434,34.3045054 25.3058414,29.9382343 22.1216627,30.7779018 C18.937484,31.4496358 19.1050723,35.815907 22.4568394,38.8387101 C25.8086065,41.8615132 29.830727,40.8539121 29.830727,39.5104441 C29.9983153,38.166976 28.1548434,34.3045054 28.1548434,34.3045054 Z"/>
      <path fill="url(#mi-trends-landing-d)" d="M31.6741989 48.5788534L63.1808094 139.766747C63.1808094 139.766747 49.9413294 143.461284 31.6741989 139.766747 31.6741989 139.766747 32.1769639 126.164133 37.0370262 110.71425 37.0370262 110.71425 12.2339498 64.7004699 12.7367149 63.5249354 13.4070683 62.5173344 24.635488 54.6244596 31.6741989 48.5788534zM46.9247391 48.0750529C46.9247391 48.0750529 69.0464018 106.347979 80.7775865 138.759146L86.9783556 133.21734 69.0464018 81.1579535C69.0464018 81.1579535 70.0519319 73.2650787 69.3815785 71.9216107 68.8788134 70.5781426 56.9800403 51.9375235 56.9800403 51.9375235L46.9247391 48.0750529z"/>
      <path fill="url(#mi-trends-landing-J)" d="M34.8583776,116.256056 L78.9341146,116.256056 C78.9341146,116.256056 78.2637612,112.057719 78.0961729,112.057719 C77.9285845,111.889785 70.0519319,107.019713 69.2139901,106.85178 C68.3760483,106.683846 57.315217,111.050117 57.315217,111.050117 L36.1990844,108.027314 L34.8583776,116.256056 Z"/>
      <path fill="url(#mi-trends-landing-d)" d="M12.7367149,63.5249354 C12.7367149,63.5249354 7.03871086,89.5546288 6.87112251,116.256056 L35.8639077,116.256056 L38.8804981,104.836578 C38.8804981,104.836578 26.8141366,105.172445 21.4513093,106.012112 L27.1493133,83.1731555 C25.8086065,74.6085468 18.937484,63.5249354 12.7367149,63.5249354 Z"/>
      <path fill="url(#mi-trends-landing-K)" d="M80.4424098,252.785996 L115.635964,252.785996 C115.635964,252.785996 112.284197,248.923526 111.278667,248.419725 C110.273137,247.915925 100.553012,244.893121 100.553012,244.893121 C100.553012,244.893121 98.039187,246.908324 95.8605384,250.434927 L81.950705,251.442528 L80.4424098,252.785996 Z"/>
    </g>
    <g fill-rule="nonzero" transform="translate(0 170)">
      <g transform="translate(11.183 49.738)">
        <polygon fill="url(#mi-trends-landing-L)" points="180.509 124.921 187.044 124.921 187.044 .213 170.455 .213"/>
        <polygon fill="url(#mi-trends-landing-M)" points="6.914 124.921 .379 124.921 .379 .213 16.968 .213"/>
      </g>
      <rect width="194.373" height="81.63" x="7.708" y="43.246" fill="url(#mi-trends-landing-N)"/>
      <rect width="208.951" height="6.705" x=".335" y="38.385" fill="url(#mi-trends-landing-O)"/>
      <g transform="translate(121.774)">
        <rect width="31.837" height="2.85" x=".211" y="35.703" fill="url(#mi-trends-landing-P)"/>
        <rect width="53.453" height="2.85" x="26.519" y="35.703" fill="url(#mi-trends-landing-Q)"/>
        <polygon fill="url(#mi-trends-landing-R)" points="79.971 36.541 26.519 36.541 34.059 0 87.679 0"/>
        <path fill="url(#mi-trends-landing-S)" d="M63.2150538,18.2704762 C62.8799283,21.287619 60.031362,23.6342857 57.1827957,23.6342857 C54.3342294,23.6342857 52.155914,21.287619 52.6586022,18.2704762 C53.1612903,15.2533333 55.8422939,12.9066667 58.6908602,12.9066667 C61.5394265,12.9066667 63.5501792,15.2533333 63.2150538,18.2704762 Z"/>
      </g>
    </g>
  </g>
</svg>
