
<svg width="60px" height="60px" viewBox="0 0 60 60" version="1.1" xmlns="http://www.w3.org/2000/svg" xmlns:xlink="http://www.w3.org/1999/xlink">
    <!-- Generator: Sketch 47.1 (45422) - http://www.bohemiancoding.com/sketch -->
    <desc>Created with Sketch.</desc>
    <defs>
        <linearGradient x1="50%" y1="0%" x2="50%" y2="100%" id="linearGradient-1">
            <stop stop-color="#020202" offset="0%"></stop>
            <stop stop-color="#010101" offset="100%"></stop>
        </linearGradient>
        <linearGradient x1="1.30141901%" y1="50%" x2="100%" y2="50%" id="linearGradient-2">
            <stop stop-color="#EC008C" offset="0%"></stop>
            <stop stop-color="#FC6767" offset="100%"></stop>
        </linearGradient>
    </defs>
    <g id="Page-1" stroke="none" stroke-width="1" fill="none" fill-rule="evenodd">
        <g id="3.0-Market-Insights_CopyNotReady" transform="translate(-245.000000, -1558.000000)" fill-rule="nonzero">
            <g id="noun_1327034_cc" transform="translate(245.000000, 1558.000000)">
                <g id="Group">
                    <path d="M28.9253731,4.20895522 L32.4179104,7.70149254 C32.7761194,8.05970149 33.3134328,8.05970149 33.6716418,7.70149254 C34.0298507,7.34328358 34.0298507,6.80597015 33.6716418,6.44776119 L31.7910448,4.56716418 C33.761194,4.74626866 35.7313433,5.19402985 37.6119403,5.82089552 C37.0746269,7.07462687 36.8059701,8.41791045 36.8059701,9.76119403 C36.8955224,13.9701493 40.2985075,20.4179104 42.8955224,24.7164179 C41.1940299,25.4328358 40.2089552,26.5970149 40.2089552,28.0298507 C40.2089552,30.2686567 42.9850746,31.9701493 46.4776119,31.9701493 C49.9701493,31.9701493 52.7462687,30.2686567 52.7462687,28.0298507 C52.7462687,26.6865672 51.761194,25.4328358 50.0597015,24.7164179 C50.8656716,23.3731343 51.761194,21.761194 52.6567164,20.1492537 C53.3731343,22.0298507 53.9104478,24 54.1791045,25.9701493 C54.2686567,26.4179104 54.6268657,26.7761194 55.0746269,26.7761194 C55.0746269,26.7761194 55.1641791,26.7761194 55.1641791,26.7761194 C55.6119403,26.6865672 55.9701493,26.238806 55.880597,25.7910448 C55.5223881,23.1044776 54.7164179,20.5970149 53.5522388,18.1791045 C54.9850746,15.1343284 56.1492537,12.0895522 56.1492537,9.85074627 C56.3283582,4.3880597 51.9402985,0 46.5671642,0 C43.5223881,0 40.3880597,1.43283582 38.5074627,4.20895522 C36.6268657,3.58208955 34.6567164,3.04477612 32.6865672,2.86567164 L34.8358209,1.70149254 C35.2835821,1.43283582 35.4626866,0.895522388 35.1940299,0.447761194 C35.0149254,0 34.4776119,-0.0895522388 34.0298507,0.0895522388 C33.761194,0.268656716 29.0149254,2.7761194 28.8358209,3.04477612 L28.8358209,3.04477612 C28.5671642,3.31343284 28.5671642,3.85074627 28.9253731,4.20895522 Z M51.0447761,28.0298507 C51.0447761,29.0149254 49.0746269,30.1791045 46.5671642,30.1791045 C43.9701493,30.1791045 42.0895522,29.0149254 42.0895522,28.0298507 C42.0895522,27.4029851 42.8059701,26.6865672 43.9701493,26.3283582 C45.0447761,28.0298507 45.761194,29.1044776 45.9402985,29.2835821 C46.119403,29.5522388 46.3880597,29.641791 46.6567164,29.641791 C46.6567164,29.641791 46.6567164,29.641791 46.6567164,29.641791 C46.9253731,29.641791 47.1940299,29.4626866 47.3731343,29.2835821 C47.4626866,29.1044776 48.2686567,28.0298507 49.2537313,26.3283582 C50.3283582,26.6865672 51.0447761,27.4029851 51.0447761,28.0298507 Z M46.5671642,1.79104478 C50.9552239,1.79104478 54.5373134,5.37313433 54.5373134,9.76119403 C54.5373134,11.8208955 53.3731343,14.7761194 51.9402985,17.8208955 C51.9402985,17.8208955 51.9402985,17.8208955 51.9402985,17.8208955 C50.0597015,21.5820896 47.7313433,25.3432836 46.5671642,27.1343284 C44.5074627,24 38.6865672,14.7761194 38.5970149,9.76119403 C38.5074627,5.37313433 42.1791045,1.79104478 46.5671642,1.79104478 Z" id="Shape" fill="url(#linearGradient-1)"></path>
                    <path d="M58.9253731,32.9552239 L56.1492537,29.0149254 C56.1492537,29.0149254 56.1492537,29.0149254 56.1492537,29.0149254 C55.7910448,28.5671642 55.1641791,28.5671642 54.8059701,28.9253731 L51.3134328,32.4179104 C50.9552239,32.7761194 50.9552239,33.3134328 51.3134328,33.6716418 C51.6716418,34.0298507 52.2089552,34.0298507 52.5671642,33.6716418 L54.4477612,31.7910448 C53.3731343,43.3432836 44.5074627,52.8358209 32.9552239,54.4477612 C32.5074627,54.5373134 32.1492537,54.9850746 32.1492537,55.4328358 C32.238806,55.880597 32.5970149,56.238806 33.0447761,56.238806 C33.0447761,56.238806 33.1343284,56.238806 33.1343284,56.238806 C45.4925373,54.5373134 54.9850746,44.4179104 56.1492537,32.1492537 L57.4925373,33.9402985 C57.761194,34.2985075 58.3880597,34.3880597 58.7462687,34.119403 C59.1044776,33.9402985 59.1940299,33.4029851 58.9253731,32.9552239 Z" id="Shape" fill="url(#linearGradient-2)"></path>
                    <path d="M30.1791045,54.9850746 L26.238806,51.0447761 C25.880597,50.6865672 25.3432836,50.6865672 24.9850746,51.0447761 C24.6268657,51.4029851 24.6268657,51.9402985 24.9850746,52.2985075 L27.2238806,54.5373134 C15.9402985,53.5522388 6.53731343,44.7761194 4.8358209,33.4029851 C4.74626866,32.9552239 4.29850746,32.5970149 3.85074627,32.6865672 C3.40298507,32.7761194 3.04477612,33.2238806 3.13432836,33.6716418 C4.92537313,45.5820896 14.5970149,54.8059701 26.238806,56.3283582 L24,57.4925373 C23.5522388,57.6716418 23.3731343,58.2089552 23.641791,58.6567164 C23.8208955,59.1044776 24.358209,59.2835821 24.8059701,59.0149254 L30,56.4179104 C30,56.4179104 30,56.4179104 30,56.4179104 C30.4477612,56.0597015 30.5373134,55.3432836 30.1791045,54.9850746 Z" id="Shape" fill="url(#linearGradient-2)"></path>
                    <path d="M4.29850746,30.2686567 L7.97014925,26.5970149 C8.32835821,26.238806 8.32835821,25.7014925 7.97014925,25.3432836 C7.6119403,24.9850746 7.07462687,24.9850746 6.71641791,25.3432836 L4.65671642,27.4029851 C5.64179104,16.119403 14.0597015,6.80597015 25.3432836,4.92537313 C25.7910448,4.8358209 26.1492537,4.3880597 26.0597015,3.85074627 C25.9701493,3.31343284 25.5223881,2.95522388 25.0746269,3.04477612 C12.9850746,5.10447761 4.02985075,14.8656716 2.86567164,26.8656716 L1.6119403,24.9850746 C1.34328358,24.5373134 0.805970149,24.4477612 0.358208955,24.7164179 C0,24.9850746 -0.0895522388,25.6119403 0.179104478,25.9701493 L2.86567164,30.0895522 C2.86567164,30.0895522 2.86567164,30.0895522 2.86567164,30.0895522 C2.86567164,30.0895522 2.86567164,30.0895522 2.86567164,30.0895522 C3.2238806,30.5373134 3.85074627,30.6268657 4.29850746,30.2686567 Z" id="Shape" fill="url(#linearGradient-2)"></path>
                    <path d="M40.5671642,48 C40.8358209,48.358209 41.4626866,48.4477612 41.8208955,48.0895522 L46.119403,44.5970149 C46.119403,44.5970149 46.119403,44.5970149 46.119403,44.5970149 C46.2985075,44.4179104 46.3880597,44.1492537 46.3880597,43.9701493 C46.3880597,43.7014925 46.2089552,43.4328358 46.119403,43.3432836 C46.119403,43.3432836 46.119403,43.3432836 46.119403,43.3432836 L41.8208955,39.8507463 C41.4626866,39.5820896 40.8358209,39.5820896 40.5671642,39.9402985 C40.2985075,40.2985075 40.2985075,40.9253731 40.6567164,41.1940299 L42.9850746,42.9850746 L38.5074627,42.9850746 L38.5074627,24.9850746 C38.5074627,24.4477612 38.1492537,24.0895522 37.6119403,24.0895522 L33.4029851,24.0895522 C32.8656716,24.0895522 32.5074627,24.4477612 32.5074627,24.9850746 L32.5074627,42.9850746 L30.8059701,42.9850746 L30.8059701,29.9104478 C30.8059701,29.3731343 30.4477612,29.0149254 29.9104478,29.0149254 L25.7014925,29.0149254 C25.1641791,29.0149254 24.8059701,29.3731343 24.8059701,29.9104478 L24.8059701,42.9850746 L23.1044776,42.9850746 L23.1044776,33.761194 C23.1044776,33.2238806 22.7462687,32.8656716 22.2089552,32.8656716 L18.4477612,32.8656716 C17.9104478,32.8656716 17.5522388,33.2238806 17.5522388,33.761194 L17.5522388,42.9850746 L14.6865672,42.9850746 L14.6865672,19.6119403 L16.5671642,21.9402985 C16.9253731,22.2985075 17.4626866,22.3880597 17.8208955,22.0298507 C18.1791045,21.761194 18.2686567,21.1343284 17.9104478,20.7761194 L14.4179104,16.4776119 C14.4179104,16.4776119 14.4179104,16.4776119 14.4179104,16.4776119 C14.238806,16.2985075 14.0597015,16.2089552 13.7910448,16.2089552 C13.5223881,16.2089552 13.2537313,16.2985075 13.1641791,16.4776119 C13.1641791,16.4776119 13.1641791,16.4776119 13.1641791,16.4776119 L9.67164179,20.7761194 C9.40298507,21.1343284 9.40298507,21.761194 9.76119403,22.0298507 C10.119403,22.2985075 10.7462687,22.2985075 11.0149254,21.9402985 L12.8955224,19.6119403 L12.8955224,43.880597 C12.8955224,44.4179104 13.2537313,44.7761194 13.7910448,44.7761194 C24.4477612,44.7761194 31.9701493,44.7761194 42.9850746,44.7761194 L40.6567164,46.6567164 C40.2985075,47.0149254 40.2089552,47.5522388 40.5671642,48 Z M19.3432836,42.9850746 L19.3432836,34.5671642 L21.3134328,34.5671642 L21.3134328,42.9850746 L19.3432836,42.9850746 Z M26.6865672,42.9850746 L26.6865672,30.8059701 L29.1044776,30.8059701 L29.1044776,42.9850746 L26.6865672,42.9850746 Z M34.2985075,42.9850746 L34.2985075,25.880597 L36.7164179,25.880597 L36.7164179,42.9850746 L34.2985075,42.9850746 Z" id="Shape" fill="#010101"></path>
                    <path d="M46.5671642,14.6865672 C49.2537313,14.6865672 51.4925373,12.4477612 51.4925373,9.76119403 C51.4925373,7.07462687 49.2537313,4.8358209 46.5671642,4.8358209 C43.880597,4.8358209 41.641791,7.07462687 41.641791,9.76119403 C41.641791,12.4477612 43.7910448,14.6865672 46.5671642,14.6865672 Z M46.5671642,6.62686567 C48.2686567,6.62686567 49.7014925,8.05970149 49.7014925,9.76119403 C49.7014925,11.4626866 48.2686567,12.8955224 46.5671642,12.8955224 C44.8656716,12.8955224 43.4328358,11.4626866 43.4328358,9.76119403 C43.4328358,8.05970149 44.7761194,6.62686567 46.5671642,6.62686567 Z" id="Shape" fill="#010101"></path>
                </g>
            </g>
        </g>
    </g>
</svg>