<svg xmlns="http://www.w3.org/2000/svg" width="210" height="253" viewBox="0 0 210 253">
  <defs>
    <linearGradient id="mi-trends-ans-a" x1="100.126%" x2="10.54%" y1="46.031%" y2="54.675%">
      <stop offset="0%" stop-color="#FFEFE6"/>
      <stop offset="100%" stop-color="#FFD7C2"/>
    </linearGradient>
    <linearGradient id="mi-trends-ans-b" x1="22.8%" x2="67.029%" y1="-17.56%" y2="169.894%">
      <stop offset="0%" stop-color="#FA9343"/>
      <stop offset="100%" stop-color="#E01F4D"/>
    </linearGradient>
    <linearGradient id="mi-trends-ans-c" x1="1.301%" y1="50%" y2="50%">
      <stop offset="0%" stop-color="#EC008C"/>
      <stop offset="100%" stop-color="#FC6767"/>
    </linearGradient>
    <linearGradient id="mi-trends-ans-d" x1="-106.278%" x2="170.727%" y1="1.963%" y2="82.16%">
      <stop offset="0%" stop-color="#FFF"/>
      <stop offset="31.7%" stop-color="#F5F9FF"/>
      <stop offset="86.01%" stop-color="#D9E8FF"/>
      <stop offset="100%" stop-color="#D1E3FF"/>
    </linearGradient>
    <linearGradient id="mi-trends-ans-e" x1="16.701%" x2="77.007%" y1="80.014%" y2="5.745%">
      <stop offset="0%" stop-color="#596A87"/>
      <stop offset="35.97%" stop-color="#4F607E"/>
      <stop offset="97.63%" stop-color="#334664"/>
      <stop offset="100%" stop-color="#324563"/>
    </linearGradient>
    <linearGradient id="mi-trends-ans-f" x1="19.173%" x2="69.118%" y1="-84.039%" y2="92.73%">
      <stop offset="0%" stop-color="#FA9343"/>
      <stop offset="100%" stop-color="#E01F4D"/>
    </linearGradient>
    <linearGradient id="mi-trends-ans-g" x1="99.896%" x2="4.874%" y1="47.605%" y2="55.607%">
      <stop offset="0%" stop-color="#FFEFE6"/>
      <stop offset="100%" stop-color="#FFD7C2"/>
    </linearGradient>
    <linearGradient id="mi-trends-ans-h" x1="51.343%" x2="33.718%" y1="24.107%" y2="81.356%">
      <stop offset="0%" stop-color="#FFEFE6"/>
      <stop offset="100%" stop-color="#FFD7C2"/>
    </linearGradient>
    <linearGradient id="mi-trends-ans-i" x1="89.008%" x2="4.61%" y1="54.292%" y2="45.05%">
      <stop offset="0%" stop-color="#FFEFE6"/>
      <stop offset="100%" stop-color="#FFD7C2"/>
    </linearGradient>
    <linearGradient id="mi-trends-ans-j" x1="60.737%" x2="39.373%" y1="17.223%" y2="106.026%">
      <stop offset="0%" stop-color="#FFEFE6"/>
      <stop offset="100%" stop-color="#FFD7C2"/>
    </linearGradient>
    <linearGradient id="mi-trends-ans-k" x1="-66.938%" x2="120.447%" y1="66.775%" y2="34.006%">
      <stop offset="0%" stop-color="#596A87"/>
      <stop offset="35.97%" stop-color="#4F607E"/>
      <stop offset="97.63%" stop-color="#334664"/>
      <stop offset="100%" stop-color="#324563"/>
    </linearGradient>
    <linearGradient id="mi-trends-ans-l" x1="70.44%" x2="26.021%" y1="85.007%" y2="36.902%">
      <stop offset="0%" stop-color="#FFEFE6"/>
      <stop offset="99.46%" stop-color="#FCC9AE"/>
    </linearGradient>
    <linearGradient id="mi-trends-ans-m" x1="3.595%" x2="82.04%" y1="-4.966%" y2="91.288%">
      <stop offset="0%" stop-color="#FFF"/>
      <stop offset="31.7%" stop-color="#F5F9FF"/>
      <stop offset="86.01%" stop-color="#D9E8FF"/>
      <stop offset="100%" stop-color="#D1E3FF"/>
    </linearGradient>
    <linearGradient id="mi-trends-ans-n" x1="93.129%" x2="-1.027%" y1="45.552%" y2="58.224%">
      <stop offset="0%" stop-color="#FFEFE6"/>
      <stop offset="100%" stop-color="#FFD7C2"/>
    </linearGradient>
    <linearGradient id="mi-trends-ans-o" x1="332.386%" x2="-18.275%" y1="8.514%" y2="60.253%">
      <stop offset="0%" stop-color="#FFEFE6"/>
      <stop offset="100%" stop-color="#FFD7C2"/>
    </linearGradient>
    <linearGradient id="mi-trends-ans-p" x1="102.284%" x2="7.228%" y1="38.931%" y2="72.396%">
      <stop offset="0%" stop-color="#FFEFE6"/>
      <stop offset="100%" stop-color="#FFD7C2"/>
    </linearGradient>
    <linearGradient id="mi-trends-ans-q" x1="22.728%" x2="66.956%" y1="-17.562%" y2="169.894%">
      <stop offset="0%" stop-color="#FA9343"/>
      <stop offset="100%" stop-color="#E01F4D"/>
    </linearGradient>
    <linearGradient id="mi-trends-ans-r" x1="49.749%" x2="49.749%" y1="66.499%" y2="100.557%">
      <stop offset="0%" stop-color="#BA586E"/>
      <stop offset="100%" stop-color="#BA815D"/>
    </linearGradient>
    <linearGradient id="mi-trends-ans-s" x1="49.69%" x2="49.69%" y1="66.499%" y2="100.557%">
      <stop offset="0%" stop-color="#BA586E"/>
      <stop offset="100%" stop-color="#BA815D"/>
    </linearGradient>
    <linearGradient id="mi-trends-ans-t" x1="-36.534%" x2="66.872%" y1="-88.886%" y2="77.228%">
      <stop offset="0%" stop-color="#BA586E"/>
      <stop offset="100%" stop-color="#BA815D"/>
    </linearGradient>
    <linearGradient id="mi-trends-ans-u" x1="-18.812%" x2="63.461%" y1="-1396.622%" y2="333.175%">
      <stop offset="0%" stop-color="#BA586E"/>
      <stop offset="100%" stop-color="#D19C79"/>
    </linearGradient>
    <linearGradient id="mi-trends-ans-v" x1="18.453%" x2="70.53%" y1="298.171%" y2="-117.341%">
      <stop offset="0%" stop-color="#596A87"/>
      <stop offset="35.97%" stop-color="#4F607E"/>
      <stop offset="97.63%" stop-color="#334664"/>
      <stop offset="100%" stop-color="#324563"/>
    </linearGradient>
    <linearGradient id="mi-trends-ans-w" x1="19.393%" x2="70.266%" y1="458.576%" y2="-222.906%">
      <stop offset="0%" stop-color="#596A87"/>
      <stop offset="35.97%" stop-color="#4F607E"/>
      <stop offset="97.63%" stop-color="#334664"/>
      <stop offset="100%" stop-color="#324563"/>
    </linearGradient>
    <linearGradient id="mi-trends-ans-x" x1="35.657%" x2="60.174%" y1="-27.239%" y2="105.132%">
      <stop offset="0%" stop-color="#596A87"/>
      <stop offset="39.08%" stop-color="#4F6283"/>
      <stop offset="100%" stop-color="#36507A"/>
    </linearGradient>
    <linearGradient id="mi-trends-ans-y" x1="30.495%" x2="62.515%" y1=".492%" y2="85.139%">
      <stop offset="0%" stop-color="#FFF"/>
      <stop offset="31.7%" stop-color="#F5F9FF"/>
      <stop offset="86.01%" stop-color="#D9E8FF"/>
      <stop offset="100%" stop-color="#D1E3FF"/>
    </linearGradient>
  </defs>
  <g fill="none">
    <path fill="url(#mi-trends-ans-a)" d="M129.774194,224.503801 L139.32673,252.716629 L166.643631,252.716629 C166.643631,252.716629 163.627041,249.525893 163.124276,249.190026 C162.621511,248.854159 146.700617,243.14442 146.700617,243.14442 L139.661906,224 L129.774194,224.503801 Z"/>
    <path fill="url(#mi-trends-ans-b)" d="M133.774194,252.892875 L168.967748,252.892875 C168.967748,252.892875 165.615981,249.030404 164.610451,248.526604 C163.604921,248.022803 153.884796,245 153.884796,245 C153.884796,245 151.370971,247.015202 149.192322,250.541806 L135.282489,251.549407 L133.774194,252.892875 Z"/>
    <polygon fill="url(#mi-trends-ans-c)" points="105.135 133 150.552 230.401 126.251 230.401 115.191 185.563 69.774 134.176"/>
    <polygon fill="url(#mi-trends-ans-d)" points="95.321 180 86.774 180 88.45 237.097 93.645 237.097"/>
    <polygon fill="url(#mi-trends-ans-c)" points="113.878 248.778 97.622 242.397 95.61 234 91.253 234 87.063 234 84.885 242.397 68.629 248.778 64.774 252.809 91.253 252.809 117.732 252.809"/>
    <polygon fill="url(#mi-trends-ans-e)" points="99.896 183.106 82.634 183.106 77.774 169 104.588 169"/>
    <path fill="url(#mi-trends-ans-f)" d="M91.2697438,154 L61.7741935,154 C61.7741935,156.351069 62.1093703,160.381473 63.6176654,163.236343 C65.1259606,166.091212 70.991553,169.617816 72.6674365,169.617816 C74.3433201,169.617816 91.1021555,169.617816 91.1021555,169.617816 C91.1021555,169.617816 107.358226,169.617816 109.034109,169.617816 C110.709993,169.617816 116.575585,166.091212 118.08388,163.236343 C119.592176,160.381473 119.927352,156.351069 119.927352,154 L91.2697438,154 Z"/>
    <path fill="url(#mi-trends-ans-g)" d="M114.980493,224.503801 L107.774194,252.716629 L139.951157,252.716629 C139.951157,252.716629 136.934567,249.525893 136.431802,249.190026 C135.929037,248.854159 120.008143,243.14442 120.008143,243.14442 L125.706147,224 L114.980493,224.503801 Z"/>
    <path fill="url(#mi-trends-ans-c)" d="M65.3803313 132C65.3803313 132 61.5257992 148.457484 73.256984 154.335156 84.9881687 160.212829 125.209374 177.00618 125.209374 177.00618L110.29401 226.882431 133.923968 226.882431C133.923968 226.882431 144.482034 176.166512 144.817211 174.990977 145.152388 173.647509 144.817211 169.281238 140.124737 165.418768 135.432263 161.556297 104.763594 134.351069 104.763594 134.351069L65.3803313 132zM38.1670334 21.8588814C39.0049751 28.9120886 36.3235615 35.4614953 32.301441 38.1484314 28.4469089 41.003301 28.6144972 45.8733727 30.9607342 50.0717103 33.4745595 54.270048 32.301441 58.3004521 28.2793205 61.9949892 24.2572 65.6895264 22.9164932 81.8111429 41.3512121 79.7959408 59.785931 77.7807388 59.4507543 61.4911887 68.1653487 58.1325186 77.0475314 54.7738485 81.2372403 51.7510454 80.2317102 44.1940376 79.22618 36.6370299 77.7178849 29.4158891 70.5115857 26.057219 63.8080515 22.8664824 41.5188004 16.9888097 38.1670334 21.8588814z"/>
    <path fill="url(#mi-trends-ans-h)" d="M133.774194,58.5646088 C133.774194,58.5646088 137.628726,55.0380052 138.969433,53.8624706 C140.310139,52.6869361 143.32673,50 143.829495,50 C144.33226,50 144.499848,51.1755345 143.32673,52.8548696 C142.153611,54.5342047 140.142551,56.3814732 139.974963,56.8852737 C139.807374,57.2211407 140.142551,63.4346805 138.634256,65.617816 C137.125961,67.9688851 135.617665,67.6330181 135.617665,67.6330181 L133.774194,58.5646088 Z"/>
    <path fill="url(#mi-trends-ans-i)" d="M103.142551,81.3883635 L128.280804,64.9308799 C128.280804,64.9308799 129.453923,59.8928748 130.291864,58.7173402 C131.129806,57.5418057 132.80569,56.3662711 133.308455,55.3586701 C133.81122,54.3510691 134.313985,52 134.81675,52 C135.151927,52 136.325045,53.343468 135.82228,55.0228031 C135.487103,56.7021382 134.984338,57.5418057 134.81675,58.0456062 C134.481573,58.5494067 136.660222,62.4118773 136.995398,64.5950129 C137.330575,66.7781485 137.83334,67.7857495 136.660222,68.6254171 C135.319515,69.6330181 134.313985,68.9612841 132.80569,69.8009516 C131.464983,70.6406191 102.304609,97.50998 101.131491,97.174113 C99.9583723,96.838246 96.7741935,93.9833764 96.7741935,93.9833764 L103.142551,81.3883635 Z"/>
    <path fill="url(#mi-trends-ans-j)" d="M140.52405,57 C140.859226,57 142.199933,64.3890742 142.032345,65.5646088 C141.864756,66.7401433 139.686108,68.5874119 138.848166,68.5874119 C138.010224,68.5874119 135.496399,68.7553454 135.161222,66.5722098 C134.826046,64.3890742 134.490869,62.8776727 135.161222,61.1983376 C135.663987,59.5190026 138.512989,57 140.52405,57 Z"/>
    <path fill="url(#mi-trends-ans-k)" d="M82.7741935,52 L101.041324,80.884563 L109.420742,73.8313557 C109.420742,73.8313557 113.107686,80.0448954 112.604921,94.8230439 L99.1978522,97.845847 L82.9417819,82.7318315 L82.7741935,52 Z"/>
    <polygon fill="url(#mi-trends-ans-l)" points="54.774 40 57.456 50.748 59.131 64.686 75.89 69.892 81.421 60.656 73.209 50.412 71.198 45.878"/>
    <path fill="url(#mi-trends-ans-m)" d="M55.7741935,58.8548696 L73.8737358,64.9004758 L79.4041514,56 L107.05623,135.264615 C107.05623,135.264615 94.4871033,138.791218 80.9124466,135.264615 L55.7741935,58.8548696 Z"/>
    <path fill="url(#mi-trends-ans-c)" d="M76.709892,23.7537245 C76.709892,23.7537245 82.5754844,21.7385224 82.4078961,14.3494482 C82.2403077,6.79244042 72.6877715,2.59410278 66.9897675,1.08270123 C61.2917635,-0.428700322 58.7779382,19.2195198 76.709892,23.7537245 Z"/>
    <path fill="url(#mi-trends-ans-n)" d="M68.2660535,8.20472551 C68.2660535,8.20472551 77.483413,12.7389302 79.1592965,20.9676719 C80.83518,29.1964137 81.1703567,35.7458204 81.0027684,37.7610225 C81.0027684,39.7762246 77.3158246,46.6614983 74.6344109,47.1652988 C71.9529973,47.6690993 60.7245776,48.3408334 54.6913968,38.7686235 C45.4740374,38.60069 41.1167402,26.5094776 45.4740374,16.2655338 C49.6637462,6.02158994 61.2273426,3.67052086 68.2660535,8.20472551 Z"/>
    <path fill="url(#mi-trends-ans-c)" d="M67.6692193,1.36907672 C72.8644583,3.7201458 78.394874,21.0172969 50.4076189,35.4595784 C50.4076189,35.4595784 41.3578478,34.6199108 39.1791992,24.711834 C37.0005506,14.2999567 44.0392615,6.07121488 50.0724422,2.54461126 C55.7704462,-0.981992354 63.9822756,-0.310258332 67.6692193,1.36907672 Z"/>
    <path fill="url(#mi-trends-ans-o)" d="M54.0943901,34.6338557 C54.0943901,34.6338557 51.2453881,30.2675846 48.0612094,31.1072521 C44.8770307,31.7789861 45.044619,36.1452573 48.3963861,39.1680604 C51.7481532,42.1908635 55.7702737,41.1832624 55.7702737,39.8397944 C55.937862,38.4963263 54.0943901,34.6338557 54.0943901,34.6338557 Z"/>
    <path fill="url(#mi-trends-ans-k)" d="M57.7192189 49L89.2258294 140.187894C89.2258294 140.187894 75.9863495 143.882431 57.7192189 140.187894 57.7192189 140.187894 58.221984 126.58528 63.0820462 111.135397 63.0820462 111.135397 38.2789699 65.1216165 38.7817349 63.946082 39.4520884 62.938481 50.6805081 55.0456062 57.7192189 49zM72.7741935 48C72.7741935 48 94.8958562 106.272926 106.627041 138.684093L112.82781 133.142287 94.8958562 81.0829006C94.8958562 81.0829006 95.9013864 73.1900258 95.231033 71.8465578 94.7282679 70.5030898 82.8294948 51.8624706 82.8294948 51.8624706L72.7741935 48z"/>
    <path fill="url(#mi-trends-ans-p)" d="M60.7741935,116.408999 L104.849931,116.408999 C104.849931,116.408999 104.179577,112.210662 104.011989,112.210662 C103.8444,112.042728 95.9677478,107.172656 95.1298061,107.004723 C94.2918643,106.836789 83.231033,111.203061 83.231033,111.203061 L62.1149004,108.180257 L60.7741935,116.408999 Z"/>
    <path fill="url(#mi-trends-ans-k)" d="M38.6397859,64 C38.6397859,64 32.9417819,90.0296934 32.7741935,116.731121 L61.7669788,116.731121 L64.7835691,105.311642 C64.7835691,105.311642 52.7172076,105.647509 47.3543803,106.487177 L53.0523844,83.6482202 C51.7116775,75.0836114 44.840555,64 38.6397859,64 Z"/>
    <path fill="url(#mi-trends-ans-q)" d="M106.774194,252.892875 L141.967748,252.892875 C141.967748,252.892875 138.615981,249.030404 137.610451,248.526604 C136.604921,248.022803 126.884796,245 126.884796,245 C126.884796,245 124.370971,247.015202 122.192322,250.541806 L108.282489,251.549407 L106.774194,252.892875 Z"/>
    <polygon fill="url(#mi-trends-ans-r)" points="192.828 252.709 199.363 252.709 199.363 128 182.774 128"/>
    <polygon fill="url(#mi-trends-ans-s)" points="19.309 252.709 12.774 252.709 12.774 128 29.363 128"/>
    <rect width="194.373" height="81.63" x="8.774" y="121" fill="url(#mi-trends-ans-t)"/>
    <rect width="208.951" height="6.705" x=".774" y="116" fill="url(#mi-trends-ans-u)"/>
    <rect width="31.837" height="2.85" x="122.774" y="114" fill="url(#mi-trends-ans-v)"/>
    <rect width="53.453" height="2.85" x="148.774" y="114" fill="url(#mi-trends-ans-w)"/>
    <polygon fill="url(#mi-trends-ans-x)" points="202.227 114.541 148.774 114.541 156.315 78 209.935 78"/>
    <path fill="url(#mi-trends-ans-y)" d="M185.403087,96.3638095 C185.067961,99.3809524 182.219395,101.727619 179.370828,101.727619 C176.522262,101.727619 174.343947,99.3809524 174.846635,96.3638095 C175.349323,93.3466667 178.030327,91 180.878893,91 C183.727459,91 185.738212,93.3466667 185.403087,96.3638095 Z"/>
  </g>
</svg>
