<svg xmlns="http://www.w3.org/2000/svg" width="367" height="176" viewBox="0 0 367 176">
  <defs>
    <linearGradient id="mi-trends-adv-a" x1="1.301%" y1="50%" y2="50%">
      <stop offset="0%" stop-color="#EC008C"/>
      <stop offset="100%" stop-color="#FC6767"/>
    </linearGradient>
  </defs>
  <g fill="none" fill-rule="evenodd" transform="translate(0 -14)">
    <polygon fill="#E2EBF4" points="0 190 367 190 367 14 0 14"/>
    <polygon fill="#FFF" points="11 181 354 181 354 27 11 27"/>
    <polygon fill="url(#mi-trends-adv-a)" points="213 170 216 170 216 59 213 59"/>
    <polygon fill="#E2EBF4" points="31 168 34 168 34 120 31 120"/>
    <polygon fill="#E2EBF4" points="92 168 95 168 95 130 92 130"/>
    <polygon fill="#E2EBF4" points="151 170 154 170 154 92 151 92"/>
    <polygon fill="#E2EBF4" points="270 170 273 170 273 80 270 80"/>
    <polygon fill="#E2EBF4" points="332 168 335 168 335 109 332 109"/>
    <path fill="#AEB8FD" d="M334,142 C318.366663,142 310.565683,124.614003 303.020552,107.803286 C295.666101,91.4210214 288.065456,74.4803251 273.395173,74.4803251 C258.724889,74.4803251 251.121831,91.4210214 243.769793,107.803286 C236.224662,124.614003 228.423683,142 212.790345,142 C197.161835,142 189.358442,124.614003 181.815725,107.803286 C174.461274,91.4210214 166.863042,74.4803251 152.195173,74.4803251 C137.527303,74.4803251 129.924244,91.4210214 122.572207,107.803286 C115.027076,124.614003 107.226096,142 91.5951727,142 C75.9666627,142 68.1632692,124.614003 60.620552,107.803286 C53.2685148,91.4210214 45.6678695,74.4803251 31,74.4803251 L31,73 C46.62851,73 54.4319035,90.3859973 61.9746206,107.196714 C69.3266579,123.578979 76.9273031,140.519675 91.5951727,140.519675 C106.263042,140.519675 113.866101,123.578979 121.218138,107.196714 C128.763269,90.3859973 136.564249,73 152.195173,73 C167.823683,73 175.627076,90.3859973 183.169793,107.196714 C190.521831,123.578979 198.122476,140.519675 212.790345,140.519675 C227.460629,140.519675 235.063687,123.578979 242.415725,107.196714 C249.960856,90.3859973 257.761835,73 273.395173,73 C289.026096,73 296.82949,90.3859973 304.374621,107.196714 C311.726658,123.578979 319.329717,140.519675 334,140.519675 L334,142 Z"/>
    <path fill="url(#mi-trends-adv-a)" d="M38 41.5010667C38 43.434014 36.434014 45 34.4989333 45 32.565986 45 31 43.434014 31 41.5010667 31 39.5681195 32.565986 38 34.4989333 38 36.434014 38 38 39.5681195 38 41.5010667M52 41.5010667C52 43.434014 50.434014 45 48.4989333 45 46.5681195 45 45 43.434014 45 41.5010667 45 39.5681195 46.5681195 38 48.4989333 38 50.434014 38 52 39.5681195 52 41.5010667M66 41.5010667C66 43.434014 64.434014 45 62.4989333 45 60.565986 45 59 43.434014 59 41.5010667 59 39.5681195 60.565986 38 62.4989333 38 64.434014 38 66 39.5681195 66 41.5010667"/>
    <polygon points="275 164.629 166.687 0 59 193.847 237.382 210"/>
  </g>
</svg>
