<?xml version="1.0" encoding="UTF-8"?>
<svg width="200px" height="135px" viewBox="0 0 200 135" version="1.1" xmlns="http://www.w3.org/2000/svg" xmlns:xlink="http://www.w3.org/1999/xlink">
    <!-- Generator: Sketch 47.1 (45422) - http://www.bohemiancoding.com/sketch -->
    <title>Group 79</title>
    <desc>Created with Sketch.</desc>
    <defs>
        <polygon id="path-1" points="6.93069307 0 200 10.6591473 200 124.253409 6.93069307 134.912557"></polygon>
        <polygon id="path-2" points="0 0 7.92079208 2.63360076 7.92079208 132.278956 0 134.912557"></polygon>
        <polygon id="path-3" points="74.2574257 13.7410937 192.079208 19.4460514 192.079208 32.4789488 74.2574257 28.262241"></polygon>
        <filter x="-8.5%" y="-42.7%" width="117.0%" height="206.7%" filterUnits="objectBoundingBox" id="filter-4">
            <feOffset dx="0" dy="2" in="SourceAlpha" result="shadowOffsetOuter1"></feOffset>
            <feGaussianBlur stdDeviation="3" in="shadowOffsetOuter1" result="shadowBlurOuter1"></feGaussianBlur>
            <feComposite in="shadowBlurOuter1" in2="SourceAlpha" operator="out" result="shadowBlurOuter1"></feComposite>
            <feColorMatrix values="0 0 0 0 0.607843137   0 0 0 0 0.607843137   0 0 0 0 0.607843137  0 0 0 0.5 0" type="matrix" in="shadowBlurOuter1"></feColorMatrix>
        </filter>
        <linearGradient x1="2.21420599%" y1="58.5698485%" x2="100%" y2="58.5698485%" id="linearGradient-5">
            <stop stop-color="#4BAD00" offset="0%"></stop>
            <stop stop-color="#71DF55" offset="100%"></stop>
        </linearGradient>
        <polygon id="path-6" points="28.7128713 34.9773295 146.534653 38.0893265 146.534653 51.2168039 28.7128713 49.5411132"></polygon>
        <filter x="-8.5%" y="-49.3%" width="117.0%" height="223.2%" filterUnits="objectBoundingBox" id="filter-7">
            <feOffset dx="0" dy="2" in="SourceAlpha" result="shadowOffsetOuter1"></feOffset>
            <feGaussianBlur stdDeviation="3" in="shadowOffsetOuter1" result="shadowBlurOuter1"></feGaussianBlur>
            <feColorMatrix values="0 0 0 0 0.607843137   0 0 0 0 0.607843137   0 0 0 0 0.607843137  0 0 0 0.5 0" type="matrix" in="shadowBlurOuter1"></feColorMatrix>
        </filter>
        <polygon id="path-8" points="73.2673267 59.9611363 191.089109 60.664804 191.089109 72.9985624 73.2673267 73.70223"></polygon>
        <filter x="-8.5%" y="-58.2%" width="117.0%" height="245.5%" filterUnits="objectBoundingBox" id="filter-9">
            <feOffset dx="0" dy="2" in="SourceAlpha" result="shadowOffsetOuter1"></feOffset>
            <feGaussianBlur stdDeviation="3" in="shadowOffsetOuter1" result="shadowBlurOuter1"></feGaussianBlur>
            <feComposite in="shadowBlurOuter1" in2="SourceAlpha" operator="out" result="shadowBlurOuter1"></feComposite>
            <feColorMatrix values="0 0 0 0 0.607843137   0 0 0 0 0.607843137   0 0 0 0 0.607843137  0 0 0 0.5 0" type="matrix" in="shadowBlurOuter1"></feColorMatrix>
        </filter>
        <polygon id="path-10" points="73.2673267 84.1798704 191.089109 82.4465624 191.089109 95.4670363 73.2673267 98.6860368"></polygon>
        <filter x="-8.5%" y="-49.3%" width="117.0%" height="223.2%" filterUnits="objectBoundingBox" id="filter-11">
            <feOffset dx="0" dy="2" in="SourceAlpha" result="shadowOffsetOuter1"></feOffset>
            <feGaussianBlur stdDeviation="3" in="shadowOffsetOuter1" result="shadowBlurOuter1"></feGaussianBlur>
            <feComposite in="shadowBlurOuter1" in2="SourceAlpha" operator="out" result="shadowBlurOuter1"></feComposite>
            <feColorMatrix values="0 0 0 0 0.607843137   0 0 0 0 0.607843137   0 0 0 0 0.607843137  0 0 0 0.5 0" type="matrix" in="shadowBlurOuter1"></feColorMatrix>
        </filter>
        <polygon id="path-12" points="73.2673267 107.897259 191.089109 103.682798 191.089109 116.718735 73.2673267 122.420653"></polygon>
        <filter x="-8.5%" y="-42.7%" width="117.0%" height="206.7%" filterUnits="objectBoundingBox" id="filter-13">
            <feOffset dx="0" dy="2" in="SourceAlpha" result="shadowOffsetOuter1"></feOffset>
            <feGaussianBlur stdDeviation="3" in="shadowOffsetOuter1" result="shadowBlurOuter1"></feGaussianBlur>
            <feComposite in="shadowBlurOuter1" in2="SourceAlpha" operator="out" result="shadowBlurOuter1"></feComposite>
            <feColorMatrix values="0 0 0 0 0.607843137   0 0 0 0 0.607843137   0 0 0 0 0.607843137  0 0 0 0.5 0" type="matrix" in="shadowBlurOuter1"></feColorMatrix>
        </filter>
    </defs>
    <g id="Online-Focus-Group" stroke="none" stroke-width="1" fill="none" fill-rule="evenodd">
        <g id="02-Online-Focus-Group" transform="translate(-245.000000, -1465.000000)">
            <g id="Group-80" transform="translate(245.000000, 1465.000000)">
                <g id="Group-79">
                    <g id="Rectangle-36">
                        <use fill="#FFFFFF" fill-rule="evenodd" xlink:href="#path-1"></use>
                        <path stroke="#979797" stroke-width="1" d="M7.43069307,0.528365885 L7.43069307,134.384191 L199.5,123.780252 L199.5,11.1323042 L7.43069307,0.528365885 Z"></path>
                    </g>
                    <polygon id="Rectangle-2" fill="#D8D8D8" points="7.92079208 1.24919034 55.4455446 3.83402072 55.4455446 131.078536 7.92079208 133.663366"></polygon>
                    <g id="Rectangle-2" transform="translate(3.960396, 67.456278) scale(-1, 1) translate(-3.960396, -67.456278) ">
                        <use fill="#D8D8D8" fill-rule="evenodd" xlink:href="#path-2"></use>
                        <path stroke="#979797" stroke-width="1" d="M0.5,0.693159465 L0.5,134.219397 L7.42079208,131.918289 L7.42079208,2.99426813 L0.5,0.693159465 Z"></path>
                    </g>
                    <g id="Rectangle-37">
                        <use fill="black" fill-opacity="1" filter="url(#filter-4)" xlink:href="#path-3"></use>
                        <use fill="#D8D8D8" fill-rule="evenodd" xlink:href="#path-3"></use>
                        <path stroke="#979797" stroke-width="1" d="M74.7574257,14.2658896 L74.7574257,27.7798154 L191.579208,31.9607343 L191.579208,19.922427 L74.7574257,14.2658896 Z"></path>
                    </g>
                    <g id="Rectangle-37-Copy">
                        <use fill="black" fill-opacity="1" filter="url(#filter-7)" xlink:href="#path-6"></use>
                        <use fill="url(#linearGradient-5)" fill-rule="evenodd" xlink:href="#path-6"></use>
                    </g>
                    <g id="Rectangle-37-Copy-2">
                        <use fill="black" fill-opacity="1" filter="url(#filter-9)" xlink:href="#path-8"></use>
                        <use fill="#D8D8D8" fill-rule="evenodd" xlink:href="#path-8"></use>
                        <path stroke="#979797" stroke-width="1" d="M73.7673267,60.4641314 L73.7673267,73.199235 L190.589109,72.5015396 L190.589109,61.1618267 L73.7673267,60.4641314 Z"></path>
                    </g>
                    <g id="Rectangle-37-Copy-3">
                        <use fill="black" fill-opacity="1" filter="url(#filter-11)" xlink:href="#path-10"></use>
                        <use fill="#D8D8D8" fill-rule="evenodd" xlink:href="#path-10"></use>
                        <path stroke="#979797" stroke-width="1" d="M73.7673267,84.6725688 L73.7673267,98.1721898 L190.589109,94.9805102 L190.589109,82.9539722 L73.7673267,84.6725688 Z"></path>
                    </g>
                    <path d="M65.7214525,22.6753956 L62.1013353,22.6753956 L62.1013353,22.2940479 C62.2087577,22.2868864 62.3761551,22.2716685 62.6035325,22.2483936 C62.83091,22.2251188 62.9875653,22.2009491 63.0735032,22.1758839 C63.1845064,22.1400764 63.2695479,22.0818901 63.3286302,22.0013233 C63.3877125,21.9207565 63.4172532,21.7999081 63.4172532,21.6387745 L63.4172532,17.8682667 L62.0798509,17.8682667 L62.0798509,17.4170948 L62.3752611,17.4170948 C62.7619817,17.4170948 63.1084138,17.3454809 63.4145677,17.202251 C63.7207216,17.0590212 63.940039,16.9050513 64.0725267,16.740337 L64.5183275,16.740337 C64.5075852,16.9730855 64.4968431,17.2452182 64.4861009,17.5567432 C64.4753587,17.8682682 64.4699876,18.1475623 64.4699876,18.3946339 L64.4699876,21.5796925 C64.4699876,21.7050186 64.497738,21.8169153 64.5532396,21.9153858 C64.6087412,22.0138564 64.6884116,22.0863654 64.7922532,22.1329151 C64.8853527,22.1723033 65.0375321,22.2081103 65.2487962,22.240337 C65.4600603,22.2725637 65.6176108,22.2904672 65.7214525,22.2940479 L65.7214525,22.6753956 Z M68.331804,22.0577198 C68.331804,22.2582416 68.259295,22.4292197 68.1142747,22.5706592 C67.9692545,22.7120988 67.796486,22.7828175 67.5959642,22.7828175 C67.3954424,22.7828175 67.2226739,22.7120988 67.0776536,22.5706592 C66.9326334,22.4292197 66.8601243,22.2582416 66.8601243,22.0577198 C66.8601243,21.857198 66.9326334,21.6844295 67.0776536,21.5394092 C67.2226739,21.394389 67.3954424,21.32188 67.5959642,21.32188 C67.796486,21.32188 67.9692545,21.394389 68.1142747,21.5394092 C68.259295,21.6844295 68.331804,21.857198 68.331804,22.0577198 Z" id="1." fill="#000000"></path>
                    <path d="M63.9919603,70.8184117 C63.6553701,70.8184117 63.3474304,70.7763385 63.0681322,70.6921909 C62.7888339,70.6080434 62.5489274,70.4943564 62.3484056,70.3511265 C62.1478838,70.2078966 61.9930188,70.0431847 61.883806,69.8569859 C61.7745932,69.670787 61.7199876,69.4792199 61.7199876,69.2822788 C61.7199876,69.1068222 61.7629559,68.9483766 61.8488939,68.806937 C61.9348318,68.6654975 62.0726885,68.5947788 62.2624681,68.5947788 C62.4773129,68.5947788 62.6411296,68.6475941 62.7539232,68.7532261 C62.8667167,68.8588581 62.9231126,68.9797065 62.9231126,69.1157749 C62.9231126,69.2303588 62.904314,69.3753769 62.8667161,69.5508335 C62.8291183,69.7262901 62.7995776,69.8516144 62.7780931,69.9268101 C62.8031583,69.9590368 62.8488122,70.0020051 62.915056,70.0557163 C62.9812998,70.1094275 63.0627606,70.1577669 63.1594407,70.2007359 C63.2740247,70.2544471 63.3939779,70.2974154 63.519304,70.3296421 C63.6446302,70.3618688 63.8218745,70.377982 64.0510423,70.377982 C64.2658871,70.377982 64.4726722,70.342175 64.6714036,70.2705601 C64.8701351,70.1989451 65.0446939,70.084363 65.1950853,69.9268101 C65.3526382,69.7620957 65.4752769,69.5696335 65.5630052,69.3494175 C65.6507335,69.1292016 65.694597,68.8400606 65.694597,68.4819859 C65.694597,68.2886255 65.674008,68.0970584 65.6328294,67.9072788 C65.5916508,67.7174992 65.5155611,67.5527873 65.4045579,67.4131382 C65.2935548,67.2734891 65.1422705,67.1651731 64.9507005,67.088187 C64.7591305,67.011201 64.5165386,66.9727085 64.2229173,66.9727085 L63.519304,66.9727085 L63.519304,66.3550327 L63.9865892,66.3550327 C64.4807323,66.3550327 64.8370113,66.2189664 65.0554368,65.9468296 C65.2738624,65.6746928 65.3830736,65.2647035 65.3830736,64.7168492 C65.3830736,64.2692558 65.2774431,63.9317754 65.066179,63.704398 C64.854915,63.4770205 64.5559271,63.3633335 64.1692064,63.3633335 C63.9830075,63.3633335 63.8299329,63.3857129 63.7099779,63.4304722 C63.5900228,63.4752315 63.4924489,63.519095 63.4172532,63.562064 C63.3277346,63.6121945 63.2543304,63.6676952 63.1970384,63.7285679 C63.1397465,63.7894406 63.0967781,63.8341993 63.0681322,63.8628452 C63.0931974,63.9774292 63.1236333,64.1179714 63.1594407,64.2844761 C63.1952482,64.4509808 63.2131517,64.6094265 63.2131517,64.7598179 C63.2131517,64.8923055 63.1567558,65.0113636 63.0439622,65.1169956 C62.9311687,65.2226277 62.7655616,65.2754429 62.5471361,65.2754429 C62.3573565,65.2754429 62.2186046,65.2074097 62.1308763,65.0713413 C62.043148,64.9352729 61.9992845,64.7777224 61.9992845,64.5986851 C61.9992845,64.4124862 62.0512046,64.2227095 62.1550462,64.0293492 C62.2588879,63.8359888 62.4128577,63.6551638 62.6169603,63.4868687 C62.8210629,63.3185736 63.0699211,63.1825072 63.3635423,63.0786656 C63.6571636,62.9748239 63.9955391,62.9229038 64.378679,62.9229038 C64.8191109,62.9229038 65.1834465,62.9882515 65.4716966,63.1189488 C65.7599467,63.249646 65.9864256,63.4080917 66.15114,63.5942906 C66.3122736,63.7769087 66.4232751,63.9684758 66.4841478,64.1689976 C66.5450205,64.3695194 66.5754564,64.5413927 66.5754564,64.6846226 C66.5754564,64.8636599 66.5503915,65.0435898 66.5002611,65.2244175 C66.4501306,65.4052452 66.3677747,65.5726427 66.2531907,65.7266148 C66.1278646,65.8949099 65.9622575,66.0479845 65.7563646,66.1858433 C65.5504716,66.3237021 65.2917665,66.4355987 64.9802415,66.5215367 L64.9802415,66.6074742 C65.1807634,66.6253779 65.3947098,66.6701366 65.6220872,66.7417515 C65.8494647,66.8133664 66.0544594,66.9189969 66.2370775,67.058646 C66.4268571,67.2054567 66.5826172,67.3943382 66.7043626,67.6252964 C66.826108,67.8562546 66.8869798,68.1489763 66.8869798,68.5034702 C66.8869798,69.1909737 66.6112664,69.7486667 66.0598314,70.1765659 C65.5083963,70.6044652 64.8191129,70.8184117 63.9919603,70.8184117 Z M69.6745775,68.2402867 C69.6745775,68.4408085 69.6020684,68.6117866 69.4570482,68.7532261 C69.3120279,68.8946656 69.1392595,68.9653843 68.9387376,68.9653843 C68.7382158,68.9653843 68.5654473,68.8946656 68.4204271,68.7532261 C68.2754068,68.6117866 68.2028978,68.4408085 68.2028978,68.2402867 C68.2028978,68.0397648 68.2754068,67.8669964 68.4204271,67.7219761 C68.5654473,67.5769558 68.7382158,67.5044468 68.9387376,67.5044468 C69.1392595,67.5044468 69.3120279,67.5769558 69.4570482,67.7219761 C69.6020684,67.8669964 69.6745775,68.0397648 69.6745775,68.2402867 Z" id="3." fill="#000000"></path>
                    <path d="M67.1985032,93.3583708 L66.1081712,93.3583708 L66.1081712,95.8022184 L65.0769212,95.8022184 L65.0769212,93.3583708 L61.6394212,93.3583708 L61.6394212,92.5312223 L65.4045579,87.9389372 L66.1081712,87.9389372 L66.1081712,92.6547575 L67.1985032,92.6547575 L67.1985032,93.3583708 Z M65.0769212,92.6547575 L65.0769212,89.1366911 L62.1765306,92.6547575 L65.0769212,92.6547575 Z M69.819597,93.2240934 C69.819597,93.4246153 69.747088,93.5955934 69.6020677,93.7370329 C69.4570474,93.8784724 69.284279,93.9491911 69.0837572,93.9491911 C68.8832353,93.9491911 68.7104669,93.8784724 68.5654466,93.7370329 C68.4204264,93.5955934 68.3479173,93.4246153 68.3479173,93.2240934 C68.3479173,93.0235716 68.4204264,92.8508032 68.5654466,92.7057829 C68.7104669,92.5607626 68.8832353,92.4882536 69.0837572,92.4882536 C69.284279,92.4882536 69.4570474,92.5607626 69.6020677,92.7057829 C69.747088,92.8508032 69.819597,93.0235716 69.819597,93.2240934 Z" id="4." fill="#000000"></path>
                    <g id="Rectangle-37-Copy-3">
                        <use fill="black" fill-opacity="1" filter="url(#filter-13)" xlink:href="#path-12"></use>
                        <use fill="#D8D8D8" fill-rule="evenodd" xlink:href="#path-12"></use>
                        <path stroke="#979797" stroke-width="1" d="M73.7673267,108.379694 L73.7673267,121.895871 L190.589109,116.242347 L190.589109,104.201003 L73.7673267,108.379694 Z"></path>
                    </g>
                    <path d="M65.9040697,116.306533 C66.140399,116.492732 66.3364419,116.732638 66.4922044,117.02626 C66.6479669,117.319881 66.725847,117.686902 66.725847,118.127334 C66.725847,118.897194 66.462666,119.532768 65.9362962,120.034072 C65.4099264,120.535377 64.7421271,120.786025 63.9328782,120.786025 C63.3062475,120.786025 62.7763049,120.637426 62.3430345,120.340224 C61.9097641,120.043022 61.6931322,119.697486 61.6931322,119.303603 C61.6931322,119.120985 61.7378908,118.961644 61.8274095,118.825576 C61.9169282,118.689508 62.0547849,118.621474 62.2409837,118.621474 C62.4558285,118.621474 62.6196453,118.67787 62.7324388,118.790664 C62.8452323,118.903457 62.9016282,119.026096 62.9016282,119.158584 C62.9016282,119.273168 62.8819344,119.416395 62.8425462,119.588271 C62.803158,119.760147 62.7727221,119.887262 62.7512376,119.969619 C62.7798836,119.994684 62.8264326,120.028701 62.8908861,120.07167 C62.9553395,120.114639 63.0323244,120.155817 63.1218431,120.195205 C63.2149425,120.234593 63.3286295,120.269505 63.4629075,120.299941 C63.5971856,120.330378 63.7538409,120.345596 63.9328782,120.345596 C64.1620461,120.345596 64.378678,120.299047 64.5827806,120.205947 C64.7868832,120.112848 64.9587565,119.974991 65.0984056,119.792373 C65.2523777,119.591851 65.3678551,119.363582 65.4448411,119.107558 C65.5218272,118.851535 65.5603197,118.526587 65.5603197,118.132705 C65.5603197,117.62782 65.4197774,117.209774 65.1386888,116.878555 C64.8576002,116.547335 64.4878936,116.381728 64.0295579,116.381728 C63.7430982,116.381728 63.4754413,116.435439 63.2265794,116.542861 C62.9777175,116.650284 62.7548193,116.829318 62.5578782,117.079971 L62.198015,116.940322 L62.6545579,113.062392 L66.5002611,113.062392 L66.5002611,114.018447 L63.0896165,114.018447 L62.8103197,116.295791 C62.9714533,116.181207 63.1836094,116.06752 63.4467943,115.954726 C63.7099792,115.841933 63.9991202,115.785537 64.3142259,115.785537 C64.5756204,115.785537 64.846858,115.82582 65.1279466,115.906387 C65.4090353,115.986953 65.6677403,116.120334 65.9040697,116.306533 Z M69.416765,118.2079 C69.416765,118.408422 69.3442559,118.5794 69.1992357,118.72084 C69.0542154,118.862279 68.881447,118.932998 68.6809251,118.932998 C68.4804033,118.932998 68.3076348,118.862279 68.1626146,118.72084 C68.0175943,118.5794 67.9450853,118.408422 67.9450853,118.2079 C67.9450853,118.007378 68.0175943,117.83461 68.1626146,117.68959 C68.3076348,117.544569 68.4804033,117.47206 68.6809251,117.47206 C68.881447,117.47206 69.0542154,117.544569 69.1992357,117.68959 C69.3442559,117.83461 69.416765,118.007378 69.416765,118.2079 Z" id="5." fill="#000000"></path>
                </g>
            </g>
        </g>
    </g>
</svg>