<?xml version="1.0" encoding="UTF-8"?>
<svg width="210px" height="137px" viewBox="0 0 210 137" version="1.1" xmlns="http://www.w3.org/2000/svg" xmlns:xlink="http://www.w3.org/1999/xlink">
    <!-- Generator: Sketch 47.1 (45422) - http://www.bohemiancoding.com/sketch -->
    <title>Group 44</title>
    <desc>Created with Sketch.</desc>
    <defs>
        <rect id="path-1" x="0" y="0" width="84.524452" height="51.8672774"></rect>
        <filter x="-8.3%" y="-9.6%" width="116.6%" height="127.0%" filterUnits="objectBoundingBox" id="filter-2">
            <feOffset dx="0" dy="2" in="SourceAlpha" result="shadowOffsetOuter1"></feOffset>
            <feGaussianBlur stdDeviation="2" in="shadowOffsetOuter1" result="shadowBlurOuter1"></feGaussianBlur>
            <feColorMatrix values="0 0 0 0 0.607843137   0 0 0 0 0.607843137   0 0 0 0 0.607843137  0 0 0 0.5 0" type="matrix" in="shadowBlurOuter1"></feColorMatrix>
        </filter>
        <linearGradient x1="2.21420599%" y1="58.5698485%" x2="100%" y2="58.5698485%" id="linearGradient-3">
            <stop stop-color="#4BAD00" offset="0%"></stop>
            <stop stop-color="#71DF55" offset="100%"></stop>
        </linearGradient>
        <circle id="path-4" cx="21.246321" cy="21.246321" r="14.6628587"></circle>
        <mask id="mask-5" maskContentUnits="userSpaceOnUse" maskUnits="objectBoundingBox" x="0" y="0" width="29.3257174" height="29.3257174" fill="white">
            <use xlink:href="#path-4"></use>
        </mask>
        <circle id="path-6" cx="21.246321" cy="21.246321" r="14.6628587"></circle>
        <mask id="mask-7" maskContentUnits="userSpaceOnUse" maskUnits="objectBoundingBox" x="0" y="0" width="29.3257174" height="29.3257174" fill="white">
            <use xlink:href="#path-6"></use>
        </mask>
        <circle id="path-8" cx="21.246321" cy="21.246321" r="14.6628587"></circle>
        <mask id="mask-9" maskContentUnits="userSpaceOnUse" maskUnits="objectBoundingBox" x="0" y="0" width="29.3257174" height="29.3257174" fill="white">
            <use xlink:href="#path-8"></use>
        </mask>
        <circle id="path-10" cx="21.246321" cy="21.246321" r="14.6628587"></circle>
        <mask id="mask-11" maskContentUnits="userSpaceOnUse" maskUnits="objectBoundingBox" x="0" y="0" width="29.3257174" height="29.3257174" fill="white">
            <use xlink:href="#path-10"></use>
        </mask>
        <circle id="path-12" cx="21.246321" cy="21.246321" r="14.6628587"></circle>
        <mask id="mask-13" maskContentUnits="userSpaceOnUse" maskUnits="objectBoundingBox" x="0" y="0" width="29.3257174" height="29.3257174" fill="white">
            <use xlink:href="#path-12"></use>
        </mask>
    </defs>
    <g id="Online-Focus-Group" stroke="none" stroke-width="1" fill="none" fill-rule="evenodd">
        <g id="02-Online-Focus-Group_1920-width" transform="translate(-1284.000000, -1464.000000)">
            <g id="Group-44" transform="translate(1285.000000, 1465.000000)">
                <g id="apple" transform="translate(51.979021, 39.594406)">
                    <polygon id="Shape" fill="#A6A6AD" fill-rule="nonzero" points="71.7070478 94.0420299 45.8454896 94.0420299 48.1965403 81.1112508 69.355997 81.1112508"></polygon>
                    <path d="M109.32386,84.6378269 L8.22867761,84.6378269 C4.34944388,84.6378269 0,80.288383 0,76.4091493 L0,7.05315224 C0,3.17391851 3.17391851,0 7.05315224,0 L110.499385,0 C114.378619,0 117.552537,3.17391851 117.552537,7.05315224 L117.552537,76.4091493 C117.552537,80.288383 113.203093,84.6378269 109.32386,84.6378269 Z" id="Shape" fill="#3E3E42" fill-rule="nonzero"></path>
                    <polygon id="Shape" fill="#000000" fill-rule="nonzero" opacity="0.1" points="70.6490749 88.164403 69.355997 81.1112508 48.1965403 81.1112508 46.9034624 88.164403"></polygon>
                    <path d="M0,70.88418 L0,77.5846746 C0,81.4639084 3.17391851,84.6378269 7.05315224,84.6378269 L110.499385,84.6378269 C114.378619,84.6378269 117.552537,81.4639084 117.552537,77.5846746 L117.552537,70.88418 C117.552537,70.6490749 117.434985,70.5315224 117.19988,70.5315224 L0.352657612,70.5315224 C0.117552537,70.5315224 0,70.6490749 0,70.88418 Z" id="Shape" fill="#D2D2D6" fill-rule="nonzero"></path>
                    <rect id="Rectangle-path" fill="#FFFFFF" fill-rule="nonzero" x="5.78358484" y="5.78358484" width="105.797284" height="58.7762687"></rect>
                    <g id="Group-71" transform="translate(16.386824, 8.675377)">
                        <g id="Rectangle-path" fill-rule="nonzero">
                            <use fill="black" fill-opacity="1" filter="url(#filter-2)" xlink:href="#path-1"></use>
                            <use fill="#FFFFFF" fill-rule="evenodd" xlink:href="#path-1"></use>
                        </g>
                        <g id="Group-89" transform="translate(8.822418, 4.411209)">
                            <g id="Group-70" transform="translate(0.000000, 13.233626)" fill="url(#linearGradient-3)">
                                <rect id="Rectangle-17" x="0" y="0" width="26.4672526" height="2.64672526"></rect>
                                <rect id="Rectangle-17" x="0" y="4.41120877" width="22.0560439" height="2.64672526"></rect>
                                <rect id="Rectangle-17" x="0" y="13.2336263" width="22.0560439" height="2.64672526"></rect>
                                <rect id="Rectangle-17" x="0" y="8.82241755" width="24.7027691" height="2.64672526"></rect>
                            </g>
                            <g id="5-Slices-Pie-Chart" transform="translate(30.878461, 0.000000)" stroke-width="10" stroke-dasharray="21.37142857142857,170">
                                <use id="#161032" stroke="#4BAD00" mask="url(#mask-5)" xlink:href="#path-4"></use>
                                <use id="#FAFF81" stroke="#134611" mask="url(#mask-7)" transform="translate(21.246321, 21.246321) rotate(-72.000000) translate(-21.246321, -21.246321) " xlink:href="#path-6"></use>
                                <use id="#FFC53A" stroke="#2A7221" mask="url(#mask-9)" transform="translate(21.246321, 21.246321) rotate(-144.000000) translate(-21.246321, -21.246321) " xlink:href="#path-8"></use>
                                <use id="#E06D06" stroke="#2A7221" mask="url(#mask-11)" transform="translate(21.246321, 21.246321) rotate(-216.000000) translate(-21.246321, -21.246321) " xlink:href="#path-10"></use>
                                <use id="#B26700" stroke="#2A7221" mask="url(#mask-13)" transform="translate(21.246321, 21.246321) rotate(-288.000000) translate(-21.246321, -21.246321) " xlink:href="#path-12"></use>
                            </g>
                        </g>
                    </g>
                    <circle id="Oval" fill="#A6A6AD" fill-rule="nonzero" cx="58.7762687" cy="77.5846746" r="3.52657612"></circle>
                    <path d="M77.5846746,95.2175552 C77.5846746,95.9228705 77.1144645,96.3930806 76.4091493,96.3930806 L41.1433881,96.3930806 C40.4380728,96.3930806 39.9678627,95.9228705 39.9678627,95.2175552 L39.9678627,94.0420299 C39.9678627,93.3367146 40.4380728,92.8665045 41.1433881,92.8665045 L76.4091493,92.8665045 C77.1144645,92.8665045 77.5846746,93.3367146 77.5846746,94.0420299 L77.5846746,95.2175552 Z" id="Shape" fill="#D2D2D6" fill-rule="nonzero"></path>
                </g>
                <circle id="Oval-9" stroke="#4BAD00" fill="#4BAD00" cx="73.3601399" cy="89.2972028" r="2.5"></circle>
                <path d="M72.5964431,89.3704584 L18.1608392,89.3704584 L18.1608392,89.3704584 C16.5039849,89.3704584 15.1608392,88.0273126 15.1608392,86.3704584 L15.1608392,39.5944056" id="Line-7" stroke="#4BAD00" stroke-linecap="square" stroke-linejoin="round"></path>
                <circle id="Oval-15" fill="#134611" cx="115" cy="60.5" r="2.5"></circle>
                <path d="M115,60.6438207 L115,18 L115,18 C115,16.3431458 116.343146,15 118,15 L173.42287,15" id="Line-11" stroke="#134611" stroke-linecap="square"></path>
                <circle id="Oval-16" fill="#119822" cx="143.22028" cy="93.0734266" r="2.5"></circle>
                <path d="M144.024476,92.9335664 L186.517481,92.9335664" id="Line-10" stroke="#119822" stroke-linecap="square"></path>
                <g id="noun_472780_cc" transform="translate(174.000000, 0.000000)">
                    <path d="M16.3617021,17.0212766 C16.3617021,17.0212766 16.1914894,17.9574468 14.7021277,17.9148936 C13.1914894,17.8723404 12.8723404,17.0212766 12.8723404,17.0212766 C12.8723404,17.0212766 16.0425532,17.1489362 16.3617021,17.0212766 Z" id="Shape" stroke="#000000" stroke-width="0.5"></path>
                    <path d="M14.9361702,0.0212765957 C6.70212766,0.0212765957 0.0212765957,6.70212766 0.0212765957,14.9361702 C0.0212765957,20.0851064 2.63829787,24.6382979 6.59574468,27.3191489 C8.9787234,28.9148936 11.8510638,29.8723404 14.9361702,29.8723404 C23.1702128,29.8723404 29.8510638,23.1914894 29.8510638,14.9574468 C29.8510638,6.70212766 23.1914894,0.0212765957 14.9361702,0.0212765957 Z M19.2765957,17.3404255 C19.1276596,17.7659574 18.0851064,19.3617021 16.7234043,20.4042553 C16.1489362,20.8510638 15.5319149,21.1914894 14.8723404,21.2978723 C14.1276596,21.4255319 13.3404255,21.1276596 12.5957447,20.6170213 C11.1276596,19.5957447 9.89361702,17.7021277 9.87234043,16.6170213 C9.87234043,16.4042553 9.87234043,16.1702128 9.85106383,15.9148936 C9.80851064,14.4255319 9.76595745,12.5957447 9.74468085,12.3404255 C9.91489362,12.3404255 10.0212766,12.3617021 10.0212766,12.3617021 C10.0212766,12.3617021 9.9787234,13.2978723 10.0638298,13.6595745 C10.1276596,14.0212766 10.6170213,16.1489362 11.3191489,16.4893617 C11.3191489,16.4893617 12.1276596,15.9787234 13.0425532,16.0851064 C13.0425532,16.0851064 14.2340426,16.6808511 14.6595745,16.5957447 C15.106383,16.5106383 15.8297872,16.3617021 16.1276596,16.1914894 C16.4255319,16.0212766 17.6808511,16.5957447 17.6808511,16.5957447 C17.6808511,16.5957447 18.9574468,14.9574468 19.0638298,13.9148936 C19.1702128,12.8510638 19.0425532,12.5531915 19.0425532,12.5531915 C19.1702128,12.5106383 19.2765957,12.4893617 19.3829787,12.4893617 C19.4042553,12.4893617 19.4255319,12.4680851 19.4468085,12.4680851 C19.4468085,12.8085106 19.4468085,14.4468085 19.4255319,15.7234043 C19.3829787,16.4680851 19.3404255,17.1276596 19.2765957,17.3404255 Z" id="Shape" stroke="#134611"></path>
                    <path d="M16.7234043,20.4042553 L16.8297872,21.3191489 C16.8297872,21.3191489 14.1489362,22.5957447 12.5531915,21.3191489 L12.5957447,20.5957447" id="Shape" stroke="#000000" stroke-width="0.5"></path>
                    <path d="M9.29787234,12.3829787 C9.29787234,12.3829787 9.29787234,12.3829787 9.29787234,12.3829787 C8.72340426,12.1276596 8.5106383,12.6808511 8.44680851,13.3404255 C8.44680851,13.3404255 8.44680851,13.3617021 8.44680851,13.3617021 C8.44680851,13.3617021 8.44680851,13.3617021 8.44680851,13.3617021 C8.38297872,14.0638298 8.4893617,14.893617 8.4893617,14.893617 C8.4893617,14.893617 8.9787234,16.106383 9.74468085,15.5106383 C9.74468085,15.5106383 9.78723404,15.6595745 9.85106383,15.893617" id="Shape" stroke="#000000" stroke-width="0.5"></path>
                    <path d="M19.4042553,15.7234043 C19.4255319,15.6382979 19.4468085,15.5531915 19.4680851,15.5106383 C19.4680851,15.5106383 20.8085106,15.6808511 20.893617,14.0425532 C20.9148936,13.6170213 20.8723404,13.2978723 20.7659574,13.0638298 C20.4893617,12.4255319 19.8723404,12.3404255 19.4255319,12.4893617" id="Shape" stroke="#000000" stroke-width="0.5"></path>
                    <path d="M18.3617021,12.1287234 C18.3617021,12.0787234 18.3617021,12.0287234 18.3617021,11.9787234" id="Shape" stroke="#000000" stroke-width="0.5"></path>
                    <path d="M18.1276596,6.46808511 L18.1276596,6.46808511 C17.212766,5.78723404 16.0212766,5.4893617 15.212766,5.38297872 C15.1914894,5.38297872 15.1914894,5.38297872 15.1914894,5.38297872 C15.1489362,5.38297872 15.1276596,5.38297872 15.106383,5.36170213 C15.0638298,5.36170213 15.0212766,5.34042553 15,5.34042553" id="Shape" stroke="#000000" stroke-width="0.5"></path>
                    <path d="M16.3617021,17.0212766 C16.3617021,17.0212766 16.1914894,17.9574468 14.7021277,17.9148936 C13.1914894,17.8723404 12.8723404,17.0212766 12.8723404,17.0212766 C12.8723404,17.0212766 16.0425532,17.1489362 16.3617021,17.0212766 Z" id="Shape" stroke="#000000" stroke-width="0.5"></path>
                    <path d="M9.29787234,12.4691489 C9.48834853,12.3691489 9.6550152,12.3191489 9.79787234,12.3191489" id="Shape" stroke="#000000" stroke-width="0.5"></path>
                    <path d="M10.0212766,12.3404255 C10.4042553,12.0851064 10.6808511,11.9148936 10.893617,11.8085106 C11.1914894,11.6595745 11.4468085,11.6170213 11.8510638,11.6170213 C12.4042553,11.6170213 13.2340426,11.6595745 14.8723404,11.6170213 C15.2765957,11.5957447 15.6382979,11.6170213 15.9574468,11.6170213 C17.0425532,11.6595745 17.7446809,11.8085106 18.212766,11.9787234 C18.2553191,12 18.2978723,12.0212766 18.3404255,12.0212766 C18.9361702,12.2765957 19.0212766,12.5319149 19.0212766,12.5319149" id="Shape" stroke="#000000" stroke-width="0.5"></path>
                    <path d="M8.46808511,13.3829787 C8.46808511,13.3829787 8.46808511,13.3829787 8.46808511,13.3829787 C8.44680851,13.3617021 8.44680851,13.3617021 8.46808511,13.3829787 C8.44680851,13.3617021 8.44680851,13.3617021 8.46808511,13.3829787 C8.23404255,13.0425532 5.72340426,8.9787234 11,6.14893617 C12.4255319,5.38297872 13.7659574,5.21276596 14.9787234,5.34042553 C15.0212766,5.34042553 15.0638298,5.34042553 15.0851064,5.36170213 C15.1276596,5.36170213 15.1489362,5.36170213 15.1702128,5.38297872 C15.1702128,5.38297872 15.1914894,5.38297872 15.1914894,5.38297872 C15.2553191,5.38297872 15.2978723,5.40425532 15.3617021,5.40425532 C15.7659574,5.46808511 16.1702128,5.59574468 16.5319149,5.72340426 C16.7659574,5.80851064 17,5.91489362 17.2340426,6 C17.5319149,6.14893617 17.8297872,6.29787234 18.0851064,6.44680851 L18.0851064,6.44680851 C19.8510638,7.4893617 20.9361702,8.87234043 20.9361702,8.87234043 C20.9361702,8.87234043 21.0425532,9.04255319 21.1702128,9.31914894 C21.3404255,9.68085106 21.5106383,10.2553191 21.4893617,10.9361702 C21.4680851,11.5531915 21.2765957,12.2765957 20.7021277,13.0212766" id="Shape" stroke="#000000" stroke-width="0.5"></path>
                    <path d="M8.44680851,13.3829787 C8.44680851,13.3829787 7.70212766,10.1914894 11.8510638,8.06382979 C16,5.93617021 17.2553191,6.0212766 17.2553191,6.0212766" id="Shape" stroke="#000000" stroke-width="0.5"></path>
                    <path d="M11.8723404,11.6170213 C11.8723404,11.6170213 15.7659574,9.31914894 21.2340426,9.34042553" id="Shape" stroke="#000000" stroke-width="0.5"></path>
                    <path d="M15.9787234,11.6170213 L19.2553191,9.44680851" id="Shape" stroke="#000000" stroke-width="0.5"></path>
                    <path d="M18.2340426,12 C18.2340426,12 21.106383,11.9361702 21.5531915,10.9574468" id="Shape" stroke="#000000" stroke-width="0.5"></path>
                    <path d="M16.8297872,21.3191489 L17.3404255,22.0851064 C17.3404255,22.0851064 21.787234,22.4255319 22.0425532,23.787234 C22.2978723,25.1489362 22.893617,27.2978723 22.893617,27.2978723" id="Shape" stroke="#000000" stroke-width="0.5"></path>
                    <path d="M12.5531915,21.3191489 L12.2765957,21.893617 C12.2765957,21.893617 8.29787234,21.2765957 7.63829787,23.0638298 C6.9787234,24.8510638 6.59574468,27.2978723 6.59574468,27.2978723" id="Shape" stroke="#000000" stroke-width="0.5"></path>
                    <path d="M19.4255319,12.4680851 C19.4042553,12.4680851 19.3829787,12.4893617 19.3617021,12.4893617 C19.2553191,12.5106383 19.1489362,12.5319149 19.0212766,12.5531915 C19.0212766,12.5531915 19.1489362,12.8510638 19.0425532,13.9148936 C18.9361702,14.9787234 17.6595745,16.5957447 17.6595745,16.5957447 C17.6595745,16.5957447 16.4042553,16.0212766 16.106383,16.1914894 C15.8085106,16.3617021 15.0851064,16.5106383 14.6382979,16.5957447 C14.1914894,16.6808511 13.0212766,16.0851064 13.0212766,16.0851064 C12.106383,15.9787234 11.2978723,16.4893617 11.2978723,16.4893617 C10.5957447,16.1489362 10.106383,14.0425532 10.0425532,13.6595745 C9.95744681,13.2765957 10,12.3617021 10,12.3617021 C10,12.3617021 9.89361702,12.3404255 9.72340426,12.3404255 C9.72340426,12.5957447 9.78723404,14.4468085 9.82978723,15.9148936 C9.82978723,16.1702128 9.85106383,16.4042553 9.85106383,16.6170213 C9.87234043,17.7021277 11.106383,19.5957447 12.5744681,20.6170213 C13.3191489,21.1276596 14.106383,21.4255319 14.8510638,21.2978723 C15.4893617,21.1914894 16.1276596,20.8297872 16.7021277,20.4042553 C18.0638298,19.3617021 19.106383,17.7659574 19.2553191,17.3404255 C19.3191489,17.1276596 19.3617021,16.4893617 19.3829787,15.7234043 C19.4468085,14.4468085 19.4255319,12.8085106 19.4255319,12.4680851 Z M14.7021277,17.9148936 C13.1914894,17.8723404 12.8723404,17.0212766 12.8723404,17.0212766 C12.8723404,17.0212766 16.0425532,17.1489362 16.3617021,17.0212766 C16.3617021,17.0212766 16.1914894,17.9574468 14.7021277,17.9148936 Z" id="Shape" stroke="#000000" stroke-width="0.5" fill="#000000" fill-rule="nonzero"></path>
                    <path d="M9.74468085,12.3478723 C9.74468085,12.2978723 9.74468085,12.2978723 9.74468085,12.2978723" id="Shape" stroke="#000000" stroke-width="0.5"></path>
                    <path d="M19.4255319,12.5542553 C19.4255319,12.4542553 19.4255319,12.4042553 19.4255319,12.4042553" id="Shape" stroke="#000000" stroke-width="0.5"></path>
                </g>
                <g id="noun_472770_cc" transform="translate(0.000000, 9.000000)">
                    <path d="M10.3732394,13.2253521 C10.5211268,13.7535211 10.5211268,14.3661972 10.5211268,14.3661972 L10.7323944,12.971831 L10.3732394,13.2253521 Z M13.0140845,17.4507042 C13.0140845,17.4507042 12.8873239,18.2323944 14.4084507,18.4859155 C15.9295775,18.7394366 16.2253521,17.556338 16.2253521,17.556338 C15.7605634,17.6197183 13.0140845,17.4507042 13.0140845,17.4507042 Z M11.9366197,22.056338 L12.528169,21.4014085 L12.528169,19.7535211 C13.0985915,20.028169 13.7746479,20.2394366 14.556338,20.3028169 C15.4014085,20.3661972 16.1197183,20.2394366 16.7112676,19.9859155 L16.7112676,21.4014085 L17.3661972,22.3098592 L11.9366197,22.056338 Z" id="Shape" stroke="#000000" stroke-width="0.5"></path>
                    <path d="M6.31690141,27.1478873 C6.31690141,27.1478873 7.28873239,23.2183099 8.0915493,22.9647887 C8.87323944,22.7112676 11.9366197,22.056338 11.9366197,22.056338" id="Shape" stroke="#000000" stroke-width="0.5"></path>
                    <path d="M17.3450704,22.3098592 L16.7112676,21.4014085" id="Shape" stroke="#000000" stroke-width="0.5"></path>
                    <path d="M12.528169,21.4014085 L11.9366197,22.056338 C11.9366197,22.056338 14.3239437,25.4788732 17.3661972,22.3098592 C17.3661972,22.3098592 17.6408451,22.3098592 18.0422535,22.3521127 C19.2676056,22.4788732 21.7394366,22.9014085 22.0774648,24.2535211 C22.5422535,26.0915493 22.9225352,27.528169 22.9225352,27.528169" id="Shape" stroke="#000000" stroke-width="0.5"></path>
                    <polyline id="Shape" stroke="#000000" stroke-width="0.5" points="12.528169 19.6901408 12.528169 19.7535211 12.528169 21.4014085"></polyline>
                    <path d="M16.7112676,21.4014085 L16.7112676,19.9859155" id="Shape" stroke="#000000" stroke-width="0.5"></path>
                    <path d="M19.943662,12.6760563 C20.0070423,12.6971831 20.0704225,12.7183099 20.1338028,12.7394366 C20.471831,12.9084507 20.8521127,13.2676056 20.9788732,14.0915493 C21.2323944,15.7816901 19.4788732,15.9084507 19.4788732,15.9084507 C19.4788732,15.9084507 19.1197183,18.9507042 16.7112676,19.9647887 C16.1197183,20.2183099 15.4225352,20.3450704 14.556338,20.2816901 C13.7535211,20.2183099 13.0774648,20.028169 12.528169,19.7323944 C10.0140845,18.4859155 9.61267606,15.6338028 9.61267606,15.6338028 C9.08450704,16.2676056 8.51408451,14.915493 8.51408451,14.915493 C8.51408451,14.915493 8.26056338,12.9084507 9.31690141,12.443662 C9.33802817,12.443662 9.35915493,12.4225352 9.38028169,12.4225352" id="Shape" stroke="#000000" stroke-width="0.5"></path>
                    <path d="M18.7605634,13.1408451 C18.9168134,13.7746479 18.9480634,14.3450704 18.9480634,14.3450704 L19.1980634,14.3873239 C19.1043134,13.9647887 19.1668134,13.6267606 19.2605634,13.3521127" id="Shape" stroke="#000000" stroke-width="0.5"></path>
                    <path d="M10.3732394,13.2253521 C10.5791218,13.7535211 10.5791218,14.3661972 10.5791218,14.3661972 L10.8732394,12.971831" id="Shape" stroke="#000000" stroke-width="0.5"></path>
                    <path d="M16.2253521,17.5774648 C16.2253521,17.5774648 15.9295775,18.7394366 14.4084507,18.5070423 C12.8873239,18.2535211 13.0140845,17.471831 13.0140845,17.471831 C13.0140845,17.471831 15.7605634,17.6197183 16.2253521,17.5774648 Z" id="Shape" stroke="#000000" stroke-width="0.5"></path>
                    <path d="M14.6830986,5.66197183 C14.5140845,5.66197183 14.3450704,5.66197183 14.1760563,5.68309859 C13.9859155,5.70422535 13.7957746,5.72535211 13.6267606,5.74647887 C9.76056338,6.33802817 9.63380282,10.2887324 9.57042254,11.0492958 C9.57042254,11.0492958 9.57042254,11.0492958 9.57042254,11.0492958 C9.57042254,11.0704225 9.57042254,11.0704225 9.57042254,11.0915493 C10.0774648,10.7957746 10.7323944,10.6056338 11.4084507,10.4788732 C11.4507042,10.0140845 11.8943662,6.88732394 14.1760563,5.66197183 C14.1760563,5.66197183 17.0704225,7.07746479 17.3873239,10.5422535 C18.4014085,10.7535211 19.2253521,11.0070423 19.6901408,11.1760563 C19.6901408,11.1760563 18.5492958,5.4084507 14.1549296,5.66197183" id="Shape" stroke="#000000" stroke-width="0.5" fill="#000000" fill-rule="nonzero"></path>
                    <path d="M19.8169014,11.6619718 C19.8169014,11.6619718 19.8591549,11.8732394 19.943662,12.6760563 C20.0704225,13.7535211 19.4577465,13.5633803 19.4577465,13.5633803 C19.4577465,13.5633803 19.3309859,13.4577465 19.0985915,13.3309859 C18.9929577,13.2676056 18.8873239,13.2042254 18.7605634,13.1197183 C18.6760563,13.0774648 18.5915493,13.0140845 18.4859155,12.971831 C17.5140845,12.443662 15.9295775,11.7676056 14.1549296,11.7887324 C12.5070423,11.8098592 11.4507042,12.4647887 10.7112676,12.971831 C10.584507,13.056338 10.4577465,13.1408451 10.3521127,13.2253521 C10.0140845,13.4788732 9.76056338,13.6267606 9.54929577,13.5422535 C9.25352113,13.4366197 9.23239437,12.9295775 9.31690141,12.4647887 C9.31690141,12.4014085 9.33802817,12.3380282 9.33802817,12.2957746 C9.33802817,12.2957746 9.33802817,12.2957746 9.33802817,12.2957746 C9.38028169,12 9.46478873,11.7464789 9.50704225,11.5774648 C9.52816901,11.5352113 9.50704225,11.556338 9.52816901,11.4929577 C10.0352113,11.1971831 10.7112676,11.0070423 11.3873239,10.8802817 C12.8661972,10.6056338 14.4084507,10.6267606 14.4084507,10.6267606 C15.4859155,10.6478873 16.5,10.7746479 17.3661972,10.943662 C18.4014085,11.1971831 19.3309859,11.4929577 19.8169014,11.6619718" id="Shape" stroke="#000000" stroke-width="0.5" fill="#000000" fill-rule="nonzero"></path>
                    <path d="M14.6830986,5.72394366 C14.5140845,5.72394366 14.3450704,5.72394366 14.1760563,5.74894366 C13.9859155,5.77394366 13.7957746,5.79894366 13.6267606,5.82394366 C13.6267606,5.82394366 13.6478873,5.32394366 14.1338028,5.32394366 C14.5140845,5.32394366 14.6619718,5.64894366 14.6830986,5.72394366 Z" id="Shape" stroke="#000000" stroke-width="0.5" fill="#000000" fill-rule="nonzero"></path>
                    <path d="M14.6830986,6.11846635 C14.6830986,6.11846635 14.6830986,6.06846635 14.6830986,6.11846635" id="Shape" stroke="#000000" stroke-width="0.5"></path>
                    <path d="M11.3661972,22.1619718 C11.3661972,22.1619718 12.5704225,24.7183099 14.6619718,24.5915493 C16.7535211,24.4647887 18.0211268,22.3521127 18.0211268,22.3521127" id="Shape" stroke="#000000" stroke-width="0.5"></path>
                    <path d="M19.7323944,27.7183099 C19.7323944,27.7183099 19.7323944,27.9084507 19.7323944,28.1830986 C19.7323944,28.2042254 19.7323944,28.2464789 19.7323944,28.2676056 C19.7323944,28.4788732 19.7112676,28.7112676 19.7112676,28.943662 C18.8450704,29.2394366 17.9366197,29.471831 17.0070423,29.5985915 C16.943662,29.1760563 16.9014085,28.6478873 16.8802817,28.2676056 C16.8591549,27.9507042 16.8380282,27.7183099 16.8380282,27.7183099 L19.7323944,27.7183099 L19.7323944,27.7183099 Z" id="Shape" stroke="#000000" stroke-width="0.5"></path>
                    <path d="M16.8591549,28.4788732 L19.7323944,28.4788732" id="Shape" stroke="#000000" stroke-width="0.5"></path>
                    <path d="M15,0.169014085 C6.82394366,0.169014085 0.190140845,6.8028169 0.190140845,14.9788732 C0.190140845,20.1338028 2.80985915,24.6549296 6.8028169,27.3169014 C7.96478873,28.0985915 9.25352113,28.7112676 10.6056338,29.1338028 C10.9225352,29.2394366 11.2394366,29.3239437 11.556338,29.3873239 C11.9577465,29.4929577 12.3591549,29.556338 12.7816901,29.6197183 L12.7816901,29.6197183 C13.1619718,29.6830986 13.5633803,29.7253521 13.9647887,29.7464789 L13.9647887,29.7464789 C14.2816901,29.7676056 14.5774648,29.7887324 14.8943662,29.7887324 C14.8943662,29.7887324 14.8943662,29.7887324 14.8943662,29.7887324 L14.9788732,29.7887324 C17.9366197,29.7887324 20.6830986,28.9225352 23.0070423,27.443662 C27.084507,24.8028169 29.8098592,20.2183099 29.8098592,14.9788732 C29.8098592,6.78169014 23.1760563,0.169014085 15,0.169014085 Z" id="Shape" stroke="#4BAD00"></path>
                </g>
                <circle id="Oval-11" stroke="#119822" fill="#FFFFFF" cx="193" cy="93" r="15"></circle>
                <g id="noun_472771_cc" transform="translate(178.000000, 77.000000)">
                    <path d="M18.212766,23.9787234 L18,24.4468085 C18,24.4468085 18,24.4468085 18,24.4468085 L18,24.4468085 L17.7446809,25.0212766 L17.1276596,26.4042553 L14.8085106,25.7021277 L18.212766,23.9787234 Z M15.0638298,0.127659574 C6.80851064,0.127659574 0.14893617,6.80851064 0.14893617,15.0425532 C0.14893617,20.6595745 3.23404255,25.5319149 7.82978723,28.0851064 C8.10638298,28.2340426 8.38297872,28.3829787 8.68085106,28.5106383 L8.68085106,28.5106383 C9.57446809,28.9361702 10.5106383,29.2765957 11.4893617,29.5106383 L11.4893617,29.5106383 C12.6382979,29.787234 13.8297872,29.9361702 15.0851064,29.9361702 C17.3829787,29.9361702 19.5531915,29.4255319 21.4893617,28.4893617 C21.5531915,28.4680851 21.6382979,28.4255319 21.7021277,28.3829787 C26.6170213,25.9574468 30,20.8723404 30,15 C29.9787234,6.80851064 23.2978723,0.127659574 15.0638298,0.127659574 Z M20.8085106,18.106383 C20.7234043,19.4042553 18.1276596,18.9361702 18.1276596,18.9361702 C18.9148936,17.787234 19.3829787,16.6170213 19.3829787,16.6170213 C19.3829787,16.6170213 20.4255319,16.7446809 20.8085106,15.9361702 C20.8085106,15.9787234 20.893617,16.8510638 20.8085106,18.106383 Z M9.08510638,18.106383 C9.14893617,16.7021277 9.0212766,16.1702128 9.0212766,16.1702128 C9.21276596,16.5319149 9.40425532,16.6382979 10.0425532,16.6382979 C10.0425532,16.6382979 10.5957447,17.7021277 11.4680851,18.8085106 C11.4680851,18.787234 9.0212766,19.5106383 9.08510638,18.106383 Z M20.7446809,14.1489362 C20.4255319,13.4680851 19.8723404,13.4255319 19.8723404,13.4255319 C19.8723404,13.4255319 17.6808511,12.4468085 17.1914894,9.46808511 C17.1914894,9.46808511 15.8085106,12.0851064 12.212766,11.6808511 C12.212766,11.6808511 10.5957447,12.4680851 10.8297872,14.4042553 C10.8297872,14.4042553 9.72340426,13.8723404 9.53191489,13.3191489 C9.46808511,13.1276596 9.23404255,13.1702128 9.0212766,13.3404255 C9.0212766,13.3404255 8.9787234,13.106383 8.91489362,12.7021277 C9,12.7021277 9.06382979,12.6808511 9.14893617,12.6808511 C9.14893617,12.6808511 11.8723404,9.27659574 14.7446809,8.27659574 C17.6170213,7.27659574 19.3829787,7.5106383 19.3829787,7.5106383 C19.3829787,7.5106383 19.5531915,7.36170213 19.7446809,7.12765957 C20.1489362,7.59574468 20.4680851,8.12765957 20.6170213,8.72340426 C21.212766,11.1914894 20.6808511,13.3617021 20.7446809,14.1489362 Z M18.212766,23.9787234 L18,24.4468085 L18,24.4255319 L18.212766,23.9787234 Z M16.7446809,21.6382979 C16.7234043,21.5957447 16.7021277,21.5531915 16.6808511,21.5106383 C16.6595745,21.4680851 16.6382979,21.4255319 16.6382979,21.4042553 C16.6170213,21.2765957 16.3191489,21.2765957 16.0425532,21.4680851 C15.9787234,21.5106383 15.9574468,21.6170213 15.9574468,21.7234043 C14.4680851,22.0425532 13.2340426,21.6170213 12.9361702,21.4893617 L12.9361702,22.212766 C12.9361702,22.212766 12.9361702,22.212766 12.9361702,22.212766 C13.0212766,22.2340426 14.7659574,22.893617 16.1914894,22.3617021 C16.2340426,22.4255319 16.2553191,22.4680851 16.2553191,22.4680851 C16.3191489,22.5106383 16.4255319,22.4468085 16.5319149,22.3829787 C16.6382979,22.2978723 16.7446809,22.1489362 16.8085106,22.0638298 L16.8085106,21.8510638 C16.8085106,21.8510638 16.8085106,21.8510638 16.8085106,21.8510638 C16.787234,21.7659574 16.7659574,21.7021277 16.7446809,21.6382979 Z M12.9361702,22.212766 L10.5957447,22.9148936 L10.9574468,23.5744681 L11.7446809,25.0425532 L12.3404255,26.1702128 L14.8297872,25.7234043 L14.4680851,25.0425532 L13.6595745,23.5744681 L12.9361702,22.212766 L12.9361702,22.212766 Z" id="Shape"></path>
                    <path d="M7.80851064,28.0851064 C7.82978723,27.893617 7.85106383,27.6170213 7.89361702,27.3404255 C7.93617021,27.0638298 7.9787234,26.7446809 8.04255319,26.4255319 C8.12765957,25.9574468 8.25531915,25.4893617 8.40425532,25.0425532 C8.63829787,24.3617021 8.93617021,23.7659574 9.31914894,23.5744681 C10.5531915,22.9148936 10.5531915,22.9148936 10.5531915,22.9148936" id="Shape" stroke="#000000" stroke-width="0.5"></path>
                    <polyline id="Shape" stroke="#000000" stroke-width="0.5" points="12.9361702 22.212766 10.5744681 22.893617 10.9361702 23.5531915 11.7234043 25.0425532 12.3404255 26.1702128 14.8297872 25.7021277 14.4680851 25.0425532 13.6595745 23.5531915 12.9361702 22.212766"></polyline>
                    <polyline id="Shape" stroke="#000000" stroke-width="0.5" points="16.8085106 20.4468085 16.8085106 20.4680851 16.8085106 21.4680851 16.8085106 21.8297872"></polyline>
                    <path d="M16.1914894,22.3617021 C14.7659574,22.893617 13,22.2340426 12.9361702,22.212766 C12.9361702,22.212766 12.8051466,19.0673882 12.9361702,21.1193303 C13.0671938,23.1712724 12.8617065,21.5454962 13.1257077,21.6130812 C13.688187,21.7570772 14.9438293,21.940608 15.9574468,21.7234043 C15.9787234,21.9361702 16.106383,22.212766 16.1914894,22.3617021 Z" id="Shape" stroke="#000000" stroke-width="0.5" fill="#000000" fill-rule="nonzero"></path>
                    <polyline id="Shape" stroke="#000000" stroke-width="0.5" points="12.9361702 20.212766 12.9361702 20.3191489 12.9361702 21.4893617"></polyline>
                    <path d="M20.9574468,15.1702128 C20.9574468,15.4893617 20.9148936,15.7446809 20.8297872,15.9361702 C20.8297872,15.9361702 20.8297872,15.9361702 20.8297872,15.9361702 C20.4468085,16.7446809 19.4042553,16.6170213 19.4042553,16.6170213 C19.4042553,16.6170213 18.9361702,17.7659574 18.1489362,18.9361702 C17.7659574,19.4893617 17.3191489,20.0425532 16.8297872,20.4680851 C16.2340426,20.9787234 15.5531915,21.2978723 14.8510638,21.212766 C14.1914894,21.1276596 13.5531915,20.787234 12.9574468,20.3191489 C12.4042553,19.8723404 11.9148936,19.3404255 11.4893617,18.787234 C10.6170213,17.6808511 10.0638298,16.6170213 10.0638298,16.6170213 C9.42553191,16.6170213 9.23404255,16.5106383 9.04255319,16.1489362 C8.93617021,15.9361702 8.80851064,15.6382979 8.59574468,15.1914894 C8.21276596,14.4468085 8.63829787,13.6595745 9.04255319,13.3404255 C9.27659574,13.1702128 9.4893617,13.1276596 9.55319149,13.3191489 C9.74468085,13.8510638 10.8510638,14.4042553 10.8510638,14.4042553 C10.5957447,12.4893617 12.212766,11.7021277 12.212766,11.7021277 C15.8085106,12.106383 17.1914894,9.4893617 17.1914894,9.4893617 C17.6808511,12.4680851 19.8723404,13.4468085 19.8723404,13.4468085 C19.8723404,13.4468085 20.4255319,13.4893617 20.7446809,14.1702128 C20.8510638,14.4042553 20.9361702,14.7234043 20.9574468,15.1702128 Z" id="Shape" stroke="#000000" stroke-width="0.5"></path>
                    <path d="M20.8085106,18.106383 C20.7234043,19.4042553 18.1276596,18.9361702 18.1276596,18.9361702 C18.9148936,17.787234 19.3829787,16.6170213 19.3829787,16.6170213 C19.3829787,16.6170213 20.4255319,16.7446809 20.8085106,15.9361702 C20.8085106,15.9787234 20.893617,16.8510638 20.8085106,18.106383 Z" id="Shape" stroke="#000000" stroke-width="0.5" fill="#000000" fill-rule="nonzero"></path>
                    <path d="M11.4680851,18.787234 C11.4680851,18.787234 9.0212766,19.5106383 9.08510638,18.106383 C9.14893617,16.7021277 9.0212766,16.1702128 9.0212766,16.1702128 C9.21276596,16.5319149 9.40425532,16.6382979 10.0425532,16.6382979 C10.0425532,16.6170213 10.5957447,17.6808511 11.4680851,18.787234 Z" id="Shape" stroke="#000000" stroke-width="0.5" fill="#000000" fill-rule="nonzero"></path>
                    <path d="M20.7446809,14.1489362 C20.4255319,13.4680851 19.8723404,13.4255319 19.8723404,13.4255319 C19.8723404,13.4255319 17.6808511,12.4468085 17.1914894,9.46808511 C17.1914894,9.46808511 15.8085106,12.0851064 12.212766,11.6808511 C12.212766,11.6808511 10.5957447,12.4680851 10.8297872,14.4042553 C10.8297872,14.4042553 9.72340426,13.8723404 9.53191489,13.3191489 C9.46808511,13.1276596 9.23404255,13.1702128 9.0212766,13.3404255 C9.0212766,13.3404255 8.9787234,13.106383 8.91489362,12.7021277 C9,12.7021277 9.06382979,12.6808511 9.14893617,12.6808511 C9.14893617,12.6808511 11.8723404,9.27659574 14.7446809,8.27659574 C17.6170213,7.27659574 19.3829787,7.5106383 19.3829787,7.5106383 C19.3829787,7.5106383 19.5531915,7.36170213 19.7446809,7.12765957 C20.1489362,7.59574468 20.4680851,8.12765957 20.6170213,8.72340426 C21.212766,11.1914894 20.6808511,13.3617021 20.7446809,14.1489362 Z" id="Shape" stroke="#000000" stroke-width="0.5" fill="#000000" fill-rule="nonzero"></path>
                    <path d="M13.2978723,18.0638298 L16.1914894,18.0638298 C16.1914894,18.0638298 16.2978723,19.4255319 14.6808511,19.2765957 C13.0851064,19.1489362 13.2978723,18.0638298 13.2978723,18.0638298 Z" id="Shape" stroke="#000000" stroke-width="0.5"></path>
                    <polyline id="Shape" stroke="#000000" stroke-width="0.5" points="20.4893617 23.5531915 20.5744681 23.5531915 20.4893617 23.5531915 18.4893617 23.5531915"></polyline>
                    <path d="M10.9361702,23.5531915 L9.34042553,23.5531915" id="Shape" stroke="#000000" stroke-width="0.5"></path>
                    <path d="M21.1702128,25.0425532 L17.7446809,25.0425532" id="Shape" stroke="#000000" stroke-width="0.5"></path>
                    <path d="M11.7234043,25.0425532 L8.42553191,25.0425532" id="Shape" stroke="#000000" stroke-width="0.5"></path>
                    <path d="M8.06382979,26.4255319 L21.3829787,26.4255319" id="Shape" stroke="#000000" stroke-width="0.5"></path>
                    <path d="M7.91489362,27.3404255 L21.5957447,27.3404255" id="Shape" stroke="#000000" stroke-width="0.5"></path>
                    <path d="M11.4680851,29.5319149 L18.5957447,29.5319149" id="Shape" stroke="#000000" stroke-width="0.5"></path>
                    <path d="M17.0095745,21.4680851 C16.9095745,21.5180851 16.8095745,21.5680851 16.6595745,21.5680851" id="Shape" stroke="#000000" stroke-width="0.5"></path>
                    <path d="M13.0223404,21.5180851 C12.9223404,21.4680851 12.8723404,21.4680851 12.8723404,21.4680851" id="Shape" stroke="#000000" stroke-width="0.5"></path>
                    <path d="M16.8085106,22.3297872 L16.8085106,21.8297872 L16.8085106,21.8297872 C16.8585106,22.0297872 16.9085106,22.2297872 16.8085106,22.3297872 Z" id="Shape" stroke="#000000" stroke-width="0.5"></path>
                    <path d="M17.3110094,25.6538767 L14.9990767,25.6538767 L17.3110094,25.6538767 L18.6368205,22.862424 L18.6368205,22.7227477 L16.9787234,22.106383 C17.0212766,22.0425532 16.8297872,21.893617 16.8085106,21.8297872 C16.8085106,21.8510638 16.8723404,21.9574468 16.9787234,22.106383 C17.0079331,22.1453293 17.5290279,22.2853794 17.9603432,22.4526445 C18.1787739,22.5373524 18.6174166,22.6505614 18.6368205,22.862424 C18.6413619,22.9120107 18.1994249,23.842495 17.3110094,25.6538767 Z" id="Shape" stroke="#000000" stroke-width="0.5" fill="#000000" fill-rule="nonzero"></path>
                    <path d="" id="Shape" stroke="#000000" stroke-width="0.5"></path>
                    <path d="M16.8085106,21.8297872 C16.8085106,21.8297872 16.8085106,21.8297872 16.8085106,21.8297872 L16.8085106,22.0638298 C16.7446809,22.1702128 16.6382979,22.2978723 16.5319149,22.3829787 C16.4255319,22.4680851 16.3404255,22.5106383 16.2553191,22.4680851 C16.2553191,22.4680851 16.2340426,22.4255319 16.1914894,22.3617021 C16.106383,22.212766 15.9574468,21.9361702 15.9361702,21.7234043 C15.9148936,21.6170213 15.9361702,21.5106383 16.0212766,21.4680851 C16.2978723,21.2765957 16.6170213,21.2765957 16.6170213,21.4042553 C16.6170213,21.4255319 16.6382979,21.4680851 16.6595745,21.5106383 C16.6808511,21.5531915 16.7021277,21.5957447 16.7234043,21.6382979 C16.7659574,21.7021277 16.787234,21.7659574 16.8085106,21.8297872 Z" id="Shape" stroke="#000000" stroke-width="0.5" fill="#000000" fill-rule="nonzero"></path>
                    <path d="M18.2446809,24.4468085 L17.7446809,25.0425532" id="Shape" stroke="#000000" stroke-width="0.5"></path>
                    <path d="M14.8297872,25.7021277 L16.5957447,22.4893617" id="Shape" stroke="#000000" stroke-width="0.5"></path>
                    <path d="M18.4680851,23.3404255 L18.7659574,22.7446809 C18.7659574,22.7446809 19.5319149,23.0425532 20.4255319,23.5106383 C21.2978723,23.9787234 21.7862042,27.943108 21.8074808,27.943108 L7.79084604,27.943108" id="Shape" stroke="#000000" stroke-width="0.5"></path>
                    <path d="M16.8085106,21.8297872 L18.7659574,22.7446809" id="Shape" stroke="#000000" stroke-width="0.5"></path>
                    <path d="M19.7234043,7.14893617 C19.5319149,7.38297872 19.3617021,7.53191489 19.3617021,7.53191489 C19.3617021,7.53191489 17.6170213,7.31914894 14.7234043,8.29787234 C11.8510638,9.29787234 9.14893617,12.7234043 9.14893617,12.7234043 C9.06382979,12.7234043 8.9787234,12.7446809 8.91489362,12.7446809 C4.78723404,13.1489362 7.12765957,8.68085106 8.25531915,7.65957447 C8.85106383,7.12765957 9.29787234,6.65957447 9.9787234,6.19148936 C10.2553191,6 10.5744681,5.80851064 10.9361702,5.61702128 C13.2765957,4.38297872 16.6170213,3.34042553 18.7021277,4.04255319 C21.212766,4.89361702 20.3191489,6.44680851 19.7234043,7.14893617 Z" id="Shape" stroke="#000000" stroke-width="0.5"></path>
                    <path d="M10.0638298,6.21276596 C10.0638298,6.21276596 7.89361702,5.59574468 8.72340426,5.31914894 L11.6382979,5.31914894" id="Shape" stroke="#000000" stroke-width="0.5"></path>
                </g>
            </g>
        </g>
    </g>
</svg>