
<svg width="24px" height="25px" viewBox="0 0 24 25" version="1.1" xmlns="http://www.w3.org/2000/svg" xmlns:xlink="http://www.w3.org/1999/xlink">
    <!-- Generator: Sketch 47.1 (45422) - http://www.bohemiancoding.com/sketch -->
    <desc>Created with Sketch.</desc>
    <defs></defs>
    <g id="Page-1" stroke="none" stroke-width="1" fill="none" fill-rule="evenodd">
        <g id="Landing_Dropdown_product_hover" transform="translate(-694.000000, -263.000000)" fill-rule="nonzero" fill="#DDE5ED">
            <g id="Group-65" transform="translate(469.000000, 74.000000)">
                <g id="Group-64" transform="translate(149.000000, 189.000000)">
                    <g id="noun_1307983_cc" transform="translate(76.000000, 0.000000)">
                        <g id="Group">
                            <path d="M3.39524618,6.12923281 C1.60224296,6.12923281 0.148726655,4.76354238 0.148726655,3.07887786 C0.148726655,1.39421335 1.60224296,0.0285229202 3.39524618,0.0285229202 C5.1882494,0.0285229202 6.6417657,1.39421335 6.6417657,3.07887786 C6.6417657,4.76354238 5.1882494,6.12923281 3.39524618,6.12923281 Z M0.0563667233,13.0291414 L0.0563667233,7.39167968 L6.73480475,7.39167968 L6.73480475,13.0291414 L6.73480475,17.601962 L6.73480475,24.2220713 L3.67843803,24.2220713 L3.67843803,17.601962 L3.11239389,17.601962 L3.11239389,24.2220713 L0.0563667233,24.2220713 L0.0563667233,17.601962 L0.0563667233,13.0291414 Z M11.5449915,6.12923281 C9.75198829,6.12923281 8.29847199,4.76354238 8.29847199,3.07887786 C8.29847199,1.39421335 9.75198829,0.0285229202 11.5449915,0.0285229202 C13.3379947,0.0285229202 14.791511,1.39421335 14.791511,3.07887786 C14.791511,4.76354238 13.3379947,6.12923281 11.5449915,6.12923281 Z M8.2057725,13.0291414 L8.2057725,7.39167968 L14.8842105,7.39167968 L14.8842105,13.0291414 L14.8842105,17.601962 L14.8842105,24.2220713 L11.8281834,24.2220713 L11.8281834,17.601962 L11.2617997,17.601962 L11.2617997,24.2220713 L8.2057725,24.2220713 L8.2057725,17.601962 L8.2057725,13.0291414 Z M19.6943973,6.12923281 C17.9013941,6.12923281 16.4478778,4.76354238 16.4478778,3.07887786 C16.4478778,1.39421335 17.9013941,0.0285229202 19.6943973,0.0285229202 C21.4874005,0.0285229202 22.9409168,1.39421335 22.9409168,3.07887786 C22.9409168,4.76354238 21.4874005,6.12923281 19.6943973,6.12923281 Z M16.3551783,7.39167968 L23.0336163,7.39167968 L23.0336163,13.0291414 L23.0336163,17.601962 L23.0336163,24.2220713 L19.9775891,24.2220713 L19.9775891,17.601962 L19.4112054,17.601962 L19.4112054,24.2220713 L16.3551783,24.2220713 L16.3551783,17.601962 L16.3551783,13.0291414 L16.3551783,7.39167968 Z" id="Combined-Shape"></path>
                        </g>
                    </g>
                </g>
            </g>
        </g>
    </g>
</svg>