<?xml version="1.0" encoding="UTF-8"?>
<svg width="20px" height="20px" viewBox="0 0 20 20" version="1.1" xmlns="http://www.w3.org/2000/svg" xmlns:xlink="http://www.w3.org/1999/xlink">
    <!-- Generator: Sketch 47.1 (45422) - http://www.bohemiancoding.com/sketch -->
    <title>outline-settings-24px</title>
    <desc>Created with Sketch.</desc>
    <defs></defs>
    <g id="Page-1" stroke="none" stroke-width="1" fill="none" fill-rule="evenodd">
        <g id="Careers-Page" transform="translate(-219.000000, -1324.000000)" fill-rule="nonzero" fill="#000000">
            <g id="outline-settings-24px" transform="translate(219.000000, 1324.000000)">
                <g id="Outline">
                    <g id="Group">
                        <path d="M17.43,10.98 C17.47,10.66 17.5,10.34 17.5,10 C17.5,9.66 17.47,9.34 17.43,9.02 L19.54,7.37 C19.73,7.22 19.78,6.95 19.66,6.73 L17.66,3.27 C17.57,3.11 17.4,3.02 17.22,3.02 C17.16,3.02 17.1,3.03 17.05,3.05 L14.56,4.05 C14.04,3.65 13.48,3.32 12.87,3.07 L12.49,0.42 C12.46,0.18 12.25,0 12,0 L8,0 C7.75,0 7.54,0.18 7.51,0.42 L7.13,3.07 C6.52,3.32 5.96,3.66 5.44,4.05 L2.95,3.05 C2.89,3.03 2.83,3.02 2.77,3.02 C2.6,3.02 2.43,3.11 2.34,3.27 L0.34,6.73 C0.21,6.95 0.27,7.22 0.46,7.37 L2.57,9.02 C2.53,9.34 2.5,9.67 2.5,10 C2.5,10.33 2.53,10.66 2.57,10.98 L0.46,12.63 C0.27,12.78 0.22,13.05 0.34,13.27 L2.34,16.73 C2.43,16.89 2.6,16.98 2.78,16.98 C2.84,16.98 2.9,16.97 2.95,16.95 L5.44,15.95 C5.96,16.35 6.52,16.68 7.13,16.93 L7.51,19.58 C7.54,19.82 7.75,20 8,20 L12,20 C12.25,20 12.46,19.82 12.49,19.58 L12.87,16.93 C13.48,16.68 14.04,16.34 14.56,15.95 L17.05,16.95 C17.11,16.97 17.17,16.98 17.23,16.98 C17.4,16.98 17.57,16.89 17.66,16.73 L19.66,13.27 C19.78,13.05 19.73,12.78 19.54,12.63 L17.43,10.98 Z M15.45,9.27 C15.49,9.58 15.5,9.79 15.5,10 C15.5,10.21 15.48,10.43 15.45,10.73 L15.31,11.86 L16.2,12.56 L17.28,13.4 L16.58,14.61 L15.31,14.1 L14.27,13.68 L13.37,14.36 C12.94,14.68 12.53,14.92 12.12,15.09 L11.06,15.52 L10.9,16.65 L10.7,18 L9.3,18 L9.11,16.65 L8.95,15.52 L7.89,15.09 C7.46,14.91 7.06,14.68 6.66,14.38 L5.75,13.68 L4.69,14.11 L3.42,14.62 L2.72,13.41 L3.8,12.57 L4.69,11.87 L4.55,10.74 C4.52,10.43 4.5,10.2 4.5,10 C4.5,9.8 4.52,9.57 4.55,9.27 L4.69,8.14 L3.8,7.44 L2.72,6.6 L3.42,5.39 L4.69,5.9 L5.73,6.32 L6.63,5.64 C7.06,5.32 7.47,5.08 7.88,4.91 L8.94,4.48 L9.1,3.35 L9.3,2 L10.69,2 L10.88,3.35 L11.04,4.48 L12.1,4.91 C12.53,5.09 12.93,5.32 13.33,5.62 L14.24,6.32 L15.3,5.89 L16.57,5.38 L17.27,6.59 L16.2,7.44 L15.31,8.14 L15.45,9.27 Z" id="Shape"></path>
                        <path d="M10,6 C7.79,6 6,7.79 6,10 C6,12.21 7.79,14 10,14 C12.21,14 14,12.21 14,10 C14,7.79 12.21,6 10,6 Z M10,12 C8.9,12 8,11.1 8,10 C8,8.9 8.9,8 10,8 C11.1,8 12,8.9 12,10 C12,11.1 11.1,12 10,12 Z" id="Shape"></path>
                    </g>
                </g>
            </g>
        </g>
    </g>
</svg>