<?xml version="1.0" encoding="UTF-8"?>
<svg width="255px" height="134px" viewBox="0 0 255 134" version="1.1" xmlns="http://www.w3.org/2000/svg" xmlns:xlink="http://www.w3.org/1999/xlink">
    <!-- Generator: Sketch 46.2 (44496) - http://www.bohemiancoding.com/sketch -->
    <title>Group 69</title>
    <desc>Created with Sketch.</desc>
    <defs>
        <rect id="path-1" x="0.221429446" y="0.268863738" width="41.0189227" height="14.8220544"></rect>
        <linearGradient x1="2.21420599%" y1="58.5698485%" x2="100%" y2="58.5698485%" id="linearGradient-2">
            <stop stop-color="#4BAD00" offset="0%"></stop>
            <stop stop-color="#71DF55" offset="100%"></stop>
        </linearGradient>
        <rect id="path-3" x="0.251745916" y="0.188170817" width="89.6844824" height="32.4071962"></rect>
        <filter x="-11.2%" y="-24.7%" width="122.3%" height="161.7%" filterUnits="objectBoundingBox" id="filter-4">
            <feOffset dx="0" dy="2" in="SourceAlpha" result="shadowOffsetOuter1"></feOffset>
            <feGaussianBlur stdDeviation="3" in="shadowOffsetOuter1" result="shadowBlurOuter1"></feGaussianBlur>
            <feColorMatrix values="0 0 0 0 0.607843137   0 0 0 0 0.607843137   0 0 0 0 0.607843137  0 0 0 0.5 0" type="matrix" in="shadowBlurOuter1"></feColorMatrix>
        </filter>
        <rect id="path-5" x="0.176222141" y="0.131719572" width="62.7791377" height="22.6850373"></rect>
        <filter x="-15.9%" y="-35.3%" width="131.9%" height="188.2%" filterUnits="objectBoundingBox" id="filter-6">
            <feOffset dx="0" dy="2" in="SourceAlpha" result="shadowOffsetOuter1"></feOffset>
            <feGaussianBlur stdDeviation="3" in="shadowOffsetOuter1" result="shadowBlurOuter1"></feGaussianBlur>
            <feComposite in="shadowBlurOuter1" in2="SourceAlpha" operator="out" result="shadowBlurOuter1"></feComposite>
            <feColorMatrix values="0 0 0 0 0.607843137   0 0 0 0 0.607843137   0 0 0 0 0.607843137  0 0 0 0.5 0" type="matrix" in="shadowBlurOuter1"></feColorMatrix>
        </filter>
        <rect id="path-7" x="0.125872958" y="0.0940854083" width="44.8422412" height="16.2035981"></rect>
        <filter x="-22.3%" y="-49.4%" width="144.6%" height="223.4%" filterUnits="objectBoundingBox" id="filter-8">
            <feOffset dx="0" dy="2" in="SourceAlpha" result="shadowOffsetOuter1"></feOffset>
            <feGaussianBlur stdDeviation="3" in="shadowOffsetOuter1" result="shadowBlurOuter1"></feGaussianBlur>
            <feComposite in="shadowBlurOuter1" in2="SourceAlpha" operator="out" result="shadowBlurOuter1"></feComposite>
            <feColorMatrix values="0 0 0 0 0.607843137   0 0 0 0 0.607843137   0 0 0 0 0.607843137  0 0 0 0.5 0" type="matrix" in="shadowBlurOuter1"></feColorMatrix>
        </filter>
        <rect id="path-9" x="0.176222141" y="0.131719572" width="62.7791377" height="22.6850373"></rect>
        <filter x="-15.9%" y="-35.3%" width="131.9%" height="188.2%" filterUnits="objectBoundingBox" id="filter-10">
            <feOffset dx="0" dy="2" in="SourceAlpha" result="shadowOffsetOuter1"></feOffset>
            <feGaussianBlur stdDeviation="3" in="shadowOffsetOuter1" result="shadowBlurOuter1"></feGaussianBlur>
            <feColorMatrix values="0 0 0 0 0.607843137   0 0 0 0 0.607843137   0 0 0 0 0.607843137  0 0 0 0.5 0" type="matrix" in="shadowBlurOuter1"></feColorMatrix>
        </filter>
    </defs>
    <g id="Online-Survey" stroke="none" stroke-width="1" fill="none" fill-rule="evenodd">
        <g id="01-Online-Survey" transform="translate(-596.000000, -1113.000000)">
            <g id="Group-69" transform="translate(596.000000, 1113.000000)">
                <g id="Group-67" transform="translate(54.682085, 118.829243)">
                    <g id="Rectangle-32">
                        <use fill="#FFFFFF" fill-rule="evenodd" xlink:href="#path-1"></use>
                        <rect stroke="#979797" stroke-width="0.5" x="0.471429446" y="0.518863738" width="40.5189227" height="14.3220544"></rect>
                    </g>
                    <path d="M11.0145862,11.5049372 L4.06075393,11.5049372 C3.92762623,11.5049372 3.81958056,11.3955572 3.81958056,11.2607853 L3.81958056,10.2231398 C3.81958056,10.1577071 3.84562729,10.0948787 3.89161101,10.0489781 C3.94225742,9.99884559 5.15503792,8.81926642 7.51757227,8.81926642 C9.87785567,8.81926642 11.1285808,9.99591577 11.1806742,10.0460483 C11.2285873,10.0921116 11.2557595,10.1562422 11.2557595,10.2231398 L11.2557595,11.2607853 C11.2557595,11.3955572 11.1477139,11.5049372 11.0145862,11.5049372 Z M4.30192731,11.0166334 L10.7734128,11.0166334 L10.7734128,10.3361007 C10.4841655,10.1020405 9.36592499,9.3075702 7.51757227,9.3075702 C5.6605373,9.3075702 4.5800806,10.0995989 4.30192731,10.3333337 L4.30192731,11.0166334 Z M7.53767005,8.35130863 C6.62330141,8.35130863 5.87952273,7.5983442 5.87952273,6.672683 L5.87952273,5.5333075 C5.87968351,4.60780907 6.62330141,3.85484464 7.53767005,3.85484464 C8.4520387,3.85484464 9.19581738,4.60780907 9.19581738,5.53347027 L9.19581738,6.67284576 C9.19581738,7.5983442 8.4520387,8.35130863 7.53767005,8.35130863 Z M7.53767005,4.34314842 C6.88939603,4.34314842 6.36186947,4.87702722 6.36186947,5.53347027 L6.36186947,6.67284576 C6.36186947,7.32912605 6.88923524,7.86316762 7.53767005,7.86316762 C8.18610486,7.86316762 8.71347063,7.32928882 8.71347063,6.67284576 L8.71347063,5.53347027 C8.71347063,4.87702722 8.18594407,4.34314842 7.53767005,4.34314842 Z" id="Shape" fill="#000000" fill-rule="nonzero"></path>
                    <rect id="Rectangle-33" fill="#D8D8D8" x="14.8539107" y="4.81110621" width="23.9876741" height="2.39065393"></rect>
                    <rect id="Rectangle-33" fill="#D8D8D8" x="14.8539107" y="8.39708711" width="11.9938371" height="2.39065393"></rect>
                </g>
                <g id="Group-68">
                    <g id="Group-39" transform="translate(158.485092, 50.153895)">
                        <g id="Group-30">
                            <g id="Rectangle-32">
                                <use fill="black" fill-opacity="1" filter="url(#filter-4)" xlink:href="#path-3"></use>
                                <use fill="url(#linearGradient-2)" fill-rule="evenodd" xlink:href="#path-3"></use>
                            </g>
                            <path d="M9.17341704,23.6872805 L23.3227849,23.6872805 L23.3227849,22.199352 C22.6903697,21.6875985 20.2454292,19.950555 16.2041588,19.950555 C12.1439054,19.950555 9.78157621,21.6822604 9.17341704,22.193302 L9.17341704,23.6872805 Z M16.248101,9.09625734 C14.8307034,9.09625734 13.6773102,10.2635392 13.6773102,11.6987976 L13.6773102,14.1899479 C13.6773102,15.6248505 14.8303519,16.7924882 16.248101,16.7924882 C17.66585,16.7924882 18.8188917,15.6252064 18.8188917,14.1899479 L18.8188917,11.6987976 C18.8188917,10.2635392 17.6654985,9.09625734 16.248101,9.09625734 Z" id="Shape" fill="#000000" fill-rule="nonzero"></path>
                            <path d="M23.8500905,24.7549163 L8.64611141,24.7549163 C8.3550387,24.7549163 8.11880578,24.5157659 8.11880578,24.2210984 L8.11880578,21.9523722 C8.11880578,21.809309 8.17575478,21.6719399 8.27629439,21.5715821 C8.38702858,21.4619715 11.0386728,18.8829192 16.2041588,18.8829192 C21.3647233,18.8829192 24.0993303,21.4555657 24.2132283,21.5651763 C24.3179864,21.6658899 24.3773962,21.8061061 24.3773962,21.9523722 L24.3773962,24.2210984 C24.3773962,24.5157659 24.1411632,24.7549163 23.8500905,24.7549163 Z" id="Path" fill="#FFFFFF"></path>
                            <path d="M16.248101,17.8597682 C14.2489095,17.8597682 12.622699,16.2134737 12.622699,14.189592 L12.622699,11.6984418 C12.6230505,9.67491597 14.2489095,8.0286215 16.248101,8.0286215 C18.2472924,8.0286215 19.873503,9.67491597 19.873503,11.6987976 L19.873503,14.1899479 C19.873503,16.2134737 18.2472924,17.8597682 16.248101,17.8597682 Z" id="Path" fill="#FFFFFF"></path>
                            <rect id="Rectangle-33" fill="#FFFFFF" x="32.244456" y="10.1194084" width="52.4470657" height="5.22696713"></rect>
                            <rect id="Rectangle-33" fill="#FFFFFF" x="32.244456" y="17.959859" width="26.2235329" height="5.22696713"></rect>
                        </g>
                    </g>
                    <rect id="Rectangle-32" fill="url(#linearGradient-2)" x="0.534773712" y="0" width="90.4924507" height="32.6991529"></rect>
                    <path d="M9.53682026,23.7108133 L23.8136599,23.7108133 L23.8136599,22.2094801 C23.1755472,21.6931163 20.7085803,19.9404237 16.6309021,19.9404237 C12.5340698,19.9404237 10.1504583,21.68773 9.53682026,22.2033757 L9.53682026,23.7108133 Z M16.6752401,8.98833956 C15.2450732,8.98833956 14.0812891,10.1661375 14.0812891,11.6143262 L14.0812891,14.1279192 C14.0812891,15.5757489 15.2447185,16.7539059 16.6752401,16.7539059 C18.1057617,16.7539059 19.2691911,15.5761079 19.2691911,14.1279192 L19.2691911,11.6143262 C19.2691911,10.1661375 18.105407,8.98833956 16.6752401,8.98833956 Z" id="Shape" fill="#000000" fill-rule="nonzero"></path>
                    <path d="M24.345716,24.7880675 L9.00476412,24.7880675 C8.71106913,24.7880675 8.47270799,24.5467626 8.47270799,24.2494404 L8.47270799,21.9602753 C8.47270799,21.8159232 8.53017005,21.6773165 8.63161542,21.5760546 C8.74334721,21.4654565 11.4188802,18.8631695 16.6309021,18.8631695 C21.8379581,18.8631695 24.5972012,21.458993 24.7121253,21.5695911 C24.8178272,21.6712121 24.8777722,21.8126915 24.8777722,21.9602753 L24.8777722,24.2494404 C24.8777722,24.5467626 24.639411,24.7880675 24.345716,24.7880675 Z" id="Path" fill="#FFFFFF"></path>
                    <path d="M16.6752401,17.8308009 C14.6580379,17.8308009 13.0171768,16.169675 13.0171768,14.1275602 L13.0171768,11.6139671 C13.0175315,9.57221132 14.6580379,7.91108538 16.6752401,7.91108538 C18.6924422,7.91108538 20.3333033,9.57221132 20.3333033,11.6143262 L20.3333033,14.1279192 C20.3333033,16.169675 18.6924422,17.8308009 16.6752401,17.8308009 Z" id="Path" fill="#FFFFFF"></path>
                    <rect id="Rectangle-33" fill="#FFFFFF" x="32.8157064" y="10.0207081" width="52.9195618" height="5.27405692"></rect>
                    <rect id="Rectangle-33" fill="#FFFFFF" x="32.8157064" y="17.9317935" width="26.4597809" height="5.27405692"></rect>
                    <g id="noun_1296740_cc" transform="translate(106.284748, 46.630833)" fill-rule="nonzero" fill="#000000">
                        <g id="Group" transform="translate(0.000000, 0.222600)">
                            <path d="M16.0151281,0.126397538 C13.6111891,0.126397538 11.4344265,0.677574145 9.82844989,1.59874371 C8.22233696,2.51991328 7.15569533,3.84376319 7.15569533,5.36140615 L7.15569533,20.0194407 C7.15569533,21.5370697 8.22230288,22.8500099 9.82844989,23.7711969 C11.3579628,24.6484797 13.4062977,25.1929903 15.6743807,25.2435256 L15.6743807,29.4751576 C14.8216262,29.6214586 14.1497064,30.3155161 14.0026057,31.1874591 L4.05700651,31.1874591 C3.89099437,30.2033124 3.05118829,29.4424562 2.04448414,29.4424562 C0.919370254,29.4424562 -3.40747412e-07,30.3840947 -3.40747412e-07,31.5364597 C-3.40747412e-07,32.6887898 0.919370254,33.6304631 2.04448414,33.6304631 C3.05480022,33.6304631 3.89525371,32.8748071 4.05700651,31.8854603 L14.0026057,31.8854603 C14.1643585,32.8748071 15.004812,33.6304631 16.0151281,33.6304631 C17.0254441,33.6304631 17.8658976,32.8748071 18.0276504,31.8854603 L27.9732503,31.8854603 C28.1350031,32.8748071 28.9754566,33.6304631 29.9857727,33.6304631 C31.1108866,33.6304631 32.0302572,32.6887898 32.0302572,31.5364597 C32.0302572,30.3840947 31.1108866,29.4424562 29.9857727,29.4424562 C28.9790685,29.4424562 28.1392625,30.2033124 27.9732503,31.1874591 L18.0276504,31.1874591 C17.8805498,30.3155161 17.20863,29.6214586 16.3558755,29.4751576 L16.3558755,25.2435256 C18.6239584,25.1929903 20.6722933,24.6484797 22.2018062,23.7711969 C23.8079192,22.8500099 24.8745608,21.5370697 24.8745608,20.0194407 L24.8745608,5.36140615 C24.8745608,3.84376319 23.8079533,2.51991328 22.2018062,1.59874371 C20.5957955,0.677574145 18.419067,0.126397538 16.0151281,0.126397538 L16.0151281,0.126397538 Z M16.0151281,0.824398686 C18.3159228,0.824398686 20.3946183,1.36227837 21.8717242,2.20949472 C23.3488302,3.05671106 24.193066,4.18057667 24.193066,5.36140615 C24.193066,6.54222516 23.3488302,7.65518799 21.8717242,8.50242179 C20.3946183,9.34962068 18.3159228,9.89842409 16.0151281,9.89842409 C13.7143334,9.89842409 11.6356379,9.34962068 10.1585319,8.50242179 C8.68142595,7.65518799 7.83719016,6.54222516 7.83719016,5.36140615 C7.83719016,4.18057667 8.68142595,3.05671106 10.1585319,2.20949472 C11.6356379,1.36227837 13.7143334,0.824398686 16.0151281,0.824398686 Z M7.83719016,7.38998246 C8.30650157,8.05416545 8.99361873,8.63437891 9.82844989,9.11317279 C11.4344606,10.0343249 13.6111891,10.5964252 16.0151281,10.5964252 C18.419067,10.5964252 20.5958296,10.0343249 22.2018062,9.11317279 C23.0366374,8.63437891 23.7237546,8.05416545 24.193066,7.38998246 L24.193066,10.2474247 C24.193066,11.4282332 23.3488302,12.541196 21.8717242,13.3884298 C20.3946183,14.2356287 18.3159228,14.7844321 16.0151281,14.7844321 C13.7143334,14.7844321 11.6356379,14.2356287 10.1585319,13.3884298 C8.68142595,12.541196 7.83719016,11.4282332 7.83719016,10.2474247 L7.83719016,7.38998246 Z M7.83719016,12.2759905 C8.30650157,12.9401735 8.99361873,13.5203869 9.82844989,13.9991808 C11.4344606,14.9203329 13.6111891,15.4824333 16.0151281,15.4824333 C18.419067,15.4824333 20.5958296,14.9203329 22.2018062,13.9991808 C23.0366374,13.5203869 23.7237546,12.9401735 24.193066,12.2759905 L24.193066,15.1334327 C24.193066,16.3142412 23.3488302,17.4272041 21.8717242,18.2744379 C20.3946183,19.1216368 18.3159228,19.6704402 16.0151281,19.6704402 C13.7143334,19.6704402 11.6356379,19.1216368 10.1585319,18.2744379 C8.68142595,17.4272041 7.83719016,16.3142412 7.83719016,15.1334327 L7.83719016,12.2759905 Z M7.83719016,17.1619985 C8.30650157,17.8261815 8.99361873,18.406395 9.82844989,18.8851889 C11.4344606,19.806341 13.6111891,20.3684413 16.0151281,20.3684413 C18.419067,20.3684413 20.5958296,19.806341 22.2018062,18.8851889 C23.0366374,18.406395 23.7237546,17.8261815 24.193066,17.1619985 L24.193066,20.0194407 C24.193066,21.2002493 23.3488302,22.3132121 21.8717242,23.1604459 C20.3946183,24.0076448 18.3159228,24.5564482 16.0151281,24.5564482 C13.7143334,24.5564482 11.6356379,24.0076448 10.1585319,23.1604459 C8.68142595,22.3132121 7.83719016,21.2002493 7.83719016,20.0194407 L7.83719016,17.1619985 Z M2.04448414,30.1404574 C2.80125007,30.1404574 3.40747379,30.7613294 3.40747379,31.5364597 C3.40747379,32.3115551 2.80125007,32.932462 2.04448414,32.932462 C1.28771821,32.932462 0.681494485,32.3115551 0.681494485,31.5364597 C0.681494485,30.7613294 1.28771821,30.1404574 2.04448414,30.1404574 Z M16.0151281,30.1404574 C16.771894,30.1404574 17.3781177,30.7613294 17.3781177,31.5364597 C17.3781177,32.3115551 16.771894,32.932462 16.0151281,32.932462 C15.2583621,32.932462 14.6521384,32.3115551 14.6521384,31.5364597 C14.6521384,30.7613294 15.2583621,30.1404574 16.0151281,30.1404574 Z M29.9857727,30.1404574 C30.7425386,30.1404574 31.3487623,30.7613294 31.3487623,31.5364597 C31.3487623,32.3115551 30.7425386,32.932462 29.9857727,32.932462 C29.2290068,32.932462 28.622783,32.3115551 28.622783,31.5364597 C28.622783,30.7613294 29.2290068,30.1404574 29.9857727,30.1404574 Z" id="Shape"></path>
                        </g>
                    </g>
                    <polyline id="Line-20" stroke="#979797" stroke-linecap="square" stroke-dasharray="2,3" points="122.676269 40.5847925 122.676269 17.110031 96.3657006 17.110031"></polyline>
                    <polyline id="Line-20" stroke="#979797" stroke-linecap="square" stroke-dasharray="2,3" transform="translate(110.288530, 105.742966) scale(1, -1) translate(-110.288530, -105.742966) " points="123.443814 126.1369 123.443814 113.034912 123.443814 85.3490322 97.1332459 85.3490322"></polyline>
                    <path d="M138.344526,68.6147089 L153.311659,68.6147089" id="Line-21" stroke="#979797" stroke-linecap="square" stroke-dasharray="2"></path>
                    <g id="Group-39" transform="translate(149.231566, 98.337520)">
                        <g id="Group-30">
                            <g id="Rectangle-32">
                                <use fill="black" fill-opacity="1" filter="url(#filter-6)" xlink:href="#path-5"></use>
                                <use fill="#FFFFFF" fill-rule="evenodd" xlink:href="#path-5"></use>
                                <rect stroke="#979797" stroke-width="0.5" x="0.426222141" y="0.381719572" width="62.2791377" height="22.1850373"></rect>
                            </g>
                            <rect id="Rectangle-14" stroke="#979797" stroke-width="0.5" x="4.09751674" y="4.04059656" width="14.5523079" height="14.8672833"></rect>
                            <path d="M16.6950634,17.3284414 L6.05227799,17.3284414 C5.84852709,17.3284414 5.68316404,17.1610361 5.68316404,16.9547689 L5.68316404,15.3666606 C5.68316404,15.2665163 5.72302835,15.1703579 5.79340607,15.1001075 C5.87092,15.0233801 7.72707099,13.2180434 11.3429112,13.2180434 C14.9553063,13.2180434 16.8695312,15.018896 16.9492598,15.0956234 C17.0225905,15.166123 17.0641773,15.2642743 17.0641773,15.3666606 L17.0641773,16.9547689 C17.0641773,17.1610361 16.8988143,17.3284414 16.6950634,17.3284414 Z M6.42139193,16.5810963 L16.3259494,16.5810963 L16.3259494,15.5395464 C15.8832588,15.181319 14.1718004,13.9653885 11.3429112,13.9653885 C8.50073381,13.9653885 6.84710335,15.1775823 6.42139193,15.5353114 L6.42139193,16.5810963 Z M11.3736707,12.5018377 C9.97423668,12.5018377 8.83588927,11.3494316 8.83588927,9.93271443 L8.83588927,8.18890923 C8.83613535,6.77244118 9.97423668,5.62003505 11.3736707,5.62003505 C12.7731047,5.62003505 13.9114521,6.77244118 13.9114521,8.18915835 L13.9114521,9.93296355 C13.9114521,11.3494316 12.7731047,12.5018377 11.3736707,12.5018377 Z M11.3736707,6.36738014 C10.3814924,6.36738014 9.57411716,7.18447743 9.57411716,8.18915835 L9.57411716,9.93296355 C9.57411716,10.9373953 10.3812463,11.7547418 11.3736707,11.7547418 C12.366095,11.7547418 13.1732242,10.9376445 13.1732242,9.93296355 L13.1732242,8.18915835 C13.1732242,7.18447743 12.365849,6.36738014 11.3736707,6.36738014 Z" id="Shape" fill="#000000" fill-rule="nonzero"></path>
                            <rect id="Rectangle-33" fill="#D8D8D8" x="22.5711192" y="7.08358585" width="36.712946" height="3.65887699"></rect>
                            <rect id="Rectangle-33" fill="#D8D8D8" x="22.5711192" y="12.5719013" width="18.356473" height="3.65887699"></rect>
                        </g>
                    </g>
                    <path d="M129.932229,110.091259 L144.899363,110.091259" id="Line-21" stroke="#979797" stroke-linecap="square" stroke-dasharray="2"></path>
                    <path d="M90.7040066,57.6486418 L105.67114,57.6486418" id="Line-21" stroke="#979797" stroke-linecap="square" stroke-dasharray="2"></path>
                    <g id="Group-39" transform="translate(39.843383, 48.559221)">
                        <g id="Group-30">
                            <g id="Rectangle-32">
                                <use fill="black" fill-opacity="1" filter="url(#filter-8)" xlink:href="#path-7"></use>
                                <use fill="#FFFFFF" fill-rule="evenodd" xlink:href="#path-7"></use>
                                <rect stroke="#979797" stroke-width="0.5" x="0.375872958" y="0.344085408" width="44.3422412" height="15.7035981"></rect>
                            </g>
                            <path d="M11.9250453,12.3774582 L4.32305571,12.3774582 C4.17751935,12.3774582 4.05940289,12.2578829 4.05940289,12.1105492 L4.05940289,10.9761861 C4.05940289,10.9046545 4.08787739,10.8359699 4.1381472,10.7857911 C4.19351429,10.7309858 5.51933642,9.4414596 8.10207941,9.4414596 C10.6823616,9.4414596 12.0496652,10.7277828 12.1066142,10.7825881 C12.1589932,10.832945 12.1886981,10.9030531 12.1886981,10.9761861 L12.1886981,12.1105492 C12.1886981,12.2578829 12.0705816,12.3774582 11.9250453,12.3774582 Z M4.58670852,11.8436402 L11.6613924,11.8436402 L11.6613924,11.099676 C11.3451848,10.8437993 10.1227146,9.97527752 8.10207941,9.97527752 C6.07195272,9.97527752 4.8907881,10.8411302 4.58670852,11.096651 L4.58670852,11.8436402 Z M8.12405048,8.92988409 C7.12445477,8.92988409 6.31134948,8.10673686 6.31134948,7.09479602 L6.31134948,5.84922088 C6.31152525,4.83745798 7.12445477,4.01431075 8.12405048,4.01431075 C9.1236462,4.01431075 9.93675148,4.83745798 9.93675148,5.84939882 L9.93675148,7.09497396 C9.93675148,8.10673686 9.1236462,8.92988409 8.12405048,8.92988409 Z M8.12405048,4.54812867 C7.41535171,4.54812867 6.83865512,5.1317696 6.83865512,5.84939882 L6.83865512,7.09497396 C6.83865512,7.81242525 7.41517594,8.39624411 8.12405048,8.39624411 C8.83292502,8.39624411 9.40944585,7.81260319 9.40944585,7.09497396 L9.40944585,5.84939882 C9.40944585,5.1317696 8.83274925,4.54812867 8.12405048,4.54812867 Z" id="Shape" fill="#000000" fill-rule="nonzero"></path>
                            <rect id="Rectangle-33" fill="#D8D8D8" x="16.122228" y="5.05970418" width="26.2235329" height="2.61348356"></rect>
                            <rect id="Rectangle-33" fill="#D8D8D8" x="16.122228" y="8.97992952" width="13.1117664" height="2.61348356"></rect>
                        </g>
                    </g>
                    <path d="M102.17165,93.6119764 L117.138783,93.6119764" id="Line-21" stroke="#979797" stroke-linecap="square" stroke-dasharray="2"></path>
                    <g id="Group-39" transform="translate(33.645203, 80.330634)">
                        <g id="Group-30">
                            <g id="Rectangle-32">
                                <use fill="black" fill-opacity="1" filter="url(#filter-10)" xlink:href="#path-9"></use>
                                <use fill="url(#linearGradient-2)" fill-rule="evenodd" xlink:href="#path-9"></use>
                            </g>
                            <path d="M6.42139193,16.5810963 L16.3259494,16.5810963 L16.3259494,15.5395464 C15.8832588,15.181319 14.1718004,13.9653885 11.3429112,13.9653885 C8.50073381,13.9653885 6.84710335,15.1775823 6.42139193,15.5353114 L6.42139193,16.5810963 Z M11.3736707,6.36738014 C10.3814924,6.36738014 9.57411716,7.18447743 9.57411716,8.18915835 L9.57411716,9.93296355 C9.57411716,10.9373953 10.3812463,11.7547418 11.3736707,11.7547418 C12.366095,11.7547418 13.1732242,10.9376445 13.1732242,9.93296355 L13.1732242,8.18915835 C13.1732242,7.18447743 12.365849,6.36738014 11.3736707,6.36738014 Z" id="Shape" fill="#000000" fill-rule="nonzero"></path>
                            <path d="M16.6950634,17.3284414 L6.05227799,17.3284414 C5.84852709,17.3284414 5.68316404,17.1610361 5.68316404,16.9547689 L5.68316404,15.3666606 C5.68316404,15.2665163 5.72302835,15.1703579 5.79340607,15.1001075 C5.87092,15.0233801 7.72707099,13.2180434 11.3429112,13.2180434 C14.9553063,13.2180434 16.8695312,15.018896 16.9492598,15.0956234 C17.0225905,15.166123 17.0641773,15.2642743 17.0641773,15.3666606 L17.0641773,16.9547689 C17.0641773,17.1610361 16.8988143,17.3284414 16.6950634,17.3284414 Z" id="Path" fill="#FFFFFF"></path>
                            <path d="M11.3736707,12.5018377 C9.97423668,12.5018377 8.83588927,11.3494316 8.83588927,9.93271443 L8.83588927,8.18890923 C8.83613535,6.77244118 9.97423668,5.62003505 11.3736707,5.62003505 C12.7731047,5.62003505 13.9114521,6.77244118 13.9114521,8.18915835 L13.9114521,9.93296355 C13.9114521,11.3494316 12.7731047,12.5018377 11.3736707,12.5018377 Z" id="Path" fill="#FFFFFF"></path>
                            <rect id="Rectangle-33" fill="#FFFFFF" x="22.5711192" y="7.08358585" width="36.712946" height="3.65887699"></rect>
                            <rect id="Rectangle-33" fill="#FFFFFF" x="22.5711192" y="12.5719013" width="18.356473" height="3.65887699"></rect>
                        </g>
                    </g>
                </g>
            </g>
        </g>
    </g>
</svg>