
<svg width="27px" height="25px" viewBox="0 0 27 25" version="1.1" xmlns="http://www.w3.org/2000/svg" xmlns:xlink="http://www.w3.org/1999/xlink">
    <!-- Generator: Sketch 47.1 (45422) - http://www.bohemiancoding.com/sketch -->
    <desc>Created with Sketch.</desc>
    <defs></defs>
    <g id="Page-1" stroke="none" stroke-width="1" fill="none" fill-rule="evenodd">
        <g id="Landing_Dropdown_product_hover" transform="translate(-573.000000, -34.000000)" fill-rule="nonzero" fill="#DDE5ED">
            <path d="M592.265176,34 L592.265176,35.039261 L592.265176,57.960739 L592.265176,59 L593.300319,59 L598.964856,59 L600,59 L600,57.960739 L600,35.039261 L600,34 L598.964856,34 L593.300319,34 L592.265176,34 Z M573,45.1720554 L573,46.2113164 L573,57.960739 L573,59 L574.035144,59 L579.699681,59 L580.734824,59 L580.734824,57.960739 L580.734824,46.2113164 L580.734824,45.1720554 L579.699681,45.1720554 L574.035144,45.1720554 L573,45.1720554 Z M582.632588,39.9180139 L582.632588,40.9572748 L582.632588,57.960739 L582.632588,59 L583.667732,59 L589.332268,59 L590.367412,59 L590.367412,57.960739 L590.367412,40.9572748 L590.367412,39.9180139 L589.332268,39.9180139 L583.667732,39.9180139 L582.632588,39.9180139 Z" id="Shape"></path>
        </g>
    </g>
</svg>