<?xml version="1.0" encoding="UTF-8"?>
<svg width="216px" height="137px" viewBox="0 0 216 137" version="1.1" xmlns="http://www.w3.org/2000/svg" xmlns:xlink="http://www.w3.org/1999/xlink">
    <!-- Generator: Sketch 46.2 (44496) - http://www.bohemiancoding.com/sketch -->
    <title>Group 88</title>
    <desc>Created with Sketch.</desc>
    <defs>
        <rect id="path-1" x="0" y="0" width="95.8064516" height="58.7903226"></rect>
        <filter x="-7.3%" y="-8.5%" width="114.6%" height="123.8%" filterUnits="objectBoundingBox" id="filter-2">
            <feOffset dx="0" dy="2" in="SourceAlpha" result="shadowOffsetOuter1"></feOffset>
            <feGaussianBlur stdDeviation="2" in="shadowOffsetOuter1" result="shadowBlurOuter1"></feGaussianBlur>
            <feColorMatrix values="0 0 0 0 0.607843137   0 0 0 0 0.607843137   0 0 0 0 0.607843137  0 0 0 0.5 0" type="matrix" in="shadowBlurOuter1"></feColorMatrix>
        </filter>
        <rect id="path-3" x="0" y="0" width="95.8064516" height="58.7903226"></rect>
        <filter x="-7.3%" y="-8.5%" width="114.6%" height="123.8%" filterUnits="objectBoundingBox" id="filter-4">
            <feOffset dx="0" dy="2" in="SourceAlpha" result="shadowOffsetOuter1"></feOffset>
            <feGaussianBlur stdDeviation="2" in="shadowOffsetOuter1" result="shadowBlurOuter1"></feGaussianBlur>
            <feColorMatrix values="0 0 0 0 0.607843137   0 0 0 0 0.607843137   0 0 0 0 0.607843137  0 0 0 0.5 0" type="matrix" in="shadowBlurOuter1"></feColorMatrix>
        </filter>
        <linearGradient x1="2.21420599%" y1="58.5698485%" x2="100%" y2="58.5698485%" id="linearGradient-5">
            <stop stop-color="#4BAD00" offset="0%"></stop>
            <stop stop-color="#71DF55" offset="100%"></stop>
        </linearGradient>
        <circle id="path-6" cx="24.0821984" cy="24.0821984" r="16.6200008"></circle>
        <mask id="mask-7" maskContentUnits="userSpaceOnUse" maskUnits="objectBoundingBox" x="0" y="0" width="33.2400017" height="33.2400017" fill="white">
            <use xlink:href="#path-6"></use>
        </mask>
        <circle id="path-8" cx="24.0821984" cy="24.0821984" r="16.6200008"></circle>
        <mask id="mask-9" maskContentUnits="userSpaceOnUse" maskUnits="objectBoundingBox" x="0" y="0" width="33.2400017" height="33.2400017" fill="white">
            <use xlink:href="#path-8"></use>
        </mask>
        <circle id="path-10" cx="24.0821984" cy="24.0821984" r="16.6200008"></circle>
        <mask id="mask-11" maskContentUnits="userSpaceOnUse" maskUnits="objectBoundingBox" x="0" y="0" width="33.2400017" height="33.2400017" fill="white">
            <use xlink:href="#path-10"></use>
        </mask>
        <circle id="path-12" cx="24.0821984" cy="24.0821984" r="16.6200008"></circle>
        <mask id="mask-13" maskContentUnits="userSpaceOnUse" maskUnits="objectBoundingBox" x="0" y="0" width="33.2400017" height="33.2400017" fill="white">
            <use xlink:href="#path-12"></use>
        </mask>
        <circle id="path-14" cx="24.0821984" cy="24.0821984" r="16.6200008"></circle>
        <mask id="mask-15" maskContentUnits="userSpaceOnUse" maskUnits="objectBoundingBox" x="0" y="0" width="33.2400017" height="33.2400017" fill="white">
            <use xlink:href="#path-14"></use>
        </mask>
    </defs>
    <g id="Online-Survey" stroke="none" stroke-width="1" fill="none" fill-rule="evenodd">
        <g id="01-Online-Survey" transform="translate(-941.000000, -1111.000000)">
            <g id="Group-88" transform="translate(945.000000, 1113.000000)">
                <path d="M84.0093885,125.900337 L84.0093885,55.052961 C84.0093885,50.7631199 87.5192585,47.9032258 91.8090997,47.9032258 L195.805248,47.9032258 C200.095089,47.9032258 203.604959,50.7631199 203.604959,55.052961 L203.604959,125.900337" id="Shape" fill="#3E3E42" fill-rule="nonzero"></path>
                <path d="M76.2096774,127.850265 L76.2096774,129.150217 C76.2096774,132.010111 78.5495908,135 81.4094848,135 L206.204863,135 C209.064757,135 211.40467,132.010111 211.40467,129.150217 L211.40467,127.850265 C211.40467,126.420318 210.234714,125.900337 208.804766,125.900337 L78.8095811,125.900337 C77.3796341,125.900337 76.2096774,126.420318 76.2096774,127.850265 Z" id="Shape" fill="#D2D2D6" fill-rule="nonzero"></path>
                <rect id="Rectangle-path" fill="#FFFFFF" fill-rule="nonzero" x="90.3629032" y="54.4354839" width="106.596052" height="64.9975927"></rect>
                <path d="M159.406596,129.800193 L128.207752,129.800193 C126.777805,129.800193 125.607848,127.98026 125.607848,126.550313 L125.607848,125.900337 L162.0065,125.900337 L162.0065,126.550313 C162.0065,127.98026 160.836543,129.800193 159.406596,129.800193 Z" id="Shape" fill="#A6A6AD" fill-rule="nonzero"></path>
                <g id="Group-87" transform="translate(101.250000, 59.879032)">
                    <rect id="Rectangle-path" fill="#FFFFFF" fill-rule="nonzero" x="0" y="0" width="86.9354839" height="53.3467742"></rect>
                    <g id="Group-70" transform="translate(9.798387, 35.927419)" fill="#D8D8D8">
                        <rect id="Rectangle-17" x="0" y="0" width="32.6612903" height="3.26612903"></rect>
                        <rect id="Rectangle-17" x="0" y="5.44354839" width="27.2177419" height="3.26612903"></rect>
                    </g>
                    <polygon id="Polygon" fill="#D8D8D8" points="64.233871 13.0645161 80.8006619 25.1009943 74.4727108 44.5764251 53.9950311 44.5764251 47.66708 25.1009943"></polygon>
                    <polygon id="Polygon" fill="#4BAD00" points="64.233871 17.4193548 76.6589642 26.4467135 71.9130009 41.0532865 56.5547411 41.0532865 51.8087778 26.4467135"></polygon>
                    <rect id="Rectangle-path" fill-opacity="0.35" fill="#4BAD00" fill-rule="nonzero" x="0" y="0" width="86.9354839" height="53.3467742"></rect>
                </g>
                <g id="Group-86" transform="translate(47.903226, 29.395161)">
                    <g id="Rectangle-path" fill-rule="nonzero">
                        <use fill="black" fill-opacity="1" filter="url(#filter-2)" xlink:href="#path-1"></use>
                        <use fill="#FFFFFF" fill-rule="evenodd" xlink:href="#path-1"></use>
                    </g>
                    <g id="Group-77" transform="translate(8.709677, 11.975806)">
                        <g id="Group-70" transform="translate(0.000000, 22.862903)" fill="#D8D8D8">
                            <rect id="Rectangle-17" x="0" y="0" width="32.6612903" height="3.26612903"></rect>
                            <rect id="Rectangle-17" x="0" y="5.44354839" width="27.2177419" height="3.26612903"></rect>
                        </g>
                        <g id="Group-76" transform="translate(43.548387, 0.000000)">
                            <g id="Graph_bar" transform="translate(0.000000, 9.390121)" fill="#4BAD00">
                                <rect id="Bar" x="0" y="13.186996" width="3.87852823" height="10.0841734"></rect>
                                <rect id="Bar" x="6.73639113" y="0" width="3.87852823" height="23.2711694"></rect>
                                <rect id="Bar" x="13.4727823" y="9.50239415" width="3.87852823" height="13.7687752"></rect>
                                <rect id="Bar" x="20.4133065" y="14.9323337" width="3.87852823" height="8.33883569"></rect>
                                <rect id="Bar" x="27.1496976" y="11.4416583" width="3.87852823" height="11.8295111"></rect>
                            </g>
                            <g id="title2" transform="translate(1.224798, 0.000000)" fill="#D8D8D8">
                                <rect id="Rectangle" x="0" y="0" width="28.7827621" height="3.26612903"></rect>
                            </g>
                        </g>
                    </g>
                    <rect id="Rectangle-path" fill-opacity="0.315" fill="#4BAD00" fill-rule="nonzero" x="0" y="0" width="95.8064516" height="58.7903226"></rect>
                </g>
                <g id="Group-71">
                    <g id="Rectangle-path" fill-rule="nonzero">
                        <use fill="black" fill-opacity="1" filter="url(#filter-4)" xlink:href="#path-3"></use>
                        <use fill="#FFFFFF" fill-rule="evenodd" xlink:href="#path-3"></use>
                    </g>
                    <g id="Group-89" transform="translate(10.000000, 5.000000)">
                        <g id="Group-70" transform="translate(0.000000, 15.000000)" fill="url(#linearGradient-5)">
                            <rect id="Rectangle-17" x="0" y="0" width="30" height="3"></rect>
                            <rect id="Rectangle-17" x="0" y="5" width="25" height="3"></rect>
                            <rect id="Rectangle-17" x="0" y="15" width="25" height="3"></rect>
                            <rect id="Rectangle-17" x="0" y="10" width="28" height="3"></rect>
                        </g>
                        <g id="5-Slices-Pie-Chart" transform="translate(35.000000, 0.000000)" stroke-width="10" stroke-dasharray="21.37142857142857,170">
                            <use id="#161032" stroke="#4BAD00" mask="url(#mask-7)" xlink:href="#path-6"></use>
                            <use id="#FAFF81" stroke="#134611" mask="url(#mask-9)" transform="translate(24.082198, 24.082198) rotate(-72.000000) translate(-24.082198, -24.082198) " xlink:href="#path-8"></use>
                            <use id="#FFC53A" stroke="#2A7221" mask="url(#mask-11)" transform="translate(24.082198, 24.082198) rotate(-144.000000) translate(-24.082198, -24.082198) " xlink:href="#path-10"></use>
                            <use id="#E06D06" stroke="#2A7221" mask="url(#mask-13)" transform="translate(24.082198, 24.082198) rotate(-216.000000) translate(-24.082198, -24.082198) " xlink:href="#path-12"></use>
                            <use id="#B26700" stroke="#2A7221" mask="url(#mask-15)" transform="translate(24.082198, 24.082198) rotate(-288.000000) translate(-24.082198, -24.082198) " xlink:href="#path-14"></use>
                        </g>
                    </g>
                </g>
            </g>
        </g>
    </g>
</svg>