<svg xmlns="http://www.w3.org/2000/svg" width="99" height="338" viewBox="0 0 99 338">
  <g fill="none" fill-rule="evenodd" transform="translate(0 1)">
    <path fill="#D37897" d="M51,142 C51,142 44.3092298,143.157178 26.8542875,164.878432 C19.2903336,180.806194 19,188.045888 19,188.045888 C19,188.045888 19.2903336,191.52068 24.2358278,189.203065 C29.1824135,186.887624 45.7641722,164.009191 45.7641722,164.009191 L51,142 Z"/>
    <path fill="#E28DA5" d="M42.701042,146.445551 C39.0113818,150.781983 36.2326407,185.390044 39.3453125,186.921441 C46.0633407,190.228999 53.9134486,190.109866 61.4164875,189.92142 C63.4562018,189.869435 65.548469,189.806619 67.4381881,189.04417 C69.7100116,188.125765 71.4858658,186.255381 72.7055339,184.148897 C74.9510808,180.272751 75.4634728,175.550762 74.6116759,171.163428 C73.7598789,166.776094 71.6172484,162.706087 68.8888706,159.146184 C66.2655988,155.722742 63.0489158,152.654533 61.2883895,148.727484 C59.55195,144.857836 59.6417281,139.617079 54.3535801,140.02213 C49.7978899,140.370864 45.5925532,143.050268 42.701042,146.445551"/>
    <path fill="#5353C6" d="M24 317.611381L20.3963117 325 0 313.820042C0 313.820042 0 311.101012 4.13849214 312.309716 8.27698427 313.51842 18.327608 319.25921 18.327608 319.25921L20.6913759 314.726016 24 317.611381zM80.7381395 318.842203L81 327.065221 72.9145013 334.202283C70.4246071 336.400311 67.0304064 337.454712 63.7460539 336.81489 62.5199696 336.575501 61.705539 336.13916 62.100549 335.365497 63.2289903 333.151147 75.0759602 326.51245 75.0759602 326.51245L75.6407357 316 80.7381395 318.842203z"/>
    <path fill="#D6A659" d="M41.5200361,196 C35.1532664,218.497326 30.0542307,241.356827 26.2531903,264.434939 C23.4053821,281.724762 22.2846318,299.478997 16,315.824769 C18.7656703,316.888457 20.9380022,317.425739 24.0635662,318 C27.5846893,311.987662 30.6864766,307.221731 33.574273,300.875495 C35.3737419,296.925275 37.0575693,292.874996 37.8303142,288.601754 C39.0526562,281.831348 37.9621672,274.648736 40.2706751,268.170898 C47.8943712,246.781853 57.4926196,227.022055 63.7037596,205.175124 C63.9361234,204.358325 64.1620027,203.465392 63.8399356,202.681222 C63.3827732,201.567503 62.0555973,201.155297 60.8872935,200.891007 C54.2730292,199.387922 48.2683149,196.675409 41.5200361,196"/>
    <path fill="#EABD70" d="M76.149484,188.312527 C77.7663227,232.53554 79.3831613,276.759637 81,320.981565 C77.8955836,320.981565 73.8238646,321 70.718371,321 C67.8950971,311.376778 66.1780812,301.70584 65.5974843,291.68897 C63.8309184,261.203503 58.5861566,230.922994 50,201.633652 C53.7065569,197.734046 56.7818896,194.750782 61.2090761,191.70679 C65.6373397,188.663882 70.8745613,187.345217 76.149484,188.312527"/>
    <path fill="#E28DA5" d="M15.7189072 172.597692C14.3724689 176.154992 12.5073384 179.47843 13.1200435 183.229902 13.7305874 186.982446 17.1571973 190.570857 20.9296019 189.923978 24.054722 189.389739 25.5113824 182.032692 25.5113824 182.032692L33 150.009475 26.7810975 149C26.7810975 149 17.8433837 166.987112 15.7189072 172.597692M40.1175412 195.088273C40.1175412 195.088273 39.7079754 198.87549 40.4178895 200.604091 41.8399022 204.066599 49.9241862 206 49.9241862 206 49.9241862 206 78.2858029 205.10864 78.7117514 202.654218 79.5778467 197.654115 78.2159037 192.869424 78.218088 187.799285 78.218088 187.245369 78.1962445 186.646885 77.8412874 186.215 77.5453078 185.85315 77.0723958 185.681245 76.6224194 185.532685 69.3223175 183.119647 61.4389938 182.437333 53.8068706 183.458152 50.8569042 183.852897 45.3577999 184.321922 42.9244326 186.139659 40.0334437 188.301206 40.1175412 195.088273 40.1175412 195.088273"/>
    <path fill="#F9CCDA" d="M18.1645188,179.188706 C17.9041318,179.048373 17.5873275,178.917094 17.3312802,179.065349 C17.1511791,179.168335 17.0611286,179.381098 16.9558888,179.565568 C15.8058459,181.565312 12.3090644,180.764056 11.2479871,182.815859 C10.8129237,183.656725 10.9897699,184.729593 11.4725709,185.541034 C11.954287,186.352476 12.70073,186.952286 13.4471729,187.504564 C15.3696975,188.922605 20.0230316,188.932791 20.0230316,188.932791 L26,190 L25.9663667,187.366494 L22.9317723,185.465209 C22.9317723,185.465209 23.4666507,183.810639 23.2420669,183.540158 C21.587524,181.552863 19.4078671,179.858682 18.1645188,179.188706"/>
    <path d="M40.2478811,191.504213 C40.1118755,192.347742 40.0383887,193.126887 40,193.748894 C42.3855812,195.984844 47.2071973,199.487724 54.3058096,199.872931 C60.2812793,200.197029 69.5296567,202.365323 76.4670366,204 C77.8018652,203.669354 78.6398349,203.298333 78.7111282,202.883662 C79.5798088,197.742831 78.2120755,192.822431 78.215366,187.607396 C78.215366,187.298575 78.203301,186.977751 78.1396855,186.675477 C73.1919352,186.324098 68.4383218,186 68.4383218,186 L40.2478811,191.504213 Z"/>
    <path fill="#F9CCDA" d="M18.6138963,179.775159 C18.3470975,179.521989 18.0672309,179.274679 17.7340046,179.139889 C17.3430625,178.980485 16.9129174,178.992206 16.4947511,179.009788 C15.9110605,179.032057 15.325192,179.064876 14.7425904,179.104726 C14.4681687,179.122308 14.1403872,179.182084 14.0314897,179.454008 C13.9149694,179.747029 14.1425652,180.063492 14.3745168,180.25923 C15.0965072,180.865198 16.0243139,181.124228 16.7517491,181.718475 C17.4813624,182.312722 17.973579,183.212883 18.7478402,183.737977 C18.9721691,183.890348 19.2269892,184.009901 19.4926991,183.999352 C19.7540531,183.989975 19.9958055,183.854013 20.2266682,183.72274 C21.2437708,183.141386 21.1806103,182.799137 20.4836663,181.874362 C19.9206663,181.126572 19.3021285,180.391675 18.6138963,179.775159"/>
    <path fill="#E28DA5" d="M49.3363083,141.697851 L65.1450165,139 L73.9591231,140.681253 C80.8195875,141.992043 85.8151134,147.968501 85.951414,155.000782 C86.1742547,166.546188 85.7566988,183.368529 81.9954508,191.772617 C80.3014289,195.560068 74.3453082,194.969505 70.2216736,194.962967 C58.1201259,194.946623 34.1474434,194.656789 23,189.913759 C23.2001239,188.126814 23.030289,186.625345 23.7766972,184.992034 C34.4773774,183.220343 57.047029,179.745608 67.7239107,181.655677 C59.1304813,171.935352 53.0456323,159.740544 50.6106109,146.957352 C50.2612053,145.122465 49.3363083,141.697851 49.3363083,141.697851"/>
    <path d="M62.7273456,139.41852 L59,151.146806 C59.6338434,151.146806 74.8395962,148.612977 84.9767647,154.472254 C85.3401971,154.683136 85.6765884,154.852923 86,155 C85.9989184,154.962149 85.9989184,154.918892 85.9978367,154.881041 C85.8615496,147.901386 80.8675988,141.969652 74.0078119,140.668672 L65.1945758,139 L62.7273456,139.41852 Z"/>
    <path fill="#FFF" d="M53.3866891,142.320963 C53.1577125,142.7475 53.0991371,143.240387 53.0629268,143.720636 C52.8637704,146.298815 53.1385424,148.912802 53.8702026,151.394089 C53.9681833,151.723734 54.0757491,152.057591 54.2866206,152.331417 C54.9639655,153.209768 56.3346304,153.089705 57.388988,152.724253 C58.9747845,152.175547 60.4136099,151.284559 61.8247451,150.381985 C64.4989794,148.671625 67.2466992,146.769586 68.6439893,143.94075 C68.8623158,143.499469 69.0476272,143.017113 68.9890518,142.529492 C68.8569908,141.432081 67.6215819,140.85178 66.5395341,140.58006 C63.7971393,139.888122 55.0491661,139.225673 53.3866891,142.320963"/>
    <path fill="#F9CCDA" d="M66.1499423,143.582803 C62.4549175,146.370986 57.2067037,149 57.2067037,149 L54.2337079,135.390415 C54.2337079,135.390415 48.8708513,136.146203 47.4278956,135.954549 C41.8566977,135.213921 36.3670726,131.47613 35.2349753,126.067596 C34.5305836,122.708782 35.5403219,119.257931 36.5423438,115.971664 C38.6004021,109.219387 40.7345214,102.310105 45.029216,96.662274 C46.463353,94.7760543 48.6845568,94.0473367 51.0799293,94.0072735 C54.3119736,93.953134 57.5925207,94.1859338 60.6470892,95.2243292 C63.7016577,96.2627246 66.5324523,98.1727657 68.1881585,100.89923 C70.115039,104.077218 70.2726728,108.013159 69.7270173,111.672989 C69.1813618,115.332818 67.99525,118.875706 67.4143198,122.531204 C67.23023,123.688707 65.4290156,126.413006 65.1743764,129.077751 C64.6518699,134.552336 65.7167249,141.213659 66.1499423,143.582803"/>
    <path fill="#185B9D" d="M61.4568437,122.028125 C62.1090944,124.885824 64.578965,128.553349 65.377026,129 C65.3859304,127.924569 67.215794,123.647777 67.3894307,122.565841 C67.974898,118.905905 69.173659,115.358716 69.7246216,111.694444 C70.2755842,108.030171 70.1153042,104.089452 68.1696828,100.907606 C66.4978731,98.1778315 63.640659,96.2654716 60.5552686,95.2258156 C57.4721042,94.1861596 54.1585373,93.9530771 50.896171,94.0072824 C49.8844033,94.0235439 48.9071404,94.1709821 48,94.4647744 C50.8894927,97.9198147 60.4929374,100.536842 61.5703754,98.8304623 C56.6195035,106.677209 59.405482,113.037649 61.4568437,122.028125"/>
    <path fill="#F9CCDA" d="M63.5586587,111.082928 C65.5982009,110.800314 67.9353156,111.20484 69.1690715,112.84289 C70.5755755,114.709248 70.010522,117.410148 68.8514379,119.438316 C67.9386592,121.034252 66.6580941,122.475027 65.0041703,123.290727 C62.7517578,124.401232 59.9030858,124.192874 57.83791,122.769832 C51.037207,118.079554 57.8746886,111.870921 63.5586587,111.082928"/>
    <path fill="#185B9D" d="M30.0675402,132.236815 C30.6046072,136.764236 33.1696216,140.463286 37.6991416,141.348897 C41.1818733,142.029307 45.4215303,142.435392 48.755502,141.225776 C60.5545681,136.946758 55.5295464,126.078573 56.6189939,123.227335 C58.0081488,119.593086 59.4049604,115.926437 60,112.086985 C57.797041,111.550218 55.8992585,113.600086 54.5768268,115.42207 C53.2554889,117.242975 50.0013662,121.652674 47.7973133,121.118066 C46.1664236,117.781902 43.2349786,114.495418 39.5181689,113.988891 C38.0929178,113.794488 36.0310619,113.304162 35.3769559,114.569939 C31.5048233,122.064159 29.6081347,128.359563 30.0675402,132.236815"/>
    <path fill="#F9CCDA" d="M32.7299151,149.774368 C32.8501703,149.888679 32.9704256,150.000793 33.0895463,150.114006 C34.7027818,147.343042 36.1503827,144.483047 37.4232731,141.550508 C37.7511388,140.794291 38.0744666,139.994108 37.9848424,139.177438 C37.8702595,138.145334 37.1249039,137.297887 36.4135828,136.521885 C35.5956202,135.629374 34.7458922,134.417008 33.9290641,133.524496 C34.6766887,132.212108 35.4254477,130.898621 36.1730723,129.585134 C36.4782484,129.052045 36.7868279,128.502469 36.8764521,127.899034 C36.9649418,127.2945 36.7879623,126.615224 36.2774448,126.257999 C35.7669272,125.900774 35.1372889,125.890882 34.757237,126.377807 C32.9965187,128.633268 26.7931632,145.883368 27.0053116,148.100358 C27.1346428,149.445721 27.3706153,150.973543 28.5311919,151.724264 C29.9356824,152.636561 31.7406455,151.103243 32.7299151,149.774368"/>
    <path d="M67.6174596 173.880174C67.6174596 173.880174 58.9078648 181.609784 54 181.925432 54.3157296 182.24108 70.4665946 181.452498 70.4665946 181.452498L73 157 67.6174596 173.880174zM60 117.448085C60 117.448085 62.7631809 113.896169 65.1991284 115.349125 67.6350759 116.802081 63.7371162 120.837948 63.7371162 120.837948L60 121 60 117.448085z"/>
    <path stroke="#185B9D" d="M79,40.6398857 C79,30.0052449 69.9210177,21.4497097 58.9523568,22.027656 C49.2504035,22.5380501 41.3681813,30.4180637 41.0129785,39.9439912 C40.8195296,45.1390743 42.8010145,49.8720149 46.128991,53.3557765 C48.8700633,56.2251351 51.1870782,59.4569164 52.739041,63.0832882 L53.7587461,65.4658423 L53.7587461,69 L58.7206553,69 L61.279208,69 L66.2411172,69 L66.2411172,65.4658423 L66.9209206,63.8778303 C68.6302656,59.8847468 71.1560303,56.3119879 74.1135031,53.0973627 C77.1496669,49.7991014 79,45.4350171 79,40.6398857"/>
    <polygon fill="#185B9D" points="54 75 67 75 67 66 54 66"/>
    <polygon fill="#185B9D" points="62.827 71 58.978 71 52 38.935 53.504 38.617 60.22 69.484 61.549 69.484 67.49 38 69 38.277"/>
    <path fill="#185B9D" d="M63,76 C63,77.656996 61.6558942,79 59.9988983,79 C58.3419023,79 57,77.656996 57,76 C57,74.343004 58.3419023,73 59.9988983,73 C61.6558942,73 63,74.343004 63,76"/>
    <polygon fill="#FFF" stroke="#185B9D" points="60 15 61 15 61 0 60 0"/>
    <polygon fill="#FFF" stroke="#185B9D" points="83 38 98 38 98 37 83 37"/>
    <polygon fill="#FFF" stroke="#185B9D" points="22 38 37 38 37 37 22 37"/>
    <polygon fill="#FFF" stroke="#185B9D" points="42.306 24 31 13.818 31.694 13 43 23.182"/>
    <polygon fill="#FFF" stroke="#185B9D" points="75.817 21 75 20.306 85.183 9 86 9.694"/>
  </g>
</svg>
