<svg xmlns="http://www.w3.org/2000/svg" xmlns:xlink="http://www.w3.org/1999/xlink" width="342" height="316" viewBox="0 0 342 316">
  <defs>
    <linearGradient id="pi-concept-landing-a" x1="1.301%" x2="98.76%" y1="50%" y2="50%">
      <stop offset="0%" stop-color="#43CEA2"/>
      <stop offset="100%" stop-color="#185A9D"/>
    </linearGradient>
    <polygon id="pi-concept-landing-b" points="25.74 6 .239 6 .239 .108 25.74 .108 25.74 6"/>
    <path id="pi-concept-landing-d" d="M3.83646992,0.762302914 L5.68898359,0.762302914 L5.68898359,2.33773913 C5.68897489,3.93268751 3.649,6.058 3.649,6.058 L0.28,6.205 L0.28,2.983 C0.28,2.983 1.99687026,0.7623031 3.83646976,0.762302914 L3.83646992,0.762302914 Z M3.83646976,0.762302914 C4.21272562,0.762302875 4.59411562,0.855201449 4.967,1.079 C5.48981517,1.39278433 5.68898616,1.83937046 5.68898359,2.33773915 L3.83646976,0.762302914 Z"/>
  </defs>
  <g fill="none" fill-rule="evenodd">
    <polygon fill="url(#pi-concept-landing-a)" points="0 229.411 182.274 214.608 182.274 15.214 0 .411"/>
    <polygon fill="#FFF" stroke="#979797" points="10 239.411 192.274 224.608 192.274 25.214 10 10.411"/>
    <polygon fill="url(#pi-concept-landing-a)" points="20 60 184 67.5 184 41.5 20 30.411"/>
    <polygon fill="#FFF" stroke="#979797" points="40 107 184 111.197 184 92.214 40 84.5"/>
    <polygon fill="url(#pi-concept-landing-a)" points="40 147 184 146.483 184 127.5 40 122.5"/>
    <polygon fill="#FFF" stroke="#979797" points="40 187 184 183 184 164.017 40 161.5"/>
    <polygon fill="#FFF" stroke="#979797" points="20 183 33.5 183 33.5 170 20 170"/>
    <polygon fill="url(#pi-concept-landing-a)" points="20 142 33.5 142 33.5 129 20 129"/>
    <polygon fill="#FFF" stroke="#979797" points="20 102 33.5 102 33.5 89 20 89"/>
    <g transform="translate(122 3)">
      <g transform="translate(25 123.328)">
        <path fill="#F9CCDA" d="M73.2746,170.7061 C73.1436,172.8221 72.9546,175.0921 71.6096,176.7301 C70.0236,178.6621 67.3156,179.1531 64.8416,179.5171 L54.0316,181.1041 C53.8476,181.6381 54.4706,182.0841 55.0046,182.2661 C57.6696,183.1671 60.5716,182.7731 63.3696,182.4821 C66.6116,182.1451 69.8696,181.9591 73.1286,181.9261 C74.5796,181.9111 76.2996,181.7811 77.0366,180.5321 C77.5866,179.6001 77.3346,178.4291 77.2066,177.3541 C76.8136,174.0791 77.7346,170.7431 77.2656,167.4771 C77.2126,167.1021 77.0906,166.6661 76.7356,166.5311 C76.5536,166.4621 76.3526,166.4911 76.1636,166.5291 C73.4066,167.0871 73.4266,168.2291 73.2746,170.7061"/>
        <path fill="#5353C6" d="M74.259,179.1934 C71.573,180.8334 68.845,181.2774 65.722,180.8884 C65.531,180.8644 64.484,180.6344 64.292,180.6134 C64.182,180.0144 64.242,179.4274 63.751,179.4474 C61.493,179.5344 59.239,179.7224 56.998,180.0114 C56.286,180.1034 53.584,180.1674 53.299,180.7204 C53.044,181.2144 53.207,181.8444 53.567,182.2684 C53.925,182.6914 54.444,182.9454 54.962,183.1424 C57.522,184.1184 60.349,184.0034 63.085,183.8744 C66.449,183.7144 69.815,183.5564 73.179,183.3974 C74.327,183.3434 75.536,183.2704 76.5,182.6454 C77.919,181.7254 78.406,179.8704 78.441,178.1794 C78.503,175.1044 75.229,178.6004 74.259,179.1934"/>
        <path fill="#F9CCDA" d="M58.1994 23.6407C58.1994 23.6407 70.4234 22.9297 70.3984 22.6237 70.1154 19.0637 66.8974 13.7867 68.5684 10.6277 70.2384 7.4707 71.5164 5.6837 73.2054 2.5367 73.4544 2.0707 73.6734 1.4357 73.2934 1.0697 72.9804.7677 72.4724.8687 72.0574.9917 69.8224 1.6557 67.6184 2.4227 65.4544 3.2897 61.7894 4.7577 58.3234 4.7207 58.1994 8.5957 58.0624 12.8547 58.1994 23.6407 58.1994 23.6407M20.5607 176.3565C20.1527 178.4365 19.6677 180.6625 18.1187 182.1095 16.2927 183.8155 13.5427 183.9465 11.0437 183.9815 7.4017 184.0325 3.7607 184.0835.1187 184.1345-.1343 184.6385.4247 185.1645.9307 185.4135 3.4527 186.6585 6.3817 186.6495 9.1937 186.7285 12.4517 186.8205 15.7067 187.0645 18.9417 187.4605 20.3817 187.6355 22.1047 187.7335 22.9987 186.5905 23.6657 185.7395 23.5707 184.5445 23.5847 183.4625 23.6257 180.1655 24.9777 176.9785 24.9427 173.6805 24.9377 173.2995 24.8757 172.8525 24.5407 172.6715 24.3707 172.5805 24.1657 172.5825 23.9737 172.5955 21.1677 172.7855 21.0387 173.9205 20.5607 176.3565"/>
        <path fill="#D37897" d="M80.5636,76.1973 C80.5636,76.1973 78.1246,94.1913 77.2096,107.9153 C76.2936,121.6383 80.8686,151.2203 80.5636,159.1503 C80.2586,167.0803 78.4286,171.6543 78.4286,171.6543 L71.4146,171.6543 C71.4146,171.6543 62.8756,134.7533 62.5706,126.8233 C62.2656,118.8933 57.0816,78.3323 57.0816,78.3323 L80.5636,76.1973 Z"/>
      </g>
      <path d="M92.187,200.742 C88.093,203.378 85.031,207.555 83.4,212.171 C84.728,222.916 86.677,239.094 87.347,246.921 C87.96,246.994 88.578,247.036 89.189,247.013 C92.704,246.883 96.039,245.4 99.039,243.563 C100.148,242.884 101.213,242.14 102.251,241.359 C102.068,237.538 102.022,234.055 102.209,231.243 C103.124,217.519 105.563,199.526 105.563,199.526 L92.187,200.742 Z"/>
      <g transform="translate(1 88.328)">
        <path fill="#5353C6" d="M11.1061,45.292 C11.1911,46.105 10.0211,46.333 9.8021,45.544 C6.8681,34.951 0.0851,8.109 0.1811,4.418 C0.2411,2.089 1.9041,0.396 1.9041,0.396 L4.0111,0.396 C4.0111,0.396 5.7341,2.12 5.9261,4.418 C6.0601,6.02 9.9891,34.667 11.1061,45.292"/>
        <path fill="#F9CCDA" d="M83.4689,18.3799 C82.0999,20.9479 80.4089,23.9089 77.5249,24.2909 C77.0639,24.3519 76.5719,24.3459 76.1739,24.5869 C75.4339,25.0339 75.3789,26.0669 75.4099,26.9319 C75.5299,30.2239 75.6499,33.5159 75.7689,36.8079 C75.8769,39.8169 76.2659,43.3289 78.8409,44.8899 C80.6879,46.0089 83.0319,45.6909 85.1529,45.2829 C86.8499,44.9569 88.5519,44.5929 90.1429,43.9189 C95.0929,41.8209 98.3999,36.9159 99.9349,31.7629 C101.1439,27.7049 101.3839,23.1799 99.5849,19.3469 C96.0879,11.8969 87.3279,11.1429 83.4689,18.3799"/>
        <path fill="#E28DA5" d="M101.2023,110.3828 C99.8363,110.5798 98.4773,110.8218 97.1243,111.0918 C96.8853,110.9148 96.5613,110.8398 96.2613,110.7818 C86.8403,109.0028 77.0973,109.4928 68.1303,112.8878 C63.4993,127.0008 51.0953,177.9398 48.5063,184.8058 C45.4463,192.9218 43.4953,201.4068 41.5553,209.8618 C44.5873,210.5288 47.2313,211.0658 50.3333,211.1778 C61.1693,185.5458 65.8093,186.8598 67.4063,169.7868 C67.7303,166.3218 72.2923,160.4798 74.3013,157.6398 C83.8223,144.1788 100.0003,125.3608 102.5133,121.3738 C104.7573,117.8128 109.2243,109.2238 101.2023,110.3828"/>
      </g>
      <path d="M69.13,201.216 C68.553,202.973 67.858,205.301 67.073,208.042 C70.164,209.898 75.209,211.682 83.4,212.171 C91.96,212.683 99.69,209.505 105.579,205.891 C107.273,202.125 108,197.874 102.203,198.711 C100.837,198.908 99.477,199.15 98.124,199.419 C97.884,199.243 97.561,199.168 97.261,199.111 C93.75,198.448 90.195,198.1 86.652,198.1 C80.686,198.1 74.756,199.086 69.13,201.216"/>
      <g transform="translate(0 76.328)">
        <path fill="#F9CCDA" d="M12.673,34.1045 C12.512,33.4875 12.298,32.8345 11.789,32.4515 C11.137,31.9605 10.208,32.0715 9.452,32.3785 C8.696,32.6865 8.008,33.1645 7.219,33.3725 C5.802,33.7455 4.121,33.2395 2.948,34.1175 C2.264,34.6295 1.938,35.5745 2.16,36.3995 C2.275,36.8265 2.518,37.2065 2.697,37.6095 C3.31,38.9875 3.199,40.6675 4.09,41.8845 C4.767,42.8085 5.887,43.2745 6.951,43.6985 C9.53,44.7255 12.108,45.7525 14.687,46.7795 C14.852,46.8455 15.043,46.9115 15.203,46.8325 C15.338,46.7665 15.407,46.6165 15.464,46.4775 C16.544,43.7915 16.08,42.4925 14.727,40.3175 C13.554,38.4325 13.223,36.2185 12.673,34.1045"/>
        <g transform="translate(24 230)">
          <mask id="pi-concept-landing-c" fill="#fff">
            <use xlink:href="#pi-concept-landing-b"/>
          </mask>
          <path fill="#5353C6" d="M21.4211,1.8985 C18.5441,3.1715 15.7801,3.2525 12.7361,2.4575 C12.5501,2.4085 11.5411,2.0425 11.3551,1.9975 C11.3231,1.3885 11.4611,0.8145 10.9711,0.7685 C8.7211,0.5585 6.4631,0.4495 4.2031,0.4415 C3.4851,0.4395 0.7971,0.1465 0.4421,0.6585 C0.1251,1.1145 0.2041,1.7595 0.5041,2.2275 C0.8041,2.6945 1.2841,3.0135 1.7731,3.2775 C4.1821,4.5815 7.0001,4.8375 9.7291,5.0705 C13.0861,5.3545 16.4421,5.6395 19.7981,5.9245 C20.9431,6.0225 22.1511,6.1085 23.1901,5.6155 C24.7161,4.8905 25.4441,3.1155 25.7001,1.4445 C26.1661,-1.5965 22.4611,1.4395 21.4211,1.8985" mask="url(#pi-concept-landing-c)"/>
        </g>
        <path fill="#5353C6" d="M105.3195,108.0703 C106.2115,104.0823 110.7025,92.1763 110.7025,92.1763 C112.7565,93.2453 115.0605,97.3033 115.0605,97.3033 C115.0605,97.3033 107.3345,106.7253 105.3195,108.0703 M109.4205,71.6103 C105.8645,68.4363 101.8255,65.0723 97.0605,65.1413 C95.4715,65.1653 71.1535,59.6993 68.3295,59.4793 C49.4595,58.0113 34.0745,42.9323 15.3085,40.4743 C13.4445,41.0693 12.8285,43.5943 13.5895,45.3973 C14.3505,47.2003 16.0295,48.4203 17.6455,49.5243 C34.5305,61.0573 50.9135,72.1053 69.2715,81.1113 C65.0435,92.0493 75.2565,97.7713 74.5355,100.4833 C73.7645,103.3843 66.8325,122.5163 67.5915,125.4213 C74.4335,127.5253 79.8835,127.8063 87.0165,128.3993 C94.1505,128.9923 101.7905,127.7063 107.8405,123.8813 C107.1765,120.3403 104.0035,117.0723 106.4295,115.7653 C113.3775,111.3473 120.1215,108.0153 124.7065,101.1773 C125.5905,99.8583 126.3825,98.4283 126.6215,96.8583 C127.2785,92.5313 114.4875,76.1333 109.4205,71.6103"/>
        <path fill="#FFF" d="M5.2887,12.3057 C3.9417,13.0417 2.2167,12.7167 1.1647,11.5987 C0.5557,10.9517 0.1167,10.0687 0.5327,8.9987 C1.4577,6.6197 3.1767,3.8437 2.3837,2.2577 C1.5897,0.6717 1.5897,0.8037 1.5897,0.6717 C1.5897,0.5397 5.9627,3.1307 6.6127,5.2977 C7.9347,9.7057 6.6837,11.5437 5.2887,12.3057"/>
        <path fill="#F9CCDA" d="M10.9499,27.1787 C10.7599,26.6977 10.4989,26.1737 10.0079,26.0097 C9.4199,25.8127 8.7739,26.2647 8.5339,26.8367 C8.2939,27.4077 8.3529,28.0547 8.4159,28.6717 C8.5889,30.3807 8.7619,32.0897 8.9359,33.7987 C9.0349,34.7697 9.2509,35.9137 10.1419,36.3147 C10.8049,36.6137 11.6359,36.3287 12.0959,35.7637 C12.9799,34.6777 12.3939,33.4067 12.2169,32.1997 C11.9639,30.4747 11.5919,28.8047 10.9499,27.1787"/>
        <path fill="#5353C6" d="M7.0568,7.3335 C6.9698,6.7175 6.8418,6.0595 6.6128,5.2975 C5.9628,3.1305 1.5898,0.5395 1.5898,0.6715 C1.5898,0.7155 1.5928,0.7345 1.6228,0.7945 C1.6338,0.8135 1.6438,0.8355 1.6558,0.8565 C1.7378,1.0095 1.9278,1.3475 2.3838,2.2575 C3.1388,3.7685 1.6238,6.3535 0.6778,8.6505 C0.9538,8.7995 1.2568,8.8495 1.5628,8.7145 C2.2038,8.4335 2.5508,7.4755 3.2438,7.5735 C4.2218,7.7105 3.8458,9.5635 4.7658,9.9235 C5.3348,10.1465 5.9108,9.5795 6.1408,9.0135 C6.3698,8.4465 6.4738,7.7815 6.9458,7.3925 C6.9798,7.3635 7.0198,7.3535 7.0568,7.3335"/>
        <path fill="#D3805F" d="M109.6154,30.6529 C107.0894,28.1149 103.8074,26.4759 100.4914,25.1259 C97.9204,24.0789 95.2194,23.1679 92.4434,23.2239 C89.6684,23.2799 86.7804,24.4659 85.3104,26.8209 C84.1894,28.6179 84.0154,30.8799 84.4014,32.9629 C84.6534,34.3179 85.2464,37.2629 86.2944,38.2659 C87.1764,39.1119 88.5794,38.5349 89.3254,39.7759 C89.8404,40.6309 89.7774,41.7189 89.5164,42.6829 C89.2464,43.6819 88.7484,44.6639 87.9064,45.2649 C87.6704,45.4339 87.4034,45.5639 87.1234,45.6509 C85.7664,46.0719 84.8764,47.3549 85.0714,48.7609 C85.3764,50.9529 86.1884,53.0759 87.4474,54.8969 C87.7454,55.3279 88.0784,55.7399 88.4494,56.1089 C88.3614,56.7359 88.1934,57.3689 88.1074,57.9959 C87.8484,59.8599 88.6434,62.0979 90.4604,62.5869 C89.8134,61.8679 89.1794,61.0359 89.1464,60.0699 C89.1134,59.1049 89.9894,58.0729 90.9254,58.3169 C91.6734,58.5119 92.0424,59.3579 92.1604,60.1209 C92.4284,61.8719 91.8984,63.7309 90.7454,65.0749 C91.9724,64.3849 93.2374,63.6609 94.0704,62.5269 C94.9684,61.3049 95.2734,59.7219 96.1974,58.5209 C96.3954,58.2629 96.6234,58.0309 96.8594,57.8099 C96.9664,57.9549 97.0764,58.0999 97.1774,58.2469 C97.9184,59.3279 97.9904,60.0429 97.4124,61.7789 C97.3144,62.0699 96.7124,63.0819 96.7124,63.0819 C96.8424,62.9649 99.8764,60.6869 97.7664,57.1529 C98.2864,57.0589 98.8024,56.9479 99.3054,56.7889 C103.0794,55.5969 105.8244,52.4129 108.3594,49.3749 C110.6014,46.6859 112.9374,43.7929 113.3794,40.3189 C113.8304,36.7669 112.1404,33.1909 109.6154,30.6529"/>
        <path fill="#3535A5" d="M105.3195,108.0703 C106.2115,104.0823 110.7025,92.1763 110.7025,92.1763 C112.7565,93.2453 115.0605,97.3033 115.0605,97.3033 C115.0605,97.3033 107.3345,106.7253 105.3195,108.0703 M109.4205,71.6103 C107.3215,69.7363 105.0525,67.8023 102.5675,66.5423 C103.5935,68.4113 105.1745,70.2393 105.6675,72.3543 C106.0955,74.1943 106.1375,76.0993 106.1785,77.9893 C106.2655,82.0223 106.3515,86.0563 106.4385,90.0903 C106.4985,92.8263 106.5295,95.6903 105.2945,98.1323 C103.9255,100.8393 101.2255,102.5863 98.5625,104.0393 C97.9745,104.3593 97.3535,104.6993 97.0145,105.2763 C96.3165,106.4643 97.1645,107.9983 98.2485,108.8473 C99.3335,109.6973 100.6855,110.2403 101.5325,111.3273 C101.5735,116.4673 101.6145,121.6083 101.6555,126.7503 C103.8295,126.0263 105.9205,125.0943 107.8405,123.8813 C107.1765,120.3403 104.0035,117.0723 106.4295,115.7653 C113.3775,111.3473 120.1215,108.0153 124.7065,101.1773 C125.5905,99.8583 126.3825,98.4283 126.6215,96.8583 C127.2785,92.5313 114.4875,76.1333 109.4205,71.6103"/>
        <path fill="#5353C6" d="M112.0519,83.4366 C112.4479,83.8206 110.5859,90.9086 110.4729,91.8946 C110.4369,92.2146 110.4229,92.5666 110.4189,92.9336 C110.5979,92.4546 110.7019,92.1766 110.7019,92.1766 C112.7559,93.2456 115.0609,97.3036 115.0609,97.3036 C115.0609,97.3036 107.3339,106.7256 105.3199,108.0706 C105.3279,108.0316 105.3399,107.9856 105.3489,107.9446 C105.1119,108.3656 104.8739,108.7866 104.6359,109.2076 C104.2069,109.9656 104.0549,111.3036 104.9249,111.3596 C105.2429,111.3796 105.5249,111.1696 105.7739,110.9716 C107.6589,109.4646 109.5459,107.9576 111.4319,106.4526 C112.4359,105.6506 113.4439,104.8456 114.3119,103.8996 C115.5049,102.5996 116.4079,101.0646 117.3019,99.5416 L119.4789,95.8356 C119.8219,95.2516 120.1759,94.6186 120.1129,93.9446 C120.0669,93.4456 119.7949,92.9996 119.5249,92.5786 C117.3949,89.2576 114.8819,86.1846 112.0519,83.4366"/>
        <path fill="#3535A5" d="M75.0676 78.6934C77.3076 77.3844 79.6796 75.9354 80.7616 73.5784 81.2966 72.4114 81.5326 71.0094 82.5456 70.2204 84.7636 73.0044 86.5286 76.1494 87.7456 79.4954 88.2176 80.7924 88.6126 82.1844 88.3506 83.5404 88.0886 84.8964 86.9786 86.1794 85.5976 86.1964 84.9456 86.2044 84.3236 85.9394 83.7256 85.6764 80.4446 84.2344 74.5766 82.5854 72.2686 79.8954 73.2246 79.6054 74.1856 79.2084 75.0676 78.6934M80.0129 100.9825C78.3439 100.1475 75.9339 98.7585 73.9739 98.6575 74.4269 99.3785 74.6689 99.9825 74.5349 100.4835 74.1319 102.0025 72.0419 107.9635 70.2489 113.7195 71.6719 113.6855 73.0599 113.1405 74.3869 112.5865 77.3739 111.3405 80.4919 109.8665 82.2429 107.1445 82.9809 105.9985 83.4319 104.5195 82.8729 103.2765 82.3609 102.1355 81.1539 101.4975 80.0129 100.9825"/>
        <path fill="#3535A5" d="M78.7619,75.1797 C77.4439,74.6217 75.9579,74.6967 74.5269,74.7007 C67.6739,74.7217 60.8249,72.8717 54.9139,69.4047 C51.1929,67.2197 47.8179,64.4017 43.8269,62.7597 C40.5779,61.4237 37.0079,60.9087 33.8899,59.2877 C31.2749,57.9297 29.1119,55.8637 26.8129,54.0197 C25.2809,52.7907 18.2829,47.2427 14.7449,47.1607 C15.5709,48.0747 16.6199,48.8237 17.6459,49.5237 C34.5309,61.0577 50.9139,72.1057 69.2719,81.1117 C69.0079,81.7957 68.7989,82.4597 68.6419,83.1037 C68.8999,83.0797 69.1569,83.0657 69.4139,83.0167 C71.3829,82.6477 73.1549,81.5527 75.1159,81.1537 C77.2859,80.7107 80.2209,80.6867 80.7949,78.5477 C81.1659,77.1647 80.0799,75.7377 78.7619,75.1797"/>
        <path fill="#B2664F" d="M107.5763,28.899 C103.5343,29.029 100.2053,31.218 100.4693,36.712 C100.5383,38.149 101.0103,39.539 101.1593,40.97 C101.7613,46.742 97.2393,51.587 94.5313,56.721 C93.6473,58.396 93.0043,60.621 94.2563,62.042 C94.2763,62.065 94.3043,62.078 94.3253,62.101 C95.0213,60.95 95.3753,59.591 96.1973,58.521 C96.3953,58.263 96.6233,58.031 96.8593,57.81 C96.9663,57.955 97.0763,58.1 97.1773,58.247 C97.9183,59.328 97.9903,60.043 97.4123,61.779 C97.3143,62.07 96.7123,63.082 96.7123,63.082 C96.8423,62.965 99.8763,60.687 97.7663,57.153 C98.2863,57.059 98.8023,56.948 99.3053,56.789 C103.0793,55.597 105.8243,52.413 108.3593,49.375 C110.6013,46.686 112.9373,43.793 113.3793,40.319 C113.8303,36.767 112.1403,33.191 109.6153,30.653 C108.9793,30.014 108.2963,29.433 107.5763,28.899"/>
        <path fill="#D3805F" d="M121.3547,35.4922 C121.3547,40.9682 116.9167,45.4062 111.4407,45.4062 C105.9647,45.4062 101.5267,40.9682 101.5267,35.4922 C101.5267,30.0162 105.9647,25.5772 111.4407,25.5772 C116.9167,25.5772 121.3547,30.0162 121.3547,35.4922"/>
      </g>
      <path d="M73.029,248.18 C66.602,251.874 62.281,258.645 59.568,265.363 C56.02,274.146 54.431,283.683 50.213,292.163 C49.127,294.35 47.871,296.814 47.651,299.154 C48.842,299.326 50.046,299.459 51.334,299.506 C62.169,273.874 66.809,275.188 68.407,258.115 C68.676,255.23 71.879,250.704 74.105,247.628 C73.756,247.789 73.4,247.968 73.029,248.18"/>
      <g transform="translate(129 129.328)">
        <path fill="#D37897" d="M46.7023,3.0147 C46.7023,3.0147 40.5723,4.0797 24.5803,24.0707 C17.6503,38.7297 17.3843,45.3927 17.3843,45.3927 C17.3843,45.3927 17.6503,48.5907 22.1813,46.4577 C26.7133,44.3267 41.9053,23.2707 41.9053,23.2707 L46.7023,3.0147 Z"/>
        <path fill="#E28DA5" d="M39.7199,6.5479 C36.3499,10.5519 33.8119,42.5069 36.6549,43.9209 C42.7909,46.9749 49.9609,46.8649 56.8139,46.6909 C58.6769,46.6429 60.5879,46.5849 62.3139,45.8809 C64.3889,45.0329 66.0109,43.3059 67.1249,41.3609 C69.1759,37.7819 69.6439,33.4219 68.8659,29.3709 C68.0879,25.3199 66.1309,21.5619 63.6389,18.2749 C61.2429,15.1139 58.3049,12.2809 56.6969,8.6549 C55.1109,5.0819 55.1929,0.2429 50.3629,0.6169 C46.2019,0.9389 42.3609,3.4129 39.7199,6.5479"/>
        <path fill="#5353C6" d="M22.2384 164.3985L18.9164 171.0615.1144 160.9795C.1144 160.9795.1144 158.5275 3.9294 159.6175 7.7444 160.7075 17.0094 165.8845 17.0094 165.8845L19.1884 161.7965 22.2384 164.3985zM73.8703 166.3018L74.1063 173.8588 66.8193 180.4178C64.5753 182.4378 61.5163 183.4068 58.5563 182.8188 57.4513 182.5988 56.7173 182.1978 57.0733 181.4868 58.0903 179.4518 68.7673 173.3508 68.7673 173.3508L69.2763 163.6898 73.8703 166.3018z"/>
        <path fill="#D6A659" d="M38.3908,52.6797 C32.4998,73.3647 27.7818,94.3827 24.2648,115.6017 C21.6298,131.4987 20.5928,147.8227 14.7778,162.8517 C17.3368,163.8297 19.3468,164.3237 22.2388,164.8517 C25.4968,159.3237 28.3668,154.9417 31.0388,149.1067 C32.7038,145.4747 34.2618,141.7507 34.9768,137.8217 C36.1078,131.5967 35.0988,124.9927 37.2348,119.0367 C44.2888,99.3707 53.1698,81.2027 58.9168,61.1157 C59.1318,60.3647 59.3408,59.5437 59.0428,58.8227 C58.6198,57.7987 57.3918,57.4197 56.3108,57.1767 C50.1908,55.7947 44.6348,53.3007 38.3908,52.6797"/>
        <path fill="#EABD70" d="M70.5021,45.6055 C72.0031,86.3855 73.5041,127.1665 75.0051,167.9455 C72.1231,167.9455 68.3431,167.9625 65.4601,167.9625 C62.8391,159.0885 61.2451,150.1705 60.7061,140.9335 C59.0661,112.8215 54.1971,84.8985 46.2261,57.8895 C49.6671,54.2935 52.5221,51.5425 56.6321,48.7355 C60.7431,45.9295 65.6051,44.7135 70.5021,45.6055"/>
        <path fill="#E28DA5" d="M14.4523 31C13.2063 34.316 11.4803 37.414 12.0473 40.911 12.6123 44.409 15.7833 47.754 19.2743 47.151 22.1663 46.653 23.5143 39.795 23.5143 39.795L30.4443 9.944 24.6893 9.003C24.6893 9.003 16.4183 25.77 14.4523 31M36.7218 52.1563C36.7218 52.1563 36.3468 55.7253 36.9968 57.3543 38.2988 60.6173 45.7008 62.4393 45.7008 62.4393 45.7008 62.4393 71.6688 61.5993 72.0588 59.2863 72.8518 54.5743 71.6048 50.0653 71.6068 45.2873 71.6068 44.7653 71.5868 44.2013 71.2618 43.7943 70.9908 43.4533 70.5578 43.2913 70.1458 43.1513 63.4618 40.8773 56.2438 40.2343 49.2558 41.1963 46.5548 41.5683 41.5198 42.0103 39.2918 43.7233 36.6448 45.7603 36.7218 52.1563 36.7218 52.1563"/>
        <path fill="#F9CCDA" d="M17.0402,37.3262 C16.8002,37.2022 16.5082,37.0862 16.2722,37.2172 C16.1062,37.3082 16.0232,37.4962 15.9262,37.6592 C14.8662,39.4262 11.6432,38.7182 10.6652,40.5312 C10.2642,41.2742 10.4272,42.2222 10.8722,42.9392 C11.3162,43.6562 12.0042,44.1862 12.6922,44.6742 C14.4642,45.9272 18.7532,45.9362 18.7532,45.9362 L24.2622,46.8792 L24.2312,44.5522 L21.4342,42.8722 C21.4342,42.8722 21.9272,41.4102 21.7202,41.1712 C20.1952,39.4152 18.1862,37.9182 17.0402,37.3262"/>
      </g>
      <path d="M165.991,178.186 C165.867,178.959 165.8,179.673 165.765,180.243 C167.94,182.292 172.336,185.502 178.808,185.855 C184.256,186.152 192.688,188.139 199.013,189.637 C200.23,189.334 200.994,188.994 201.059,188.614 C201.851,183.903 200.604,179.394 200.607,174.615 C200.607,174.332 200.596,174.038 200.538,173.761 C196.027,173.439 191.693,173.142 191.693,173.142 L165.991,178.186 Z"/>
      <g transform="translate(142 129.328)">
        <path fill="#F9CCDA" d="M4.3068,37.2266 C4.0618,37.0106 3.8048,36.7996 3.4988,36.6846 C3.1398,36.5486 2.7448,36.5586 2.3608,36.5736 C1.8248,36.5926 1.2868,36.6206 0.7518,36.6546 C0.4998,36.6696 0.1988,36.7206 0.0988,36.9526 C-0.0082,37.2026 0.2008,37.4726 0.4138,37.6396 C1.0768,38.1566 1.9288,38.3776 2.5968,38.8846 C3.2668,39.3916 3.7188,40.1596 4.4298,40.6076 C4.6358,40.7376 4.8698,40.8396 5.1138,40.8306 C5.3538,40.8226 5.5758,40.7066 5.7878,40.5946 C6.7218,40.0986 6.6638,39.8066 6.0238,39.0176 C5.5068,38.3796 4.9388,37.7526 4.3068,37.2266"/>
        <path fill="#E28DA5" d="M32.5148,2.8575 L47.1288,0.3815 L55.2768,1.9245 C61.6188,3.1275 66.2368,8.6125 66.3628,15.0665 C66.5688,25.6625 66.1828,41.1015 62.7058,48.8145 C61.1398,52.2905 55.6338,51.7485 51.8218,51.7425 C40.6348,51.7275 18.4738,51.4615 8.1688,47.1085 C8.3538,45.4685 8.1968,44.0905 8.8868,42.5915 C18.7788,40.9655 39.6428,37.7765 49.5128,39.5295 C41.5688,30.6085 35.9438,19.4165 33.6928,7.6845 C33.3698,6.0005 32.5148,2.8575 32.5148,2.8575"/>
      </g>
      <path d="M186.848,130.096 L183.402,140.941 C183.988,140.941 198.046,138.598 207.418,144.016 C207.754,144.211 208.065,144.368 208.364,144.504 C208.363,144.469 208.363,144.429 208.362,144.394 C208.236,137.94 203.619,132.455 197.277,131.252 L189.129,129.709 L186.848,130.096 Z"/>
      <g transform="translate(153 87.328)">
        <path fill="#FFF" d="M25.3576,45.1641 C25.1426,45.5691 25.0876,46.0371 25.0536,46.4931 C24.8666,48.9411 25.1246,51.4231 25.8116,53.7791 C25.9036,54.0921 26.0046,54.4091 26.2026,54.6691 C26.8386,55.5031 28.1256,55.3891 29.1156,55.0421 C30.6046,54.5211 31.9556,53.6751 33.2806,52.8181 C35.7916,51.1941 38.3716,49.3881 39.6836,46.7021 C39.8886,46.2831 40.0626,45.8251 40.0076,45.3621 C39.8836,44.3201 38.7236,43.7691 37.7076,43.5111 C35.1326,42.8541 26.9186,42.2251 25.3576,45.1641"/>
        <path fill="#F9CCDA" d="M36.4884,45.875 C33.1364,48.45 28.3754,50.878 28.3754,50.878 L25.6784,38.309 C25.6784,38.309 20.8134,39.007 19.5044,38.83 C14.4504,38.146 9.4704,34.694 8.4434,29.699 C7.8044,26.597 8.7204,23.41 9.6294,20.375 C11.4964,14.139 13.4324,7.758 17.3284,2.542 C18.6294,0.8 20.6444,0.127 22.8174,0.09 C25.7494,0.04 28.7254,0.255 31.4964,1.214 C34.2674,2.173 36.8354,3.937 38.3374,6.455 C40.0854,9.39 40.2284,13.025 39.7334,16.405 C39.2384,19.785 38.1624,23.057 37.6354,26.433 C37.4684,27.502 35.8344,30.018 35.6034,32.479 C35.1294,37.535 36.0954,43.687 36.4884,45.875"/>
        <path fill="#185B9D" d="M32.3058,25.937 C32.8918,28.573 35.1108,31.956 35.8278,32.368 C35.8358,31.376 37.4798,27.431 37.6358,26.433 C38.1618,23.057 39.2388,19.785 39.7338,16.405 C40.2288,13.025 40.0848,9.39 38.3368,6.455 C36.8348,3.937 34.2678,2.173 31.4958,1.214 C28.7258,0.255 25.7488,0.04 22.8178,0.09 C21.9088,0.105 21.0308,0.241 20.2158,0.512 C22.8118,3.699 31.4398,6.113 32.4078,4.539 C27.9598,11.777 30.4628,17.644 32.3058,25.937"/>
        <path fill="#F9CCDA" d="M34.2365,16.3067 C36.0665,16.0517 38.1635,16.4167 39.2705,17.8947 C40.5325,19.5787 40.0255,22.0157 38.9855,23.8457 C38.1665,25.2857 37.0175,26.5857 35.5335,27.3217 C33.5125,28.3237 30.9565,28.1357 29.1035,26.8517 C23.0015,22.6197 29.1365,17.0177 34.2365,16.3067"/>
        <path fill="#185B9D" d="M3.6232,35.7647 C4.1142,39.9567 6.4592,43.3817 10.6002,44.2017 C13.7842,44.8317 17.6602,45.2077 20.7082,44.0877 C31.4952,40.1257 26.9012,30.0627 27.8972,27.4227 C29.1672,24.0577 30.4442,20.6627 30.9882,17.1077 C28.9742,16.6107 27.2392,18.5087 26.0302,20.1957 C24.8222,21.8817 21.8472,25.9647 19.8322,25.4697 C18.3412,22.3807 15.6612,19.3377 12.2632,18.8687 C10.9602,18.6887 9.0752,18.2347 8.4772,19.4067 C4.9372,26.3457 3.2032,32.1747 3.6232,35.7647"/>
        <path fill="#F9CCDA" d="M5.9005,51.8897 C6.0065,51.9937 6.1125,52.0957 6.2175,52.1987 C7.6395,49.6777 8.9155,47.0757 10.0375,44.4077 C10.3265,43.7197 10.6115,42.9917 10.5325,42.2487 C10.4315,41.3097 9.7745,40.5387 9.1475,39.8327 C8.4265,39.0207 7.6775,37.9177 6.9575,37.1057 C7.6165,35.9117 8.2765,34.7167 8.9355,33.5217 C9.2045,33.0367 9.4765,32.5367 9.5555,31.9877 C9.6335,31.4377 9.4775,30.8197 9.0275,30.4947 C8.5775,30.1697 8.0225,30.1607 7.6875,30.6037 C6.1355,32.6557 0.6675,48.3497 0.8545,50.3667 C0.9685,51.5907 1.1765,52.9807 2.1995,53.6637 C3.4375,54.4937 5.0285,53.0987 5.9005,51.8897"/>
      </g>
      <path d="M191.457,162.029 C191.457,162.029 183.402,169.204 178.863,169.497 C179.155,169.79 194.092,169.058 194.092,169.058 L196.435,146.36 L191.457,162.029 Z"/>
      <g transform="translate(89 .328)">
        <g transform="translate(95 106)">
          <mask id="pi-concept-landing-e" fill="#fff">
            <use xlink:href="#pi-concept-landing-d"/>
          </mask>
          <path d="M0.28,2.983 C0.28,2.983 2.771,-0.239 4.967,1.079 C7.163,2.397 3.649,6.058 3.649,6.058 L0.28,6.205 L0.28,2.983 Z" mask="url(#pi-concept-landing-e)"/>
        </g>
        <path stroke="#185B9D" d="M112.8566,38.7574 C112.8566,28.8394 104.5496,20.8604 94.5136,21.3994 C85.6366,21.8754 78.4246,29.2244 78.0996,38.1084 C77.9226,42.9534 79.7356,47.3674 82.7806,50.6164 C85.2886,53.2924 87.4086,56.3064 88.8286,59.6884 L89.7616,61.9104 L89.7616,65.2064 L94.3016,65.2064 L96.6426,65.2064 L101.1826,65.2064 L101.1826,61.9104 L101.8046,60.4294 C103.3686,56.7054 105.6796,53.3734 108.3856,50.3754 C111.1636,47.2994 112.8566,43.2294 112.8566,38.7574"/>
        <polygon fill="#185B9D" points="89.346 70.583 101.6 70.583 101.6 62.025 89.346 62.025"/>
        <polygon fill="#185B9D" points="97.577 65.902 94.098 65.902 87.791 36.496 89.15 36.205 95.221 64.512 96.422 64.512 101.792 35.639 103.157 35.893"/>
        <path fill="#185B9D" d="M98.1955,70.7779 C98.1955,72.2819 96.9755,73.5009 95.4715,73.5009 C93.9675,73.5009 92.7495,72.2819 92.7495,70.7779 C92.7495,69.2739 93.9675,68.0549 95.4715,68.0549 C96.9755,68.0549 98.1955,69.2739 98.1955,70.7779"/>
        <polygon fill="#FFF" stroke="#185B9D" points="95.077 14.905 96.077 14.905 96.077 .673 95.077 .673"/>
        <polygon fill="#FFF" stroke="#185B9D" points="116.249 36.076 130.481 36.076 130.481 35.076 116.249 35.076"/>
        <polygon fill="#FFF" stroke="#185B9D" points="60.674 36.076 74.906 36.076 74.906 35.076 60.674 35.076"/>
        <polygon fill="#FFF" stroke="#185B9D" points="79.69 22.343 68.977 12.973 69.635 12.22 80.348 21.59"/>
        <polygon fill="#FFF" stroke="#185B9D" points="109.562 20.346 108.81 19.688 118.18 8.975 118.932 9.633"/>
        <path fill="#FFF" stroke="#979797" d="M63.8566 77.083C60.5716 77.083 57.9096 74.42 57.9096 71.135 57.9096 67.851 60.5716 65.188 63.8566 65.188 67.1416 65.188 69.8036 67.851 69.8036 71.135 69.8036 74.42 67.1416 77.083 63.8566 77.083M76.6206 68.15L74.6246 67.812C74.4166 67.14 74.1486 66.493 73.8226 65.875L74.9986 64.229C75.4976 63.528 75.4196 62.572 74.8086 61.966L73.0386 60.195C72.7056 59.863 72.2656 59.679 71.7956 59.679 71.4276 59.679 71.0776 59.791 70.7806 60.005L69.1286 61.182C68.4876 60.843 67.8166 60.564 67.1216 60.356L66.7886 58.384C66.6456 57.534 65.9156 56.916 65.0536 56.916L62.5526 56.916C61.6906 56.916 60.9606 57.534 60.8176 58.384L60.4726 60.403C59.8076 60.611 59.1606 60.885 58.5426 61.217L56.9096 60.041C56.6116 59.827 56.2546 59.714 55.8866 59.714 55.4176 59.714 54.9716 59.898 54.6456 60.231L52.8696 62.001C52.2626 62.607 52.1796 63.564 52.6786 64.265L53.8676 65.935C53.5406 66.558 53.2786 67.206 53.0776 67.877L51.1046 68.209C50.2546 68.352 49.6366 69.083 49.6366 69.944L49.6366 72.445C49.6366 73.307 50.2546 74.038 51.1046 74.18L53.1246 74.525C53.3326 75.19 53.6056 75.837 53.9386 76.456L52.7676 78.083C52.2686 78.784 52.3456 79.741 52.9586 80.347L54.7286 82.117C55.0606 82.45 55.5016 82.634 55.9696 82.634 56.3376 82.634 56.6886 82.521 56.9856 82.307L58.6556 81.119C59.2546 81.434 59.8846 81.689 60.5326 81.892L60.8656 83.887C61.0076 84.737 61.7386 85.355 62.5996 85.355L65.1066 85.355C65.9686 85.355 66.6996 84.737 66.8416 83.887L67.1796 81.892C67.8516 81.684 68.4996 81.416 69.1176 81.089L70.7626 82.266C71.0596 82.479 71.4166 82.592 71.7846 82.592 72.2536 82.592 72.6936 82.408 73.0266 82.076L74.7966 80.305C75.4026 79.699 75.4856 78.743 74.9866 78.041L73.8106 76.39C74.1366 75.767 74.4106 75.119 74.6126 74.454L76.6086 74.121C77.4586 73.979 78.0766 73.248 78.0766 72.386L78.0766 69.885C78.0876 69.023 77.4696 68.293 76.6206 68.15M45.7209 40.5308C43.0329 40.5308 40.8539 38.3518 40.8539 35.6638 40.8539 32.9758 43.0329 30.7968 45.7209 30.7968 48.4089 30.7968 50.5879 32.9758 50.5879 35.6638 50.5879 38.3518 48.4089 40.5308 45.7209 40.5308M56.1649 33.2208L54.5319 32.9438C54.3619 32.3938 54.1429 31.8638 53.8749 31.3588L54.8379 30.0118C55.2459 29.4388 55.1839 28.6558 54.6829 28.1598L53.2339 26.7118C52.9619 26.4388 52.6019 26.2888 52.2179 26.2888 51.9159 26.2888 51.6299 26.3808 51.3869 26.5558L50.0349 27.5188C49.5099 27.2408 48.9609 27.0128 48.3919 26.8428L48.1189 25.2288C48.0029 24.5328 47.4059 24.0278 46.6999 24.0278L44.6539 24.0278C43.9489 24.0278 43.3509 24.5328 43.2339 25.2288L42.9519 26.8818C42.4079 27.0518 41.8779 27.2758 41.3719 27.5478L40.0349 26.5848C39.7919 26.4098 39.4999 26.3178 39.1999 26.3178 38.8149 26.3178 38.4499 26.4678 38.1829 26.7398L36.7299 28.1888C36.2339 28.6848 36.1649 29.4678 36.5749 30.0418L37.5459 31.4078C37.2789 31.9178 37.0649 32.4478 36.8999 32.9968L35.2849 33.2688C34.5909 33.3858 34.0849 33.9838 34.0849 34.6888L34.0849 36.7358C34.0849 37.4408 34.5909 38.0378 35.2849 38.1558L36.9389 38.4368C37.1089 38.9818 37.3319 39.5108 37.6049 40.0168L36.6469 41.3488C36.2389 41.9228 36.3019 42.7048 36.8019 43.2008L38.2509 44.6498C38.5239 44.9218 38.8829 45.0728 39.2669 45.0728 39.5689 45.0728 39.8559 44.9808 40.0989 44.8058L41.4639 43.8338C41.9549 44.0908 42.4709 44.2998 43.0009 44.4658L43.2729 46.0988C43.3899 46.7938 43.9879 47.2998 44.6929 47.2998L46.7439 47.2998C47.4499 47.2998 48.0469 46.7938 48.1629 46.0988L48.4409 44.4658C48.9909 44.2948 49.5199 44.0758 50.0259 43.8088L51.3719 44.7718C51.6159 44.9468 51.9069 45.0388 52.2079 45.0388 52.5919 45.0388 52.9519 44.8878 53.2249 44.6158L54.6729 43.1668C55.1689 42.6718 55.2369 41.8888 54.8279 41.3148L53.8669 39.9638C54.1329 39.4528 54.3569 38.9238 54.5219 38.3788L56.1559 38.1068C56.8509 37.9898 57.3569 37.3918 57.3569 36.6868L57.3569 34.6398C57.3659 33.9348 56.8609 33.3378 56.1649 33.2208"/>
        <polygon fill="#FFF" stroke="#979797" points="43.84 56.082 .024 56.082 .024 86.638 23.377 86.638 20.895 94.459 31.046 86.638 43.84 86.638"/>
        <path fill="#185B9D" d="M14.7658 71.8775C14.7658 72.8175 14.0028 73.5795 13.0638 73.5795 12.1228 73.5795 11.3618 72.8175 11.3618 71.8775 11.3618 70.9375 12.1228 70.1755 13.0638 70.1755 14.0028 70.1755 14.7658 70.9375 14.7658 71.8775M23.2746 71.8775C23.2746 72.8175 22.5126 73.5795 21.5726 73.5795 20.6326 73.5795 19.8716 72.8175 19.8716 71.8775 19.8716 70.9375 20.6326 70.1755 21.5726 70.1755 22.5126 70.1755 23.2746 70.9375 23.2746 71.8775M31.7834 71.8775C31.7834 72.8175 31.0214 73.5795 30.0824 73.5795 29.1414 73.5795 28.3804 72.8175 28.3804 71.8775 28.3804 70.9375 29.1414 70.1755 30.0824 70.1755 31.0214 70.1755 31.7834 70.9375 31.7834 71.8775"/>
      </g>
    </g>
  </g>
</svg>
