
<svg width="61px" height="60px" viewBox="0 0 61 60" version="1.1" xmlns="http://www.w3.org/2000/svg" xmlns:xlink="http://www.w3.org/1999/xlink">
    <!-- Generator: Sketch 47.1 (45422) - http://www.bohemiancoding.com/sketch -->
    <desc>Created with Sketch.</desc>
    <defs>
        <linearGradient x1="1.30141901%" y1="50%" x2="98.7603635%" y2="50%" id="linearGradient-1">
            <stop stop-color="#43CEA2" offset="0%"></stop>
            <stop stop-color="#185A9D" offset="100%"></stop>
        </linearGradient>
    </defs>
    <g id="Page-1" stroke="none" stroke-width="1" fill="none" fill-rule="evenodd">
        <g id="4.0-Product-Insights_CopyNotReady" transform="translate(-595.000000, -1064.000000)" fill-rule="nonzero">
            <g id="noun_1116531_cc" transform="translate(595.000000, 1064.000000)">
                <g id="Group">
                    <path d="M32.9032258,44.516129 L27.0967742,44.516129 C24.4287097,44.516129 22.2580645,46.6867742 22.2580645,49.3548387 L22.2580645,55.1612903 C22.2580645,57.8293548 24.4287097,60 27.0967742,60 L32.9032258,60 C35.5712903,60 37.7419355,57.8293548 37.7419355,55.1612903 L37.7419355,49.3548387 C37.7419355,46.6867742 35.5712903,44.516129 32.9032258,44.516129 Z M35.8064516,55.1612903 C35.8064516,56.7619355 34.503871,58.0645161 32.9032258,58.0645161 L27.0967742,58.0645161 C25.496129,58.0645161 24.1935484,56.7619355 24.1935484,55.1612903 L24.1935484,49.3548387 C24.1935484,47.7541935 25.496129,46.4516129 27.0967742,46.4516129 L32.9032258,46.4516129 C34.503871,46.4516129 35.8064516,47.7541935 35.8064516,49.3548387 L35.8064516,55.1612903 Z" id="Shape" fill="#000000"></path>
                    <path d="M30,15.483871 C34.2687097,15.483871 37.7419355,12.0106452 37.7419355,7.74193548 C37.7419355,3.47322581 34.2687097,0 30,0 C25.7312903,0 22.2580645,3.47322581 22.2580645,7.74193548 C22.2580645,12.0106452 25.7312903,15.483871 30,15.483871 Z M30,1.93548387 C33.2022581,1.93548387 35.8064516,4.53967742 35.8064516,7.74193548 C35.8064516,10.9441935 33.2022581,13.5483871 30,13.5483871 C26.7977419,13.5483871 24.1935484,10.9441935 24.1935484,7.74193548 C24.1935484,4.53967742 26.7977419,1.93548387 30,1.93548387 Z" id="Shape" fill="#000000"></path>
                    <path d="M15.483871,22.2580645 L0,22.2580645 L0,37.7419355 L15.483871,37.7419355 L15.483871,22.2580645 Z M13.5483871,35.8064516 L1.93548387,35.8064516 L1.93548387,24.1935484 L13.5483871,24.1935484 L13.5483871,35.8064516 Z" id="Shape" fill="#000000"></path>
                    <path d="M60.5980645,37.7419355 L52.2580645,21.0619355 L43.9180645,37.7419355 L60.5980645,37.7419355 Z M57.4664516,35.8064516 L47.0496774,35.8064516 L52.2580645,25.3896774 L57.4664516,35.8064516 Z" id="Shape" fill="#000000"></path>
                    <path d="M49.9296774,20.0893548 L51.6629032,19.226129 C49.1893548,14.2645161 45.0493548,10.2677419 40.0045161,7.97322581 L39.2032258,9.73451613 C43.8454839,11.8470968 47.6545161,15.5245161 49.9296774,20.0893548 Z" id="Shape" fill="#000000"></path>
                    <path d="M20.7967742,9.73548387 L19.9954839,7.97419355 C14.6941935,10.3848387 10.4380645,14.6274194 8.00709677,19.9190323 L9.76645161,20.7270968 C12.0019355,15.8574194 15.9193548,11.9535484 20.7967742,9.73548387 Z" id="Shape" fill="#000000"></path>
                    <path d="M39.273871,50.2325806 L40.0809677,51.9919355 C45.3445161,49.5754839 49.5754839,45.3454839 51.9929032,40.08 L50.2335484,39.2729032 C48.0087097,44.1174194 44.1164516,48.0096774 39.273871,50.2325806 Z" id="Shape" fill="#000000"></path>
                    <path d="M9.76741935,39.273871 L8.00806452,40.0809677 C10.4254839,45.3445161 14.6554839,49.5754839 19.92,51.9929032 L20.7270968,50.2335484 C15.8825806,48.0087097 11.9912903,44.1174194 9.76741935,39.273871 Z" id="Shape" fill="#000000"></path>
                    <path d="M30,26.1290323 C27.8651613,26.1290323 26.1290323,27.8651613 26.1290323,30 C26.1290323,32.1348387 27.8651613,33.8709677 30,33.8709677 C32.1348387,33.8709677 33.8709677,32.1348387 33.8709677,30 C33.8709677,27.8651613 32.1348387,26.1290323 30,26.1290323 Z M30,31.9354839 C28.9325806,31.9354839 28.0645161,31.0674194 28.0645161,30 C28.0645161,28.9325806 28.9325806,28.0645161 30,28.0645161 C31.0674194,28.0645161 31.9354839,28.9325806 31.9354839,30 C31.9354839,31.0674194 31.0674194,31.9354839 30,31.9354839 Z" id="Shape" fill="url(#linearGradient-1)"></path>
                    <path d="M38.6525806,30.9677419 L40.6451613,30.9677419 L40.6451613,29.0322581 L38.6525806,29.0322581 C38.4658065,27.3551613 37.8009677,25.8232258 36.7983871,24.57 L38.2112903,23.156129 L36.8429032,21.7877419 L35.43,23.2006452 C34.1767742,22.1980645 32.6448387,21.5322581 30.9677419,21.3464516 L30.9677419,19.3548387 L29.0322581,19.3548387 L29.0322581,21.3474194 C27.3551613,21.5341935 25.8222581,22.1990323 24.57,23.2016129 L23.1570968,21.7887097 L21.7887097,23.1570968 L23.2016129,24.5709677 C22.1990323,25.8241935 21.5341935,27.356129 21.3474194,29.0332258 L19.3548387,29.0332258 L19.3548387,30.9687097 L21.3474194,30.9687097 C21.5341935,32.6458065 22.1990323,34.1777419 23.2016129,35.4309677 L21.7887097,36.843871 L23.1570968,38.2122581 L24.57,36.7993548 C25.8232258,37.8019355 27.3551613,38.4667742 29.0322581,38.6535484 L29.0322581,40.6451613 L30.9677419,40.6451613 L30.9677419,38.6525806 C32.6448387,38.4658065 34.1767742,37.8009677 35.43,36.7983871 L36.8429032,38.2112903 L38.2112903,36.8429032 L36.7983871,35.43 C37.8009677,34.1767742 38.4658065,32.6448387 38.6525806,30.9677419 Z M30,36.7741935 C26.2654839,36.7741935 23.2258065,33.7345161 23.2258065,30 C23.2258065,26.2645161 26.2654839,23.2258065 30,23.2258065 C33.7345161,23.2258065 36.7741935,26.2645161 36.7741935,30 C36.7741935,33.7345161 33.7345161,36.7741935 30,36.7741935 Z" id="Shape" fill="url(#linearGradient-1)"></path>
                </g>
            </g>
        </g>
    </g>
</svg>