<svg xmlns="http://www.w3.org/2000/svg" width="307" height="212" viewBox="0 0 307 212">
  <g fill="none" fill-rule="evenodd">
    <path fill="#591239" d="M250.169243,43.9111518 C249.941984,43.9462367 249.711183,43.9725504 249.480382,43.9857072 C249.447916,43.9889964 249.411318,43.9917374 249.378853,43.990641 C245.563847,44.1792224 242.279507,41.4957752 242.01683,37.9423319 C241.751202,34.3631231 244.661303,31.2575606 248.519399,31.0152555 C250.397683,30.8968439 252.147285,31.4746485 253.486049,32.5085569 C253.552751,32.5622806 253.615912,32.6116188 253.682614,32.6691799 C254.382101,33.2491773 254.951725,33.9656769 255.35666,34.7709852 C255.582148,35.2276372 255.755692,35.7210187 255.863714,36.2335873 C255.922152,36.5005615 255.961701,36.7752105 255.982951,37.0542452 C256.234412,40.4147215 253.676121,43.3618537 250.169243,43.9111518"/>
    <path fill="#591239" d="M260.096749,46.956056 C258.927318,48.1083075 257.312784,48.8691663 255.480421,48.98483 C252.50342,49.1723038 249.831617,47.6050882 248.646839,45.2298714 C248.297957,44.5293112 248.075996,43.7563927 248.016373,42.9423615 C247.778473,39.693363 250.158656,36.834661 253.486899,36.1543831 C253.59847,36.1286191 253.714173,36.1066924 253.83519,36.0902473 C254.061284,36.0551645 254.288558,36.0288523 254.524097,36.0156963 C258.377727,35.768472 261.721909,38.4709459 261.982831,42.0537794 C262.123919,43.935644 261.386605,45.6843036 260.096749,46.956056"/>
    <path fill="#F4A891" d="M281.383905,100.883984 C283.169587,102.167199 285.069558,103.248554 287.057815,104.104229 C288.133578,104.570474 289.234134,104.968241 290.359482,105.295148 L302.62282,108.857188 C303.353299,109.069171 304.064427,109.037612 304.695735,108.812528 C305.873088,108.390943 306.766836,107.285174 306.966387,105.785211 C307.269947,103.478996 305.472776,102.799577 303.378091,102.192208 L292.01213,98.2187063 C290.777331,97.7625843 289.596954,97.2213115 288.477653,96.6067972 C287.455708,96.0500425 286.486372,95.4307645 285.563598,94.7555133 C280.657659,91.1589374 277.153416,85.9772479 275.368339,80.0542113 L272.446423,70.3583427 C271.746179,68.0342639 269.55958,66.5789606 267.564067,67.1089197 C265.569158,67.6329241 264.515164,69.9498574 265.217827,72.2727453 L268.137928,81.9721867 C270.506542,89.8268942 275.283076,96.5109282 281.383905,100.883984"/>
    <path fill="#D79481" d="M283.301564,96 L279,102.44158 C280.837392,103.789599 282.640551,105.100069 284.686455,106 L287,98.515802 L283.301564,96 Z"/>
    <path fill="#C22D3C" d="M280.205228,90.4324878 C280.014845,90.1977815 278.637076,89.192311 276.344343,83.2516318 C273.63139,76.2214515 272.250489,70.4552085 271.678089,67.2498728 C270.723044,61.9008856 263.160344,67.174535 263.003153,71.815926 C262.845962,76.457317 268.60629,89.9294628 271.408798,94.0823168 C274.211305,98.2345913 281.101404,103 281.101404,103 L286,94.9701444 C286,94.9701444 282.385235,93.1179924 280.205228,90.4324878"/>
    <polygon fill="#FFF" points="283.691 93 281.661 97.006 283.176 99.77 280.18 99.28 279 101.497 282.579 104 287 95.189"/>
    <path fill="#591239" d="M237.016753,30.9456342 C237.281207,34.5271522 240.622894,37.230557 244.479914,36.9844441 C248.336933,36.7383312 251.248292,33.6358837 250.983247,30.0543658 C250.718203,26.4728478 247.377106,23.769443 243.520086,24.0155559 C239.663067,24.2616688 236.751708,27.3641163 237.016753,30.9456342"/>
    <path fill="#F4B84D" d="M263.008411,27.740025 C263.140599,29.6684472 264.811603,31.1244091 266.740025,30.9915889 C268.668447,30.8594012 270.124409,29.1883972 269.991589,27.259975 C269.859401,25.3315528 268.188397,23.8755909 266.260607,24.0084111 C264.331553,24.1405988 262.875591,25.8116028 263.008411,27.740025"/>
    <path fill="#F4B84D" d="M256.008334,27.7397282 C256.141145,29.6679974 257.812034,31.1238438 259.739692,30.9916666 C261.667983,30.858857 263.123845,29.1886179 262.991666,27.2597163 C262.858855,25.3314472 261.187966,23.8756008 259.260308,24.0084104 C257.332017,24.14122 255.876155,25.8114591 256.008334,27.7397282"/>
    <path fill="#591239" d="M253.866199,47.9932433 C253.933241,48.107672 253.979748,46.758745 254.050414,44.7014498 C254.237044,39.046007 254.625406,28.0257341 256.258577,27.2447126 C260.746778,25.1038663 278.152373,38.3473258 279.43765,33.446265 C279.742058,32.3013723 279.924461,31.105017 279.982443,29.8814168 C279.994523,29.6259198 280.000563,29.3710283 279.999959,29.1203749 C280.001771,27.1266512 279.665956,25.2098188 279.042645,23.4316328 C278.509932,21.9210526 277.779112,20.5037106 276.873136,19.2244096 L276.868909,19.2183551 C273.781345,14.856744 268.706676,12.0069239 262.962793,12.000264 C262.701873,11.9984477 262.444576,12.0063185 262.184259,12.0141892 C255.27952,12.3156998 249.281964,16.3291813 246.57189,22.5488969 C245.721482,24.4917634 245.192392,26.6531948 245.058308,28.9835448 C244.239306,43.1575703 252.292822,45.4013419 253.866199,47.9932433"/>
    <path fill="#F4A891" d="M259.951113,70.9892569 C257.566121,71.1607346 255.480479,69.2587816 255.316673,66.7614873 L254.010262,46.8628332 C253.846456,44.3661426 255.663319,42.1828215 258.048887,42.01074 C260.433879,41.8392623 262.519521,43.7418191 262.683327,46.2391134 L263.989738,66.1377675 C264.153544,68.6344581 262.336681,70.8177792 259.951113,70.9892569"/>
    <path fill="#FFC7B0" d="M253.183344,40.1324572 C253.191162,40.2912311 253.204393,40.4432357 253.221233,40.6013942 C253.22424,40.6500111 253.230855,40.7010895 253.237471,40.7497064 C253.445556,42.705457 254.048164,44.5418194 254.951473,46.1689449 C254.995375,46.2501781 255.042285,46.3283343 255.088593,46.4095675 C256.560831,48.9327196 258.765579,50.9167788 261.384695,52.0263504 C261.39131,52.0325044 261.394318,52.0325044 261.394318,52.0325044 C262.408285,52.4620557 263.486002,52.7568337 264.604012,52.8959147 C265.01417,52.9445316 265.423727,52.9808404 265.837493,52.9974562 C265.977019,53.0005333 266.114139,53.0011487 266.256672,52.9974562 C266.314406,52.9999179 266.342672,52.9980716 266.342672,52.9980716 C266.951895,52.9839174 267.542474,52.9359159 268.126438,52.8300666 C268.293628,52.8085275 268.459616,52.7839114 268.625603,52.7426794 C274.069515,51.625723 278.248674,46.8680427 278.906009,41.005714 C278.975772,40.3798492 279.011255,39.7336761 278.996821,39.0875029 L278.97517,38.101012 L278.848274,31.5266621 C278.832036,30.5358633 278.755056,29.5758347 278.584859,28.6514994 C278.460368,27.9320933 278.267317,27.2305339 278.0027,26.5566677 C277.308679,24.7879996 276.417999,23.2057985 275.135204,21.8949902 C272.73981,19.4364553 269.436898,17.9490264 265.872976,18.0013356 C263.203342,18.0394906 260.73578,18.941056 258.679578,20.4451008 C258.382485,20.6641843 258.093209,20.8955758 257.813556,21.1398908 C256.418298,22.35285 255.268413,23.8741261 254.456517,25.5954083 C254.456517,25.5954083 254.45351,25.6021777 254.454112,25.6083317 C254.240012,26.0594221 254.042751,26.5314362 253.880973,27.0114505 C253.852106,27.0976069 253.822036,27.1776093 253.797378,27.2736121 C253.600719,27.8533217 253.428116,28.453955 253.301219,29.0675118 C253.271751,29.2029005 253.243485,29.3413661 253.218226,29.4798318 C253.073889,30.2281618 252.992699,30.9974155 253.000517,31.7839005 L253.000517,31.923597 L253.011343,32.4559205 L253.021566,33.0405534 L253.033595,33.7870372 L253.034196,33.7938066 L253.033595,33.8331924 L253.036,33.95935 L253.043217,34.3002832 L253.043217,34.3070527 L253.119595,37.8579278 L253.138239,39.0333475 L253.149064,39.4782838 L253.15568,39.5755175 C253.157484,39.6075184 253.156281,39.6370578 253.158687,39.6696741 C253.159889,39.8253711 253.167106,39.9804526 253.183344,40.1324572"/>
    <path fill="#FFC4BC" d="M253.09411,39.9412032 C253.250078,39.9652067 253.414615,39.9816662 253.586865,39.989896 C253.660564,40.004298 253.751402,39.9994973 253.837099,39.9981257 L254.357276,39.9912676 L255,39.9850953 L254.961437,38.0161244 L254.951153,37.5744605 L254.869741,34 L254.191882,34.0082298 L253.699127,34.0171453 C253.590293,34.0157737 253.496027,34.0212602 253.393191,34.0336049 L253.388049,34.0342907 C253.239794,34.0425204 253.091539,34.0610374 252.948426,34.0836693 L252.944141,34.0836693 C252.211436,34.1968285 251.555858,34.4718398 251.057105,34.8833279 C250.394671,35.4381511 249.984185,36.1452249 250.000467,36.9668296 C250.033889,38.4138963 251.36904,39.677165 253.09411,39.9412032"/>
    <path fill="#591239" d="M254.555791,28 C254.555791,28 277.064173,23.4452858 278.988757,27.9757881 C278.988757,27.9757881 279.555467,23.2002848 272.641847,18.7943007 C265.728814,14.388893 254.388767,19.216279 253.59467,21.3584531 C252.80116,23.5006273 253.030891,25.1089873 253.030891,25.1089873 L254.555791,28 Z"/>
    <path fill="#D93838" d="M273.62928,118.346295 L245.107765,121 L244.81997,118.501019 L244.790826,117.109098 C244.790826,117.109098 244.833934,116.742078 244.903151,116.0812 C245.376132,111.542614 247.167264,93.0704275 246.083477,82.2762943 C245.84304,79.8750659 245.00394,74.9490694 244.186698,70.4260763 C243.170913,64.8056187 246.382809,59.2745174 251.808424,57.3050784 C253.74224,56.602821 255.32633,56.0606855 255.759845,56.0007148 C256.628696,55.8873701 262.915876,69.2914299 263.828443,69.326213 L263.594078,56.067882 C271.060977,58.6292323 274.717924,66.6994946 274.999648,77.2639399 C275.002684,77.558996 274.986291,77.8534523 274.941968,78.1455098 L272.643853,97.3259512 L273.62928,118.346295 Z"/>
    <path fill="#F4A891" d="M252.284854,39.6343388 C252.400028,39.655862 252.521531,39.6706207 252.64873,39.6780001 C252.703153,39.690914 252.770233,39.6866094 252.833515,39.6853795 L253.217642,39.67923 C253.218907,39.8354267 253.225869,39.9903935 253.243588,40.1422856 C253.251182,40.3003271 253.265737,40.4528341 253.283456,40.6102607 C253.28662,40.6594565 253.293581,40.7104972 253.299909,40.759078 C253.518868,42.7127666 254.153594,44.5483853 255.104102,46.1736918 C255.149665,46.2554799 255.199026,46.3335782 255.248386,46.4141363 C256.797549,48.9354216 259.117496,50.9186277 261.872829,52.0273782 C261.880423,52.0335277 261.883587,52.0335277 261.883587,52.0335277 C262.950534,52.4621462 264.084562,52.7567061 265.260989,52.8956843 C265.692578,52.9448801 266.122901,52.981162 266.558919,52.9977656 C266.705735,53.0008403 266.85002,53.0008403 267,52.9971506 C266.307053,52.9885414 262.284167,52.3662144 259.261148,47.7762453 C255.984365,42.7976294 255.078156,33.1386471 255.078156,33.1386471 C255.078156,33.1386471 255.285723,28.983446 255.036389,29.0000496 C254.956653,29.0049692 254.235862,29.2128215 253.279659,29.4975423 C253.128413,30.2447036 253.042349,31.0140031 253.051208,31.7999061 L253.051208,31.9394993 L253.062599,32.4714289 L253.073357,33.0556292 L253.086014,33.8015606 L253.086646,33.8077101 L253.086014,33.8470668 L253.088545,33.973746 L253.095506,34.314427 L252.73163,34.3224213 C252.651261,34.3211914 252.58165,34.326111 252.50571,34.33718 L252.501914,34.337795 C252.392434,34.3451743 252.282955,34.3617779 252.177273,34.3820712 L252.174109,34.3820712 C251.633041,34.4835376 251.148928,34.7301316 250.780622,35.0991001 C250.291446,35.5965928 249.988321,36.2306037 250.000345,36.967311 C250.025025,38.2648505 251.010971,39.397584 252.284854,39.6343388"/>
    <path fill="#591239" d="M277.008333 27.740025C277.141143 29.6684472 278.812015 31.1244091 280.739651 30.9915889 282.668553 30.8594012 284.124399 29.1883972 283.99159 27.259975 283.85878 25.3315528 282.187909 23.8755909 280.260272 24.0084111 278.332003 24.1405988 276.876156 25.8116028 277.008333 27.740025M269.008411 24.740025C269.140599 26.6684472 270.811603 28.1244091 272.740025 27.9915889 274.668447 27.8594012 276.124409 26.1883972 275.991589 24.259975 275.859401 22.3315528 274.188397 20.8755909 272.260607 21.0084111 270.331553 21.1405988 268.875591 22.8116028 269.008411 24.740025"/>
    <path fill="#591239" d="M263.008411,27.740025 C263.140599,29.6684472 264.811603,31.1244091 266.739393,30.9915889 C268.668447,30.8594012 270.124409,29.1883972 269.991589,27.259975 C269.859401,25.3315528 268.188397,23.8755909 266.259975,24.0084111 C264.331553,24.1405988 262.875591,25.8116028 263.008411,27.740025"/>
    <path fill="#591239" d="M260.008411,28.7396939 C260.140599,30.6679834 261.811603,32.1238451 263.740025,31.9916665 C265.668447,31.8588555 267.124409,30.1885988 266.991589,28.259677 C266.859401,26.3313875 265.188397,24.8761582 263.260607,25.0083368 C261.331553,25.1411478 259.875591,26.8114045 260.008411,28.7396939"/>
    <path fill="#591239" d="M254.008411,28.7397282 C254.140599,30.6679974 255.811603,32.1238438 257.739393,31.9916666 C259.668447,31.858857 261.124409,30.1886179 260.991589,28.2597163 C260.859401,26.3314472 259.188397,24.8756008 257.259975,25.0084104 C255.331553,25.14122 253.875591,26.8114591 254.008411,28.7397282"/>
    <path fill="#591239" d="M258,26.0882057 L254.894986,36.4999489 C254.706502,37.1324608 253.699605,37.1769809 253.4392,36.5645574 L250,28.4819782 C250,28.4819782 253.175696,20.2598663 258,26.0882057"/>
    <polygon fill="#FFF" points="254.035 55.305 254 52 259.553 52.208 261.948 61.107 262.901 52.437 265 52.41 264.749 76"/>
    <path fill="#591239" d="M250.981493,92.6247138 C250.634614,98.1065467 249.547801,120.4589 249.547801,120.4589 L244.326135,121 C243.711448,116.245586 246.5367,92.7842459 245.50645,82.0699978 C245.023935,77.035212 243.879405,70.5140392 243.031541,66.0257104 C242.611937,65.8590351 246.517653,66.5572857 246.517653,66.5572857 C246.517653,66.5572857 246.580565,66.816823 246.682724,67.2817282 C246.786038,67.7150841 246.929176,68.345474 247.097133,69.1121806 C248.365177,74.8035482 251.257958,88.3381811 250.981493,92.6247138"/>
    <path fill="#07113D" d="M201.144039,147.658712 L201.011928,148.369967 C200.932138,148.797643 201.261107,149.198805 201.745732,149.267395 L214,151 L213.831918,147.663323 L202.081895,147.001636 C201.624085,146.975699 201.217942,147.261008 201.144039,147.658712"/>
    <path fill="#07113D" d="M212.364368,157.495265 L204.516904,160.412426 C203.278054,160.920715 202.373717,162.01549 202.106953,163.330198 C201.896445,164.378543 200.925569,165.096379 199.864561,164.989467 L199.859722,164.988856 C198.66382,164.866671 197.823604,163.753568 198.031692,162.565322 L198.571874,159.260224 C198.852551,157.54475 199.768986,155.997891 201.137287,154.928774 L210.862988,147.328882 C211.492697,146.995318 212.224635,146.911621 212.91181,147.095509 C214.468841,147.512159 215.358055,149.150657 214.862636,150.689574 L212.364368,157.495265 Z"/>
    <path fill="#B95241" d="M212.364365,159.495555 L204.516902,162.412797 C203.278657,162.921099 202.374321,164.015905 202.106952,165.330039 C201.896444,166.379024 200.925568,167.096879 199.865165,166.989353 L199.860326,166.989353 C198.663819,166.867165 197.823603,165.754031 198.031691,164.565752 L198.418832,162.197135 C198.798109,159.879837 200.036354,157.789198 201.884951,156.344323 L210.862985,149.328891 C211.493298,148.995318 212.225236,148.911619 212.912411,149.095512 C214.468837,149.512173 215.358051,151.150716 214.862632,152.689676 L212.364365,159.495555 Z"/>
    <path stroke="#07113D" stroke-linecap="round" stroke-width=".844" d="M207 159L206 158M208 159L207 158M210 159L209 158"/>
    <path fill="#111D4D" d="M232.229939,166.632001 C223.563333,164.497026 215.119785,161.892188 212,160.628278 L214.983169,150.701477 C216.275574,151.225668 222.361602,153.340942 230.702387,155.289048 C238.427193,157.093866 245.25977,157.618655 247.105285,156.129067 C247.237668,151.433434 244.274447,131.06997 244.477557,129.521874 C244.899492,126.309261 259.754286,126 259.754286,126 C259.841937,126.296126 260.871992,160.627084 257.937182,164.633745 C256.904709,166.043928 255.533721,167.115595 253.719035,167.859493 C249.288106,169.677446 243.302424,169.360424 232.229939,166.632001 Z"/>
    <polygon fill="#9995A7" points="218 149.943 213.99 160 211 158.91 215.073 149"/>
    <path fill="#07113D" d="M279.169421,209.976933 L280.263602,209.999627 C280.921315,210.013011 281.469697,209.664445 281.490358,209.220446 L282,198 L277,198.600534 L278.018423,209.225101 C278.058023,209.638841 278.556474,209.964712 279.169421,209.976933"/>
    <path fill="#07113D" d="M287.164228,197.726025 L290.980446,205.520811 C291.628893,206.744408 292.803249,207.538617 294.109523,207.637658 C295.151375,207.713506 295.969848,208.629323 295.999163,209.751371 L295.999163,209.756386 C296.032582,211.022608 295.060499,212.051883 293.883798,211.997975 L290.614596,211.886397 C288.917848,211.8281 287.304354,211.084038 286.095992,209.801519 L277.509061,200.687229 C277.106274,200.074804 276.93273,199.321966 277.023606,198.578531 C277.231156,196.896713 278.705111,195.743323 280.258802,196.049222 L287.164228,197.726025 Z"/>
    <path fill="#B95241" d="M287.164347,195.725629 L290.979928,203.520632 C291.628365,204.744262 292.802706,205.538494 294.109548,205.637537 C295.151387,205.714014 295.969849,206.62923 295.998577,207.751309 L295.999163,207.756324 C296.032582,209.022581 295.060512,210.051884 293.88324,209.997975 L291.541008,209.917736 C289.249197,209.840006 287.068196,208.833269 285.435962,207.100628 L277.508724,198.686915 C277.105943,198.074473 276.9324,197.321615 277.023862,196.578159 C277.231409,194.896294 278.705344,193.742872 280.259014,194.049406 L287.164347,195.725629 Z"/>
    <path fill="#111D4D" d="M275.817282,198.510214 C276.403685,179.436227 276.046971,161.128208 274.522669,157.603432 C273.004167,151.914931 264.331075,137.423515 261,131.172422 L271.729276,120 C275.332382,129.050216 281.005012,140.711822 283.89063,151.521418 C284.729344,154.662307 287.210684,159.741283 286.985635,179.180503 C286.86789,189.362522 286.438093,199 286.438093,199 L275.817282,198.510214 Z"/>
    <polygon fill="#9995A7" points="289.987 194.699 277 194 277.072 197.482 290 198"/>
    <path fill="#111D4D" d="M244.647028,120.438013 C244.647028,120.438013 242.733107,128.349357 245.488729,131.461267 C250.400625,137.009955 269.200904,132.062895 271.754043,129.812041 C275.075368,126.882966 273.730888,118 273.730888,118 L244.647028,120.438013 Z"/>
    <polygon fill="#9995A7" points="244.136 123 274 119.301 273.635 116 244 119.652"/>
    <path fill="#F4A891" d="M244.642485,113.976662 L240.375147,109.467645 C239.877058,108.941904 239.038039,108.844461 238.509532,109.251796 L238.41321,109.326578 C237.884704,109.733914 237.859989,110.497031 238.357444,111.022771 L242.624783,115.532355 C243.123505,116.058096 243.962525,116.155539 244.490397,115.748204 L244.587353,115.673422 C245.115226,115.266086 245.13994,114.502969 244.642485,113.976662"/>
    <path fill="#F4A891" d="M232.02778,111.980725 C232.02778,111.980725 233.43624,115.879839 233.810616,117.014889 C234.53532,119.21054 235.47776,120.175422 237.044809,119.973937 L240.01187,118.756757 C241.527573,117.852734 242.19378,117.355227 241.951346,115.931835 L241.153197,111.247463 C240.910762,109.824662 239.429507,108.824328 237.862457,109.025813 L234.733557,109.427601 C233.166507,109.629085 231.785346,110.557924 232.02778,111.980725"/>
    <path fill="#F4A891" d="M240.152772,117.821384 L242.463569,122.800385 C242.806656,123.613378 243.623292,124.138919 244.279195,123.96761 C244.935098,123.796882 245.190251,122.991438 244.847884,122.179026 L242.537087,117.200026 C242.193279,116.386452 241.376644,115.861491 240.720741,116.032219 C240.065558,116.203529 239.808963,117.008392 240.152772,117.821384"/>
    <path fill="#F4A891" d="M238.152434,118.820974 L240.463231,123.799974 C240.807039,124.613548 241.622954,125.138509 242.279577,124.967781 C242.93476,124.796471 243.190634,123.991608 242.847546,123.178616 L240.53675,118.199615 C240.193662,117.386622 239.376306,116.861081 238.721124,117.03239 C238.065221,117.203118 237.809346,118.008562 238.152434,118.820974"/>
    <path fill="#F4A891" d="M236.152434 118.821385L238.463231 123.800385C238.806318 124.613378 239.622954 125.138919 240.279577 124.96761 240.93476 124.796882 241.190634 123.991438 240.847546 123.179026L238.53675 118.199446C238.193662 117.386453 237.376306 116.861492 236.721124 117.032221 236.065221 117.20353 235.809346 118.008393 236.152434 118.821385M229.114319 91.7781731C228.921781 93.9280126 228.971629 96.0690002 229.270094 98.1669084 229.428985 99.3040867 229.662025 100.427102 229.971707 101.533594L233.348296 113.594648C233.549558 114.313425 233.957689 114.889981 234.496672 115.30071 235.503605 116.065517 236.971633 116.241376 238.419098 115.636494 240.643572 114.70291 240.290896 112.854036 239.712658 110.795076L237.184734 99.2698593C236.931754 98.0058032 236.784079 96.7429274 236.734854 95.4930344 236.686252 94.3540856 236.721146 93.2275296 236.830812 92.1098255 237.422136 86.1672276 240.18123 80.5781169 244.523627 76.0406159L251.630103 68.614434C253.33491 66.8351954 253.466384 64.2622335 251.924207 62.8712997 250.388261 61.476235 247.752541 61.7901836 246.050226 63.5711926L238.939388 70.9979646C233.182551 77.0155088 229.760476 84.4387401 229.114319 91.7781731"/>
    <path fill="#F4A891" d="M236,90.3656134 L229.203308,90 C229.034282,92.3693309 228.87733,94.6872677 229.140197,97 L235.807926,95.0268587 L236,90.3656134 Z"/>
    <path fill="#D93838" d="M248.026212,61.7471152 C247.46494,62.0498033 246.797417,62.5265941 246.05966,63.1370911 C246.027244,63.1644013 245.990626,63.1939873 245.954609,63.2235734 C245.116603,63.9381906 244.184952,64.8189448 243.211281,65.8038193 C242.894327,66.1292659 242.571971,66.463247 242.249615,66.8074695 C238.104008,71.2152235 233.559808,77.1358494 232.071687,79.933439 C230.664006,82.5870811 229.818796,86.5738027 229.383586,89.2291516 C229.113455,90.8677642 229,92 229,92 L229.997683,91.9732588 L238.551224,91.710398 C238.551224,91.710398 238.387345,87.9592269 239.684573,84.9016213 C239.796827,84.6290882 239.688775,82.7953214 244.116519,78.2379302 C245.704888,76.6067141 247.344882,74.9635498 248.823998,73.3750059 C249.824082,72.2996664 250.74853,71.2601716 251.532509,70.2639179 C252.815331,68.6327018 253.712765,67.1391747 253.924668,65.8829051 C254.448721,62.7325586 252.212639,59.5036953 248.026212,61.7471152"/>
    <polygon fill="#FFF" points="239 90 234.457 90.19 232.94 92.594 231.696 90.041 229.149 90.101 229 94 238.969 93.549"/>
    <path fill="#6572BF" d="M195,196.258671 C195.142829,196.912422 195.564209,204.568087 195.564209,204.568087 L205,205 L201.850643,193 L195,196.258671 Z"/>
    <path fill="#757182" d="M194.644998,209 L214.984272,207.398196 C216.19741,207.302911 217.095734,206.324124 216.991821,205.211713 C216.911273,204.355275 216.249674,203.639228 215.340896,203.426105 L204.976653,201 L194,202.111847 L194.644998,209 Z"/>
    <path stroke="#07113D" stroke-linecap="round" stroke-width=".797" d="M205 203L207 201M206 204L208 202M207 204L209 202"/>
    <path fill="#07113D" d="M168,120.519197 C168.35426,121.401141 182.07487,142.23476 186.796317,153.991434 C191.518369,165.749298 194.024182,199.945882 194.024182,199.945882 L207,200 C207,200 205.650065,167.393055 202.533064,157.051178 C199.416062,146.708707 185.221494,118.24446 185.221494,118.24446 C184.749349,117.068138 168,120.519197 168,120.519197"/>
    <path fill="#6572BF" d="M125.415649,170 C124.716341,170.32325 115,175.354377 115,175.354377 L119.114918,182 L131,175.240392 L125.415649,170 Z"/>
    <path fill="#757182" d="M110,176.940239 L118.368056,196.571055 C118.86742,197.742614 120.269506,198.30663 121.499553,197.831508 C122.446734,197.46551 123.047904,196.570442 122.997001,195.598741 L122.417739,184.511538 L117.619976,174 L110,176.940239 Z"/>
    <path fill="#07113D" d="M117.03445,195.111205 L109,176.551318 L110.389989,176 L119,195.889941 C118.232985,196.194315 117.352539,195.845721 117.03445,195.111205"/>
    <path stroke="#07113D" stroke-linecap="round" stroke-width=".83" d="M119 184L121 185M119 187L121 188M119 189L124 190"/>
    <path fill="#07113D" d="M117,172.260195 C135.231901,163.091324 152.201955,153.258279 154.712372,149.95931 C155.951287,147.350668 156.125085,135.902199 155.068416,125.339294 L168.204654,124 C168.948727,131.412341 170.238333,149.428945 166.137181,156.636317 C164.407046,159.67801 160.158648,164.096707 141.773467,173.806891 C132.143968,178.892194 122.833701,184 122.833701,184 L117,172.260195 Z"/>
    <path fill="#07113D" d="M185.955469,120.233629 C186.176202,122.487323 185.565082,124.62947 184.372029,126.368016 C182.846965,128.597721 180.355054,130.165351 177.421677,130.444214 L161.548361,131.957271 C161.076491,132.002249 160.61131,132.011844 160.15221,131.985457 C158.971319,131.932683 157.839074,131.655619 156.801082,131.199843 C156.616225,131.122481 156.435626,131.034924 156.259283,130.94137 C153.510154,129.529064 151.51626,126.814797 151.195802,123.545803 L151,118.550856 L185.163749,115 L185.955469,120.233629 Z"/>
    <path fill="#FFC7B0" d="M224.894879,99.1066598 C224.858756,99.0259495 224.891143,93.428658 223.764473,93.2578113 C221.887312,92.9732631 219.71307,92.9208309 217.753075,93.1175992 L214,93.4946402 C214,93.4946402 214.225459,98.4120796 214.22795,98.6695279 C214.255354,102.244348 221.602064,100.641924 221.602064,100.641924 C221.602064,100.641924 225.701423,100.910565 224.894879,99.1066598"/>
    <path fill="#FFC7B0" d="M221.257437 94.9971733L229.942365 94.5069338C230.576097 94.4711023 231.050615 94.1034226 230.995671 93.6897321 230.940726 93.2760416 230.3763 92.9669952 229.742568 93.0028267L221.05764 93.4934734C220.423284 93.5293049 219.94939 93.8965774 220.004334 94.3102679 220.059279 94.7239584 220.623081 95.0330048 221.257437 94.9971733M224.083064 98.9970334L230.089026 98.5829048C230.635414 98.5452568 231.043592 98.1589364 230.996267 97.7242725 230.948942 97.2900365 230.463324 96.965322 229.916936 97.0029701L223.910974 97.4166708C223.364586 97.4543189 222.956408 97.8406392 223.003733 98.2753031 223.051058 98.7095392 223.536676 99.0346815 224.083064 98.9970334M221.189785 100.997139L228.999259 100.525254C229.599488 100.489399 230.047887 100.116836 229.995899 99.6985276 229.94391 99.2798069 229.410439 98.9665906 228.81021 99.0028577L221.000736 99.4747428C220.401098 99.5114221 219.952108 99.8831604 220.004097 100.301881 220.056085 100.720602 220.589556 101.033406 221.189785 100.997139"/>
    <path fill="#FFC7B0" d="M215.580173,96.8987869 L223.330507,93.276287 C223.896287,93.0114918 224.154895,92.3055852 223.904179,91.7073919 C223.652249,91.1079162 222.988126,90.8360684 222.419918,91.1021459 L214.669583,94.725287 C214.103196,94.9894409 213.845196,95.6953476 214.095912,96.2935409 C214.34602,96.890452 215.014393,97.163582 215.580173,96.8987869"/>
    <polygon fill="#EAECEE" points="213.943 103 213.741 100.937 213 93.31 215.408 93.124 217.057 93 217.17 94.149 217.186 94.316 217.405 96.598 217.959 102.243 218 102.69 216.415 102.812 214.887 102.928"/>
    <path fill="#061F48" d="M213.470156 104C212.649346 103.959806 193.272615 102.938753 183.307353 92.154108 177.590424 85.9672001 174.102432 75.5113077 172.350654 68.9164586 172.115367 68.0207877 171.90762 67.1941069 171.731005 66.4616125 171.322097 64.7434602 171.085015 63.5298352 171 63.0834996L176.475057 62.0420498 181.950712 61 181.950712 61.0047993C182.001601 61.2825593 182.063865 61.589715 182.136307 61.9214671 183.250477 67.2019058 186.583406 79.2607671 191.484316 84.5652022 197.170113 90.7173152 209.666653 92.6298394 214 92.8446085L213.952703 93.7918719 213.592289 101.402974 213.50967 103.162521 213.470156 104zM157 64.8246206L151.564822 55.7707569 151.103634 55C150.986807 55.0660649 149.395278 55.9760936 147.046518 57.5443904 145.040897 58.8853288 142.477445 60.7083623 139.803896 62.9027874 131.617488 69.6217637 126.475294 76.3895447 124.512489 83.0204345 120.432742 96.8035909 125.872813 114.263168 126.106465 115L126.886939 114.763714 128.322496 114.33459 134.234765 112.560361 135.065395 112.315147 136.382902 111.916377 137.276532 111.650332C137.234328 111.507489 132.643236 96.6661046 135.748615 86.1671461 138.116948 78.1673445 148.791573 69.9907747 154.769901 66.1762722 155.621327 65.6352544 156.375499 65.1787521 157 64.8246206"/>
    <path fill="#F4A891" d="M171.11053,54.6874596 L168.47688,54.9711088 C166.060346,55.2315452 163.841657,53.7017645 163.546174,51.5718478 L162.032789,40.6589972 C161.737306,38.5285143 163.472303,36.5729768 165.88948,36.3125404 L168.52313,36.0288912 C170.939664,35.7684548 173.158353,37.2982355 173.453836,39.4281522 L174.967221,50.3410028 C175.262704,52.4709195 173.527064,54.4270232 171.11053,54.6874596"/>
    <path fill="#B95241" d="M186.975764,23.5803134 C186.988979,23.8393961 186.997388,24.0990785 186.99979,24.3593606 C187.005797,25.6115934 186.882664,26.8434354 186.635196,28.0290984 C185.583459,33.1034 182.318327,37.4166463 177.840484,39.8437469 C175.616879,41.0515998 173.09355,41.7916646 170.395431,41.9308016 C166.027507,42.1551 162.490882,44.2955305 159.296026,41.8060581 C158.266513,41.004821 157.327097,40.0980318 156.504807,39.0892887 C156.181658,38.6922685 155.874125,38.2886513 155.586414,37.8682417 C153.833718,35.3050028 152.193945,28.703193 152.02336,25.3788988 C151.54224,16.0051446 158.549419,7.97598138 167.809034,7.07998721 C168.07392,7.05599808 168.338206,7.0374065 168.603693,7.02361275 C174.487057,6.72074993 179.835842,9.35355741 183.234318,13.6416151 L183.239724,13.6470127 C184.234399,14.9064422 185.061494,16.3128052 185.68677,17.8247204 C186.420764,19.6071131 186.871251,21.547834 186.975764,23.5803134"/>
    <path fill="#FFC4BC" d="M163.992208,30.0681799 C164.019697,30.4745541 163.974536,30.8736362 163.855414,31.24819 C163.723856,31.6969915 163.498047,32.1849058 163.191079,32.5442123 C162.634084,33.1892403 161.847355,33.691076 160.935612,33.754717 L158.977297,33.8919429 L157.474525,34 L157.154466,29.4848041 L157.159702,29.4841412 L157.097523,28.6495161 L157.051707,28.0011734 L157.01309,27.4078538 L157,27.2540547 L157.005236,27.2533918 L160.460433,27.0087717 C161.333559,26.9451307 162.151051,27.2315152 162.781351,27.7466095 C163.164243,28.0588481 163.475794,28.4638965 163.689166,28.9199903 C163.863268,29.2746562 163.964718,29.6558393 163.992208,30.0681799"/>
    <path fill="#FFC7B0" d="M184.43655,24.764564 L184.895912,31.3254812 L184.965584,32.3078613 C185.014,32.9542424 185.008686,33.6024108 184.966174,34.2297281 C184.555819,40.1263919 180.354838,45.1312284 174.632293,46.5735221 C174.461065,46.624756 174.282752,46.6616921 174.109163,46.6932665 C173.493924,46.8332661 172.867467,46.9160743 172.222116,46.965521 C171.59625,47.0131804 170.983373,47.0084145 170.372268,46.9696912 C169.178988,46.8976063 168.020545,46.6670538 166.924688,46.2994804 C166.924688,46.2994804 166.919965,46.3000761 166.914651,46.2959059 C162.141533,44.6981233 158.479034,40.5392417 157.685482,35.3735546 C157.661274,35.2168742 157.638247,35.0655555 157.624076,34.9082793 C157.592193,34.7277692 157.579203,34.5401102 157.566804,34.3524511 L157.554995,34.2547493 L157.520749,33.8109208 L157.442811,32.6396901 L157.153496,28.6225954 L157.153496,28.5826806 L157.153496,28.5773189 L157.102718,27.8320445 L157.061387,27.2494079 L157.026551,26.7156222 L157.019466,26.5774098 C156.961012,25.6480508 157.037769,24.7329896 157.201912,23.8459284 C157.309372,23.2257599 157.462296,22.6139319 157.64238,22.0241464 C157.665407,21.9264446 157.689615,21.8436363 157.718547,21.7554663 C157.866747,21.2693401 158.049784,20.7838096 158.255257,20.3203216 C158.254666,20.3155556 158.258799,20.3095982 158.258799,20.3095982 C159.036409,18.5408373 160.181272,16.9502037 161.603642,15.6544627 C161.888234,15.3953145 162.183454,15.1451025 162.48576,14.9085925 C164.593631,13.2840015 167.170311,12.2343024 169.999109,12.0347285 C173.781468,11.7678357 177.357173,13.0546405 180.020648,15.3649316 C181.448333,16.5981196 182.472746,18.1250088 183.293458,19.8514718 C183.610524,20.5091721 183.84611,21.1972552 184.016747,21.9085723 C184.240524,22.8218462 184.371601,23.7768222 184.43655,24.764564"/>
    <path fill="#FFC4BC" d="M159.50199,29 L159.801043,33.1281063 L160,35.915197 L158.879168,35.9936896 C158.79699,35.9979161 158.714812,36.0033502 158.63696,35.9973123 C156.751812,36.0003313 155.145945,34.5113873 155.009394,32.6806986 C154.937102,31.7303345 155.286821,30.8916714 155.894196,30.2130124 C156.437929,29.6080157 157.20657,29.2288361 158.080251,29.1141161 L158.085812,29.1135124 C158.185908,29.0917759 158.272411,29.0815115 158.375597,29.0790964 L159.50199,29 Z"/>
    <path fill="#F4A891" d="M173,48.9026556 C173,48.9026556 170.538275,49.3803765 167.980106,48.2192323 C167.980106,48.2192323 167.975284,48.2198464 167.969859,48.2149341 C163.097042,46.5687006 159.358041,42.2821076 158.547914,36.9577918 C156.709456,36.960862 155.142246,35.4466465 155.009033,33.584886 C154.939111,32.6183916 155.279678,31.7654941 155.872204,31.0753164 C156.402644,30.4600512 157.152494,30.0744359 158.005418,29.9577689 L158.004815,29.9528566 L157.952977,29.1846961 L157.910783,28.5841679 L157.875219,28.0339906 L157.863163,27.892148 L157.867986,27.891534 C157.808311,26.9336361 157.886672,25.9904751 158.054243,25.0761739 C159.802284,23.7756433 161.689567,23.3353787 163.063889,25.5919651 C163.063889,25.5919651 163.084384,26.6874072 163.187458,28.3477636 C163.261599,29.5905747 163.377331,31.1465447 163.564794,32.7915501 C163.940321,36.1736665 164.591919,39.9260472 165.720913,42.1101772 C168.124772,46.774403 173,48.9026556 173,48.9026556"/>
    <path fill="#B95241" d="M182.614505,14.2850156 L160.044499,16.9803706 C158.562326,17.1573683 157.201742,16.1173581 157.019966,14.6693026 C156.839406,13.2218411 157.90392,11.8919822 159.385485,11.7149844 L181.9561,9.01962942 C183.437665,8.84263167 184.798249,9.88264195 184.980024,11.3306974 C185.160584,12.7787528 184.096678,14.1080178 182.614505,14.2850156"/>
    <path fill="#B95241" d="M188.835611,14.3439122 C189.2083,15.4602455 188.922325,16.5908688 188.229836,17.4134001 C187.660346,18.089602 186.808572,18.5686022 185.825802,18.680064 L165.007447,21.0453417 C162.021623,21.3843 159.896799,23.9090539 160.262109,26.6841682 L160.673544,29.8125309 C160.810074,30.8505551 160.007499,31.8039826 158.89066,31.9308777 L158.409115,31.9857512 C157.287356,32.1132178 156.267071,31.371282 156.129926,30.328685 L154.890702,20.9047283 C154.880862,20.8292772 154.876557,20.7583989 154.877172,20.6863774 C154.422687,20.2028044 154.115802,19.5877636 154.026627,18.9098469 C153.906087,17.9918585 154.201902,17.1133105 154.770162,16.4319642 C155.339037,15.7557623 156.191426,15.2767621 157.174196,15.1653003 L184.801212,12.0266488 C186.563802,11.8265891 188.309171,12.7680131 188.835611,14.3439122"/>
    <path fill="#080B2E" d="M152.018891,126 C152.018891,126 165.981414,124.590355 165.812919,124.12085 C165.645033,123.65078 165.645033,118.168511 165.645033,118.168511 C165.645033,118.168511 176.747411,116.445674 176.747411,117.072057 C176.747411,117.699007 177.75716,122.554326 177.75716,122.554326 L186,121.144681 L185.831506,113 L150,116.445674 L152.018891,126 Z"/>
    <polygon fill="#FFF" points="177 112.518 162.152 113 160 49.482 174.849 49"/>
    <polygon fill="#D93838" points="167.665 56 164 51.064 167.16 49 171 50.829"/>
    <polygon fill="#FFF" points="176 53.173 168.72 49.044 160.178 54 160 48.277 175.791 48"/>
    <polygon fill="#9995A7" points="178 116.456 162.111 117 162 113.544 177.889 113"/>
    <polygon fill="#061D48" points="175 114.896 169.118 115 169 113.104 174.882 113"/>
    <path fill="#061F48" d="M163 122.826249C163 122.826249 159.659284 123.690328 154.655488 123.932845 152.836098 124.023863 150.795218 124.034642 148.61638 123.887934 148.485384 123.881347 148.362614 123.830449 148.243642 123.789131L147.22162 79.7498448C146.712191 72.361161 147.207065 68.4802906 147.453236 62.417965 147.484878 61.5844252 147.513355 60.7101665 147.534871 59.7808175 147.545629 59.2287171 147.638023 58.716138 147.796863 58.2317029 148.625239 55.6915621 151.302115 54.0268777 154.193521 52.8316582 155.933174 52.114287 157.751931 51.5657795 159.287179 51.1064943 160.004177 50.889726 159.566891 51.0813443 160.327554 51.020266L163 122.826249zM189 122.649053L186.025526 122.756943 179.193921 123C179.193921 123 175.397639 51.7250108 176.082697 52.0007983 177.246053 52.4717584 178.487925 53.1736525 179.697082 54.0701132 182.178209 55.9012205 184.51866 58.5518105 185.733052 61.694575 186.083105 62.5886112 186.338939 63.5281069 186.472417 64.4966966 186.480923 64.5318519 186.489429 64.5730685 186.492701 64.6082238 187.32236 70.7234313 189 122.649053 189 122.649053"/>
    <path stroke="#9995A7" stroke-width=".83" d="M169,56 L171,112"/>
    <path fill="#2C3765" d="M159.992523 85.9878446C160.239872 86.594144 154.268155 64.3175708 154.268155 64.3175708L156.704629 61.9760008 153 53.0816192 158.7956 49C158.7956 49 159.578031 84.9717705 159.992523 85.9878446M176.874275 85.9875472C176.665957 86.600141 181 64.4073784 181 64.4073784L178.438104 62.2486588 180.318762 54.1730794 175 49C175 49 177.224758 84.9597249 176.874275 85.9875472"/>
    <path fill="#9995A7" d="M169.953471,55.133265 C169.838776,55.8947262 168.840931,72.2403687 164.003673,82.1627933 C159.16699,92.085218 155.583348,94 155.583348,94 L150,93.103233 L150.041864,87.7577757 C150.041864,87.7577757 160.207272,80.91634 162.629628,75.468964 C165.051985,70.021588 168.710752,54.6453441 168.710752,54.6453441 C168.710752,54.6453441 170.287807,52.9086269 169.953471,55.133265"/>
    <path fill="#D93838" d="M168.001578,54 C168.001578,54 165.533117,69.7312036 157.129125,76.8982865 C148.725133,84.0647882 145.891019,83.7213401 145.891019,83.7213401 L144,90.2962509 L151.83741,91 C151.83741,91 161.406544,84.1641615 164.473567,76.6338721 C167.540589,69.1041637 170,54.4974477 170,54.4974477 L168.001578,54 Z"/>
    <path fill="#F4A891" d="M106.05873,93.9852211 L112.342446,93.0490202 C112.801359,92.9807517 113.086469,92.6921789 112.976354,92.4076653 C112.866238,92.1231517 112.400183,91.9463917 111.94127,92.0146602 L105.657554,92.9504921 C105.198641,93.0191296 104.913531,93.3077024 105.023646,93.592585 C105.134357,93.8767296 105.599817,94.0538587 106.05873,93.9852211"/>
    <path fill="#F4A891" d="M104.500705 97.6917615L108.785682 92.5227394C109.098345 92.1451229 109.064994 91.5628054 108.711238 91.2290535 108.358077 90.8953016 107.812554 90.9302661 107.499295 91.3078825L103.214318 96.4775403C102.901655 96.8551567 102.935006 97.4374743 103.288762 97.7712262 103.642518 98.1049781 104.188041 98.0693779 104.500705 97.6917615M110.095677 94.9837226L115.31926 94.15575C115.794355 94.0801472 116.089518 93.7622902 115.97552 93.4493109 115.860905 93.1355186 115.379032 92.9412275 114.903937 93.0160174L109.68097 93.84399C109.205259 93.9195928 108.910096 94.2374498 109.02471 94.5508356 109.138708 94.8642214 109.620582 95.0593255 110.095677 94.9837226M108.101348 98.9848725L114.315737 98.0741078C114.793291 98.0038456 115.089981 97.7084421 114.975393 97.4175715 114.860805 97.1259455 114.375819 96.9453792 113.898265 97.0148859L107.683876 97.9256505C107.206323 97.9959128 106.909632 98.2913163 107.02484 98.5825646 107.139428 98.8738128 107.623795 99.0551347 108.101348 98.9848725"/>
    <path fill="#F4A891" d="M109.893531,92 C109.828624,92.0129858 109.081631,92.0625679 108.27144,92.1139209 C106.873105,92.2018702 105.514625,92.6339432 104.308732,93.3741338 L102,94.7913568 C102,94.7913568 103.690413,98.9102165 103.882855,98.9302855 C108.576044,99.4255167 110,97.1199469 110,97.1199469 L109.893531,92 Z"/>
    <path fill="#F4A891" d="M68,75.0531374 C68,75.0531374 70.5060754,82.8352344 73.1088331,89.1863039 C73.8339502,90.9497028 74.5637834,92.601524 75.2476337,93.9487206 C75.4480726,94.3377664 75.6520486,94.7185472 75.8689942,95.0839787 C78.5442636,99.7023481 82.2924704,102.381982 87.7874431,101.955744 C87.8375528,101.951611 104,99.9514791 104,99.9514791 L103.331477,94.3389471 L86.6761864,95.018449 C84.8675204,95.1819781 82.3272525,92.5472111 81.2525464,90.7838122 C81.1682442,90.6474396 81.0939639,90.5146091 81.029116,90.3906339 C80.5268398,89.4259892 79.9838863,88.2381893 79.4173517,86.914607 C76.0287558,78.9613063 71.898536,66 71.898536,66 L68,75.0531374 Z"/>
    <path fill="#E48867" d="M79.1971913,87 L73,89.2517407 C73.7123208,90.9986094 74.4298538,92.6354944 75.1010569,93.9705093 C75.2979586,94.3560373 81,90.8342189 81,90.8342189 L79.1971913,87 Z"/>
    <path fill="#061D48" d="M67.0246242,68.8873206 C67.0912122,69.6787754 68.1041193,73.2011649 68.3487025,73.9801606 L73.6783096,91 L76.048589,90.2601618 L83,88.0904838 L75.2348059,62.8410563 C74.9402817,62.0098507 72.8318727,61.8283026 72.0398588,62.1492749 C71.8650651,62.2127574 71.7037171,62.3118376 71.5596563,62.4471087 C68.9172622,64.8867357 66.7429054,65.519781 67.0246242,68.8873206"/>
    <path fill="#FFF" d="M80.4300575,87.0844854 L72.774395,90.3567255 C72.1631413,90.6178309 71.8498661,91.39483 72.0707496,92.0988319 C72.2971398,92.8154679 72.9903836,93.1811558 73.6114272,92.9109258 L81.2493456,89.5832359 C81.8018602,89.3424855 82.1096286,88.6651557 81.9640046,88.0074789 C81.793906,87.2374988 81.0792469,86.8072364 80.4300575,87.0844854"/>
    <path fill="#F4A891" d="M64.3949534,59.9816679 L63.0046747,59.8520899 C61.1995688,59.6835777 59.8526821,57.9923721 60.0129431,56.0937201 L60.9351671,45.1592852 C61.0948495,43.2612415 62.7038237,41.8456172 64.5089296,42.0135211 L65.8992083,42.1430991 C67.7048927,42.3116113 70.1527783,44.4262266 69.9925173,46.3248787 L69.0708719,57.2593136 C68.9106109,59.1579656 66.2006378,60.1495718 64.3949534,59.9816679"/>
    <path fill="#DB734C" d="M85.8075451,34.4863511 C85.7717101,34.7077605 85.7316235,34.9285666 85.6866779,35.1487694 C85.4649867,36.2075527 85.1376127,37.2265185 84.713059,38.183345 C82.900658,42.2809269 69.4358063,28.3188628 65.1939134,29.5640644 C63.0869365,30.184252 64.0101435,46.3610133 59.8951915,44.9076748 C55.3398941,43.2986861 54.6936493,32.7180925 55.1042334,29.5296766 C56.1404117,21.488353 64.4936124,16.1926265 72.519439,17.1011892 C72.7484186,17.1283375 72.9767908,17.1597089 73.2039483,17.1959066 C78.254862,17.9982894 82.3206168,21.1842921 84.4300232,25.4182188 L84.4336674,25.4236485 C85.050151,26.6664369 85.4977849,28.0027361 85.7547036,29.3927285 C86.0559606,31.0306754 86.0869367,32.7506704 85.8075451,34.4863511"/>
    <path fill="#FFC4BC" d="M65.9733241,34.5156478 C65.9254442,34.8506786 65.8210905,35.167062 65.6596493,35.4511234 C65.4761097,35.7929915 65.2090872,36.1497776 64.8978679,36.3878421 C64.3349722,36.8148665 63.6081799,37.0846316 62.85622,36.9758553 L61.2405804,36.743385 L60,36.5680999 L60.5125604,32.8411154 L60.5168573,32.8411154 L60.6089341,32.1517849 L60.6825955,31.6166058 L60.7531876,31.126802 L60.7685337,31 L60.7728306,31.0006216 L63.6247537,31.4077555 C64.3460214,31.5096943 64.9610939,31.8863709 65.3864884,32.4153342 C65.6436894,32.7366902 65.8278428,33.1208257 65.9236026,33.5285812 C66.0046301,33.8480725 66.021204,34.1756444 65.9733241,34.5156478"/>
    <path fill="#FFC7B0" d="M60.0477379,38.1088225 C60.0314165,38.2439615 60.0238387,38.3750579 60.016261,38.511352 C60.0121806,38.5535107 60.0127635,38.596247 60.0133464,38.6389833 C59.9311567,40.3287986 60.2313532,41.971835 60.8369924,43.4791549 C60.8649718,43.5542322 60.8970317,43.6298869 60.9290915,43.7049641 C61.9322724,46.0537266 63.6868189,48.0502036 65.9414986,49.3611676 C65.945579,49.3657877 65.9496593,49.3663653 65.9496593,49.3663653 C66.8211035,49.8734254 67.77124,50.2771099 68.7790842,50.5531631 C69.1492294,50.6542286 69.5199575,50.7420112 69.9011779,50.8142009 C70.0538992,50.8396116 70.2066206,50.8621348 70.3640051,50.884658 C70.9253434,50.9591577 71.4767723,51.0036265 72.0282013,50.9966963 C72.1826713,51.0013164 72.3418046,51.0024715 72.4980233,50.9909211 C77.6579057,50.8130458 82.1596874,47.3658457 83.5778972,42.4829377 C83.7282869,41.9631723 83.8495314,41.4191511 83.9247262,40.8670446 L84.0430561,40.0290672 L84.8369738,34.4306154 C84.959384,33.5880178 85.0205892,32.7621682 84.9937755,31.9536442 C84.9768712,31.3253054 84.8987618,30.7038969 84.7472063,30.0940388 C84.3566594,28.4943161 83.7562664,27.0256899 82.7571658,25.7308963 C80.8947817,23.3070566 78.0659398,21.5779701 74.7795167,21.118844 C72.3225687,20.7752212 69.9262429,21.1916111 67.8277819,22.1757004 C67.5264196,22.3200797 67.2279718,22.4771644 66.9376847,22.6434894 C65.4856663,23.4756917 64.2178461,24.6053153 63.2321524,25.9520854 C63.2321524,25.9520854 63.2274891,25.9555505 63.2274891,25.9595931 C62.9675131,26.3124561 62.7226927,26.6878423 62.5081833,27.0695812 C62.4673799,27.1383057 62.4312398,27.2035652 62.3945167,27.28153 C62.1333749,27.7446988 61.8920519,28.2309683 61.6874519,28.7334082 C61.3866725,29.4489521 61.1558418,30.2049221 61.037512,30.9966982 L61.0182761,31.1145117 L60.9518248,31.5690177 L60.8812932,32.06626 L60.789777,32.7021064 L60.789777,32.7061491 L60.7821992,32.7396451 L60.7682095,32.8493733 L60.7244915,33.1439071 L60.3030506,36.1695197 L60.1579071,37.1674694 L60.1066114,37.5468982 L60.0990336,37.6312157 C60.0763003,37.7917655 60.0535669,37.9517378 60.0477379,38.1088225"/>
    <path fill="#FFC4BC" d="M59.0320133,36.4439978 C58.8063892,37.8538568 59.7948781,39.2482228 61.3189049,39.7196513 C61.4593878,39.7631791 61.6058306,39.8015426 61.7607875,39.8295775 C61.8271976,39.8517103 61.9080817,39.8576124 61.9889658,39.8694165 L63.0506761,40 L63.3665498,38.0788735 L63.4355141,37.6487595 L64,34.161369 L62.9323298,34.0307855 C62.8327147,34.0167681 62.7458707,34.010866 62.651364,34.0086527 L62.6454041,34.0086527 C62.5083269,33.9975863 62.3695468,33.9983241 62.2367266,34.0042262 C62.2367266,34.0042262 62.2316181,33.9983241 62.2307667,34.0034884 C61.5436775,34.0219324 60.8957533,34.2063724 60.3704323,34.5472174 C59.6637607,35.0053662 59.1648335,35.6420529 59.0320133,36.4439978"/>
    <path fill="#F4A891" d="M60.6679332,38.8901503 L60.6667084,38.9031807 C60.6422123,39.0756786 60.6183287,39.247556 60.6128171,39.4169514 C60.5956699,39.5621474 60.5877087,39.703 60.5791351,39.8488166 C60.5754607,39.8947333 60.5760731,39.9400295 60.5766855,39.9865667 C60.5981195,39.9971151 60.6207783,39.9989766 60.6422123,40.0058021 C60.5430035,41.8164093 60.828382,43.5693105 61.4420069,45.1869435 C61.4714021,45.267608 61.5044717,45.3482725 61.5381537,45.4295575 C62.5780092,48.0201282 64.4470544,50.2272324 66.8678721,51.6636806 C66.8715465,51.6686446 66.8764457,51.6692651 66.8764457,51.6692651 C68.9157381,53.1721063 69.0712878,52.9934035 69.0712878,52.9934035 C69.0712878,52.9934035 70.1197168,52.9505893 69.9886632,52.8469665 C69.1637602,52.1954457 66.6915009,50.2520522 66.0117367,45.8862425 C65.6712422,43.7014761 65.5383514,40.3445929 65.8310787,37.3103675 L65.8506755,37.0826455 C65.9860159,35.6927345 66.1636119,34.3890724 66.3179368,33.3441572 C66.319774,33.3261628 66.3216112,33.3032044 66.3277352,33.2858305 C66.5396256,31.8431774 66.7166093,30.9056079 66.7166093,30.9056079 C65.9223263,28.6668584 64.1788231,28.6935398 62.3985759,29.5001845 C62.0997247,30.2249238 61.8664002,30.9875134 61.7371838,31.7873327 C61.7279978,31.8369724 61.7243234,31.8822686 61.7151374,31.9319083 L61.7108506,31.9312878 L61.6955406,32.0584895 L61.625727,32.5468198 L61.5516265,33.0810669 L61.4554797,33.7642329 L61.4554797,33.7691969 C61.4285341,33.7667149 61.3966893,33.7636124 61.3697437,33.7654739 L61.3238137,34.0825474 C60.8296068,34.0974393 60.3635703,34.2525633 59.9857194,34.5392324 C59.4774273,34.9245604 59.1185608,35.460669 59.0230264,36.1351481 C58.8607404,37.3209159 59.5717369,38.4936533 60.6679332,38.8901503"/>
    <path fill="#DB734C" d="M81.8643821,23.272035 C81.9641354,24.2926956 83.0535621,24.901362 82.997942,25.8152093 C82.8468007,28.2877398 79.6250723,28.2295294 78.765985,28.1583205 C78.765985,28.1583205 67.4557774,26.5453829 64.2685092,31.4124533 L62.7371453,33.5668045 C62.5116424,33.8832884 62.1059791,34.0488773 61.7045478,33.9872759 C61.697293,33.9861456 61.6894336,33.9850153 61.6821788,33.983885 C61.1961083,33.9075898 60.8345783,33.5283743 60.8152322,33.0677772 C60.7197109,30.826958 59.9549358,24.3492106 60.0020919,23.8524439 C60.0782671,23.0448447 60.9742329,22.1767746 61.5920986,21.6890503 C62.2093598,21.2058472 63.0291503,20.9402267 63.8888422,21.0114356 L79.1934126,22.280197 C80.7344496,22.4079209 81.7235184,21.831468 81.8643821,23.272035"/>
    <path fill="#DB734C" d="M81.003058,27.4563058 C81.003058,27.4563058 84.7667669,27.6309524 85.8865932,32 C85.8865932,32 87.1381281,27.7600641 81.3259564,22.801368 C75.5137847,17.8420956 64.1607489,20.6110803 63.0943343,22.4365122 C62.0273128,24.2619441 62,25.750187 62,25.750187 L81.003058,27.4563058 Z"/>
    <path fill="#061D48" d="M47.3504376,76.1081342 L44,114.755569 L44.0354932,114.758563 L52.2638008,115.12267 L71.9068504,116 L72.1412281,113.314113 L72.550624,94.3158758 L75.603041,79.130581 C75.9812274,77.2513581 76.0926026,75.3290173 75.92248,73.421648 C75.1514203,64.7633291 73.6729441,54.9348376 65.3118429,55.7630611 L60.3164782,55.3294864 C59.437103,55.2534312 58.8380019,54.9414251 57.9916722,55.0096951 C56.6980055,55.1186877 54.6785637,56.3846779 53.7080077,57.1805629 C47.6949666,62.106187 48.3974876,67.2917163 47.3504376,76.1081342"/>
    <path fill="#4D6199" d="M64.4145981,91 C64.4145981,91 62.3188849,79.7959032 61.5090223,74.491133 C59.5479759,61.6385207 59,55.5198663 59,55.5198663 L67.3580294,55 L72,56.1831849 C72,56.1831849 71.7064636,63.052889 69.5269715,73.7762428 C68.6370537,78.1539082 64.4145981,91 64.4145981,91"/>
    <polyline stroke="#FFF" stroke-width=".736" points="66 55 64 91 20.528 .105"/>
    <path fill="#FFF" d="M59 56.4103161L63.8781341 57.9485271C65.3341108 58.2571105 66.7317784 57.1464791 67 55.4677586L60.1696793 54.0182906C59.6005831 53.8979498 59.0705539 54.3860359 59.0472303 55.0529526L59 56.4103161zM72.9296007 57L70.6674243 56.851322C68.8480661 56.9099896 67.1047836 56.2891586 67 55.2705137L67.4485597 55.2705137 71.5042573 55.0008842C72.3375019 54.9791853 73.0264896 55.3597205 72.9992172 55.8266496L72.9296007 57z"/>
    <path fill="#FFF" d="M64.0044497 57.4705766C63.9679226 57.7462848 64.1602984 57.9827618 64.4338455 57.9991082 64.7082042 58.0154545 64.9590233 57.8051316 64.9955503 57.5294234 65.0320774 57.2542601 64.8397016 57.0172382 64.5661545 57.0008918 64.2917958 56.9845455 64.0409767 57.1948684 64.0044497 57.4705766M64.0044497 62.4705766C63.9679226 62.7462848 64.1602984 62.982217 64.4338455 62.9991082 64.7082042 63.0154545 64.9590233 62.8051316 64.9955503 62.5294234 65.0320774 62.2542601 64.8397016 62.0172382 64.5661545 62.0008918 64.2917958 61.9845455 64.0409767 62.1948684 64.0044497 62.4705766M64.0044497 65.4700893C63.9679226 65.7457971 64.1602984 65.9822737 64.4338455 65.9991649 64.7082042 66.0149663 64.9590233 65.8046438 64.9955503 65.528936 65.0320774 65.2537732 64.8397016 65.0167517 64.5661545 65.0009503 64.2917958 64.9840591 64.0409767 65.1943816 64.0044497 65.4700893M64.0044497 67.4705766C63.9679226 67.7462848 64.1602984 67.9827618 64.4338455 67.9991082 64.7082042 68.0154545 64.9590233 67.8051316 64.9955503 67.5294234 65.0320774 67.2542601 64.8397016 67.0172382 64.5661545 67.0008918 64.2917958 66.9845455 64.0409767 67.1948684 64.0044497 67.4705766"/>
    <path fill="#F4A891" d="M13.7865483,157.836406 C30.1507103,158.90419 41.2978064,158.965273 46.9693637,157.536862 C47.9772833,156.772733 49.7754614,145.027698 45.6776189,132.129714 C44.9875341,129.958906 56.9644633,131.430779 57.3354767,132.30063 C63.1059709,145.831179 58.4027584,162.669626 53.6185413,165.111785 C44.4860477,169.770565 30.7894717,167.98094 13,165.408391 L13.7865483,157.836406 Z"/>
    <path fill="#07113D" d="M14.0698775,165.841429 L6.38412888,169.286652 C5.17529366,169.87492 4.36511687,170.98383 4.22430043,172.240556 C4.11434786,173.243543 3.19936248,174.005358 2.11012479,173.999972 L2.10562381,173.999972 C0.876855673,173.993389 -0.0869975119,173.025112 0.00623711915,171.891665 L0.227428244,168.74267 C0.341881791,167.108328 1.11926571,165.574525 2.40397463,164.447661 L11.5345385,156.440524 C12.1408851,156.070687 12.8771172,155.925865 13.5934163,156.035978 C15.2169849,156.286724 16.2837177,157.743329 15.9332841,159.231651 L14.0698775,165.841429 Z"/>
    <polygon fill="#07113D" points="1 156.461 1.138 158 14 157.539 13.862 156"/>
    <path fill="#4D6199" d="M15.0704268,165.841426 L7.38377837,169.286651 C6.17554579,169.875517 5.36534192,170.984428 5.22387776,172.240555 C5.11456454,173.243542 4.19890557,174.005358 3.1102745,173.999972 L3.10513035,173.999972 C1.87696418,173.993389 0.912435766,173.025111 1.00631653,171.891664 L1.16449919,169.635542 C1.31946675,167.427295 2.3701597,165.354894 4.10631084,163.83246 L12.5343601,156.441116 C13.14137,156.070681 13.8769836,155.925858 14.5939497,156.035971 C16.2175726,156.286718 17.283698,157.743323 16.9332526,159.232245 L15.0704268,165.841426 Z"/>
    <path stroke="#07113D" stroke-linecap="round" stroke-width=".811" d="M8 168L7 167M11 166L10 165M12 166L11 165"/>
    <path fill="#FFC7B0" d="M64,135.365938 C64.5697835,135.706549 72.1300548,145.864453 76.434874,159.479409 C76.1617337,167.210386 78.7495798,180.671919 77.698307,194.616824 L85.7934253,196 C86.2018654,187.598463 87.4932476,171.011603 86.7983277,159.137021 C86.527093,154.503528 79.2253522,137.240186 73.6316916,129.053678 C73.1298756,128.319144 64,135.365938 64,135.365938"/>
    <path fill="#07113D" d="M82.8283404,196.549346 L85.6520504,204.444435 C86.1420962,205.689653 87.1780909,206.588198 88.4121259,206.838644 C89.3969751,207.034922 90.0808981,208.006115 89.9922855,209.081183 L89.9916908,209.086281 C89.8917785,210.298362 88.8587574,211.165681 87.7436655,210.973226 L84.6416285,210.476796 C83.0317332,210.219978 81.5723009,209.316334 80.5547424,207.948761 L73.3241891,198.225356 C73.0036374,197.593188 72.9168089,196.853959 73.0815451,196.155515 C73.4538371,194.573184 74.9774987,193.648511 76.4256314,194.125823 L82.8283404,196.549346 Z"/>
    <polygon fill="#07113D" points="73 207.941 74.758 208 75 196.059 73.242 196"/>
    <path fill="#4D6199" d="M82.8283404,196.548736 L85.6520504,204.444537 C86.1426909,205.689766 87.1780909,206.587683 88.4121259,206.838131 C89.3969751,207.03441 90.0808981,208.00625 89.9922855,209.080691 L89.9916908,209.085789 C89.8917785,210.29788 88.8587574,211.165208 87.7436655,210.973389 L85.521213,210.617791 C83.3463378,210.26984 81.3736658,209.049465 79.9992779,207.200738 L73.3241891,198.224762 C73.0036374,197.592588 72.9168089,196.853352 73.0815451,196.154902 C73.4538371,194.573193 74.9780934,193.648511 76.4256314,194.125828 L82.8283404,196.548736 Z"/>
    <path stroke="#07113D" stroke-linecap="round" stroke-width=".811" d="M86 201L85 202M85 200L84 201M85 199L84 200"/>
    <path fill="#061D48" d="M65.17,138.0525 L65,138 C65.056,138.1025 65.17,138.0525 65.17,138.0525"/>
    <path fill="#061D48" d="M65.17,138.0525 L65,138 C65.056,138.1025 65.17,138.0525 65.17,138.0525"/>
    <path fill="#07113D" d="M45.8671011,111 C45.9801389,112.087012 42.4959144,125.223834 43.0623125,132.31611 C43.629315,139.407773 43.8505548,152.860694 43.8505548,152.860694 C43.8505548,152.860694 65.4716063,154.567014 84.9642826,146.036028 C85.6660842,145.728522 75.8481151,119.672157 71.1494897,112.155756 L45.8671011,111 Z"/>
    <path fill="#828588" d="M35.0041184,119.104724 C34.9817242,119.51934 35.0501509,119.944054 35.2218398,120.356294 L39.6446953,131.088196 C40.2835522,132.639145 42.1155226,133.399473 43.7391024,132.789429 L62.9968746,125.554438 C64.6210765,124.944395 65.4198032,123.192671 64.778458,121.644692 L64.7299372,121.523515 L60.3549805,110.913384 C59.7167456,109.362435 57.8847753,108.601513 56.2624395,109.209181 L48.8723519,111.984376 L41.4984378,114.757195 L37.0034232,116.445954 C35.8115539,116.897992 35.0657024,117.959481 35.0041184,119.104724"/>
    <path fill="#FFF" d="M52.7075155,118.092679 C52.1797674,118.324915 51.8825488,118.919211 52.0439195,119.420227 C52.2057019,119.921243 52.7643246,120.139536 53.2924845,119.906818 C53.8202326,119.675062 54.1174512,119.080767 53.9560805,118.579751 C53.7942981,118.078735 53.2356754,117.860923 52.7075155,118.092679"/>
    <path fill="#FFC7B0" d="M44.1967166,111.449276 L48.4153361,116.66945 C48.7233819,117.050706 49.287514,117.111262 49.6697877,116.803538 C50.0508243,116.495815 50.1114438,115.931656 49.8027794,115.551018 L45.5847785,110.329608 C45.2767326,109.94897 44.711982,109.889032 44.3303268,110.196755 C43.9492902,110.504479 43.8886707,111.06802 44.1967166,111.449276"/>
    <path fill="#FFC7B0" d="M40.6257304 109.918421L46.893649 111.961707C47.3508851 112.111001 47.833957 111.810378 47.9661409 111.292601 48.0983247 110.776181 47.8315537 110.231259 47.3737168 110.081966L41.106399 108.038001C40.6485622 107.889386 40.166091 108.190009 40.0339072 108.707107 39.9017233 109.224206 40.1678936 109.768449 40.6257304 109.918421M43.2283546 114.456225L47.1603977 118.668426C47.5179867 119.050901 48.1728485 119.11175 48.6158855 118.80254 49.0589225 118.493331 49.1292914 117.927068 48.7717024 117.543972L44.8396593 113.331771C44.4820703 112.948674 43.8264904 112.888447 43.3834535 113.197656 42.9411345 113.506865 42.8707656 114.073749 43.2283546 114.456225M40.2040323 114.504982L44.3579173 119.657121C44.6771018 120.053044 45.2622734 120.115288 45.6577289 119.795726 46.0525434 119.476164 46.1153548 118.890942 45.7961703 118.495018L41.6422854 113.342879C41.3231009 112.946956 40.7379293 112.884712 40.3424738 113.204274 39.9470183 113.523836 39.8848478 114.109058 40.2040323 114.504982"/>
    <path fill="#FFC7B0" d="M48,111.836936 C47.954413,111.784667 47.5322382,111.145757 47.07769,110.451797 C46.2928016,109.253493 45.1795549,108.229791 43.831106,107.465212 L41.2491666,106 C41.2491666,106 37.9259436,109.156739 38.0012612,109.334121 C39.8366316,113.674706 42.8770833,114 42.8770833,114 L48,111.836936 Z"/>
    <path fill="#FFC7B0" d="M45.907292,67.3598256 C45.907292,67.3598256 39.8086063,73.0163557 35.0755327,78.1414877 C33.7631419,79.5658967 32.5559844,80.9480083 31.6100954,82.1549731 C31.3379407,82.5064583 31.0754625,82.8573479 30.8329424,83.2130033 C27.7358212,87.6542284 26.9054468,92.2366433 29.7177127,97.0680766 C29.7437186,97.1115654 38.7066819,111 38.7066819,111 L43.6060723,107.95995 L35.6482672,93.0504211 C34.7011687,91.4705245 36.0220264,88.0110753 37.1814057,86.2667551 C37.2703096,86.1309269 37.3598183,86.005822 37.446303,85.8926318 C38.1182229,85.0163016 38.9782319,84.0071218 39.9537555,82.9163259 C45.8226216,76.3810826 56,67 56,67 L45.907292,67.3598256 Z"/>
    <path fill="#E48867" d="M39,83.7014663 L34.327887,79 C33.0709461,80.4029326 31.9147922,81.7630499 31.008868,82.9519062 C30.7476328,83.2979472 36.3447848,87 36.3447848,87 L39,83.7014663 Z"/>
    <path fill="#061D48" d="M53.1728375,60.3898969 C52.5110154,60.8171445 34,79.8234735 34,79.8234735 L35.6801456,81.3939766 L40.6076313,86 L58.6127205,66.9730453 C59.2092428,66.3430761 59.0845261,65.3707196 58.4585895,64.8804162 C58.3274017,64.7696265 58.1703293,64.6853556 57.9891371,64.6329072 C54.7070881,63.6434608 55.9883755,58.5724742 53.1728375,60.3898969"/>
    <path fill="#FFF" d="M38.6568728,85.0089049 L32.9610478,79.3346494 C32.5067139,78.8821239 31.7812068,78.8894424 31.3346037,79.351116 C30.8802698,79.8213278 30.8897846,80.5824489 31.3560121,81.0404633 L37.0863285,86.6775166 C37.500819,87.0849115 38.1478285,87.1093064 38.5902689,86.7336249 C39.108828,86.2939066 39.1397513,85.4894846 38.6568728,85.0089049"/>
    <path fill="#F4A891" d="M135.139493,116.833676 L139.552389,125.309854 C139.875268,125.929096 140.657798,126.178377 141.292316,125.863881 C141.929332,125.548165 142.182889,124.788131 141.859385,124.166451 L137.445865,115.689663 C137.12361,115.070421 136.34108,114.82175 135.706562,115.136246 C135.072669,115.450743 134.817238,116.214434 135.139493,116.833676"/>
    <path stroke="#07113D" stroke-width="4.35" d="M131.646008,132 L131.157398,130.402047 C130.562266,128.457348 131.706795,126.413337 133.713338,125.837109 L139.576659,124.15275 C141.583782,123.5754 143.692794,124.685214 144.287347,126.629914 L145,128.958952"/>
    <path fill="#6D322E" d="M157.554571,124 L170,165.548147 L130.96153,177 L120.253908,141.252771 C119.293827,138.049359 121.140323,134.682221 124.377427,133.732731 L157.554571,124 Z"/>
    <polygon fill="#542221" points="162.916 142 123 154.223 124.084 158 164 145.777"/>
    <path fill="#542221" d="M142.785523,153.874255 C141.147697,154.349762 139.427005,153.435143 138.941384,151.831429 L138,148.720652 L143.929808,147 L144.871801,150.11018 C145.356812,151.713894 144.423349,153.398749 142.785523,153.874255"/>
    <path fill="#929498" d="M142.785523,155.874255 C141.147697,156.349762 139.427005,155.435143 138.941384,153.831429 L138,150.720652 L143.929808,149 L144.871801,152.11018 C145.356812,153.713894 144.423349,155.398749 142.785523,155.874255"/>
    <path fill="#B7B9BD" d="M142.101872,154.892498 C140.697876,155.299528 139.222991,154.515119 138.80661,153.141057 L138,150.475146 L143.082605,149 L143.889903,151.665911 C144.306284,153.040647 143.50518,154.484794 142.101872,154.892498"/>
    <path fill="#542221" d="M163,146.159532 L156.905419,148 L152.263742,132.049892 C151.266117,128.620265 153.185789,125.016939 156.551715,124 L163,146.159532 Z"/>
    <path fill="#893836" d="M170,165.389082 L164.341451,167 L153.244952,131.046499 C152.318432,128.044903 154.101254,124.889914 157.226319,124 L170,165.389082 Z"/>
    <path fill="#FFC7B0" d="M133.116339,124.765688 C133.198737,124.711608 139.047821,123.621277 138.999705,122.480355 C138.919111,120.581143 138.516742,118.444676 137.882214,116.576867 L136.666687,113 C136.666687,113 131.23561,114.374108 130.949321,114.435748 C126.971343,115.301616 130.31359,122.10121 130.31359,122.10121 C130.31359,122.10121 131.277712,125.976392 133.116339,124.765688"/>
    <path fill="#FFC7B0" d="M135.062158,117.545397 L138.208305,126.154338 C138.437755,126.783444 139.239795,127.140129 139.990847,126.947935 C140.741209,126.755163 141.167724,126.083347 140.937585,125.454818 L137.791437,116.845301 C137.561988,116.216772 136.759947,115.859509 136.009585,116.052281 C135.258533,116.244476 134.832708,116.916292 135.062158,117.545397"/>
    <path fill="#FFC7B0" d="M134.057771 119.66083L136.405537 127.091485C136.619436 127.766435 137.36488 128.151057 138.062293 127.943858 138.759706 127.737278 139.155483 127.01456 138.942225 126.33899L136.594459 118.908955C136.381201 118.232764 135.635116 117.849383 134.938344 118.055962 134.24029 118.263162 133.844513 118.985259 134.057771 119.66083M129.063821 119.607636L132.133582 128.120756C132.369173 128.774688 133.192681 129.145789 133.963835 128.945827 134.734282 128.745864 135.172213 128.046896 134.935914 127.392364L131.866154 118.879244C131.630563 118.225312 130.807055 117.854211 130.036608 118.054173 129.265453 118.254736 128.82823 118.953704 129.063821 119.607636"/>
    <polygon fill="#EAECEE" points="139 193.543 137.946 191 128 194.568 128.763 197"/>
  </g>
</svg>
