<svg xmlns="http://www.w3.org/2000/svg" width="222" height="348" viewBox="0 0 222 348">
  <defs>
    <linearGradient id="pi-lead-adv-a" x1="1.301%" x2="98.76%" y1="50%" y2="50%">
      <stop offset="0%" stop-color="#43CEA2"/>
      <stop offset="100%" stop-color="#185A9D"/>
    </linearGradient>
  </defs>
  <g fill="none" fill-rule="evenodd">
    <path fill="#FFC7B0" d="M69.6028499,236.842398 C69.6951207,236.812934 75.8256443,237.475547 76.1321383,236.2852 C76.6425313,234.303253 76.9290225,231.975595 76.9206342,229.850256 L77,224.744467 C77,224.744467 72.56713,223.037517 72.2851556,223.010672 C68.3646144,222.639426 68.0574753,232.077082 68.0574753,232.077082 C68.0574753,232.077082 67.541275,237.505666 69.6028499,236.842398"/>
    <path fill="#FFC7B0" d="M73.1629979 234.347286L73.000153 244.618998C72.9887387 245.369345 73.6172895 245.990568 74.3965098 245.999894 75.1764911 246.009219 75.8248268 245.40306 75.8370021 244.652714L75.999847 234.381002C76.0112613 233.630655 75.3827105 233.009432 74.6034902 233.000106 73.8227479 232.990781 73.1751732 233.59694 73.1629979 234.347286M70.1324487 235.350907L70.0001547 243.616024C69.9886174 244.367986 70.6239365 244.990548 71.4123167 244.999894 72.200697 245.009239 72.856014 244.401774 72.8683204 243.649812L72.9998453 235.383976C73.0113826 234.632014 72.3760635 234.009452 71.5884524 234.000106 70.799303 233.990761 70.1447552 234.598944 70.1324487 235.350907"/>
    <path fill="#FFC7B0" d="M68.1557837 230.402223L68.0001536 240.562687C67.9887102 241.343629 68.6180965 241.990184 69.4008241 241.99989 70.1827888 242.009595 70.8327731 241.377973 70.8442165 240.59703L70.9998466 230.437313C71.01129 229.656371 70.3811408 229.009816 69.599939 229.000111 68.8172114 228.990405 68.1679899 229.621281 68.1557837 230.402223M74.0566174 225.863998L76.7496153 236.024878C76.9457735 236.766608 77.6010779 237.1737 78.2037847 236.928698 78.8095855 236.683695 79.1406411 235.880715 78.9426265 235.135997L76.2502474 224.975864C76.0540892 224.233387 75.3994036 223.826294 74.7954592 224.071297 74.1927524 224.315552 73.8598404 225.122268 74.0566174 225.863998"/>
    <path fill="#F4B84D" d="M121,182.168365 C120.971484,182.179556 119.681484,182.68517 117.629026,183.602911 C116.305078,184.186209 114.659309,184.942654 112.824793,185.831428 C112.033819,186.220513 111.21433,186.631982 110.359535,187.071102 C110.056045,187.227131 109.752556,187.388427 109.442956,187.549723 C101.468038,191.729591 94.4395737,195.832432 90.9599677,199.67325 C85.2846455,205.932848 81.2089237,215.149757 79.1333812,220.575225 C78.9731495,220.997228 78.8176706,221.40343 78.6859548,221.775398 C77.9574441,223.72675 77.5853809,224.955232 77.5677282,225 L76.5017806,224.793936 L69.0897107,223.348857 L68,223.137526 C68.0631421,222.897886 68.4297738,220.986036 69.2098845,218.117602 C69.9723425,215.299203 71.1245164,211.553188 72.7580641,207.560949 C72.7580641,207.550416 72.7641746,207.539224 72.7696062,207.528032 C74.9884067,202.102564 78.0844073,196.227443 82.2857344,191.595946 C90.2375676,182.835932 106.658592,173.069958 113.870372,169.84009 C113.968141,169.795981 114.06523,169.75648 114.162999,169.71237 C116.472778,168.684026 117.986152,168.088877 118.221068,168 L118.502152,168.678101 L121,182.168365 Z"/>
    <polygon fill="#FFF" points="81 221.878 80.42 221.742 69.641 219.179 68.898 219.003 68.887 219 68 224.651 69.315 224.92 75.779 226.251 76.936 226.487 77.557 226.614 79.425 227"/>
    <path fill="#DB734C" d="M69.0307932,221.345632 C69.1260462,221.082881 69.4131281,220.939524 69.6719869,221.024445 C69.9312867,221.109787 70.0644644,221.391876 69.9692115,221.654626 C69.8739585,221.916956 69.5868766,222.060733 69.3275768,221.975392 C69.068718,221.890051 68.9355402,221.607962 69.0307932,221.345632"/>
    <path fill="#9995A7" d="M130,336.119064 L138.96303,337 L139.480358,335.867089 L140.101783,334.501085 L140.215974,334.246506 L142.061322,330.203186 L145,323.765778 L137.990831,322.198585 L137.098755,322 C136.944187,322.271508 136.068514,323.989105 135.052784,325.991232 C134.392875,327.29473 133.670508,328.718682 133.045298,329.943398 C133.034573,329.963582 133.024478,329.988975 133.009968,330.016321 C132.999874,330.041714 132.984733,330.06906 132.970222,330.095755 C132.789157,330.455161 132.618817,330.793081 132.46425,331.104957 C131.871215,332.263912 130,336.119064 130,336.119064"/>
    <path fill="#65324E" d="M128,343.45843 L150.98432,347.952117 C152.354321,348.220902 153.683695,347.330925 153.952767,345.964435 C154.159233,344.913188 153.676369,343.846012 152.747938,343.305123 L142.154904,337.128379 L129.665714,335 L128,343.45843 Z"/>
    <path stroke="#07113D" stroke-linecap="round" stroke-width=".844" d="M142 340L145 337M143 342L146 339M145 342L148 339"/>
    <path fill="#591239" d="M130,328.658979 L133.276559,330.49573 L134.010282,330.907736 L141.121802,334.887583 L143.105546,336 C143.105546,336 143.95868,334.472254 145.35296,331.998888 C147.608658,327.98515 151.295218,321.47678 155.105331,314.895313 C166.875267,294.578753 168.216399,287.856406 167.975506,283.964276 C167.411582,274.747298 156.506514,249.818263 151.887442,241 L149.09405,241.799425 L134.617691,252.327513 C135.852527,253.800768 152.253958,282.093635 152.625997,284.764366 C152.28847,289.06518 143.28984,306.395358 132.368206,324.720332 C131.586167,326.031443 130.798605,327.343882 130,328.658979"/>
    <polygon fill="#07113D" points="129 329.342 142.413 336 144 331.272 143.798 331.175 130.83 325.104 130.601 325"/>
    <path fill="#07113D" d="M133.090101,329.574969 C133.079559,329.600749 133.064405,329.628511 133.049251,329.655613 L133.777302,330 C133.777302,330 133.792456,329.972898 133.827376,329.910763 C134.02372,329.550512 134.813705,328.112149 135.991765,325.938079 C136.650635,324.715207 137.431396,323.262963 138.292539,321.638194 C145.100644,308.823149 157.083515,285.371094 155.921268,281.106904 C154.414432,275.578197 136.221052,253.048915 136.190085,253 L135.337507,253.060813 C135.337507,253.060813 151.242631,281.354783 151.597762,284.011392 C151.275575,288.289463 142.685226,305.528003 132.259924,323.756078 L132.04118,323.631147 L130,327.673898 L133.090101,329.574969 Z"/>
    <path fill="#F4A891" d="M135.556393,175.63423 L132.726445,175.98812 C130.129161,176.312404 126.992612,169.912095 126.673124,167.276512 L125.035661,153.771557 C124.716172,151.135973 126.579516,148.713825 129.1768,148.389541 L132.006748,148.03634 C134.603355,147.711367 136.989682,149.602681 137.30917,152.238953 L138.946633,165.743219 C139.266122,168.379491 138.153,175.309946 135.556393,175.63423"/>
    <path fill="#07113D" d="M153.97181,133.403953 C153.98675,133.691957 153.996257,133.980637 153.999652,134.269318 C154.007801,135.659987 153.872666,137.029021 153.598322,138.346675 C152.431679,143.985069 148.799332,148.779056 143.812241,151.479941 C141.33703,152.823961 138.525679,153.648086 135.518756,153.804934 C130.652539,154.058459 126.713931,156.439565 123.151529,153.677157 C122.003221,152.787454 120.955416,151.780791 120.037992,150.661225 C119.677405,150.220429 119.333796,149.772197 119.013275,149.305712 C117.057552,146.459472 115.222026,139.126179 115.027132,135.43418 C114.479802,125.020729 122.277565,116.093948 132.595358,115.090665 C132.889396,115.063622 133.184791,115.041988 133.479508,115.027115 C140.035931,114.685025 145.998847,117.604956 149.790775,122.365816 L149.797566,122.371901 C150.906487,123.770006 151.830023,125.331719 152.528107,127.011069 C153.349103,128.990591 153.852973,131.145891 153.97181,133.403953"/>
    <path fill="#FFC4BC" d="M129.990923,139.502469 C130.022517,139.966808 129.97182,140.422216 129.835895,140.850836 C129.686011,141.363542 129.42812,141.920897 129.078389,142.331657 C128.442847,143.069092 127.543538,143.643561 126.502425,143.716486 L124.265173,143.874986 L122.548843,144 L122.178539,138.842425 L122.185152,138.841681 L122.112414,137.888448 L122.060248,137.148038 L122.015429,136.470134 L122,136.294519 L122.006613,136.293775 L125.954317,136.010261 C126.951345,135.936592 127.885187,136.264009 128.605957,136.851129 C129.043122,137.208312 129.399466,137.670418 129.644131,138.190566 C129.843243,138.596117 129.958595,139.031434 129.990923,139.502469"/>
    <path fill="#FFC7B0" d="M154.328083,135.575353 L154.875658,143.073469 L154.958375,144.196046 C155.016482,144.934618 155.010329,145.675197 154.961109,146.392362 C154.48258,153.131835 149.538003,158.855102 142.796206,160.509531 C142.593856,160.567734 142.383987,160.61055 142.179586,160.646675 C141.454956,160.807235 140.716653,160.902232 139.956475,160.959766 C139.218856,161.013955 138.497643,161.01061 137.776431,160.966456 C136.370238,160.884838 135.005062,160.622592 133.714399,160.203131 C133.714399,160.203131 133.708247,160.2038 133.702094,160.199117 C128.075954,158.378107 123.7562,153.628231 122.816232,147.725003 C122.788203,147.54705 122.760175,147.37378 122.743769,147.19382 C122.70617,146.987769 122.69113,146.773021 122.675407,146.558273 L122.661735,146.446551 L122.620718,145.939451 L122.527747,144.601458 L122.183889,140.010133 L122.183889,139.964641 L122.183205,139.95862 L122.122364,139.106987 L122.073144,138.441336 L122.031443,137.83188 L122.02324,137.673327 C121.954195,136.611629 122.043065,135.56465 122.235844,134.551788 C122.361629,133.841983 122.541419,133.142881 122.753339,132.468533 C122.78,132.357479 122.808712,132.262482 122.842209,132.162132 C123.01653,131.605527 123.231869,131.050929 123.473184,130.520414 C123.472501,130.515731 123.47797,130.509041 123.47797,130.509041 C124.392645,128.486664 125.740047,126.668331 127.4149,125.185834 C127.749187,124.889469 128.097147,124.602469 128.452626,124.332194 C130.934826,122.473721 133.971438,121.271534 137.304054,121.04073 C141.759847,120.731654 145.975009,122.199433 149.116213,124.837287 C150.79927,126.245525 152.007215,127.989599 152.975895,129.961133 C153.349832,130.713085 153.62943,131.499156 153.829729,132.311987 C154.094971,133.355622 154.250151,134.446756 154.328083,135.575353"/>
    <path fill="#FFC4BC" d="M124.394972,140 L124.75828,144.717421 L125,147.901918 L123.65525,147.992768 C123.55696,147.998192 123.458671,148.003616 123.364749,147.996836 C121.104084,148.00226 119.176877,146.302551 119.011604,144.210288 C118.923507,143.124834 119.342877,142.165485 120.070222,141.38987 C120.721846,140.697647 121.642858,140.263736 122.690554,140.132207 L122.697107,140.131529 C122.817239,140.105766 122.921353,140.09424 123.045126,140.091528 L124.394972,140 Z"/>
    <path fill="#F4A891" d="M139,161.889784 C139,161.889784 136.266863,162.427201 133.425873,161.128613 C133.425873,161.128613 133.420612,161.129289 133.414693,161.123881 C128.001688,159.284497 123.84674,154.484251 122.94249,148.51994 C120.901186,148.525348 119.159765,146.830627 119.010482,144.744504 C118.930908,143.662234 119.309706,142.7057 119.966685,141.932361 C120.55527,141.24217 121.38718,140.808856 122.333519,140.678389 L122.332861,140.672305 L122.274331,139.811087 L122.227639,139.138471 L122.187523,138.522639 L122.173713,138.363104 L122.179632,138.362428 C122.112553,137.289622 122.198703,136.232365 122.383499,135.208231 C124.324184,133.749432 126.418757,133.254604 127.946446,135.7808 C127.946446,135.7808 127.970779,137.009084 128.086523,138.868748 C128.169385,140.2613 128.299597,142.004693 128.509383,143.847457 C128.929613,147.636414 129.656301,151.839755 130.911729,154.286184 C133.585021,159.509603 139,161.889784 139,161.889784"/>
    <path fill="#07113D" d="M148.284597,127.137833 C148.284597,127.137833 140.892903,132.943817 131.808169,134.720955 C125.893728,135.878425 123.380294,145.538203 123.41083,144.976441 C123.441366,144.415344 120.070894,139.549846 120.10143,138.988749 C120.131966,138.426987 117.742711,118.980303 134.515675,120.041927 C151.289318,121.104216 153,131.886187 153,131.886187 L148.284597,127.137833 Z"/>
    <path fill="#07113D" d="M143,119 L157,126.334378 C157,126.334378 154.564556,128.012411 150.975007,126.03983 C147.38615,124.066612 143,119 143,119"/>
    <path fill="#F4B84D" d="M149.892105,233.68039 C149.859728,236.044156 149.837713,237.444955 149.837713,237.444955 L149.777493,237.444955 C149.225803,237.484274 144.534498,237.804818 138.612898,238.204666 C136.754507,238.328619 134.764021,238.4639 132.746338,238.598516 C131.220774,238.705142 129.673193,238.806436 128.148276,238.908398 L128.104892,238.908398 C121.767583,239.335568 115.813607,239.735416 113.085592,239.910016 L113.047388,239.915347 L112.838886,239.920678 C112.002933,239.971326 111.527004,240.005313 111.515996,239.999315 L111.511463,239.965994 L111.505635,239.848039 L111.319796,236.415348 L111.313969,236.246746 L111.259577,235.227801 L109.236714,197.465529 C108.962812,193.217148 108.962812,189.992377 109.056055,186.942873 C109.078071,186.369092 109.099439,185.795311 109.121455,185.226861 C109.132463,184.934972 109.148651,184.64175 109.165487,184.343197 C109.208871,183.386895 109.258082,182.424595 109.301467,181.428975 C109.400538,179.437068 109.493133,177.31521 109.542993,174.844818 C109.564361,173.905176 109.903663,173.004853 110.461181,172.166506 C110.553776,172.03189 110.6522,171.891277 110.756451,171.755996 C113.468278,168.21068 119.974591,165.746286 122.167105,165.087871 L122.172285,165.087871 C122.527775,164.981245 122.768006,164.919268 122.861249,164.913937 L123.036081,163.563119 L125.441629,163.484482 L127.503343,163.411177 L132.495099,172.965535 L136.092091,163.236576 L136.092091,163.231245 L136.119287,163.152608 L136.13677,163.101295 L136.694287,163.084634 L136.699467,163.084634 L137.284181,163.067974 L139.154228,163 C139.154228,163 139.285675,165.617002 139.312871,165.628331 C139.575118,165.746286 139.84902,165.875571 140.116447,166.022181 C140.701808,166.337394 141.298177,166.697257 141.893251,167.119096 C144.157639,168.734481 146.425913,171.11424 147.967666,174.023798 C148.503815,175.014087 148.815274,175.441257 149.149395,176.550168 C149.394807,177.371188 149.308039,179.262468 149.41747,180.134135 C150.121975,185.840627 150.056575,221.774262 149.892105,233.68039"/>
    <path fill="#9995A7" d="M70,276.333333 L71.2210077,276.7332 L72.4800053,277.149701 L73.283791,277.408516 L77.5426553,278.809049 L84.2235404,281 L84.8120501,274.578842 L85,272.516966 C84.6947481,272.387226 82.7772594,271.658683 80.5618502,270.823686 C79.3008531,270.344644 77.9425487,269.833666 76.7348707,269.379907 C76.5189283,269.302728 76.3036524,269.220226 76.0983738,269.144378 C75.8617702,269.053227 75.635164,268.968729 75.4138896,268.885562 C75.3272461,268.856287 75.241269,268.821025 75.1546254,268.791084 C73.8996268,268.318031 73.041189,268 73.041189,268 L70,276.333333 Z"/>
    <path fill="#65324E" d="M67.277574,263 L56.2930309,284.210378 C55.6381896,285.474839 56.1177349,287.039064 57.3642841,287.703315 C58.324718,288.214959 59.4994026,288.054176 60.2919285,287.303402 L69.3347832,278.732183 L75,267.114948 L67.277574,263 Z"/>
    <path fill="#07113D" d="M56.1958412,283.745702 L67.4379629,263 L69,263.767169 L56.9520655,286 C56.089777,285.575762 55.7509223,284.567295 56.1958412,283.745702"/>
    <path stroke="#07113D" stroke-linecap="round" stroke-width=".844" d="M68 277L69 280M66 280L67 283M65 281L66 286"/>
    <path fill="#591239" d="M73,280.161687 C73.9550342,280.70745 75.3531937,281.436726 77.0893188,282.28607 C81.7976903,284.585779 88.9663992,287.764166 96.3116968,290.647842 C109.153732,295.688645 116.25961,296.958909 121.818517,295.334582 C124.091684,294.66534 125.884026,293.526742 127.321207,291.909919 C131.403912,287.320734 133.968087,278.778178 132.653261,262.296816 C132.569266,261.259867 131.399283,243.023877 131.397298,243 L117.715971,244.626374 L113.383925,245.369976 L113.268183,245.387713 C113.33829,245.805904 113.403105,246.228871 113.47255,246.652519 L113.473873,246.682536 C113.702711,248.171787 113.918321,249.676729 114.118058,251.174848 C114.78936,256.154936 115.28275,261.072943 115.576403,265.482708 C115.983814,271.604805 116.012253,276.737706 115.595583,279.672547 C112.631935,279.522462 106.544584,278.470504 96.3844487,275.173413 C90.0993449,273.130213 84.9399115,271.187296 81.649541,269.829028 C79.7837851,269.05882 78.5172405,268.477583 77.9848287,268.170591 L77.419348,269.534999 L76.6065107,271.484055 L73.9940557,277.767152 L73,280.161687 Z"/>
    <path fill="#591239" d="M113,241.199392 L113.022484,241.31648 L113.737354,244.5989 L114.005843,245.809251 L114.010472,245.837537 L114.116281,246.337464 C114.396012,247.725421 114.776262,248.952875 115.278192,250.031009 C116.283374,252.202405 117.75742,253.773888 119.800849,254.824394 C119.996595,254.928984 120.197631,255.024365 120.403958,255.11251 C120.817273,255.290773 121.247782,255.446014 121.68292,255.574285 C122.475823,255.807146 123.296501,255.951862 124.145615,255.98541 C124.659449,256.013037 125.178572,256.001197 125.702986,255.951862 L133.057346,255.246043 L137.373015,254.829656 L137.61373,254.807291 L138.88145,254.68494 L143.420639,254.252108 C146.692771,253.935049 149.473554,252.18596 151.176411,249.691584 C152.511584,247.753049 153.192065,245.359316 152.952673,242.843233 L152.912995,242.593269 L152.069833,237 L152.0533,237 L140.696067,238.222849 L134.726477,238.866177 L130.047091,239.366763 L130.002784,239.372025 L117.059744,240.76064 L117.053793,240.76064 L113.123003,241.18821 L113,241.199392 Z"/>
    <polygon fill="#07113D" points="113 237.936 113.197 240.559 113.309 242 113.724 241.962 113.836 241.948 115.406 241.793 115.445 241.786 117.845 241.548 128.823 240.463 129.513 240.391 135.568 239.79 141.573 239.195 153 238.065 152.916 236.94 152.894 236.662 152.692 234 141.264 235.132 135.259 235.726 113.455 237.891"/>
    <polygon fill="#65324E" points="140 240.37 134.301 241 134 236.63 139.699 236"/>
    <polygon fill="#FFF" points="129 163.291 127.623 169 123 165.122 123.654 163"/>
    <polygon fill="#FFF" points="137 163.091 139.208 168 143 165.45 140.242 162"/>
    <polygon fill="#FFF" points="136 235.811 134.344 172.657 128.731 163 128 164.325 133.467 172.757 134.519 236"/>
    <polygon fill="#FFF" points="133 171.929 138.243 163 139 164.191 133.866 172"/>
    <polygon fill="#07113D" points="73 280.549 77.503 283 77.605 282.696 78.641 279.659 80.718 273.551 81.384 271.595 81.78 270.427 82 269.781 78.101 268 77.329 269.899 76.557 271.798 74.041 277.983"/>
    <path fill="#07113D" d="M75.6834556,269.215193 C75.9018457,269.296773 76.1254981,269.379659 76.3590176,269.469724 L77.1983722,267.624703 L81.4339552,269.354206 L81.1951733,269.982048 C84.4677351,271.280807 89.5985858,273.140185 95.8503301,275.094197 C105.955475,278.248418 112.009879,279.255446 114.957486,279.399027 C115.371901,276.591359 115.343616,271.680224 114.93841,265.824063 C114.645689,261.604729 114.154969,256.899829 113.487958,252.135538 C113.149191,251.005814 112.953166,249.746867 112.879492,248.343685 L112.84726,247.837887 L112.845944,247.809171 C112.776875,247.40388 112.71241,246.999242 112.642683,246.599824 L112.757141,246.582203 L112.528884,243.258295 L112.117758,243.231536 L112.186827,242 L112.68873,242.100507 L116.491479,242.880415 C116.509898,242.944374 116.582914,243.288969 116.582914,243.288969 C116.588176,243.329433 116.598043,243.375118 116.607252,243.426677 C116.609884,243.449519 116.617777,243.473014 116.619751,243.495204 C116.619751,243.496509 116.620408,243.498467 116.620408,243.499773 C116.620408,243.499773 117.025614,245.645008 117.066398,245.870823 C117.587376,248.771166 118.365555,253.433644 118.989151,258.491624 C120.300149,269.169508 120.932296,281.591906 117.063109,282.784936 C112.62887,284.15157 95.9345286,278.709837 84.9591128,274.800508 C83.1356874,274.145907 81.4675031,273.54156 80.0407319,273.016836 C78.3850459,272.403352 77.0562871,271.898207 76.1794379,271.565359 C75.9182907,271.466157 75.6966117,271.377398 75.5203209,271.313439 C75.1802376,271.180952 75,271.109814 75,271.109814 L75.6834556,269.215193 Z"/>
    <path fill="#DB734C" d="M119,236.720331 L113.312656,237 L111.299454,196.996048 C111.015222,192.771189 111.015222,189.564272 111.111538,186.531651 C110.810467,186.688054 110.509396,186.850421 110.20159,187.012788 C102.290901,191.22108 95.3184482,195.350507 91.8665724,199.216833 C86.2358052,205.518004 82.1932377,214.796127 80.1342359,220.257627 C79.9752812,220.682433 79,219.932893 79,219.932893 C79,219.932893 80.3275409,209.300827 89.4270223,199.228762 C96.4392133,191.46695 106.829865,186.027982 111.225365,183.945706 C112.533374,183.325397 113.312656,183 113.312656,183 L113.55715,185.283744 L119,236.720331 Z"/>
    <path fill="#F4A891" d="M205.106042,137.28281 C205.005796,137.273128 199.375772,134.231225 198.590061,135.185168 C197.282124,136.774212 196.046661,138.764713 195.17967,140.68938 L193,145.274502 C193,145.274502 196.564824,148.584903 196.824244,148.721089 C200.446641,150.619293 204.630551,142.206782 204.630551,142.206782 C204.630551,142.206782 207.36496,137.504837 205.106042,137.28281"/>
    <path fill="#F4A891" d="M198.223332 141.262337L201.893573 132.735508C202.161778 132.112821 201.905397 131.379057 201.322937 131.10463 200.7411 130.830203 200.045385 131.114431 199.777179 131.737118L196.106316 140.2646C195.838111 140.887287 196.095115 141.621052 196.677574 141.895479 197.259411 142.169905 197.954504 141.885024 198.223332 141.262337M201.527889 142.287665L204.879108 135.675814C205.184085 135.074507 204.891844 134.365937 204.229526 134.100933 203.568623 133.835929 202.77752 134.111028 202.472542 134.712335L199.121324 141.324186C198.815638 141.924862 199.107879 142.634063 199.770198 142.899067 200.431809 143.164071 201.222204 142.888972 201.527889 142.287665M203.079779 145.291497L206.866423 136.92592C207.157112 136.282843 206.957411 135.483003 206.422117 135.147878 205.887414 134.81345 205.210911 135.065664 204.920221 135.708741L201.133577 144.073622C200.842888 144.716699 201.042589 145.516539 201.577883 145.851664 202.112586 146.186789 202.789089 145.934575 203.079779 145.291497"/>
    <path fill="#F4B84D" d="M140,170.411421 L140.669137,182.257024 L140.710715,183 C140.949136,182.986661 142.50959,182.890621 144.929529,182.635181 C152.376444,181.839516 167.949807,179.549896 178.065476,173.565402 C183.339319,170.446103 188.008339,165.783493 191.73537,161.277616 C191.745764,161.271613 191.751611,161.262276 191.758107,161.252939 C194.497673,157.934223 196.727915,154.702209 198.312406,152.23985 C199.926132,149.730805 200.866822,148.012755 201,147.806003 L200.078799,147.255773 L193.81944,143.538224 L192.91643,143 C192.885896,143.047353 191.850357,144.544644 190.097607,146.758233 C186.501805,151.304794 179.888388,158.867278 172.766297,163.081701 C168.392217,165.670113 152.99361,167.683618 143.898538,167.516882 C140.445659,167.453522 145.704559,169.871863 143.505501,170.101959 C141.354516,170.330054 140.027935,170.410088 140,170.411421"/>
    <polygon fill="#FFF" points="191 145.493 191.492 145.803 200.631 151.595 201.261 151.994 201.271 152 204 146.783 202.87 146.12 197.32 142.846 196.325 142.262 195.793 141.948 194.189 141"/>
    <path fill="#DB734C" d="M199.886135 149.794578C199.710463 150.017593 199.395555 150.066725 199.182146 149.903949 198.969171 149.741173 198.938374 149.428438 199.114046 149.205422 199.289284 148.982407 199.604626 148.933275 199.818035 149.096051 200.03101 149.258827 200.061373 149.571562 199.886135 149.794578M145.055191 183C145.000191 183.1145 144.985191 183.135 145.015191 183.005 145.030191 183.005 145.040191 183 145.055191 183M192 162C188.233339 166.390244 183.505452 170.936585 178.166774 173.980488 170.355997 178.435772 159.323605 180.790244 151.190667 182 151.157793 181.512195 151.118345 181.102439 151.078897 180.790244 151.032874 180.419512 151.019724 179.847154 151 179.261789 158.883098 178.201626 171.131815 175.795122 179.363374 171.547967 184.425914 168.926829 188.719211 165.304065 192 162"/>
    <path fill="#07113D" d="M218.971614,164.285477 L106.304887,2.65703575 C105.774067,1.89646107 105.954296,0.84443258 106.706127,0.308104328 C107.458615,-0.228223924 108.497891,-0.0465643548 109.028054,0.714675745 L221.695438,162.343117 C222.2256,163.103691 222.046029,164.155054 221.293541,164.691383 C220.54171,165.228376 219.502434,165.046717 218.971614,164.285477"/>
    <path fill="#FFC7B0" d="M201.624383 138.85912L201.510681 138.781838C201.046079 138.4642 200.864917 137.708392 201.108098 137.102895L202.087897 134.665308C202.331079 134.059811 202.910471 133.82371 203.375617 134.141348L203.489319 134.21863C203.953921 134.535559 204.135083 135.291367 203.891902 135.896864L202.912103 138.33445C202.668921 138.939948 202.088985 139.176049 201.624383 138.85912M203.618405 140.859227L203.510868 140.786122C203.045783 140.469572 202.865099 139.716521 203.108013 139.112519L204.094408 136.663863C204.337322 136.059861 204.917041 135.824222 205.38158 136.140773L205.489663 136.213878C205.954202 136.530428 206.134886 137.283479 205.891972 137.887481L204.905577 140.336137C204.662663 140.940139 204.08349 141.175778 203.618405 140.859227M199.612495 135.85981L199.510079 135.790185C199.046196 135.474738 198.864915 134.723776 199.108084 134.120591L200.101024 131.662382C200.344193 131.059907 200.923089 130.824743 201.38752 131.14019L201.489388 131.209815C201.953819 131.525262 202.135101 132.276934 201.891931 132.879409L200.899539 135.337618C200.655822 135.940093 200.076926 136.175257 199.612495 135.85981"/>
    <path fill="#F4A891" d="M198.167228,144.74775 L198.994531,134.483622 C199.054287,133.733857 198.617429,133.068603 198.023349,133.005039 C197.426948,132.940752 196.893783,133.499104 196.832867,134.251758 L196.005564,144.515886 C195.945227,145.265651 196.382665,145.930905 196.976746,145.995192 C197.571407,146.058033 198.106891,145.497515 198.167228,144.74775"/>
    <path fill="url(#pi-lead-adv-a)" d="M92.177195,84.2191694 C92.7411638,88.4069314 94.3716676,88.6006807 94.0553111,90.7332455 C93.5373942,94.2901652 91.8314721,96.6237531 88.6138466,98.6842405 L87.3457511,99.4936232 L30.4316225,135 L44.5201636,90.8912867 L0,79.1658175 C0,79.1658175 31.121066,63.2122492 47.9033089,54.1113224 C52.9469919,51.3756882 56.3788588,49.5439969 56.7679639,49.4157124 C57.2184715,49.264945 56.8240271,48.7961114 56.1652848,47.9695359 C56.1479319,47.9530044 56.1252397,47.9252314 56.1085542,47.9027486 C54.2824967,45.6247065 50.6423952,40.7611363 56.7679639,32.6653254 C65.2208216,21.4979598 109.877806,6 109.877806,6 L142,52.0640602 C142,52.0640602 98.1893025,73.4637691 93.9618725,78.4496724 C91.9896503,80.7759865 91.9489378,82.5210527 92.177195,84.2191694"/>
    <path fill="#00203E" d="M91.9898793,90.7979242 C92.1747425,94.7100947 89.8056087,97.8872924 86.6452341,100 L49,53.2037969 C53.9539413,50.3988317 54.9838,49.6143636 55.3659818,49.4828279 C55.8084735,49.3282395 55.4210474,48.8468459 54.7740261,48 C64.3102156,59.6158239 85.2095941,83.2291965 91.9898793,90.7979242"/>
  </g>
</svg>
