<svg xmlns="http://www.w3.org/2000/svg" xmlns:xlink="http://www.w3.org/1999/xlink" width="412" height="284" viewBox="0 0 412 284">
  <defs>
    <polygon id="pi-lead-landing-a" points="378.629 12 0 12 0 .374 378.629 .374"/>
    <linearGradient id="pi-lead-landing-c" x1="1.301%" x2="98.76%" y1="50%" y2="50%">
      <stop offset="0%" stop-color="#43CEA2"/>
      <stop offset="100%" stop-color="#185A9D"/>
    </linearGradient>
  </defs>
  <g fill="none" fill-rule="evenodd">
    <g transform="translate(0 272)">
      <mask id="pi-lead-landing-b" fill="#fff">
        <use xlink:href="#pi-lead-landing-a"/>
      </mask>
      <path fill="#07113D" d="M372.457367,12.0001 L6.17138333,12.0001 C2.77736933,12.0001 0.000159243697,9.3841 0.000159243697,6.1866 C0.000159243697,2.9896 2.77736933,0.3736 6.17138333,0.3736 L372.457367,0.3736 C375.851911,0.3736 378.628591,2.9896 378.628591,6.1866 C378.628591,9.3841 375.851911,12.0001 372.457367,12.0001" mask="url(#pi-lead-landing-b)"/>
    </g>
    <path fill="#591239" d="M220.002208,129.917986 C219.807415,129.950372 219.609585,129.974662 219.411756,129.986807 C219.383928,129.989843 219.352559,129.992373 219.324731,129.991361 C216.054726,130.165436 213.239577,127.688408 213.014426,124.408306 C212.786745,121.104421 215.281117,118.237748 218.588057,118.014082 C220.198014,117.904779 221.697673,118.438137 222.845185,119.392514 C222.902358,119.442105 222.956496,119.487648 223.013669,119.540781 C223.613229,120.076164 224.101478,120.737548 224.448565,121.480909 C224.641841,121.902434 224.790593,122.357863 224.883183,122.831004 C224.933273,123.077441 224.967172,123.330964 224.985386,123.588534 C225.200924,126.690512 223.008104,129.410942 220.002208,129.917986"/>
    <path fill="#591239" d="M229.368642,132.113282 C228.366273,133.176899 226.982386,133.87923 225.411789,133.985997 C222.860075,134.15905 220.569958,132.712389 219.554433,130.519881 C219.255392,129.87321 219.065139,129.159747 219.014034,128.408334 C218.81012,125.409258 220.850277,122.770456 223.703056,122.142507 C223.798689,122.118725 223.897863,122.098485 224.001591,122.083305 C224.195386,122.050921 224.390193,122.026633 224.592083,122.014489 C227.895195,121.786282 230.761636,124.280873 230.985284,127.588104 C231.106216,129.32521 230.474233,130.939357 229.368642,132.113282"/>
    <path fill="#F4A891" d="M271.779326,179.02021 L266.891293,180.134115 C266.321284,180.26383 265.925457,180.97898 266.011837,181.724328 L266.027499,181.861593 C266.113404,182.606254 266.65019,183.10933 267.220674,182.979615 L272.108233,181.865711 C272.678717,181.735995 273.074543,181.020159 272.988164,180.275497 L272.972502,180.138919 C272.886597,179.393571 272.349336,178.891181 271.779326,179.02021"/>
    <path fill="#F4A891" d="M265.131577,188.505828 C265.131577,188.505828 268.839223,189.416623 269.903171,189.708656 C271.961452,190.274216 273.138866,190.047529 273.665632,188.753911 L274,185.87927 C273.94683,184.267019 273.844875,183.507156 272.609907,182.968775 L268.545966,181.194605 C267.312094,180.656224 265.871023,181.273829 265.344257,182.567447 L264.292368,185.151212 C263.765602,186.445408 263.896608,187.966869 265.131577,188.505828"/>
    <path fill="#F4A891" d="M273.103244,184.315824 L277.503792,184.96355 C278.210463,185.084171 278.877005,184.895487 278.985159,184.544211 C279.092824,184.192178 278.60295,183.804979 277.896768,183.684358 L273.49622,183.036632 C272.789059,182.915633 272.123006,183.104316 272.014852,183.456349 C271.907188,183.808004 272.396572,184.194824 273.103244,184.315824"/>
    <path fill="#F4A891" d="M273.103234 185.315689L277.503789 185.963367C278.210462 186.084358 278.877005 185.895688 278.985159 185.544059 279.092824 185.192052 278.602949 184.80526 277.896766 184.684269L273.496211 184.036592C272.789538 183.915601 272.122995 184.104649 272.014841 184.456278 271.907176 184.807907 272.397051 185.194699 273.103234 185.315689M272.103232 188.315952L276.504269 188.963361C277.210941 189.084372 277.876993 188.895671 277.985147 188.543982 278.092812 188.192294 277.603427 187.805059 276.897245 187.684048L272.496208 187.036639C271.789537 186.915628 271.123484 187.104329 271.014841 187.456018L271.014841 187.456396C270.907176 187.807706 271.39705 188.194941 272.103232 188.315952M248.43344 179.850176C250.006541 180.980628 251.680325 181.93325 253.431884 182.687059 254.37958 183.097798 255.349118 183.448212 256.340496 183.736202L267.143913 186.874189C267.78743 187.060936 268.4139 187.033134 268.970052 186.834846 270.007244 186.463449 270.794594 185.48932 270.970389 184.167924 271.237811 182.136259 269.654588 181.537723 267.809271 181.00266L257.796401 177.502194C256.708601 177.100372 255.668745 176.623536 254.682694 176.082178 253.782409 175.591704 252.928471 175.04615 252.115551 174.451286 247.793652 171.282873 244.706581 166.718052 243.134013 161.500139L240.559944 152.95854C239.943063 150.911137 238.016773 149.629084 236.258821 150.095953 234.501401 150.557576 233.572883 152.598684 234.191895 154.645038L236.764365 163.189784C238.851001 170.109407 243.0589 175.997722 248.43344 179.850176"/>
    <path fill="#D79481" d="M249.763868,175 L246,180.797422 C247.607718,182.010639 249.185482,183.190062 250.975648,184 L253,177.264222 L249.763868,175 Z"/>
    <path fill="#C22D3C" d="M246.961068,170.755384 C246.795518,170.545383 245.597457,169.645752 243.603776,164.330407 C241.244687,158.040246 240.043904,152.880976 239.546164,150.013044 C238.715691,145.227108 232.139429,149.945637 232.002742,154.09846 C231.866054,158.251284 236.875035,170.305309 239.311998,174.02102 C241.748961,177.736213 247.740351,182 247.740351,182 L252,174.815392 C252,174.815392 248.856726,173.158204 246.961068,170.755384"/>
    <polygon fill="#FFF" points="250.104 173 248.328 176.642 249.654 179.155 247.033 178.709 246 180.725 249.132 183 253 174.99"/>
    <path fill="#591239" d="M209.014359,117.411355 C209.241034,120.717371 212.105338,123.212822 215.411355,122.985641 C218.717371,122.75846 221.212822,119.894662 220.985641,116.588645 C220.75846,113.282629 217.894662,110.787178 214.588645,111.014359 C211.282629,111.24154 208.787178,114.105338 209.014359,117.411355"/>
    <path fill="#F4B84D" d="M232.007209,114.205736 C232.120513,115.858669 233.552802,117.106636 235.205736,116.992791 C236.858669,116.879487 238.106636,115.447198 237.992791,113.794264 C237.879487,112.141331 236.447198,110.893364 234.794806,111.007209 C233.141331,111.120513 231.893364,112.552802 232.007209,114.205736"/>
    <path fill="#F4B84D" d="M226.007143,114.205481 C226.120981,115.858283 227.553172,117.106152 229.205451,116.992857 C230.858271,116.87902 232.106153,115.447387 231.992857,113.794043 C231.879019,112.14124 230.446828,110.893372 228.794549,111.007209 C227.141729,111.121046 225.893847,112.552679 226.007143,114.205481"/>
    <path fill="#591239" d="M223.852919,132.993994 C223.912299,133.095708 223.953491,131.896662 224.016081,130.067955 C224.181382,125.040895 224.525359,115.245097 225.971883,114.550856 C229.947146,112.647881 245.363531,124.419845 246.501919,120.063347 C246.771537,119.045664 246.933094,117.982237 246.98445,116.894593 C246.995149,116.667484 247.000498,116.440914 246.999963,116.218111 C247.001568,114.445912 246.704132,112.742061 246.152057,111.161451 C245.680225,109.818713 245.032927,108.558854 244.230492,107.421697 L244.226748,107.416316 C241.492049,103.539328 236.997342,101.006155 231.909903,101.000235 C231.678801,100.99862 231.45091,101.005616 231.220343,101.012613 C225.104718,101.280622 219.792597,104.848161 217.392246,110.376797 C216.639027,112.10379 216.170405,114.025062 216.051644,116.096484 C215.326243,128.695618 222.459356,130.690082 223.852919,132.993994"/>
    <path fill="#F4A891" d="M229.356002,152.990368 C227.209509,153.144107 225.332431,151.438908 225.185005,149.199954 L224.009236,131.359782 C223.861811,129.121369 225.496987,127.163909 227.643998,127.009629 C229.790491,126.85589 231.667569,128.561631 231.814995,130.800584 L232.990764,148.640757 C233.138189,150.879169 231.503013,152.83663 229.356002,152.990368"/>
    <path fill="#FFC7B0" d="M223.162189,125.603034 C223.169105,125.743662 223.180809,125.878294 223.195706,126.018378 C223.198366,126.061438 223.204218,126.106679 223.21007,126.14974 C223.394146,127.881976 223.927222,129.508469 224.726303,130.949637 C224.76514,131.021586 224.806637,131.09081 224.847602,131.16276 C226.149966,133.397552 228.10032,135.154861 230.41723,136.137625 C230.423082,136.143075 230.425742,136.143075 230.425742,136.143075 C231.322714,136.523535 232.276078,136.784624 233.265088,136.90781 C233.62792,136.950871 233.99022,136.98303 234.356244,136.997747 C234.47967,137.000472 234.600969,137.001017 234.727056,136.997747 C234.778129,136.999927 234.803133,136.998292 234.803133,136.998292 C235.342061,136.985755 235.864496,136.94324 236.381079,136.849488 C236.528979,136.83041 236.675814,136.808607 236.822649,136.772087 C241.638417,135.782783 245.335365,131.568838 245.916854,126.37649 C245.978567,125.822152 246.009956,125.249827 245.997188,124.677503 L245.978035,123.803753 L245.865781,117.980758 C245.851417,117.103193 245.783319,116.252882 245.63276,115.434185 C245.522633,114.796997 245.351858,114.175616 245.117773,113.578763 C244.503831,112.012228 243.715922,110.61085 242.581142,109.449848 C240.46214,107.272289 237.540333,105.954852 234.387632,106.001183 C232.026033,106.034977 229.84319,106.833507 228.024242,108.165661 C227.761429,108.359706 227.505531,108.564653 227.258146,108.781046 C226.023879,109.855381 225.006673,111.202797 224.288457,112.727362 C224.288457,112.727362 224.285797,112.733357 224.286329,112.738808 C224.096933,113.138345 223.922434,113.556415 223.779322,113.98157 C223.753786,114.05788 223.727185,114.12874 223.705373,114.213771 C223.531405,114.727228 223.378718,115.259217 223.266463,115.802653 C223.240395,115.922569 223.21539,116.04521 223.193046,116.167851 C223.065363,116.830658 222.993541,117.511997 223.000458,118.208598 L223.000458,118.332329 L223.010034,118.803815 L223.019078,119.321633 L223.029718,119.982804 L223.03025,119.9888 L223.029718,120.023685 L223.031846,120.135424 L223.03823,120.437394 L223.03823,120.44339 L223.105796,123.58845 L223.122288,124.629536 L223.131864,125.023623 L223.137717,125.109744 C223.139313,125.138088 223.138249,125.164251 223.140377,125.19314 C223.141441,125.331043 223.147825,125.468401 223.162189,125.603034"/>
    <path fill="#FFC4BC" d="M222.475288,124.951003 C222.600062,124.971006 222.731692,124.984722 222.869492,124.99158 C222.928451,125.003582 223.001122,124.999581 223.069679,124.998438 L223.485821,124.992723 L224,124.987579 L223.969149,123.34677 L223.960922,122.978717 L223.895793,120 L223.353506,120.006858 L222.959302,120.014288 C222.872234,120.013145 222.796821,120.017717 222.714553,120.028004 L222.710439,120.028576 C222.591835,120.035434 222.473231,120.050865 222.358741,120.069724 L222.355313,120.069724 C221.769149,120.164024 221.244687,120.3932 220.845684,120.736107 C220.315737,121.198459 219.987348,121.787687 220.000374,122.472358 C220.027111,123.678247 221.095232,124.730971 222.475288,124.951003"/>
    <path fill="#591239" d="M224.376276,115 C224.376276,115 244.287537,110.859351 245.990055,114.977989 C245.990055,114.977989 246.491374,110.636623 240.37548,106.631182 C234.260105,102.626266 224.228524,107.014799 223.526055,108.96223 C222.824103,110.909661 223.027327,112.371807 223.027327,112.371807 L224.376276,115 Z"/>
    <path fill="#D93838" d="M240.806147,195.632078 L215.964828,198 L215.714167,195.77014 L215.688784,194.528119 C215.688784,194.528119 215.72633,194.200623 215.786615,193.610917 C216.198566,189.561102 217.758585,173.078228 216.814642,163.44654 C216.605229,161.303905 215.8744,156.9084 215.162608,152.872499 C214.277892,147.857321 217.07535,142.921877 221.800885,141.164531 C223.485177,140.537902 224.864868,140.05415 225.242446,140.000638 C225.999187,139.899499 231.475118,151.860045 232.269935,151.891082 L232.06581,140.060572 C238.569238,142.346084 241.754321,149.547241 241.999694,158.973977 C242.002338,159.237258 241.98806,159.500004 241.949456,159.760609 L239.947872,176.875464 L240.806147,195.632078 Z"/>
    <path fill="#F4A891" d="M222.016047,125.305046 C222.117672,125.323879 222.22488,125.336793 222.337114,125.34325 C222.385135,125.35455 222.444323,125.350783 222.500161,125.349707 L222.839096,125.344326 C222.840212,125.480998 222.846355,125.616594 222.861989,125.7495 C222.86869,125.887786 222.881532,126.02123 222.897167,126.158978 C222.899959,126.202024 222.906101,126.246685 222.911685,126.289193 C223.104883,127.998671 223.664936,129.604837 224.503619,131.02698 C224.543822,131.098545 224.587376,131.166881 224.630929,131.237369 C225.997837,133.443494 228.044849,135.178799 230.476025,136.148956 C230.482726,136.154337 230.485518,136.154337 230.485518,136.154337 C231.426942,136.529378 232.427555,136.787118 233.465579,136.908724 C233.846392,136.95177 234.226089,136.983517 234.610811,136.998045 C234.740354,137.000735 234.867665,137.000735 235,136.997507 C234.388577,136.989974 230.838971,136.445438 228.171601,132.429215 C225.280322,128.072926 224.480726,119.621316 224.480726,119.621316 C224.480726,119.621316 224.663874,115.985515 224.443873,116.000043 C224.373517,116.004348 223.737525,116.186219 222.893817,116.435349 C222.760365,117.089116 222.684425,117.762253 222.692242,118.449918 L222.692242,118.572062 L222.702293,119.0375 L222.711786,119.548676 L222.722953,120.201366 L222.723512,120.206746 L222.722953,120.241183 L222.725187,120.352028 L222.731329,120.650124 L222.410262,120.657119 C222.339348,120.656042 222.277926,120.660347 222.210921,120.670033 L222.207571,120.670571 C222.110971,120.677028 222.014372,120.691556 221.921123,120.709312 L221.918331,120.709312 C221.440918,120.798095 221.01376,121.013865 220.688784,121.336713 C220.257158,121.772019 219.989695,122.326778 220.000304,122.971397 C220.022081,124.106744 220.892033,125.097886 222.016047,125.305046"/>
    <path fill="#591239" d="M244.007143 114.205736C244.12098 115.858669 245.553155 117.106636 247.205415 116.992791 248.85876 116.879487 250.106628 115.447198 249.992791 113.794264 249.878954 112.141331 248.446779 110.893364 246.794519 111.007209 245.141717 111.120513 243.893848 112.552802 244.007143 114.205736M237.007209 112.205736C237.120513 113.858669 238.552802 115.106636 240.205736 114.992791 241.858669 114.879487 243.106636 113.447198 242.992791 111.794264 242.879487 110.141331 241.447198 108.893364 239.794806 109.007209 238.141331 109.120513 236.893364 110.552802 237.007209 112.205736"/>
    <path fill="#591239" d="M232.007209,114.205736 C232.120513,115.858669 233.552802,117.106636 235.205194,116.992791 C236.858669,116.879487 238.106636,115.447198 237.992791,113.794264 C237.879487,112.141331 236.447198,110.893364 234.794264,111.007209 C233.141331,111.120513 231.893364,112.552802 232.007209,114.205736"/>
    <path fill="#591239" d="M229.007209,115.205452 C229.120513,116.858271 230.552802,118.106153 232.205736,117.992857 C233.858669,117.879019 235.106636,116.44737 234.992791,114.794009 C234.879487,113.141189 233.447198,111.89385 231.794806,112.007146 C230.141331,112.120984 228.893364,113.552632 229.007209,115.205452"/>
    <path fill="#591239" d="M224.007209,115.205481 C224.120513,116.858283 225.552802,118.106152 227.205194,117.992857 C228.858669,117.87902 230.106636,116.447387 229.992791,114.794043 C229.879487,113.14124 228.447198,111.893372 226.794264,112.007209 C225.141331,112.121046 223.893364,113.552679 224.007209,115.205481"/>
    <path fill="#591239" d="M227,112.927574 L224.283112,122.538414 C224.11819,123.122271 223.237154,123.163367 223.0093,122.598053 L220,115.137211 C220,115.137211 222.778734,107.547569 227,112.927574"/>
    <polygon fill="#FFF" points="224.031 138.892 224 136 229.048 136.182 231.225 143.968 232.092 136.383 234 136.359 233.772 157"/>
    <path fill="#591239" d="M220.983807,172.7202 C220.680287,177.604014 219.729326,197.517929 219.729326,197.517929 L215.160368,198 C214.622517,193.764249 217.094612,172.862328 216.193144,163.316907 C215.770943,158.831371 214.769479,153.021599 214.027598,149.022906 C213.660445,148.874413 217.077947,149.496491 217.077947,149.496491 C217.077947,149.496491 217.132994,149.727715 217.222384,150.141903 C217.312783,150.527984 217.438029,151.089604 217.584991,151.77267 C218.69453,156.843161 221.225713,168.901289 220.983807,172.7202"/>
    <path fill="#07113D" d="M177.121879,221.658712 L177.010093,222.369967 C176.942578,222.797643 177.220937,223.198805 177.631004,223.267395 L188,225 L187.857777,221.663323 L177.91545,221.001636 C177.528072,220.975699 177.184413,221.261008 177.121879,221.658712"/>
    <path fill="#07113D" d="M187.674443,230.329124 L180.75021,232.922157 C179.657106,233.373969 178.859162,234.347102 178.623782,235.515732 C178.43804,236.447594 177.581384,237.08567 176.645201,236.990637 L176.640931,236.990094 C175.585724,236.881486 174.844356,235.892061 175.027963,234.835841 L175.504595,231.897977 C175.752251,230.373111 176.56087,228.998125 177.768194,228.047799 L186.349695,221.29234 C186.905321,220.995838 187.551148,220.921441 188.157479,221.084897 C189.531331,221.455253 190.315931,222.911695 189.878796,224.279621 L187.674443,230.329124 Z"/>
    <path fill="#B95241" d="M187.67444,232.329382 L180.750208,234.922486 C179.657639,235.374311 178.859695,236.347471 178.623781,237.51559 C178.438039,238.448021 177.581383,239.086115 176.645734,238.990536 L176.641464,238.990536 C175.585723,238.881925 174.844356,237.892472 175.027963,236.836224 L175.369558,234.730786 C175.704214,232.670966 176.796783,230.81262 178.427898,229.528287 L186.349693,223.292348 C186.905851,222.995838 187.551679,222.921439 188.15801,223.084899 C189.531327,223.455265 190.315927,224.911748 189.878793,226.279712 L187.67444,232.329382 Z"/>
    <path stroke="#07113D" stroke-linecap="round" stroke-width=".844" d="M183 232L182 231M184 232L183 231M185 232L184 231"/>
    <path fill="#111D4D" d="M204.701196,237.90735 C197.117916,236.020627 189.729812,233.718678 187,232.601734 L189.610273,223.829212 C190.741127,224.292451 196.066402,226.161763 203.364588,227.883344 C210.123794,229.4783 216.102299,229.942067 217.717124,228.625687 C217.83296,224.476058 215.240141,206.480439 215.417862,205.112354 C215.787056,202.2733 228.785,202 228.785,202 C228.861695,202.261693 229.762993,232.600679 227.195034,236.141449 C226.29162,237.387657 225.092005,238.334712 223.504155,238.99211 C219.627093,240.598673 214.389621,240.318514 204.701196,237.90735 Z"/>
    <polygon fill="#9995A7" points="192 223.857 188.563 233 186 232.009 189.491 223"/>
    <path fill="#07113D" d="M245.735537,276.978855 L246.610882,276.999658 C247.137052,277.011927 247.575758,276.692408 247.592287,276.285409 L248,266 L244,266.55049 L244.814738,276.289676 C244.846419,276.668938 245.245179,276.967653 245.735537,276.978855"/>
    <path fill="#07113D" d="M253.094309,265.510272 L256.50882,272.33071 C257.089009,273.401357 258.139749,274.09629 259.30852,274.182951 C260.240704,274.249318 260.973022,275.050658 260.999251,276.03245 L260.999251,276.036838 C261.029153,277.144782 260.159394,278.045398 259.106556,277.998228 L256.181481,277.900597 C254.663337,277.849588 253.219685,277.198533 252.138519,276.076329 L244.455476,268.101326 C244.095087,267.565454 243.939811,266.906721 244.021121,266.256215 C244.206824,264.784624 245.525625,263.775407 246.91577,264.043069 L253.094309,265.510272 Z"/>
    <path fill="#B95241" d="M253.094416,264.509926 L256.508356,271.330553 C257.088537,272.401229 258.139263,273.096182 259.308543,273.182845 C260.240714,273.249762 260.973023,274.050576 260.998727,275.032395 L260.999251,275.036783 C261.029152,276.144758 260.159405,277.045399 259.106057,276.998228 L257.010376,276.928019 C254.959808,276.860005 253.008386,275.97911 251.547966,274.46305 L244.455174,267.101051 C244.094791,266.565164 243.939516,265.906413 244.02135,265.255889 C244.20705,263.784257 245.525834,262.775013 246.91596,263.04323 L253.094416,264.509926 Z"/>
    <path stroke="#07113D" stroke-linecap="round" stroke-width=".858" d="M254 269L253 270M254 268L253 269M253 267L252 268"/>
    <path fill="#111D4D" d="M243.107595,266.566012 C243.626337,249.665011 243.310782,233.442716 241.962361,230.319497 C240.619071,225.279053 232.94672,212.438558 230,206.899615 L239.491282,197 C242.678646,205.019178 247.696742,215.352248 250.249403,224.93037 C250.991342,227.713437 253.186375,232.213795 252.987293,249.438421 C252.883134,258.460463 252.502928,267 252.502928,267 L243.107595,266.566012 Z"/>
    <polygon fill="#9995A7" points="254.989 263.699 244 263 244.061 266.482 255 267"/>
    <path fill="#111D4D" d="M215.560757,197.133262 C215.560757,197.133262 213.902026,204.055687 216.290232,206.778609 C220.547209,211.633711 236.840783,207.305033 239.053504,205.335536 C241.931985,202.772595 240.76677,195 240.76677,195 L215.560757,197.133262 Z"/>
    <polygon fill="#9995A7" points="215.118 199 241 195.829 240.683 193 215 196.131"/>
    <path fill="#F4A891" d="M215.693559,191.26571 L212.03584,187.400838 C211.608907,186.950203 210.889747,186.866681 210.436742,187.215825 L210.35418,187.279924 C209.901175,187.629069 209.879991,188.283169 210.306381,188.733804 L213.9641,192.599162 C214.391576,193.049797 215.110736,193.133319 215.563198,192.784175 L215.646303,192.720076 C216.098765,192.370931 216.119949,191.716831 215.693559,191.26571"/>
    <path fill="#F4A891" d="M205.025002,189.70975 C205.025002,189.70975 206.292616,193.254399 206.629555,194.286263 C207.281788,196.28231 208.129984,197.159474 209.540329,196.976306 L212.210683,195.869779 C213.574816,195.04794 214.174402,194.595661 213.956211,193.301668 L213.237877,189.043148 C213.019686,187.749692 211.686556,186.840298 210.276211,187.023466 L207.460202,187.388728 C206.049857,187.571896 204.806811,188.416295 205.025002,189.70975"/>
    <path fill="#F4A891" d="M212.122218 194.593711L213.970855 198.950337C214.245325 199.661705 214.898633 200.121554 215.423356 199.971659 215.948078 199.822271 216.152201 199.117508 215.878307 198.406648L214.02967 194.050022C213.754623 193.338146 213.101315 192.878805 212.576593 193.028192 212.052447 193.178088 211.847171 193.882343 212.122218 194.593711M210.121947 195.593352L211.970585 199.949978C212.245631 200.661854 212.898363 201.121195 213.423662 200.971808 213.947808 200.821912 214.152507 200.117657 213.878037 199.406289L212.0294 195.049663C211.754929 194.338295 211.101045 193.878446 210.576899 194.028341 210.052176 194.177729 209.847477 194.882492 210.121947 195.593352"/>
    <path fill="#F4A891" d="M208.121947 195.593712L209.970585 199.950337C210.245055 200.661705 210.898363 201.121554 211.423662 200.971659 211.947808 200.822271 212.152507 200.117508 211.878037 199.406648L210.0294 195.049515C209.754929 194.338147 209.101045 193.878806 208.576899 194.028193 208.052176 194.178089 207.847477 194.882344 208.121947 195.593712M202.100029 171.469487C201.931558 173.380456 201.975175 175.283556 202.236333 177.148363 202.375362 178.159188 202.579272 179.157424 202.850244 180.140972L205.804759 190.861909C205.980863 191.500822 206.337978 192.013316 206.809588 192.378409 207.690654 193.058238 208.975179 193.214556 210.241711 192.676883 212.188125 191.847031 211.879534 190.203588 211.373576 188.373401L209.161642 178.128764C208.940285 177.005158 208.811069 175.882602 208.767997 174.771586 208.725471 173.759187 208.756003 172.757804 208.85196 171.764289 209.369369 166.48198 211.783577 161.513882 215.583174 157.480547L221.80134 150.879497C223.293046 149.297951 223.408086 147.010874 222.058681 145.774489 220.714729 144.534431 218.408473 144.813497 216.918948 146.396616L210.696965 152.998191C205.659732 158.347119 202.665416 164.945547 202.100029 171.469487"/>
    <path fill="#F4A891" d="M208,170.313383 L202.174264,170 C202.029385,172.030855 201.894854,174.017658 202.120169,176 L207.835365,174.308736 L208,170.313383 Z"/>
    <path fill="#D93838" d="M218.743066,144.674814 C218.249147,144.948209 217.661727,145.378859 217.012501,145.930276 C216.983975,145.954943 216.951751,145.981666 216.920056,146.008389 C216.182611,146.65385 215.362758,147.44937 214.505927,148.338934 C214.227008,148.632885 213.943335,148.934546 213.659661,149.245456 C210.011527,153.226654 206.012631,158.574316 204.703085,161.101171 C203.464325,163.498009 202.720541,167.098919 202.337555,169.497298 C202.09984,170.977335 202,172 202,172 L202.877961,171.975847 L210.405077,171.738424 C210.405077,171.738424 210.260864,168.350269 211.402424,165.588561 C211.501208,165.342402 211.406122,163.686097 215.302537,159.569743 C216.700301,158.096387 218.143496,156.612239 219.445118,155.177425 C220.325192,154.20615 221.138706,153.267252 221.828608,152.36741 C222.957491,150.894053 223.747233,149.545061 223.933708,148.410366 C224.394875,145.564892 222.427122,142.648499 218.743066,144.674814"/>
    <polygon fill="#FFF" points="211 170 206.911 170.19 205.546 172.594 204.426 170.041 202.134 170.101 202 174 210.972 173.549"/>
    <path fill="#6572BF" d="M172,264.987115 C172.128547,265.586387 172.507788,272.60408 172.507788,272.60408 L181,273 L178.165579,262 L172,264.987115 Z"/>
    <path fill="#757182" d="M171.560868,276 L189.247193,274.598421 C190.302095,274.515047 191.083247,273.658609 190.992888,272.685249 C190.922846,271.935866 190.347542,271.309324 189.557301,271.122842 L180.544916,269 L171,269.972866 L171.560868,276 Z"/>
    <path fill="#07113D" d="M188.903801,274.912794 L172.111896,276 L172,275.165535 L189.99466,274 C190.056881,274.460923 189.568152,274.869626 188.903801,274.912794"/>
    <path stroke="#07113D" stroke-linecap="round" stroke-width=".797" d="M181 271L183 269M182 272L184 270M183 272L185 270"/>
    <path fill="#07113D" d="M148,197.2427 C148.308842,198.027845 160.270399,216.574847 164.386533,227.041155 C168.503193,237.508521 170.687748,267.951822 170.687748,267.951822 L182,268 C182,268 180.823134,238.971866 178.105748,229.765073 C175.388362,220.557751 163.01361,195.217629 163.01361,195.217629 C162.601997,194.170416 148,197.2427 148,197.2427"/>
    <path fill="#6572BF" d="M111.113693,241 C110.501798,241.296313 102,245.908179 102,245.908179 L105.600553,252 L116,245.803692 L111.113693,241 Z"/>
    <path fill="#757182" d="M97,247.572709 L104.080663,264.749673 C104.503202,265.774787 105.689582,266.268301 106.730391,265.852569 C107.531852,265.532322 108.040534,264.749137 107.997463,263.898898 L107.507317,254.197596 L103.447672,245 L97,247.572709 Z"/>
    <path fill="#07113D" d="M103.231005,264.200084 L96,247.496186 L97.2509903,247 L105,264.900947 C104.309687,265.174883 103.517285,264.861149 103.231005,264.200084"/>
    <path stroke="#07113D" stroke-linecap="round" stroke-width=".83" d="M105 254L107 255M105 256L107 257M105 258L109 259"/>
    <path fill="#07113D" d="M103,242.629839 C119.12822,234.530669 134.140191,225.844813 136.360944,222.930724 C137.456907,220.626423 137.610652,210.513609 136.675907,201.183043 L148.296425,200 C148.954643,206.547568 150.095449,222.462235 146.467507,228.828746 C144.937002,231.515575 141.178804,235.418757 124.91499,243.996087 C116.396587,248.488104 108.160582,253 108.160582,253 L103,242.629839 Z"/>
    <path fill="#07113D" d="M163.960559,196.617908 C164.156065,198.606461 163.614787,200.496592 162.558083,202.030603 C161.207312,203.997989 159.000191,205.381192 156.402057,205.627248 L142.342834,206.962298 C141.924892,207.001985 141.512874,207.010451 141.106243,206.987168 C140.060311,206.940603 139.057465,206.696135 138.138101,206.293979 C137.974371,206.225719 137.814411,206.148463 137.658222,206.065915 C135.223279,204.819762 133.457259,202.424821 133.173424,199.540414 L133,195.133108 L163.259321,192 L163.960559,196.617908 Z"/>
    <path fill="#FFC7B0" d="M198.904436,178.343327 C198.871597,178.272706 198.901039,173.375076 197.876793,173.225585 C196.170284,172.976605 194.1937,172.930727 192.411887,173.102899 L189,173.43281 C189,173.43281 189.204962,177.73557 189.207227,177.960837 C189.23214,181.088804 195.910967,179.686683 195.910967,179.686683 C195.910967,179.686683 199.637657,179.921745 198.904436,178.343327"/>
    <path fill="#FFC7B0" d="M195.143124 174.997173L203.038514 174.506934C203.614633 174.471102 204.046013 174.103423 203.996064 173.689732 203.946115 173.276042 203.433 172.966995 202.85688 173.002827L194.961491 173.493473C194.384804 173.529305 193.953991 173.896577 194.00394 174.310268 194.05389 174.723958 194.566437 175.033005 195.143124 174.997173M197.947681 177.997033L203.202898 177.582905C203.680987 177.545257 204.038143 177.158936 203.996733 176.724273 203.955324 176.290036 203.530408 175.965322 203.052319 176.00297L197.797102 176.416671C197.319013 176.454319 196.961857 176.840639 197.003267 177.275303 197.044676 177.709539 197.469592 178.034681 197.947681 177.997033M195.070806 179.997139L202.099333 179.525254C202.639539 179.489399 203.043098 179.116836 202.996309 178.698528 202.949519 178.279807 202.469395 177.966591 201.929189 178.002858L194.900663 178.474743C194.360989 178.511422 193.956897 178.88316 194.003687 179.301881 194.050476 179.720602 194.5306 180.033406 195.070806 179.997139"/>
    <path fill="#FFC7B0" d="M190.422156,175.915656 L197.397457,172.896906 C197.906659,172.676243 198.139405,172.087988 197.913761,171.589493 C197.687024,171.08993 197.089313,170.86339 196.577926,171.085122 L189.602625,174.104406 C189.092877,174.324534 188.860676,174.91279 189.086321,175.411284 C189.311418,175.90871 189.912954,176.136318 190.422156,175.915656"/>
    <polygon fill="#EAECEE" points="188.754 182 188.593 180.143 188 173.279 189.927 173.112 191.246 173 191.336 174.034 191.349 174.184 191.524 176.238 191.967 181.319 192 181.721 190.732 181.831 189.51 181.936"/>
    <path fill="#061F48" d="M188.531766 182C187.806399 181.96448 170.682776 181.062154 161.876265 171.531537 156.824095 166.064037 153.741684 156.823946 152.193601 150.99594 151.985673 150.204417 151.802083 149.473862 151.646005 148.826541 151.284644 147.308174 151.075129 146.235668 151 145.841232L155.838422 144.920881 160.677374 144 160.677374 144.004241C160.722345 144.249704 160.777369 144.521143 160.841388 144.81432 161.826003 149.480754 164.771382 160.137422 169.102418 164.825062 174.127076 170.261813 185.17053 171.951951 189 172.141747L188.958203 172.978864 188.639698 179.704954 188.566685 181.259902 188.531766 182zM139 147.678415L134.204255 139.680835 133.797324 139C133.694242 139.058357 132.289951 139.862216 130.217516 141.247545 128.44785 142.43204 126.185981 144.042387 123.826967 145.980796 116.603666 151.915891 112.066436 157.894098 110.334549 163.751384 106.734772 175.926505 111.534835 191.349132 111.740999 192L112.429652 191.791281 113.69632 191.412221 118.913028 189.844986 119.645936 189.62838 120.808443 189.276133 121.59694 189.041127C121.559701 188.914949 117.508737 175.805059 120.248778 166.530979 122.338483 159.464488 131.75727 152.241851 137.032266 148.872374 137.783524 148.394475 138.44897 147.991231 139 147.678415"/>
    <path fill="#F4A891" d="M150.70891,138.720359 L148.480437,138.97415 C146.435677,139.207172 144.558325,137.838421 144.308301,135.932706 L143.027744,126.168576 C142.777721,124.262355 144.245795,122.512663 146.291098,122.279641 L148.519571,122.02585 C150.564331,121.792828 152.441684,123.161579 152.691707,125.067294 L153.972264,134.831424 C154.222288,136.737139 152.75367,138.487337 150.70891,138.720359"/>
    <path fill="#B95241" d="M164.978534,110.738056 C164.990238,110.968352 164.997686,111.199181 164.999814,111.430543 C165.005134,112.543639 164.896074,113.638609 164.676888,114.692532 C163.745349,119.203022 160.853375,123.037019 156.887286,125.194442 C154.917807,126.268089 152.682858,126.925924 150.293096,127.049601 C146.424363,127.248978 143.291924,129.151583 140.462195,126.938718 C139.55034,126.226508 138.718286,125.420473 137.989972,124.523812 C137.703754,124.170905 137.431368,123.812135 137.176538,123.438437 C135.624151,121.160002 134.17178,115.291727 134.020691,112.336799 C133.594555,104.004573 139.800914,96.867539 148.002287,96.0710997 C148.236901,96.0497761 148.470983,96.0332502 148.706128,96.0209891 C153.917107,95.7517777 158.654603,98.092051 161.664681,101.903658 L161.669469,101.908456 C162.550468,103.027949 163.283038,104.278049 163.836854,105.621974 C164.486963,107.206323 164.885966,108.931408 164.978534,110.738056"/>
    <path fill="#FFC4BC" d="M144.993321,116.629868 C145.016884,116.978189 144.978173,117.32026 144.876069,117.641306 C144.763305,118.025993 144.569755,118.444205 144.306639,118.752182 C143.829215,119.305063 143.154875,119.735208 142.373382,119.789757 L140.694826,119.90738 L139.406736,120 L139.132399,116.129832 L139.136888,116.129264 L139.083591,115.413871 L139.04432,114.858149 L139.01122,114.349589 L139,114.217761 L139.004488,114.217193 L141.966085,114.007519 C142.714479,113.952969 143.415186,114.198442 143.955444,114.639951 C144.283637,114.907584 144.55068,115.254768 144.733571,115.645706 C144.882801,115.949705 144.969758,116.276434 144.993321,116.629868"/>
    <path fill="#FFC7B0" d="M163.496919,112.305757 L163.907064,118.116855 L163.969271,118.986963 C164.0125,119.559472 164.007755,120.133564 163.969799,120.689188 C163.603409,125.911947 159.852534,130.344802 154.743118,131.622262 C154.590237,131.667641 154.431029,131.700356 154.276038,131.728322 C153.726718,131.852321 153.167381,131.925666 152.591175,131.969461 C152.032366,132.011674 151.485154,132.007453 150.939525,131.973155 C149.874097,131.909308 148.839772,131.705105 147.861329,131.37954 C147.861329,131.37954 147.857111,131.380067 147.852367,131.376374 C143.590655,129.961195 140.320566,126.277614 139.612038,121.702291 C139.590423,121.563517 139.569863,121.429492 139.557211,121.29019 C139.528743,121.13031 139.517145,120.964098 139.506075,120.797885 L139.495531,120.711349 L139.464955,120.318244 L139.395367,119.280868 L139.13705,115.72287 L139.13705,115.687517 L139.13705,115.682768 L139.091712,115.022668 L139.05481,114.506618 L139.023706,114.033837 L139.01738,113.91142 C138.965189,113.088274 139.033723,112.277791 139.180278,111.492108 C139.276225,110.942816 139.412764,110.400911 139.573554,109.87853 C139.594114,109.791994 139.615728,109.718649 139.64156,109.640556 C139.773881,109.209987 139.937307,108.779946 140.120765,108.369428 C140.120238,108.365206 140.123928,108.35993 140.123928,108.35993 C140.818222,106.793313 141.840422,105.384466 143.110395,104.23681 C143.364495,104.007279 143.628084,103.785662 143.898,103.576182 C145.780027,102.137258 148.080635,101.207525 150.606348,101.03076 C153.983454,100.794369 157.176048,101.93411 159.55415,103.980368 C160.828868,105.07262 161.743523,106.425008 162.476301,107.954161 C162.759396,108.536695 162.969741,109.14614 163.122095,109.776164 C163.321896,110.585064 163.43893,111.4309 163.496919,112.305757"/>
    <path fill="#FFC4BC" d="M140.601592,116 L140.840834,119.538377 L141,121.927312 L140.103334,121.994591 C140.037592,121.998214 139.97185,122.002872 139.909568,121.997696 C138.401449,122.000284 137.116756,120.724046 137.007515,119.154885 C136.949682,118.340287 137.229457,117.621433 137.715357,117.039725 C138.150343,116.521156 138.765256,116.196145 139.464201,116.097814 L139.468649,116.097296 C139.548727,116.078665 139.617929,116.069867 139.700478,116.067797 L140.601592,116 Z"/>
    <path fill="#F4A891" d="M153,132.914337 C153,132.914337 150.8118,133.334731 148.537872,132.312924 C148.537872,132.312924 148.533586,132.313465 148.528764,132.309142 C144.19737,130.860457 140.873814,127.088255 140.153701,122.402857 C138.519516,122.405559 137.126441,121.073049 137.008029,119.4347 C136.945877,118.584185 137.248603,117.833635 137.775293,117.226278 C138.246795,116.684845 138.913328,116.345504 139.671483,116.242837 L139.670947,116.238514 L139.624868,115.562533 L139.587362,115.034068 L139.55575,114.549912 L139.545034,114.42509 L139.549321,114.42455 C139.496277,113.5816 139.56593,112.751618 139.714882,111.947033 C141.268697,110.802566 142.946282,110.415133 144.167902,112.400929 C144.167902,112.400929 144.186119,113.364918 144.27774,114.826032 C144.343643,115.919706 144.446517,117.288959 144.61315,118.736564 C144.946952,121.712826 145.52615,125.014922 146.5297,126.936956 C148.666464,131.041475 153,132.914337 153,132.914337"/>
    <path fill="#B95241" d="M161.870094,102.624389 L141.718303,104.982824 C140.394934,105.137697 139.180127,104.227688 139.017827,102.96064 C138.856613,101.694111 139.807072,100.530484 141.129898,100.375611 L161.282232,98.0171757 C162.605058,97.8623027 163.819865,98.7723117 163.982165,100.03936 C164.143379,101.306409 163.193463,102.469516 161.870094,102.624389"/>
    <path fill="#B95241" d="M166.854398,103.109521 C167.184495,104.114221 166.931203,105.131782 166.317855,105.87206 C165.813449,106.480642 165.05902,106.911742 164.188567,107.012058 L145.749453,109.140808 C143.104866,109.44587 141.222879,111.718148 141.54644,114.215751 L141.910853,117.031278 C142.03178,117.9655 141.320928,118.823584 140.331727,118.93779 L139.905216,118.987176 C138.911658,119.101896 138.007977,118.434154 137.886506,117.495816 L136.788907,109.014255 C136.780192,108.946349 136.776379,108.882559 136.776924,108.81774 C136.37438,108.382524 136.102568,107.828987 136.023584,107.218862 C135.91682,106.392673 136.178828,105.601979 136.682143,104.988768 C137.186004,104.380186 137.940977,103.949086 138.81143,103.84877 L163.281074,101.023984 C164.842224,100.84393 166.388123,101.691212 166.854398,103.109521"/>
    <path fill="#080B2E" d="M133.794569,203 C133.794569,203 146.205701,201.698789 146.055928,201.2654 C145.906696,200.831489 145.906696,195.770933 145.906696,195.770933 C145.906696,195.770933 155.775476,194.180622 155.775476,194.758822 C155.775476,195.337545 156.673031,199.819378 156.673031,199.819378 L164,198.518167 L163.850227,191 L132,194.180622 L133.794569,203 Z"/>
    <polygon fill="#FFF" points="156 190.571 142.899 191 141 134.429 154.102 134"/>
    <polygon fill="#D93838" points="148.142 140 145 135.769 147.709 134 151 135.567"/>
    <polygon fill="#FFF" points="155 137.311 148.63 133.87 141.156 138 141 133.231 154.817 133"/>
    <polygon fill="#9995A7" points="157 194.456 143.097 195 143 191.544 156.903 191"/>
    <polygon fill="#061D48" points="154 192.896 149.098 193 149 191.104 153.902 191"/>
    <path fill="#061F48" d="M144 198.954879C144 198.954879 141.076874 199.724264 136.698552 199.940204 135.106586 200.021248 133.320815 200.030846 131.414332 199.900215 131.299711 199.89435 131.192288 199.84903 131.088187 199.81224L130.193917 160.599177C129.748167 154.020212 130.181182 150.564642 130.396581 145.166681 130.424268 144.424488 130.449186 143.646039 130.468012 142.818536 130.477426 142.32694 130.55827 141.870534 130.697255 141.439187 131.422084 139.177418 133.764351 137.695165 136.294331 136.630929 137.816527 135.992173 139.40794 135.503776 140.751282 135.094824 141.378655 134.901811 140.996029 135.07243 141.66161 135.018045L144 198.954879zM166 198.688596L163.483138 198.78433 157.702548 199C157.702548 199 154.49031 135.755996 155.069975 136.000708 156.054352 136.418602 157.105167 137.04141 158.1283 137.836861 160.227715 139.461646 162.208097 141.813578 163.235659 144.602229 163.531858 145.395528 163.748333 146.229165 163.861276 147.088618 163.868473 147.119812 163.875671 147.156385 163.878439 147.187579 164.580459 152.613749 166 198.688596 166 198.688596"/>
    <path stroke="#9995A7" stroke-width=".83" d="M149,140 L151,190"/>
    <path fill="#2C3765" d="M140.993591 166.989159C141.205605 167.529912 136.08699 147.661617 136.08699 147.661617L138.175397 145.57319 135 137.640363 139.967657 134C139.967657 134 140.638312 166.08293 140.993591 166.989159M155.561896 166.988893C155.388298 167.535261 159 147.741716 159 147.741716L156.865087 145.816371 158.432302 138.613828 154 134C154 134 155.853965 166.072187 155.561896 166.988893"/>
    <path fill="#9995A7" d="M149.958124,139.019939 C149.854898,139.705254 148.956837,154.416332 144.603306,163.346514 C140.250291,172.276696 137.025013,174 137.025013,174 L132,173.19291 L132.037677,168.381998 C132.037677,168.381998 141.186545,162.224706 143.366666,157.322068 C145.546786,152.419429 148.839677,138.58081 148.839677,138.58081 C148.839677,138.58081 150.259026,137.017764 149.958124,139.019939"/>
    <path fill="#D93838" d="M148.232165,138 C148.232165,138 146.048526,152.030533 138.614226,158.422796 C131.179926,164.814541 128.672824,164.508222 128.672824,164.508222 L127,170.372332 L133.933094,171 C133.933094,171 142.398097,164.903171 145.111232,158.186967 C147.824368,151.471281 150,138.44367 150,138.44367 L148.232165,138 Z"/>
    <path fill="#F4A891" d="M93.9263892,173.985221 L99.4246406,173.04902 C99.8261895,172.980752 100.07566,172.692179 99.9793094,172.407665 C99.8829585,172.123152 99.4751598,171.946392 99.0736108,172.01466 L93.5753594,172.950492 C93.1738105,173.01913 92.9243397,173.307702 93.0206906,173.592585 C93.1175624,173.87673 93.5248402,174.053859 93.9263892,173.985221"/>
    <path fill="#F4A891" d="M92.2505873 176.735796L95.8214013 172.305205C96.0819541 171.981534 96.0541618 171.482405 95.7593649 171.196332 95.4650643 170.910258 95.0104617 170.940228 94.7494127 171.263899L91.1785987 175.695035C90.9180459 176.018706 90.9458382 176.517835 91.2406351 176.803908 91.535432 177.089981 91.9900345 177.059467 92.2505873 176.735796M96.9391518 174.983723L101.416508 174.15575C101.823733 174.080147 102.07673 173.76229 101.979017 173.449311 101.880776 173.135519 101.467742 172.941227 101.060517 173.016017L96.5836886 173.84399C96.175936 173.919593 95.9229392 174.23745 96.0211801 174.550836 96.1188928 174.864221 96.5319273 175.059325 96.9391518 174.983723M95.9636797 177.984872L101.40127 177.074108C101.81913 177.003846 102.078733 176.708442 101.978469 176.417572 101.878204 176.125946 101.453841 175.945379 101.035982 176.014886L95.5983916 176.925651C95.1805323 176.995913 94.9209284 177.291316 95.0217349 177.582565 95.1219995 177.873813 95.5458204 178.055135 95.9636797 177.984872"/>
    <path fill="#F4A891" d="M96.9068394,172 C96.8500463,172.011131 96.1964273,172.05363 95.4875098,172.097646 C94.263967,172.173032 93.0752971,172.54338 92.0201409,173.177829 L90,174.392592 C90,174.392592 91.4791118,177.923043 91.6474984,177.940245 C95.7540389,178.364729 97,176.388526 97,176.388526 L96.9068394,172 Z"/>
    <path fill="#F4A891" d="M60,157.047233 C60,157.047233 62.2276226,163.964653 64.5411849,169.610048 C65.1857335,171.177514 65.8344742,172.645799 66.4423411,173.843307 C66.620509,174.189126 66.801821,174.527598 66.9946615,174.852426 C69.3726787,178.957643 72.7044182,181.33954 77.5888383,180.960661 C77.6333803,180.956988 92,179.179092 92,179.179092 L91.4057577,174.190175 L76.6010546,174.794177 C74.9933515,174.939536 72.7353355,172.597521 71.7800413,171.030055 C71.705106,170.908835 71.639079,170.790764 71.5814365,170.680563 C71.1349687,169.823102 70.6523434,168.767279 70.1487571,167.590762 C67.1366718,160.521161 63.4653653,149 63.4653653,149 L60,157.047233 Z"/>
    <path fill="#E48867" d="M70.4225423,167 L65,168.930063 C65.6232807,170.427379 66.2511221,171.830424 66.8384248,172.974722 C67.0107138,173.305175 72,170.286473 72,170.286473 L70.4225423,167 Z"/>
    <path fill="#061D48" d="M59.0215462,151.174839 C59.0798107,151.884419 59.9661044,155.042424 60.1801146,155.740834 L64.8435209,171 L66.9175154,170.336697 L73,168.391468 L66.2054552,145.75405 C65.9477465,145.008832 64.1028886,144.846064 63.4098764,145.133833 C63.256932,145.190748 63.1157524,145.279579 62.9896993,145.400856 C60.6776044,147.588108 58.7750422,148.155666 59.0215462,151.174839"/>
    <path fill="#FFF" d="M71.5870518,167.070405 L64.6969555,169.797271 C64.1468271,170.014859 63.8648795,170.662358 64.0636746,171.249027 C64.2674259,171.846223 64.8913452,172.150963 65.4502845,171.925772 L72.324411,169.152697 C72.8216742,168.952071 73.0986657,168.38763 72.9676041,167.839566 C72.8145154,167.197916 72.1713222,166.839364 71.5870518,167.070405"/>
    <path fill="#F4A891" d="M56.955458,142.983705 L55.7042072,142.868524 C54.0796119,142.718736 52.8674139,141.215442 53.0116488,139.527751 L53.8416503,129.808253 C53.9853645,128.121104 55.4334413,126.862771 57.0580366,127.012019 L58.3092875,127.127199 C59.9344035,127.276988 62.1375005,129.156646 61.9932656,130.844337 L61.1637847,140.563834 C61.0195498,142.251525 58.580574,143.132953 56.955458,142.983705"/>
    <path fill="#DB734C" d="M75.832378,120.612813 C75.8011668,120.8105 75.7662527,121.007649 75.7271065,121.204258 C75.5340207,122.149601 75.2488885,123.059392 74.8791159,123.913701 C73.3005731,127.572256 61.5731216,115.106128 57.8785697,116.217915 C56.0434608,116.771654 56.8475443,131.21519 53.2635539,129.917567 C49.2960368,128.48097 48.7331784,119.034011 49.0907839,116.187211 C49.9932618,109.007458 57.2686301,104.279131 64.2588662,105.090348 C64.4583,105.114587 64.6572049,105.142597 64.8550518,105.174917 C69.2542347,105.89133 72.7953759,108.735975 74.6326008,112.516267 L74.6357748,112.521115 C75.1727121,113.630747 75.5625868,114.823871 75.7863548,116.064936 C76.0487399,117.527389 76.075719,119.063099 75.832378,120.612813"/>
    <path fill="#FFC4BC" d="M57.97777,120.929706 C57.9378701,121.208899 57.8509088,121.472552 57.7163745,121.709269 C57.5634248,121.99416 57.340906,122.291481 57.0815566,122.489868 C56.6124768,122.845722 56.0068166,123.070526 55.3801833,122.979879 L54.033817,122.786154 L53,122.640083 L53.4271337,119.534263 L53.4307145,119.534263 L53.5074451,118.959821 L53.5688295,118.513838 L53.6276563,118.105668 L53.6404448,118 L53.6440255,118.000518 L56.0206281,118.339796 C56.6216845,118.424745 57.1342449,118.738642 57.4887403,119.179445 C57.7030745,119.447242 57.8565357,119.767355 57.9363355,120.107151 C58.0038585,120.373394 58.01767,120.64637 57.97777,120.929706"/>
    <path fill="#FFC7B0" d="M53.0420093,124.39794 C53.0276465,124.519565 53.0209781,124.637552 53.0143096,124.760217 C53.0107189,124.79816 53.0112319,124.836622 53.0117449,124.875085 C52.9394179,126.395919 53.2035908,127.874652 53.7365533,129.231239 C53.7611752,129.298809 53.7893879,129.366898 53.8176005,129.434468 C54.7003997,131.548354 56.2444007,133.345183 58.2285188,134.525051 C58.2321095,134.529209 58.2357002,134.529729 58.2357002,134.529729 C59.0025711,134.986083 59.8386912,135.349399 60.7255941,135.597847 C61.0513219,135.688806 61.3775626,135.76781 61.7130366,135.832781 C61.8474313,135.85565 61.9818261,135.875921 62.1203245,135.896192 C62.6143022,135.963242 63.0995597,136.003264 63.5848171,135.997027 C63.7207507,136.001185 63.860788,136.002224 63.9982605,135.991829 C68.538957,135.831741 72.5005249,132.729261 73.7485496,128.334644 C73.8808925,127.866855 73.9875876,127.377236 74.0537591,126.88034 L74.1578894,126.12616 L74.856537,121.087554 C74.964258,120.329216 75.0181185,119.585951 74.9945224,118.85828 C74.9796467,118.292775 74.9109104,117.733507 74.7775416,117.184635 C74.4338603,115.744885 73.9055144,114.423121 73.0263059,113.257807 C71.3874079,111.076351 68.898027,109.520173 66.0059747,109.10696 C63.8438605,108.797699 61.7350937,109.17245 59.8884481,110.05813 C59.6232492,110.188072 59.3606152,110.329448 59.1051625,110.47914 C57.8273863,111.228122 56.7117046,112.244784 55.8442941,113.456877 C55.8442941,113.456877 55.8401904,113.459995 55.8401904,113.463634 C55.6114116,113.781211 55.3959696,114.119058 55.2072013,114.462623 C55.1712943,114.524475 55.139491,114.583209 55.1071747,114.653377 C54.8773699,115.070229 54.6650057,115.507871 54.4849577,115.960067 C54.2202718,116.604057 54.0171408,117.28443 53.9130105,117.997028 L53.8960829,118.10306 L53.8376058,118.512116 L53.775538,118.959634 L53.6950037,119.531896 L53.6950037,119.535534 L53.6883353,119.565681 L53.6760243,119.664436 L53.6375525,119.929516 L53.2666845,122.652568 L53.1389582,123.550722 L53.093818,123.892208 L53.0871495,123.968094 C53.0671442,124.112589 53.0471389,124.256564 53.0420093,124.39794"/>
    <path fill="#FFC4BC" d="M52.0256106,122.036665 C51.8451114,123.211547 52.6359025,124.373519 53.8551239,124.766376 C53.9675102,124.802649 54.0846645,124.834619 54.20863,124.857981 C54.2617581,124.876425 54.3264654,124.881344 54.3911726,124.89118 L55.2405408,125 L55.4932398,123.399061 L55.5484113,123.040633 L56,120.134474 L55.1458639,120.025655 C55.0661718,120.013973 54.9966966,120.009055 54.9210912,120.007211 L54.9163233,120.007211 C54.8066615,119.997989 54.6956374,119.998603 54.5893813,120.003522 C54.5893813,120.003522 54.5852945,119.998603 54.5846133,120.002907 C54.034942,120.018277 53.5166026,120.171977 53.0963459,120.456014 C52.5310086,120.837805 52.1318668,121.368377 52.0256106,122.036665"/>
    <path fill="#F4A891" d="M53.5163029,124.653881 L53.5151894,124.665283 C53.4929203,124.816219 53.4712079,124.966611 53.4661974,125.114832 C53.450609,125.241879 53.4433716,125.365125 53.4355774,125.492714 C53.432237,125.532892 53.4327938,125.572526 53.4333505,125.613246 C53.4528359,125.622476 53.4734349,125.624105 53.4929203,125.630077 C53.4027305,127.214358 53.6621654,128.748147 54.2200063,130.163576 C54.2467292,130.234157 54.2767925,130.304738 54.3074125,130.375863 C55.2527356,132.642612 56.9518676,134.573828 59.152611,135.830721 C59.1559514,135.835064 59.1604052,135.835607 59.1604052,135.835607 C61.0143074,137.150593 61.1557162,136.994228 61.1557162,136.994228 C61.1557162,136.994228 62.1088335,136.956766 61.9896938,136.866096 C61.239782,136.296015 58.9922735,134.595546 58.3743061,130.775462 C58.0647657,128.863792 57.9439558,125.926519 58.2100715,123.271572 L58.2278868,123.072315 C58.3509236,121.856143 58.5123745,120.715438 58.6526698,119.801138 C58.65434,119.785392 58.6560102,119.765304 58.6615774,119.750102 C58.8542051,118.48778 59.0150993,117.667407 59.0150993,117.667407 C58.2930239,115.708501 56.708021,115.731847 55.0896145,116.437661 C54.8179315,117.071808 54.6058184,117.739074 54.4883489,118.438916 C54.479998,118.482351 54.4766576,118.521985 54.4683067,118.56542 L54.4644096,118.564877 L54.4504914,118.676178 L54.3870245,119.103467 L54.3196605,119.570934 L54.2322543,120.168704 L54.2322543,120.173047 C54.2077583,120.170876 54.1788085,120.168161 54.1543125,120.16979 L54.1125579,120.447229 C53.6632789,120.460259 53.2396094,120.595993 52.8961086,120.846828 C52.4340248,121.18399 52.1077826,121.653085 52.0209331,122.243255 C51.8734003,123.280801 52.5197608,124.306947 53.5163029,124.653881"/>
    <path fill="#DB734C" d="M72.0125062,111.097263 C72.0992482,112.039411 73.0465757,112.601257 72.9982105,113.444809 C72.8667832,115.727144 70.0652802,115.673412 69.3182478,115.60768 C69.3182478,115.60768 59.4832847,114.118815 56.7117471,118.611495 L55.3801263,120.600127 C55.1840369,120.892266 54.8312862,121.045117 54.4822154,120.988255 C54.4759069,120.987211 54.4690727,120.986168 54.4627642,120.985125 C54.0400942,120.914698 53.7257203,120.564653 53.7088976,120.139487 C53.6258356,118.071038 52.9608137,112.091579 53.001819,111.633025 C53.0680584,110.887549 53.847159,110.086253 54.3844336,109.636046 C54.9211824,109.190013 55.6340438,108.944825 56.3816019,109.010556 L69.689924,110.18172 C71.0299562,110.299619 71.890016,109.767509 72.0125062,111.097263"/>
    <path fill="#DB734C" d="M71.6276757,114.834947 C71.6276757,114.834947 74.920921,114.99504 75.900769,119 C75.900769,119 76.9958621,115.113392 71.9102118,110.567921 C66.8245616,106.021921 56.8906553,108.560157 55.9575425,110.23347 C55.0238987,111.906782 55,113.271005 55,113.271005 L71.6276757,114.834947 Z"/>
    <path fill="#061D48" d="M41.9316329,157.685889 L39,191.898372 L39.0310566,191.901023 L46.2308257,192.223347 L63.4184941,193 L63.6235746,190.622329 L63.981796,173.804218 L66.6526608,160.361498 C66.9835739,158.697924 67.0810273,156.996179 66.93217,155.307688 C66.2574928,147.642947 64.9638261,138.942315 57.6478626,139.675497 L53.2769184,139.291677 C52.5074651,139.224349 51.9832517,138.948147 51.2427132,139.008583 C50.1107548,139.105068 48.3437432,140.22578 47.4945067,140.930334 C42.2330958,145.290723 42.8478017,149.881191 41.9316329,157.685889"/>
    <path fill="#4D6199" d="M56.581583,171 C56.581583,171 54.8082872,161.040803 54.1230189,156.325452 C52.4636719,144.900907 52,139.462103 52,139.462103 L59.0721787,139 L63,140.05172 C63,140.05172 62.7516231,146.158124 60.9074375,155.689994 C60.15443,159.581252 56.581583,171 56.581583,171"/>
    <path stroke="#FFF" stroke-width=".736" d="M59,139 L57,171"/>
    <path fill="#FFF" d="M52 140.410316L56.2683673 141.948527C57.5423469 142.25711 58.7653061 141.146479 59 139.467759L53.0234694 138.018291C52.5255102 137.89795 52.0617347 138.386036 52.0413265 139.052953L52 140.410316zM63.9413339 141L62.0561869 140.851322C60.5400551 140.90999 59.0873196 140.289159 59 139.270514L59.3737998 139.270514 62.7535478 139.000884C63.4479182 138.979185 64.0220747 139.35972 63.9993477 139.82665L63.9413339 141z"/>
    <path fill="#FFF" d="M57.0044497 141.470577C56.9679226 141.746285 57.1602984 141.982762 57.4338455 141.999108 57.7082042 142.015455 57.9590233 141.805132 57.9955503 141.529423 58.0320774 141.25426 57.8397016 141.017238 57.5661545 141.000892 57.2917958 140.984545 57.0409767 141.194868 57.0044497 141.470577M57.0044497 145.470577C56.9679226 145.746285 57.1602984 145.982217 57.4338455 145.999108 57.7082042 146.015455 57.9590233 145.805132 57.9955503 145.529423 58.0320774 145.25426 57.8397016 145.017238 57.5661545 145.000892 57.2917958 144.984545 57.0409767 145.194868 57.0044497 145.470577M57.0044497 148.470089C56.9679226 148.745797 57.1602984 148.982274 57.4338455 148.999165 57.7082042 149.014966 57.9590233 148.804644 57.9955503 148.528936 58.0320774 148.253773 57.8397016 148.016752 57.5661545 148.00095 57.2917958 147.984059 57.0409767 148.194382 57.0044497 148.470089M57.0044497 150.470577C56.9679226 150.746285 57.1602984 150.982762 57.4338455 150.999108 57.7082042 151.015455 57.9590233 150.805132 57.9955503 150.529423 58.0320774 150.25426 57.8397016 150.017238 57.5661545 150.000892 57.2917958 149.984545 57.0409767 150.194868 57.0044497 150.470577"/>
    <path fill="#F4A891" d="M12.6861379,230.935173 C26.961258,231.88752 36.6853204,231.942 41.6328492,230.668012 C42.5120982,229.986492 44.0807216,219.51119 40.506008,208.007583 C39.9040191,206.071456 50.3519786,207.384209 50.6756286,208.160021 C55.709464,220.227808 51.6066616,235.245882 47.4331956,237.424024 C39.4665523,241.579152 27.5184753,239.983001 12,237.688565 L12.6861379,230.935173 Z"/>
    <path fill="#07113D" d="M12.3111428,237.747937 L5.58611277,240.810358 C4.52838195,241.333262 3.81947726,242.31896 3.69626287,243.43605 C3.60005438,244.327593 2.79944217,245.004762 1.84635919,244.999975 L1.84242083,244.999975 C0.767248714,244.994123 -0.0761228229,244.133433 0.00545747925,243.125924 L0.198999713,240.326818 C0.299146567,238.874069 0.9793575,237.510688 2.1034778,236.509032 L10.0927212,229.391577 C10.6232745,229.062833 11.2674775,228.934102 11.8942393,229.03198 C13.3148618,229.254866 14.248253,230.549626 13.9416236,231.872579 L12.3111428,237.747937 Z"/>
    <polygon fill="#07113D" points="1 229.461 1.117 231 12 230.539 11.883 229"/>
    <path fill="#4D6199" d="M13.3116234,237.747934 L6.58580608,240.810356 C5.52860256,241.333793 4.81967418,242.319491 4.69589304,243.436049 C4.60024397,244.327593 3.79904237,245.004762 2.84649019,244.999975 L2.84198906,244.999975 C1.76734365,244.994123 0.923381295,244.133432 1.00552696,243.125924 L1.14393679,241.120482 C1.27953341,239.157595 2.19888974,237.315461 3.71802198,235.962187 L11.0925651,229.392103 C11.6236987,229.062828 12.2673607,228.934096 12.894706,229.031975 C14.315376,229.254861 15.2482357,230.549621 14.9415961,231.873106 L13.3116234,237.747934 Z"/>
    <path stroke="#07113D" stroke-linecap="round" stroke-width=".811" d="M8 240L7 239M10 238L9 237M11 238L10 237"/>
    <path fill="#FFC7B0" d="M57,210.70084 C57.4954639,211.005864 64.0696129,220.102495 67.8129339,232.294993 C67.5754206,239.218256 69.8257216,251.273361 68.9115713,263.761335 L75.9508046,265 C76.3059699,257.476236 77.428911,242.622331 76.8246328,231.988377 C76.5887765,227.838981 70.2394367,212.379271 65.375384,205.04807 C64.9390222,204.390278 57,210.70084 57,210.70084"/>
    <path fill="#07113D" d="M73.6720651,265.249423 L76.1635739,272.215678 C76.5959672,273.3144 77.5100802,274.107234 78.5989346,274.328215 C79.4679192,274.501402 80.0713807,275.358337 79.9931931,276.306926 L79.9926683,276.311425 C79.9045105,277.380907 78.9930212,278.146189 78.0091166,277.976376 L75.2720251,277.538349 C73.8515293,277.311745 72.5637949,276.514413 71.6659491,275.307731 L65.2860492,266.728255 C65.0032094,266.17046 64.9265961,265.518199 65.0719516,264.901925 C65.4004445,263.50575 66.7448518,262.689862 68.0226159,263.11102 L73.6720651,265.249423 Z"/>
    <polygon fill="#07113D" points="65 274.946 66.758 275 67 264.054 65.242 264"/>
    <path fill="#4D6199" d="M73.6720651,265.248885 L76.1635739,272.215768 C76.596492,273.3145 77.5100802,274.106779 78.5989346,274.327762 C79.4679192,274.50095 80.0713807,275.358456 79.9931931,276.306492 L79.9926683,276.31099 C79.9045105,277.380483 78.9930212,278.145772 78.0091166,277.97652 L76.0481291,277.662757 C74.1291215,277.355742 72.3885287,276.278939 71.1758334,274.64771 L65.2860492,266.727731 C65.0032094,266.16993 64.9265961,265.517664 65.0719516,264.901384 C65.4004445,263.505758 66.7453766,262.689863 68.0226159,263.111025 L73.6720651,265.248885 Z"/>
    <path stroke="#07113D" stroke-linecap="round" stroke-width=".811" d="M76 269L75 270M75 268L74 269M75 267L74 268"/>
    <path fill="#061D48" d="M58.17,213.0525 L58,213 C58.056,213.1025 58.17,213.0525 58.17,213.0525"/>
    <path fill="#061D48" d="M58.17,213.0525 L58,213 C58.056,213.1025 58.17,213.0525 58.17,213.0525"/>
    <path fill="#07113D" d="M40.5257795,189 C40.6253605,189.957606 37.5559246,201.530521 38.0548943,207.778478 C38.5543965,214.025895 38.7492983,225.877278 38.7492983,225.877278 C38.7492983,225.877278 57.796415,227.380465 74.9685346,219.865072 C75.5867885,219.594174 66.9376252,196.639757 62.79836,190.018166 L40.5257795,189 Z"/>
    <path fill="#828588" d="M31.0035693,195.841633 C30.9841609,196.204422 31.0434641,196.576047 31.1922612,196.936757 L35.0254026,206.327172 C35.5790786,207.684252 37.1667862,208.349539 38.5738888,207.81575 L55.263958,201.485134 C56.6715997,200.951345 57.3638294,199.418588 56.807997,198.064106 L56.7659456,197.958076 L52.9743164,188.674211 C52.4211795,187.31713 50.8334719,186.651324 49.4274476,187.183034 L43.022705,189.611329 L36.6319794,192.037546 L32.7363001,193.51521 C31.7033467,193.910743 31.0569421,194.839545 31.0035693,195.841633"/>
    <path fill="#FFF" d="M46.7075155,195.092679 C46.1797674,195.324915 45.8825488,195.919211 46.0439195,196.420227 C46.2057019,196.921243 46.7643246,197.139536 47.2924845,196.906818 C47.8202326,196.675062 48.1174512,196.080767 47.9560805,195.579751 C47.7942981,195.078735 47.2356754,194.860923 46.7075155,195.092679"/>
    <path fill="#FFC7B0" d="M39.1639305,189.242236 L42.6794467,193.716672 C42.9361516,194.043462 43.4062617,194.095367 43.7248231,193.831604 C44.0423536,193.567841 44.0928698,193.084276 43.8356495,192.758015 L40.3206487,188.282521 C40.0639439,187.95626 39.5933183,187.904884 39.2752723,188.168647 C38.9577418,188.43241 38.9072256,188.915446 39.1639305,189.242236"/>
    <path fill="#FFC7B0" d="M36.5475141 187.918421L42.0319429 189.961707C42.4320244 190.111001 42.8547124 189.810378 42.9703733 189.292601 43.0860341 188.776181 42.8526095 188.231259 42.4520022 188.081966L36.9680991 186.038001C36.5674919 185.889386 36.1453297 186.190009 36.0296688 186.707107 35.9140079 187.224206 36.1469069 187.768449 36.5475141 187.918421M38.1902955 192.213521L41.4669981 195.723688C41.7649889 196.042418 42.3107071 196.093125 42.6799046 195.83545 43.0491021 195.577776 43.1077429 195.10589 42.809752 194.786643L39.5330494 191.276476C39.2350586 190.957228 38.688742 190.907039 38.3195445 191.164713 37.9509454 191.422388 37.8923047 191.894791 38.1902955 192.213521M36.1700269 192.289985L39.6315978 196.706104C39.8975848 197.045467 40.3852278 197.098819 40.7147741 196.824908 41.0437862 196.550998 41.096129 196.049378 40.8301419 195.710015L37.3685711 191.293896C37.102584 190.954533 36.6149411 190.901181 36.2853948 191.175092 35.9558486 191.449002 35.9040399 191.950622 36.1700269 192.289985"/>
    <path fill="#FFC7B0" d="M43,189.107319 C42.9589717,189.061583 42.5790144,188.502537 42.169921,187.895322 C41.4635214,186.846806 40.4615994,185.951067 39.2479954,185.28206 L36.9242499,184 C36.9242499,184 33.9333492,186.762146 34.0011351,186.917356 C35.6529685,190.715368 38.389375,191 38.389375,191 L43,189.107319 Z"/>
    <path fill="#FFC7B0" d="M40.9886536,150.318936 C40.9886536,150.318936 35.5433985,155.332679 31.3174399,159.87541 C30.1456625,161.137954 29.0678432,162.363007 28.2232995,163.432817 C27.9803042,163.744361 27.7459487,164.055377 27.5294128,164.370617 C24.7641261,168.307157 24.0227204,172.368843 26.533672,176.65125 C26.5568916,176.689797 34.5595374,189 34.5595374,189 L38.9339932,186.30541 L31.82881,173.090146 C30.9831863,171.689783 32.1625236,168.623453 33.1976837,167.077351 C33.2770621,166.956958 33.3569806,166.846069 33.4341991,166.745742 C34.0341275,165.968995 34.8019928,165.074494 35.672996,164.107653 C40.913055,158.315051 50,150 50,150 L40.9886536,150.318936 Z"/>
    <path fill="#E48867" d="M35,164.113783 L30.9119011,160 C29.8120779,161.227566 28.8004432,162.417669 28.0077595,163.457918 C27.7791787,163.760704 32.6766867,167 32.6766867,167 L35,164.113783 Z"/>
    <path fill="#061D48" d="M46.872097,143.344909 C46.2896936,143.722859 30,160.53615 30,160.53615 L31.4785281,161.925441 L35.8147155,166 L51.6591941,149.168463 C52.1841337,148.611183 52.074383,147.751021 51.5235588,147.317291 C51.4081135,147.219285 51.2698898,147.144738 51.1104406,147.098341 C48.2222375,146.223061 49.3497705,141.737189 46.872097,143.344909"/>
    <path fill="#FFF" d="M34.6997637,165.257792 L29.7159168,160.292818 C29.3183746,159.896858 28.683556,159.903262 28.2927782,160.307226 C27.8952361,160.718662 27.9035615,161.384643 28.3115106,161.785405 L33.3255374,166.717827 C33.6882166,167.074298 34.25435,167.095643 34.6414853,166.766922 C35.0952245,166.382168 35.1222824,165.678299 34.6997637,165.257792"/>
    <path fill="#F4A891" d="M119.119566,193.666978 L122.902047,201.372595 C123.178801,201.935542 123.849541,202.162161 124.393414,201.876255 C124.939427,201.589241 125.156762,200.898301 124.879473,200.333137 L121.096456,192.626967 C120.820237,192.06402 120.149497,191.837954 119.605625,192.12386 C119.062288,192.409767 118.843347,193.104031 119.119566,193.666978"/>
    <path stroke="#07113D" stroke-width="4.35" d="M116.553721,207 L116.134913,205.601791 C115.6248,203.900179 116.605824,202.11167 118.325719,201.60747 L123.351422,200.133656 C125.071813,199.628475 126.879538,200.599562 127.389155,202.301174 L128,204.339083"/>
    <path fill="#6D322E" d="M139.048022,200 L150,236.844583 L115.646147,247 L106.223439,215.299627 C105.378568,212.458866 107.003484,209.472913 109.852135,208.630912 L139.048022,200 Z"/>
    <polygon fill="#542221" points="144.048 216 109 226.695 109.952 230 145 219.305"/>
    <path fill="#542221" d="M126.101877,226.892219 C124.698026,227.299796 123.223147,226.515837 122.806901,225.141225 L122,222.474845 L127.082692,221 L127.890116,223.665869 C128.305839,225.040481 127.505728,226.484642 126.101877,226.892219"/>
    <path fill="#929498" d="M126.101877,228.892219 C124.698026,229.299796 123.223147,228.515837 122.806901,227.141225 L122,224.474845 L127.082692,223 L127.890116,225.665869 C128.305839,227.040481 127.505728,228.484642 126.101877,228.892219"/>
    <path fill="#B7B9BD" d="M125.418227,227.910415 C124.24823,228.249607 123.019159,227.595933 122.672175,226.450881 L122,224.229289 L126.235504,223 L126.908252,225.221592 C127.255237,226.367206 126.58765,227.570662 125.418227,227.910415"/>
    <path fill="#542221" d="M144,219.38959 L138.459472,221 L134.239766,207.043656 C133.332834,204.042732 135.07799,200.889821 138.137923,200 L144,219.38959 Z"/>
    <path fill="#893836" d="M150,236.576398 L145.007162,238 L135.216134,206.227139 C134.398616,203.574566 135.971694,200.786436 138.729105,200 L150,236.576398 Z"/>
    <path fill="#FFC7B0" d="M117.704705,201.785214 C117.778863,201.73564 123.043039,200.73617 122.999734,199.690325 C122.9272,197.949382 122.565068,195.990953 121.993993,194.278795 L120.900019,191 C120.900019,191 116.012049,192.259599 115.754389,192.316102 C112.174208,193.109815 115.182231,199.342776 115.182231,199.342776 C115.182231,199.342776 116.04994,202.895026 117.704705,201.785214"/>
    <path fill="#FFC7B0" d="M119.051798,194.404907 L121.673588,202.231216 C121.864796,202.803131 122.533163,203.12739 123.159039,202.952668 C123.784341,202.777421 124.13977,202.166679 123.947988,201.595289 L121.326198,193.768455 C121.13499,193.197065 120.466623,192.872281 119.841321,193.047528 C119.215445,193.222251 118.86059,193.832992 119.051798,194.404907"/>
    <path fill="#FFC7B0" d="M118.046217 196.494747L119.924429 203.182336C120.095548 203.789791 120.691904 204.135952 121.249834 203.949472 121.807765 203.76355 122.124387 203.113104 121.95378 202.505091L120.075568 195.81806C119.904961 195.209488 119.308093 194.864444 118.750675 195.050366 118.192232 195.236846 117.87561 195.886733 118.046217 196.494747M114.053184 196.461487L116.611318 204.200687C116.807644 204.795171 117.493901 205.132536 118.13653 204.950752 118.778569 204.768967 119.143511 204.133542 118.946595 203.538513L116.388462 195.799313C116.192136 195.204829 115.505879 194.867464 114.86384 195.049248 114.221211 195.231578 113.856858 195.867004 114.053184 196.461487"/>
    <polygon fill="#EAECEE" points="123 191.119 122.042 189 113 191.974 113.694 194"/>
    <path fill="#FFC7B0" d="M290.246661,188.87617 C290.318427,188.85302 295.086612,189.373644 295.324996,188.438372 C295.721969,186.881128 295.944795,185.052253 295.938271,183.382344 L296,179.370653 C296,179.370653 292.552212,178.029478 292.332899,178.008385 C289.283589,177.716692 289.044703,185.131993 289.044703,185.131993 C289.044703,185.131993 288.643214,189.397309 290.246661,188.87617"/>
    <path fill="#FFC7B0" d="M293.108665 187.036374L293.000102 194.937691C292.992492 195.51488 293.411526 195.992745 293.931007 195.999918 294.450994 196.007092 294.883218 195.540815 294.891335 194.963626L294.999898 187.062309C295.007508 186.48512 294.588474 186.007255 294.068993 186.000082 293.548499 185.992908 293.116782 186.459185 293.108665 187.036374M291.088299 188.105287L291.000103 194.867656C290.992412 195.482898 291.415958 195.992267 291.941544 195.999913 292.467131 196.007559 292.904009 195.510543 292.912214 194.895301L292.999897 188.132344C293.007588 187.517102 292.584042 187.007733 292.058968 187.000087 291.532869 186.992441 291.096503 187.490045 291.088299 188.105287M289.103856 184.078633L289.000102 191.894374C288.992473 192.495099 289.412064 192.992449 289.933883 192.999915 290.455193 193.007381 290.888515 192.521518 290.896144 191.920793L290.999898 184.105626C291.007527 183.504901 290.587427 183.007551 290.066626 183.000085 289.544808 182.992619 289.111993 183.477908 289.103856 184.078633M294.045294 180.433844L296.199692 188.249906C296.356619 188.820467 296.880862 189.133616 297.363028 188.945152 297.847668 188.756689 298.112513 188.139011 297.954101 187.566151L295.800198 179.750664C295.643271 179.179528 295.119523 178.86638 294.636367 179.054843 294.154202 179.242732 293.887872 179.863283 294.045294 180.433844"/>
    <path fill="#F4B84D" d="M331,145.185551 C330.977403,145.194387 329.955138,145.593555 328.328662,146.318087 C327.279496,146.778586 325.975302,147.37578 324.521534,148.077443 C323.894725,148.384615 323.245318,148.709459 322.567933,149.056133 C322.327432,149.179314 322.086931,149.306653 321.841587,149.433992 C315.521842,152.733888 309.952115,155.972973 307.194691,159.005198 C302.697266,163.946985 299.467449,171.223493 297.822679,175.506757 C297.695703,175.839917 297.572494,176.160603 297.468115,176.454262 C296.890805,177.994802 296.595962,178.964657 296.581973,179 L295.73726,178.837318 L289.863544,177.696466 L289,177.529626 C289.050037,177.340437 289.340575,175.831081 289.958776,173.566528 C290.562988,171.341476 291.476032,168.384096 292.770541,165.232328 C292.770541,165.224012 292.775384,165.215177 292.779688,165.206341 C294.537983,160.923077 296.991417,156.284823 300.320771,152.628378 C306.622223,145.712578 319.635111,138.002599 325.350106,135.452703 C325.427583,135.417879 325.504522,135.386694 325.581999,135.351871 C327.41239,134.540021 328.611668,134.070166 328.797827,134 L329.020573,134.535343 L331,145.185551 Z"/>
    <polygon fill="#FFF" points="299 177.158 298.554 177.056 290.263 175.134 289.691 175.002 289.682 175 289 179.238 290.012 179.44 294.984 180.438 295.874 180.615 296.352 180.711 297.789 181"/>
    <path fill="#DB734C" d="M290.030793,176.345632 C290.126046,176.082881 290.413128,175.939524 290.671987,176.024445 C290.931287,176.109787 291.064464,176.391876 290.969211,176.654626 C290.873958,176.916956 290.586877,177.060733 290.327577,176.975392 C290.068718,176.890051 289.93554,176.607962 290.030793,176.345632"/>
    <path fill="#9995A7" d="M339,268.295251 L346.170424,269 L346.584287,268.093671 L347.081427,267.000868 L347.172779,266.797205 L348.649058,263.562549 L351,258.412623 L345.392665,257.158868 L344.679004,257 C344.55535,257.217206 343.854812,258.591284 343.042227,260.192986 C342.5143,261.235784 341.936406,262.374946 341.436238,263.354718 C341.427658,263.370866 341.419583,263.39118 341.407974,263.413057 C341.399899,263.433371 341.387786,263.455248 341.376178,263.476604 C341.231326,263.764129 341.095054,264.034465 340.9714,264.283966 C340.496972,265.211129 339,268.295251 339,268.295251"/>
    <path fill="#65324E" d="M337,273.506485 L355.564258,276.963167 C356.670798,277.169924 357.744523,276.485327 357.96185,275.434181 C358.128611,274.625529 357.738606,273.804624 356.988719,273.388557 L348.432807,268.637214 L338.345384,267 L337,273.506485 Z"/>
    <path fill="#07113D" d="M355.430577,277.97562 L337,274.370154 L337.248663,273 L357,276.863429 C356.863025,277.620375 356.160235,278.118265 355.430577,277.97562"/>
    <path stroke="#07113D" stroke-linecap="round" stroke-width=".844" d="M348 271L350 269M349 272L351 270M351 272L353 270"/>
    <path fill="#591239" d="M339,262.127183 L341.586757,263.596584 L342.166012,263.926189 L347.78037,267.110067 L349.346484,268 C349.346484,268 350.020011,266.777803 351.120758,264.79911 C352.901572,261.58812 355.812014,256.381424 358.819998,251.11625 C368.112053,234.863003 369.170841,229.485125 368.980663,226.371421 C368.535459,218.997839 359.926195,199.05461 356.27956,192 L354.07425,192.63954 L342.645546,201.062011 C343.620416,202.240614 356.568915,224.874908 356.862629,227.011493 C356.596161,230.452144 349.491979,244.316286 340.869636,258.976266 C340.252237,260.025154 339.630478,261.075105 339,262.127183"/>
    <polygon fill="#07113D" points="338 262.552 348.73 268 350 264.132 349.838 264.052 339.464 259.085 339.281 259"/>
    <path fill="#07113D" d="M341.495851,262.663287 C341.487336,262.68371 341.475096,262.705704 341.462856,262.727174 L342.050898,263 C342.050898,263 342.063138,262.97853 342.091343,262.929306 C342.249927,262.643912 342.887992,261.50443 343.839502,259.782115 C344.371667,258.813346 345.002281,257.662867 345.69782,256.375713 C351.196674,246.223534 360.875146,227.644633 359.936409,224.266508 C358.719349,219.886624 344.024695,202.038751 343.999684,202 L343.311063,202.048177 C343.311063,202.048177 356.15751,224.46288 356.444346,226.567466 C356.184118,229.956588 349.24576,243.613093 340.825324,258.053516 L340.648645,257.954545 L339,261.157244 L341.495851,262.663287 Z"/>
    <path fill="#F4A891" d="M343.294309,139.71261 L341.070778,139.990666 C339.030055,140.24546 336.565624,135.216646 336.314597,133.145831 L335.028019,122.534795 C334.776993,120.463979 336.241048,118.560863 338.281772,118.306068 L340.505302,118.028553 C342.545493,117.773217 344.420464,119.259249 344.671491,121.330606 L345.958069,131.941101 C346.209096,134.012457 345.3345,139.457815 343.294309,139.71261"/>
    <path fill="#07113D" d="M357.977593,106.723162 C357.989468,106.953566 357.997025,107.18451 357.999724,107.415454 C358.006201,108.527989 357.898786,109.623217 357.680717,110.67734 C356.753386,115.188055 353.866136,119.023245 349.902037,121.183953 C347.934562,122.259169 345.699899,122.918469 343.30978,123.043947 C339.441761,123.246767 336.311073,125.151652 333.47942,122.941726 C332.566663,122.229963 331.733792,121.424633 331.004557,120.52898 C330.717938,120.176344 330.444812,119.817758 330.190039,119.444569 C328.63549,117.167577 327.176482,111.300943 327.021567,108.347344 C326.586509,100.016583 332.784731,92.8751581 340.986054,92.072532 C341.219776,92.0508979 341.454578,92.0335906 341.68884,92.0216918 C346.900355,91.7480201 351.640109,94.0839649 354.654206,97.8926528 L354.659604,97.8975205 C355.541054,99.0160048 356.275146,100.265376 356.830034,101.608855 C357.48262,103.192473 357.883133,104.916713 357.977593,106.723162"/>
    <path fill="#FFC4BC" d="M337.993193,111.626852 C338.016888,111.975106 337.978865,112.316662 337.876922,112.638127 C337.764508,113.022657 337.57109,113.440673 337.308792,113.748743 C336.832136,114.301819 336.157653,114.732671 335.376819,114.787364 L333.698879,114.906239 L332.411632,115 L332.133905,111.131819 L332.138864,111.131261 L332.08431,110.416336 L332.045186,109.861028 L332.011572,109.3526 L332,109.220889 L332.004959,109.220331 L334.965738,109.007695 C335.713509,108.952444 336.41389,109.198007 336.954468,109.638347 C337.282341,109.906234 337.549599,110.252813 337.733098,110.642924 C337.882432,110.947088 337.968947,111.273576 337.993193,111.626852"/>
    <path fill="#FFC7B0" d="M357.470611,108.660283 L357.902033,114.658775 L357.967204,115.556836 C358.012986,116.147694 358.008138,116.740158 357.969359,117.313889 C357.592336,122.705468 353.696608,127.284082 348.384889,128.607625 C348.225462,128.654187 348.060111,128.68844 347.899068,128.71734 C347.328147,128.845788 346.746454,128.921786 346.147526,128.967813 C345.566371,129.011164 344.998143,129.008488 344.429915,128.973165 C343.322006,128.907871 342.246412,128.698073 341.229527,128.362504 C341.229527,128.362504 341.224679,128.36304 341.219832,128.359293 C336.787116,126.902486 333.383673,123.102584 332.643092,118.380003 C332.621009,118.23764 332.598926,118.099024 332.585999,117.955056 C332.556376,117.790215 332.544527,117.618417 332.532139,117.446618 L332.521367,117.35724 L332.489051,116.951561 L332.4158,115.881166 L332.144882,112.208106 L332.144882,112.171713 L332.144344,112.166896 L332.096408,111.48559 L332.057628,110.953068 L332.024773,110.465504 L332.01831,110.338662 C331.963911,109.489304 332.03393,108.65172 332.185816,107.841431 C332.284919,107.273586 332.426573,106.714305 332.59354,106.174826 C332.614546,106.085983 332.637167,106.009985 332.663559,105.929706 C332.800903,105.484421 332.970563,105.040743 333.160691,104.616331 C333.160152,104.612585 333.164461,104.607233 333.164461,104.607233 C333.885114,102.989331 334.946704,101.534665 336.266285,100.348667 C336.529663,100.111575 336.803812,99.8819751 337.083887,99.6657554 C339.03956,98.178977 341.432042,97.2172273 344.05774,97.0325842 C347.568365,96.785323 350.889401,97.9595461 353.364289,100.069829 C354.690334,101.19642 355.642048,102.59168 356.405251,104.168906 C356.699868,104.770468 356.920157,105.399325 357.077968,106.04959 C357.286947,106.884498 357.40921,107.757405 357.470611,108.660283"/>
    <path fill="#FFC4BC" d="M334.49581,112 L334.798567,115.538066 L335,117.926439 L333.879375,117.994576 C333.797467,117.998644 333.715559,118.002712 333.637291,117.997627 C331.753404,118.001695 330.147397,116.726913 330.00967,115.157716 C329.936256,114.343626 330.285731,113.624114 330.891851,113.042402 C331.434872,112.523235 332.202382,112.197802 333.075462,112.099155 L333.080922,112.098647 C333.181032,112.079324 333.267794,112.07068 333.370938,112.068646 L334.49581,112 Z"/>
    <path fill="#F4A891" d="M346,128.913402 C346,128.913402 343.81349,129.335658 341.540699,128.315339 C341.540699,128.315339 341.53649,128.31587 341.531755,128.311621 C337.20135,126.86639 333.877392,123.094768 333.153992,118.408524 C331.520949,118.412773 330.127812,117.081207 330.008385,115.44211 C329.944726,114.591756 330.247765,113.840193 330.773348,113.23257 C331.244216,112.690276 331.909744,112.349816 332.666815,112.247306 L332.666289,112.242525 L332.619465,111.565854 L332.582111,111.03737 L332.550019,110.553502 L332.53897,110.428153 L332.543705,110.427622 C332.490042,109.584703 332.558963,108.754001 332.706799,107.949325 C334.259347,106.803126 335.935005,106.414331 337.157157,108.3992 C337.157157,108.3992 337.176623,109.36428 337.269218,110.825445 C337.335508,111.919593 337.439677,113.289401 337.607506,114.737288 C337.94369,117.714325 338.525041,121.016951 339.529383,122.939144 C341.668017,127.04326 346,128.913402 346,128.913402"/>
    <path fill="#07113D" d="M353.284834 101.710267C353.284834 101.710267 347.461075 106.355054 340.303406 107.776764 335.643543 108.70274 333.663262 116.430562 333.68732 115.981153 333.711379 115.532275 331.055856 111.639877 331.079914 111.191 331.103973 110.74159 329.22153 95.1842422 342.436592 96.0335412 355.65219 96.8833727 357 105.508949 357 105.508949L353.284834 101.710267zM349 95L360 100.500784C360 100.500784 358.086437 101.759308 355.266077 100.279873 352.446261 98.7999591 349 95 349 95"/>
    <path fill="#F4B84D" d="M354.913157,185.993556 C354.887098,187.86615 354.869378,188.975874 354.869378,188.975874 L354.820909,188.975874 C354.376866,189.007022 350.600937,189.26096 345.834772,189.577722 C344.338993,189.675919 342.736895,189.78309 341.112906,189.889733 C339.885013,189.974203 338.639399,190.05445 337.412027,190.135224 L337.377108,190.135224 C332.276347,190.473632 327.484123,190.790394 325.288403,190.928714 L325.257654,190.932937 L325.089835,190.937161 C324.416995,190.977284 324.03393,191.004209 324.02507,190.999457 L324.021422,190.973061 L324.016731,190.879616 L323.867153,188.160211 L323.862463,188.026643 L323.818684,187.219426 L322.190526,157.30386 C321.970068,153.93826 321.970068,151.383572 322.045118,148.967731 C322.062838,148.513177 322.080037,148.058623 322.097757,147.608292 C322.106617,147.377056 322.119646,147.144763 322.133197,146.908247 C322.168115,146.150657 322.207725,145.388316 322.242644,144.599578 C322.322384,143.021573 322.396912,141.340621 322.437043,139.383557 C322.454242,138.639166 322.727339,137.925922 323.176072,137.261777 C323.250601,137.155134 323.329819,137.043739 323.413729,136.936568 C325.596419,134.127942 330.833207,132.17563 332.597913,131.654028 L332.602083,131.654028 C332.888209,131.569558 333.081566,131.520459 333.156615,131.516236 L333.297333,130.446107 L335.233507,130.38381 L336.892935,130.325737 L340.91069,137.894774 L343.805829,130.187418 L343.805829,130.183194 L343.827718,130.120898 L343.84179,130.080246 L344.290524,130.067048 L344.294693,130.067048 L344.765316,130.05385 L346.270476,130 C346.270476,130 346.376275,132.07321 346.398164,132.082185 C346.609241,132.17563 346.829699,132.278049 347.044945,132.394196 C347.516089,132.64391 347.996094,132.928996 348.475055,133.26318 C350.297612,134.5429 352.123296,136.428164 353.364219,138.733139 C353.795753,139.517653 354.04644,139.856061 354.315367,140.734549 C354.512893,141.384967 354.443055,142.883253 354.531134,143.573795 C355.098175,148.094522 355.045536,176.561429 354.913157,185.993556"/>
    <path fill="#9995A7" d="M291,220.410256 L291.976806,220.717846 L292.984004,221.038231 L293.627033,221.23732 L297.034124,222.314653 L302.378832,224 L302.84964,219.060648 L303,217.474589 C302.755798,217.374789 301.221808,216.814371 299.44948,216.172066 C298.440682,215.803572 297.354039,215.410512 296.387897,215.061467 C296.215143,215.002098 296.042922,214.938636 295.878699,214.880291 C295.689416,214.810175 295.508131,214.745176 295.331112,214.681202 C295.261797,214.658683 295.193015,214.631557 295.1237,214.608527 C294.119701,214.244639 293.432951,214 293.432951,214 L291,220.410256 Z"/>
    <path fill="#65324E" d="M288.903348,210 L280.23134,226.968303 C279.71436,227.979871 280.092949,229.231252 281.077066,229.762652 C281.835304,230.171967 282.762686,230.043341 283.388365,229.442722 L290.52746,222.585746 L295,213.291959 L288.903348,210 Z"/>
    <path fill="#07113D" d="M280.150647,226.235767 L288.798433,210 L290,210.600393 L280.732358,228 C280.069059,227.667988 279.808402,226.878752 280.150647,226.235767"/>
    <path stroke="#07113D" stroke-linecap="round" stroke-width=".844" d="M289 221L290 223M288 223L289 225M287 224L288 228"/>
    <path fill="#591239" d="M293,223.448884 C293.764027,223.881376 294.882555,224.459292 296.271455,225.132357 C300.038152,226.954768 305.773119,229.47349 311.649357,231.758667 C321.922986,235.753266 327.607688,236.75989 332.054814,235.472687 C333.873347,234.942345 335.307221,234.040059 336.456966,232.758803 C339.72313,229.122091 341.774469,222.352518 340.722609,209.291817 C340.655413,208.470083 339.719426,194.018922 339.717839,194 L328.772777,195.288825 L325.30714,195.878094 L325.214547,195.89215 C325.270632,196.223547 325.322484,196.558728 325.37804,196.894449 L325.379098,196.918236 C325.562169,198.098397 325.734657,199.290992 325.894446,200.478181 C326.431488,204.424666 326.8262,208.321955 327.061122,211.816486 C327.387051,216.667959 327.409803,220.735541 327.076467,223.061264 C324.705548,222.942328 319.835667,222.108701 311.707559,219.495912 C306.679476,217.876772 302.551929,216.337103 299.919633,215.26074 C298.427028,214.650386 297.413792,214.189783 296.987863,213.946506 L296.535478,215.027735 L295.885209,216.57227 L293.795245,221.551328 L293,223.448884 Z"/>
    <path fill="#591239" d="M325,192.31531 L325.017987,192.407748 L325.589883,194.999132 L325.804675,195.954672 L325.808378,195.977003 L325.893025,196.371682 C326.11681,197.467438 326.42101,198.43648 326.822553,199.287638 C327.626699,201.001898 328.805936,202.242543 330.440679,203.07189 C330.597276,203.154461 330.758105,203.229762 330.923167,203.29935 C331.253818,203.440084 331.598225,203.562643 331.946336,203.663909 C332.580659,203.847747 333.237201,203.961996 333.916492,203.988481 C334.327559,204.010293 334.742858,204.000945 335.162389,203.961996 L341.045877,203.404771 L344.498412,203.076044 L344.690984,203.058388 L345.70516,202.961795 L349.336511,202.620085 C351.954217,202.369775 354.178843,200.988916 355.541129,199.019672 C356.609267,197.489249 357.153652,195.59946 356.962139,193.613079 L356.930396,193.415739 L356.255866,189 L356.24264,189 L347.156854,189.965407 L342.381182,190.473298 L338.637673,190.868497 L338.602227,190.872651 L328.247796,191.968926 L328.243034,191.968926 L325.098402,192.306481 L325,192.31531 Z"/>
    <polygon fill="#07113D" points="325 189.952 325.157 191.919 325.247 193 325.579 192.971 325.669 192.961 326.925 192.845 326.956 192.84 328.876 192.661 337.658 191.847 338.21 191.794 343.055 191.342 347.859 190.896 357 190.049 356.933 189.205 356.915 188.997 356.754 187 347.611 187.849 342.808 188.294 325.364 189.918"/>
    <polygon fill="#65324E" points="347 191.496 342.251 192 342 188.504 346.749 188"/>
    <polygon fill="#FFF" points="338 130.243 336.853 135 333 131.768 333.545 130"/>
    <polygon fill="#FFF" points="344 129.91 345.84 134 349 131.875 346.702 129"/>
    <polygon fill="#FFF" points="343 187.85 341.758 137.673 337.548 130 337 131.053 341.1 137.752 341.889 188"/>
    <polygon fill="#FFF" points="341 136.945 345.369 130 346 130.926 341.722 137"/>
    <polygon fill="#07113D" points="293 224.04 296.502 226 296.581 225.756 297.387 223.327 299.003 218.441 299.521 216.876 299.829 215.942 300 215.424 296.968 214 296.367 215.519 295.766 217.038 293.81 221.987"/>
    <path fill="#07113D" d="M295.546764,214.904912 C295.721477,214.970574 295.900399,215.037287 296.087214,215.109778 L296.758698,213.624761 L300.147164,215.0168 L299.956139,215.522136 C302.574188,216.567479 306.678869,218.064052 311.680264,219.636793 C319.76438,222.175556 324.607903,222.98609 326.965989,223.101656 C327.297521,220.841826 327.274893,216.888961 326.950728,212.175465 C326.716551,208.779416 326.323975,204.992545 325.790367,201.157872 C325.519352,200.248582 325.362533,199.235283 325.303594,198.105893 L325.277808,197.698787 L325.276755,197.675674 C325.2215,197.349464 325.169928,197.02378 325.114147,196.702298 L325.205713,196.688115 L325.023107,194.012774 L324.694206,193.991237 L324.749462,193 L325.150984,193.080896 L328.193183,193.708627 C328.207918,193.760106 328.266331,194.037463 328.266331,194.037463 C328.270541,194.070031 328.278434,194.106802 328.285802,194.148301 C328.287907,194.166686 328.294222,194.185597 328.2958,194.203457 C328.2958,194.204507 328.296327,194.206083 328.296327,194.207134 C328.296327,194.207134 328.620491,195.933787 328.653118,196.11554 C329.069901,198.449963 329.692444,202.202689 330.191321,206.273746 C331.240119,214.868141 331.745837,224.866656 328.650487,225.8269 C325.103096,226.926873 311.747623,222.546942 302.96729,219.400409 C301.50855,218.873535 300.174002,218.38711 299.032586,217.96477 C297.708037,217.470991 296.64503,217.06441 295.94355,216.796508 C295.734633,216.716663 295.557289,216.645223 295.416257,216.593743 C295.14419,216.487108 295,216.429851 295,216.429851 L295.546764,214.904912 Z"/>
    <path fill="#DB734C" d="M330,188.777301 L325.450125,189 L323.839564,157.145001 C323.612178,153.780761 323.612178,151.227105 323.68923,148.812241 C323.448373,148.936784 323.207517,149.066076 322.961272,149.195368 C316.63272,152.546415 311.054759,155.834663 308.293258,158.913404 C303.788644,163.931003 300.55459,171.319138 298.907389,175.668111 C298.780225,176.006382 298,175.409526 298,175.409526 C298,175.409526 299.062033,166.943251 306.341618,158.922903 C311.951371,152.742201 320.263892,148.411171 323.780292,146.753062 C324.826699,146.259112 325.450125,146 325.450125,146 L325.64572,147.818537 L330,188.777301 Z"/>
    <path fill="#F4A891" d="M398.31234,109.793636 C398.235228,109.786029 393.90444,107.395963 393.300047,108.145489 C392.293941,109.394024 391.343586,110.957989 390.676669,112.470227 L389,116.072823 C389,116.072823 391.742172,118.673853 391.941726,118.780855 C394.728186,120.272302 397.946578,113.662471 397.946578,113.662471 C397.946578,113.662471 400.049969,109.968086 398.31234,109.793636"/>
    <path fill="#F4A891" d="M392.852777 113.396458L395.911311 106.419961C396.134815 105.91049 395.921164 105.310137 395.435781 105.085606 394.950917 104.861075 394.371154 105.093625 394.147649 105.603097L391.088597 112.580127C390.865092 113.089599 391.079262 113.689952 391.564645 113.914482 392.049509 114.139013 392.628754 113.905929 392.852777 113.396458M396.106574 113.445962L398.899256 108.303411C399.153405 107.835728 398.90987 107.284617 398.357938 107.078503 397.807186 106.872389 397.147933 107.086355 396.893785 107.554038L394.101103 112.696589C393.846365 113.163782 394.0899 113.715383 394.641832 113.921497 395.193174 114.127611 395.851837 113.913645 396.106574 113.445962"/>
    <path fill="#F4A891" d="M396.733149,116.420316 L399.888686,109.575753 C400.130927,109.049599 399.964509,108.395184 399.518431,108.120991 C399.072845,107.847368 398.509092,108.053725 398.266851,108.579879 L395.111314,115.423873 C394.869073,115.950027 395.035491,116.604441 395.481569,116.878634 C395.927155,117.152827 396.490908,116.94647 396.733149,116.420316"/>
    <path fill="#F4B84D" d="M347,135.929137 L347.537504,145.405619 L347.570902,146 C347.762421,145.989329 349.0159,145.912497 350.959786,145.708145 C356.941734,145.071613 369.451484,143.239917 377.577186,138.452322 C381.813551,135.956882 385.564076,132.226794 388.55792,128.622093 C388.566269,128.617291 388.570966,128.609821 388.576185,128.602351 C390.776819,125.947378 392.568325,123.361767 393.841113,121.39188 C395.137385,119.384644 395.893021,118.010204 396,117.844802 L395.260019,117.404619 L390.23201,114.430579 L389.50664,114 C389.482113,114.037882 388.650287,115.235715 387.24234,117.006586 C384.353909,120.643835 379.041492,126.693822 373.320468,130.065361 C369.806863,132.13609 357.43749,133.746895 350.131612,133.613506 C347.357988,133.562818 351.582351,135.497491 349.815894,135.681567 C348.088054,135.864043 347.022439,135.92807 347,135.929137"/>
    <polygon fill="#FFF" points="387 116.676 387.379 116.929 394.409 121.668 394.893 121.995 394.901 122 397 117.732 396.13 117.189 391.862 114.51 391.097 114.033 390.687 113.776 389.453 113"/>
    <path fill="#DB734C" d="M394.886135 119.794578C394.710463 120.017593 394.395555 120.066725 394.182146 119.903949 393.969171 119.741173 393.938374 119.428438 394.114046 119.205422 394.289284 118.982407 394.604626 118.933275 394.818035 119.096051 395.03101 119.258827 395.061373 119.571562 394.886135 119.794578M351.055191 146C351.000191 146.1145 350.985191 146.135 351.015191 146.005 351.030191 146.005 351.040191 146 351.055191 146M388 129C384.968297 132.512195 381.162925 136.149268 376.86594 138.58439 370.579217 142.148618 361.699487 144.032195 355.153464 145 355.127004 144.609756 355.095253 144.281951 355.063502 144.032195 355.026459 143.73561 355.015876 143.277724 355 142.809431 361.344933 141.961301 371.203656 140.036098 377.829057 136.638374 381.903784 134.541463 385.359365 131.643252 388 129"/>
    <path fill="#07113D" d="M90.4398203,131.314395 L0.442091525,2.54972048 C0.0180745763,1.94379277 0.162040678,1.10567229 0.7626,0.678395181 C1.36368475,0.251118072 2.19385424,0.395840964 2.61734576,1.0022988 L92.6156,129.766973 C93.0390915,130.372901 92.8956508,131.210492 92.2945661,131.637769 C91.6940068,132.065576 90.8638373,131.920853 90.4398203,131.314395" transform="translate(319)"/>
    <path fill="#FFC7B0" d="M395.416255 110.887296L395.340454 110.82547C395.030719 110.57136 394.909944 109.966714 395.072065 109.482316L395.725265 107.532247C395.887386 107.047849 396.273647 106.858968 396.583745 107.113078L396.659546 107.174904C396.969281 107.428447 397.090056 108.033093 396.927935 108.517491L396.274735 110.46756C396.112614 110.951958 395.72599 111.140839 395.416255 110.887296M397.41227 112.887382L397.340579 112.828898C397.030522 112.575657 396.910066 111.973217 397.072008 111.490015L397.729605 109.53109C397.891548 109.047888 398.278027 108.859377 398.58772 109.112618L398.659775 109.171102C398.969468 109.424343 399.089924 110.026783 398.927982 110.509985L398.270385 112.46891C398.108442 112.952112 397.722327 113.140623 397.41227 112.887382M394.40833 108.887848L394.340053 108.832148C394.030797 108.57979 393.909943 107.979021 394.072056 107.496473L394.734016 105.529905C394.896129 105.047926 395.282059 104.859795 395.59168 105.112152L395.659592 105.167852C395.969213 105.42021 396.090067 106.021547 395.927954 106.503527L395.266359 108.470095C395.103881 108.952074 394.717951 109.140205 394.40833 108.887848"/>
    <path fill="#F4A891" d="M392.444818,115.036731 L392.996354,107.141248 C393.036191,106.564505 392.744953,106.052771 392.348899,106.003876 C391.951298,105.954425 391.595856,106.383926 391.555245,106.962891 L391.003709,114.858374 C390.963485,115.435116 391.25511,115.94685 391.651164,115.996301 C392.047604,116.044641 392.404594,115.613473 392.444818,115.036731"/>
    <path fill="url(#pi-lead-landing-c)" d="M308.352275,67.4540655 C308.801067,70.7977825 310.098581,70.9524815 309.846832,72.655227 C309.434687,75.4952482 308.077157,77.3585005 305.516653,79.0036959 L304.507534,79.6499472 L259.216714,108 L270.428017,72.781415 L235,63.4192186 C235,63.4192186 259.765355,50.6810982 273.120239,43.4144667 C277.133874,41.2302006 279.864867,39.7676874 280.174506,39.6652587 C280.533009,39.5448786 280.21912,39.1705385 279.69491,38.5105597 C279.681101,38.4973601 279.663043,38.4751848 279.649765,38.4572334 C278.196635,36.6383316 275.299934,32.7550158 280.174506,26.2909187 C286.901076,17.37434 322.437972,5 322.437972,5 L348,41.779831 C348,41.779831 313.136558,58.8664203 309.772476,62.8474129 C308.203032,64.7048574 308.170634,66.0982049 308.352275,67.4540655"/>
    <path fill="#591239" d="M275.003294,34.1015 C274.991294,34.034 275.012294,34 275.062794,34 C275.155794,34 275.130294,34.038 275.003294,34.1015"/>
    <path fill="#00203E" d="M307.991998,72.7445172 C308.138168,75.8291131 306.2649,78.3342113 303.765999,80 L274,43.1029937 C277.91707,40.8913865 278.731377,40.2728636 279.033567,40.1691527 C279.383444,40.0472658 279.077107,39.6677054 278.565509,39 C286.105752,48.1586304 302.630842,66.7768665 307.991998,72.7445172"/>
  </g>
</svg>
