
<svg width="87px" height="60px" viewBox="0 0 87 60" version="1.1" xmlns="http://www.w3.org/2000/svg" xmlns:xlink="http://www.w3.org/1999/xlink">
    <!-- Generator: Sketch 47.1 (45422) - http://www.bohemiancoding.com/sketch -->
    <desc>Created with Sketch.</desc>
    <defs>
        <linearGradient x1="1.30141901%" y1="50%" x2="98.7603635%" y2="50%" id="linearGradient-1">
            <stop stop-color="#43CEA2" offset="0%"></stop>
            <stop stop-color="#185A9D" offset="100%"></stop>
        </linearGradient>
    </defs>
    <g id="Page-1" stroke="none" stroke-width="1" fill="none" fill-rule="evenodd">
        <g id="4.0-Product-Insights_CopyNotReady" transform="translate(-245.000000, -1064.000000)">
            <g id="Group-8" transform="translate(245.000000, 1064.000000)">
                <path d="M43.3495652,55.2217391 C43.2365217,55.2217391 43.1243478,55.1930435 43.0234783,55.133913 L30.7478261,48.0469565 C30.5469565,47.9304348 30.4217391,47.7147826 30.4217391,47.4817391 L30.4217391,41.2608696 C30.4217391,40.9008696 30.713913,40.6086957 31.073913,40.6086957 C31.4347826,40.6086957 31.726087,40.9008696 31.726087,41.2608696 L31.726087,47.106087 L43.3495652,53.8165217 L54.9721739,47.106087 L54.9721739,41.033913 C54.9721739,40.673913 55.2643478,40.3817391 55.6243478,40.3817391 C55.9843478,40.3817391 56.2765217,40.673913 56.2765217,41.033913 L56.2765217,47.4817391 C56.2765217,47.7147826 56.1521739,47.9304348 55.9504348,48.0469565 L43.6756522,55.133913 C43.573913,55.1930435 43.4617391,55.2217391 43.3495652,55.2217391" id="Fill-329" fill="#131615"></path>
                <path d="M55.6243478,33.9608696 C55.5286957,33.9608696 55.4321739,33.9391304 55.34,33.8947826 L43.3495652,28.0817391 L31.3591304,33.8947826 C31.0356522,34.0513043 30.6443478,33.9173913 30.4878261,33.5930435 C30.3304348,33.2686957 30.466087,32.8791304 30.7895652,32.7217391 L43.0652174,26.7704348 C43.2443478,26.6843478 43.453913,26.6843478 43.633913,26.7704348 L55.9095652,32.7217391 C56.2330435,32.8791304 56.3686957,33.2686957 56.2113043,33.5930435 C56.0991304,33.8252174 55.866087,33.9608696 55.6243478,33.9608696" id="Fill-330" fill="#131615"></path>
                <path d="M43.3304348,54.9886957 C42.9704348,54.9886957 42.6782609,54.6965217 42.6782609,54.3365217 L42.6782609,39.9608696 L30.8504348,33.806087 C30.5304348,33.64 30.4069565,33.246087 30.5730435,32.926087 C30.7391304,32.6078261 31.1321739,32.4826087 31.4530435,32.6495652 L43.6313043,38.9869565 C43.8469565,39.0991304 43.9826087,39.3226087 43.9826087,39.5652174 L43.9826087,54.3365217 C43.9826087,54.6965217 43.6904348,54.9886957 43.3304348,54.9886957" id="Fill-331" fill="#131615"></path>
                <path d="M43.4756522,40.2173913 C43.2391304,40.2173913 43.0113043,40.0895652 42.8956522,39.8643478 C42.7304348,39.5443478 42.8556522,39.1504348 43.1756522,38.986087 L55.006087,32.8808696 C55.3269565,32.7121739 55.72,32.84 55.8852174,33.1608696 C56.0504348,33.4808696 55.9243478,33.873913 55.6043478,34.0391304 L43.773913,40.1443478 C43.6782609,40.1947826 43.5756522,40.2173913 43.4756522,40.2173913" id="Fill-332" fill="#131615"></path>
                <path d="M44.4530435,39.793913 L48.5104348,43.8826087 L59.466087,38.213913 L55.4086957,34.1252174 L44.4530435,39.793913 Z M48.3852174,45.333913 C48.2147826,45.333913 48.0469565,45.2678261 47.9217391,45.1408696 L42.9017391,40.0817391 C42.7556522,39.933913 42.6878261,39.726087 42.7208696,39.5208696 C42.7530435,39.3156522 42.8808696,39.1382609 43.0652174,39.0426087 L55.2347826,32.7469565 C55.4878261,32.6156522 55.7965217,32.6643478 55.9973913,32.8669565 L61.0173913,37.926087 C61.1634783,38.073913 61.2313043,38.2817391 61.1991304,38.4869565 C61.166087,38.6921739 61.0382609,38.8695652 60.8547826,38.9652174 L48.6843478,45.2608696 C48.5895652,45.3095652 48.4869565,45.333913 48.3852174,45.333913 L48.3852174,45.333913 Z" id="Fill-333" fill="#131615"></path>
                <path d="M28.8408696,32.1556522 L31.0495652,32.5643478 L41.24,27.5973913 L39.0313043,27.1886957 L28.8408696,32.1556522 Z M31.1417391,33.8965217 C31.1026087,33.8965217 31.0626087,33.893913 31.0234783,33.886087 L26.6573913,33.0782609 C26.38,33.0269565 26.1678261,32.8043478 26.1295652,32.5252174 C26.0913043,32.246087 26.2365217,31.9747826 26.4895652,31.8513043 L38.6530435,25.9226087 C38.7782609,25.86 38.9191304,25.8408696 39.0573913,25.8669565 L43.4234783,26.6756522 C43.7,26.726087 43.9130435,26.9495652 43.9513043,27.2286957 C43.9886957,27.5078261 43.8434783,27.7791304 43.5904348,27.9026087 L31.4278261,33.8304348 C31.3382609,33.8747826 31.24,33.8965217 31.1417391,33.8965217 L31.1417391,33.8965217 Z" id="Fill-334" fill="#131615"></path>
                <path d="M27.1052174,38.2573913 L38.0878261,43.9652174 L42.2686957,39.7356522 L31.2921739,34.0234783 L27.1052174,38.2573913 Z M38.2130435,45.4165217 C38.1113043,45.4165217 38.0078261,45.3930435 37.9130435,45.3434783 L25.7182609,39.006087 C25.5347826,38.9113043 25.4069565,38.733913 25.3747826,38.5295652 C25.3426087,38.3243478 25.4095652,38.1173913 25.5556522,37.9695652 L30.6965217,32.7704348 C30.8104348,32.6547826 30.9634783,32.586087 31.1252174,32.5773913 C31.2391304,32.5652174 31.3730435,32.5947826 31.4773913,32.6495652 L43.6556522,38.9869565 C43.84,39.0817391 43.9669565,39.2591304 43.9991304,39.4643478 C44.0313043,39.6686957 43.9643478,39.8765217 43.8182609,40.0234783 L38.6773913,45.2234783 C38.5521739,45.3504348 38.3834783,45.4165217 38.2130435,45.4165217 L38.2130435,45.4165217 Z" id="Fill-335" fill="#131615"></path>
                <path d="M45.2347826,27.6313043 L55.7313043,32.6182609 L58.5321739,31.993913 L48.0469565,27.006087 L45.2347826,27.6313043 Z M55.6547826,33.9556522 C55.5582609,33.9556522 55.4626087,33.933913 55.3747826,33.8930435 L42.9617391,27.9956522 C42.7104348,27.8765217 42.5626087,27.6104348 42.593913,27.333913 C42.6252174,27.0565217 42.8286957,26.8304348 43.1008696,26.7695652 L47.9834783,25.6834783 C48.1243478,25.6513043 48.2730435,25.6686957 48.4052174,25.7313043 L60.8026087,31.6295652 C61.053913,31.7495652 61.2017391,32.0147826 61.1704348,32.2921739 C61.1391304,32.5686957 60.9356522,32.7947826 60.6643478,32.8556522 L55.7965217,33.94 C55.7495652,33.9504348 55.7017391,33.9556522 55.6547826,33.9556522 L55.6547826,33.9556522 Z" id="Fill-336" fill="#131615"></path>
                <path d="M43.2869565,59.9321739 C33.1043478,59.9321739 25.1278261,56.2417391 25.1278261,51.5295652 C25.1278261,49.7452174 26.2634783,48.0591304 28.4121739,46.6513043 C28.7147826,46.4556522 29.1182609,46.5382609 29.3156522,46.8391304 C29.5130435,47.1408696 29.4286957,47.5452174 29.1278261,47.7417391 C27.8982609,48.5478261 26.4321739,49.8582609 26.4321739,51.5295652 C26.4321739,55.3773913 34.1513043,58.6278261 43.2869565,58.6278261 C52.4226087,58.6278261 60.1417391,55.3773913 60.1417391,51.5295652 C60.1417391,49.8695652 58.6913043,48.5634783 57.473913,47.76 C57.173913,47.5608696 57.0904348,47.1565217 57.2886957,46.8565217 C57.4869565,46.5547826 57.8930435,46.4721739 58.1921739,46.6713043 C60.3208696,48.0756522 61.446087,49.7556522 61.446087,51.5295652 C61.446087,56.2417391 53.4695652,59.9321739 43.2869565,59.9321739" id="Fill-337" fill="url(#linearGradient-1)"></path>
                <path d="M74.3347826,1.30434783 C69.0408696,1.30434783 64.7330435,5.77217391 64.7330435,11.2634783 C64.7330435,14.04 65.8652174,16.7121739 67.8373913,18.593913 C67.8504348,18.6069565 68.2721739,19.0391304 68.893913,19.6765217 C70.5365217,21.3617391 73.5991304,24.5052174 74.1121739,25.0182609 C74.1678261,25.0747826 74.2513043,25.1591304 74.3243478,25.2278261 C74.406087,25.153913 74.4982609,25.0634783 74.5504348,25.013913 C74.9669565,24.6086957 78.3365217,21.1530435 79.9547826,19.4930435 C80.4886957,18.9452174 80.8373913,18.5904348 80.8417391,18.5869565 C82.8,16.726087 83.9365217,14.0486957 83.9365217,11.2634783 C83.9365217,5.77217391 79.6286957,1.30434783 74.3347826,1.30434783 Z M74.3191304,26.6121739 C73.9756522,26.6121739 73.6347826,26.3886957 73.1878261,25.9391304 C72.6747826,25.4243478 69.6052174,22.2756522 67.96,20.5869565 C67.366087,19.9782609 66.9582609,19.56 66.926087,19.5269565 C64.7078261,17.4104348 63.4286957,14.3947826 63.4286957,11.2634783 C63.4286957,5.05304348 68.3208696,0 74.3347826,0 C80.3478261,0 85.2408696,5.05304348 85.2408696,11.2634783 C85.2408696,14.4043478 83.9556522,17.426087 81.7156522,19.5547826 C81.6956522,19.5756522 81.3730435,19.9069565 80.8886957,20.4034783 C79.266087,22.0678261 75.8895652,25.5313043 75.4591304,25.9495652 C75.0043478,26.3913043 74.66,26.6121739 74.3191304,26.6121739 L74.3191304,26.6121739 Z" id="Fill-338" fill="#131615"></path>
                <path d="M74.333913,7.22956522 C72.193913,7.22956522 70.4530435,8.97130435 70.4530435,11.1121739 C70.4530435,13.2530435 72.193913,14.9947826 74.333913,14.9947826 C76.4756522,14.9947826 78.2173913,13.2530435 78.2173913,11.1121739 C78.2173913,8.97130435 76.4756522,7.22956522 74.333913,7.22956522 Z M74.333913,16.2991304 C71.4747826,16.2991304 69.1486957,13.9721739 69.1486957,11.1121739 C69.1486957,8.25217391 71.4747826,5.92521739 74.333913,5.92521739 C77.1947826,5.92521739 79.5217391,8.25217391 79.5217391,11.1121739 C79.5217391,13.9721739 77.1947826,16.2991304 74.333913,16.2991304 L74.333913,16.2991304 Z" id="Fill-339" fill="#131615"></path>
                <path d="M12.5956522,1.30434783 C7.30173913,1.30434783 2.99391304,5.77217391 2.99391304,11.2634783 C2.99391304,14.04 4.12608696,16.7121739 6.09826087,18.593913 C6.11130435,18.6069565 6.53304348,19.0391304 7.15478261,19.6765217 C8.7973913,21.3617391 11.86,24.5052174 12.3730435,25.0182609 C12.4286957,25.0747826 12.5121739,25.1591304 12.5852174,25.2278261 C12.6669565,25.153913 12.7591304,25.0634783 12.8113043,25.013913 C13.2278261,24.6086957 16.5973913,21.1530435 18.2156522,19.4930435 C18.7495652,18.9452174 19.0982609,18.5904348 19.1026087,18.5869565 C21.0608696,16.726087 22.1973913,14.0486957 22.1973913,11.2634783 C22.1973913,5.77217391 17.8895652,1.30434783 12.5956522,1.30434783 Z M12.58,26.6121739 C12.2365217,26.6121739 11.8956522,26.3886957 11.4486957,25.9391304 C10.9356522,25.4243478 7.86608696,22.2756522 6.22086957,20.5869565 C5.62695652,19.9782609 5.21913043,19.56 5.18695652,19.5269565 C2.96869565,17.4104348 1.68956522,14.3947826 1.68956522,11.2634783 C1.68956522,5.05304348 6.58173913,0 12.5956522,0 C18.6086957,0 23.5017391,5.05304348 23.5017391,11.2634783 C23.5017391,14.4043478 22.2165217,17.426087 19.9765217,19.5547826 C19.9565217,19.5756522 19.633913,19.9069565 19.1495652,20.4034783 C17.5269565,22.0678261 14.1504348,25.5313043 13.72,25.9495652 C13.2652174,26.3913043 12.9208696,26.6121739 12.58,26.6121739 L12.58,26.6121739 Z" id="Fill-340" fill="#131615"></path>
                <path d="M12.5947826,7.22956522 C10.4547826,7.22956522 8.71391304,8.97130435 8.71391304,11.1121739 C8.71391304,13.2530435 10.4547826,14.9947826 12.5947826,14.9947826 C14.7365217,14.9947826 16.4782609,13.2530435 16.4782609,11.1121739 C16.4782609,8.97130435 14.7365217,7.22956522 12.5947826,7.22956522 Z M12.5947826,16.2991304 C9.73565217,16.2991304 7.40956522,13.9721739 7.40956522,11.1121739 C7.40956522,8.25217391 9.73565217,5.92521739 12.5947826,5.92521739 C15.4556522,5.92521739 17.7826087,8.25217391 17.7826087,11.1121739 C17.7826087,13.9721739 15.4556522,16.2991304 12.5947826,16.2991304 L12.5947826,16.2991304 Z" id="Fill-341" fill="#131615"></path>
                <path d="M12.3626087,31.8886957 C5.43043478,31.8886957 0,29.3252174 0,26.0521739 C0,24.3017391 1.48695652,22.7330435 4.18782609,21.6330435 C4.52173913,21.493913 4.90173913,21.6573913 5.03826087,21.9904348 C5.17391304,22.3243478 5.01304348,22.7043478 4.67913043,22.8408696 C2.53478261,23.713913 1.30434783,24.8843478 1.30434783,26.0521739 C1.30434783,28.2408696 5.74782609,30.5843478 12.3626087,30.5843478 C18.9782609,30.5843478 23.4217391,28.2408696 23.4217391,26.0521739 C23.4217391,24.8730435 22.1069565,23.6513043 19.906087,22.7843478 C19.5704348,22.6521739 19.406087,22.2730435 19.5382609,21.9382609 C19.6704348,21.6026087 20.0504348,21.4391304 20.3834783,21.5704348 C23.1843478,22.6730435 24.726087,24.2643478 24.726087,26.0521739 C24.726087,29.3252174 19.2956522,31.8886957 12.3626087,31.8886957" id="Fill-342" fill="url(#linearGradient-1)"></path>
                <path d="M74.2104348,31.8886957 C67.2782609,31.8886957 61.8478261,29.3252174 61.8478261,26.0521739 C61.8478261,24.3269565 63.3,22.7721739 65.9373913,21.6730435 C66.2713043,21.5347826 66.6521739,21.6930435 66.7904348,22.0243478 C66.9286957,22.3565217 66.7713043,22.7382609 66.4391304,22.8773913 C64.3504348,23.7478261 63.1521739,24.9052174 63.1521739,26.0521739 C63.1521739,28.2408696 67.5956522,30.5843478 74.2104348,30.5843478 C80.826087,30.5843478 85.2695652,28.2408696 85.2695652,26.0521739 C85.2695652,24.8730435 83.9556522,23.6521739 81.7547826,22.7852174 C81.42,22.6530435 81.2547826,22.273913 81.3869565,21.9391304 C81.5191304,21.6034783 81.8982609,21.4408696 82.2330435,21.5713043 C85.0321739,22.673913 86.573913,24.2652174 86.573913,26.0521739 C86.573913,29.3252174 81.1434783,31.8886957 74.2104348,31.8886957" id="Fill-343" fill="url(#linearGradient-1)"></path>
                <path d="M27.1895652,48.8226087 C27.0130435,48.8226087 26.8365217,48.7513043 26.7078261,48.6104348 L11.326087,31.7443478 C11.0826087,31.4773913 11.1017391,31.0652174 11.3678261,30.8226087 C11.633913,30.5791304 12.0469565,30.5982609 12.2895652,30.8643478 L27.6713043,47.7313043 C27.9147826,47.9973913 27.8956522,48.4104348 27.6295652,48.6521739 C27.5043478,48.7669565 27.3469565,48.8226087 27.1895652,48.8226087" id="Fill-344" fill="url(#linearGradient-1)"></path>
                <path d="M59.4165217,48.9678261 C59.2591304,48.9678261 59.1017391,48.9113043 58.9765217,48.7965217 C58.7104348,48.5547826 58.6913043,48.1417391 58.9347826,47.8756522 L74.3165217,31.0095652 C74.56,30.7426087 74.9730435,30.7243478 75.2382609,30.9678261 C75.5043478,31.2104348 75.5234783,31.6226087 75.28,31.8895652 L59.8982609,48.7547826 C59.7695652,48.8956522 59.5930435,48.9678261 59.4165217,48.9678261" id="Fill-345" fill="url(#linearGradient-1)"></path>
            </g>
        </g>
    </g>
</svg>