
<svg width="60px" height="60px" viewBox="0 0 60 60" version="1.1" xmlns="http://www.w3.org/2000/svg" xmlns:xlink="http://www.w3.org/1999/xlink">
    <!-- Generator: Sketch 47.1 (45422) - http://www.bohemiancoding.com/sketch -->
    <desc>Created with Sketch.</desc>
    <defs>
        <linearGradient x1="1.30141901%" y1="50%" x2="98.7603635%" y2="50%" id="linearGradient-1">
            <stop stop-color="#43CEA2" offset="0%"></stop>
            <stop stop-color="#185A9D" offset="100%"></stop>
        </linearGradient>
    </defs>
    <g id="Page-1" stroke="none" stroke-width="1" fill="none" fill-rule="evenodd">
        <g id="4.0-Product-Insights_CopyNotReady" transform="translate(-595.000000, -1558.000000)">
            <g id="Group-15" transform="translate(595.000000, 1558.000000)">
                <path d="M50.525625,49.1990625 L49.2,47.8734375 C53.5696875,43.1835 56.25,36.900375 56.25,30.0000938 C56.25,15.84 44.9788125,4.270125 30.9375,3.77390625 L30.9375,1.89890625 C46.0125,2.39615625 58.125,14.8065 58.125,30.0000938 C58.125,37.4175 55.23375,44.1685313 50.525625,49.1990625 Z M30.9375,29.0625 L30.9375,5.64890625 C43.9444687,6.144 54.375,16.8736875 54.375,30.0000938 C54.375,36.3835313 51.9046875,42.1990313 47.874375,46.54875 L32.2622812,30.9375 L41.25,30.9375 L41.25,29.0625 L30.9375,29.0625 Z M30.0000625,30.0001563 L29.9990625,29.9991563 L30.0000625,29.9991563 L30.0000625,30.0001563 Z M30,9.375e-05 C24.1245937,9.375e-05 18.4355625,1.6974375 13.5475312,4.909125 L14.5774687,6.47653125 C18.8972812,3.63778125 23.8887187,2.07946875 29.0625,1.9089375 L29.0625,29.611875 L18.0871875,40.5863438 L19.4128125,41.9120625 L30,31.3258125 L46.54875,47.874375 C42.199125,51.9046875 36.3837187,54.3740625 30,54.3740625 L30,56.2490625 C36.90075,56.2490625 43.1840625,53.56875 47.874375,49.1990625 L49.2,50.5246875 C44.1691875,55.2328125 37.4176875,58.1240625 30,58.1240625 C26.5626562,58.1240625 23.205375,57.511875 20.0220937,56.304375 L19.3565625,58.0565625 C22.7535937,59.345625 26.3346562,59.9990625 30,59.9990625 C46.5421875,59.9990625 60,46.5421875 60,30.0000938 C60,13.458375 46.5421875,9.375e-05 30,9.375e-05 L30,9.375e-05 Z" id="Fill-97" fill="#2A333D"></path>
                <path d="M12.1875,58.125 L14.0625,58.125 L14.0625,39.375 L12.1875,39.375 L12.1875,58.125 Z M14.0625,35.59125 C20.8635,35.1087188 26.25,29.4214688 26.25,22.5000938 C26.25,15.262875 20.3622188,9.37509375 13.125,9.37509375 C5.88778125,9.37509375 0,15.262875 0,22.5000938 C0,27.8146875 3.16996875,32.5709063 8.0754375,34.6180313 L8.79778125,32.8876875 C4.59225,31.1325938 1.875,27.0557813 1.875,22.5000938 C1.875,16.2964688 6.92184375,11.2500938 13.125,11.2500938 C19.3281563,11.2500938 24.375,16.2968438 24.375,22.5004688 C24.375,28.7031563 19.3281563,33.75 13.125,33.75 L12.1875,33.75 L12.1875,37.5 L10.3125,37.5 L10.3125,60 L15.9375,60 L15.9375,37.5 L14.0625,37.5 L14.0625,35.59125 L14.0625,35.59125 Z" id="Fill-98" fill="#2A333D"></path>
                <polyline id="Fill-102" fill="url(#linearGradient-1)" points="10.3125 25.3125 10.3125 27.1875 12.1875 27.1875 12.1875 29.0625 14.0625 29.0625 14.0625 27.1875 15.9375 27.1875 15.9375 22.8571875 12.1875 20.9821875 12.1875 19.6875 15.9375 19.6875 15.9375 17.8125 14.0625 17.8125 14.0625 15.9375 12.1875 15.9375 12.1875 17.8125 10.3125 17.8125 10.3125 22.1412188 14.0625 24.0162188 14.0625 25.3125 10.3125 25.3125"></polyline>
            </g>
        </g>
    </g>
</svg>