<svg xmlns="http://www.w3.org/2000/svg" width="262" height="240" viewBox="0 0 262 240">
  <g fill="none" fill-rule="evenodd" transform="translate(-1)">
    <g transform="translate(64)">
      <path fill="#FFCE33" d="M37.629795,13.274875 C37.629795,25.0951875 29.430345,39.467625 19.314645,45.37725 C9.198945,51.2879375 0.998445,46.497125 0.998445,34.6768125 C0.998445,22.8565 9.198945,8.4840625 19.314645,2.5744375 C29.430345,-3.33625 37.629795,1.4545625 37.629795,13.274875"/>
      <path fill="#FFAC1A" d="M41.140785,15.5181313 C41.140785,27.3384438 32.941335,41.7108813 22.824585,47.6205063 C12.708885,53.5311938 4.509435,48.7403813 4.509435,36.9200688 C4.509435,25.1008188 12.708885,10.7283813 22.825635,4.81769375 C32.941335,-1.09193125 41.140785,3.69781875 41.140785,15.5181313"/>
      <path fill="#FFF" d="M28.029645,27.510675 C27.895245,27.204675 27.717795,26.88805 27.499395,26.5597375 C27.034245,25.8606125 26.376945,25.262425 25.523295,24.765175 C25.267095,24.6004875 24.735795,24.361425 23.931495,24.0479875 C23.247945,23.791925 22.735545,23.5209875 22.394295,23.2362375 C21.491295,22.4946125 21.040845,21.5118 21.040845,20.2846125 C21.040845,19.50155 21.175245,18.7673625 21.442995,18.0831125 C21.771645,17.2373625 22.254645,16.626425 22.888845,16.256675 C23.486295,15.908175 23.943045,15.861425 24.260145,16.1174875 C24.700095,16.473425 24.967845,17.17255 25.065495,18.211675 L28.377195,15.572425 C28.292145,14.4536125 28.039095,13.56855 27.616995,12.9172375 C27.196995,12.2638 26.644695,11.8887375 25.961145,11.789925 C25.520145,11.72405 25.032945,11.768675 24.501645,11.9184875 L24.500595,8.1668 L21.148995,10.1249875 L21.148995,13.8926125 C20.567295,14.420675 20.040195,15.015675 19.577145,15.6903625 C18.174345,17.765425 17.472945,20.0232375 17.472945,22.461675 C17.472945,23.8163625 17.729145,24.9213625 18.242595,25.7777375 C18.717195,26.5268 19.527795,27.2163625 20.674395,27.8443 C22.040445,28.5572375 23.065245,29.0938 23.747745,29.4508 C24.613995,30.0426125 25.047645,30.8947375 25.047645,32.0082375 C25.047645,32.7774875 24.931095,33.4373 24.700095,33.9866125 C24.247545,35.0916125 23.644845,35.878925 22.888845,36.3496125 C22.352295,36.6917375 21.876645,36.7183 21.461895,36.431425 C20.900145,36.057425 20.546295,35.1319875 20.400345,33.656175 L17.106495,35.857675 C17.179995,37.2399875 17.435145,38.356675 17.866695,39.2088 C18.299295,40.060925 18.888345,40.59005 19.631745,40.7951125 C20.079045,40.9289875 20.586195,40.9258 21.148995,40.7929875 L21.148995,44.408675 L24.501645,42.4504875 L24.500595,38.93255 C24.639195,38.815675 24.791445,38.705175 24.919545,38.5829875 C25.943295,37.61505 26.737095,36.5174875 27.297795,35.2913625 C28.151445,33.46705 28.565145,31.6299875 28.540995,29.7769875 C28.529445,29.027925 28.359345,28.2724875 28.029645,27.510675"/>
    </g>
    <g transform="translate(106 189)">
      <path fill="#FFCE33" d="M37.629795,13.274875 C37.629795,25.0951875 29.430345,39.467625 19.314645,45.37725 C9.198945,51.2879375 0.998445,46.497125 0.998445,34.6768125 C0.998445,22.8565 9.198945,8.4840625 19.314645,2.5744375 C29.430345,-3.33625 37.629795,1.4545625 37.629795,13.274875"/>
      <path fill="#FFAC1A" d="M41.140785,15.5181313 C41.140785,27.3384438 32.941335,41.7108813 22.824585,47.6205063 C12.708885,53.5311938 4.509435,48.7403813 4.509435,36.9200688 C4.509435,25.1008188 12.708885,10.7283813 22.825635,4.81769375 C32.941335,-1.09193125 41.140785,3.69781875 41.140785,15.5181313"/>
      <path fill="#FFF" d="M28.029645,27.510675 C27.895245,27.204675 27.717795,26.88805 27.499395,26.5597375 C27.034245,25.8606125 26.376945,25.262425 25.523295,24.765175 C25.267095,24.6004875 24.735795,24.361425 23.931495,24.0479875 C23.247945,23.791925 22.735545,23.5209875 22.394295,23.2362375 C21.491295,22.4946125 21.040845,21.5118 21.040845,20.2846125 C21.040845,19.50155 21.175245,18.7673625 21.442995,18.0831125 C21.771645,17.2373625 22.254645,16.626425 22.888845,16.256675 C23.486295,15.908175 23.943045,15.861425 24.260145,16.1174875 C24.700095,16.473425 24.967845,17.17255 25.065495,18.211675 L28.377195,15.572425 C28.292145,14.4536125 28.039095,13.56855 27.616995,12.9172375 C27.196995,12.2638 26.644695,11.8887375 25.961145,11.789925 C25.520145,11.72405 25.032945,11.768675 24.501645,11.9184875 L24.500595,8.1668 L21.148995,10.1249875 L21.148995,13.8926125 C20.567295,14.420675 20.040195,15.015675 19.577145,15.6903625 C18.174345,17.765425 17.472945,20.0232375 17.472945,22.461675 C17.472945,23.8163625 17.729145,24.9213625 18.242595,25.7777375 C18.717195,26.5268 19.527795,27.2163625 20.674395,27.8443 C22.040445,28.5572375 23.065245,29.0938 23.747745,29.4508 C24.613995,30.0426125 25.047645,30.8947375 25.047645,32.0082375 C25.047645,32.7774875 24.931095,33.4373 24.700095,33.9866125 C24.247545,35.0916125 23.644845,35.878925 22.888845,36.3496125 C22.352295,36.6917375 21.876645,36.7183 21.461895,36.431425 C20.900145,36.057425 20.546295,35.1319875 20.400345,33.656175 L17.106495,35.857675 C17.179995,37.2399875 17.435145,38.356675 17.866695,39.2088 C18.299295,40.060925 18.888345,40.59005 19.631745,40.7951125 C20.079045,40.9289875 20.586195,40.9258 21.148995,40.7929875 L21.148995,44.408675 L24.501645,42.4504875 L24.500595,38.93255 C24.639195,38.815675 24.791445,38.705175 24.919545,38.5829875 C25.943295,37.61505 26.737095,36.5174875 27.297795,35.2913625 C28.151445,33.46705 28.565145,31.6299875 28.540995,29.7769875 C28.529445,29.027925 28.359345,28.2724875 28.029645,27.510675"/>
    </g>
    <g transform="translate(0 126)">
      <path fill="#FFCE33" d="M37.629795,13.274875 C37.629795,25.0951875 29.430345,39.467625 19.314645,45.37725 C9.198945,51.2879375 0.998445,46.497125 0.998445,34.6768125 C0.998445,22.8565 9.198945,8.4840625 19.314645,2.5744375 C29.430345,-3.33625 37.629795,1.4545625 37.629795,13.274875"/>
      <path fill="#FFAC1A" d="M41.140785,15.5181313 C41.140785,27.3384438 32.941335,41.7108813 22.824585,47.6205063 C12.708885,53.5311938 4.509435,48.7403813 4.509435,36.9200688 C4.509435,25.1008188 12.708885,10.7283813 22.825635,4.81769375 C32.941335,-1.09193125 41.140785,3.69781875 41.140785,15.5181313"/>
      <path fill="#FFF" d="M28.029645,27.510675 C27.895245,27.204675 27.717795,26.88805 27.499395,26.5597375 C27.034245,25.8606125 26.376945,25.262425 25.523295,24.765175 C25.267095,24.6004875 24.735795,24.361425 23.931495,24.0479875 C23.247945,23.791925 22.735545,23.5209875 22.394295,23.2362375 C21.491295,22.4946125 21.040845,21.5118 21.040845,20.2846125 C21.040845,19.50155 21.175245,18.7673625 21.442995,18.0831125 C21.771645,17.2373625 22.254645,16.626425 22.888845,16.256675 C23.486295,15.908175 23.943045,15.861425 24.260145,16.1174875 C24.700095,16.473425 24.967845,17.17255 25.065495,18.211675 L28.377195,15.572425 C28.292145,14.4536125 28.039095,13.56855 27.616995,12.9172375 C27.196995,12.2638 26.644695,11.8887375 25.961145,11.789925 C25.520145,11.72405 25.032945,11.768675 24.501645,11.9184875 L24.500595,8.1668 L21.148995,10.1249875 L21.148995,13.8926125 C20.567295,14.420675 20.040195,15.015675 19.577145,15.6903625 C18.174345,17.765425 17.472945,20.0232375 17.472945,22.461675 C17.472945,23.8163625 17.729145,24.9213625 18.242595,25.7777375 C18.717195,26.5268 19.527795,27.2163625 20.674395,27.8443 C22.040445,28.5572375 23.065245,29.0938 23.747745,29.4508 C24.613995,30.0426125 25.047645,30.8947375 25.047645,32.0082375 C25.047645,32.7774875 24.931095,33.4373 24.700095,33.9866125 C24.247545,35.0916125 23.644845,35.878925 22.888845,36.3496125 C22.352295,36.6917375 21.876645,36.7183 21.461895,36.431425 C20.900145,36.057425 20.546295,35.1319875 20.400345,33.656175 L17.106495,35.857675 C17.179995,37.2399875 17.435145,38.356675 17.866695,39.2088 C18.299295,40.060925 18.888345,40.59005 19.631745,40.7951125 C20.079045,40.9289875 20.586195,40.9258 21.148995,40.7929875 L21.148995,44.408675 L24.501645,42.4504875 L24.500595,38.93255 C24.639195,38.815675 24.791445,38.705175 24.919545,38.5829875 C25.943295,37.61505 26.737095,36.5174875 27.297795,35.2913625 C28.151445,33.46705 28.565145,31.6299875 28.540995,29.7769875 C28.529445,29.027925 28.359345,28.2724875 28.029645,27.510675"/>
    </g>
    <g transform="translate(221 42)">
      <path fill="#FFCE33" d="M37.629795,13.274875 C37.629795,25.0951875 29.430345,39.467625 19.314645,45.37725 C9.198945,51.2879375 0.998445,46.497125 0.998445,34.6768125 C0.998445,22.8565 9.198945,8.4840625 19.314645,2.5744375 C29.430345,-3.33625 37.629795,1.4545625 37.629795,13.274875"/>
      <path fill="#FFAC1A" d="M41.140785,15.5181313 C41.140785,27.3384438 32.941335,41.7108813 22.824585,47.6205063 C12.708885,53.5311938 4.509435,48.7403813 4.509435,36.9200688 C4.509435,25.1008188 12.708885,10.7283813 22.825635,4.81769375 C32.941335,-1.09193125 41.140785,3.69781875 41.140785,15.5181313"/>
      <path fill="#FFF" d="M28.029645,27.510675 C27.895245,27.204675 27.717795,26.88805 27.499395,26.5597375 C27.034245,25.8606125 26.376945,25.262425 25.523295,24.765175 C25.267095,24.6004875 24.735795,24.361425 23.931495,24.0479875 C23.247945,23.791925 22.735545,23.5209875 22.394295,23.2362375 C21.491295,22.4946125 21.040845,21.5118 21.040845,20.2846125 C21.040845,19.50155 21.175245,18.7673625 21.442995,18.0831125 C21.771645,17.2373625 22.254645,16.626425 22.888845,16.256675 C23.486295,15.908175 23.943045,15.861425 24.260145,16.1174875 C24.700095,16.473425 24.967845,17.17255 25.065495,18.211675 L28.377195,15.572425 C28.292145,14.4536125 28.039095,13.56855 27.616995,12.9172375 C27.196995,12.2638 26.644695,11.8887375 25.961145,11.789925 C25.520145,11.72405 25.032945,11.768675 24.501645,11.9184875 L24.500595,8.1668 L21.148995,10.1249875 L21.148995,13.8926125 C20.567295,14.420675 20.040195,15.015675 19.577145,15.6903625 C18.174345,17.765425 17.472945,20.0232375 17.472945,22.461675 C17.472945,23.8163625 17.729145,24.9213625 18.242595,25.7777375 C18.717195,26.5268 19.527795,27.2163625 20.674395,27.8443 C22.040445,28.5572375 23.065245,29.0938 23.747745,29.4508 C24.613995,30.0426125 25.047645,30.8947375 25.047645,32.0082375 C25.047645,32.7774875 24.931095,33.4373 24.700095,33.9866125 C24.247545,35.0916125 23.644845,35.878925 22.888845,36.3496125 C22.352295,36.6917375 21.876645,36.7183 21.461895,36.431425 C20.900145,36.057425 20.546295,35.1319875 20.400345,33.656175 L17.106495,35.857675 C17.179995,37.2399875 17.435145,38.356675 17.866695,39.2088 C18.299295,40.060925 18.888345,40.59005 19.631745,40.7951125 C20.079045,40.9289875 20.586195,40.9258 21.148995,40.7929875 L21.148995,44.408675 L24.501645,42.4504875 L24.500595,38.93255 C24.639195,38.815675 24.791445,38.705175 24.919545,38.5829875 C25.943295,37.61505 26.737095,36.5174875 27.297795,35.2913625 C28.151445,33.46705 28.565145,31.6299875 28.540995,29.7769875 C28.529445,29.027925 28.359345,28.2724875 28.029645,27.510675"/>
    </g>
    <g transform="translate(127 89)">
      <path fill="#ABE224" d="M33.5581543,12.7362727 C33.5581543,2.06216364 26.0460971,-2.26463636 16.7791829,3.07241818 C7.51121143,8.41052727 -0.000845714286,21.3898727 0.000211428571,32.0629273 C-0.000845714286,41.1214727 5.41066857,45.6043455 12.7123543,43.4942 L16.81724,56.115 L19.44424,57.6873273 L20.8597543,38.7983091 C28.15404,32.4974 33.5581543,21.7884909 33.5581543,12.7362727"/>
      <path fill="#75C111" d="M36.1849429,14.3082836 C36.1849429,3.63417455 28.6728857,-0.692625455 19.4059714,4.64442909 C10.138,9.98253818 2.62594286,22.9618836 2.627,33.6359927 C2.62594286,42.6934836 8.03745714,47.1763564 15.3380857,45.0662109 L19.4440286,57.6870109 L23.4865429,40.37032 C30.7808286,34.0694109 36.1849429,23.3605018 36.1849429,14.3082836"/>
      <path fill="#FFF" d="M14.9115286 30.5492327L16.5818143 29.5874873 16.5818143 31.4202873 15.2783571 32.1700691 14.9115286 30.5492327zM13.9854714 20.8685055L13.9854714 22.6759964 13.2338429 23.10836 12.8723 21.5086145 13.9854714 20.8685055zM28.4123 14.3661782L27.4672143 14.9113782 27.4672143 13.1038873 28.6818714 12.4036691 28.4123 14.3661782zM25.0093571 24.7334145L26.8900143 23.6503964 26.8900143 25.41676 26.8805 25.4884691 25.0093571 26.5662145 25.0093571 24.7334145zM22.3929286 26.24036L24.4321571 25.0666509 24.4311 26.8983964 22.3929286 28.07316 22.3929286 26.24036zM19.7765 27.7473055L21.8157286 26.5725418 21.8157286 28.4053418 19.7765 29.5801055 19.7765 27.7473055zM19.1982429 28.0805418L19.1971857 29.9122873 17.1590143 31.0870509 17.1590143 29.2542509 19.1982429 28.0805418zM17.1590143 26.6453055L19.1971857 25.4705418 19.1971857 27.50476 17.1590143 28.6784691 17.1590143 26.6453055zM14.5626714 29.00116L14.5626714 28.1395964 16.5818143 26.9774873 16.5818143 29.0117055 14.7973571 30.0388327 14.5626714 29.00116zM13.9854714 25.8628327L13.9854714 26.4396691 13.8702429 25.9292691 13.9854714 25.8628327zM13.9854714 25.2849418L13.7550143 25.4178145 13.3480143 23.6177055 13.9854714 23.2517782 13.9854714 25.2849418zM16.5818143 21.7574873L16.5818143 23.7906509 14.5626714 24.95276 14.5626714 22.9195964 16.5818143 21.7574873zM16.5818143 21.1806509L14.5626714 22.34276 14.5626714 20.5352691 16.5818143 19.37316 16.5818143 21.1806509zM19.1971857 19.6737055L17.1590143 20.8484691 17.1590143 19.0399236 19.1971857 17.8662145 19.1971857 19.6737055zM21.8157286 18.16676L19.7765 19.3415236 19.7765 17.5329782 21.8157286 16.3582145 21.8157286 18.16676zM24.4311 16.65876L22.3929286 17.8335236 22.3929286 16.0260327 24.4311 14.8512691 24.4311 16.65876zM25.0093571 16.3265782L25.0093571 14.5190873 26.8900143 13.4360691 26.8900143 15.24356 25.0093571 16.3265782zM26.8900143 17.85356L25.0093571 18.9365782 25.0093571 16.90236 26.8900143 15.8193418 26.8900143 17.85356zM27.4672143 17.5213782L27.4672143 15.48716 28.3256143 14.9936327 28.0211571 17.2018509 27.4672143 17.5213782zM27.6300143 20.0375236L27.4672143 20.1313782 27.4672143 18.09716 27.9344714 17.8282509 27.6300143 20.0375236zM27.4672143 21.2228327L27.4672143 20.70716 27.5443857 20.6628691 27.4672143 21.2228327zM25.0093571 22.1234145L26.8900143 21.0403964 26.8900143 23.0746145 25.0093571 24.1565782 25.0093571 22.1234145zM22.3929286 23.6293055L24.4311 22.4555964 24.4311 24.4898145 22.3929286 25.6645782 22.3929286 23.6293055zM21.8157286 23.9625418L21.8157286 25.99676 19.7765 27.1715236 19.7765 25.1373055 21.8157286 23.9625418zM19.7765 22.5273055L21.8157286 21.3525418 21.8157286 23.38676 19.7765 24.5604691 19.7765 22.5273055zM19.1971857 22.2837055L17.1590143 23.4574145 17.1590143 21.4242509 19.1982429 20.2494873 19.1971857 22.2837055zM21.8157286 20.7757055L19.7765 21.9504691 19.7765 19.9173055 21.8157286 18.7414873 21.8157286 20.7757055zM22.3929286 20.4435236L22.3929286 18.41036 24.4321571 17.2355964 24.4311 19.26876 22.3929286 20.4435236zM25.0093571 19.51236L26.8900143 18.4293418 26.8900143 20.4646145 25.0093571 21.5465782 25.0093571 19.51236zM24.4321571 21.87876L22.3929286 23.0535236 22.3929286 21.0193055 24.4311 19.8455964 24.4321571 21.87876zM16.5818143 26.4006509L14.5626714 27.56276 14.5626714 25.5295964 16.5818143 24.3674873 16.5818143 26.4006509zM17.1590143 24.0342509L19.1971857 22.8594873 19.1982429 24.8937055 17.1590143 26.0674145 17.1590143 24.0342509zM30.0233857 10.4780691L12.6429 20.4878145 12.3151857 19.0357055 7.56121429 21.7733055 7.56121429 22.9259236 11.3658714 20.7335236 14.3301 33.8689418 26.7166429 26.7359964 26.5284714 28.1248327 14.5214429 35.0405418 14.6895286 36.0961418 27.5274714 28.7016691 28.2273 23.5185782 28.2262429 23.5196327 30.0233857 10.4780691zM16.9649229 34.9290764C16.1403514 35.4046764 15.4722371 36.4560582 15.47118 37.2786036 15.47118 38.1011491 16.1403514 38.3827127 16.9649229 37.9081673 17.7884371 37.4325673 18.4576086 36.3811855 18.4576086 35.55864 18.4576086 34.7360945 17.7884371 34.4545309 16.9649229 34.9290764M25.0184486 30.2906582C24.1938771 30.7652036 23.5257629 31.81764 23.5257629 32.6401855 23.5257629 33.4616764 24.1938771 33.74324 25.0184486 33.2697491 25.84302 32.7941491 26.5111343 31.7427673 26.5111343 30.9212764 26.5111343 30.0987309 25.84302 29.8161127 25.0184486 30.2906582"/>
    </g>
  </g>
</svg>
