<svg xmlns="http://www.w3.org/2000/svg" xmlns:xlink="http://www.w3.org/1999/xlink" width="310" height="365" viewBox="0 0 310 365">
  <defs>
    <polygon id="pi-pricing-landing-a" points="0 .287 0 202.894 75.71 202.894 75.71 .287 0 .287"/>
    <polygon id="pi-pricing-landing-c" points="0 .287 0 202.894 75.71 202.894 75.71 .287 0 .287"/>
    <polygon id="pi-pricing-landing-e" points="0 15.287 0 .072 11.783 .072 11.783 15.287"/>
    <polygon id="pi-pricing-landing-g" points="0 15.287 0 .072 11.783 .072 11.783 15.287"/>
    <polygon id="pi-pricing-landing-i" points="0 .287 0 202.894 75.71 202.894 75.71 .287 0 .287"/>
    <linearGradient id="pi-pricing-landing-k" x1="1.301%" x2="98.76%" y1="50%" y2="50%">
      <stop offset="0%" stop-color="#43CEA2"/>
      <stop offset="100%" stop-color="#185A9D"/>
    </linearGradient>
    <polygon id="pi-pricing-landing-l" points="0 15.287 0 .072 11.783 .072 11.783 15.287"/>
    <polygon id="pi-pricing-landing-n" points="11.912 .119 11.912 15.333 .129 15.333 .129 .119"/>
  </defs>
  <g fill="none" fill-rule="evenodd">
    <g transform="translate(210 46)">
      <path fill="#42CDA2" d="M31.1413,101.5316 L0.2203,84.1886 L0.2203,0.3716 L95.2553,66.3816 C97.8943,68.3676 97.6343,72.4066 94.7623,74.0376 L44.8993,102.3496 C40.5533,104.8166 35.1633,104.4966 31.1413,101.5316" transform="translate(2 114.713)"/>
      <g transform="translate(0 .713)">
        <mask id="pi-pricing-landing-b" fill="#fff">
          <use xlink:href="#pi-pricing-landing-a"/>
        </mask>
        <path fill="#87AFB9" d="M75.7097,4.932 L69.4797,1.28 C69.2317,1.104 68.9737,0.953 68.6997,0.823 L68.5557,0.738 L68.5527,0.753 C66.6557,-0.075 64.1827,0.172 61.4777,1.727 L10.7667,30.888 C4.8447,34.292 0.0007,42.666 0.0007,49.497 L-0.0003,191.929 C-0.0003,195.151 1.0847,197.458 2.8427,198.655 L2.8387,198.672 L3.0477,198.796 C3.1137,198.836 3.1797,198.877 3.2467,198.914 L9.9667,202.894 L11.9777,197.412 L61.4957,168.741 C67.4067,165.319 72.2427,156.93 72.2427,150.099 L72.2427,8.745 L74.6617,10.177 L75.7097,4.932 Z" mask="url(#pi-pricing-landing-b)"/>
      </g>
      <path fill="#55696E" d="M78.8181,154.7084 C78.8181,161.5384 73.9811,169.9274 68.0701,173.3504 L17.3221,202.7334 C11.4111,206.1564 6.5751,203.3684 6.5751,196.5384 L6.5751,54.1054 C6.5751,47.2754 11.4201,38.9014 17.3401,35.4964 L68.0521,6.3364 C73.9731,2.9324 78.8181,5.7344 78.8181,12.5644 L78.8181,154.7084 Z"/>
      <polygon fill="#323C3C" points="72.298 149.887 13.151 183.284 13.151 51.95 72.298 18.553"/>
      <polygon fill="#696E73" points="71.621 18.935 71.621 148.827 13.15 181.842 13.15 183.285 72.298 149.887 72.298 18.553"/>
    </g>
    <g transform="translate(30 146)">
      <path fill="#42CDA2" d="M31.1413,101.5316 L0.2203,84.1886 L0.2203,0.3716 L95.2553,66.3816 C97.8943,68.3676 97.6343,72.4066 94.7623,74.0376 L44.8993,102.3496 C40.5533,104.8166 35.1633,104.4966 31.1413,101.5316" transform="translate(2 114.713)"/>
      <g transform="translate(0 .713)">
        <mask id="pi-pricing-landing-d" fill="#fff">
          <use xlink:href="#pi-pricing-landing-c"/>
        </mask>
        <path fill="#87AFB9" d="M75.7097,4.932 L69.4797,1.28 C69.2317,1.104 68.9737,0.953 68.6997,0.823 L68.5557,0.738 L68.5527,0.753 C66.6557,-0.075 64.1827,0.172 61.4777,1.727 L10.7667,30.888 C4.8447,34.292 0.0007,42.666 0.0007,49.497 L-0.0003,191.929 C-0.0003,195.151 1.0847,197.458 2.8427,198.655 L2.8387,198.672 L3.0477,198.796 C3.1137,198.836 3.1797,198.877 3.2467,198.914 L9.9667,202.894 L11.9777,197.412 L61.4957,168.741 C67.4067,165.319 72.2427,156.93 72.2427,150.099 L72.2427,8.745 L74.6617,10.177 L75.7097,4.932 Z" mask="url(#pi-pricing-landing-d)"/>
      </g>
      <path fill="#55696E" d="M78.8181,154.7084 C78.8181,161.5384 73.9811,169.9274 68.0701,173.3504 L17.3221,202.7334 C11.4111,206.1564 6.5751,203.3684 6.5751,196.5384 L6.5751,54.1054 C6.5751,47.2754 11.4201,38.9014 17.3401,35.4964 L68.0521,6.3364 C73.9731,2.9324 78.8181,5.7344 78.8181,12.5644 L78.8181,154.7084 Z"/>
      <polygon fill="#323C3C" points="72.298 149.887 13.151 183.284 13.151 51.95 72.298 18.553"/>
      <polygon fill="#B4B4B4" points="72.147 49.103 13 82.5 13.353 51.397 72.5 18"/>
      <polygon fill="#B4B4B4" points="72.147 70.103 13 103.5 13.202 89.397 72.349 56"/>
      <polygon fill="#B4B4B4" points="72.147 87.103 13 120.5 13.202 106.397 72.349 73"/>
      <polygon fill="#B4B4B4" points="72.147 104.103 13 137.5 13.202 123.397 72.349 90"/>
      <polygon fill="#B4B4B4" points="72.147 121.103 13 154.5 13.202 140.397 72.349 107"/>
      <polygon fill="#696E73" points="71.621 18.935 71.621 148.827 13.15 181.842 13.15 183.285 72.298 149.887 72.298 18.553"/>
    </g>
    <g transform="translate(61)">
      <path fill="#FFCE33" d="M35.8379,12.494 C35.8379,23.619 28.0289,37.146 18.3949,42.708 C8.7609,48.271 0.9509,43.762 0.9509,32.637 C0.9509,21.512 8.7609,7.985 18.3949,2.423 C28.0289,-3.14 35.8379,1.369 35.8379,12.494"/>
      <path fill="#FFAC1A" d="M39.1817,14.6053 C39.1817,25.7303 31.3727,39.2573 21.7377,44.8193 C12.1037,50.3823 4.2947,45.8733 4.2947,34.7483 C4.2947,23.6243 12.1037,10.0973 21.7387,4.5343 C31.3727,-1.0277 39.1817,3.4803 39.1817,14.6053"/>
      <path fill="#FFF" d="M26.6949,25.8924 C26.5669,25.6044 26.3979,25.3064 26.1899,24.9974 C25.7469,24.3394 25.1209,23.7764 24.3079,23.3084 C24.0639,23.1534 23.5579,22.9284 22.7919,22.6334 C22.1409,22.3924 21.6529,22.1374 21.3279,21.8694 C20.4679,21.1714 20.0389,20.2464 20.0389,19.0914 C20.0389,18.3544 20.1669,17.6634 20.4219,17.0194 C20.7349,16.2234 21.1949,15.6484 21.7989,15.3004 C22.3679,14.9724 22.8029,14.9284 23.1049,15.1694 C23.5239,15.5044 23.7789,16.1624 23.8719,17.1404 L27.0259,14.6564 C26.9449,13.6034 26.7039,12.7704 26.3019,12.1574 C25.9019,11.5424 25.3759,11.1894 24.7249,11.0964 C24.3049,11.0344 23.8409,11.0764 23.3349,11.2174 L23.3339,7.6864 L20.1419,9.5294 L20.1419,13.0754 C19.5879,13.5724 19.0859,14.1324 18.6449,14.7674 C17.3089,16.7204 16.6409,18.8454 16.6409,21.1404 C16.6409,22.4154 16.8849,23.4554 17.3739,24.2614 C17.8259,24.9664 18.5979,25.6154 19.6899,26.2064 C20.9909,26.8774 21.9669,27.3824 22.6169,27.7184 C23.4419,28.2754 23.8549,29.0774 23.8549,30.1254 C23.8549,30.8494 23.7439,31.4704 23.5239,31.9874 C23.0929,33.0274 22.5189,33.7684 21.7989,34.2114 C21.2879,34.5334 20.8349,34.5584 20.4399,34.2884 C19.9049,33.9364 19.5679,33.0654 19.4289,31.6764 L16.2919,33.7484 C16.3619,35.0494 16.6049,36.1004 17.0159,36.9024 C17.4279,37.7044 17.9889,38.2024 18.6969,38.3954 C19.1229,38.5214 19.6059,38.5184 20.1419,38.3934 L20.1419,41.7964 L23.3349,39.9534 L23.3339,36.6424 C23.4659,36.5324 23.6109,36.4284 23.7329,36.3134 C24.7079,35.4024 25.4639,34.3694 25.9979,33.2154 C26.8109,31.4984 27.2049,29.7694 27.1819,28.0254 C27.1709,27.3204 27.0089,26.6094 26.6949,25.8924"/>
    </g>
    <g transform="translate(0 120)">
      <path fill="#FFCE33" d="M35.8379,12.494 C35.8379,23.619 28.0289,37.146 18.3949,42.708 C8.7609,48.271 0.9509,43.762 0.9509,32.637 C0.9509,21.512 8.7609,7.985 18.3949,2.423 C28.0289,-3.14 35.8379,1.369 35.8379,12.494"/>
      <path fill="#FFAC1A" d="M39.1817,14.6053 C39.1817,25.7303 31.3727,39.2573 21.7377,44.8193 C12.1037,50.3823 4.2947,45.8733 4.2947,34.7483 C4.2947,23.6243 12.1037,10.0973 21.7387,4.5343 C31.3727,-1.0277 39.1817,3.4803 39.1817,14.6053"/>
      <path fill="#FFF" d="M26.6949,25.8924 C26.5669,25.6044 26.3979,25.3064 26.1899,24.9974 C25.7469,24.3394 25.1209,23.7764 24.3079,23.3084 C24.0639,23.1534 23.5579,22.9284 22.7919,22.6334 C22.1409,22.3924 21.6529,22.1374 21.3279,21.8694 C20.4679,21.1714 20.0389,20.2464 20.0389,19.0914 C20.0389,18.3544 20.1669,17.6634 20.4219,17.0194 C20.7349,16.2234 21.1949,15.6484 21.7989,15.3004 C22.3679,14.9724 22.8029,14.9284 23.1049,15.1694 C23.5239,15.5044 23.7789,16.1624 23.8719,17.1404 L27.0259,14.6564 C26.9449,13.6034 26.7039,12.7704 26.3019,12.1574 C25.9019,11.5424 25.3759,11.1894 24.7249,11.0964 C24.3049,11.0344 23.8409,11.0764 23.3349,11.2174 L23.3339,7.6864 L20.1419,9.5294 L20.1419,13.0754 C19.5879,13.5724 19.0859,14.1324 18.6449,14.7674 C17.3089,16.7204 16.6409,18.8454 16.6409,21.1404 C16.6409,22.4154 16.8849,23.4554 17.3739,24.2614 C17.8259,24.9664 18.5979,25.6154 19.6899,26.2064 C20.9909,26.8774 21.9669,27.3824 22.6169,27.7184 C23.4419,28.2754 23.8549,29.0774 23.8549,30.1254 C23.8549,30.8494 23.7439,31.4704 23.5239,31.9874 C23.0929,33.0274 22.5189,33.7684 21.7989,34.2114 C21.2879,34.5334 20.8349,34.5584 20.4399,34.2884 C19.9049,33.9364 19.5679,33.0654 19.4289,31.6764 L16.2919,33.7484 C16.3619,35.0494 16.6049,36.1004 17.0159,36.9024 C17.4279,37.7044 17.9889,38.2024 18.6969,38.3954 C19.1229,38.5214 19.6059,38.5184 20.1419,38.3934 L20.1419,41.7964 L23.3349,39.9534 L23.3339,36.6424 C23.4659,36.5324 23.6109,36.4284 23.7329,36.3134 C24.7079,35.4024 25.4639,34.3694 25.9979,33.2154 C26.8109,31.4984 27.2049,29.7694 27.1819,28.0254 C27.1709,27.3204 27.0089,26.6094 26.6949,25.8924"/>
    </g>
    <g transform="translate(210)">
      <path fill="#FFCE33" d="M35.8379,12.494 C35.8379,23.619 28.0289,37.146 18.3949,42.708 C8.7609,48.271 0.9509,43.762 0.9509,32.637 C0.9509,21.512 8.7609,7.985 18.3949,2.423 C28.0289,-3.14 35.8379,1.369 35.8379,12.494"/>
      <path fill="#FFAC1A" d="M39.1817,14.6053 C39.1817,25.7303 31.3727,39.2573 21.7377,44.8193 C12.1037,50.3823 4.2947,45.8733 4.2947,34.7483 C4.2947,23.6243 12.1037,10.0973 21.7387,4.5343 C31.3727,-1.0277 39.1817,3.4803 39.1817,14.6053"/>
      <path fill="#FFF" d="M26.6949,25.8924 C26.5669,25.6044 26.3979,25.3064 26.1899,24.9974 C25.7469,24.3394 25.1209,23.7764 24.3079,23.3084 C24.0639,23.1534 23.5579,22.9284 22.7919,22.6334 C22.1409,22.3924 21.6529,22.1374 21.3279,21.8694 C20.4679,21.1714 20.0389,20.2464 20.0389,19.0914 C20.0389,18.3544 20.1669,17.6634 20.4219,17.0194 C20.7349,16.2234 21.1949,15.6484 21.7989,15.3004 C22.3679,14.9724 22.8029,14.9284 23.1049,15.1694 C23.5239,15.5044 23.7789,16.1624 23.8719,17.1404 L27.0259,14.6564 C26.9449,13.6034 26.7039,12.7704 26.3019,12.1574 C25.9019,11.5424 25.3759,11.1894 24.7249,11.0964 C24.3049,11.0344 23.8409,11.0764 23.3349,11.2174 L23.3339,7.6864 L20.1419,9.5294 L20.1419,13.0754 C19.5879,13.5724 19.0859,14.1324 18.6449,14.7674 C17.3089,16.7204 16.6409,18.8454 16.6409,21.1404 C16.6409,22.4154 16.8849,23.4554 17.3739,24.2614 C17.8259,24.9664 18.5979,25.6154 19.6899,26.2064 C20.9909,26.8774 21.9669,27.3824 22.6169,27.7184 C23.4419,28.2754 23.8549,29.0774 23.8549,30.1254 C23.8549,30.8494 23.7439,31.4704 23.5239,31.9874 C23.0929,33.0274 22.5189,33.7684 21.7989,34.2114 C21.2879,34.5334 20.8349,34.5584 20.4399,34.2884 C19.9049,33.9364 19.5679,33.0654 19.4289,31.6764 L16.2919,33.7484 C16.3619,35.0494 16.6049,36.1004 17.0159,36.9024 C17.4279,37.7044 17.9889,38.2024 18.6969,38.3954 C19.1229,38.5214 19.6059,38.5184 20.1419,38.3934 L20.1419,41.7964 L23.3349,39.9534 L23.3339,36.6424 C23.4659,36.5324 23.6109,36.4284 23.7329,36.3134 C24.7079,35.4024 25.4639,34.3694 25.9979,33.2154 C26.8109,31.4984 27.2049,29.7694 27.1819,28.0254 C27.1709,27.3204 27.0089,26.6094 26.6949,25.8924"/>
    </g>
    <g transform="translate(121 5)">
      <path fill="#ABE224" d="M31.7442,12.0775 C31.7442,1.9555 24.6382,-2.1475 15.8722,2.9135 C7.1052,7.9755 -0.0008,20.2835 0.0002,30.4045 C-0.0008,38.9945 5.1182,43.2455 12.0252,41.2445 L15.9082,53.2125 L18.3932,54.7035 L19.7322,36.7915 C26.6322,30.8165 31.7442,20.6615 31.7442,12.0775"/>
      <path fill="#75C111" d="M34.229,13.5682 C34.229,3.4462 27.123,-0.6568 18.357,4.4042 C9.59,9.4662 2.484,21.7742 2.485,31.8962 C2.484,40.4852 7.603,44.7362 14.509,42.7352 L18.393,54.7032 L22.217,38.2822 C29.117,32.3072 34.229,22.1522 34.229,13.5682"/>
      <path fill="#FFF" d="M14.1055 28.9691L15.6855 28.0571 15.6855 29.7951 14.4525 30.5061 14.1055 28.9691zM13.2295 19.7891L13.2295 21.5031 12.5185 21.9131 12.1765 20.3961 13.2295 19.7891zM26.8765 13.6231L25.9825 14.1401 25.9825 12.4261 27.1315 11.7621 26.8765 13.6231zM23.6575 23.4541L25.4365 22.4271 25.4365 24.1021 25.4275 24.1701 23.6575 25.1921 23.6575 23.4541zM21.1825 24.8831L23.1115 23.7701 23.1105 25.5071 21.1825 26.6211 21.1825 24.8831zM18.7075 26.3121L20.6365 25.1981 20.6365 26.9361 18.7075 28.0501 18.7075 26.3121zM18.1605 26.6281L18.1595 28.3651 16.2315 29.4791 16.2315 27.7411 18.1605 26.6281zM16.2315 25.2671L18.1595 24.1531 18.1595 26.0821 16.2315 27.1951 16.2315 25.2671zM13.7755 27.5011L13.7755 26.6841 15.6855 25.5821 15.6855 27.5111 13.9975 28.4851 13.7755 27.5011zM13.2295 24.5251L13.2295 25.0721 13.1205 24.5881 13.2295 24.5251zM13.2295 23.9771L13.0115 24.1031 12.6265 22.3961 13.2295 22.0491 13.2295 23.9771zM15.6855 20.6321L15.6855 22.5601 13.7755 23.6621 13.7755 21.7341 15.6855 20.6321zM15.6855 20.0851L13.7755 21.1871 13.7755 19.4731 15.6855 18.3711 15.6855 20.0851zM18.1595 18.6561L16.2315 19.7701 16.2315 18.0551 18.1595 16.9421 18.1595 18.6561zM20.6365 17.2271L18.7075 18.3411 18.7075 16.6261 20.6365 15.5121 20.6365 17.2271zM23.1105 15.7971L21.1825 16.9111 21.1825 15.1971 23.1105 14.0831 23.1105 15.7971zM23.6575 15.4821L23.6575 13.7681 25.4365 12.7411 25.4365 14.4551 23.6575 15.4821zM25.4365 16.9301L23.6575 17.9571 23.6575 16.0281 25.4365 15.0011 25.4365 16.9301zM25.9825 16.6151L25.9825 14.6861 26.7945 14.2181 26.5065 16.3121 25.9825 16.6151zM26.1365 19.0011L25.9825 19.0901 25.9825 17.1611 26.4245 16.9061 26.1365 19.0011zM25.9825 20.1251L25.9825 19.6361 26.0555 19.5941 25.9825 20.1251zM23.6575 20.9791L25.4365 19.9521 25.4365 21.8811 23.6575 22.9071 23.6575 20.9791zM21.1825 22.4071L23.1105 21.2941 23.1105 23.2231 21.1825 24.3371 21.1825 22.4071zM20.6365 22.7231L20.6365 24.6521 18.7075 25.7661 18.7075 23.8371 20.6365 22.7231zM18.7075 21.3621L20.6365 20.2481 20.6365 22.1771 18.7075 23.2901 18.7075 21.3621zM18.1595 21.1311L16.2315 22.2441 16.2315 20.3161 18.1605 19.2021 18.1595 21.1311zM20.6365 19.7011L18.7075 20.8151 18.7075 18.8871 20.6365 17.7721 20.6365 19.7011zM21.1825 19.3861L21.1825 17.4581 23.1115 16.3441 23.1105 18.2721 21.1825 19.3861zM23.6575 18.5031L25.4365 17.4761 25.4365 19.4061 23.6575 20.4321 23.6575 18.5031zM23.1115 20.7471L21.1825 21.8611 21.1825 19.9321 23.1105 18.8191 23.1115 20.7471zM15.6855 25.0351L13.7755 26.1371 13.7755 24.2091 15.6855 23.1071 15.6855 25.0351zM16.2315 22.7911L18.1595 21.6771 18.1605 23.6061 16.2315 24.7191 16.2315 22.7911zM28.4005 9.9361L11.9595 19.4281 11.6495 18.0511 7.1525 20.6471 7.1525 21.7401 10.7515 19.6611 13.5555 32.1171 25.2725 25.3531 25.0945 26.6701 13.7365 33.2281 13.8955 34.2291 26.0395 27.2171 26.7015 22.3021 26.7005 22.3031 28.4005 9.9361zM16.0479 33.1224C15.2679 33.5734 14.6359 34.5704 14.6349 35.3504 14.6349 36.1304 15.2679 36.3974 16.0479 35.9474 16.8269 35.4964 17.4599 34.4994 17.4599 33.7194 17.4599 32.9394 16.8269 32.6724 16.0479 33.1224M23.6661 28.7239C22.8861 29.1739 22.2541 30.1719 22.2541 30.9519 22.2541 31.7309 22.8861 31.9979 23.6661 31.5489 24.4461 31.0979 25.0781 30.1009 25.0781 29.3219 25.0781 28.5419 24.4461 28.2739 23.6661 28.7239"/>
    </g>
    <g transform="translate(70 288)">
      <polygon fill="#FF9E1D" points="11 1.786 10 1 10.182 2"/>
      <polygon fill="#FF9E1D" points="3 15 1 14.233 2.204 14"/>
      <mask id="pi-pricing-landing-f" fill="#fff">
        <use xlink:href="#pi-pricing-landing-e"/>
      </mask>
      <path fill="#FFF" d="M11.7825333,4.27806667 C11.7825333,8.03506667 9.14486667,12.6034 5.89086667,14.4820667 C2.63753333,16.3610667 -0.000133333333,14.8380667 -0.000133333333,11.0804 C-0.000133333333,7.32406667 2.63753333,2.75573333 5.8912,0.876733333 C9.14486667,-1.00193333 11.7825333,0.521066667 11.7825333,4.27806667" mask="url(#pi-pricing-landing-f)"/>
      <path fill="#9B9B9B" d="M11.9117667,4.32493333 C11.9117667,8.08193333 9.2741,12.6499333 6.02043333,14.5289333 C2.76643333,16.4072667 0.1291,14.8842667 0.1291,11.1272667 C0.1291,7.3706 2.76643333,2.80193333 6.02043333,0.9236 C9.2741,-0.9554 11.9117667,0.5676 11.9117667,4.32493333" transform="translate(1 .667)"/>
    </g>
    <polygon fill="#B4B4B4" points="282.147 95.103 223 128.5 223.353 97.397 282.5 64"/>
    <polygon fill="#B4B4B4" points="282.147 116.103 223 149.5 223.202 135.397 282.349 102"/>
    <polygon fill="#B4B4B4" points="282.147 133.103 223 166.5 223.202 152.397 282.349 119"/>
    <polygon fill="#B4B4B4" points="282.147 150.103 223 183.5 223.202 169.397 282.349 136"/>
    <polygon fill="#B4B4B4" points="282.147 167.103 223 200.5 223.202 186.397 282.349 153"/>
    <g transform="translate(250 188)">
      <polygon fill="#FF9E1D" points="11 1.786 10 1 10.182 2"/>
      <polygon fill="#FF9E1D" points="3 15 1 14.233 2.204 14"/>
      <mask id="pi-pricing-landing-h" fill="#fff">
        <use xlink:href="#pi-pricing-landing-g"/>
      </mask>
      <path fill="#FFF" d="M11.7825333,4.27806667 C11.7825333,8.03506667 9.14486667,12.6034 5.89086667,14.4820667 C2.63753333,16.3610667 -0.000133333333,14.8380667 -0.000133333333,11.0804 C-0.000133333333,7.32406667 2.63753333,2.75573333 5.8912,0.876733333 C9.14486667,-1.00193333 11.7825333,0.521066667 11.7825333,4.27806667" mask="url(#pi-pricing-landing-h)"/>
      <path fill="#9B9B9B" d="M11.9117667,4.32493333 C11.9117667,8.08193333 9.2741,12.6499333 6.02043333,14.5289333 C2.76643333,16.4072667 0.1291,14.8842667 0.1291,11.1272667 C0.1291,7.3706 2.76643333,2.80193333 6.02043333,0.9236 C9.2741,-0.9554 11.9117667,0.5676 11.9117667,4.32493333" transform="translate(1 .667)"/>
    </g>
    <g transform="translate(120 96)">
      <path fill="#42CDA2" d="M31.1413,101.5316 L0.2203,84.1886 L0.2203,0.3716 L95.2553,66.3816 C97.8943,68.3676 97.6343,72.4066 94.7623,74.0376 L44.8993,102.3496 C40.5533,104.8166 35.1633,104.4966 31.1413,101.5316" transform="translate(2 114.713)"/>
      <g transform="translate(0 .713)">
        <mask id="pi-pricing-landing-j" fill="#fff">
          <use xlink:href="#pi-pricing-landing-i"/>
        </mask>
        <path fill="#87AFB9" d="M75.7097,4.932 L69.4797,1.28 C69.2317,1.104 68.9737,0.953 68.6997,0.823 L68.5557,0.738 L68.5527,0.753 C66.6557,-0.075 64.1827,0.172 61.4777,1.727 L10.7667,30.888 C4.8447,34.292 0.0007,42.666 0.0007,49.497 L-0.0003,191.929 C-0.0003,195.151 1.0847,197.458 2.8427,198.655 L2.8387,198.672 L3.0477,198.796 C3.1137,198.836 3.1797,198.877 3.2467,198.914 L9.9667,202.894 L11.9777,197.412 L61.4957,168.741 C67.4067,165.319 72.2427,156.93 72.2427,150.099 L72.2427,8.745 L74.6617,10.177 L75.7097,4.932 Z" mask="url(#pi-pricing-landing-j)"/>
      </g>
      <path fill="#55696E" d="M78.8181,154.7084 C78.8181,161.5384 73.9811,169.9274 68.0701,173.3504 L17.3221,202.7334 C11.4111,206.1564 6.5751,203.3684 6.5751,196.5384 L6.5751,54.1054 C6.5751,47.2754 11.4201,38.9014 17.3401,35.4964 L68.0521,6.3364 C73.9731,2.9324 78.8181,5.7344 78.8181,12.5644 L78.8181,154.7084 Z"/>
      <polygon fill="#323C3C" points="72.298 149.887 13.151 183.284 13.151 51.95 72.298 18.553"/>
      <polygon fill="#696E73" points="71.621 18.935 71.621 148.827 13.15 181.842 13.15 183.285 72.298 149.887 72.298 18.553"/>
      <polygon fill="url(#pi-pricing-landing-k)" points="72.147 49.103 13 82.5 13.353 51.397 72.5 18"/>
      <polygon fill="#FFF" stroke="url(#pi-pricing-landing-k)" points="71.3 70.103 13 103.5 13.2 89.397 71.5 56"/>
      <polygon fill="#FFF" stroke="url(#pi-pricing-landing-k)" points="71.3 87.103 13 120.5 13.2 106.397 71.5 73"/>
      <polygon fill="#FFF" stroke="url(#pi-pricing-landing-k)" points="71.3 104.103 13 137.5 13.2 123.397 71.5 90"/>
      <polygon fill="#FFF" stroke="url(#pi-pricing-landing-k)" points="71.3 121.103 13 154.5 13.2 140.397 71.5 107"/>
      <g transform="translate(40 142)">
        <polygon fill="#FF9E1D" points="11 1.786 10 1 10.182 2"/>
        <polygon fill="#FF9E1D" points="3 15 1 14.233 2.204 14"/>
        <mask id="pi-pricing-landing-m" fill="#fff">
          <use xlink:href="#pi-pricing-landing-l"/>
        </mask>
        <path fill="#FFF" d="M11.7825333,4.27806667 C11.7825333,8.03506667 9.14486667,12.6034 5.89086667,14.4820667 C2.63753333,16.3610667 -0.000133333333,14.8380667 -0.000133333333,11.0804 C-0.000133333333,7.32406667 2.63753333,2.75573333 5.8912,0.876733333 C9.14486667,-1.00193333 11.7825333,0.521066667 11.7825333,4.27806667" mask="url(#pi-pricing-landing-m)"/>
        <g transform="translate(1 .667)">
          <mask id="pi-pricing-landing-o" fill="#fff">
            <use xlink:href="#pi-pricing-landing-n"/>
          </mask>
          <path fill="url(#pi-pricing-landing-k)" d="M11.9117667,4.32493333 C11.9117667,8.08193333 9.2741,12.6499333 6.02043333,14.5289333 C2.76643333,16.4072667 0.1291,14.8842667 0.1291,11.1272667 C0.1291,7.3706 2.76643333,2.80193333 6.02043333,0.9236 C9.2741,-0.9554 11.9117667,0.5676 11.9117667,4.32493333" mask="url(#pi-pricing-landing-o)"/>
        </g>
      </g>
      <g fill="url(#pi-pricing-landing-k)" transform="translate(61 62)">
        <path d="M4.51453896,9.59827534 C6.5751443,8.46639937 8.2583068,5.69428377 8.25143459,3.44008565 C8.24456238,1.18639036 6.55082726,0.26872104 4.49022191,1.40009418 C2.42803067,2.53297581 0.74645407,5.30408575 0.753326279,7.55828387 C0.759669856,9.81197916 2.45234772,10.7306541 4.51453896,9.59827534 M4.48757876,0.581985691 C6.96051662,-0.776164906 8.99204724,0.32503828 8.99997671,3.02927149 C9.00790618,5.73300187 6.99011998,9.05873606 4.51665348,10.4163838 C2.03948657,11.7770486 0.00795595186,10.6758454 2.64802928e-05,7.97211502 C-0.00843162271,5.26788181 2.01041184,1.94214762 4.48757876,0.581985691"/>
        <polygon points="6.513 3 7 3.297 4.398 8 3 7.16 3.487 6.275 4.395 6.822"/>
      </g>
      <g fill="url(#pi-pricing-landing-k)" transform="translate(62 78)">
        <path d="M4.51453896,9.59827534 C6.5751443,8.46639937 8.2583068,5.69428377 8.25143459,3.44008565 C8.24456238,1.18639036 6.55082726,0.26872104 4.49022191,1.40009418 C2.42803067,2.53297581 0.74645407,5.30408575 0.753326279,7.55828387 C0.759669856,9.81197916 2.45234772,10.7306541 4.51453896,9.59827534 M4.48757876,0.581985691 C6.96051662,-0.776164906 8.99204724,0.32503828 8.99997671,3.02927149 C9.00790618,5.73300187 6.99011998,9.05873606 4.51665348,10.4163838 C2.03948657,11.7770486 0.00795595186,10.6758454 2.64802928e-05,7.97211502 C-0.00843162271,5.26788181 2.01041184,1.94214762 4.48757876,0.581985691"/>
        <polygon points="6.513 3 7 3.297 4.398 8 3 7.16 3.487 6.275 4.395 6.822"/>
      </g>
      <g fill="url(#pi-pricing-landing-k)" transform="translate(62 94)">
        <path d="M4.51453896,9.59827534 C6.5751443,8.46639937 8.2583068,5.69428377 8.25143459,3.44008565 C8.24456238,1.18639036 6.55082726,0.26872104 4.49022191,1.40009418 C2.42803067,2.53297581 0.74645407,5.30408575 0.753326279,7.55828387 C0.759669856,9.81197916 2.45234772,10.7306541 4.51453896,9.59827534 M4.48757876,0.581985691 C6.96051662,-0.776164906 8.99204724,0.32503828 8.99997671,3.02927149 C9.00790618,5.73300187 6.99011998,9.05873606 4.51665348,10.4163838 C2.03948657,11.7770486 0.00795595186,10.6758454 2.64802928e-05,7.97211502 C-0.00843162271,5.26788181 2.01041184,1.94214762 4.48757876,0.581985691"/>
        <polygon points="6.513 3 7 3.297 4.398 8 3 7.16 3.487 6.275 4.395 6.822"/>
      </g>
      <g fill="url(#pi-pricing-landing-k)" transform="translate(62 111)">
        <path d="M4.51453896,9.59827534 C6.5751443,8.46639937 8.2583068,5.69428377 8.25143459,3.44008565 C8.24456238,1.18639036 6.55082726,0.26872104 4.49022191,1.40009418 C2.42803067,2.53297581 0.74645407,5.30408575 0.753326279,7.55828387 C0.759669856,9.81197916 2.45234772,10.7306541 4.51453896,9.59827534 M4.48757876,0.581985691 C6.96051662,-0.776164906 8.99204724,0.32503828 8.99997671,3.02927149 C9.00790618,5.73300187 6.99011998,9.05873606 4.51665348,10.4163838 C2.03948657,11.7770486 0.00795595186,10.6758454 2.64802928e-05,7.97211502 C-0.00843162271,5.26788181 2.01041184,1.94214762 4.48757876,0.581985691"/>
        <polygon points="6.513 3 7 3.297 4.398 8 3 7.16 3.487 6.275 4.395 6.822"/>
      </g>
    </g>
  </g>
</svg>
