<svg xmlns="http://www.w3.org/2000/svg" xmlns:xlink="http://www.w3.org/1999/xlink" width="151" height="332" viewBox="0 0 151 332">
  <defs>
    <polygon id="pi-pricing-adv-a" points="0 .437 0 308.51 115.079 308.51 115.079 .437 0 .437"/>
    <linearGradient id="pi-pricing-adv-c" x1="1.301%" x2="98.76%" y1="50%" y2="50%">
      <stop offset="0%" stop-color="#43CEA2"/>
      <stop offset="100%" stop-color="#185A9D"/>
    </linearGradient>
    <polygon id="pi-pricing-adv-d" points="0 23.38 0 .11 18.127 .11 18.127 23.38"/>
    <polygon id="pi-pricing-adv-f" points="18.326 .182 18.326 23.451 .199 23.451 .199 .182"/>
  </defs>
  <g fill="none" fill-rule="evenodd">
    <path fill="#42CDA2" d="M47.334776,154.383666 L0.334856,128.012803 L0.334856,0.565035616 L144.788056,100.936405 C148.799336,103.956214 148.404136,110.097707 144.038696,112.577721 L68.246936,155.627474 C61.641016,159.378666 53.448216,158.89209 47.334776,154.383666" transform="translate(3.04 173.427)"/>
    <g transform="translate(0 .084)">
      <mask id="pi-pricing-adv-b" fill="#fff">
        <use xlink:href="#pi-pricing-adv-a"/>
      </mask>
      <path fill="#87AFB9" d="M115.078744,7.49934247 L105.609144,1.94630137 C105.232184,1.67868493 104.840024,1.44908219 104.423544,1.25141096 L104.204664,1.12216438 L104.200104,1.1449726 C101.316664,-0.114041096 97.557704,0.261534247 93.446104,2.6259863 L16.365384,46.9666849 C7.363944,52.1426301 0.001064,64.8756986 0.001064,75.2625616 L-0.000456,291.837247 C-0.000456,296.736452 1.648744,300.244356 4.320904,302.064452 L4.314824,302.090301 L4.632504,302.278849 C4.732824,302.339671 4.833144,302.402014 4.934984,302.458274 L15.149384,308.510055 L18.206104,300.174411 L93.473464,256.578781 C102.458184,251.375466 109.808904,238.619589 109.808904,228.232726 L109.808904,13.2971918 L113.485784,15.4746164 L115.078744,7.49934247 Z" mask="url(#pi-pricing-adv-b)"/>
    </g>
    <path fill="#55696E" d="M119.803512,234.24154 C119.803512,244.626882 112.451272,257.382759 103.466552,262.587595 L26.329592,307.265855 C17.344872,312.47069 9.994152,308.231403 9.994152,297.84606 L9.994152,81.2698548 C9.994152,70.8845123 17.358552,58.1514438 26.356952,52.9739781 L103.439192,8.6348 C112.439112,3.45885479 119.803512,7.71943014 119.803512,18.1047726 L119.803512,234.24154 Z"/>
    <polygon fill="#323C3C" points="109.892 226.911 19.989 277.692 19.989 77.993 109.892 27.211"/>
    <polygon fill="#696E73" points="108.864 27.792 108.864 225.299 19.988 275.499 19.988 277.694 109.893 226.91 109.893 27.211"/>
    <polygon fill="url(#pi-pricing-adv-c)" points="109.466 73.257 20 124 20.534 76.743 110 26"/>
    <polygon fill="#FFF" stroke="url(#pi-pricing-adv-c)" points="108.696 105.377 20 156 20.304 134.623 109 84"/>
    <polygon fill="#FFF" stroke="url(#pi-pricing-adv-c)" points="108.696 131.377 20 182 20.304 160.623 109 110"/>
    <polygon fill="#FFF" stroke="url(#pi-pricing-adv-c)" points="108.696 157.377 20 208 20.304 186.623 109 136"/>
    <polygon fill="#FFF" stroke="url(#pi-pricing-adv-c)" points="108.696 183.377 20 234 20.304 212.623 109 162"/>
    <g transform="translate(61 215)">
      <polygon fill="#FF9E1D" points="16.923 2.731 15.385 1.529 15.664 3.059"/>
      <polygon fill="#FF9E1D" points="4.615 22.941 1.538 21.768 3.391 21.412"/>
      <mask id="pi-pricing-adv-e" fill="#fff">
        <use xlink:href="#pi-pricing-adv-d"/>
      </mask>
      <path fill="#FFF" d="M18.1269744,6.54292549 C18.1269744,12.2889255 14.0690256,19.2757882 9.06287179,22.1490431 C4.05774359,25.0228078 -0.000205128205,22.6935137 -0.000205128205,16.9464941 C-0.000205128205,11.2015137 4.05774359,4.21465098 9.06338462,1.34088627 C14.0690256,-1.53236863 18.1269744,0.79692549 18.1269744,6.54292549" mask="url(#pi-pricing-adv-e)"/>
      <g transform="translate(1.538 1.02)">
        <mask id="pi-pricing-adv-g" fill="#fff">
          <use xlink:href="#pi-pricing-adv-f"/>
        </mask>
        <path fill="url(#pi-pricing-adv-c)" d="M18.3257949,6.61460392 C18.3257949,12.3606039 14.2678462,19.3469569 9.26220513,22.2207216 C4.25605128,25.0934667 0.198615385,22.7641725 0.198615385,17.0181725 C0.198615385,11.2726824 4.25605128,4.2853098 9.26220513,1.41256471 C14.2678462,-1.4612 18.3257949,0.868094118 18.3257949,6.61460392" mask="url(#pi-pricing-adv-g)"/>
      </g>
    </g>
    <g fill="url(#pi-pricing-adv-c)" transform="translate(93 93)">
      <path d="M7.02261616,14.8336983 C10.2280023,13.0844354 12.846255,8.80025674 12.8355649,5.31649601 C12.8248748,1.83351238 10.1901757,0.415296153 6.98478964,2.16378191 C3.7769366,3.91459898 1.16115078,8.19722343 1.17184088,11.6809842 C1.18170867,15.1639678 3.81476312,16.5837382 7.02261616,14.8336983 M6.98067806,0.899432431 C10.8274703,-1.19952758 13.987629,0.502331888 13.9999638,4.6816014 C14.0122985,8.86009381 10.87352,13.9998648 7.02590542,16.0980477 C3.17253466,18.2008933 0.0123759251,16.4990338 4.11915666e-05,12.3205414 C-0.0131158576,8.14127188 3.1273073,3.00150086 6.98067806,0.899432431"/>
      <polygon points="10.131 4.636 10.889 5.096 6.842 12.364 4.667 11.065 5.424 9.698 6.837 10.543"/>
    </g>
    <g fill="url(#pi-pricing-adv-c)" transform="translate(94 118)">
      <path d="M7.02261616,14.8336983 C10.2280023,13.0844354 12.846255,8.80025674 12.8355649,5.31649601 C12.8248748,1.83351238 10.1901757,0.415296153 6.98478964,2.16378191 C3.7769366,3.91459898 1.16115078,8.19722343 1.17184088,11.6809842 C1.18170867,15.1639678 3.81476312,16.5837382 7.02261616,14.8336983 M6.98067806,0.899432431 C10.8274703,-1.19952758 13.987629,0.502331888 13.9999638,4.6816014 C14.0122985,8.86009381 10.87352,13.9998648 7.02590542,16.0980477 C3.17253466,18.2008933 0.0123759251,16.4990338 4.11915666e-05,12.3205414 C-0.0131158576,8.14127188 3.1273073,3.00150086 6.98067806,0.899432431"/>
      <polygon points="10.131 4.636 10.889 5.096 6.842 12.364 4.667 11.065 5.424 9.698 6.837 10.543"/>
    </g>
    <g fill="url(#pi-pricing-adv-c)" transform="translate(94 142)">
      <path d="M7.02261616,14.8336983 C10.2280023,13.0844354 12.846255,8.80025674 12.8355649,5.31649601 C12.8248748,1.83351238 10.1901757,0.415296153 6.98478964,2.16378191 C3.7769366,3.91459898 1.16115078,8.19722343 1.17184088,11.6809842 C1.18170867,15.1639678 3.81476312,16.5837382 7.02261616,14.8336983 M6.98067806,0.899432431 C10.8274703,-1.19952758 13.987629,0.502331888 13.9999638,4.6816014 C14.0122985,8.86009381 10.87352,13.9998648 7.02590542,16.0980477 C3.17253466,18.2008933 0.0123759251,16.4990338 4.11915666e-05,12.3205414 C-0.0131158576,8.14127188 3.1273073,3.00150086 6.98067806,0.899432431"/>
      <polygon points="10.131 4.636 10.889 5.096 6.842 12.364 4.667 11.065 5.424 9.698 6.837 10.543"/>
    </g>
    <g fill="url(#pi-pricing-adv-c)" transform="translate(94 168)">
      <path d="M7.02261616,14.8336983 C10.2280023,13.0844354 12.846255,8.80025674 12.8355649,5.31649601 C12.8248748,1.83351238 10.1901757,0.415296153 6.98478964,2.16378191 C3.7769366,3.91459898 1.16115078,8.19722343 1.17184088,11.6809842 C1.18170867,15.1639678 3.81476312,16.5837382 7.02261616,14.8336983 M6.98067806,0.899432431 C10.8274703,-1.19952758 13.987629,0.502331888 13.9999638,4.6816014 C14.0122985,8.86009381 10.87352,13.9998648 7.02590542,16.0980477 C3.17253466,18.2008933 0.0123759251,16.4990338 4.11915666e-05,12.3205414 C-0.0131158576,8.14127188 3.1273073,3.00150086 6.98067806,0.899432431"/>
      <polygon points="10.131 4.636 10.889 5.096 6.842 12.364 4.667 11.065 5.424 9.698 6.837 10.543"/>
    </g>
  </g>
</svg>
