
<svg width="63px" height="60px" viewBox="0 0 63 60" version="1.1" xmlns="http://www.w3.org/2000/svg" xmlns:xlink="http://www.w3.org/1999/xlink">
    <!-- Generator: Sketch 47.1 (45422) - http://www.bohemiancoding.com/sketch -->
    <desc>Created with Sketch.</desc>
    <defs>
        <linearGradient x1="1.30141901%" y1="50%" x2="98.7603635%" y2="50%" id="linearGradient-1">
            <stop stop-color="#43CEA2" offset="0%"></stop>
            <stop stop-color="#185A9D" offset="100%"></stop>
        </linearGradient>
    </defs>
    <g id="Page-1" stroke="none" stroke-width="1" fill="none" fill-rule="evenodd">
        <g id="4.0-Product-Insights_CopyNotReady" transform="translate(-945.000000, -1558.000000)">
            <g id="Group-20" transform="translate(945.000000, 1558.000000)">
                <path d="M14.4416,31.6448 L17.4152,31.6448 L17.4152,11.9776 L14.4416,11.9776 L14.4416,31.6448 Z M13.2416,32.8448 L13.2416,10.7776 L18.6152,10.7776 L18.6152,32.8448 L13.2416,32.8448 Z M22.296,32.8448 L22.296,21.2112 L27.6688,21.2112 L27.6688,32.8448 L22.296,32.8448 Z M4.188,32.8448 L4.188,25.968 L9.5616,25.968 L9.5616,32.8448 L4.188,32.8448 Z M57.508,21.0352 L51.612,21.0352 L51.5888,20.46 C51.5072,18.4928 49.9032,16.9512 47.936,16.9512 L47.9352,16.3568 L47.8984,16.9536 L47.2584,16.9968 L47.2128,16.3592 L47.2,11.06 L47.936,11.0464 C53.1072,11.0464 57.396,15.2528 57.4968,20.4232 L57.508,21.0352 Z M45.232,32.8448 C40.036,32.768 35.8088,28.4792 35.8088,23.2832 C35.8088,18.0872 40.0352,13.7984 45.2304,13.7208 L45.8368,13.712 L45.8408,19.6112 L45.2592,19.6288 C43.2712,19.6912 41.7136,21.296 41.7136,23.2832 C41.7136,25.2248 43.2008,26.8024 45.1232,26.9304 L45.264,26.9344 L45.376,27.54 L45.376,26.94 C47.3944,26.94 49.0368,25.2984 49.0368,23.28 L49.004,22.504 L54.9208,22.504 L54.9368,23.088 L54.3368,23.104 L54.9384,23.1408 L54.9408,23.28 C54.9408,28.4984 50.74,32.7544 45.5408,32.8432 L45.232,32.8448 Z" id="Combined-Shape" fill="url(#linearGradient-1)"></path>
                <path d="M52.7304,19.8352 L56.2624,19.8352 C55.8808,15.752 52.5104,12.4904 48.4032,12.2592 L48.4112,15.7736 C50.612,15.9864 52.3832,17.6584 52.7304,19.8352 Z" id="Fill-242" fill="#FFFFFF"></path>
                <polygon id="Fill-240" fill="#FFFFFF" points="23.496 31.6448 26.4688 31.6448 26.4688 22.4112 23.496 22.4112"></polygon>
                <polygon id="Fill-241" fill="#FFFFFF" points="5.388 31.6448 8.3616 31.6448 8.3616 27.168 5.388 27.168"></polygon>
                <path d="M45.0728,31.64 L45.2536,31.6416 L45.3752,32.2448 L45.3752,31.6448 C49.8456,31.6448 53.5088,28.12 53.7304,23.704 L50.2184,23.704 C50.0072,26.1328 48.0032,28.056 45.54,28.1376 L45.536,28.1432 L45.4016,28.14 C45.3672,28.14 45.3344,28.14 45.3024,28.1384 L45.2216,28.1368 C42.5816,28.0544 40.5136,25.9224 40.5136,23.2832 C40.5136,20.8408 42.284,18.8336 44.6408,18.4816 L44.6408,14.9528 C40.38,15.3272 37.0088,18.944 37.0088,23.2832 C37.0088,27.768 40.6096,31.48 45.0728,31.64 Z" id="Fill-243" fill="#FFFFFF"></path>
                <path d="M4.2176,1.2 C2.5536,1.2 1.2,2.5536 1.2,4.2176 L1.2,42.452 C1.2,44.116 2.5536,45.4696 4.2176,45.4696 L58.0824,45.4696 C59.7464,45.4696 61.1,44.116 61.1,42.452 L61.1,4.2176 C61.1,2.5536 59.7464,1.2 58.0824,1.2 L4.2176,1.2 Z M58.0824,46.6696 L4.2176,46.6696 C1.892,46.6696 0,44.7768 0,42.452 L0,4.2176 C0,1.892 1.892,0 4.2176,0 L58.0824,0 C60.4072,0 62.3,1.892 62.3,4.2176 L62.3,42.452 C62.3,44.7768 60.4072,46.6696 58.0824,46.6696 L58.0824,46.6696 Z" id="Fill-244" fill="#131615"></path>
                <polyline id="Fill-245" fill="#131615" points="62.3 38.144 0 38.144 0 6.2832 1.2 6.2832 1.2 36.944 61.1 36.944 61.1 6.2832 62.3 6.2832 62.3 38.144"></polyline>
                <polygon id="Fill-246" fill="#131615" points="27.5976 42.4064 34.7024 42.4064 34.7024 41.2064 27.5976 41.2064"></polygon>
                <polygon id="Fill-247" fill="#131615" points="30.5496 59.1536 31.7496 59.1536 31.7496 47.932 30.5496 47.932"></polygon>
                <polygon id="Fill-248" fill="#131615" points="18.3616 59.9 43.9384 59.9 43.9384 58.7 18.3616 58.7"></polygon>
                <polygon id="Fill-249" fill="#131615" points="30.7776 37.5576 31.9776 37.5576 31.9776 0.6512 30.7776 0.6512"></polygon>
            </g>
        </g>
    </g>
</svg>