<svg xmlns="http://www.w3.org/2000/svg" xmlns:xlink="http://www.w3.org/1999/xlink" width="354" height="219" viewBox="0 0 354 219">
  <defs>
    <linearGradient id="pi-tracking-adv-a" x1="1.301%" x2="98.76%" y1="50%" y2="50%">
      <stop offset="0%" stop-color="#43CEA2"/>
      <stop offset="100%" stop-color="#185A9D"/>
    </linearGradient>
    <polygon id="pi-tracking-adv-b" points=".041 .035 67.538 .035 67.538 88.702 .041 88.702 .041 .035"/>
  </defs>
  <g fill="none" fill-rule="evenodd">
    <g transform="translate(0 67.435)">
      <path fill="#8CE2FF" d="M6.52849937,1.54942857 L23.8644171,12.650449 L31.5885627,19.8038163 L326.713658,83.3523878 L331.642772,78.8087143 L353.511234,74.195449 L353.511234,84.2750408 C353.535879,85.2549388 353.068734,86.2483061 352.100835,86.8106531 L348.592202,88.8422857 L241.638272,150.83402 C240.035189,151.761163 238.059063,151.763408 236.45598,150.836265 L15.9767146,23.2935102 L2.5235943,15.5227959 C0.786081646,14.520449 -0.0473867089,12.7357551 0.0108664557,10.9768776 L0.00526518987,10.9746327 L0.00526518987,0.895040816 L6.52849937,1.54942857 Z"/>
      <polygon fill="#6AA5EC" points="339.999 85.628 339.999 92.178 346.014 88.699 346.014 82.148"/>
      <polygon fill="#6AA5EC" points="331.798 90.348 331.798 96.898 337.813 93.419 337.813 86.868"/>
      <polygon fill="#6AA5EC" points="323.6 95.069 323.6 101.62 329.614 98.14 329.614 91.589"/>
      <polygon fill="#6AA5EC" points="247.02 139.546 247.02 146.097 265.734 135.234 265.734 128.681"/>
      <polygon fill="#6AA5EC" points="211.218 128.129 211.218 134.678 192.504 123.815 192.504 117.263"/>
    </g>
    <polygon fill="url(#pi-tracking-adv-a)" points="18.567 76.155 220.559 193.019 327.514 131.028 125.521 14.163"/>
    <g transform="translate(0 .088)">
      <path fill="#ECF5FF" d="M18.5662918,74.9447959 L125.521342,12.9530612 L327.51307,129.817959 L220.55914,191.808571 L18.5662918,74.9447959 Z M2.52426646,71.6672449 L15.9762665,79.4379592 L236.455532,206.980714 C238.059735,207.907857 240.034741,207.905612 241.637823,206.978469 L348.592874,144.985612 L352.100387,142.955102 C353.990254,141.860714 353.988013,139.126429 352.098146,138.034286 L330.103096,125.324796 L114.855412,0.808163265 C113.251209,-0.118979592 111.275083,-0.118979592 109.672001,0.809285714 L2.71695,62.8021429 L2.51866519,62.9166327 C-0.842094304,64.8618367 -0.838733544,69.7265306 2.52426646,71.6672449 Z" transform="translate(0 1.122)"/>
      <g transform="translate(180.36)">
        <mask id="pi-tracking-adv-c" fill="#fff">
          <use xlink:href="#pi-tracking-adv-b"/>
        </mask>
        <path fill="#8CE2FF" d="M65.370693,35.9769592 L3.66266772,0.204510204 C3.25041456,-0.0345714286 2.78662975,-0.00763265306 2.42142722,0.19777551 L2.42142722,0.196653061 L2.40798418,0.203387755 C2.40686392,0.204510204 2.40574367,0.205632653 2.40350316,0.206755102 L0.0408892405,1.5817551 L1.77616139,7.80685714 L1.77616139,48.7448163 C1.77616139,50.236551 2.56930063,51.6137959 3.86095253,52.359102 L63.3139082,86.8295102 L64.0051044,88.7017551 L66.3834019,87.3166531 L66.3834019,87.3144082 C67.0555538,86.9350204 67.5383829,86.2211429 67.5383829,85.3377755 L67.5383829,39.7371633 C67.5383829,38.1859388 66.7105158,36.7525714 65.370693,35.9769592" mask="url(#pi-tracking-adv-c)"/>
      </g>
      <path fill="#494DA5" d="M245.517036,41.1222653 L245.517036,86.724 C245.517036,88.4716531 243.627169,89.5626735 242.115947,88.6905306 L181.839606,53.7442041 C180.550194,52.998898 179.755935,51.6216531 179.755935,50.1299184 L179.755935,2.6817551 C179.755935,1.71083673 180.802251,1.10471429 181.642441,1.59073469 L243.350466,37.3609388 C244.691409,38.1376735 245.517036,39.5710408 245.517036,41.1222653"/>
    </g>
    <polygon points="181.233 47.315 243.844 83.61 243.844 43.033 181.233 6.736"/>
    <g transform="translate(138.791 14.68)">
      <path fill="#ECF5FF" d="M0.697855696,59.724949 L37.5541848,38.262602 C38.3506848,37.8012755 39.6512987,37.8012755 40.4511595,38.262602 L105.021432,75.6154592 C105.820172,76.0779082 105.824653,76.8355612 105.031514,77.2957653 L68.1729443,98.7581122 C67.3764443,99.2216837 66.0769506,99.2216837 65.2759696,98.7581122 L0.707937975,61.4052551 C-0.093043038,60.9428061 -0.0964037975,60.187398 0.697855696,59.724949"/>
      <path fill="#D8D2D6" d="M68.1735044,98.7585612 L105.030954,77.2962143 C105.425283,77.0672347 105.623568,76.7652959 105.624688,76.4633571 L105.621327,79.4288673 C105.620207,79.7319286 105.421922,80.0327449 105.027593,80.2639694 L68.1701437,101.725194 L68.1735044,98.7585612 Z"/>
      <path fill="#C9C4CC" d="M0.103897468,60.5601633 C0.103897468,60.8665918 0.306663291,61.1741429 0.707713924,61.4053673 L65.2768658,98.7582245 C66.0778468,99.2206735 67.3773405,99.2206735 68.1738405,98.7582245 L68.1704797,101.724857 C67.3751,102.187306 66.0744861,102.187306 65.2746253,101.724857 L0.703232911,64.3731224 C0.302182278,64.1396531 0.100536709,63.8332245 0.100536709,63.5267959 L0.103897468,60.5601633 Z"/>
      <path fill="#8CBEF1" d="M48.0843405 50.6685816C48.3509608 50.8234796 48.352081 51.0749082 48.0888215 51.2286837L45.3128342 52.8461327C45.0484544 52.9999082 44.6149165 52.9999082 44.3494165 52.8427653L33.7518215 46.6895C33.4829608 46.5334796 33.4829608 46.2854184 33.7484608 46.1305204L36.5210873 44.5175612C36.7877076 44.3615408 37.2190051 44.3615408 37.4845051 44.5153163L48.0843405 50.6685816zM41.2819392 52.4235306C41.5485595 52.5773061 41.5508 52.8287347 41.2853 52.9836327L38.5104329 54.5965918C38.2471734 54.7503673 37.8113949 54.7503673 37.5470152 54.5965918L29.0487747 49.687C28.7843949 49.5309796 28.7843949 49.279551 29.0465342 49.1257755L31.8225215 47.5116939C32.0869013 47.3590408 32.5170785 47.3590408 32.784819 47.5116939L41.2819392 52.4235306zM41.0445576 57.5348265C41.3111778 57.688602 41.3122981 57.9389082 41.0501589 58.0949286L38.2730513 59.7067653C38.0075513 59.8616633 37.5751335 59.8616633 37.3096335 59.7067653L24.7762411 52.4535C24.5085006 52.2974796 24.5051399 52.0482959 24.7728804 51.893398L27.545507 50.2793163C27.811007 50.1244184 28.2411842 50.1244184 28.5089247 50.2793163L41.0445576 57.5348265zM61.5372367 74.8746429C61.8027367 75.0284184 61.8027367 75.2764796 61.5394772 75.4302551L58.7646101 77.0477041C58.4991101 77.2014796 58.0678127 77.2014796 57.7989519 77.0477041L32.714243 62.5580102C32.4453823 62.4053571 32.4453823 62.1528061 32.7131228 61.9967857L35.4868696 60.3860714C35.7501291 60.2322959 36.1814266 60.2322959 36.4502873 60.3860714L61.5372367 74.8746429zM99.4836842 74.5381327C99.7491842 74.6919082 99.7503044 74.9422143 99.4836842 75.0982347L96.7110576 76.7123163C96.4433171 76.8660918 96.0142601 76.8660918 95.7487601 76.7123163L88.0851082 72.2741531C87.818488 72.1215 87.818488 71.8734388 88.0817475 71.7196633L90.8577348 70.1044592C91.1209943 69.9506837 91.553412 69.9506837 91.8200323 70.1044592L99.4836842 74.5381327zM94.522419 77.4242857C94.7890392 77.5780612 94.7901595 77.8272449 94.5235392 77.9832653L91.7509127 79.5973469C91.4831722 79.75 91.0541152 79.75 90.7874949 79.5973469L88.0854443 78.0360204C87.8188241 77.8822449 87.8188241 77.6330612 88.0820835 77.4815306L90.8580709 75.8629592C91.1213304 75.712551 91.5537481 75.712551 91.8203684 75.8629592L94.522419 77.4242857zM90.3564215 75.0073163C90.6219215 75.1610918 90.6230418 75.4102755 90.3575418 75.5662959L87.5849152 77.1815C87.3171747 77.3352755 86.8881177 77.3352755 86.6203772 77.1815L83.9194468 75.619051C83.6528266 75.4652755 83.6517063 75.2172143 83.9160861 75.0645612L86.6920734 73.4482347C86.9542127 73.2955816 87.3877506 73.2955816 87.6554911 73.4482347L90.3564215 75.0073163zM86.1905361 72.5924796C86.4560361 72.7440102 86.4582766 72.9931939 86.1905361 73.1492143L83.4179095 74.7655408C83.150169 74.9181939 82.721112 74.9181939 82.4544918 74.7655408L79.7524411 73.2042143C79.4880614 73.0504388 79.4869411 72.8012551 79.7490804 72.6474796L82.5250677 71.0311531C82.7883272 70.8785 83.2218652 70.8785 83.4884854 71.0311531L86.1905361 72.5924796zM82.0245386 70.1755102C82.2889184 70.3270408 82.2911589 70.5784694 82.0256589 70.7344898L79.2530323 72.3485714C78.9852918 72.5012245 78.5551146 72.5012245 78.2896146 72.3485714L75.5864437 70.7872449C75.3198234 70.6334694 75.3198234 70.3842857 75.5842032 70.2327551L78.3590703 68.6141837C78.6223297 68.4615306 79.0547475 68.4615306 79.322488 68.6141837L82.0245386 70.1755102zM77.8586532 67.7585408C78.1241532 67.9123163 78.1252734 68.1615 77.8586532 68.3175204L75.0860266 69.9327245C74.8194063 70.0865 74.3892291 70.0842551 74.1226089 69.9327245L71.4216785 68.3702755C71.1550582 68.2187449 71.1550582 67.9684388 71.4183177 67.8157857L74.1931848 66.1994592C74.4564443 66.0468061 74.888862 66.0468061 75.1566025 66.1994592L77.8586532 67.7585408zM73.6915354 65.3415714C73.9570354 65.4953469 73.9592759 65.7445306 73.6926557 65.900551L70.9200291 67.5157551C70.6522886 67.6695306 70.2232316 67.6695306 69.9577316 67.5157551L67.2545608 65.955551C66.9879405 65.8017755 66.9879405 65.5514694 67.2512 65.3988163L70.0271873 63.7824898C70.2893266 63.6298367 70.7228646 63.6298367 70.9894848 63.7824898L73.6915354 65.3415714zM69.5267703 62.924602C69.7900297 63.0806224 69.7922703 63.3275612 69.5267703 63.4858265L66.7530234 65.0987857C66.4864032 65.2525612 66.0562259 65.2525612 65.7907259 65.0987857L63.0886753 63.5385816C62.8220551 63.3848061 62.8209348 63.1345 63.0864348 62.9840918L65.8613019 61.3655204C66.1245614 61.2151122 66.5569791 61.2151122 66.8235994 61.3655204L69.5267703 62.924602zM65.3596525 60.5097653C65.6251525 60.6635408 65.6262728 60.9127245 65.3596525 61.0687449L62.5881462 62.6828265C62.3192854 62.8354796 61.8902285 62.8354796 61.6236082 62.6828265L58.9215576 61.1215C58.6560576 60.9677245 58.6560576 60.7185408 58.9193171 60.5670102L61.6953044 58.9484388C61.9563234 58.7980306 62.3909816 58.7980306 62.6576019 58.9484388L65.3596525 60.5097653zM61.1948873 58.0927959C61.4592671 58.2465714 61.4615076 58.4957551 61.1948873 58.6517755L58.4222608 60.2658571C58.1545203 60.4207551 57.724343 60.4207551 57.4577228 60.2658571L54.7556722 58.7045306C54.4890519 58.553 54.4890519 58.3026939 54.7534316 58.1500408L57.5282987 56.5337143C57.7915582 56.3810612 58.2239759 56.3810612 58.4917165 56.5337143L61.1948873 58.0927959zM57.0277696 55.6779592C57.2932696 55.8294898 57.2943899 56.0786735 57.0277696 56.2346939L54.255143 57.8510204C53.9885228 58.0036735 53.5583456 58.0036735 53.2928456 57.8510204L50.5907949 56.2896939C50.3230544 56.1359184 50.3230544 55.8867347 50.5863139 55.7329592L53.3623013 54.1166327C53.6255608 53.9639796 54.0579785 53.9639796 54.325719 54.1166327L57.0277696 55.6779592zM52.8607639 53.2609898C53.1262639 53.4125204 53.1285044 53.663949 52.8630044 53.8199694L50.0892576 55.434051C49.8215171 55.5867041 49.3924601 55.5867041 49.1258399 55.434051L46.4237892 53.8727245C46.1582892 53.718949 46.157169 53.4697653 46.4204285 53.3182347L49.1964158 51.6996633C49.4585551 51.5470102 49.8932133 51.5470102 50.1598335 51.6996633L52.8607639 53.2609898zM49.5360766 45.8390204C49.8015766 45.9927959 49.8026968 46.243102 49.5360766 46.3991224L46.7645703 48.0132041C46.4968297 48.168102 46.0666525 48.1669796 45.8000323 48.0132041L43.0991019 46.4518776C42.8336019 46.2992245 42.8324816 46.0489184 43.0968614 45.8962653L45.8717285 44.2788163C46.134988 44.1272857 46.5674057 44.1272857 46.8351462 44.2788163L49.5360766 45.8390204zM44.7028563 43.1243776C44.9683563 43.2770306 44.9683563 43.5284592 44.7039766 43.6844796L41.93135 45.2985612C41.6624892 45.4523367 41.2334323 45.4512143 40.966812 45.2985612L38.2647614 43.7372347C37.9981411 43.5845816 37.9970209 43.3342755 38.2625209 43.1805L41.037388 41.5641735C41.3006475 41.4126429 41.7341854 41.4126429 42.0008057 41.5641735L44.7028563 43.1243776zM79.3530709 74.4603469C79.6174506 74.6141224 79.6196911 74.8633061 79.3541911 75.0193265L76.5815646 76.6345306C76.3138241 76.7883061 75.8825266 76.7883061 75.6170266 76.6345306L72.9149759 75.0720816C72.6483557 74.9183061 72.6483557 74.6702449 72.9127354 74.5175918L75.6876025 72.9012653C75.950862 72.7486122 76.3832797 72.7486122 76.6510203 72.9012653L79.3530709 74.4603469zM75.1859532 72.0455102C75.4514532 72.1970408 75.4525734 72.4473469 75.1870734 72.6033673L72.4144468 74.2185714C72.1467063 74.3712245 71.7165291 74.3712245 71.4510291 74.2185714L68.7489785 72.6572449C68.4823582 72.5034694 68.4823582 72.2542857 68.746738 72.1027551L71.5216051 70.4841837C71.7848646 70.3315306 72.2172823 70.3315306 72.4850228 70.4841837L75.1859532 72.0455102zM71.021188 69.6285408C71.2855677 69.7800714 71.2878082 70.0315 71.021188 70.1875204L68.2485614 71.801602C67.9808209 71.9542551 67.5517639 71.9542551 67.2840234 71.801602L64.5819728 70.2402755C64.3164728 70.0865 64.3164728 69.8373163 64.5797323 69.6857857L67.3545994 68.0672143C67.6178589 67.9168061 68.0513968 67.9168061 68.3191373 68.0672143L71.021188 69.6285408zM66.8540703 67.2115714C67.1195703 67.3653469 67.1206905 67.6145306 66.8551905 67.770551L64.0814437 69.3846327C63.8148234 69.5395306 63.3846462 69.5372857 63.1191462 69.3846327L60.4170956 67.8233061C60.1504753 67.6717755 60.1504753 67.4203469 60.4126146 67.2688163L63.1886019 65.6524898C63.4518614 65.4998367 63.8842791 65.4998367 64.1531399 65.6524898L66.8540703 67.2115714zM62.6870646 64.794602C62.9536848 64.9483776 62.9548051 65.1975612 62.6893051 65.3535816L59.9155582 66.9687857C59.6478177 67.1225612 59.2187608 67.1225612 58.9521405 66.9687857L56.2512101 65.4085816C55.9845899 65.2548061 55.9834696 65.0045 56.2478494 64.8518469L59.0227165 63.2355204C59.2848557 63.0828673 59.7195139 63.0828673 59.9861342 63.2355204L62.6870646 64.794602zM58.5211791 62.3797653C58.7877994 62.5335408 58.7889196 62.7804796 58.5222994 62.9387449L55.7496728 64.5528265C55.4819323 64.7054796 55.0528753 64.7054796 54.7862551 64.5528265L52.0842044 62.9915C51.8187044 62.8377245 51.8175842 62.5885408 52.0808437 62.4370102L54.856831 60.8184388C55.1200905 60.6657857 55.5525082 60.6657857 55.8191285 60.8184388L58.5211791 62.3797653zM54.3563019 59.9627959C54.6195614 60.1165714 54.6218019 60.3657551 54.3563019 60.5217755L51.5836753 62.1358571C51.3159348 62.2907551 50.8857576 62.2885102 50.6202576 62.1358571L47.9170867 60.5745306C47.6515867 60.4207551 47.6504665 60.1726939 47.9159665 60.0200408L50.6908335 58.4014694C50.954093 58.2510612 51.3865108 58.2510612 51.6542513 58.4014694L54.3563019 59.9627959zM50.1892962 57.5458265C50.4547962 57.699602 50.4570367 57.9487857 50.1892962 58.1048061L47.4177899 59.7200102C47.1489291 59.8737857 46.7198722 59.8737857 46.4532519 59.7200102L43.7512013 58.1575612C43.4857013 58.0060306 43.4857013 57.7557245 43.7489608 57.6030714L46.5249481 55.9867449C46.7870873 55.8340918 47.2206253 55.8340918 47.4872456 55.9867449L50.1892962 57.5458265zM74.9026411 77.0768878C75.1692614 77.2295408 75.1703816 77.4787245 74.9037614 77.6347449L72.1311348 79.2510714C71.8633943 79.4037245 71.4343373 79.4037245 71.1677171 79.2510714L68.4656665 77.6897449C68.2001665 77.5359694 68.2001665 77.2856633 68.4634259 77.1318878L71.238293 75.5155612C71.5015525 75.3629082 71.9350905 75.3629082 72.2017108 75.5155612L74.9026411 77.0768878zM70.7366437 74.6598061C71.0032639 74.8113367 71.0055044 75.0638878 70.7388842 75.2199082L67.9651373 76.8339898C67.6985171 76.9866429 67.2694601 76.9866429 67.0017196 76.8339898L64.299669 75.2726633C64.0330487 75.1188878 64.0330487 74.8685816 64.2963082 74.717051L67.0711753 73.0984796C67.3344348 72.9458265 67.7679728 72.9458265 68.0357133 73.0984796L70.7366437 74.6598061zM70.0430949 80.0385816C70.3074747 80.1923571 70.3097152 80.4426633 70.0442152 80.5986837L67.2715886 82.2138878C67.0038481 82.3676633 66.5736709 82.3676633 66.3081709 82.2138878L63.6061203 80.6536837C63.3383797 80.4999082 63.3383797 80.2484796 63.6016392 80.0980714L66.3776266 78.4795C66.6408861 78.3268469 67.0733038 78.3268469 67.3410443 78.4795L70.0430949 80.0385816zM74.649912 82.7986837C74.9142918 82.9502143 74.9165323 83.2027653 74.6510323 83.3587857L71.8784057 84.9728673C71.6095449 85.1277653 71.1793677 85.1255204 70.9127475 84.9728673L68.2106968 83.4115408C67.9451968 83.2577653 67.9451968 83.0074592 68.2084563 82.8559286L70.9844437 81.2373571C71.2465829 81.086949 71.6812411 81.086949 71.9478614 81.2373571L74.649912 82.7986837zM79.3530709 85.5982959C79.6174506 85.7531939 79.6196911 86.0023776 79.3541911 86.158398L76.5815646 87.7724796C76.3138241 87.9251327 75.8825266 87.9251327 75.6170266 87.7724796L72.9149759 86.2111531C72.6483557 86.0573776 72.6483557 85.8070714 72.9127354 85.6555408L75.6876025 84.0369694C75.950862 83.8865612 76.3832797 83.8865612 76.6510203 84.0369694L79.3530709 85.5982959zM65.7787392 77.5383265C66.0442392 77.6898571 66.0464797 77.9390408 65.7787392 78.0973061L63.0072329 79.7113878C62.7394924 79.8640408 62.3093152 79.8640408 62.0426949 79.7113878L59.3406443 78.1500612C59.0751443 77.9962857 59.0751443 77.747102 59.3384038 77.5933265L62.1143911 75.977C62.3765304 75.8243469 62.8100684 75.8243469 63.0766886 75.977L65.7787392 77.5383265zM66.5718785 72.2428367C66.8362582 72.3966122 66.8373785 72.6469184 66.5718785 72.8029388L63.7981316 74.4181429C63.5315114 74.5719184 63.1013342 74.5696735 62.8369544 74.4181429L60.1349038 72.8556939C59.8682835 72.7019184 59.8671633 72.4516122 60.1304228 72.3000816L62.9064101 70.6815102C63.1696696 70.531102 63.6020873 70.531102 63.8687076 70.6815102L66.5718785 72.2428367zM62.4047608 69.8258673C62.6702608 69.9796429 62.671381 70.229949 62.405881 70.3859694L59.6332544 72.0011735C59.3643937 72.154949 58.936457 72.154949 58.6698367 72.0011735L55.9666658 70.4409694C55.7011658 70.2871939 55.7000456 70.0357653 55.9644253 69.8831122L58.7404127 68.2667857C59.0025519 68.1141327 59.4372101 68.1141327 59.7027101 68.2667857L62.4047608 69.8258673zM58.2388753 67.4110306C58.5043753 67.5625612 58.5066158 67.8128673 58.2388753 67.9711327L55.467369 69.5852143C55.1996285 69.7378673 54.7694513 69.7378673 54.502831 69.5852143L51.8007804 68.0238878C51.5352804 67.8701122 51.5341601 67.6198061 51.7985399 67.4682755L54.5745272 65.8497041C54.8366665 65.6992959 55.2690842 65.6992959 55.5368247 65.8497041L58.2388753 67.4110306zM54.0718696 64.9940612C54.3373696 65.1478367 54.3396101 65.3981429 54.0729899 65.5541633L51.3003633 67.1682449C51.033743 67.320898 50.6035658 67.320898 50.3369456 67.1682449L47.6348949 65.6069184C47.3682747 65.4531429 47.3682747 65.2028367 47.6326544 65.0513061L50.4075215 63.4327347C50.670781 63.2823265 51.1031987 63.2823265 51.3720595 63.4327347L54.0718696 64.9940612zM49.9069924 62.5770918C50.1724924 62.7308673 50.1747329 62.9811735 49.9069924 63.1371939L47.1343658 64.7512755C46.8666253 64.9061735 46.4375684 64.9039286 46.1709481 64.7512755L43.4688975 63.189949C43.2033975 63.0384184 43.2033975 62.7858673 43.4655367 62.6343367L46.2404038 61.0180102C46.5036633 60.8653571 46.9372013 60.8653571 47.2038215 61.0180102L49.9069924 62.5770918zM45.7399867 60.1622551C46.006607 60.3137857 46.006607 60.5640918 45.7422272 60.7201122L42.9684804 62.3364388C42.7007399 62.4890918 42.2716829 62.4890918 42.0061829 62.3364388L39.303012 60.7751122C39.0363918 60.6213367 39.0352715 60.3710306 39.2996513 60.2172551L42.0756386 58.6009286C42.3377778 58.4482755 42.7713158 58.4482755 43.0390563 58.6009286L45.7399867 60.1622551zM34.6894734 59.3215408C34.9538532 59.4753163 34.9560937 59.7245 34.6894734 59.8805204L31.9168468 61.4957245C31.6491063 61.6495 31.2189291 61.6495 30.9523089 61.4957245L28.2502582 59.9332755C27.9847582 59.7795 27.983638 59.5314388 28.2480177 59.3776633L31.0240051 57.7624592C31.2861443 57.6098061 31.718562 57.6098061 31.9863025 57.7624592L34.6894734 59.3215408zM30.5224677 56.9067041C30.7868475 57.0582347 30.789088 57.3074184 30.5224677 57.4634388L27.7498411 59.0797653C27.4832209 59.2324184 27.0530437 59.2324184 26.7875437 59.0797653L24.085493 57.5184388C23.8177525 57.3646633 23.8177525 57.1154796 24.0821323 56.9628265L26.8569994 55.3453776C27.1202589 55.1927245 27.5526766 55.1927245 27.8215373 55.3453776L30.5224677 56.9067041zM26.3564703 54.4897347C26.6219703 54.6412653 26.6242108 54.8926939 26.3564703 55.0487143L23.5838437 56.6627959C23.3161032 56.815449 22.8870462 56.815449 22.6204259 56.6627959L19.9183753 55.1014694C19.6528753 54.9476939 19.6528753 54.6985102 19.9150146 54.5458571L22.6910019 52.9284082C22.9531411 52.7768776 23.3866791 52.7768776 23.6532994 52.9284082L26.3564703 54.4897347zM45.918331 55.0695918C46.183831 55.2233673 46.1860715 55.4736735 45.9194513 55.6296939L43.1468247 57.244898C42.8790842 57.3986735 42.4500272 57.3986735 42.183407 57.244898L39.4813563 55.6846939C39.2147361 55.5297959 39.2136158 55.2794898 39.4779956 55.1268367L42.2539829 53.5105102C42.5161222 53.3578571 42.9496601 53.3578571 43.2162804 53.5105102L45.918331 55.0695918zM89.7416266 68.8985C90.0071266 69.0522755 90.0082468 69.3025816 89.7427468 69.458602L86.9701203 71.0726837C86.7012595 71.2264592 86.2722025 71.2264592 86.0067025 71.0726837L78.3441709 66.6345204C78.0764304 66.4818673 78.0764304 66.2338061 78.3396899 66.0800306L81.1167975 64.4625816C81.3789367 64.311051 81.8113544 64.311051 82.0790949 64.4625816L89.7416266 68.8985zM80.0006892 63.2611122C80.265069 63.4126429 80.2661892 63.662949 80.0006892 63.8189694L77.2280627 65.4341735C76.9603222 65.5868265 76.5312652 65.5868265 76.2646449 65.4341735L68.600993 60.9948878C68.335493 60.8444796 68.3343728 60.5941735 68.5976323 60.440398L71.3724994 58.8251939C71.6357589 58.6714184 72.0704171 58.6714184 72.3370373 58.8251939L80.0006892 63.2611122zM70.2575114 57.6213673C70.5230114 57.772898 70.5252519 58.0243265 70.2586316 58.1792245L67.4860051 59.7944286C67.2193848 59.9470816 66.7880873 59.9470816 66.5214671 59.7944286L58.8589354 55.3551429C58.5923152 55.2047347 58.5923152 54.9544286 58.8566949 54.8006531L61.631562 53.185449C61.8948215 53.0316735 62.3283595 53.0316735 62.5961 53.185449L70.2575114 57.6213673zM60.5165741 51.9817347C60.7820741 52.1332653 60.7831943 52.3835714 60.5165741 52.5395918L57.7439475 54.1547959C57.476207 54.3085714 57.04715 54.3085714 56.7805297 54.1547959L49.1179981 49.7177551C48.8513778 49.5639796 48.8513778 49.3136735 49.1146373 49.1610204L51.8906247 47.5446939C52.1527639 47.3920408 52.5851816 47.3920408 52.8529222 47.5446939L60.5165741 51.9817347zM89.3192911 80.3016837C89.5859114 80.4554592 89.5859114 80.7035204 89.3226519 80.8595408L86.5489051 82.4736224C86.2822848 82.6262755 85.8498671 82.6285204 85.5843671 82.4758673L77.9207152 78.039949C77.6552152 77.885051 77.6529747 77.6347449 77.9184747 77.4787245L80.694462 75.8680102C80.9588418 75.7097449 81.3901392 75.7097449 81.6556392 75.8680102L89.3192911 80.3016837zM84.6435785 82.917102C84.9079582 83.0731224 84.911319 83.3223061 84.6480595 83.4760816L81.9090405 85.2057755C81.6435405 85.3617959 81.1763949 85.2428163 80.9108949 85.0901633L73.2450025 80.6553673C72.981743 80.5004694 72.9795025 80.2490408 73.2438823 80.0930204L76.0187494 78.4800612C76.2831291 78.3262857 76.7133063 78.3262857 76.9810468 78.4800612L84.6435785 82.917102zM53.3279095 77.099898C53.6057323 77.2604082 53.6068525 77.5208163 53.3323905 77.6813265L43.944669 83.1487755C43.670207 83.3081633 43.2198652 83.3081633 42.9420424 83.1487755L23.6468019 71.9658163C23.3712196 71.8053061 23.3689791 71.5426531 23.6445614 71.3821429L33.0311627 65.9180612C33.3056247 65.7586735 33.7570867 65.7586735 34.0337892 65.9180612L53.3279095 77.099898z"/>
      <polygon fill="#ECF5FF" points="64.942 12.522 64.942 10.544 47.227 .276 47.227 2.253"/>
      <polygon fill="#ECF5FF" points="64.942 16.317 64.942 14.339 47.227 4.071 47.227 6.048"/>
      <polygon fill="#ECF5FF" points="64.942 20.113 64.942 18.135 47.227 7.866 47.227 9.844"/>
      <polygon fill="#ECF5FF" points="99.008 31.556 99.008 29.578 81.293 19.31 81.293 21.288"/>
      <polygon fill="#ECF5FF" points="99.008 35.351 99.008 33.374 81.293 23.105 81.293 25.082"/>
      <polygon fill="#ECF5FF" points="99.008 39.147 99.008 37.169 81.293 26.901 81.293 28.877"/>
      <polygon fill="#ECF5FF" points="99.008 47.741 99.008 45.763 81.293 35.495 81.293 37.473"/>
      <polygon fill="#ECF5FF" points="99.008 51.536 99.008 49.559 81.293 39.291 81.293 41.269"/>
      <polygon fill="#ECF5FF" points="99.008 55.33 99.008 53.355 81.293 43.086 81.293 45.063"/>
      <path fill="#ECF5FF" d="M54.2555911 26.9973673L54.2555911 18.7047143C54.1155595 18.6137959 53.9744076 18.5183878 53.8310152 18.4353265 49.9078886 16.1668571 46.7174076 17.9885918 46.7050848 22.5042041 46.692762 27.0209388 49.8630785 32.5220612 53.7862051 34.7916531 57.7082114 37.0612449 60.8986924 35.2406327 60.9121354 30.7227755 60.9121354 30.656551 60.9054139 30.5869592 60.9031734 30.5196122L54.2555911 26.9973673zM100.068904 150.300184L86.5351259 142.46998C85.1336892 141.658449 83.3928158 141.660694 81.9924994 142.476714L69.0322905 150.035286C68.1775373 150.533653 67.6678222 151.422633 67.6689424 152.413755 67.6700627 153.404878 68.1831386 154.292735 69.0412525 154.788857L82.4753285 162.561816C83.3043158 163.041102 84.2341259 163.282429 85.1650563 163.282429 86.1004677 163.282429 87.0358791 163.038857 87.8693475 162.552837L100.077866 155.434265C101.000955 154.896612 101.55212 153.936918 101.549879 152.866102 101.547639 151.795286 100.993113 150.836714 100.068904 150.300184M130.86612 132.425408L117.330101 124.594082C115.928665 123.782551 114.188911 123.787041 112.789715 124.601939L99.8295063 132.159388C98.9736329 132.656633 98.4639177 133.546735 98.4661582 134.537857 98.4683987 135.531224 98.9792342 136.419082 99.8373481 136.915204L113.271424 144.685918C114.101532 145.167449 115.031342 145.406531 115.961152 145.406531 116.896563 145.406531 117.831975 145.162959 118.666563 144.676939L130.873962 137.558367C131.797051 137.021837 132.347095 136.059898 132.344854 134.990204 132.343734 133.919388 131.791449 132.960816 130.86612 132.425408M161.662104 114.54951L148.127205 106.718184C146.725768 105.906653 144.986015 105.911143 143.585699 106.723796L130.62549 114.28349C129.770737 114.780735 129.261022 115.670837 129.261022 116.661959 129.263262 117.655327 129.776338 118.543184 130.633332 119.039306L144.067408 126.81002C144.896395 127.291551 145.827325 127.530633 146.757135 127.530633 147.692547 127.530633 148.629078 127.287061 149.462547 126.801041L161.669946 119.684714C162.594154 119.145939 163.143078 118.184 163.141958 117.114306 163.139718 116.04349 162.586313 115.084918 161.662104 114.54951"/>
    </g>
    <g transform="translate(71 10)">
      <path fill="#7C7C7C" d="M33.2993733,56.6909079 L32.7939067,56.6909079 L32.7939067,57.6544794 C32.2181733,56.4395905 31.1505733,55.3159873 29.54464,54.3941143 C23.9799733,51.1991143 14.2593733,51.5991937 7.83337333,55.2900667 C5.56670667,56.5906063 4.02877333,58.1278127 3.21050667,59.7134794 L2.51804,59.7134794 L2.51804,62.3742889 L2.52937333,62.3742889 C2.54297333,64.3904635 3.76697333,66.3153524 6.27390667,67.7545111 C11.8397067,70.9495111 21.56144,70.5494317 27.98744,66.8596857 C31.5699067,64.8029397 33.3673733,62.1601619 33.2959733,59.667273 L33.2993733,59.667273 L33.2993733,56.6909079 Z"/>
      <path fill="#DDD" d="M27.9880067,63.9128476 C21.5608733,67.6014667 11.8402733,68.001546 6.27447333,64.807673 C0.709806667,61.611546 1.40794,56.0307206 7.83394,52.3409746 C14.25994,48.6523556 23.98054,48.2511492 29.5452067,51.4461492 C35.1110067,54.6411492 34.4128733,60.2231016 27.9880067,63.9128476"/>
      <path fill="#FF3B73" d="M32.0654,11.2868587 C32.0654,19.1633508 20.5983333,50.9386683 17.9100667,58.0938905 L14.1700667,55.8635889 C14.1700667,55.8635889 -0.00113333333,35.0470651 0,26.0616206 C0,17.0750492 6.3444,6.14781111 14.1700667,1.6545254 C21.9968667,-2.83876032 32.0654,2.29916032 32.0654,11.2868587"/>
      <path fill="#EF1146" d="M32.0808133,12.0219905 C32.0808133,21.0074349 17.9096133,58.0942286 17.9096133,58.0942286 C17.9096133,58.0942286 3.73841333,37.2788317 3.73954667,28.2933873 C3.73954667,19.3068159 10.0839467,8.37957778 17.9096133,3.88516508 C25.7364133,-0.606993651 32.0808133,3.03429206 32.0808133,12.0219905"/>
      <path fill="#EFEFEF" d="M26.2946933,13.9480063 C26.2946933,19.2662444 23.16896,26.8700063 18.53816,29.5285619 C13.9062267,32.1882444 9.52476,28.8940698 9.52476,23.5769587 C9.52476,18.2587206 13.2794933,11.7932127 17.9102933,9.13465714 C22.53996,6.47610159 26.2946933,8.63089524 26.2946933,13.9480063"/>
      <path fill="#DBDBDB" d="M27.7899,15.2038048 C27.7899,20.5220429 24.0363,26.9864238 19.4066333,29.6438524 C14.7747,32.3035349 11.0199667,30.1487413 11.0199667,24.8316302 C11.0211,19.5133921 14.7747,13.0490111 19.4066333,10.3904556 C24.0351667,7.73077302 27.7899,9.88669365 27.7899,15.2038048"/>
    </g>
  </g>
</svg>
