<svg xmlns="http://www.w3.org/2000/svg" width="199" height="262" viewBox="0 0 199 262">
  <defs>
    <linearGradient id="pi-tracking-ans-a" x1="1.301%" x2="98.76%" y1="50%" y2="50%">
      <stop offset="0%" stop-color="#43CEA2"/>
      <stop offset="100%" stop-color="#185A9D"/>
    </linearGradient>
  </defs>
  <g fill="none" fill-rule="evenodd">
    <path fill="#8CE2FF" d="M6.33616,105.272904 L186.795728,0.49846468 C188.005648,-0.201267027 189.362032,-0.12298654 190.428672,0.476098826 L190.430264,0.472903704 L190.470064,0.495269558 C190.473248,0.49846468 190.478024,0.500062241 190.481208,0.503257363 L197.393672,4.52911102 L192.315192,22.7652696 L192.315192,142.667013 C192.315192,147.036343 189.992464,151.071782 186.222608,153.255648 L12.352328,254.213513 L10.33208,259.693148 L3.371856,255.640135 L3.371856,255.638538 C1.407328,254.526635 0,252.430635 0,249.845782 L0,116.284892 C0,111.741428 2.415064,107.543038 6.33616,105.272904"/>
    <path fill="url(#pi-tracking-ans-a)" d="M0,116.286105 L0,249.846995 C0,254.968775 5.52424,258.170287 9.943632,255.609397 L186.222608,153.258458 C189.992464,151.074592 192.315192,147.037556 192.315192,142.668226 L192.315192,3.69639718 C192.315192,0.855933769 189.249,-0.920554036 186.795728,0.499677671 L6.33616,105.272519 C2.416656,107.544251 0,111.742641 0,116.286105" transform="translate(6.368 4.793)"/>
    <polygon points="13 126.704 13 246 196 139.298 196 20"/>
    <g fill="#FFF" transform="translate(124 76)">
      <polygon points="0 33.739 11.004 27.321 11.004 83.319 0 89.735"/>
      <polygon points="16.104 50.45 27.108 44.032 26.95 73.676 15.946 80.092"/>
      <polygon points="32.048 27.146 43.054 20.729 42.898 65.639 31.892 72.056"/>
      <polygon points="47.838 6.416 58.841 0 58.841 55.996 47.838 62.413"/>
    </g>
    <g fill="#FFF" transform="translate(17 121)">
      <polygon points="79.53 19.867 79.416 20.009 79.351 20.155 79.353 20.227 79.384 20.227 79.404 20.27 79.397 20.329 79.27 20.453 79.066 20.927 78.98 21.013 78.619 21.24 78.411 21.393 78.325 21.49 78.224 21.786 78.153 21.879 77.966 21.989 77.908 22.034 77.866 22.096 77.839 22.232 77.844 22.348 77.99 22.511 78.017 22.659 78.087 23.221 78.076 23.462 78.114 23.855 78.16 23.916 78.233 23.922 78.452 23.863 78.493 23.868 78.484 24.188 78.313 24.606 78.089 24.962 78.078 25.067 78.093 25.1 78.148 25.069 78.305 24.845 78.325 24.847 78.256 25.082 78.009 25.556 77.926 25.669 77.904 25.766 77.914 25.785 78.059 25.696 78.046 25.746 78.01 25.819 77.794 26.073 77.685 26.302 77.572 26.495 77.421 26.708 77.117 27.031 76.849 27.244 76.741 27.271 76.748 27.222 76.861 27.048 76.84 26.992 76.623 27.063 76.463 27.044 76.316 26.888 76.268 26.785 76.164 26.732 75.929 26.821 75.768 26.644 75.658 26.468 75.628 26.359 75.617 26.203 75.576 26.173 75.522 26.183 75.469 26.225 75.438 26.282 75.394 26.364 75.344 26.407 75.113 26.449 75.069 26.48 74.995 26.573 74.93 26.623 74.763 26.665 74.715 26.652 74.707 26.447 74.787 26.126 74.768 26.102 74.648 26.07 74.632 26.042 74.652 25.775 74.356 25.424 74.176 25.286 74.044 25.267 73.982 25.28 73.904 25.345 73.746 25.224 73.642 25.222 73.452 25.269 73.926 25.018 74.296 24.78 74.863 24.334 75.53 23.762 75.739 23.558 75.981 23.299 76.26 22.958 77.157 21.756 77.824 21.009 78.246 20.462 78.28 20.464 78.335 20.429 79.441 19.446 79.617 19.308 79.624 19.342 79.667 19.341 79.839 19.25 79.684 19.433 79.649 19.58 79.564 19.598 79.471 19.657 79.488 19.788 79.549 19.823"/>
      <polygon points="95.538 11.52 95.499 11.554 95.457 11.655 95.485 11.663 95.479 11.701 95.372 11.767 95.158 11.745 95.11 11.799 95.085 11.867 94.97 11.916 94.951 11.828 94.915 11.806 94.732 11.882 94.513 11.911 94.395 12.006 94.34 12.031 94.21 12.026 94.255 11.953 94.348 11.868 94.51 11.81 94.628 11.713 94.721 11.695 94.863 11.596 94.878 11.565 94.865 11.526 94.872 11.445 94.907 11.414 95.013 11.249 95.05 11.229 95.081 11.25 95.065 11.308 95.085 11.332 95.124 11.35 95.202 11.319 95.19 11.36 95.255 11.398 95.264 11.515 95.294 11.498 95.324 11.444 95.335 11.335 95.383 11.308 95.41 11.33 95.402 11.38 95.498 11.344 95.539 11.251 95.571 11.237 95.622 11.262 95.806 11.247 95.8 11.315 95.759 11.374 95.71 11.388 95.68 11.429 95.651 11.495 95.636 11.612 95.601 11.682"/>
      <polygon points="98.129 12.833 98.14 12.896 98.199 12.871 98.111 13.024 98.02 13.088 97.996 13.136 97.772 13.237 97.694 13.381 97.63 13.427 97.61 13.479 97.554 13.547 97.515 13.558 97.511 13.518 97.597 13.314 97.579 13.307 97.583 13.256 97.477 13.238 97.471 13.202 97.413 13.171 97.403 13.123 97.48 13.057 97.415 13.021 97.44 12.999 97.555 12.991 97.691 12.882 97.692 12.918 97.745 12.882 97.765 12.908 97.756 12.943 97.798 12.943 97.824 12.98 97.88 12.93 97.945 12.933 97.952 12.902 97.973 12.889 97.988 12.938 98.068 12.912 98.068 12.975 98.083 12.978 98.112 12.854 98.064 12.841"/>
      <polygon points="89.657 4.051 89.503 4.118 89.419 4.06 89.421 4.02 89.443 3.974 89.477 3.933 89.621 3.833 89.77 3.784 89.833 3.712 89.893 3.617 89.84 3.586 89.715 3.622 89.681 3.541 89.698 3.489 89.814 3.36 89.851 3.361 89.94 3.327 90.049 3.208 90.066 3.226 90.063 3.264 90.145 3.396 90.215 3.449 90.218 3.544 90.176 3.636 90.087 3.753 89.966 3.844 89.87 3.975 89.796 4.007 89.725 4.075"/>
      <polygon points="77.979 23.483 78.034 23.534 78.03 23.639 77.971 23.765 77.91 23.861 77.884 23.891 77.836 23.907 77.798 23.88 77.776 23.81 77.746 23.795 77.693 23.797 77.565 23.915 77.543 23.772 77.512 23.761 77.351 23.896 77.136 23.939 77.081 23.989 77.063 24.017 77.001 24.063 76.953 24.049 76.94 24.022 76.957 23.876 76.922 23.706 76.938 23.504 76.802 22.962 76.748 22.875 76.73 22.8 76.727 22.675 76.711 22.633 76.702 22.5 76.671 22.428 76.672 22.367 76.686 22.258 76.646 22.094 76.7 21.849 76.698 21.819 76.654 21.814 76.645 21.761 76.654 21.74 76.707 21.721 76.713 21.787 76.75 21.817 76.734 21.757 76.744 21.605 76.77 21.551 76.878 21.409 76.97 21.311 76.987 21.231 76.973 21.199 76.927 21.199 76.91 21.168 76.908 21.096 76.986 20.965 77.107 20.868 77.135 20.854 77.153 20.939 77.21 21.01 77.264 20.993 77.257 21.058 77.318 21.099 77.449 21.129 77.497 21.185 77.485 21.297 77.472 21.409 77.484 21.448 77.551 21.484 77.573 21.523 77.58 21.611 77.562 21.74 77.575 21.8 77.62 21.827 77.615 21.917 77.589 21.992 77.617 22.028 77.699 22.049 77.718 22.206 77.702 22.284 77.7 22.402 77.636 22.583 77.649 22.649 77.638 22.786 77.668 22.824 77.668 22.957 77.691 23.031 77.67 23.145 77.688 23.222 77.713 23.271 77.781 23.331 77.931 23.386"/>
      <path d="M90.615724,16.125754 L90.5980347,16.0947811 L90.5927089,16.1094932 L90.6159142,16.1909907 L90.6471082,16.2134461 L90.6476788,16.1909907 L90.6134415,16.1755043 L90.615724,16.125754 Z M99,5.7248591 L98.9805761,5.86369197 L98.8246742,6.24692669 L98.7618022,6.36142441 L98.5155964,6.7390568 L98.1278008,7.15573047 L97.4321202,7.77163716 L97.2789444,7.92044919 L97.1670017,8.03827329 L97.0139962,8.29125373 L96.8976235,8.36145799 L96.7367803,8.5135964 L96.500116,8.83397993 L96.440311,8.89648098 L96.3348429,8.97193743 L96.1946163,9.05124548 L96.121862,9.16766901 L95.7724031,9.31578074 L95.648363,9.3406411 L95.5526068,9.38966153 L95.4970614,9.3814331 L95.3800072,9.62706047 L95.3256545,9.70444273 L95.1070509,9.83277121 L95.0917163,9.78147483 L95.008739,9.73157904 L94.9780697,9.67012842 L95.0092501,9.52674366 L94.9698912,9.48315049 L94.9153682,9.46669364 L94.8381839,9.49453024 L94.7138031,9.50380911 L94.5452926,9.61673117 L94.4420395,9.65489708 L94.3508837,9.80808592 L94.3195329,9.91032854 L94.2905675,10.098532 L94.2328071,10.1186654 L94.2370668,10.0067937 L94.0348201,10.1885195 L93.9533763,10.2471689 L93.8099124,10.4196158 L93.7426104,10.532888 L93.7068296,10.6055433 L93.6115846,10.7869189 L93.6052804,10.8833841 L93.5749519,10.9926296 L93.5260515,10.9856267 L93.4238207,11.0834925 L93.4548307,11.2825505 L93.6136292,11.1948389 L93.6509435,11.2885029 L93.7393731,11.3016334 L93.7710647,11.3548556 L93.7835027,11.5609165 L93.8906747,11.6890699 L93.9237293,11.7788823 L94.0654894,11.8131966 L94.1137083,11.9222671 L94.2213914,11.859591 L94.298746,11.8471608 L94.3055614,11.9742637 L94.4382911,11.9289199 L94.4948588,11.8851516 L94.6188988,11.811621 L94.6224769,11.9059853 L94.6771704,11.9418753 L94.7533323,11.9466022 L94.7795716,11.9877444 L94.8588004,11.8328048 L94.937007,11.7797577 L95.0351486,11.8361312 L95.0746778,11.8809499 L95.1377202,11.8114459 L95.1813386,11.8228256 L95.1426613,12.070729 L95.086264,12.1274526 L95.1530548,12.2254935 L95.2053629,12.2960479 L95.2685756,12.2739887 L95.308616,12.1640428 L95.4190253,11.936448 L95.5681118,11.8569649 L95.7074865,11.8207248 L95.6175234,11.9756643 L95.6645496,12.0019253 L95.8069912,11.9520295 L95.867137,12.0077027 L95.9478993,12.0523463 L95.8504393,12.2941221 L95.7700177,12.3123296 L95.626213,12.3667773 L95.7299773,12.4672692 L95.5618076,12.7304039 L95.513248,12.8750142 L95.3936379,12.9511709 L95.3052083,12.9623756 L95.1910506,13.0147224 L94.9443335,13.251246 L94.8281312,13.4100372 L94.7749712,13.4404999 L94.6853488,13.3970818 L94.6146392,13.4364732 L94.5604569,13.500725 L94.4916215,13.4207166 L94.3706483,13.4564315 L94.4633376,13.4734136 L94.470153,13.5697037 L94.4105184,13.6757979 L94.2288883,13.7925716 L94.0266417,13.9665941 L93.9635994,14.0297955 L93.911632,14.1262607 L93.7790727,14.2447851 L93.6744566,14.2682448 L93.4485265,14.4692286 L93.3060849,14.6385242 L93.2018095,14.7981907 L92.8107766,15.2166151 L92.7238804,15.261959 L92.6637347,15.2241432 L92.4926684,15.2574071 L92.4330338,15.2967985 L92.3449449,15.3978156 L92.277643,15.4352812 L92.163826,15.2840182 L92.1167998,15.2425259 L91.9251171,15.2649352 L91.8714459,15.1821257 L91.7670001,15.2286951 L91.657102,15.2579323 L91.570717,15.1998081 L91.5109119,15.2120632 L91.4499142,15.2521549 L91.3158215,15.2094371 L91.2481788,15.1607668 L91.2686249,15.0418923 L91.241193,14.9874446 L91.156171,14.9863942 L91.0300864,15.120325 L90.9617621,15.2328969 L90.8757179,15.2645851 L90.9825491,15.2745643 L90.9011052,15.36035 L90.8665171,15.4914797 L90.9215513,15.6222592 L90.9505167,15.5250937 L90.9927721,15.8024093 L90.9077502,15.7835014 L90.8131867,15.8717382 L90.6477432,15.9454439 L90.6054878,16.0361317 L90.6521732,15.950521 L90.7426474,15.9662776 L90.8898598,16.0205502 L90.9769264,15.9534972 L91.0801795,15.921809 L91.1209014,16.0326302 L91.0317902,16.1395998 L90.953754,16.2784327 L90.8044971,16.2924385 L90.7150451,16.2502459 L90.6409278,16.2323885 L90.6792643,16.2716048 L90.5467051,16.4787161 L90.5887901,16.7343227 L90.5489201,16.8801584 L90.2016761,16.987128 L90.0926299,16.9398583 L90.0686056,16.8974907 L90.0638349,16.8012005 L90.0202164,16.7513047 L89.5002024,16.6828512 L89.3017042,16.6024927 L89.1587515,16.5174073 L89.0023383,16.6951063 L88.9873445,16.7826428 L88.9396368,16.8570488 L88.7937875,16.9641935 L88.6303886,16.9981576 L88.5044743,17.1345395 L88.1660904,17.2710964 L88.1085003,17.3399001 L88.0694822,17.462101 L87.9713407,17.4288371 L87.7626194,17.5438601 L87.6816867,17.502893 L87.5826932,17.5540143 L87.5140282,17.5407087 L87.3078627,17.8264278 L87.1579242,17.9694624 L87.0553526,17.9556317 L86.9464768,18.0317884 L86.8166437,17.9416258 L86.7239545,17.9090623 L86.6408067,18.1385829 L86.5375536,18.2718135 L86.3961343,18.3556734 L86.3100901,18.3604004 L86.2405731,18.4594917 L86.1144885,18.5601586 L86.0453123,18.4017176 L85.9441038,18.421851 L85.8512441,18.3148814 L85.8025141,18.4106463 L85.6950014,18.565761 L85.6658656,18.6552233 L85.6922752,18.8040353 L85.630596,18.8985747 L85.5423367,18.9561737 L85.4520328,18.9467198 L85.3915463,19.1625847 L85.2416078,19.3183997 L85.177032,19.1741395 L85.0886023,19.1557569 L85.0262415,19.0589415 L84.8168388,19.028829 L84.7473218,19.0675201 L84.591931,19.2432934 L84.5092944,19.2910883 L84.3995667,19.4038353 L84.2949505,19.39123 L83.9020434,19.566303 L83.8633661,19.7489041 L83.8372973,19.8376661 L83.7843076,19.9078703 L83.6384583,20.0160654 L83.582061,20.1408925 L83.4859641,20.4306382 L83.2736648,20.4705549 L83.2252755,20.2895294 L83.0770408,20.2643189 L82.9158569,20.3264698 L82.7505838,20.418033 L82.7023649,20.3912468 L82.6369372,20.2939062 L82.5541303,20.3287458 L82.4387798,20.8023181 L82.4815464,20.9185666 L82.3774414,21.0575745 L82.3428533,21.1449359 L82.2798109,21.2312469 L82.2585129,21.3931894 L82.1879736,21.5134645 L82.1346432,21.5411261 L82.076542,21.45464 L81.9973131,21.4915804 L81.9030904,21.7172495 L81.8042673,21.8235188 L81.7696792,21.9289127 L81.6737526,21.972856 L81.5580614,22.2613762 L81.5357411,22.4497548 L81.4583864,22.4583333 L81.4159606,22.4410011 L81.3476364,22.1972995 L81.3922772,21.8156405 L81.5123984,21.4768743 L81.5098426,21.3625516 L81.4868407,21.3016262 L81.4103379,21.252956 L81.2251298,21.3049526 L81.1205136,21.2615345 L81.1136982,21.1792502 L81.1416413,21.0468951 L81.1491382,20.9448275 L81.0823474,20.804419 L80.9947697,20.6955236 L81.0693982,20.5108216 L81.0724651,20.4178579 L81.0210089,20.3324223 L81.0249278,20.1809842 L80.9353055,20.082243 L80.9218451,19.9616177 L80.9596705,19.8247107 L81.1603836,19.4612592 L81.3265087,18.8878952 L81.3590521,18.8133142 L81.4067599,18.7527389 L81.4318064,18.4111715 L81.3668898,18.1807755 L81.3403098,17.9958985 L81.2822087,17.8694958 L81.2885129,17.7936892 L81.2719856,17.6762152 L81.1692436,17.6303461 L80.9225266,17.8127721 L80.7216431,18.0657526 L80.6325319,18.1494375 L80.5224634,18.1786746 L80.3984233,18.1816509 L80.4674291,17.9759401 L80.5783496,17.8497125 L80.6739354,17.7698793 L80.7519715,17.5923553 L80.847387,17.4122052 L80.8857235,17.150121 L80.8734558,17.0095374 L80.9644412,16.8320134 L80.9978366,16.7092872 L81.0620717,16.6621926 L81.043159,16.5382409 L81.0952967,16.4174406 L81.0308913,16.4195415 L80.9313866,16.6882785 L80.8685147,16.761634 L80.8758412,16.6530888 L80.726925,16.771088 L80.6015219,16.7938475 L80.5033803,16.7504294 L80.2723387,16.7190913 L80.3014745,16.5860359 L80.237921,16.5424427 L80.0256217,16.6259525 L80.084234,16.5090038 L80.1208667,16.3598416 L80.0274959,16.4692622 L80.0048347,16.5895373 L79.961557,16.6564152 L79.8387097,16.7253939 L79.9026039,16.6089704 L79.934977,16.52406 L79.975699,16.2915631 L79.9796178,16.0667694 L80.0489644,15.9419424 L80.1511952,15.8684118 L80.2358764,15.7551396 L80.5793719,15.1138473 L80.8344377,14.7323633 L80.8940724,14.6056105 L80.9860801,14.3657605 L81.0658201,14.0753144 L81.1769109,14.0467775 L81.1234101,14.38852 L81.2051948,14.4261607 L81.293454,14.4266859 L81.4001149,14.3916713 L81.781095,14.2223757 L81.8952527,14.1570735 L81.9778893,14.0938722 L82.1441847,13.9361314 L82.2407928,13.8298621 L82.3537579,13.6740472 L82.443721,13.4844432 L82.4771164,13.34491 L82.5272095,12.9651767 L82.5360695,12.6164314 L82.5749172,12.4826756 L82.7824457,12.2631341 L82.9073377,12.1132717 L83.0734628,11.8809499 L83.1036208,11.7484196 L83.2056813,11.658257 L83.2544113,11.4943887 L83.2791171,11.387069 L83.2273201,11.2272274 L83.2673605,11.0813916 L83.2702571,10.9497367 L83.3307436,10.7350973 L83.3827109,10.6925546 L83.4675625,10.5330631 L83.5241302,10.5379651 L83.5760976,10.4672356 L83.5854687,10.2609997 L83.577631,10.1678609 L83.6166491,10.0920543 L83.678158,9.88949485 L83.6149453,9.8704119 L83.5455987,10.0260518 L83.453591,9.91085375 L83.5253229,9.8231422 L83.7262065,9.5407495 L83.7585795,9.42117466 L83.8139546,9.33171238 L83.8701815,9.20706043 L83.9361204,8.97491367 L84.0412477,8.78268355 L84.1160466,8.67904036 L84.1646062,8.5291779 L84.3646378,8.3218915 L84.4447186,8.14436751 L84.4764102,8.20406739 L84.6016429,8.12598485 L84.6471356,8.04370056 L84.5914198,7.99432998 L84.614081,7.88823576 L84.5670548,7.81330453 L84.645091,7.69355462 L84.7224457,7.66449251 L84.6675818,7.6004158 L84.8239949,7.41238744 L85.115012,7.01864833 L85.3745078,6.64976959 L85.4167632,6.56818559 L85.448114,6.47627228 L85.479124,6.30347526 L85.6708068,5.85266237 L85.6900602,5.74464235 L85.8123964,5.47397954 L85.8340353,5.38784364 L85.881743,5.31448807 L85.9698319,5.2339545 L86.0350892,5.15026962 L86.1669669,4.84424208 L86.1688412,4.67074476 L86.1368089,4.53541336 L86.0942127,4.46941085 L86.1495877,4.39027787 L86.2022366,4.20452545 L86.2979928,4.11173678 L86.1693523,4.0902028 L86.1482246,3.94961921 L86.2894735,3.80798518 L86.3535382,3.69926487 L86.4704221,3.38168251 L86.4492944,3.25510475 L86.5600444,3.11872291 L86.5597036,2.99547154 L86.6667052,2.65547984 L86.8203922,2.69417096 L86.9906065,2.82582583 L87.0691538,2.80779332 L87.1270846,2.89427936 L87.2303377,3.16756827 L87.2173885,3.23689716 L87.090963,3.23724731 L86.9999776,3.39813936 L86.8941687,3.39008601 L86.8771303,3.50966084 L86.9318238,3.55815606 L87.0815919,3.4037417 L87.2134696,3.36154911 L87.1223138,3.49162833 L87.2085285,3.55360416 L87.1828004,3.7437334 L87.215855,3.85017777 L87.0228092,4.18474221 L86.8573657,4.67914827 L86.8227776,4.76528417 L86.7295771,4.93633046 L86.7064048,5.2125956 L86.8928057,5.23570523 L86.9885619,5.18038217 L87.198135,4.95681399 L87.2001796,4.84774354 L87.2182404,4.74672643 L87.3117816,4.66181604 L87.4688763,4.33057799 L87.5634398,4.25512154 L87.6210298,4.13607192 L87.8108383,3.88589265 L87.8258322,3.77524654 L87.783236,3.73235366 L87.8827406,3.48164917 L87.8781402,3.42002349 L87.9650364,3.30412518 L88.0406872,3.08948572 L88.1067965,2.94592589 L88.1894331,2.88027353 L88.1781877,2.76209927 L88.172565,2.66510885 L88.1136119,2.63061947 L88.0580665,2.65075287 L88.0727195,2.44399169 L88.0389834,2.41125305 L88.0495472,2.34192415 L88.1475184,2.28887704 L88.2139684,2.31111131 L88.3170512,2.17280367 L88.2626985,2.19346228 L88.1907961,2.17700542 L88.1904554,2.09104459 L88.2599723,1.99055271 L88.3947466,1.84121546 L88.4959551,1.84541722 L88.5228759,1.70851016 L88.6469159,1.60416667 L88.7222259,1.6764718 L88.7787936,1.67892282 L88.8270125,1.73144471 L88.8391098,1.78589241 L88.945941,1.80497536 L89.0037014,1.78746806 L89.1222892,1.71568815 L89.1468245,1.88655936 L89.1621592,2.00350811 L89.084123,2.13971487 L89.0377784,2.31916467 L89.0544761,2.40319969 L88.9871741,2.52662613 L89.0824191,2.63744732 L89.1078065,2.79343733 L89.1526176,2.81847277 L89.2429215,2.81882292 L89.2954,2.86871871 L89.2858584,2.94645111 L89.200155,3.08353324 L89.2275869,3.19978169 L89.2802358,3.30482547 L89.33527,3.49092804 L89.4235293,3.47972337 L89.469022,3.38203265 L89.5497843,3.41512144 L89.6397474,3.28959412 L89.6801286,3.332487 L89.804339,3.28346657 L89.8920871,3.46046534 L89.9921029,3.46134071 L90.1204026,3.36207433 L90.3115742,3.04939401 L90.4143162,2.80201591 L90.4565716,2.73811428 L90.4799143,2.89287878 L90.5238735,2.99687212 L90.6363274,3.0896608 L90.6059989,3.19242863 L90.8675394,3.19680545 L90.9610806,3.12467539 L91.0253156,3.14060703 L91.1387918,3.14796009 L91.5345954,3.28101555 L91.51006,3.42299973 L91.4405431,3.55675547 L91.4313423,3.74110731 L91.4412246,3.82899394 L91.4775165,3.92073217 L91.4865469,4.0235 L91.4565592,4.19051962 L91.3875534,4.45663053 L91.2493715,4.54626789 L91.1198791,4.61279561 L90.8779329,4.94560932 L90.7651382,5.18230798 L90.8392555,5.18580944 L90.8852594,5.22677651 L90.919166,5.31466314 L91.0185002,5.37681404 L90.9750521,5.45262064 L91.0426948,5.42933593 L91.1224349,5.55433803 L91.1336803,5.61981532 L91.0696156,5.71050312 L91.0086179,5.794188 L90.9687479,5.91831473 L90.9680664,6.06152442 L90.867369,6.28841898 L90.7416251,6.52511764 L90.7089113,6.46489254 L90.6755159,6.65432149 L90.7690571,6.62333357 L90.4703727,6.98310852 L90.3139596,7.11721441 L90.2205888,7.28966129 L90.3260569,7.18339199 L90.3652454,7.11773963 L90.8271582,6.7008909 L90.9730075,6.67095342 L91.2393188,6.43565535 L91.387383,6.40449236 L91.4799019,6.36247485 L91.6027493,6.24710176 L91.657102,6.21751443 L91.6739701,6.36702675 L91.6876008,6.17882331 L91.6143354,6.10774368 L91.61638,6.04104088 L91.7796086,5.94037393 L91.9470967,5.8628166 L92.0460902,5.80014048 L92.201481,5.66813546 L92.2970668,5.55223716 L92.3423892,5.4275852 L92.3054157,5.39677236 L92.3759549,5.26494242 L92.4400196,5.19473816 L92.5441246,5.02876898 L92.58195,4.93685568 L92.6320431,4.87120331 L92.6587935,4.73814786 L92.7228581,4.65131167 L92.7959532,4.6439586 L92.8692186,4.79084482 L93.0007555,4.6549882 L93.0087636,4.76861055 L92.9685528,4.85019456 L93.0833921,5.0033834 L93.1368929,5.02054055 L93.074021,5.16847721 L93.0459075,5.27142012 L93.1953348,5.30748515 L93.2856387,5.22309998 L93.2740526,5.38434218 L93.3101741,5.43108666 L93.4517638,5.45384615 L93.4052488,5.54838555 L93.2725191,5.67216214 L93.2076025,5.75059483 L93.0849256,5.9314452 L92.9525367,6.11159529 L92.887109,6.13365448 L92.8431497,6.0156553 L92.7497789,6.14048233 L92.5855281,6.23659739 L92.4965873,6.35249569 L92.3919711,6.37595547 L92.3018376,6.47312097 L92.3619834,6.54682668 L92.245781,6.6788317 L92.2936591,6.69528856 L92.3524419,6.63873999 L92.3362553,6.72802721 L92.3909488,6.74851074 L92.4527984,6.70771874 L92.54651,6.67655575 L92.5057881,6.96192469 L92.5245304,7.00359206 L92.5192484,7.07484675 L92.5724085,6.97137863 L92.7041158,6.90222481 L92.7714178,6.84690175 L92.8387197,6.74133275 L92.9102813,6.67305429 L92.962419,6.55347946 L93.082881,6.42410053 L93.1363817,6.39889003 L93.1256475,6.50410888 L93.2236187,6.48204969 L93.280016,6.36632645 L93.3541334,6.34934438 L93.3861657,6.54385044 L93.446993,6.44615973 L93.502368,6.38751028 L93.4190499,6.1898529 L93.4635203,6.07990708 L93.5536538,6.02650983 L93.5914792,5.93827305 L93.533378,5.7682772 L93.5493942,5.67636389 L93.8538716,5.40710167 L93.9232182,5.29890657 L93.958999,5.21347096 L94.2138944,5.17688071 L94.3847903,5.10107412 L94.4887249,5.28910249 L94.5199053,5.136789 L94.4904288,5.10019875 L94.4836134,4.99620541 L94.77889,5.03069479 L95.1385721,5.05012789 L95.4788303,5.13661393 L95.6095153,5.13871481 L95.7328738,5.21854808 L95.7591131,5.27387114 L95.657223,5.42688491 L95.588558,5.47152852 L95.5791869,5.58129927 L95.6033815,5.68529261 L95.5635115,5.81187037 L95.5026841,5.90711006 L95.4662218,6.13593043 L95.5812315,5.93127013 L95.6516003,5.78140767 L95.6631865,5.62926926 L95.6986265,5.43458812 L95.7529792,5.37016127 L95.8202812,5.25688906 L95.8799158,5.20856892 L95.9388689,5.20209122 L95.9855543,5.22309998 L96.2651556,5.43931509 L96.4418445,5.47870651 L96.5801968,5.44684323 L96.6860057,5.48168275 L96.7340542,5.54453395 L96.7016811,5.66410878 L96.7009996,5.85353773 L96.7175269,5.90938601 L96.7640419,5.72625969 L96.7669384,5.60475905 L96.746833,5.46872735 L96.7993115,5.46207458 L96.9541912,5.52335012 L97.1642755,5.5208991 L97.3007536,5.55188701 L97.3663517,5.62996955 L97.3118286,5.69842308 L97.2077236,5.81677241 L97.0969735,5.97503837 L97.2222063,5.96243312 L97.3017759,5.91796459 L97.4190006,5.80591789 L97.4275198,5.7339629 L97.4009398,5.5811242 L97.4748868,5.49743932 L97.7439242,5.46522589 L97.9780327,5.36508415 L98.0845231,5.28262479 L98.1724416,5.18528422 L98.2189566,5.01878982 L98.3774144,4.85772269 L98.4590287,4.79784774 L98.6605937,4.79784774 L98.8592623,4.91287068 L98.9359354,5.03594698 L98.9758054,5.29155351 L98.9361057,5.50549267 L98.913615,5.66288327 L98.9746127,5.66393371 L99,5.7248591 Z"/>
      <polygon points="87.863 1.175 87.831 1.171 87.823 1.149 87.868 1.052 87.884 .976 87.882 .914 87.915 .82 87.954 .755 87.955 .707 87.98 .635 88.024 .619 88.077 .555 88.088 .519 88.13 .5 88.142 .529 88.193 .505 88.351 .317 88.422 .25 88.459 .18 88.468 .097 88.506 .019 88.54 0 88.585 .058 88.612 .142 88.587 .285 88.621 .346 88.61 .379 88.516 .394 88.474 .374 88.498 .294 88.416 .308 88.358 .42 88.347 .494 88.37 .529 88.423 .533 88.452 .605 88.412 .639 88.306 .653 88.259 .722 88.188 .797 88.102 .811 88.058 .835 88.051 .894 88.034 .921 88.019 .935 88.007 .921 87.972 .932 87.931 .964 87.913 1.031 87.962 .984 88.019 .977 88.02 1.002"/>
      <polygon points="19.161 75.71 19.174 75.786 19.21 75.797 19.383 75.613 19.388 75.427 19.191 75.396"/>
      <polygon points="23.978 65.664 23.989 65.549 23.952 65.375 24.078 65.126 24.265 64.875 24.3 64.781 24.261 64.645 24.182 64.616 24.18 64.526 24.227 64.408 24.24 64.259 24.344 64.171 24.414 64.167 24.403 64.229 24.463 64.272 24.521 64.567 24.576 64.635 24.62 64.78 24.681 64.797 24.669 64.848 24.627 64.853 24.6 64.911 24.614 65.001 24.75 65.036 24.735 65.163 24.689 65.273 24.716 65.341 24.688 65.488 24.667 65.513 24.428 65.654 24.32 65.753 24.263 65.771 24.187 65.768"/>
      <polygon points="19.161 57.752 19.164 57.768 19.164 57.75"/>
      <polygon points="13.65 51.333 13.783 51.343 14.003 51.36 14.188 51.426 14.311 51.557 14.518 51.711 14.736 51.804 14.922 51.809 15.151 51.871 15.432 52.019 15.698 52.055 15.843 52.048 15.935 52.023 16.015 51.937 16.163 51.952 16.25 51.988 16.929 52.335 17.172 52.584 17.386 52.87 17.368 52.968 17.44 53.079 17.623 53.282 17.946 53.824 18.33 54.37 18.764 54.93 18.848 55.1 18.756 55.193 18.746 55.241 18.907 55.644 18.848 55.958 18.948 56.221 19.013 56.341 19.065 56.547 19.009 56.65 18.901 56.803 18.88 56.997 18.949 57.179 18.944 57.414 19.008 57.543 19.161 57.744 19.042 58.23 18.976 58.371 18.871 58.478 18.855 58.581 18.889 58.747 18.448 59.054 18.342 59.091 18.282 59.086 18.207 59.043 18.234 59.351 18.206 59.482 18.127 59.634 18.101 59.85 18.129 59.905 18.206 59.919 18.242 59.956 18.244 60.244 18.31 60.429 18.31 60.485 18.293 60.601 18.171 60.782 18.172 60.814 18.22 60.888 18.162 60.958 18.097 60.883 17.951 60.737 17.944 60.684 17.98 60.605 17.788 60.523 17.775 60.41 17.743 60.411 17.642 60.495 17.605 60.508 17.565 60.485 17.537 60.412 17.402 60.525 17.328 60.56 17.273 60.515 17.128 60.504 16.979 60.387 16.821 60.435 16.722 60.381 16.577 60.437 16.467 60.508 16.324 60.52 16.17 60.668 16.003 60.861 15.872 60.855 15.79 60.8 15.774 60.756 15.794 60.691 15.898 60.524 15.912 60.477 15.912 60.408 15.872 60.228 15.888 60.162 15.973 59.979 15.954 59.878 15.962 59.806 16.107 59.578 16.134 59.433 16.173 59.339 16.267 59.255 16.367 59.224 16.412 59.17 16.367 59.096 16.354 59.013 16.383 58.915 16.467 58.758 16.446 58.68 16.371 58.548 16.302 58.475 16.179 58.423 16.075 58.457 15.923 58.612 15.696 58.735 15.628 58.73 15.574 58.664 15.503 58.651 15.44 58.485 15.429 58.296 15.56 58.188 15.594 58.066 15.536 58.034 15.676 57.87 15.585 57.793 15.549 57.68 15.44 57.638 15.25 57.676 15.075 57.796 14.753 57.887 14.643 57.82 14.535 57.825 14.356 57.654 14.401 57.572 14.415 57.513 14.352 57.347 14.312 57.303 14.322 57.156 14.307 57.134 14.058 57.104 13.973 57.141 13.905 57.106 13.789 57.096 13.693 57.143 13.609 57.216 13.568 57.227 13.543 57.21 13.54 57.027 13.564 56.929 13.563 56.869 13.494 56.654 13.57 56.429 13.543 56.304 13.474 56.249 13.464 56.193 13.505 56.091 13.586 56.018 13.604 55.952 13.535 55.837 13.42 55.821 13.366 55.772 13.068 55.775 12.964 55.815 13.001 55.578 12.968 55.417 12.983 55.047 12.995 54.975 13.055 54.826 13.065 54.706 13.118 54.572 13.1 54.554 13.043 54.557 12.985 54.493 12.804 54.464 12.781 54.441 12.784 54.397 12.877 54.286 12.868 54.118 12.836 54.058 12.825 53.831 12.83 53.765 12.897 53.619 12.916 53.529 12.861 53.374 12.85 53.158 12.781 52.939 12.774 52.767 12.977 52.462 13.083 52.261 13.286 51.98 13.401 51.749 13.533 51.561"/>
      <polygon points="4.672 60.284 4.79 60.664 4.757 60.687 4.618 60.696 4.442 60.724 4.38 60.737 4.31 60.779 4.242 60.799 3.678 60.945 3.587 60.958 3.603 60.938 3.719 60.873 3.837 60.787 3.835 60.771 3.799 60.768 3.848 60.611 3.735 60.483 3.791 60.446 3.791 60.419 3.742 60.345 3.68 60.334 3.7 60.276 3.395 60.182 3.376 60.147 3.466 60.049 3.511 59.91 3.437 59.732 3.364 59.664 3.314 59.642 3.194 59.628 3.197 59.617 3.264 59.592 3.392 59.567 3.469 59.529 3.59 59.507 3.809 59.514 4.019 59.463 4.161 59.458 4.26 59.441 4.323 59.424 4.45 59.369 4.565 59.354 4.617 59.362 4.629 59.613 4.599 59.852 4.614 59.9 4.603 59.977 4.666 60.189"/>
      <polygon points="6.94 64.76 6.819 64.782 6.713 64.843 6.563 64.969 6.42 64.666 6.387 64.482 6.395 64.394 6.462 64.257 6.587 64.24 6.775 64.181 7.119 64.167 7.185 64.273 6.966 64.735"/>
      <polygon points="7.149 64.406 7.098 64.428 7.044 64.492 7.088 64.672 6.961 64.74 6.81 64.871 6.716 64.924 6.481 64.94 6.411 64.969 6.387 64.955 6.437 64.764 6.421 64.662 6.469 64.52 6.587 64.303 6.715 64.167 7.185 64.311"/>
      <polygon points="13.809 71.098 13.887 71.085 14.061 71.106 14.18 71.084 14.373 71.008 14.668 70.812 14.786 70.754 14.982 70.715 15.061 70.719 15.124 70.745 15.179 70.742 15.513 70.675 15.833 70.642 15.968 70.583 15.957 70.639 15.729 70.789 15.717 70.853 15.605 70.968 15.53 71.299 15.499 71.352 15.5 71.512 15.474 71.551 15.403 71.612 15.397 71.641 15.414 71.685 15.603 71.665 15.669 71.685 15.679 71.711 15.674 71.803 15.591 71.869 15.449 71.948 15.359 71.997 15.198 72.039 15.017 72.032 14.849 72.089 14.708 72.071 14.575 72.1 14.512 72.085 14.201 72.128 13.938 72.107 13.838 72.132 13.777 72.173 13.731 72.188 13.657 72.114 13.552 72.059 13.407 72.056 13.333 72.036 13.293 71.957 13.229 71.905 13.011 71.89 12.935 71.903 12.805 71.949 12.774 71.934 12.912 71.838 12.96 71.763 13.079 71.649 13.089 71.61 13.184 71.588 13.235 71.49 13.307 71.425 13.489 71.369 13.509 71.348 13.69 71.276"/>
      <polygon points="12.292 67.677 12.326 67.691 12.412 67.657 12.44 67.684 12.472 67.772 12.519 67.79 12.707 67.707 12.763 67.695 12.801 67.74 12.811 67.821 12.85 67.905 12.89 67.923 12.954 67.882 13.023 67.76 13.104 67.71 13.149 67.638 13.18 67.628 13.249 67.583 13.346 67.638 13.373 67.638 13.954 67.516 14.453 67.375 14.476 67.377 14.782 67.612 14.82 67.665 14.864 67.66 15.746 67.813 15.864 67.774 15.892 67.78 15.968 68.004 15.895 68.273 15.639 69.137 15.651 69.192 15.701 69.255 15.69 69.297 15.607 69.382 15.601 69.437 15.558 69.531 15.554 69.645 15.581 69.749 15.543 69.859 15.57 69.956 15.559 70.005 15.48 70.106 15.455 70.156 15.449 70.29 15.317 70.368 15.017 70.41 14.702 70.496 14.65 70.5 14.591 70.466 14.517 70.462 14.332 70.512 14.222 70.586 13.944 70.838 13.763 70.936 13.651 70.963 13.487 70.937 13.413 70.953 13.301 71.183 13.131 71.274 13.112 71.301 12.94 71.374 12.873 71.456 12.825 71.583 12.734 71.611 12.726 71.661 12.614 71.807 12.569 71.904 12.439 72.027 12.426 71.996 12.441 71.959 12.423 71.917 12.347 71.941 12.308 71.933 12.282 71.895 12.236 71.896 12.19 71.918 12.076 72.017 12.005 72.038 11.928 72.082 11.893 72.12 11.888 72.174 11.867 72.188 11.838 72.163 11.876 72.102 11.886 72.019 11.818 71.799 11.696 71.7 11.651 71.712 11.617 71.743 11.557 71.766 11.551 71.722 11.599 71.642 11.578 71.495 11.503 71.455 11.384 71.455 11.327 71.487 11.26 71.563 11.189 71.592 11.177 71.578 11.183 71.543 11.281 71.46 11.279 71.348 11.331 71.271 11.347 71.247 11.333 71.183 11.38 71.1 11.399 71.033 11.416 70.87 11.351 70.159 11.936 69.882 12.023 69.734 12.195 69.24 12.276 69.064 12.287 68.986 12.415 68.841 12.424 68.75 12.312 68.562 12.322 68.494 12.377 68.366 12.38 68.314 12.321 68.224 12.3 68.129 12.302 68.007 12.243 67.939 12.23 67.842 12.184 67.846 12.178 67.803 12.199 67.765 12.263 67.693"/>
      <polygon points="7.082 68.781 7.102 68.792 7.097 68.949 7.13 68.958 7.261 68.929 7.291 68.946 7.283 68.994 7.229 69.071 7.211 69.132 7.231 69.197 7.259 69.209 7.336 69.179 7.366 69.123 7.382 69.028 7.434 68.969 7.548 68.9 7.576 68.898 7.593 68.905 7.586 68.964 7.6 68.985 7.749 68.854 7.743 68.929 7.764 69.047 7.801 69.031 7.923 68.83 7.936 68.903 7.992 68.929 7.968 68.947 7.898 68.954 7.868 68.977 7.842 69.136 7.864 69.162 7.949 69.035 8.01 69.06 8.056 68.975 8.111 68.959 8.178 68.819 8.225 68.858 8.189 68.943 8.223 68.95 8.272 68.93 8.285 68.866 8.327 68.923 8.401 68.973 8.521 68.878 8.56 68.865 8.628 68.881 8.783 68.739 8.792 68.823 8.796 68.983 8.843 68.982 8.958 68.938 9.058 68.846 9.134 68.811 9.183 68.731 9.291 68.646 9.335 68.588 9.34 68.454 9.228 68.209 9.28 68.115 9.289 68.072 9.341 68.041 9.398 67.976 9.485 67.946 9.542 67.966 9.562 68.071 9.607 68.039 9.753 68.062 9.854 68.053 9.88 68.063 9.913 68.151 10.019 68.141 10.077 68.134 10.266 68.218 10.338 68.206 10.413 68.152 10.472 68.014 10.535 67.969 10.59 67.906 10.612 67.843 10.591 67.796 10.63 67.699 10.665 67.65 10.704 67.649 10.742 67.577 10.753 67.51 10.719 67.482 10.737 67.437 10.872 67.375 11.048 67.517 11.202 67.533 11.307 67.5 11.453 67.413 11.525 67.413 11.681 67.494 11.741 67.561 11.767 67.68 11.793 67.711 11.894 67.746 11.91 67.776 11.915 67.847 11.879 67.95 11.883 68.07 11.858 68.107 11.747 68.208 11.618 68.509 11.729 68.67 11.779 68.854 11.757 68.927 11.661 69.053 11.619 69.221 11.715 69.237 11.733 69.279 11.938 69.473 12.22 69.49 12.377 69.407 12.489 69.407 12.556 69.412 12.57 69.524 12.635 69.601 12.634 69.739 12.658 69.844 12.724 69.947 12.721 70.006 12.659 70.151 12.648 70.228 12.774 70.441 12.771 70.532 12.626 70.698 12.606 70.795 12.516 70.994 12.321 71.551 12.234 71.703 11.568 72.024 11.635 72.835 11.615 73.02 11.593 73.097 11.541 73.191 11.563 73.254 11.545 73.281 11.48 73.376 11.489 73.492 11.378 73.588 11.364 73.637 11.272 73.712 11.234 73.699 11.207 73.66 11.137 73.656 10.903 73.701 10.799 73.741 10.627 73.718 10.413 73.776 10.184 73.776 10.104 73.792 9.987 73.735 9.802 73.471 9.705 73.443 9.673 73.408 9.728 73.316 9.738 73.214 9.712 73.179 9.73 73.105 9.777 73.063 9.785 72.976 9.893 72.908 9.899 72.834 9.943 72.766 9.929 72.721 9.845 72.744 9.802 72.721 9.777 72.755 9.814 72.79 9.788 72.842 9.788 72.907 9.764 72.915 9.76 72.87 9.715 72.852 9.766 72.726 9.807 72.701 9.822 72.67 9.781 72.607 9.691 72.648 9.679 72.623 9.741 72.558 9.78 72.487 9.853 72.418 9.862 72.373 9.776 72.348 9.715 72.381 9.687 72.426 9.663 72.534 9.573 72.671 9.562 72.793 9.539 72.857 9.494 72.895 9.421 72.861 9.419 72.81 9.449 72.736 9.474 72.609 9.539 72.499 9.597 72.431 9.62 72.374 9.589 72.315 9.455 72.389 9.409 72.341 9.435 72.06 9.407 72 9.309 71.928 9.201 71.889 9.164 71.832 9.118 71.377 9.063 71.169 9.003 71.096 8.899 71.014 8.773 70.977 8.574 70.946 8.482 70.955 8.419 70.818 8.239 70.629 8.124 70.573 7.977 70.421 7.898 70.236 7.768 70.004 7.638 69.881 7.54 69.827 7.373 69.779 7.096 69.835 6.977 69.619 6.865 69.545 6.661 69.514 6.585 69.533 6.451 69.598 6.412 69.577 6.387 69.481 6.424 69.41 6.453 69.242 6.488 69.189 6.898 68.938"/>
      <polygon points="22.314 67.74 22.355 67.759 22.29 67.896 22.217 67.903 22.168 67.965 22.087 67.989 21.485 67.988 21.347 67.888 21.154 67.954 20.818 67.937 20.721 67.99 20.385 68.239 19.68 68.891 19.639 68.912 18.653 68.979 17.683 68.328 17.177 68.435 17.082 68.183 16.915 68.22 15.908 68.046 15.859 68.053 15.815 67.992 15.466 67.725 14.87 67.883 14.207 68.021 14.065 67.959 13.987 68.01 13.892 68.106 13.799 68.163 13.72 68.301 13.661 68.341 13.61 68.324 13.566 68.229 13.555 68.137 13.511 68.086 13.448 68.1 13.239 68.191 13.18 68.173 13.142 68.073 13.111 68.043 13.02 68.079 12.974 68.065 12.931 68.087 12.86 68.167 12.83 68.255 12.716 68.254 12.558 68.339 12.273 68.322 12.067 68.126 12.048 68.084 11.951 68.068 11.993 67.904 12.088 67.779 12.109 67.711 12.062 67.515 11.951 67.355 12.079 67.056 12.192 66.957 12.214 66.795 12.249 66.695 12.245 66.619 12.229 66.589 12.127 66.554 12.101 66.522 12.075 66.403 12.014 66.336 11.856 66.255 11.783 66.255 11.636 66.342 11.531 66.375 11.375 66.359 11.198 66.217 11.151 66.136 11.009 66.148 11.022 65.955 11.078 65.854 11.078 65.809 11.038 65.676 10.928 65.637 10.922 65.472 10.903 65.424 10.924 65.328 10.917 65.126 10.901 65.092 10.828 65.065 10.808 65.028 10.832 64.914 10.948 64.689 10.945 64.612 10.88 64.558 10.673 64.517 10.575 64.571 10.539 64.563 10.478 64.379 10.536 64.156 10.536 64.112 10.322 64.197 10.28 64.2 10.251 64.172 10.23 64.089 10.288 63.988 10.2 63.914 10.217 63.784 10.214 63.658 10.117 63.615 10.097 63.585 10.173 63.361 10.158 63.328 10.1 63.318 9.987 63.354 9.912 63.338 9.723 63.476 9.683 63.385 9.66 63.346 9.611 63.344 9.581 63.259 9.657 63.172 9.697 63.09 9.735 62.921 9.81 62.853 9.851 62.779 9.844 62.728 9.74 62.735 9.705 62.706 9.673 62.456 9.684 62.389 9.729 62.314 9.778 62.253 9.852 62.214 9.982 62.121 10.169 62.174 10.295 62.183 10.354 62.127 10.426 61.978 10.475 61.916 10.606 61.833 10.673 61.816 10.82 61.918 10.92 61.893 10.981 61.942 11.023 61.942 11.09 61.864 11.22 61.859 11.308 61.772 11.366 61.739 11.429 61.662 11.484 61.506 11.577 61.408 11.716 61.297 11.769 61.175 11.896 61.154 11.97 61.043 12.028 60.818 12.009 60.707 12.046 60.542 12.014 60.454 12.013 60.388 12.034 60.309 12.08 60.241 12.216 60.17 12.27 60.175 12.294 60.217 12.268 60.316 12.312 60.343 12.367 60.312 12.448 60.465 12.612 60.431 12.674 60.447 12.7 60.564 12.691 60.678 12.709 60.711 12.765 60.726 12.866 60.453 12.963 60.305 13.015 60.054 12.992 59.867 13.027 59.792 13.072 59.736 13.151 59.785 13.206 59.774 13.234 59.679 13.271 59.639 13.288 59.696 13.337 59.739 13.373 59.742 13.453 59.661 13.535 59.68 13.597 59.602 13.794 59.406 13.863 59.348 13.974 59.376 13.993 59.51 14.161 59.543 14.21 59.598 14.241 59.7 14.333 59.705 14.456 59.767 14.519 59.75 14.561 59.722 14.593 59.576 14.857 59.424 14.95 59.444 15.055 59.433 15.13 59.38 15.324 59.051 15.301 58.935 15.503 58.756 15.723 58.653 15.796 58.635 15.852 58.648 15.96 58.72 15.996 58.729 16.052 58.743 16.13 58.71 16.205 58.605 16.313 58.402 16.373 58.369 16.439 58.388 16.577 58.334 16.636 58.281 16.577 58.001 16.586 57.937 16.63 57.858 16.682 57.814 16.849 57.819 16.9 57.792 17.073 57.955 17.177 57.95 17.284 58.011 17.594 57.928 17.764 57.82 17.948 57.75 18.052 57.823 18.087 57.926 18.17 57.992 18.04 58.115 18.094 58.172 18.062 58.277 17.936 58.375 17.947 58.552 18.008 58.703 18.076 58.714 18.128 58.774 18.194 58.778 18.413 58.667 18.56 58.526 18.66 58.496 18.779 58.543 18.847 58.609 18.919 58.729 18.938 58.795 18.857 58.935 18.829 59.024 18.842 59.105 18.882 59.143 18.842 59.214 18.746 59.243 18.654 59.318 18.617 59.403 18.59 59.536 18.451 59.742 18.443 59.807 18.461 59.901 18.379 60.064 18.364 60.125 18.402 60.293 18.402 60.348 18.289 60.542 18.269 60.601 18.284 60.648 18.364 60.698 18.49 60.704 18.652 60.529 18.8 60.395 18.939 60.384 19.045 60.32 19.185 60.269 19.281 60.318 19.433 60.274 19.577 60.38 19.717 60.39 19.77 60.431 19.842 60.399 19.95 60.303 19.999 60.363 20.038 60.384 20.171 60.296 20.215 60.398 20.397 60.471 20.365 60.537 20.372 60.591 20.513 60.723 20.55 60.8 20.635 60.731 20.585 60.661 20.702 60.468 20.719 60.363 20.719 60.312 20.655 60.138 20.653 59.878 20.618 59.844 20.544 59.832 20.517 59.788 20.542 59.593 20.618 59.455 20.647 59.341 20.6 59.077 20.691 59.096 20.75 59.101 20.853 59.067 21.279 58.796 21.231 58.869 21.168 58.884 21.12 58.93 21.088 59.006 21.082 59.157 20.956 59.323 20.946 59.394 20.959 59.504 21.022 59.726 21.166 59.961 21.256 60.035 21.218 60.093 21.08 60.095 21.041 60.128 20.967 60.244 20.855 60.496 20.843 60.701 20.914 61.01 20.882 61.055 20.894 61.108 20.8 61.132 20.712 61.19 20.638 61.433 20.624 61.615 20.699 61.8 20.869 62.009 21.242 62.297 21.344 62.351 21.42 62.363 21.464 62.495 21.468 62.536 21.444 62.593 21.346 62.728 21.285 62.858 21.204 63.162 21.172 63.459 21.186 63.651 21.264 63.962 21.304 64.229 21.285 64.468 21.314 64.683 21.306 64.812 21.269 64.871 21.25 65.01 21.231 65.321 21.241 65.491 21.206 65.682 21.236 65.875 21.285 66.024 21.362 66.147 21.765 66.459 22.277 66.668 22.327 66.726 22.316 66.782 22.186 66.819 22.129 66.863 22.098 66.919 22.106 67.006 22.137 67.033 22.195 67.007 22.223 66.901 22.227 66.977 22.262 66.992 22.244 67.06 22.273 67.102 22.228 67.198 22.268 67.214 22.19 67.266 22.152 67.328 22.159 67.375 22.233 67.309 22.249 67.362 22.126 67.456 22.107 67.599 22.249 67.529 22.266 67.616 22.314 67.666"/>
      <polygon points="11.177 57.394 11.136 57.641 11.166 57.698 11.102 57.865 11.047 57.91 11.001 57.98 10.999 58.035 11.026 58.153 11.016 58.2 10.795 58.614 10.739 58.695 10.637 58.762 10.407 58.861 10.215 58.97 9.967 58.89 9.936 58.865 9.941 58.92 9.977 58.968 9.977 59.024 9.92 59.156 9.892 59.222 9.794 59.307 9.756 59.373 9.693 59.442 9.639 59.476 9.421 59.534 9.322 59.463 9.251 59.479 9.227 59.523 9.202 59.682 9.136 59.777 9.115 59.83 9.093 59.995 9.022 60.07 8.965 60.175 8.888 60.219 8.863 60.294 8.886 60.381 8.811 60.548 8.825 60.647 8.746 60.807 8.716 60.904 8.717 60.981 8.698 61.057 8.709 61.137 8.683 61.295 8.696 61.399 8.604 61.56 8.57 61.781 8.517 61.891 8.532 61.926 8.527 61.965 8.42 62.15 8.424 62.208 8.528 62.255 8.525 62.376 8.551 62.522 8.532 62.61 8.482 62.694 8.471 62.742 8.52 62.765 8.363 62.905 8.319 62.983 8.311 63.052 8.346 63.154 8.266 63.455 8.182 63.541 8.208 63.765 8.195 63.813 8.107 63.888 8.011 63.922 7.972 64.012 7.973 64.087 7.996 64.131 8.042 64.169 8.138 64.313 8.208 64.369 8.143 64.409 8.095 64.478 8.056 64.554 8.046 64.622 8.074 64.876 8.105 64.905 8.196 64.899 8.202 64.95 8.172 65.02 8.101 65.093 8.067 65.266 8.032 65.35 7.965 65.437 7.947 65.515 7.991 65.524 8.035 65.526 8.054 65.565 8.064 65.648 8.09 65.658 8.256 65.518 8.322 65.534 8.421 65.498 8.473 65.508 8.486 65.541 8.419 65.769 8.436 65.799 8.51 65.815 8.521 65.843 8.524 65.971 8.501 66.07 8.509 66.103 8.587 66.178 8.536 66.28 8.555 66.365 8.58 66.393 8.617 66.391 8.805 66.304 8.805 66.349 8.753 66.575 8.807 66.762 8.839 66.77 8.925 66.716 9.107 66.756 9.165 66.812 9.167 66.89 9.065 67.119 9.044 67.234 9.061 67.272 9.126 67.299 9.14 67.334 9.146 67.539 9.128 67.636 9.144 67.685 9.149 67.852 9.246 67.892 9.281 68.028 9.281 68.073 9.232 68.176 9.22 68.372 9.345 68.36 9.39 68.44 9.266 68.505 9.25 68.55 9.281 68.579 9.271 68.647 9.238 68.719 9.207 68.72 9.171 68.772 9.137 68.871 9.155 68.918 9.136 68.982 9.087 69.046 9.031 69.093 8.978 69.233 8.914 69.287 8.853 69.298 8.685 69.215 8.629 69.221 8.54 69.231 8.51 69.141 8.487 69.131 8.398 69.14 8.268 69.117 8.227 69.147 8.211 69.042 8.16 69.021 8.078 69.054 8.027 69.119 7.982 69.151 7.973 69.196 7.928 69.291 8.026 69.541 8.022 69.678 7.983 69.736 7.888 69.823 7.844 69.904 7.777 69.94 7.688 70.034 7.59 70.076 7.55 70.078 7.546 69.915 7.559 69.824 7.395 69.975 7.336 69.959 7.301 69.972 7.194 70.069 7.129 70.018 7.104 69.947 7.079 70.026 7.036 70.046 7.006 70.038 7.038 69.952 6.997 69.911 6.936 70.055 6.888 70.07 6.862 70.146 6.795 70.131 6.718 70.261 6.722 70.073 6.809 70.043 6.781 69.997 6.781 69.93 6.661 70.128 6.629 70.145 6.611 70.024 6.616 69.948 6.483 70.081 6.479 69.999 6.335 70.066 6.289 70.125 6.274 70.222 6.249 70.278 6.181 70.309 6.156 70.298 6.138 70.23 6.155 70.169 6.202 70.09 6.21 70.041 6.182 70.024 6.067 70.054 6.038 70.044 6.043 69.884 5.86 70.034 5.496 70.289 5.464 70.343 5.439 70.515 5.408 70.583 5.451 70.334 5.455 70.253 5.375 70.288 5.303 70.354 5.241 70.439 5.135 70.475 4.942 70.44 4.896 70.286 4.873 70.042 4.891 69.824 4.911 69.76 4.939 69.721 5.005 69.679 5.165 69.515 5.198 69.341 5.171 69.128 5.107 69.057 5.035 69.046 4.9 68.923 4.843 68.902 4.687 68.929 4.561 69.003 4.509 69.112 4.457 69.097 4.439 69.023 4.392 68.991 4.393 68.946 4.428 68.896 4.425 68.839 4.358 68.812 4.335 68.729 4.41 68.698 4.496 68.691 4.574 68.619 4.621 68.555 4.664 68.478 4.7 68.384 4.685 68.315 4.722 68.173 4.714 68.082 4.668 68.088 4.679 68.133 4.644 68.312 4.639 68.44 4.56 68.569 4.411 68.633 4.334 68.649 4.312 68.464 4.258 68.392 4.173 68.444 4.179 68.376 4.216 68.291 4.303 67.999 4.313 67.778 4.289 67.767 4.334 67.662 4.356 67.692 4.406 67.651 4.436 67.556 4.465 67.359 4.461 67.134 4.48 67.036 4.604 66.852 4.662 66.669 4.636 66.57 4.678 66.51 4.685 66.448 4.483 66.337 4.657 66.038 4.724 65.742 4.687 65.673 4.582 65.651 4.443 65.683 4.435 65.597 4.479 65.543 4.507 65.47 4.484 65.397 4.512 65.273 4.488 65.25 4.385 65.275 4.304 65.327 4.25 65.255 4.169 65.325 4.117 65.324 4.108 65.257 4.059 65.185 4.163 65.152 4.232 65.088 4.257 65.045 4.245 64.962 4.249 64.901 4.211 64.907 4.137 65.003 4.096 64.949 4.051 64.976 4.022 65.024 4.049 65.085 3.995 65.09 4.004 65.177 3.95 65.162 3.916 65.15 3.742 65.185 3.627 65.323 3.54 65.283 3.498 65.203 3.485 64.971 3.422 65.019 3.357 64.915 3.334 64.809 3.303 64.777 3.295 64.727 3.252 64.645 3.194 64.596 3.196 64.558 3.219 64.495 3.308 64.379 3.334 64.263 3.398 64.237 3.766 63.98 3.81 63.944 3.856 63.87 3.893 63.847 3.851 63.946 3.874 63.993 3.925 63.941 3.962 63.958 3.932 64.048 3.947 64.087 4.035 64.077 4.1 64.013 4.154 64.036 4.244 63.91 4.311 63.729 4.418 63.652 4.522 63.359 4.569 63.324 4.614 63.246 4.678 63.208 4.736 63.06 4.709 63.026 4.796 62.823 4.808 62.743 4.859 62.717 4.928 62.632 4.987 62.581 5.032 62.502 5.028 62.366 5.061 62.294 5.07 62.231 5.204 62.117 5.267 62.098 5.349 62.018 5.406 61.992 5.519 61.792 5.579 61.72 5.629 61.43 5.616 61.345 5.674 61.194 5.678 61.025 5.71 60.89 5.738 60.817 5.775 60.763 5.859 60.738 5.932 60.656 6.043 60.313 6.043 60.275 6.02 60.24 6.013 60.113 5.959 60.07 5.955 59.996 6.033 59.859 6.062 59.717 6.11 59.701 6.16 59.651 6.175 59.571 6.172 59.468 6.22 59.284 6.214 59.246 6.192 59.222 6.127 59.217 6.073 59.172 6.064 59.029 6.194 58.948 6.234 58.919 6.259 58.826 6.382 58.831 6.451 58.934 6.583 58.861 6.618 58.875 6.836 59.087 6.906 59.191 6.95 59.273 6.961 59.385 7.074 59.229 7.153 59.077 7.258 58.988 7.308 58.92 7.432 58.676 7.558 58.472 7.57 58.366 7.521 58.227 7.586 57.989 7.673 57.82 7.709 57.776 7.842 57.776 7.985 57.626 8.101 57.468 8.223 57.177 8.305 57.107 8.597 56.959 8.665 56.897 8.935 56.509 9.059 56.41 9.143 56.298 9.344 56.38 9.406 56.455 9.535 56.422 9.546 56.458 9.543 56.74 9.582 56.801 9.685 56.851 9.73 56.945 9.76 56.931 9.787 56.885 9.803 56.788 9.84 56.737 9.896 56.689 9.953 56.607 10.001 56.567 10.04 56.564 10.124 56.693 10.214 56.741 10.278 56.755 10.319 56.726 10.314 56.58 10.354 56.424 10.436 56.361 10.532 56.208 10.591 56.146 10.649 56.207 10.672 56.338 10.695 56.368 10.821 56.384 10.838 56.446 10.904 56.429 10.946 56.497 10.98 56.474 11.019 56.416 11.055 56.417 11.043 56.476 10.998 56.553 10.998 56.592 11.017 56.646 11.085 56.705 11.09 56.744 11.06 56.805 11.043 56.924 10.967 56.996 10.939 57.101 11.023 57.106 11.056 57.145 11.059 57.212 11.023 57.424 11.101 57.406"/>
      <polygon points="19.47 65.807 19.465 65.869 19.407 65.923 19.205 65.961 19.046 65.959 19.009 65.973 18.963 66.012 18.882 66.036 18.849 66.027 18.839 66.08 18.8 66.101 18.715 66.116 18.662 66.158 18.632 66.211 18.64 66.293 18.664 66.313 18.719 66.289 18.75 66.195 18.753 66.262 18.77 66.307 18.77 66.346 18.798 66.387 18.768 66.421 18.756 66.474 18.793 66.493 18.718 66.544 18.682 66.603 18.705 66.638 18.761 66.584 18.775 66.636 18.742 66.646 18.658 66.725 18.641 66.857 18.67 66.865 18.794 66.798 18.791 66.877 18.836 66.926 18.836 66.992 18.876 67.015 18.813 67.146 18.784 67.165 18.744 67.153 18.698 67.211 18.622 67.235 18.051 67.234 17.921 67.138 17.739 67.202 17.42 67.184 17.33 67.235 17.011 67.474 16.344 68.098 16.305 68.118 15.372 68.182 14.455 67.559 13.969 67.661 13.884 67.947 13.608 68.885 13.621 68.944 13.673 69.021 13.66 69.067 13.573 69.156 13.564 69.218 13.52 69.316 13.516 69.436 13.543 69.558 13.504 69.668 13.533 69.772 13.519 69.836 13.432 69.944 13.408 69.995 13.403 70.145 13.388 70.225 13.157 70.435 13.144 70.524 13.03 70.684 12.954 71.145 12.923 71.219 12.923 71.441 12.898 71.496 12.825 71.581 12.819 71.621 12.836 71.682 13.032 71.653 13.095 71.682 13.106 71.718 13.1 71.847 13.016 71.939 12.871 72.048 12.774 72.12 12.87 72.113 13.078 72.153 13.138 72.196 13.175 72.337 13.532 72.503 13.743 72.649 13.928 72.813 14.051 72.827 14.152 72.7 14.359 72.591 14.502 72.542 14.652 72.514 15.011 72.556 15.008 72.605 14.961 72.678 15.25 72.809 15.471 72.685 15.58 72.652 15.699 72.642 15.875 72.639 16.172 72.709 16.315 72.761 16.464 72.77 16.668 72.769 17.245 72.704 17.383 72.735 17.452 72.765 17.523 72.841 17.676 73.13 17.778 73.423 17.915 73.678 17.978 73.678 18.26 73.792 18.249 73.727 18.268 73.579 18.324 73.474 18.434 73.337 18.372 73.25 18.353 73.013 18.377 72.975 18.403 72.976 18.392 73.091 18.441 73.229 18.627 73.186 18.746 73.117 18.911 72.888 18.957 72.786 18.978 72.677 19.139 72.41 19.32 72.188 19.297 72.125 19.337 72.095 19.376 72.145 19.424 72.164 19.551 72.132 19.589 72.1 19.733 71.872 19.846 71.809 20.125 71.764 20.146 71.818 20.202 71.852 20.281 71.852 20.411 71.781 20.603 71.735 20.748 71.63 20.844 71.493 20.864 71.383 20.832 71.163 20.887 71.07 20.893 71.033 20.805 70.876 20.653 70.839 20.62 70.747 20.632 70.676 20.519 70.617 20.449 70.604 20.513 70.554 20.663 70.542 20.71 70.681 20.765 70.72 20.916 70.776 20.967 70.836 20.986 70.872 20.963 70.981 21.047 71.137 21.05 71.096 21.086 71.008 21.178 70.906 21.242 70.904 21.291 70.88 21.414 70.74 21.521 70.592 21.503 70.67 21.317 70.897 21.176 70.969 21.098 71.075 21.134 71.133 21.028 71.332 21.308 71.396 21.373 71.456 21.466 71.366 21.355 71.564 21.296 71.647 21.28 71.704 21.369 71.673 21.493 71.662 21.532 71.713 21.636 71.631 21.676 71.639 21.747 71.568 21.809 71.547 21.884 71.545 21.953 71.448 21.994 71.429 22.095 71.278 22.129 71.262 22.165 71.298 22.262 71.218 22.301 71.164 22.253 70.995 22.27 70.851 22.354 70.761 22.355 70.725 22.275 70.634 22.242 70.549 22.246 70.482 22.305 70.419 22.294 70.357 22.192 70.279 22.14 70.215 22.152 70.091 22.137 70.023 22.194 69.94 22.092 69.87 22.085 69.832 22.115 69.779 22.108 69.753 22.023 69.711 21.934 69.618 21.929 69.58 21.963 69.515 21.857 69.428 21.852 69.341 21.791 69.217 21.686 69.135 21.633 69.07 21.651 68.958 21.593 68.939 21.593 68.989 21.543 69.028 21.498 69.037 21.419 68.994 21.376 68.945 21.353 68.882 21.352 68.78 21.385 68.616 21.422 68.609 21.436 68.648 21.48 68.654 21.483 68.616 21.445 68.579 21.401 68.436 21.038 68.095 20.891 67.839 20.585 67.578 20.565 67.529 20.579 67.386 20.641 67.314 20.698 67.304 20.691 67.26 20.614 67.219 20.544 67.137 20.535 67.109 20.588 67.036 20.486 66.963 20.454 66.918 20.327 66.951 20.091 66.771 20.025 66.683 19.95 66.691 19.832 66.461 19.849 66.414 19.98 66.296 19.902 66.254 19.858 66.182 19.82 66.025 19.864 65.95 19.83 65.946 19.804 65.997 19.773 66.001 19.535 65.941 19.52 65.909 19.556 65.808 19.512 65.771"/>
      <polygon points="2.237 59.508 2.318 59.533 2.395 59.499 2.389 59.559 2.259 59.831 2.251 60.03 2.103 60.63 2.108 60.686 2.093 60.715 2.064 60.731 2.029 60.661 1.994 60.648 1.945 60.678 1.844 60.698 1.791 60.761 1.666 60.854 1.646 60.904 1.645 60.958 1.61 60.897 1.638 60.783 1.63 60.729 1.663 60.679 1.696 60.657 1.684 60.572 1.691 60.466 1.647 60.319 1.636 60.193 1.635 59.958 1.619 59.895 1.637 59.805 1.626 59.749 1.597 59.737 1.597 59.717 1.618 59.679 1.652 59.696 1.765 59.69 1.89 59.574 1.972 59.411 2.061 59.377 2.11 59.411 2.144 59.377 2.22 59.354 2.237 59.406"/>
      <polygon points="2.118 54.733 2.18 54.724 2.311 54.827 2.426 54.743 2.426 54.689 2.455 54.649 2.48 54.669 2.477 54.745 2.552 54.724 2.549 54.689 2.588 54.601 2.699 54.542 2.703 54.679 2.752 54.73 2.891 54.737 2.878 54.877 2.898 55.018 2.822 55.111 2.819 55.151 3.081 55.234 3.117 55.371 3.194 55.39 3.17 55.861 3.155 55.905 3.041 56.101 2.758 56.439 2.614 56.742 2.463 56.954 2.398 57.086 2.147 57.472 2.093 57.593 2.06 57.75 1.997 57.729 1.897 57.596 1.674 57.105 1.614 57.064 1.597 57.019 1.609 56.922 1.747 56.636 1.729 56.61 1.73 56.548 1.824 56.381 1.783 55.982 1.803 55.822 1.811 55.806 1.842 55.821 1.952 55.783 1.981 55.734 1.88 55.555 1.862 55.452 1.91 55.315 1.957 55.253 1.94 55.175 1.951 55.095 1.909 55.089 1.897 55.032 1.952 54.972 2 54.84"/>
      <polygon points="6.326 52.901 6.293 52.983 6.284 53.034 6.316 53.106 6.296 53.376 6.366 53.442 6.27 53.746 6.234 53.904 6.238 53.945 6.227 54 6.192 53.989 6.128 54.062 6.059 54.113 6.023 54.179 6.035 54.242 5.969 54.479 5.969 54.654 5.979 54.733 5.936 54.861 5.895 54.949 5.893 55.009 5.904 55.063 5.906 55.091 5.889 55.194 5.863 55.223 5.793 55.257 5.77 55.318 5.776 55.478 5.814 55.528 5.859 55.534 5.875 55.56 5.879 55.603 5.845 55.808 5.847 55.923 5.837 56.011 5.808 56.057 5.77 56.083 5.748 56.243 5.7 56.36 5.694 56.397 5.696 56.479 5.734 56.527 5.739 56.669 5.755 56.707 5.755 56.75 5.678 57.133 5.627 57.224 5.569 57.252 5.543 57.311 5.523 57.394 5.501 57.544 5.498 57.732 5.457 57.9 5.467 57.995 5.432 58.318 5.39 58.398 5.312 58.622 5.271 58.651 5.215 58.74 5.171 58.761 5.078 58.889 5.071 58.958 5.048 59.039 5.051 59.191 5.02 59.278 4.978 59.336 4.945 59.408 4.931 59.43 4.903 59.44 4.886 59.551 4.825 59.777 4.844 59.814 4.821 59.94 4.804 59.978 4.76 60.021 4.728 60.107 4.696 60.145 4.64 60.438 4.623 60.473 4.549 60.557 4.501 60.762 4.459 60.88 4.439 60.901 4.402 60.875 4.356 60.947 4.295 60.958 4.284 60.914 4.308 60.839 4.305 60.814 4.279 60.796 4.244 60.853 4.229 60.8 4.258 60.692 4.34 60.636 4.403 60.618 4.418 60.572 4.364 59.824 4.362 59.636 4.333 59.218 4.338 59.065 4.331 58.971 4.345 58.501 4.34 58.006 4.315 57.989 4.262 58.018 4.204 58.126 4.176 58.16 4.131 58.192 4.067 58.204 3.972 58.304 3.872 58.289 3.817 58.334 3.782 58.406 3.724 58.458 3.703 58.463 3.695 58.44 3.702 58.194 3.691 57.961 3.743 57.738 3.729 57.623 3.77 57.406 3.789 57.153 3.782 56.819 3.74 56.134 3.715 55.925 3.646 55.568 3.596 55.465 3.523 55.416 3.501 55.376 3.461 55.06 3.401 54.877 3.299 54.722 3.194 54.695 3.199 54.662 3.218 54.506 3.246 54.386 3.377 54.001 3.411 53.869 3.491 53.658 3.566 53.356 3.714 53.019 3.774 52.823 3.782 52.78 3.796 52.311 3.841 52.306 3.989 52.24 4.089 52.071 4.128 52.103 4.198 52.008 4.216 52.014 4.246 52.118 4.326 52.131 4.398 52.078 4.408 52.032 4.442 51.97 4.484 52.009 4.599 51.978 4.696 51.972 4.785 51.93 4.856 51.846 4.941 51.657 4.956 51.572 5.023 51.334 5.06 51.333 5.058 51.439 5.069 51.544 5.091 51.591 5.192 51.524 5.288 51.5 5.331 51.551 5.339 51.601 5.324 51.756 5.327 52.02 5.355 52.055 5.394 51.955 5.414 51.955 5.421 52.213 5.379 52.34 5.373 52.405 5.437 52.631 5.46 52.633 5.483 52.588 5.505 52.474 5.522 52.435 5.61 52.459 5.661 52.37 5.73 52.315 5.754 52.257 5.835 51.98 5.857 51.946 5.892 51.947 5.927 52.01 5.972 52.046 5.998 52.041 6.249 51.758 6.307 51.761 6.291 51.866 6.363 52.069 6.338 52.155 6.3 52.229 6.192 52.388 6.174 52.478 6.134 52.62 6.251 52.592 6.383 52.642 6.387 52.672 6.38 52.705 6.344 52.781"/>
      <polygon points="1.517 56.593 1.528 56.617 1.597 56.653 1.578 56.785 1.516 56.825 1.402 56.935 1.406 56.977 1.391 57.002 1.309 57.081 1.311 57.109 1.287 57.127 1.238 57.14 1.216 57.111 1.242 57.071 1.205 57.02 1.161 57.02 1.018 57.114 .95 57.183 .949 57.229 .926 57.281 .769 57.5 .739 57.493 .685 57.516 .645 57.561 .65 57.601 .636 57.627 .557 57.731 .518 57.75 .505 57.737 .528 57.666 .516 57.606 .425 57.491 .477 57.37 .463 57.248 .415 57.188 .308 57.277 .247 57.283 .221 57.255 .091 57.361 .069 57.36 .035 57.328 .005 57.204 .023 57.132 0 56.956 .049 56.917 .151 56.935 .19 56.904 .216 56.84 .277 56.831 .374 56.756 .499 56.728 .533 56.704 .513 56.792 .529 56.808 .556 56.798 .576 56.719 .606 56.696 .793 56.631 .883 56.565 1.005 56.323 1.062 56.313 1.101 56.262 1.193 56.285 1.158 56.21 1.036 56.25 1.033 56.229 1.073 56.153 1.137 56.146 1.24 56.161 1.267 56.208 1.245 56.246 1.253 56.301 1.476 56.322 1.507 56.38 1.515 56.445 1.566 56.39 1.576 56.401 1.583 56.441 1.548 56.542"/>
      <polygon points=".769 56.35 .731 56.401 .798 56.383 .797 56.413 .74 56.533 .709 56.56 .682 56.498 .528 56.564 .495 56.6 .51 56.608 .532 56.644 .514 56.693 .439 56.832 .403 56.859 .403 56.936 .381 56.948 .317 56.908 .278 56.836 .252 56.848 .203 56.921 .159 56.922 .181 56.862 .114 56.83 .046 56.837 .037 56.777 0 56.766 .068 56.682 .166 56.602 .228 56.484 .248 56.391 .405 56.298 .476 56.237 .475 56.215 .544 56.158 .588 56.146 .598 56.248 .47 56.334 .459 56.394 .478 56.424 .494 56.43 .545 56.338 .638 56.271 .765 56.317"/>
      <polygon points="13.191 50.027 13.433 50.075 13.575 50.034 13.597 49.991 13.587 49.947 13.756 49.793 13.801 49.778 13.845 49.86 13.866 49.829 13.884 49.767 14.169 49.759 14.303 49.729 14.412 49.751 14.551 49.9 14.913 50.632 14.999 50.767 15.069 50.839 15.038 50.891 15.048 50.958 15.167 51 15.211 50.949 15.327 50.986 15.229 51.189 15.119 51.356 15.023 51.562 14.853 51.812 14.764 51.991 14.594 52.263 14.6 52.416 14.657 52.612 14.666 52.803 14.713 52.941 14.697 53.022 14.641 53.152 14.636 53.211 14.637 53.396 14.673 53.467 14.68 53.616 14.602 53.715 14.598 53.753 14.62 53.777 14.771 53.802 14.82 53.86 14.868 53.856 14.882 53.871 14.837 53.99 14.829 54.097 14.779 54.23 14.768 54.294 14.756 54.623 14.784 54.766 14.751 54.978 14.842 54.943 15.09 54.942 15.135 54.985 15.231 54.997 15.288 55.1 15.273 55.159 15.206 55.223 15.172 55.314 15.179 55.364 15.238 55.413 15.261 55.524 15.197 55.725 15.254 55.917 15.255 55.97 15.235 56.057 15.238 56.22 15.258 56.236 15.293 56.226 15.363 56.16 15.444 56.119 15.54 56.127 15.597 56.158 15.669 56.126 15.878 56.152 15.889 56.172 15.881 56.303 15.915 56.343 15.968 56.49 15.956 56.541 15.922 56.609 15.875 56.635 15.73 56.63 15.685 56.673 15.646 56.751 15.639 56.814 15.69 57.09 15.639 57.141 15.55 57.183 15.519 57.195 15.462 57.176 15.41 57.208 15.316 57.408 15.251 57.511 15.215 57.539 15.183 57.544 15.135 57.53 15.107 57.521 15.012 57.451 14.962 57.438 14.899 57.455 14.708 57.557 14.547 57.689 14.532 57.733 14.553 57.846 14.384 58.17 14.32 58.222 14.229 58.233 14.148 58.214 13.944 58.331 13.919 58.363 13.891 58.507 13.855 58.534 13.8 58.551 13.693 58.49 13.614 58.479 13.587 58.379 13.545 58.325 13.398 58.293 13.382 58.16 13.321 58.118 13.286 58.134 13.226 58.191 13.055 58.383 13.002 58.46 12.931 58.441 12.861 58.52 12.83 58.519 12.788 58.475 12.773 58.42 12.741 58.459 12.716 58.552 12.669 58.563 12.627 58.516 12.6 58.515 12.562 58.57 12.531 58.644 12.55 58.83 12.506 59.075 12.422 59.221 12.364 59.462 12.334 59.488 12.286 59.474 12.27 59.446 12.278 59.335 12.255 59.22 12.201 59.204 12.079 59.242 12.06 59.237 12.012 59.093 11.991 59.087 11.941 59.117 11.904 59.091 11.926 58.993 11.905 58.952 11.859 58.947 11.739 59.017 11.7 59.084 11.682 59.162 11.682 59.227 11.71 59.313 11.678 59.476 11.695 59.586 11.643 59.807 11.581 59.915 11.498 59.919 11.47 59.936 11.424 60.056 11.303 60.165 11.223 60.262 11.175 60.415 11.12 60.491 11.07 60.524 10.995 60.609 10.882 60.613 10.824 60.691 10.788 60.691 10.735 60.642 10.648 60.667 10.52 60.567 10.463 60.582 10.348 60.665 10.306 60.726 10.243 60.873 10.193 60.927 10.084 60.919 9.923 60.865 9.808 60.958 9.745 60.897 9.65 60.757 9.605 60.72 9.582 60.678 9.581 60.604 9.616 60.523 9.709 60.491 9.796 60.419 9.814 60.366 9.766 60.187 9.786 60.151 9.867 60.072 9.945 59.803 9.95 59.774 9.915 59.675 9.924 59.608 9.964 59.537 10.116 59.405 10.073 59.374 10.084 59.328 10.133 59.247 10.152 59.162 10.126 59.021 10.129 58.903 10.027 58.857 10.022 58.801 10.128 58.622 10.133 58.584 10.118 58.55 10.17 58.444 10.204 58.23 10.295 58.074 10.282 57.973 10.307 57.82 10.296 57.742 10.315 57.669 10.314 57.594 10.344 57.501 10.422 57.345 10.408 57.25 10.481 57.091 10.46 57.003 10.466 56.957 10.55 56.907 10.614 56.792 10.686 56.717 10.707 56.555 10.728 56.506 10.793 56.414 10.818 56.257 10.841 56.218 10.911 56.202 11.008 56.27 11.223 56.214 11.277 56.181 11.339 56.116 11.376 56.05 11.473 55.969 11.502 55.901 11.558 55.773 11.558 55.719 11.522 55.673 11.518 55.623 11.547 55.646 11.791 55.724 11.981 55.618 12.207 55.522 12.307 55.46 12.363 55.379 12.581 54.978 12.592 54.929 12.566 54.815 12.568 54.762 12.612 54.696 12.665 54.653 12.727 54.517 12.7 54.434 12.741 54.195 12.666 54.206 12.6 54.248 12.589 54.223 12.625 54.018 12.622 53.953 12.589 53.916 12.506 53.91 12.534 53.81 12.607 53.742 12.626 53.624 12.655 53.565 12.65 53.527 12.584 53.47 12.564 53.418 12.564 53.38 12.609 53.305 12.621 53.247 12.587 53.245 12.547 53.304 12.513 53.325 12.471 53.26 12.407 53.276 12.39 53.216 12.266 53.201 12.243 53.172 12.22 53.044 12.163 52.984 12.155 52.938 12.186 52.834 12.25 52.762 12.346 52.708 12.462 52.51 12.466 52.453 12.42 52.327 12.37 52.324 12.365 52.288 12.403 52.168 12.403 52.093 12.441 52.072 12.468 52.031 12.464 51.882 12.481 51.84 12.607 51.662 12.604 51.59 12.682 51.445 12.818 51.276 12.95 51.077 13 51.026 13.038 50.878 13.113 50.737 13.138 50.636 13.187 50.55 13.117 50.454 13.112 50.349 13.126 50.152"/>
      <polygon points="89.298 0 89.268 .023 89.198 .045 89.018 .05 88.894 .111 88.806 .18 88.772 .185 88.728 .164 88.678 .187 88.607 .277 88.566 .305 88.511 .313 88.497 .288 88.469 .288 88.424 .377 88.283 .521 88.175 .587 88.127 .587 88.068 .61 87.966 .678 87.876 .764 87.933 .888 87.866 1.021 87.84 1.132 87.835 1.156 87.912 1.145 87.899 1.18 87.865 1.195 87.823 1.246 87.83 1.274 87.89 1.263 87.864 1.295 87.877 1.301 87.97 1.264 87.964 1.296 87.892 1.365 87.875 1.494 87.878 1.52 87.986 1.532 87.956 1.6 87.973 1.604 88.077 1.5 88.095 1.451 88.077 1.41 88.104 1.382 88.382 1.18 88.517 1.059 88.697 .949 88.745 .953 88.93 .892 89.007 .768 89.093 .674 89.108 .683 89.103 .767 89.062 .841 89.094 .843 89.166 .801 89.191 .777 89.18 .755 89.205 .693 89.269 .641 89.341 .532 89.322 .505 89.327 .463 89.302 .467 89.263 .505 89.209 .523 89.186 .488 89.302 .407 89.277 .399 89.223 .427 89.201 .412 89.203 .381 89.281 .273 89.278 .234 89.408 .125 89.419 .082 89.332 .009 89.299 0"/>
      <polygon points="52.748 51.9 52.699 51.88 52.694 51.82 52.758 51.699 53.16 51.402 53.221 51.384 53.256 51.413 53.278 51.362 53.343 51.333 53.362 51.422 53.299 51.506 53.292 51.594 53.403 51.693 53.492 51.694 53.479 51.744 53.349 51.972 53.249 52.064 53.131 52.135 53.092 52.131 53.11 52.038 53.094 52.006 53.025 51.993 53.038 51.863 53.001 51.816"/>
      <polygon points="57.526 47.695 57.496 47.473 57.484 47.22 57.56 46.97 57.665 46.763 57.801 46.58 57.816 46.546 57.845 46.523 57.864 46.521 57.862 46.544 57.799 46.717 57.816 46.733 57.874 46.624 58.068 46.618 58.27 46.57 58.282 46.596 58.269 46.638 58.18 46.778 58.139 46.887 58.15 46.93 58.223 46.929 58.235 46.97 58.138 47.08 58.126 47.168 57.993 47.474 57.994 47.76 58.029 47.959 57.988 48.028 57.896 48.115 57.856 48.125 57.812 47.977 57.733 47.904 57.689 47.893 57.622 47.922 57.529 48.082 57.509 48.031"/>
      <polygon points="60.927 44.931 60.794 45.318 60.677 45.093 60.906 44.917"/>
      <polygon points="57.624 45.975 57.488 45.565 57.484 45.348 57.521 45.195 57.568 45.098 57.634 44.992 57.699 44.934 57.73 44.917 57.778 44.925 57.874 45.046 57.954 45.067 57.972 45.094 57.942 45.25 57.962 45.444 57.96 45.549 57.933 45.654 57.945 45.832 57.935 45.935 58.02 46.004 58.058 46.179 58.088 46.213 58.139 46.229 58.126 46.269 58.107 46.29 58.076 46.303 58.005 46.311 57.945 46.344 57.916 46.383 57.9 46.432 57.868 46.459 57.785 46.414 57.787 46.338 57.763 46.301 57.701 46.277 57.587 46.276 57.578 46.158"/>
      <polygon points="77.379 18.284 77.399 18.372 77.444 18.412 77.414 18.492 77.348 18.576 77.29 18.623 77.241 18.615 77.212 18.65 77.229 18.666 77.228 18.759 77.299 18.753 77.267 18.844 77.267 18.898 77.248 18.918 77.215 18.88 77.158 18.899 77.144 18.879 77.156 18.854 77.091 18.741 77.012 18.774 76.991 18.756 76.967 18.803 76.887 18.876 76.856 18.982 76.823 19.043 76.782 19.061 76.744 19.179 76.648 19.25 76.645 19.189 76.703 19.043 76.72 18.951 76.728 18.796 76.835 18.455 76.88 18.367 76.879 18.333 76.958 18.128 77.137 17.76 77.182 17.733 77.252 17.646 77.261 17.653 77.296 17.682 77.291 17.718 77.258 17.739 77.218 17.872 77.224 18.028 77.265 18.059 77.288 18.22"/>
      <polygon points="76.755 19.319 76.679 19.296 76.645 19.356 76.73 19.37 76.786 19.446 76.906 19.335 76.877 19.254 76.834 19.25"/>
      <path d="M54.1958767,54.0904179 L54.2147715,54.1013904 L54.2019841,54.0883004 L54.1958767,54.0904179 Z M54.2443319,54.1204857 L54.2695249,54.0898782 L54.2359342,54.1156732 L54.2443319,54.1204857 Z M53.9980065,54.2396035 L54.0487743,54.2345985 L54.0268258,54.2257435 L53.9980065,54.2396035 Z M54.0485511,54.2399343 L54.1103885,54.1654368 L54.1042811,54.1665918 L54.0472151,54.2401268 L54.0485511,54.2399343 Z M54.134166,54.1706113 L54.19524,54.0930338 L54.1828343,54.0970763 L54.13283,54.1671463 L54.1131718,54.1708038 L54.134166,54.1706113 Z M53.9254193,54.2225065 L53.933817,54.221159 L53.8935463,54.146854 L53.8948823,54.166874 L53.9254193,54.2225065 Z M53.7242689,53.9932009 L53.7498437,53.9514284 L53.8042377,53.9381459 L53.7740824,53.9273659 L53.7471717,53.9333334 L53.7120541,53.9878109 L53.6887697,53.9972434 L53.6887697,54.0082159 L53.7242689,53.9932009 Z M79.3300487,25.4342349 L79.3649263,25.618661 L79.5194584,25.6388216 L79.5400052,25.8933717 L79.4163795,26.3007921 L79.3804659,26.4739983 L79.3445523,26.6855975 L79.3367825,27.0341137 L79.3828831,27.3472174 L79.4914873,27.4420601 L79.5299908,27.7956603 L79.6815876,27.9616788 L79.7128394,28.042672 L79.6306525,28.2700491 L79.5054728,28.1578507 L79.4172428,28.1799398 L79.2112575,28.7181414 L79.1523799,29.0449192 L79.1237181,29.4237641 L79.1383944,29.5105425 L79.0838333,29.7565024 L79.1423656,29.7891101 L79.2948257,29.8194387 L79.060006,30.3089042 L79.0627686,30.4800067 L79.0543082,30.6330523 L79.0147687,30.7424457 L78.8849272,30.9191582 L78.7074311,31.0204874 L78.5843234,31.190538 L78.47123,31.4154607 L78.1704536,31.6200475 L78.066166,31.4827798 L77.9233749,31.3886383 L77.8569002,31.6775492 L77.7382817,31.8979138 L77.5609583,32.0854955 L77.4753181,32.2555462 L77.3585989,32.369147 L77.3011026,32.7376486 L77.2045848,32.9283859 L77.0999519,33.0553103 L77.026398,33.1938052 L77.0871749,33.235529 L77.1930164,33.1720667 L77.1814481,33.3785819 L77.1873186,33.5181286 L77.0365851,33.7365649 L77.0139664,33.9288799 L77.0742253,34.1022615 L77.0426282,34.2638973 L76.95906,34.3901205 L77.2052754,34.3720636 L77.286599,34.2894926 L77.4470016,34.3720636 L77.5333324,34.4155404 L77.5468,34.5298425 L77.6681811,34.5154671 L77.6731883,34.6916537 L77.4585699,34.9758311 L77.2964407,35.0450786 L77.1522683,35.1656918 L77.0345131,35.3429302 L76.937132,35.6640981 L76.7927869,35.7359752 L76.6377368,35.9466978 L76.5916362,36.0690642 L76.4562695,36.2461272 L76.3468021,36.2150974 L76.2349174,36.3979457 L76.2086728,36.5613346 L76.2884425,36.6332117 L76.1620542,36.8334157 L76.079522,36.9901428 L75.8977094,37.1018153 L75.5813934,37.3362047 L75.502487,37.5267666 L75.4653648,37.6477305 L75.4339404,37.8761594 L75.4223721,38.0376199 L75.434631,38.137196 L75.5328755,38.5511029 L75.604012,38.6769754 L75.8296807,38.4350477 L75.795321,38.7772527 L75.7704578,38.9734246 L75.8854504,39.0284719 L75.785652,39.2430513 L75.6224868,39.3475361 L75.5169906,39.5433573 L75.4786597,39.66362 L75.299955,39.7183167 L74.9955527,40.2046266 L75.051495,40.4849472 L75.0915525,40.6160791 L75.0575382,40.7401986 L75.0634087,40.8527476 L75.0494231,40.9588101 L74.9154377,41.1933749 L74.8651932,41.3863912 L74.8113228,41.5183996 L74.5758124,41.8136216 L74.5279851,42.0594062 L74.5702872,42.1686243 L74.5474959,42.3095735 L74.4585752,42.5110047 L74.4224889,42.628813 L74.3466905,42.7723919 L74.2099425,42.8305948 L73.9979141,42.7553868 L73.8829215,42.8135897 L73.5351811,42.7585424 L73.2148939,43.1614047 L73.0696855,43.3176059 L72.9693691,43.4662688 L72.7721896,43.5974006 L72.6074705,43.9027906 L72.5147512,43.9041931 L72.3512407,43.8880646 L72.2659459,43.8246024 L72.0898311,43.9627466 L71.6533427,44.2777787 L71.3018037,44.5084866 L70.8166247,45.0996318 L70.68333,45.2600405 L70.6403372,45.6536114 L70.2848271,46.0694467 L70.0997339,46.2386208 L69.8899501,46.6011618 L69.8060365,46.637451 L69.6887993,46.569606 L69.5672456,46.5646974 L69.4797062,46.3729082 L69.2752749,46.3739601 L69.1519945,46.4900153 L69.0539227,46.5487441 L68.885405,46.7210739 L68.7985563,46.8646527 L68.7115348,46.9274137 L68.558902,46.8364278 L68.4275066,46.8490501 L68.3698376,46.7128343 L68.2405141,46.7100293 L67.9568311,46.7757706 L67.6988747,46.9039222 L67.6021843,47.0122637 L67.4644003,47.1085089 L67.2810337,47.1449734 L67.169149,46.9966611 L67.0928326,46.9731696 L66.8738978,47.2161492 L66.685524,47.3974198 L66.480402,47.5190849 L66.5018121,47.2718978 L66.7639123,46.9831623 L66.8205453,46.7244047 L66.8849481,46.4367211 L66.7347325,46.4705559 L66.583481,46.4754646 L66.2155392,46.7442148 L66.1338703,46.7237035 L65.9301296,46.9384582 L65.8574391,47.0520591 L65.6141589,47.2552434 L65.4561736,47.222811 L65.3713968,47.3123944 L65.0989368,47.4901587 L65.0008651,47.5436283 L64.879484,47.5311813 L64.7803762,47.6226931 L64.6103046,47.6887849 L64.188147,47.9056434 L64.1054422,47.9231744 L64.0261905,47.9978564 L63.8787375,48.2027938 L63.6599753,48.5243123 L63.397875,48.7811414 L63.2424796,48.8593297 L63.0268253,49.1866334 L62.8826529,49.3305629 L62.7557467,49.422776 L62.6789123,49.5272607 L62.6309124,49.7549884 L62.7602359,49.7758503 L62.6816749,50.1515395 L62.5487254,50.3789166 L62.497445,50.5933207 L62.5031428,50.70324 L62.4461645,50.8270089 L62.473963,50.9200985 L62.4556609,51.0351018 L62.3755459,51.2160217 L62.4143947,51.3080595 L62.1136183,51.5950419 L61.8613597,51.796999 L61.4680367,52.0703073 L61.3143679,52.3600947 L61.2218213,52.505602 L61.1304833,52.6158719 L61.0681525,52.7734756 L61.0498504,52.9864772 L60.8416205,53.1342635 L60.6860524,53.1468859 L60.5259952,53.2240222 L60.3775062,53.3639196 L60.0252766,53.3719839 L59.9251329,53.4797995 L59.7117232,53.821128 L59.5116084,54.1535158 L59.368472,54.2439757 L59.2816232,54.0332531 L59.2141126,53.9852182 L59.1115516,53.9706675 L58.9319836,54.1635084 L58.7646745,54.3055095 L58.6785164,54.3456555 L58.4709772,54.3321566 L57.9821723,54.4485625 L57.8948055,54.4108708 L57.8143452,54.4876566 L57.6988346,54.6287811 L57.425684,54.8598397 L57.0321883,55.125259 L56.8605627,55.3046011 L56.4095707,55.6203344 L56.2895709,55.6725767 L56.0031253,56.286337 L55.8694853,56.3529548 L55.7615718,56.4497259 L55.7973128,56.5859417 L55.630867,56.6385347 L55.3544358,56.9151739 L55.2092275,57.1239681 L55.0847385,57.2330109 L54.9049978,57.3113744 L54.6166529,57.6439375 L54.4168835,57.6733895 L54.2072724,57.75 L53.9928267,57.6888168 L53.9431002,57.6356979 L53.813604,57.5659245 L53.8022083,57.4205925 L53.5872447,57.4977289 L53.1901231,57.6737402 L53.1695763,57.3895627 L53.0877347,57.4065677 L53.0024399,57.2826236 L53.0010586,57.1753339 L52.8453179,57.1840994 L52.8138935,56.9951152 L52.7441382,56.9060578 L52.5331458,56.894312 L52.3646281,57.0124709 L52.2708729,57.0531428 L52.2033622,57.0026536 L51.9982402,57.1716524 L52.0949307,56.9591767 L52.09683,56.8036767 L51.8958519,56.7926322 L51.8128017,56.7652838 L51.7114494,56.8271683 L51.5935215,56.5072276 L51.5895503,56.3252558 L51.4823275,56.2658257 L51.0710476,56.4863657 L50.9531198,56.5270376 L50.9394795,56.3445399 L50.9819542,56.1764176 L50.8619545,56.3382287 L50.7082857,56.2197192 L50.2704159,55.9663963 L50.2357109,55.8938179 L50.1364305,55.910823 L50.0678839,55.8364916 L50.1269342,55.245171 L50.2079124,54.9955296 L50.0454379,54.9078746 L49.9009202,54.9758949 L49.8059563,54.985011 L49.7151363,54.8296864 L49.5991077,54.857736 L49.5,54.5293804 L49.7505319,54.1081105 L49.8978123,53.9173732 L49.9670495,53.7466213 L50.0141862,53.6119832 L50.0369775,53.4648982 L50.0387041,53.7124359 L50.0616681,53.9925812 L50.0566609,54.2338077 L50.2282865,54.3574013 L50.4228761,54.4752096 L50.673408,54.4301549 L50.7697532,54.5411261 L51.0113067,54.4085918 L51.0556807,54.4766121 L51.2058963,54.4916887 L51.1554791,54.6499936 L51.2328315,54.6613888 L51.3574932,54.6385985 L51.4172341,54.6692777 L51.6686293,54.5616374 L51.7603126,54.5081679 L52.3872468,54.1133698 L52.7665842,53.8460221 L52.7778072,53.9732971 L52.8596488,53.9782058 L52.9642817,53.9284177 L53.0766844,54.1719233 L53.227418,53.9881985 L53.3073603,53.8419899 L53.2906121,53.7255841 L53.4178637,53.4229991 L53.4515327,53.6505514 L53.5570289,53.8540863 L53.588108,53.9505068 L53.5668706,53.8418146 L53.5226692,53.7559127 L53.462583,53.6298649 L53.4841657,53.4394782 L53.3394753,53.453503 L53.5280218,53.3264033 L53.620741,53.3516479 L53.6224676,53.5222245 L53.6535467,53.5977831 L53.8030716,53.3299095 L53.8605679,53.3684777 L53.9624383,53.1396981 L53.9764238,53.0001514 L54.0579201,52.9228397 L54.3799339,52.7997721 L54.2457759,52.9710499 L54.2055458,53.1365426 L54.1245675,53.4196682 L54.0233878,53.5807781 L54.0247691,53.6777245 L54.0691431,53.7331224 L53.8641938,53.9112374 L53.9878195,53.9056275 L54.0637906,53.8083304 L54.0556755,53.6133857 L54.2029558,53.4098508 L54.3165671,53.3832037 L54.3809699,53.5527285 L54.4101497,53.7236557 L54.242668,53.7755474 L54.1271574,53.961902 L54.2970564,53.896862 L54.1837904,54.0421939 L54.2195313,53.8007921 L54.3376319,53.8241083 L54.4659194,53.5402815 L54.5891998,53.40091 L54.7126528,53.3106254 L54.8076166,53.2757387 L55.1156449,53.2678497 L55.2591266,53.2441829 L55.371702,53.2052641 L55.4649392,53.3632184 L55.46304,53.4955774 L55.2848532,53.7418879 L55.1638175,53.9080818 L55.0085947,54.0698929 L54.9659473,54.2494103 L55.0522781,54.3020033 L55.2064649,54.1084611 L55.383961,54.0160727 L55.4723637,54.046752 L55.3958746,53.9769786 L55.2810547,53.9925812 L55.1094291,54.2129458 L55.1762491,53.9703168 L55.4039897,53.7196236 L55.5129392,53.5707854 L55.5643923,53.4168632 L55.5890829,53.1924665 L55.5754426,53.0394208 L56.0331685,52.8264192 L56.1127654,52.8481577 L56.4380598,52.7449001 L56.6281602,52.7701447 L56.7087932,52.7911819 L56.7652535,52.8315032 L56.851757,52.9714006 L56.9114979,53.0213639 L57.0043898,53.0636136 L57.2272959,53.0052354 L57.3441878,52.9789389 L57.4900868,53.018559 L57.5795255,53.0099688 L57.6995253,52.8802394 L57.8181438,52.6870478 L57.9845895,52.5688889 L58.0978555,52.7536656 L58.2756969,52.7885523 L58.2796681,52.6612772 L58.2535962,52.4431916 L58.0272369,52.4267125 L57.9248486,52.4765005 L57.7375108,52.6377857 L57.5923024,52.8400934 L57.3954682,52.777683 L57.120591,52.8292242 L56.9954114,52.6514599 L56.9156417,52.5436442 L56.8018578,52.5238342 L56.7353831,52.4624757 L56.7086205,52.2978596 L56.8196419,51.7791174 L56.8712677,51.6614844 L56.9337712,51.5577009 L57.1091954,51.4703965 L57.2336844,51.3420696 L57.35731,51.3056051 L57.4522739,51.3722229 L57.4857702,51.4568977 L57.5740003,51.4747793 L57.7623741,51.2949112 L57.834374,51.3441733 L58.0515822,51.2412664 L57.9058558,51.26879 L57.8395538,51.2160217 L57.6047341,51.3899292 L57.5303169,51.2158464 L57.3469503,51.1828882 L57.2784037,51.1148679 L57.1597852,50.9732174 L57.3643892,50.6651978 L57.3167346,50.6683534 L57.2960152,50.3662943 L57.5645039,49.6021181 L57.5805614,49.3880646 L57.6164751,49.2355449 L57.6984893,48.9888838 L57.7694532,48.6678912 L57.876676,48.7260941 L57.9816543,48.7122446 L58.0664311,48.668943 L58.4528477,48.2788783 L58.4948045,47.903715 L58.6165309,47.9007347 L58.7727896,47.7485656 L58.8953793,47.7604867 L58.7726169,47.7049135 L58.6163582,47.8583097 L58.6598689,47.6936936 L58.6251639,47.5206627 L58.5303727,47.5299541 L58.6838689,47.5329344 L58.4452506,47.8928458 L58.386373,48.1335464 L58.184359,48.1812307 L57.9383162,48.2532831 L57.8335106,48.3377825 L57.6211369,48.5255395 L57.4971659,48.4731218 L57.5354968,48.29115 L57.6125038,48.2112087 L57.7224893,48.0344962 L57.7682446,47.8928458 L57.8657984,47.9517499 L57.9310644,48.0218739 L58.0248197,47.9911947 L58.1073519,47.8951248 L58.1444741,47.7406767 L58.1372223,47.5388949 L58.1051073,47.4328324 L58.2240711,47.3721751 L58.3444162,47.3853234 L58.4474952,47.518033 L58.4300564,47.6416266 L58.4804735,47.485776 L58.4393801,47.3772591 L58.3651356,47.327997 L58.2458265,47.2910066 L58.3366465,46.9684362 L58.2523876,46.8827097 L58.4789196,46.8644774 L58.6481279,46.6067717 L58.7739982,46.5615418 L58.904703,46.3843034 L59.0043287,46.4084962 L59.0946307,46.3914911 L59.1533357,46.4291827 L59.0117532,46.299804 L58.8891635,46.2968237 L58.7840126,46.2373936 L58.7712356,46.0089647 L58.6648761,45.8962404 L58.8511779,45.7870223 L58.9749763,45.784042 L59.1291631,45.6769276 L59.2051342,45.5577168 L59.2275802,45.6758758 L59.4197525,45.759148 L59.5872342,45.5682354 L59.6245291,45.5321216 L59.5879249,45.4583161 L59.459292,45.6779795 L59.356731,45.6749992 L59.2836952,45.6609744 L59.2788606,45.5258104 L59.0794365,45.6506311 L58.8465161,45.6751745 L58.7018257,45.6234581 L58.7000991,45.4528815 L58.8059406,44.9940952 L58.8428902,44.7625108 L58.8577391,44.5747538 L58.940444,44.460627 L59.073566,44.3284432 L59.118458,44.1797804 L59.4232057,43.8516001 L59.685306,43.5356915 L59.7818238,43.2795636 L59.8684999,43.1102142 L59.9812479,43.1561454 L60.1787727,43.1522886 L60.3906285,43.1093376 L60.0803556,43.0607768 L60.2333338,42.9038744 L60.7677214,42.4670019 L60.9958073,42.293445 L61.0817928,42.2674991 L61.6469141,41.8395675 L62.426999,41.1788241 L63.0095592,40.6350126 L64.1430824,39.685709 L64.4428229,39.4495665 L64.5232832,39.4332627 L64.7149375,39.1909843 L65.0022463,38.915397 L65.3757133,38.5935279 L65.9341008,38.1398256 L66.2051795,37.8856262 L66.4781574,37.5660361 L66.615596,37.3772272 L66.7157398,37.2205001 L66.8110489,37.0253801 L66.9493509,36.6996542 L66.8562863,36.6214659 L66.9762861,36.4237163 L67.2181849,36.0899261 L67.3425013,35.8792035 L67.5396808,35.364318 L67.7442847,35.064012 L68.0013778,34.6285421 L68.0749316,34.4502518 L68.028313,34.3834587 L68.0832194,34.2572355 L68.4161109,33.6690705 L68.6253767,33.1327973 L68.6780385,32.9667788 L68.6590457,32.8621187 L68.718096,32.7166114 L68.8633044,32.5064148 L69.3056633,31.9186004 L69.881835,31.0257467 L69.9992448,30.822913 L70.3343809,30.2000367 L70.4374599,29.9784448 L70.6106394,29.5033548 L70.7984952,29.1576435 L71.1376026,28.4460603 L71.2517318,28.1613569 L71.3283936,27.9309996 L71.3644799,27.7527093 L71.4264654,27.4765961 L71.4906955,27.1414034 L71.4979472,26.9683725 L71.4777458,26.8167294 L71.3439331,26.4350795 L71.4199042,26.3146416 L71.9018027,26.0772719 L72.1366224,25.9370239 L72.2788955,25.893547 L72.3562479,25.895826 L72.4734851,26.0036417 L72.6765351,25.9515746 L72.8106932,26.0753434 L73.031182,26.3891483 L73.0152971,26.6289724 L73.1182034,26.6820913 L73.0726208,26.9909875 L73.0786639,27.1755889 L73.2387212,27.1485911 L73.5472674,26.9548736 L73.7592958,26.9117474 L73.7815692,27.0095703 L73.8637561,27.1675246 L73.9834105,27.3253036 L74.158662,27.2457129 L74.2361871,27.2930466 L74.2715827,27.3856102 L74.3813955,27.5248064 L74.5008773,27.5425127 L74.6617978,27.4790505 L74.5939418,27.6850397 L74.6690496,27.7041485 L74.869337,27.5130606 L75.0962144,27.2243251 L75.2093077,27.0318347 L75.2937392,26.8586284 L75.3738542,26.6557948 L75.535638,26.4270153 L75.4648468,26.396336 L75.5349474,26.191574 L75.7191773,25.7666226 L75.7704578,25.5562506 L75.6385443,25.7547015 L75.76217,25.3407946 L75.8892489,24.9661572 L75.8963281,24.6800513 L75.7020838,24.7280863 L75.5848466,24.3162831 L75.5931343,24.1003012 L75.5408179,23.5973369 L75.5206165,23.4649778 L75.4120124,23.3187693 L75.4083865,23.2151611 L75.4291059,23.093496 L75.6416522,22.900655 L75.7699398,22.5524894 L75.9890473,22.3286186 L76.2577087,22.1259602 L76.473881,21.6243984 L76.5697082,21.5129012 L76.5854204,21.6040624 L76.4726724,21.8957782 L76.4269171,22.1363035 L76.4272624,22.2818108 L76.5046148,21.9078746 L76.5507154,21.7869107 L76.6273771,22.0135865 L76.7081828,22.0256829 L76.6455066,22.2840898 L76.6931612,22.4390638 L76.677449,22.5460029 L76.7131899,22.6795891 L76.7235496,22.8063383 L76.7461683,22.9683247 L76.8324991,23.1236493 L76.9960096,23.6357298 L76.9773621,23.8304992 L77.017765,23.991609 L76.9982542,24.1332595 L77.4910303,24.0182561 L77.6838933,23.8885268 L77.7482961,24.0361378 L77.9014469,23.9244653 L78.235029,23.8927342 L78.3053023,23.771595 L78.3104821,23.6653572 L78.2440074,23.6167963 L78.1873744,23.5237067 L78.0072884,23.4707631 L77.9254468,23.4132614 L77.8993749,23.1848325 L77.8712311,22.9849791 L77.8486124,22.8179087 L77.9099073,22.5849217 L77.9128425,22.4711456 L77.909044,22.2414895 L77.8106269,22.2204523 L77.7664255,21.8212715 L77.6512603,21.6647197 L77.6519509,21.5193877 L77.6669725,21.4119227 L77.6084402,21.3588037 L77.4513182,21.329527 L77.377419,21.2983218 L77.253448,21.1764814 L77.2322106,21.0949622 L77.4257642,20.8242836 L77.4395772,20.6203981 L77.5892748,20.4952268 L77.7002961,20.6761467 L77.9264828,20.6388057 L78.0490725,20.66107 L78.2464247,20.5222245 L78.3356907,20.4249275 L78.3959496,20.3172872 L78.574827,19.8993482 L78.6806685,19.8141475 L78.8075748,19.8106413 L78.9234307,19.7697941 L79.0147687,19.6852947 L79.2173007,19.432673 L79.4673146,19.25 L79.5881777,19.4135642 L79.6406669,19.6160472 L79.6676021,19.8011746 L79.7333861,20.0318825 L79.7287243,20.3141316 L79.4583362,21.0833918 L79.2549409,21.4473353 L79.21661,21.5844277 L79.3210703,21.8040911 L79.3170991,21.9557342 L79.3692429,22.0412855 L79.2981063,22.2414895 L79.3792572,22.4283699 L79.4467679,22.5689685 L79.4393435,22.6711743 L79.411027,22.8038839 L79.5239476,22.9294059 L79.7116308,22.8775141 L79.7891558,22.926075 L79.815055,23.1017356 L79.6933286,23.4409604 L79.6479186,23.8231361 L79.7173286,24.0671676 L79.8387097,24.0757578 L79.8295586,24.3878096 L79.7029977,24.950204 L79.6220194,25.1523364 L79.5405231,25.270846 L79.4612715,25.3521898 L79.3300487,25.4342349 Z"/>
      <polygon points="79.945 17.686 79.839 17.889 79.887 17.914 79.992 17.862 80.063 17.865 80.083 17.789 80.06 17.646"/>
    </g>
    <g transform="translate(21 159)">
      <path fill="#EF1146" d="M15.7680408,5.53986537 C15.7680408,10.4875409 7.88370515,30.9087256 7.88370515,30.9087256 C7.88370515,30.9087256 -0.000630545081,19.4470968 0,14.4994213 C0,9.55112519 3.52979136,3.53423546 7.88370515,1.05946687 C12.2382495,-1.41406062 15.7680408,0.590948741 15.7680408,5.53986537"/>
      <path fill="#FFF" d="M12.2891413,8.33610543 C12.2891413,11.2644989 10.200776,14.8239955 7.62499937,16.2872614 C5.04796163,17.7517684 2.95896577,16.5652695 2.95896577,13.6374966 C2.95959632,10.7091032 5.04796163,7.14960654 7.62499937,5.68572011 C10.2001455,4.22121312 12.2891413,5.40833255 12.2891413,8.33610543"/>
    </g>
  </g>
</svg>
