<?xml version="1.0" encoding="UTF-8"?>
<svg width="40px" height="60px" viewBox="0 0 40 60" version="1.1" xmlns="http://www.w3.org/2000/svg" xmlns:xlink="http://www.w3.org/1999/xlink">
    <!-- Generator: Sketch 47.1 (45422) - http://www.bohemiancoding.com/sketch -->
    <title>Pin</title>
    <desc>Created with Sketch.</desc>
    <defs>
        <linearGradient x1="2.21420599%" y1="58.5698485%" x2="100%" y2="58.5698485%" id="linearGradient-1">
            <stop stop-color="#4BAD00" offset="0%"></stop>
            <stop stop-color="#71DF55" offset="100%"></stop>
        </linearGradient>
    </defs>
    <g id="Contact-" stroke="none" stroke-width="1" fill="none" fill-rule="evenodd">
        <g id="04-Contact_v2_Comfirmation" transform="translate(-1044.000000, -410.000000)">
            <g id="Map" transform="translate(-50.000000, -70.000000)">
                <g id="Pin" transform="translate(1094.000000, 480.000000)">
                    <path d="M20,0 C8.95425,5.92125e-15 0,8.95425 0,20 C0,23.5525 0.954,26.875 2.578,29.765 C2.84775,30.245 3.1305,30.7175 3.4375,31.1725 L20,60 L36.5625,31.1725 C36.8175,30.795 37.0375,30.395 37.265,30 L37.4225,29.765 C39.045,26.875 40,23.5525 40,20 C40,8.95425 31.045,0 20,0 L20,0 Z" id="Shape" fill="url(#linearGradient-1)" fill-rule="nonzero"></path>
                    <path d="M20,12.5 C24.1425,12.5 27.5,15.85775 27.5,20 C27.5,24.14225 24.1425,27.5 20,27.5 C15.8575,27.5 12.5,24.14225 12.5,20 C12.5,15.85775 15.8575,12.5 20,12.5 Z" id="Path" fill="#FFFFFF"></path>
                </g>
            </g>
        </g>
    </g>
</svg>