<?xml version="1.0" encoding="UTF-8"?>
<svg width="82px" height="60px" viewBox="0 0 82 60" version="1.1" xmlns="http://www.w3.org/2000/svg" xmlns:xlink="http://www.w3.org/1999/xlink">
    <!-- Generator: Sketch 46.2 (44496) - http://www.bohemiancoding.com/sketch -->
    <title>Group 9</title>
    <desc>Created with Sketch.</desc>
    <defs>
        <linearGradient x1="2.21420599%" y1="58.5698485%" x2="100%" y2="58.5698485%" id="linearGradient-1">
            <stop stop-color="#4BAD00" offset="0%"></stop>
            <stop stop-color="#71DF55" offset="100%"></stop>
        </linearGradient>
    </defs>
    <g id="Our-Panel" stroke="none" stroke-width="1" fill="none" fill-rule="evenodd">
        <g id="03-Our-panel" transform="translate(-594.000000, -1309.000000)">
            <g id="Group-9" transform="translate(594.000000, 1309.000000)">
                <g id="noun_1035073_cc" fill-rule="nonzero" fill="#000000">
                    <g id="Group" transform="translate(0.000000, 0.444991)">
                        <path d="M31.2427326,0.252683721 C30.9178755,0.325435997 30.6896609,0.617550676 30.6976744,0.95035814 L30.6976744,10.3035558 L18.4883721,17.0840791 C18.2705724,17.2098293 18.1372983,17.4430589 18.1395349,17.6945442 L18.1395349,23.3631488 L0.457848837,29.5768116 C0.175611724,29.680001 -0.00885215746,29.9523048 2.32290315e-16,30.2526837 L2.32290315e-16,58.1596605 C3.852412e-05,58.5449594 0.312375435,58.8572964 0.697674419,58.8573349 L62.0930233,58.8573349 C62.4783222,58.8572964 62.7906592,58.5449594 62.7906977,58.1596605 L62.7906977,30.2526837 C62.7995498,29.9523048 62.6150859,29.680001 62.3328488,29.5768116 L44.6511628,23.3631488 L44.6511628,17.6945442 C44.6533994,17.4430589 44.5201253,17.2098293 44.3023256,17.0840791 L32.0930233,10.3035558 L32.0930233,7.31663721 C34.6619477,8.66155116 37.2870963,9.2326814 40.0726744,7.83989302 C40.3073469,7.72579507 40.4587432,7.49028975 40.4651163,7.22942791 L40.4651163,2.34570698 C40.4667772,2.10439687 40.3436315,1.87935898 40.1394962,1.75066503 C39.935361,1.62197108 39.679219,1.60789283 39.4622093,1.71343953 C38.2332656,2.3279093 37.0449914,2.34096977 35.755814,2.01867209 C34.4666365,1.69637442 33.0959302,1.01576512 31.7005814,0.318090698 C31.5598392,0.244870911 31.3983466,0.221800533 31.2427326,0.252683721 Z M32.0930233,1.97506744 C33.1793142,2.50489535 34.2535298,3.08205349 35.4069767,3.37041628 C36.5893416,3.66600698 37.8309809,3.58471395 39.0697674,3.2178 L39.0697674,6.72797442 C36.683767,7.75543953 34.6067267,7.21040233 32.1366279,5.79047442 C32.1227427,5.77530403 32.1081936,5.76075494 32.0930233,5.74686977 L32.0930233,1.97506744 Z M31.3953488,11.524486 L43.255814,18.1087884 L43.255814,57.461986 L36.2790698,57.461986 L36.2790698,44.9038465 C36.2790312,44.5185475 35.9666943,44.2062106 35.5813953,44.2061721 L27.2093023,44.2061721 C27.1657939,44.2020755 27.1219968,44.2020755 27.0784884,44.2061721 C26.7449428,44.269815 26.5056444,44.5643362 26.5116279,44.9038465 L26.5116279,57.461986 L19.5348837,57.461986 L19.5348837,18.1087884 L31.3953488,11.524486 Z M31.3953488,16.9968698 C28.3210933,16.9968698 25.8139535,19.5040116 25.8139535,22.5782651 C25.8139535,25.6525186 28.3210933,28.1596605 31.3953488,28.1596605 C34.4696044,28.1596605 36.9767442,25.6525186 36.9767442,22.5782651 C36.9767442,19.5040116 34.4696044,16.9968698 31.3953488,16.9968698 Z M31.3953488,18.3922186 C33.7155035,18.3922186 35.5813953,20.258114 35.5813953,22.5782651 C35.5813953,24.8984163 33.7155035,26.7643116 31.3953488,26.7643116 C29.0751949,26.7643116 27.2093023,24.8984163 27.2093023,22.5782651 C27.2093023,20.258114 29.0751949,18.3922186 31.3953488,18.3922186 Z M18.1395349,24.845707 L18.1395349,57.461986 L1.39534884,57.461986 L1.39534884,30.7541372 L18.1395349,24.845707 Z M44.6511628,24.845707 L61.3953488,30.7541372 L61.3953488,57.461986 L44.6511628,57.461986 L44.6511628,24.845707 Z M24.2877907,31.6480326 C23.9542451,31.7116755 23.7149467,32.0061966 23.7209302,32.345707 L23.7209302,39.3224512 C23.7209688,39.7077501 24.0333057,40.0200871 24.4186047,40.0201256 L38.372093,40.0201256 C38.757392,40.0200871 39.0697289,39.7077501 39.0697674,39.3224512 L39.0697674,32.345707 C39.0697289,31.960408 38.757392,31.6480711 38.372093,31.6480326 L24.4186047,31.6480326 C24.3750962,31.643936 24.3312991,31.643936 24.2877907,31.6480326 Z M6.14825581,33.0433814 C5.81471024,33.1070243 5.57541181,33.4015455 5.58139535,33.7410558 L5.58139535,39.3224512 C5.58143387,39.7077501 5.89377078,40.0200871 6.27906977,40.0201256 L13.255814,40.0201256 C13.6411129,40.0200871 13.9534498,39.7077501 13.9534884,39.3224512 L13.9534884,33.7410558 C13.9534498,33.3557568 13.6411129,33.0434199 13.255814,33.0433814 L6.27906977,33.0433814 C6.23556133,33.0392848 6.19176425,33.0392848 6.14825581,33.0433814 L6.14825581,33.0433814 Z M25.1162791,33.0433814 L37.6744186,33.0433814 L37.6744186,38.6247767 L25.1162791,38.6247767 L25.1162791,33.0433814 Z M49.4040698,33.0433814 C49.0705242,33.1070243 48.8312258,33.4015455 48.8372093,33.7410558 L48.8372093,39.3224512 C48.8372478,39.7077501 49.1495847,40.0200871 49.5348837,40.0201256 L56.5116279,40.0201256 C56.8969269,40.0200871 57.2092638,39.7077501 57.2093023,39.3224512 L57.2093023,33.7410558 C57.2092638,33.3557568 56.8969269,33.0434199 56.5116279,33.0433814 L49.5348837,33.0433814 C49.4913753,33.0392848 49.4475782,33.0392848 49.4040698,33.0433814 L49.4040698,33.0433814 Z M6.97674419,34.4387302 L12.5581395,34.4387302 L12.5581395,38.6247767 L6.97674419,38.6247767 L6.97674419,34.4387302 Z M50.2325581,34.4387302 L55.8139535,34.4387302 L55.8139535,38.6247767 L50.2325581,38.6247767 L50.2325581,34.4387302 Z M6.14825581,44.2061721 C5.81471024,44.269815 5.57541181,44.5643362 5.58139535,44.9038465 L5.58139535,50.4852419 C5.58143387,50.8705408 5.89377078,51.1828778 6.27906977,51.1829163 L13.255814,51.1829163 C13.6411129,51.1828778 13.9534498,50.8705408 13.9534884,50.4852419 L13.9534884,44.9038465 C13.9534498,44.5185475 13.6411129,44.2062106 13.255814,44.2061721 L6.27906977,44.2061721 C6.23556133,44.2020755 6.19176425,44.2020755 6.14825581,44.2061721 Z M49.4040698,44.2061721 C49.0705242,44.269815 48.8312258,44.5643362 48.8372093,44.9038465 L48.8372093,50.4852419 C48.8372478,50.8705408 49.1495847,51.1828778 49.5348837,51.1829163 L56.5116279,51.1829163 C56.8969269,51.1828778 57.2092638,50.8705408 57.2093023,50.4852419 L57.2093023,44.9038465 C57.2092638,44.5185475 56.8969269,44.2062106 56.5116279,44.2061721 L49.5348837,44.2061721 C49.4913753,44.2020755 49.4475782,44.2020755 49.4040698,44.2061721 Z M6.97674419,45.6015209 L12.5581395,45.6015209 L12.5581395,49.7875674 L6.97674419,49.7875674 L6.97674419,45.6015209 Z M27.9069767,45.6015209 L34.8837209,45.6015209 L34.8837209,57.461986 L27.9069767,57.461986 L27.9069767,45.6015209 Z M50.2325581,45.6015209 L55.8139535,45.6015209 L55.8139535,49.7875674 L50.2325581,49.7875674 L50.2325581,45.6015209 Z" id="Shape"></path>
                    </g>
                </g>
                <g id="noun_1373251_cc" transform="translate(47.000000, 18.000000)">
                    <path d="M14.7803618,7.02842377 C14.7803618,7.49354005 15.1421189,7.85529716 15.6072351,7.85529716 L19.5348837,7.85529716 C20,7.85529716 20.3617571,7.49354005 20.3617571,7.02842377 L20.3617571,1.08527132 C20.3617571,0.620155039 20,0.258397933 19.5348837,0.258397933 L15.6072351,0.258397933 C15.1421189,0.258397933 14.7803618,0.620155039 14.7803618,1.08527132 L14.7803618,2.99741602 L14.7803618,7.02842377 Z M17.5710594,1.60206718 C18.1912145,1.60206718 18.6563307,2.06718346 18.6563307,2.6873385 C18.6563307,3.30749354 18.1912145,3.77260982 17.5710594,3.77260982 C16.9509044,3.77260982 16.4857881,3.30749354 16.4857881,2.6873385 C16.4857881,2.06718346 16.9509044,1.60206718 17.5710594,1.60206718 Z M20.6718346,5.89147287 L20.6718346,6.56330749 L20.9302326,6.56330749 C21.4470284,6.56330749 21.9121447,6.97674419 21.9121447,7.54521964 L21.9121447,7.54521964 C21.9121447,8.0620155 21.498708,8.52713178 20.9302326,8.52713178 L14.2118863,8.52713178 C13.6950904,8.52713178 13.2299742,8.11369509 13.2299742,7.54521964 L13.2299742,7.54521964 C13.2299742,7.02842377 13.6434109,6.56330749 14.2118863,6.56330749 L14.4702842,6.56330749 L14.4702842,5.89147287 L0.361757106,5.89147287 L0.361757106,27.6485788 L34.8320413,27.6485788 L34.8320413,5.89147287 L20.6718346,5.89147287 Z" id="Shape" fill="#000000" fill-rule="nonzero"></path>
                    <polygon id="Path" fill="#FFFFFF" points="33.9534884 26.8217054 1.18863049 26.8217054 1.18863049 9.14728682 33.9534884 9.14728682"></polygon>
                </g>
                <g id="noun_1414959_cc" transform="translate(58.000000, 29.000000)" fill-rule="nonzero">
                    <g id="Group">
                        <path d="M7.13530655,0.0870159336 C3.2488269,0.0870159336 0.0870159336,3.2488269 0.0870159336,7.13530655 C0.0870159336,11.0217862 3.2488269,14.1835972 7.13530655,14.1835972 C11.0217862,14.1835972 14.1835972,11.0217862 14.1835972,7.13530655 C14.1835972,3.2488269 11.0217862,0.0870159336 7.13530655,0.0870159336 Z" id="Shape" fill="url(#linearGradient-1)"></path>
                        <polygon id="Shape" fill="#FFFFFF" points="5.26324576 10.6918218 2.48465297 7.91340303 3.07514309 7.32273887 5.26324576 9.51084154 11.19547 3.57879132 11.7863082 4.16928144"></polygon>
                    </g>
                </g>
            </g>
        </g>
    </g>
</svg>