<?xml version="1.0" encoding="UTF-8"?>
<svg width="60px" height="60px" viewBox="0 0 60 60" version="1.1" xmlns="http://www.w3.org/2000/svg" xmlns:xlink="http://www.w3.org/1999/xlink">
    <!-- Generator: Sketch 46.2 (44496) - http://www.bohemiancoding.com/sketch -->
    <title>noun_1095767_cc</title>
    <desc>Created with Sketch.</desc>
    <defs>
        <linearGradient x1="2.21420599%" y1="58.5698485%" x2="100%" y2="58.5698485%" id="linearGradient-1">
            <stop stop-color="#4BAD00" offset="0%"></stop>
            <stop stop-color="#71DF55" offset="100%"></stop>
        </linearGradient>
    </defs>
    <g id="Our-Panel" stroke="none" stroke-width="1" fill="none" fill-rule="evenodd">
        <g id="03-Our-panel" transform="translate(-945.000000, -1309.000000)" fill-rule="nonzero">
            <g id="noun_1095767_cc" transform="translate(945.000000, 1309.000000)">
                <path d="M11.5690909,30.2659091 C11.7968182,32.0536364 12.06,33.9818182 12.2863636,35.9154545 C12.8468182,40.7154545 12.3981818,45.3777273 10.3677273,49.8231818 C10.305,49.9595455 10.2422727,50.0945455 10.1795455,50.2309091 C9.89181818,50.8540909 9.50181818,51.3790909 8.73136364,51.03 C7.965,50.6836364 8.1,50.0577273 8.37818182,49.4236364 C8.69045455,48.7104545 8.99863636,47.9931818 9.26590909,47.2636364 C10.8313636,42.9940909 10.8790909,38.595 10.0786364,34.2081818 C7.99363636,22.7740909 14.76,12.5372727 26.1354545,10.1209091 C28.9336364,9.52636364 31.7386364,9.64363636 34.5286364,10.2490909 C34.6745455,10.2804545 34.8177273,10.3268182 34.9609091,10.3690909 C35.5472727,10.5395455 35.7981818,10.9363636 35.6918182,11.5281818 C35.5881818,12.1131818 35.1681818,12.3190909 34.6295455,12.2481818 C33.7990909,12.1404545 32.9768182,11.9563636 32.145,11.8609091 C22.4713636,10.7372727 13.7890909,17.1040909 11.9372727,26.7054545 C11.7245455,27.8181818 11.7,28.9677273 11.5690909,30.2659091 Z" id="Shape" fill="#000000"></path>
                <path d="M27.2113636,39.5236364 C27.0559091,45.9954545 25.5422727,52.0840909 22.695,57.855 C22.3936364,58.4645455 22.0240909,58.9731818 21.2386364,58.6540909 C20.6004545,58.3963636 20.4981818,57.8331818 20.9263636,56.9740909 C23.5609091,51.6818182 25.0786364,46.0936364 25.0131818,40.1686364 C24.9818182,37.2709091 24.6722727,34.3622727 24.2836364,31.4836364 C23.9359091,28.9077273 24.6831818,26.5404545 26.7095455,25.2327273 C28.7890909,23.8922727 30.9504545,23.8527273 33.0790909,25.1440909 C34.455,25.9786364 35.4204545,27.2277273 35.6263636,28.8054545 C36.0927273,32.37 36.4227273,35.9522727 36.7363636,39.5318182 C36.7718182,39.9368182 36.465,40.5381818 36.1254545,40.7754545 C35.5281818,41.1968182 34.8572727,40.6363636 34.8054545,39.7472727 C34.7059091,38.0372727 34.6840909,36.3218182 34.5109091,34.6227273 C34.3295455,32.835 34.0868182,31.0459091 33.7295455,29.2868182 C33.2809091,27.0818182 31.2586364,25.8286364 29.1436364,26.3031818 C27.0136364,26.7831818 25.8763636,28.7263636 26.2077273,30.9545455 C26.6277273,33.7977273 26.8840909,36.6668182 27.2113636,39.5236364 Z M41.6140909,39.7295455 C41.5745455,45.9640909 40.53,52.0309091 38.5718182,57.9436364 C38.3536364,58.6009091 38.0427273,59.1736364 37.2463636,58.95 C36.5372727,58.7481818 36.4636364,58.2177273 36.6381818,57.5113636 C37.5054545,53.9931818 38.4477273,50.4859091 39.1104545,46.9268182 C39.7772727,43.3418182 39.7772727,39.6831818 39.4745455,36.0518182 C39.2618182,33.5168182 38.925,30.9804545 38.4872727,28.4727273 C37.6036364,23.3931818 32.5418182,20.2963636 27.5604545,21.6968182 C27.3859091,21.7459091 27.2127273,21.7963636 27.0422727,21.855 C26.4190909,22.0663636 25.9472727,21.8590909 25.74,21.2590909 C25.5218182,20.6304545 25.8640909,20.205 26.445,20.0018182 C27.9681818,19.4727273 29.5418182,19.215 31.1440909,19.4536364 C36.3504545,20.2268182 39.78,23.5772727 40.5477273,28.8027273 C41.0795455,32.4204545 41.415,36.0668182 41.8377273,39.6995455 C41.7640909,39.7104545 41.6877273,39.7213636 41.6140909,39.7295455 Z M23.7954545,23.6072727 C23.5677273,24.0040909 23.4395455,24.3081818 23.2445455,24.5577273 C21.4813636,26.8022727 21.0177273,29.3113636 21.4840909,32.1068182 C22.8368182,40.2081818 22.2340909,48.0790909 18.4827273,55.5368182 C18.3463636,55.8054545 18.1977273,56.0672727 18.0627273,56.3359091 C17.7777273,56.9004545 17.3263636,57.1718182 16.7359091,56.8922727 C16.1140909,56.5990909 16.0295455,56.0822727 16.3063636,55.4509091 C17.0645455,53.7190909 17.8745455,52.0104545 18.5140909,50.2363636 C20.2090909,45.5386364 20.3618182,40.6622727 19.9622727,35.7477273 C19.7931818,33.6859091 19.4413636,31.6322727 19.3909091,29.5718182 C19.3322727,27.1745455 20.2745455,25.0540909 21.825,23.2404545 C22.0745455,22.95 22.6431818,22.7945455 23.0468182,22.8231818 C23.3045455,22.8422727 23.5309091,23.3127273 23.7954545,23.6072727 Z M31.9840909,39.6381818 C32.0127273,42.9968182 31.5804545,46.2886364 30.8236364,49.5490909 C30.7690909,49.7836364 30.6968182,50.0127273 30.6477273,50.2472727 C30.51,50.8868182 30.1131818,51.1854545 29.4763636,51.0709091 C28.7863636,50.9427273 28.6636364,50.4136364 28.7604545,49.8327273 C28.8722727,49.1536364 29.0522727,48.4854545 29.1886364,47.8090909 C30.3272727,42.2345455 30.2263636,36.6572727 29.1845455,31.08 C29.1395455,30.8454545 29.1,30.6081818 29.0454545,30.375 C28.9022727,29.7490909 29.0959091,29.2813636 29.7340909,29.1286364 C30.4227273,28.9622727 30.8495455,29.3304545 30.9640909,29.9877273 C31.2340909,31.5218182 31.5272727,33.0586364 31.6868182,34.6063636 C31.86,36.2754545 31.8913636,37.9609091 31.9840909,39.6381818 Z M26.7790909,59.7545455 C25.9104545,59.76 25.4522727,59.1559091 25.7209091,58.4413636 C26.235,57.0668182 26.7736364,55.695 27.4213636,54.3818182 C27.5659091,54.0886364 28.2463636,53.8568182 28.6009091,53.9372727 C28.8640909,53.9986364 29.2486364,54.6968182 29.1545455,54.9654545 C28.6363636,56.46 28.0090909,57.9218182 27.3668182,59.37 C27.2713636,59.5868182 26.9018182,59.6809091 26.7790909,59.7545455 Z" id="Combined-Shape" fill="url(#linearGradient-1)"></path>
                <path d="M30.0054545,4.82045455 C42.45,4.93772727 52.9881818,14.0277273 54.8290909,26.3590909 C55.1522727,28.5231818 55.3990909,30.6995455 55.6759091,32.8704545 C55.7086364,33.1363636 55.71,33.4104545 55.7127273,33.6804545 C55.7209091,34.2872727 55.5340909,34.7563636 54.8359091,34.8095455 C54.1609091,34.8627273 53.8431818,34.4904545 53.7763636,33.8590909 C53.6127273,32.3059091 53.4477273,30.7568182 53.2922727,29.2036364 C52.4018182,20.2922727 48.3286364,13.4181818 40.2190909,9.30545455 C34.2395455,6.27136364 28.0213636,6.08863636 21.7254545,8.38636364 C21.4718182,8.47909091 21.2168182,8.56772727 20.97,8.67818182 C20.3631818,8.94954545 19.875,8.77227273 19.6254545,8.19818182 C19.3690909,7.61181818 19.6009091,7.09227273 20.2118182,6.89590909 C21.9204545,6.345 23.6195455,5.73545455 25.3677273,5.35772727 C26.8827273,5.03045455 28.4577273,4.98954545 30.0054545,4.82045455 Z" id="Shape" fill="#000000"></path>
                <path d="M16.3909091,30.0490909 C16.6595455,31.9772727 17.0440909,33.9 17.1668182,35.8363636 C17.3072727,38.0154545 17.2322727,40.2122727 17.2022727,42.3981818 C17.1968182,42.7554545 17.0304545,43.2027273 16.7781818,43.4318182 C16.5668182,43.6213636 16.0390909,43.6922727 15.7990909,43.56 C15.5222727,43.4031818 15.2631818,42.9654545 15.2522727,42.6409091 C15.2209091,41.8363636 15.4295455,41.0195455 15.3709091,40.2204545 C15.1704545,37.4713636 14.9754545,34.7209091 14.6345455,31.9909091 C13.7372727,24.7813636 17.9413636,17.8772727 24.7827273,15.4540909 C30.7540909,13.3377273 37.4372727,15.0804545 41.6004545,19.8395455 C41.7981818,20.0659091 41.9931818,20.2963636 42.1622727,20.5431818 C42.5004545,21.0368182 42.4663636,21.5304545 41.9945455,21.9027273 C41.52,22.2790909 41.0509091,22.1768182 40.6336364,21.7459091 C39.9463636,21.0354545 39.315,20.2486364 38.5459091,19.6390909 C34.4481818,16.3868182 29.8690909,15.6 25.0159091,17.5186364 C20.2309091,19.4113636 17.4722727,23.0863636 16.5913636,28.1522727 C16.4836364,28.77 16.5027273,29.4095455 16.4618182,30.0395455 C16.44,30.0409091 16.4140909,30.045 16.3909091,30.0490909 Z" id="Shape" fill="#000000"></path>
                <path d="M51.1718182,43.0418182 C50.9918182,44.7245455 50.6386364,48.0968182 50.265,51.4663636 C50.1886364,52.1454545 49.9118182,52.7209091 49.0772727,52.6309091 C48.4486364,52.5640909 48.1690909,51.9763636 48.3109091,51.1609091 C49.2313636,45.8631818 49.425,40.5231818 48.9859091,35.1777273 C48.7309091,32.0727273 48.4459091,28.9418182 47.7968182,25.9063636 C46.7140909,20.8459091 43.7577273,16.9990909 39.3477273,14.2827273 C39.1445455,14.1572727 38.8295455,14.085 38.7490909,13.9077273 C38.5690909,13.5122727 38.325,12.9954545 38.4531818,12.66 C38.5513636,12.3995455 39.1636364,12.2672727 39.5645455,12.21 C39.7827273,12.1813636 40.0486364,12.4131818 40.2777273,12.5536364 C45.8427273,15.9627273 49.0827273,20.9168182 50.1136364,27.3463636 C50.8595455,31.9786364 51.2127273,36.645 51.1718182,43.0418182 Z" id="Shape" fill="#000000"></path>
                <path d="M59.8772727,28.2859091 C59.8772727,28.5872727 59.8772727,28.8859091 59.8772727,29.1872727 C59.8786364,29.8159091 59.5377273,30.1513636 58.9377273,30.15 C58.2777273,30.1486364 58.0363636,29.73 57.9627273,29.0986364 C57.7568182,27.3136364 57.6163636,25.5095455 57.2427273,23.7586364 C54.9736364,13.1127273 45.7963636,4.34863636 35.0809091,2.51045455 C34.9622727,2.49 34.8409091,2.48590909 34.7222727,2.46409091 C33.8154545,2.28818182 33.3436364,1.83 33.5127273,1.22590909 C33.75,0.380454545 34.3990909,0.364090909 35.1054545,0.515454545 C47.8745455,3.25363636 55.9363636,10.9309091 59.2186364,23.5731818 C59.6154545,25.1018182 59.7340909,26.7027273 59.9822727,28.2695455 C59.9468182,28.275 59.9127273,28.2804545 59.8772727,28.2859091 Z" id="Shape" fill="#000000"></path>
                <path d="M4.74954545,45.855 C4.79727273,45.7009091 4.84227273,45.5277273 4.90772727,45.3627273 C6.02045455,42.5318182 5.96454545,39.6122727 5.55818182,36.6668182 C5.17909091,33.9368182 4.71,31.2286364 4.905,28.4386364 C5.31818182,22.5231818 7.49318182,17.3754545 11.5036364,13.0377273 C12.6968182,11.7463636 14.1272727,10.6704545 15.4704545,9.51954545 C16.0131818,9.05454545 16.6336364,8.92772727 17.0986364,9.615 C17.5431818,10.2709091 17.1463636,10.7304545 16.6118182,11.1190909 C11.6904545,14.6904545 8.54863636,19.4318182 7.28181818,25.3922727 C6.62590909,28.4890909 6.72818182,31.5804545 7.24772727,34.6909091 C7.87363636,38.4409091 8.21454545,42.21 6.78272727,45.8740909 C6.62590909,46.2763636 6.17863636,46.74 5.78318182,46.8381818 C5.16954545,46.9895455 4.815,46.5095455 4.74954545,45.855 Z" id="Shape" fill="#000000"></path>
                <path d="M28.77,0.0163636364 C30.0709091,0.0463636364 30.6381818,0.306818182 30.6095455,1.01727273 C30.5631818,2.18318182 29.6263636,2.03727273 28.8722727,2.07136364 C21.5604545,2.40545455 15.3163636,5.18045455 10.1195455,10.3118182 C8.01,12.3954545 6.30272727,14.7886364 4.97454545,17.4436364 C4.66772727,18.0572727 4.305,18.5577273 3.51954545,18.2386364 C2.88136364,17.9781818 2.76954545,17.4054545 3.22090909,16.5531818 C7.76727273,7.95409091 14.7831818,2.61 24.3190909,0.631363636 C25.7795455,0.327272727 27.2836364,0.216818182 28.77,0.0163636364 Z" id="Shape" fill="#000000"></path>
                <path d="M46.4645455,39.8863636 C46.4372727,45.2127273 45.6381818,50.4177273 44.3509091,55.5572727 C44.2731818,55.8695455 44.175,56.2895455 43.9486364,56.4231818 C43.6377273,56.6045455 43.0336364,56.7354545 42.8468182,56.5663636 C42.5618182,56.3086364 42.3490909,55.7427273 42.4159091,55.3622727 C42.8209091,53.0318182 43.3827273,50.7259091 43.7618182,48.3927273 C44.3768182,44.6209091 44.58,40.8177273 44.3440909,36.9968182 C44.1136364,33.2495455 43.7727273,29.5213636 42.8277273,25.8722727 C42.6681818,25.2572727 42.7609091,24.6845455 43.4631818,24.4977273 C44.1531818,24.315 44.5827273,24.7295455 44.7027273,25.3568182 C45.1445455,27.6518182 45.6490909,29.94 45.9245455,32.2554545 C46.2231818,34.7863636 46.2940909,37.3431818 46.4645455,39.8863636 Z" id="Shape" fill="#000000"></path>
                <path d="M3.11454545,21.7213636 C2.80227273,23.3413636 2.50363636,24.7159091 2.28,26.1054545 C1.62136364,30.2086364 2.01545455,34.2395455 3.19772727,38.2063636 C3.55636364,39.405 3.45,39.9054545 2.76545455,40.1263636 C2.10409091,40.3390909 1.66227273,39.9422727 1.32136364,38.7968182 C-0.353181818,33.1936364 -0.410454545,27.5727273 1.12636364,21.9286364 C1.28318182,21.3518182 1.55318182,20.8609091 2.18181818,20.91 C2.49272727,20.9345455 2.78863636,21.2986364 3.06,21.5454545 C3.15136364,21.6286364 3.14045455,21.8222727 3.11454545,21.7213636 Z" id="Shape" fill="#000000"></path>
                <path d="M36.4418182,45.1254545 C35.8854545,49.3595455 34.8531818,53.4777273 33.4363636,57.5045455 C33.2877273,57.93 33.1309091,58.3513636 32.9727273,58.7727273 C32.5813636,59.8118182 32.1136364,60.1786364 31.4740909,59.8881818 C30.5781818,59.4777273 30.8972727,58.7877273 31.1086364,58.1168182 C31.8490909,55.7754545 32.6604545,53.4504545 33.2795455,51.0777273 C33.8086364,49.0540909 34.1372727,46.9731818 34.5013636,44.91 C34.6227273,44.2254545 34.8640909,43.7086364 35.6086364,43.7809091 C36.3818182,43.8572727 36.5304545,44.4436364 36.4418182,45.1254545 Z" id="Shape" fill="url(#linearGradient-1)"></path>
                <path d="M16.3036364,47.3031818 C16.1890909,47.7477273 16.1522727,47.985 16.0663636,48.2059091 C15.3668182,49.9909091 14.6740909,51.7745455 13.9459091,53.5459091 C13.6895455,54.1690909 13.2695455,54.6995455 12.4977273,54.3286364 C11.745,53.9659091 11.9004545,53.3563636 12.165,52.7113636 C12.9027273,50.9086364 13.6077273,49.095 14.3113636,47.2813636 C14.5213636,46.7386364 14.8881818,46.3568182 15.4581818,46.5463636 C15.8086364,46.665 16.0595455,47.0740909 16.3036364,47.3031818 Z" id="Shape" fill="#000000"></path>
                <path d="M54.0040909,41.7722727 C54.0040909,40.8109091 54.0054545,39.8495455 54.0027273,38.8881818 C54.0013636,38.2172727 54.2604545,37.7727273 54.9981818,37.785 C55.6909091,37.7986364 55.9172727,38.2295455 55.9118182,38.8636364 C55.8940909,40.755 55.8940909,42.645 55.8722727,44.5363636 C55.8654545,45.2263636 55.6827273,45.8154545 54.8263636,45.8127273 C54.1309091,45.81 53.82,45.3286364 53.8759091,44.3822727 C53.9277273,43.5109091 53.9863636,42.6436364 54.0422727,41.775 C54.0286364,41.775 54.015,41.7722727 54.0040909,41.7722727 Z" id="Shape" fill="#000000"></path>
            </g>
        </g>
    </g>
</svg>