<?xml version="1.0" encoding="UTF-8"?>
<svg width="68px" height="60px" viewBox="0 0 68 60" version="1.1" xmlns="http://www.w3.org/2000/svg" xmlns:xlink="http://www.w3.org/1999/xlink">
    <!-- Generator: Sketch 46.2 (44496) - http://www.bohemiancoding.com/sketch -->
    <title>noun_1351107_cc</title>
    <desc>Created with Sketch.</desc>
    <defs>
        <linearGradient x1="2.21420599%" y1="58.5698485%" x2="100%" y2="58.5698485%" id="linearGradient-1">
            <stop stop-color="#4BAD00" offset="0%"></stop>
            <stop stop-color="#71DF55" offset="100%"></stop>
        </linearGradient>
    </defs>
    <g id="Our-Panel" stroke="none" stroke-width="1" fill="none" fill-rule="evenodd">
        <g id="03-Our-panel" transform="translate(-595.000000, -1584.000000)">
            <g id="noun_1351107_cc" transform="translate(595.000000, 1584.000000)">
                <g id="Group">
                    <path d="M50.5945946,33.972973 L50.5945946,18.2432432 C50.5945946,17.7567568 50.2702703,17.4324324 49.7837838,17.4324324 L12.5675676,17.4324324 C12.0810811,17.4324324 11.7567568,17.7567568 11.7567568,18.2432432 L11.7567568,43.3783784 C11.7567568,43.8648649 12.0810811,44.1891892 12.5675676,44.1891892 L40.2162162,44.1891892 C40.9459459,48.4864865 44.5945946,51.7297297 49.0540541,51.7297297 C54,51.7297297 58.0540541,47.6756757 58.0540541,42.7297297 C57.972973,38.3513514 54.8108108,34.7027027 50.5945946,33.972973 Z M40.0540541,42.5675676 L14.6756757,42.5675676 L27.5675676,30.8108108 L30.1621622,32.6756757 C30.3243243,32.7567568 30.4864865,32.8378378 30.6486486,32.8378378 C30.8108108,32.8378378 30.972973,32.7567568 31.1351351,32.6756757 L33.972973,30.7297297 L41.8378378,37.5405405 C40.7027027,39 40.0540541,40.7027027 40.0540541,42.5675676 Z M13.3783784,20.6756757 L26.1891892,29.8378378 L13.3783784,41.5945946 L13.3783784,20.6756757 Z M30.6486486,31.0540541 L13.8648649,19.0540541 L48.3243243,19.0540541 L30.6486486,31.0540541 Z M42.8108108,36.3243243 L35.2702703,29.8378378 L48.8918919,20.6756757 L48.8918919,33.8108108 C46.5405405,33.8108108 44.3513514,34.7837838 42.8108108,36.3243243 Z M49.0540541,50.1081081 C45,50.1081081 41.6756757,46.7837838 41.6756757,42.7297297 C41.6756757,38.6756757 45,35.3513514 49.0540541,35.3513514 C53.1081081,35.3513514 56.4324324,38.6756757 56.4324324,42.7297297 C56.4324324,46.7837838 53.1081081,50.1081081 49.0540541,50.1081081 Z" id="Combined-Shape" fill="url(#linearGradient-1)" fill-rule="nonzero"></path>
                    <path d="M53.2702703,39.4054054 L47.6756757,45 L45.3243243,42.8108108 C45,42.4864865 44.5135135,42.4864865 44.1891892,42.8108108 C43.8648649,43.1351351 43.8648649,43.6216216 44.1891892,43.9459459 L47.1081081,46.6216216 C47.2702703,46.7837838 47.4324324,46.8648649 47.6756757,46.8648649 C47.9189189,46.8648649 48.0810811,46.7837838 48.2432432,46.6216216 L54.4054054,40.4594595 C54.7297297,40.1351351 54.7297297,39.6486486 54.4054054,39.3243243 C54.0810811,39 53.5945946,39.0810811 53.2702703,39.4054054 Z" id="Shape" fill="url(#linearGradient-1)"></path>
                    <path d="M66.6486486,0.72972973 L1.7027027,0.72972973 C1.05405405,0.72972973 0.486486486,1.2972973 0.486486486,1.94594595 L0.486486486,58.5405405 C0.486486486,59.1891892 1.05405405,59.7567568 1.7027027,59.7567568 L66.6486486,59.7567568 C67.2972973,59.7567568 67.8648649,59.1891892 67.8648649,58.5405405 L67.8648649,1.94594595 C67.8648649,1.2972973 67.2972973,0.72972973 66.6486486,0.72972973 Z M66.2432432,2.35135135 L66.2432432,10.7027027 L2.27027027,10.7027027 C2.27027027,10.7027027 2.18918919,10.7027027 2.18918919,10.7027027 L2.18918919,2.35135135 L66.2432432,2.35135135 Z M2.18918919,58.0540541 L2.18918919,12.3243243 C2.18918919,12.3243243 2.27027027,12.3243243 2.27027027,12.3243243 L66.2432432,12.3243243 L66.2432432,57.972973 L2.18918919,57.972973 L2.18918919,58.0540541 Z" id="Shape" fill="#000000" fill-rule="nonzero"></path>
                    <circle id="Oval" fill="#000000" fill-rule="nonzero" cx="8.18918919" cy="6.72972973" r="1.37837838"></circle>
                    <circle id="Oval" fill="#000000" fill-rule="nonzero" cx="13.6216216" cy="6.72972973" r="1.37837838"></circle>
                    <circle id="Oval" fill="#000000" fill-rule="nonzero" cx="19.0540541" cy="6.72972973" r="1.37837838"></circle>
                </g>
            </g>
        </g>
    </g>
</svg>