<?xml version="1.0" encoding="UTF-8"?>
<svg width="53px" height="59px" viewBox="0 0 53 59" version="1.1" xmlns="http://www.w3.org/2000/svg" xmlns:xlink="http://www.w3.org/1999/xlink">
    <!-- Generator: Sketch 46.2 (44496) - http://www.bohemiancoding.com/sketch -->
    <title>noun_977862_cc</title>
    <desc>Created with Sketch.</desc>
    <defs>
        <linearGradient x1="2.21420599%" y1="58.5698485%" x2="100%" y2="58.5698485%" id="linearGradient-1">
            <stop stop-color="#4BAD00" offset="0%"></stop>
            <stop stop-color="#71DF55" offset="100%"></stop>
        </linearGradient>
    </defs>
    <g id="Our-Panel" stroke="none" stroke-width="1" fill="none" fill-rule="evenodd">
        <g id="03-Our-panel" transform="translate(-945.000000, -1584.000000)" fill-rule="nonzero" fill="url(#linearGradient-1)">
            <g id="noun_977862_cc" transform="translate(945.000000, 1584.000000)">
                <path d="M49.5,38.5 C47.7,36.7 45.4,35.6 43,35.2 C41.1,29.9 36.6,25.9 31.2,24.6 C34.2,22 36,18.2 36,14.1 C36,6.4 29.7,0.1 22,0.1 C14.3,0.1 8,6.4 8,14.1 C8,18.2 9.8,22 12.8,24.6 C5.4,26.4 0,33.1 0,41 L0,47 C0,48.7 1.3,50 3,50 L29.4,50 C29.9,52 30.9,53.9 32.5,55.5 C37.2,60.2 44.8,60.2 49.5,55.5 C54.2,50.8 54.2,43.2 49.5,38.5 Z M29,48 L3,48 C2.4,48 2,47.6 2,47 L2,41 C2,33.3 7.7,26.9 15.4,26.1 L18.3,25.8 L15.8,24.3 C12.2,22 10,18.2 10,14 C10,7.4 15.4,2 22,2 C28.6,2 34,7.4 34,14 C34,18.2 31.8,22 28.2,24.2 L25.7,25.7 L28.6,26 C34,26.6 38.6,30 40.7,34.9 C37.7,35 34.7,36.1 32.5,38.4 C29.9,41.1 28.8,44.6 29,48 Z M46.7,44.7 L40.7,50.7 C40.5,50.9 40.3,51 40,51 C39.7,51 39.5,50.9 39.3,50.7 L35.3,46.7 C34.9,46.3 34.9,45.7 35.3,45.3 C35.7,44.9 36.3,44.9 36.7,45.3 L40,48.6 L45.3,43.3 C45.7,42.9 46.3,42.9 46.7,43.3 C47.1,43.7 47.1,44.3 46.7,44.7 Z" id="Shape"></path>
            </g>
        </g>
    </g>
</svg>