<?xml version="1.0" encoding="UTF-8"?>
<svg width="50px" height="59px" viewBox="0 0 50 59" version="1.1" xmlns="http://www.w3.org/2000/svg" xmlns:xlink="http://www.w3.org/1999/xlink">
    <!-- Generator: Sketch 46.2 (44496) - http://www.bohemiancoding.com/sketch -->
    <title>Group 7</title>
    <desc>Created with Sketch.</desc>
    <defs>
        <linearGradient x1="2.21420599%" y1="58.5698485%" x2="100%" y2="58.5698485%" id="linearGradient-1">
            <stop stop-color="#4BAD00" offset="0%"></stop>
            <stop stop-color="#71DF55" offset="100%"></stop>
        </linearGradient>
    </defs>
    <g id="Our-Panel" stroke="none" stroke-width="1" fill="none" fill-rule="evenodd">
        <g id="03-Our-panel" transform="translate(-245.000000, -1309.000000)">
            <g id="Group-7" transform="translate(245.000000, 1309.000000)">
                <g id="noun_1262925_cc" fill-rule="nonzero" fill="#000000">
                    <g id="Group">
                        <path d="M2.28797608,0.234872275 C1.22133583,0.234872275 0.342380688,1.11382742 0.342380688,2.18046766 L0.342380688,52.7659737 C0.342380688,53.8326139 1.22133583,54.7115691 2.28797608,54.7115691 L39.9028202,54.7115691 C40.9694605,54.7115691 41.8484156,53.8326139 41.8484156,52.7659737 L41.8484156,2.18046766 C41.8484156,1.11382742 40.9694605,0.234872275 39.9028202,0.234872275 L2.28797608,0.234872275 Z M2.28797608,1.53193587 L39.9028202,1.53193587 C40.2733265,1.53193587 40.551352,1.80996145 40.551352,2.18046766 L40.551352,52.7659737 C40.551352,53.1364799 40.2733265,53.4145055 39.9028202,53.4145055 L2.28797608,53.4145055 C1.91746986,53.4145055 1.63944428,53.1364799 1.63944428,52.7659737 L1.63944428,2.18046766 C1.63944428,1.80996145 1.91746986,1.53193587 2.28797608,1.53193587 Z M15.258612,8.01725383 C14.9004279,8.01725383 14.6100802,8.30760151 14.6100802,8.66578562 C14.6100802,9.02396974 14.9004279,9.31431742 15.258612,9.31431742 L26.9321843,9.31431742 C27.2903684,9.31431742 27.5807161,9.02396974 27.5807161,8.66578562 C27.5807161,8.30760151 27.2903684,8.01725383 26.9321843,8.01725383 L15.258612,8.01725383 Z M21.0953982,18.3937626 C17.5213394,18.3937626 14.6100802,21.3050218 14.6100802,24.8790805 C14.6100802,28.4531652 17.5213394,31.3644244 21.0953982,31.3644244 C24.6694569,31.3644244 27.5807161,28.4531652 27.5807161,24.8790805 C27.5807161,21.3050218 24.6694569,18.3937626 21.0953982,18.3937626 Z M21.0953982,19.6908262 C23.968394,19.6908262 26.2836525,22.0060198 26.2836525,24.8790805 C26.2836525,27.7521672 23.968394,30.0673608 21.0953982,30.0673608 C18.2224023,30.0673608 15.9071438,27.7521672 15.9071438,24.8790805 C15.9071438,22.0060198 18.2224023,19.6908262 21.0953982,19.6908262 Z M21.0953982,35.2556152 C17.3842398,35.2556152 14.0085021,36.3597406 11.5295542,38.295608 C9.05060623,40.2314754 7.47623044,43.0300198 7.47623044,46.2806557 C7.4762953,46.620227 7.78519099,46.9291227 8.12476224,46.9291875 L34.0660341,46.9291875 C34.4056053,46.9291227 34.714501,46.620227 34.7145659,46.2806557 C34.7145659,43.0300198 33.1401901,40.2314754 30.6612422,38.295608 C28.1822942,36.3597406 24.8065565,35.2556152 21.0953982,35.2556152 L21.0953982,35.2556152 Z M21.0953982,36.5526788 C24.5477923,36.5526788 27.6552973,37.5787858 29.8708116,39.3089389 C31.9108332,40.9019276 33.1443407,43.0852099 33.3364358,45.6321239 L8.85436051,45.6321239 C9.04645563,43.0852099 10.2799631,40.9019276 12.3199847,39.3089389 C14.5354342,37.5787858 17.6430689,36.5526788 21.0953982,36.5526788 Z" id="Shape"></path>
                    </g>
                </g>
                <g id="noun_1414959_cc" transform="translate(30.480994, 39.560440)">
                    <g id="Group">
                        <path d="M9.72797694,0.736004499 C4.76979318,0.736004499 0.736004499,4.76979318 0.736004499,9.72797694 C0.736004499,14.6861607 4.76979318,18.7199494 9.72797694,18.7199494 C14.6861607,18.7199494 18.7199494,14.6861607 18.7199494,9.72797694 C18.7199494,4.76979318 14.6861607,0.736004499 9.72797694,0.736004499 Z" id="Shape" fill="url(#linearGradient-1)" fill-rule="nonzero"></path>
                        <path d="M9.72797694,0.118633865 C4.42931399,0.118633865 0.118633865,4.42931399 0.118633865,9.72797694 C0.118633865,15.0266399 4.42931399,19.33732 9.72797694,19.33732 C15.0266399,19.33732 19.33732,15.0266399 19.33732,9.72797694 C19.33732,4.42931399 15.0266399,0.118633865 9.72797694,0.118633865 Z M9.72797694,19.1000523 C4.56028578,19.1000523 0.355901595,14.8956681 0.355901595,9.72797694 C0.355901595,4.56028578 4.56028578,0.355901595 9.72797694,0.355901595 C14.8956681,0.355901595 19.1000523,4.56028578 19.1000523,9.72797694 C19.1000523,14.8956681 14.8956681,19.1000523 9.72797694,19.1000523 Z" id="Shape" fill="#000000" fill-rule="nonzero"></path>
                        <polygon id="Path" fill="#FFFFFF" points="7.17568797 14.5767803 3.38747139 10.788801 4.19252079 9.98351429 7.17568797 12.9666815 15.2634331 4.87917361 16.068957 5.68422301"></polygon>
                    </g>
                </g>
            </g>
        </g>
    </g>
</svg>