<?xml version="1.0" encoding="UTF-8"?>
<svg width="40px" height="60px" viewBox="0 0 40 60" version="1.1" xmlns="http://www.w3.org/2000/svg" xmlns:xlink="http://www.w3.org/1999/xlink">
    <!-- Generator: Sketch 46.2 (44496) - http://www.bohemiancoding.com/sketch -->
    <title>noun_1175449_cc</title>
    <desc>Created with Sketch.</desc>
    <defs>
        <linearGradient x1="2.21420599%" y1="58.5698485%" x2="100%" y2="58.5698485%" id="linearGradient-1">
            <stop stop-color="#4BAD00" offset="0%"></stop>
            <stop stop-color="#71DF55" offset="100%"></stop>
        </linearGradient>
    </defs>
    <g id="Our-Panel" stroke="none" stroke-width="1" fill="none" fill-rule="evenodd">
        <g id="03-Our-panel" transform="translate(-245.000000, -1590.000000)" fill-rule="nonzero">
            <g id="noun_1175449_cc" transform="translate(245.000000, 1590.000000)">
                <g id="Group">
                    <path d="M38.75,9.375 L1.25,9.375 C0.904541,9.375 0.625,9.095459 0.625,8.75 L0.625,5 C0.625,2.58789062 2.58789062,0.625 5,0.625 L35,0.625 C37.4121094,0.625 39.375,2.58789062 39.375,5 L39.375,8.75 C39.375,9.095459 39.095459,9.375 38.75,9.375 Z M1.875,8.125 L38.125,8.125 L38.125,5 C38.125,3.2769775 36.7236327,1.875 35,1.875 L5,1.875 C3.27636712,1.875 1.875,3.2769775 1.875,5 L1.875,8.125 Z" id="Shape" fill="#000000"></path>
                    <path d="M35,59.375 L5,59.375 C2.58789062,59.375 0.625,57.4121094 0.625,55 L0.625,48.75 C0.625,48.404541 0.904541,48.125 1.25,48.125 L38.75,48.125 C39.095459,48.125 39.375,48.404541 39.375,48.75 L39.375,55 C39.375,57.4121094 37.4121094,59.375 35,59.375 Z M1.875,49.375 L1.875,55 C1.875,56.7230225 3.27636725,58.125 5,58.125 L35,58.125 C36.7236329,58.125 38.125,56.7230225 38.125,55 L38.125,49.375 L1.875,49.375 Z" id="Shape" fill="#000000"></path>
                    <path d="M38.75,49.375 L1.25,49.375 C0.904541,49.375 0.625,49.095459 0.625,48.75 L0.625,8.75 C0.625,8.404541 0.904541,8.125 1.25,8.125 L38.75,8.125 C39.095459,8.125 39.375,8.404541 39.375,8.75 L39.375,48.75 C39.375,49.095459 39.095459,49.375 38.75,49.375 Z M1.875,48.125 L38.125,48.125 L38.125,9.375 L1.875,9.375 L1.875,48.125 Z" id="Shape" fill="#000000"></path>
                    <path d="M23.125,54.375 L16.875,54.375 C16.529541,54.375 16.25,54.095459 16.25,53.75 C16.25,53.404541 16.529541,53.125 16.875,53.125 L23.125,53.125 C23.470459,53.125 23.75,53.404541 23.75,53.75 C23.75,54.095459 23.470459,54.375 23.125,54.375 Z" id="Shape" fill="#000000"></path>
                    <path d="M20,41.1688232 C13.1518555,41.1688232 7.58056638,35.5975341 7.58056638,28.75 C7.58056638,21.9018555 13.1518555,16.3305664 20,16.3305664 C26.8469239,16.3305664 32.4182129,21.9018555 32.4182129,28.75 C32.4182129,35.5975341 26.8469239,41.1688232 20,41.1688232 Z M20,17.5805664 C13.8415527,17.5805664 8.83056638,22.5909424 8.83056638,28.75 C8.83056638,34.9084472 13.8415528,39.9188232 20,39.9188232 C26.1584472,39.9188232 31.1682129,34.9084472 31.1682129,28.75 C31.1682129,22.5909424 26.1584472,17.5805664 20,17.5805664 Z" id="Shape" fill="url(#linearGradient-1)"></path>
                    <path d="M17.96875,32.96875 C17.8088379,32.96875 17.6538086,32.9071045 17.5366211,32.7954101 L13.9428711,29.3579101 C13.6938476,29.1192626 13.6853027,28.7237549 13.9233399,28.474121 C14.1638184,28.2257079 14.5593262,28.2165526 14.807129,28.4545898 L17.8564454,31.3714599 C19.0148926,29.6520995 22.3535157,25.0909423 25.5175782,24.5404051 C25.8496095,24.4830321 26.1816407,24.7076415 26.2402345,25.0494384 C26.300049,25.3894043 26.0717775,25.7128905 25.732422,25.7720946 C23.0139161,26.2445068 19.5898439,30.9136963 18.499756,32.6727294 C18.400879,32.8332519 18.2348634,32.9400634 18.0480959,32.9638671 C18.0212402,32.966919 17.9943847,32.96875 17.96875,32.96875 Z" id="Shape" fill="#000000"></path>
                </g>
            </g>
        </g>
    </g>
</svg>