
<svg width="15px" height="14px" viewBox="0 0 15 14" version="1.1" xmlns="http://www.w3.org/2000/svg" xmlns:xlink="http://www.w3.org/1999/xlink">
    <!-- Generator: Sketch 46.2 (44496) - http://www.bohemiancoding.com/sketch -->
    <desc>Created with Sketch.</desc>
    <defs>
        <linearGradient x1="11.2567189%" y1="8.91869577%" x2="85.7625028%" y2="97.7128021%" id="linearGradient-1">
            <stop stop-color="#777777" offset="0%"></stop>
            <stop stop-color="#000000" offset="100%"></stop>
        </linearGradient>
    </defs>
    <g id="Page-1" stroke="none" stroke-width="1" fill="none" fill-rule="evenodd">
        <g id="LANDING_MOBILE" transform="translate(-58.000000, -6600.000000)" fill-rule="nonzero" fill="url(#linearGradient-1)">
            <g id="Group-48" transform="translate(33.000000, 6584.000000)">
                <g id="Group-42">
                    <path d="M36.6942092,26.8805784 L36.6942092,25.0117007 L37.7137079,25.0117007 C38.1659789,24.2432081 38.9906188,23.7714569 39.8817195,23.7714569 L40,23.7714569 L40,28.1208385 L39.8817195,28.1208385 C38.9906025,28.1208385 38.1659789,27.6490872 37.7137079,26.8805784 L36.6942092,26.8805784 Z M25.7258991,22.207451 L36.126722,22.207451 L36.126722,29.6848281 L25.7258991,29.6848281 L25.7258991,22.207451 Z M33.8159793,21.6375812 C33.4016002,21.6050751 32.9854214,21.4818995 32.6316337,21.2810535 C31.8308445,20.8264559 31.290159,19.9879204 31.2110351,19.0693775 C31.1969452,18.9057763 31.196929,18.7411688 31.2110351,18.5775514 C31.335558,17.133378 32.5460242,16 34.0211665,16 C35.579097,16 36.8420639,17.2641 36.8420639,18.8234644 C36.8420639,20.313711 35.6885571,21.5341558 34.2264995,21.6394475 C34.0914376,21.6491847 33.9538138,21.6483895 33.8159793,21.6375812 Z M27.6155177,21.6375812 C27.2011387,21.6050751 26.7849598,21.4818995 26.4311721,21.2810535 C25.6303829,20.8264559 25.0896974,19.9879204 25.0105735,19.0693775 C24.9964836,18.9057763 24.9964674,18.7411688 25.0105735,18.5775514 C25.1350964,17.133378 26.3455626,16 27.8207049,16 C29.3786354,16 30.6416023,17.2641 30.6416023,18.8234644 C30.6416023,20.313711 29.4880955,21.5341558 28.0260379,21.6394475 C27.890976,21.6491847 27.7533523,21.6483895 27.6155177,21.6375812 Z" id="Combined-Shape"></path>
                </g>
            </g>
        </g>
    </g>
</svg>
