
<svg width="17px" height="23px" viewBox="0 0 17 23" version="1.1" xmlns="http://www.w3.org/2000/svg" xmlns:xlink="http://www.w3.org/1999/xlink">
    <!-- Generator: Sketch 46.2 (44496) - http://www.bohemiancoding.com/sketch -->
    <desc>Created with Sketch.</desc>
    <defs>
        <linearGradient x1="1.30141901%" y1="50%" x2="98.7603635%" y2="50%" id="linearGradient-1">
            <stop stop-color="#1A2980" offset="0%"></stop>
            <stop stop-color="#26D0CE" offset="100%"></stop>
        </linearGradient>
    </defs>
    <g id="Page-1" stroke="none" stroke-width="1" fill="none" fill-rule="evenodd">
        <g id="LANDING_MOBILE" transform="translate(-57.000000, -6549.000000)" stroke="#FFFFFF" stroke-width="0.75" fill="url(#linearGradient-1)" fill-rule="nonzero">
            <g id="Group-47" transform="translate(33.000000, 6537.000000)">
                <path d="M39.6235051,18.1507367 L29.982064,13.1904048 C28.6616533,12.4959327 26.0576885,13.8376092 25.3096272,15.0182332 C24.9755603,15.5456642 25.0004171,15.9270143 25.0004171,16.1423926 L25.1193441,27.3439907 C25.1272725,27.5816127 25.4274827,27.9026483 25.6844078,28.0600649 C26.2192578,28.3875169 34.3193625,33.4351124 34.5490737,33.577985 C34.6725006,33.6545544 34.8182129,33.6902726 34.962211,33.6902726 C35.0847807,33.6902726 35.2077791,33.6631097 35.3192061,33.6079283 C35.5626314,33.4885826 35.7141294,33.2567355 35.7141294,33.0047835 L35.7141294,21.2393946 C35.7141294,20.9945007 35.5709885,20.7682144 35.3378487,20.6458744 L26.5745387,15.7629674 C26.6737516,15.5706883 27.0637463,15.1638863 27.7803081,14.7893804 C28.5352264,14.3947696 29.1007188,14.5438448 29.2305742,14.593893 C29.2305742,14.593893 37.6407462,19.0862529 37.8980998,19.2199287 C38.1541678,19.3533905 38.1593106,19.3734953 38.1593106,19.6019204 C38.1593106,19.8301316 38.1593106,30.7665171 38.1593106,30.7665171 C38.1593106,31.3234636 38.7260887,31.551461 39.141583,31.551461 C39.5568631,31.551461 40,31.1450867 40,30.7665171 L40,18.7444708 C39.9997857,18.4995769 39.8557877,18.2730768 39.6235051,18.1507367 Z" id="Shape"></path>
            </g>
        </g>
    </g>
</svg>
