
<svg width="29px" height="25px" viewBox="0 0 29 25" version="1.1" xmlns="http://www.w3.org/2000/svg" xmlns:xlink="http://www.w3.org/1999/xlink">
    <!-- Generator: Sketch 46.2 (44496) - http://www.bohemiancoding.com/sketch -->
    <desc>Created with Sketch.</desc>
    <defs>
        <linearGradient x1="2.36567283%" y1="50%" x2="99.4040976%" y2="50%" id="linearGradient-1">
            <stop stop-color="#24C6DC" offset="0%"></stop>
            <stop stop-color="#514A9D" offset="100%"></stop>
        </linearGradient>
    </defs>
    <g id="Page-1" stroke="none" stroke-width="1" fill="none" fill-rule="evenodd">
        <g id="LANDING" transform="translate(-237.000000, -7722.000000)" fill="url(#linearGradient-1)">
            <g id="Group-61" transform="translate(219.000000, 7352.000000)">
                <g id="trends" transform="translate(0.000000, 350.000000)">
                    <g id="highlighted">
                        <path d="M23.8672405,40.1181646 L23.8672405,42.0743216 L21.9116987,42.0743216 L21.9116987,44.0297095 L19.9555418,44.0297095 L19.9555418,42.0743216 L18,42.0743216 L18,40.1181646 L19.9555418,40.1181646 L19.9555418,38.1626228 L21.9116987,38.1626228 L21.9116987,40.1181646 L23.8672405,40.1181646 Z M28.5231678,31.7198702 L28.5231678,33.6760271 L26.567626,33.6760271 L26.567626,35.6315689 L24.6116229,35.6315689 L24.6116229,33.6760271 L22.6560811,33.6760271 L22.6560811,31.7198702 L24.6116229,31.7198702 L24.6116229,29.7644822 L26.567626,29.7644822 L26.567626,31.7198702 L28.5231678,31.7198702 Z M34.3904083,37.1846213 L34.3904083,39.1406244 L32.4348665,39.1406244 L32.4348665,41.0961662 L30.4787096,41.0961662 L30.4787096,39.1406244 L28.5231678,39.1406244 L28.5231678,37.1846213 L30.4787096,37.1846213 L30.4787096,35.2290795 L32.4348665,35.2290795 L32.4348665,37.1846213 L34.3904083,37.1846213 Z M37.3239517,29.2206524 L37.3239517,31.1768094 L35.3684099,31.1768094 L35.3684099,33.1323511 L33.4122529,33.1323511 L33.4122529,31.1768094 L31.4567112,31.1768094 L31.4567112,29.2206524 L33.4122529,29.2206524 L33.4122529,27.2652645 L35.3684099,27.2652645 L35.3684099,29.2206524 L37.3239517,29.2206524 Z M45.664418,30.2804745 L45.664418,32.2366315 L43.7088763,32.2366315 L43.7088763,34.1921733 L41.7534883,34.1921733 L41.7534883,32.2366315 L39.7973313,32.2366315 L39.7973313,30.2804745 L41.7534883,30.2804745 L41.7534883,28.3249328 L43.7088763,28.3249328 L43.7088763,30.2804745 L45.664418,30.2804745 Z M47,21.9555418 L47,23.9110835 L45.043843,23.9110835 L45.043843,25.8672405 L43.0883013,25.8672405 L43.0883013,23.9110835 L41.1321443,23.9110835 L41.1321443,21.9555418 L43.0883013,21.9555418 L43.0883013,20 L45.043843,20 L45.043843,21.9555418 L47,21.9555418 Z" id="Combined-Shape"></path>
                    </g>
                </g>
            </g>
        </g>
    </g>
</svg>
