
<svg width="24px" height="33px" viewBox="0 0 24 33" version="1.1" xmlns="http://www.w3.org/2000/svg" xmlns:xlink="http://www.w3.org/1999/xlink">
    <!-- Generator: Sketch 46.2 (44496) - http://www.bohemiancoding.com/sketch -->
    <desc>Created with Sketch.</desc>
    <defs>
        <linearGradient x1="11.2567189%" y1="8.91869577%" x2="85.7625028%" y2="97.7128021%" id="linearGradient-1">
            <stop stop-color="#777777" offset="0%"></stop>
            <stop stop-color="#000000" offset="100%"></stop>
        </linearGradient>
    </defs>
    <g id="Page-1" stroke="none" stroke-width="1" fill="none" fill-rule="evenodd">
        <g id="LANDING" transform="translate(-240.000000, -7488.000000)" stroke="#FFFFFF" stroke-width="1.5" fill="url(#linearGradient-1)" fill-rule="nonzero">
            <g id="Group-61" transform="translate(219.000000, 7352.000000)">
                <g id="blogs" transform="translate(0.000000, 120.000000)">
                    <path d="M43.4478075,24.5544139 L29.3070272,17.2792604 C27.3704248,16.2607013 23.5512765,18.2284935 22.4541199,19.9600754 C21.9641551,20.7336408 22.0006117,21.2929543 22.0006117,21.6088425 L22.1750379,38.0378531 C22.1866664,38.3863653 22.6269747,38.8572175 23.0037982,39.0880951 C23.7882447,39.5683582 35.6683984,46.9714981 36.0053081,47.1810446 C36.1863342,47.2933465 36.4000456,47.3457331 36.6112428,47.3457331 C36.7910118,47.3457331 36.9714093,47.3058942 37.1348357,47.2249616 C37.4918594,47.0499212 37.7140564,46.7098787 37.7140564,46.3403491 L37.7140564,29.0844454 C37.7140564,28.7252676 37.5041164,28.3933811 37.1621782,28.2139491 L24.3093234,21.0523522 C24.4548357,20.7703428 25.026828,20.1736999 26.0777852,19.6244246 C27.1849988,19.0456621 28.0143876,19.2643057 28.2048421,19.3377097 C28.2048421,19.3377097 40.5397611,25.9265043 40.9172131,26.122562 C41.2927795,26.3183061 41.3003222,26.3477932 41.3003222,26.6828166 C41.3003222,27.0175264 41.3003222,43.0575584 41.3003222,43.0575584 C41.3003222,43.8744133 42.1315967,44.2088094 42.7409885,44.2088094 C43.3500659,44.2088094 44,43.6127939 44,43.0575584 L44,25.4252239 C43.9996857,25.0660461 43.7884886,24.7338459 43.4478075,24.5544139 Z" id="Shape"></path>
                </g>
            </g>
        </g>
    </g>
</svg>
