
<svg width="25px" height="23px" viewBox="0 0 25 23" version="1.1" xmlns="http://www.w3.org/2000/svg" xmlns:xlink="http://www.w3.org/1999/xlink">
    <!-- Generator: Sketch 46.2 (44496) - http://www.bohemiancoding.com/sketch -->
    <desc>Created with Sketch.</desc>
    <defs>
        <linearGradient x1="0%" y1="50%" x2="100%" y2="50%" id="linearGradient-1">
            <stop stop-color="#FC4A1A" offset="0%"></stop>
            <stop stop-color="#F7B733" offset="100%"></stop>
        </linearGradient>
    </defs>
    <g id="Page-1" stroke="none" stroke-width="1" fill="none" fill-rule="evenodd">
        <g id="LANDING" transform="translate(-239.000000, -7608.000000)" fill-rule="nonzero" fill="url(#linearGradient-1)">
            <g id="Group-61" transform="translate(219.000000, 7352.000000)">
                <g id="videos" transform="translate(0.000000, 235.000000)">
                    <g id="highlighted">
                        <path d="M39.4903486,39.1342973 L39.4903486,36.0195012 L41.1895131,36.0195012 C41.9432982,34.7386802 43.3176979,33.9524281 44.8028658,33.9524281 L45,33.9524281 L45,41.2013974 L44.8028658,41.2013974 C43.3176709,41.2013974 41.9432982,40.4151453 41.1895131,39.1342973 L39.4903486,39.1342973 Z M21.2098319,31.3457517 L38.5445367,31.3457517 L38.5445367,43.8080468 L21.2098319,43.8080468 L21.2098319,31.3457517 Z M34.6932989,30.3959686 C34.0026671,30.3417919 33.3090357,30.1364992 32.7193895,29.8017558 C31.3847409,29.0440931 30.4835983,27.646534 30.3517251,26.1156292 C30.328242,25.8429604 30.328215,25.5686147 30.3517251,25.2959189 C30.5592633,22.8889634 32.576707,21 35.0352774,21 C37.6318283,21 39.7367731,23.1068333 39.7367731,25.7057741 C39.7367731,28.1895183 37.8142619,30.2235931 35.3774992,30.3990791 C35.152396,30.4153078 34.9230231,30.4139824 34.6932989,30.3959686 Z M24.3591962,30.3959686 C23.6685644,30.3417919 22.974933,30.1364992 22.3852869,29.8017558 C21.0506382,29.0440931 20.1494957,27.646534 20.0176225,26.1156292 C19.9941393,25.8429604 19.9941123,25.5686147 20.0176225,25.2959189 C20.2251607,22.8889634 22.2426044,21 24.7011748,21 C27.2977256,21 29.4026705,23.1068333 29.4026705,25.7057741 C29.4026705,28.1895183 27.4801592,30.2235931 25.0433966,30.3990791 C24.8182933,30.4153078 24.5889204,30.4139824 24.3591962,30.3959686 Z" id="Combined-Shape"></path>
                    </g>
                </g>
            </g>
        </g>
    </g>
</svg>
