
<svg width="25px" height="23px" viewBox="0 0 25 23" version="1.1" xmlns="http://www.w3.org/2000/svg" xmlns:xlink="http://www.w3.org/1999/xlink">
    <!-- Generator: Sketch 46.2 (44496) - http://www.bohemiancoding.com/sketch -->
    <desc>Created with Sketch.</desc>
    <defs>
        <linearGradient x1="0%" y1="50%" x2="100%" y2="50%" id="linearGradient-1">
            <stop stop-color="#C33764" offset="0%"></stop>
            <stop stop-color="#1D2671" offset="100%"></stop>
        </linearGradient>
    </defs>
    <g id="Page-1" stroke="none" stroke-width="1" fill="none" fill-rule="evenodd">
        <g id="LANDING" transform="translate(-239.000000, -7838.000000)" fill-rule="nonzero" fill="url(#linearGradient-1)">
            <g id="Group-61" transform="translate(219.000000, 7352.000000)">
                <g id="whitepaper" transform="translate(0.000000, 465.000000)">
                    <g id="highlighted">
                        <g id="empty-rectangle" transform="translate(20.000000, 21.000000)">
                            <rect id="Rectangle-path" x="2.27271242" y="0.0327983954" width="20.4545343" height="1.13339846"></rect>
                            <rect id="Rectangle-path" x="1.13635621" y="2.29959532" width="22.7272467" height="1.13339846"></rect>
                            <path d="M0,4.71262013 L0,22.5547028 C0,22.6351709 0.0715686275,22.7008899 0.159109477,22.7008899 L24.8398284,22.7008899 C24.9284314,22.7008899 24.9989379,22.6351709 24.9989379,22.5547028 L24.9989379,4.71262013 C25.0000408,4.63211127 24.9284314,4.56639225 24.8398284,4.56639225 L0.159109477,4.56639225 C0.0715686275,4.56639225 0,4.63211127 0,4.71262013 Z M1.13635621,5.69983146 L23.8636029,5.69983146 L23.8636029,21.5674914 L1.13635621,21.5674914 L1.13635621,5.69983146 Z" id="Shape"></path>
                        </g>
                    </g>
                </g>
            </g>
        </g>
    </g>
</svg>
