
<svg width="15px" height="13px" viewBox="0 0 15 13" version="1.1" xmlns="http://www.w3.org/2000/svg" xmlns:xlink="http://www.w3.org/1999/xlink">
    <!-- Generator: Sketch 46.2 (44496) - http://www.bohemiancoding.com/sketch -->
    <desc>Created with Sketch.</desc>
    <defs>
        <linearGradient x1="11.2567189%" y1="8.91869577%" x2="85.7625028%" y2="97.7128021%" id="linearGradient-1">
            <stop stop-color="#777777" offset="0%"></stop>
            <stop stop-color="#000000" offset="100%"></stop>
        </linearGradient>
    </defs>
    <g id="Page-1" stroke="none" stroke-width="1" fill="none" fill-rule="evenodd">
        <g id="LANDING_MOBILE" transform="translate(-58.000000, -6693.000000)" fill="url(#linearGradient-1)">
            <g id="Group-48" transform="translate(33.000000, 6584.000000)">
                <g id="Group-46" transform="translate(0.000000, 92.000000)">
                    <path d="M28.0347796,27.4059472 L28.0347796,28.4177525 L27.0232924,28.4177525 L27.0232924,29.4291601 L26.0114871,29.4291601 L26.0114871,28.4177525 L25,28.4177525 L25,27.4059472 L26.0114871,27.4059472 L26.0114871,26.3944601 L27.0232924,26.3944601 L27.0232924,27.4059472 L28.0347796,27.4059472 Z M30.4430178,23.0620018 L30.4430178,24.0738071 L29.4315307,24.0738071 L29.4315307,25.0852943 L28.4198049,25.0852943 L28.4198049,24.0738071 L27.4083178,24.0738071 L27.4083178,23.0620018 L28.4198049,23.0620018 L28.4198049,22.0505942 L29.4315307,22.0505942 L29.4315307,23.0620018 L30.4430178,23.0620018 Z M33.4777974,25.8885972 L33.4777974,26.900323 L32.4663103,26.900323 L32.4663103,27.9118101 L31.454505,27.9118101 L31.454505,26.900323 L30.4430178,26.900323 L30.4430178,25.8885972 L31.454505,25.8885972 L31.454505,24.8771101 L32.4663103,24.8771101 L32.4663103,25.8885972 L33.4777974,25.8885972 Z M34.9951474,21.769303 L34.9951474,22.7811083 L33.9836603,22.7811083 L33.9836603,23.7925954 L32.971855,23.7925954 L32.971855,22.7811083 L31.9603678,22.7811083 L31.9603678,21.769303 L32.971855,21.769303 L32.971855,20.7578954 L33.9836603,20.7578954 L33.9836603,21.769303 L34.9951474,21.769303 Z M39.3091817,22.3174868 L39.3091817,23.3292922 L38.2976946,23.3292922 L38.2976946,24.3407793 L37.2862871,24.3407793 L37.2862871,23.3292922 L36.2744817,23.3292922 L36.2744817,22.3174868 L37.2862871,22.3174868 L37.2862871,21.3059997 L38.2976946,21.3059997 L38.2976946,22.3174868 L39.3091817,22.3174868 Z M40,18.0114871 L40,19.0229742 L38.9881947,19.0229742 L38.9881947,20.0347796 L37.9767076,20.0347796 L37.9767076,19.0229742 L36.9649022,19.0229742 L36.9649022,18.0114871 L37.9767076,18.0114871 L37.9767076,17 L38.9881947,17 L38.9881947,18.0114871 L40,18.0114871 Z" id="Combined-Shape"></path>
                </g>
            </g>
        </g>
    </g>
</svg>
