<?xml version="1.0" encoding="UTF-8"?>
<svg width="20px" height="20px" viewBox="0 0 20 20" version="1.1" xmlns="http://www.w3.org/2000/svg" xmlns:xlink="http://www.w3.org/1999/xlink">
    <!-- Generator: Sketch 47.1 (45422) - http://www.bohemiancoding.com/sketch -->
    <title>outline-call-24px</title>
    <desc>Created with Sketch.</desc>
    <defs></defs>
    <g id="Page-1" stroke="none" stroke-width="1" fill="none" fill-rule="evenodd">
        <g id="Careers-Page" transform="translate(-217.000000, -1452.000000)" fill-rule="nonzero" fill="#000000">
            <g id="outline-call-24px" transform="translate(217.000000, 1452.000000)">
                <g id="Outline">
                    <path d="M3.93333333,2.22222222 C4,3.21111111 4.16666667,4.17777778 4.43333333,5.1 L3.1,6.43333333 C2.64444444,5.1 2.35555556,3.68888889 2.25555556,2.22222222 L3.93333333,2.22222222 L3.93333333,2.22222222 Z M14.8888889,15.5777778 C15.8333333,15.8444444 16.8,16.0111111 17.7777778,16.0777778 L17.7777778,17.7333333 C16.3111111,17.6333333 14.9,17.3444444 13.5555556,16.9 L14.8888889,15.5777778 L14.8888889,15.5777778 Z M5,0 L1.11111111,0 C0.5,0 0,0.5 0,1.11111111 C0,11.5444444 8.45555556,20 18.8888889,20 C19.5,20 20,19.5 20,18.8888889 L20,15.0111111 C20,14.4 19.5,13.9 18.8888889,13.9 C17.5111111,13.9 16.1666667,13.6777778 14.9222222,13.2666667 C14.8111111,13.2222222 14.6888889,13.2111111 14.5777778,13.2111111 C14.2888889,13.2111111 14.0111111,13.3222222 13.7888889,13.5333333 L11.3444444,15.9777778 C8.2,14.3666667 5.62222222,11.8 4.02222222,8.65555556 L6.46666667,6.21111111 C6.77777778,5.9 6.86666667,5.46666667 6.74444444,5.07777778 C6.33333333,3.83333333 6.11111111,2.5 6.11111111,1.11111111 C6.11111111,0.5 5.61111111,0 5,0 L5,0 Z" id="Shape"></path>
                </g>
            </g>
        </g>
    </g>
</svg>