<?xml version="1.0" encoding="UTF-8"?>
<svg width="1056px" height="184px" viewBox="0 0 1056 184" version="1.1" xmlns="http://www.w3.org/2000/svg" xmlns:xlink="http://www.w3.org/1999/xlink">
    <!-- Generator: Sketch 46.2 (44496) - http://www.bohemiancoding.com/sketch -->
    <title>Group 51</title>
    <desc>Created with Sketch.</desc>
    <defs>
        <linearGradient x1="2.21420599%" y1="58.5698485%" x2="100%" y2="58.5698485%" id="linearGradient-1">
            <stop stop-color="#4BAD00" offset="0%"></stop>
            <stop stop-color="#71DF55" offset="100%"></stop>
        </linearGradient>
    </defs>
    <g id="Online-Survey" stroke="none" stroke-width="1" fill="none" fill-rule="evenodd">
        <g id="01-Online-Survey" transform="translate(-384.000000, -507.000000)">
            <g id="Group-51" transform="translate(385.000000, 508.000000)">
                <path d="M1,92.8096164 C151.025053,9.07802134 286.77747,13.6605099 408.257253,106.557082 C493.589502,171.811343 570.594539,181.773983 641.149786,164.529396 C721.259195,144.949652 793.053762,90.29531 859.281535,41.6745018 C942.319509,-19.2874368 1035.22566,-8.17944976 1138,74.9984628" id="Line-6" stroke="#979797" stroke-linecap="square"></path>
                <path d="M-1.13686838e-13,138 C234.577415,37.2055476 426.850885,17.4711082 576.820411,78.796682 C653.66747,110.220999 740.16589,124.217235 836.315671,120.785388 C897.30876,118.608379 997.536869,99.5632375 1137,63.6499633" id="Line-4" stroke="url(#linearGradient-1)" stroke-linecap="square"></path>
                <path d="M0,35 C189.767584,168.971941 379.281233,191.692967 568.540946,103.163078 C757.800659,14.6331889 941.28701,14.6331889 1119,103.163078" id="Line-5" stroke="url(#linearGradient-1)" stroke-linecap="square"></path>
                <g id="Group-41" transform="translate(494.000000, 48.000000)">
                    <circle id="Oval-4" stroke="#979797" fill="#FFFFFF" cx="10" cy="10" r="10"></circle>
                    <circle id="Oval-4" fill="url(#linearGradient-1)" cx="10" cy="10" r="6"></circle>
                </g>
                <g id="Group-41-Copy-3" transform="translate(705.000000, 105.000000)">
                    <circle id="Oval-4" stroke="#979797" fill="#FFFFFF" cx="10" cy="10" r="10"></circle>
                    <circle id="Oval-4" fill="url(#linearGradient-1)" cx="10" cy="10" r="6"></circle>
                </g>
                <g id="Group-41-Copy" transform="translate(274.000000, 41.000000)">
                    <circle id="Oval-4" stroke="#979797" fill="#FFFFFF" cx="10" cy="10" r="10"></circle>
                    <circle id="Oval-4" fill="url(#linearGradient-1)" cx="10" cy="10" r="6"></circle>
                </g>
                <g id="Group-41-Copy-2" transform="translate(54.000000, 102.000000)">
                    <circle id="Oval-4" stroke="#979797" fill="#FFFFFF" cx="10" cy="10" r="10"></circle>
                    <circle id="Oval-4" fill="url(#linearGradient-1)" cx="10" cy="10" r="6"></circle>
                </g>
                <circle id="Oval-4" stroke="#979797" fill="#FFFFFF" cx="442" cy="129" r="10"></circle>
                <circle id="Oval-4-Copy-2" stroke="#979797" fill="#FFFFFF" cx="322" cy="59" r="10"></circle>
                <circle id="Oval-4" stroke="#979797" fill="#FFFFFF" cx="562" cy="172" r="10"></circle>
                <circle id="Oval-4" stroke="#979797" fill="#FFFFFF" cx="202" cy="34" r="10"></circle>
                <circle id="Oval-4-Copy" stroke="#979797" fill="#FFFFFF" cx="82" cy="56" r="10"></circle>
                <circle id="Oval-4-Copy-5" stroke="#979797" fill="#FFFFFF" cx="24" cy="51" r="10"></circle>
                <circle id="Oval-4-Copy-6" stroke="#979797" fill="#FFFFFF" cx="144" cy="116" r="10"></circle>
                <g id="Group-41" transform="translate(302.000000, 145.000000)">
                    <circle id="Oval-4" stroke="#979797" fill="#FFFFFF" cx="10" cy="10" r="10"></circle>
                    <circle id="Oval-4" fill="url(#linearGradient-1)" cx="10" cy="10" r="6"></circle>
                </g>
                <g id="Group-41-Copy-5" transform="translate(494.000000, 119.000000)">
                    <circle id="Oval-4" stroke="#979797" fill="#FFFFFF" cx="10" cy="10" r="10"></circle>
                    <circle id="Oval-4" fill="url(#linearGradient-1)" cx="10" cy="10" r="6"></circle>
                </g>
                <g id="Group-41-Copy-5" transform="translate(726.000000, 37.000000)">
                    <circle id="Oval-4" stroke="#979797" fill="#FFFFFF" cx="10" cy="10" r="10"></circle>
                    <circle id="Oval-4" fill="url(#linearGradient-1)" cx="10" cy="10" r="6"></circle>
                </g>
                <g id="Group-41-Copy-5" transform="translate(965.000000, 40.000000)">
                    <circle id="Oval-4" stroke="#979797" fill="#FFFFFF" cx="10" cy="10" r="10"></circle>
                    <circle id="Oval-4" fill="url(#linearGradient-1)" cx="10" cy="10" r="6"></circle>
                </g>
                <circle id="Oval-4" stroke="#979797" fill="#FFFFFF" cx="802" cy="81" r="10"></circle>
                <circle id="Oval-4-Copy-3" stroke="#979797" fill="#FFFFFF" cx="922" cy="10" r="10"></circle>
                <circle id="Oval-4-Copy-4" stroke="#979797" fill="#FFFFFF" cx="1042" cy="18" r="10"></circle>
                <circle id="Oval-4" stroke="#979797" fill="#FFFFFF" cx="682" cy="151" r="10"></circle>
                <g id="Group-54" transform="translate(925.000000, 99.000000)">
                    <circle id="Oval-4" stroke="#979797" fill="#FFFFFF" cx="10" cy="10" r="10"></circle>
                    <circle id="Oval-4" fill="url(#linearGradient-1)" cx="10" cy="10" r="6"></circle>
                </g>
            </g>
        </g>
    </g>
</svg>