<?xml version="1.0" encoding="UTF-8"?>
<svg width="131px" height="35px" viewBox="0 0 450 126" version="1.1" xmlns="http://www.w3.org/2000/svg" xmlns:xlink="http://www.w3.org/1999/xlink">
    <defs></defs>
    <g id="Page-1" stroke="none" stroke-width="1" fill="none" fill-rule="evenodd">
        <g id="Group-2" fill-rule="nonzero" fill="#4BAD00">
            <g id="Group">
                <path d="M175.271,115.249 L49.629,115.249 C47.419,115.248 45.354,114.116 44.239,112.295 C43.098,110.43 43.098,108.113 44.239,106.248 L107.069,3.624 C108.137,1.888 110.026,0.789 112.125,0.681 C112.236,0.676 112.343,0.673 112.449,0.673 C114.642,0.673 116.704,1.8 117.832,3.615 L180.658,106.248 C181.799,108.113 181.799,110.43 180.658,112.295 C179.545,114.115 177.48,115.247 175.271,115.249 Z M49.75,109.163 L175.148,109.163 L112.488,6.801 C112.474,6.792 112.456,6.783 112.439,6.775 C112.431,6.78 112.423,6.784 112.416,6.789 L49.75,109.163 Z" id="Shape"></path>
                <path d="M69.487,125.85 C67.281,125.85 65.217,124.718 64.101,122.896 L0.763,19.439 L0.821,19.347 C0.203,17.779 0.297,16.033 1.114,14.513 L1.153,14.442 C2.09,12.757 3.786,11.624 5.724,11.344 L5.764,11.276 L6.663,11.268 L132.31,11.271 C134.517,11.271 136.58,12.403 137.696,14.225 C138.837,16.089 138.837,18.407 137.695,20.275 L74.874,122.894 C73.756,124.718 71.692,125.851 69.488,125.851 L69.488,125.851 L69.487,125.85 Z M69.453,119.721 C69.464,119.729 69.479,119.737 69.493,119.743 C69.505,119.737 69.518,119.73 69.528,119.723 L132.191,17.363 L6.786,17.36 L69.453,119.721 Z" id="Shape"></path>
            </g>
            <g id="Group" transform="translate(228.000000, 20.000000)">
                <polygon id="Shape" points="42.761 1.71 57.261 1.71 41.461 69.71 15.961 69.71 0.161 1.71 14.661 1.71 26.461 57.71 30.961 57.71"></polygon>
                <path d="M57.861,69.71 L73.161,1.71 L99.361,1.71 L114.661,69.71 L100.861,69.71 L98.161,57.41 L74.361,57.41 L71.661,69.71 L57.861,69.71 Z M83.861,13.11 L76.961,45.41 L95.562,45.41 L88.662,13.11 L83.861,13.11 Z" id="Shape"></path>
                <path d="M143.961,12.51 C136.694,12.51 133.062,14.91 133.062,19.71 C133.062,21.844 133.961,23.477 135.762,24.61 C137.562,25.744 141.778,27.377 148.411,29.51 C155.044,31.645 159.694,34.06 162.361,36.76 C165.027,39.46 166.361,43.61 166.361,49.21 C166.361,56.344 164.194,61.744 159.861,65.41 C155.527,69.077 149.861,70.91 142.861,70.91 C137.661,70.91 131.294,70.11 123.761,68.51 L120.16,67.81 L121.56,57.11 C130.493,58.31 137.326,58.91 142.06,58.91 C149.125,58.91 152.66,55.977 152.66,50.11 C152.66,47.977 151.843,46.31 150.21,45.11 C148.576,43.91 145.326,42.61 140.46,41.21 C132.726,39.01 127.276,36.395 124.11,33.36 C120.943,30.327 119.36,26.11 119.36,20.71 C119.36,13.91 121.425,8.844 125.56,5.51 C129.693,2.177 135.36,0.51 142.56,0.51 C147.493,0.51 153.76,1.177 161.36,2.51 L164.96,3.21 L163.86,14.11 C154.461,13.045 147.827,12.51 143.961,12.51 Z" id="Shape"></path>
                <polygon id="Shape" points="177.46 69.71 177.46 1.71 221.46 1.71 221.46 13.71 191.261 13.71 191.261 29.61 215.46 29.61 215.46 41.41 191.261 41.41 191.261 57.71 221.46 57.71 221.46 69.71"></polygon>
            </g>
        </g>
    </g>
</svg>